<svg width="1920" height="1080" viewBox="0 0 1920 1080" fill="none" xmlns="http://www.w3.org/2000/svg">
<rect width="1920" height="1080" fill="white"/>
<rect x="757" y="458" width="441" height="164" fill="#DDDDDD"/>
<path d="M827.178 586V545.08H873.378V586H885.138V498.04H873.378V535.24H827.178V498.04H815.538V586H827.178ZM969.045 549.88C969.045 526.24 957.045 513.64 937.965 513.64C919.605 513.64 905.445 526.48 905.445 550.72C905.445 574.72 917.805 587.92 937.845 587.92C953.085 587.92 963.885 580 968.205 566.56H957.165C953.565 574.6 947.205 579.04 937.845 579.04C925.245 579.04 917.685 571.12 916.965 553.12H969.045V549.88ZM916.965 545.8C918.045 531.4 925.125 522.28 937.965 522.28C950.565 522.28 957.165 530.68 957.885 545.8H916.965ZM1013.45 576.64C1005.89 576.64 1000.73 573.4 1000.73 564.4V494.44H989.447V566.08C989.327 581.2 999.167 586.6 1011.41 586.6C1014.65 586.6 1016.93 586.36 1020.05 586V576.64H1013.45ZM1058.8 576.64C1051.24 576.64 1046.08 573.4 1046.08 564.4V494.44H1034.8V566.08C1034.68 581.2 1044.52 586.6 1056.76 586.6C1060 586.6 1062.28 586.36 1065.4 586V576.64H1058.8ZM1109.67 587.92C1128.75 587.92 1143.39 574.72 1143.39 550.96C1143.39 526.96 1128.63 513.64 1109.67 513.64C1090.83 513.64 1076.07 526.84 1076.07 550.96C1076.07 574.72 1090.59 587.92 1109.67 587.92ZM1109.67 578.92C1096.95 578.92 1087.35 569.32 1087.35 550.96C1087.35 532.36 1096.95 522.76 1109.67 522.76C1122.51 522.76 1132.11 532.36 1132.11 550.96C1132.11 569.32 1122.51 578.92 1109.67 578.92Z" fill="black"/>
<path d="M378.445 322C387.565 322 393.265 317.86 393.265 309.46C393.265 303.7 390.325 299.8 384.385 298.72C388.945 297.16 391.525 294.1 391.525 289.12C391.525 281.92 386.665 278.02 377.785 278.02H360.265V322H378.445ZM366.085 282.64H377.365C382.885 282.64 385.705 284.86 385.705 289.54C385.705 294.22 382.945 296.74 377.665 296.74H366.085V282.64ZM366.085 301.42H378.325C384.445 301.42 387.325 304.24 387.325 309.4C387.325 314.86 384.265 317.38 377.965 317.38H366.085V301.42ZM425.541 312.88C423.141 315.76 419.961 318.34 415.701 318.34C411.021 318.34 408.561 315.58 408.561 309.4V286.84H402.921V309.64C402.921 317.5 406.821 322.96 414.501 322.96C419.421 322.96 423.021 320.74 426.021 316.96L427.041 322H431.181V286.84H425.541V312.88ZM457.804 317.44C453.424 317.44 451.144 315.58 451.144 311.26V291.22H460.504V286.84H451.144V278.62H446.704L445.744 286.84H440.284V291.22H445.504V311.74C445.504 319.06 449.644 322.3 457.204 322.3C458.824 322.3 460.624 322.18 462.004 322V317.44H457.804ZM485.284 317.44C480.904 317.44 478.624 315.58 478.624 311.26V291.22H487.984V286.84H478.624V278.62H474.184L473.224 286.84H467.764V291.22H472.984V311.74C472.984 319.06 477.124 322.3 484.684 322.3C486.304 322.3 488.104 322.18 489.484 322V317.44H485.284ZM512.78 322.96C522.32 322.96 529.64 316.36 529.64 304.48C529.64 292.48 522.26 285.82 512.78 285.82C503.36 285.82 495.98 292.42 495.98 304.48C495.98 316.36 503.24 322.96 512.78 322.96ZM512.78 318.46C506.42 318.46 501.62 313.66 501.62 304.48C501.62 295.18 506.42 290.38 512.78 290.38C519.2 290.38 524 295.18 524 304.48C524 313.66 519.2 318.46 512.78 318.46ZM556.896 285.82C551.916 285.82 548.256 288.04 545.376 291.82L544.296 286.84H540.156V322H545.796V296.02C548.256 292.96 551.376 290.44 555.756 290.44C561.036 290.44 563.076 293.86 563.076 299.5V322H568.716V299.14C568.716 291.34 564.816 285.82 556.896 285.82ZM594.52 307.54L597.7 303.88C601.18 299.92 604.9 295.72 604.9 289.42C604.9 282.04 599.74 277.06 591.28 277.06C582.88 277.06 577.18 282.1 577.18 289.48H582.88C582.88 284.98 585.88 281.86 591.28 281.86C596.08 281.86 599.08 284.56 599.08 289.42C599.08 293.8 596.44 297.46 592.24 302.38L587.74 307.54H594.52ZM595.18 322V314.74H587.44V322H595.18Z" fill="black"/>
<path d="M735.247 544.667C736.444 543.978 736.855 542.45 736.167 541.253L724.943 521.752C724.254 520.556 722.726 520.144 721.529 520.833C720.332 521.521 719.921 523.05 720.609 524.246L730.586 541.58L713.252 551.557C712.056 552.246 711.644 553.774 712.333 554.971C713.021 556.168 714.55 556.579 715.746 555.891L735.247 544.667ZM509.627 364.787C525.021 411.221 550.167 448.011 586.942 477.33C623.676 506.616 671.904 528.361 733.35 544.914L734.65 540.086C673.596 523.639 626.074 502.134 590.058 473.42C554.083 444.739 529.479 408.779 514.373 363.213L509.627 364.787Z" fill="black"/>
</svg>
