<svg width="1920" height="1080" viewBox="0 0 1920 1080" fill="none" xmlns="http://www.w3.org/2000/svg">
<rect width="1920" height="1080" fill="white"/>
<rect x="757" y="458" width="441" height="164" fill="#DDDDDD"/>
<path d="M827.178 586V545.08H873.378V586H885.138V498.04H873.378V535.24H827.178V498.04H815.538V586H827.178ZM969.045 549.88C969.045 526.24 957.045 513.64 937.965 513.64C919.605 513.64 905.445 526.48 905.445 550.72C905.445 574.72 917.805 587.92 937.845 587.92C953.085 587.92 963.885 580 968.205 566.56H957.165C953.565 574.6 947.205 579.04 937.845 579.04C925.245 579.04 917.685 571.12 916.965 553.12H969.045V549.88ZM916.965 545.8C918.045 531.4 925.125 522.28 937.965 522.28C950.565 522.28 957.165 530.68 957.885 545.8H916.965ZM1013.45 576.64C1005.89 576.64 1000.73 573.4 1000.73 564.4V494.44H989.447V566.08C989.327 581.2 999.167 586.6 1011.41 586.6C1014.65 586.6 1016.93 586.36 1020.05 586V576.64H1013.45ZM1058.8 576.64C1051.24 576.64 1046.08 573.4 1046.08 564.4V494.44H1034.8V566.08C1034.68 581.2 1044.52 586.6 1056.76 586.6C1060 586.6 1062.28 586.36 1065.4 586V576.64H1058.8ZM1109.67 587.92C1128.75 587.92 1143.39 574.72 1143.39 550.96C1143.39 526.96 1128.63 513.64 1109.67 513.64C1090.83 513.64 1076.07 526.84 1076.07 550.96C1076.07 574.72 1090.59 587.92 1109.67 587.92ZM1109.67 578.92C1096.95 578.92 1087.35 569.32 1087.35 550.96C1087.35 532.36 1096.95 522.76 1109.67 522.76C1122.51 522.76 1132.11 532.36 1132.11 550.96C1132.11 569.32 1122.51 578.92 1109.67 578.92Z" fill="black"/>
</svg>
