<svg width="1920" height="1080" viewBox="0 0 1920 1080" fill="none" xmlns="http://www.w3.org/2000/svg">
<rect width="1920" height="1080" fill="white"/>
<g filter="url(#filter0_ii_3_42)">
<rect x="653" y="458" width="649" height="164" rx="82" fill="url(#paint0_linear_3_42)"/>
</g>
<g filter="url(#filter1_f_3_42)">
<rect width="589" height="98" rx="49" transform="matrix(1 0 0 -1 683 622)" fill="url(#paint1_linear_3_42)"/>
</g>
<g filter="url(#filter2_d_3_42)">
<path d="M827.178 586V545.08H873.378V586H885.138V498.04H873.378V535.24H827.178V498.04H815.538V586H827.178ZM969.045 549.88C969.045 526.24 957.045 513.64 937.965 513.64C919.605 513.64 905.445 526.48 905.445 550.72C905.445 574.72 917.805 587.92 937.845 587.92C953.085 587.92 963.885 580 968.205 566.56H957.165C953.565 574.6 947.205 579.04 937.845 579.04C925.245 579.04 917.685 571.12 916.965 553.12H969.045V549.88ZM916.965 545.8C918.045 531.4 925.125 522.28 937.965 522.28C950.565 522.28 957.165 530.68 957.885 545.8H916.965ZM1013.45 576.64C1005.89 576.64 1000.73 573.4 1000.73 564.4V494.44H989.447V566.08C989.327 581.2 999.167 586.6 1011.41 586.6C1014.65 586.6 1016.93 586.36 1020.05 586V576.64H1013.45ZM1058.8 576.64C1051.24 576.64 1046.08 573.4 1046.08 564.4V494.44H1034.8V566.08C1034.68 581.2 1044.52 586.6 1056.76 586.6C1060 586.6 1062.28 586.36 1065.4 586V576.64H1058.8ZM1109.67 587.92C1128.75 587.92 1143.39 574.72 1143.39 550.96C1143.39 526.96 1128.63 513.64 1109.67 513.64C1090.83 513.64 1076.07 526.84 1076.07 550.96C1076.07 574.72 1090.59 587.92 1109.67 587.92ZM1109.67 578.92C1096.95 578.92 1087.35 569.32 1087.35 550.96C1087.35 532.36 1096.95 522.76 1109.67 522.76C1122.51 522.76 1132.11 532.36 1132.11 550.96C1132.11 569.32 1122.51 578.92 1109.67 578.92Z" fill="black"/>
</g>
<path d="M683 506C683 490.536 705.613 468 721.129 468H1233.87C1249.39 468 1272 490.536 1272 506C1272 521.464 1249.39 524 1233.87 524H721.129C705.613 524 683 521.464 683 506Z" fill="url(#paint2_linear_3_42)"/>
<defs>
<filter id="filter0_ii_3_42" x="653" y="448" width="649" height="184" filterUnits="userSpaceOnUse" color-interpolation-filters="sRGB">
<feFlood flood-opacity="0" result="BackgroundImageFix"/>
<feBlend mode="normal" in="SourceGraphic" in2="BackgroundImageFix" result="shape"/>
<feColorMatrix in="SourceAlpha" type="matrix" values="0 0 0 0 0 0 0 0 0 0 0 0 0 0 0 0 0 0 127 0" result="hardAlpha"/>
<feOffset dy="10"/>
<feGaussianBlur stdDeviation="5"/>
<feComposite in2="hardAlpha" operator="arithmetic" k2="-1" k3="1"/>
<feColorMatrix type="matrix" values="0 0 0 0 1 0 0 0 0 1 0 0 0 0 1 0 0 0 0.4 0"/>
<feBlend mode="normal" in2="shape" result="effect1_innerShadow_3_42"/>
<feColorMatrix in="SourceAlpha" type="matrix" values="0 0 0 0 0 0 0 0 0 0 0 0 0 0 0 0 0 0 127 0" result="hardAlpha"/>
<feOffset dy="-10"/>
<feGaussianBlur stdDeviation="5"/>
<feComposite in2="hardAlpha" operator="arithmetic" k2="-1" k3="1"/>
<feColorMatrix type="matrix" values="0 0 0 0 0 0 0 0 0 0.27 0 0 0 0 0.675 0 0 0 0.25 0"/>
<feBlend mode="normal" in2="effect1_innerShadow_3_42" result="effect2_innerShadow_3_42"/>
</filter>
<filter id="filter1_f_3_42" x="663" y="504" width="629" height="138" filterUnits="userSpaceOnUse" color-interpolation-filters="sRGB">
<feFlood flood-opacity="0" result="BackgroundImageFix"/>
<feBlend mode="normal" in="SourceGraphic" in2="BackgroundImageFix" result="shape"/>
<feGaussianBlur stdDeviation="10" result="effect1_foregroundBlur_3_42"/>
</filter>
<filter id="filter2_d_3_42" x="800.538" y="489.44" width="357.852" height="123.48" filterUnits="userSpaceOnUse" color-interpolation-filters="sRGB">
<feFlood flood-opacity="0" result="BackgroundImageFix"/>
<feColorMatrix in="SourceAlpha" type="matrix" values="0 0 0 0 0 0 0 0 0 0 0 0 0 0 0 0 0 0 127 0" result="hardAlpha"/>
<feOffset dy="10"/>
<feGaussianBlur stdDeviation="7.5"/>
<feComposite in2="hardAlpha" operator="out"/>
<feColorMatrix type="matrix" values="0 0 0 0 0 0 0 0 0 0 0 0 0 0 0 0 0 0 0.25 0"/>
<feBlend mode="normal" in2="BackgroundImageFix" result="effect1_dropShadow_3_42"/>
<feBlend mode="normal" in="SourceGraphic" in2="effect1_dropShadow_3_42" result="shape"/>
</filter>
<linearGradient id="paint0_linear_3_42" x1="977.5" y1="458" x2="977.5" y2="622" gradientUnits="userSpaceOnUse">
<stop stop-color="#3B79D5"/>
<stop offset="1" stop-color="#68A2E1"/>
</linearGradient>
<linearGradient id="paint1_linear_3_42" x1="294.5" y1="-5.49242e-08" x2="296.202" y2="89.2261" gradientUnits="userSpaceOnUse">
<stop stop-color="#CEEDFF"/>
<stop offset="1" stop-color="#C9EBFF" stop-opacity="0"/>
</linearGradient>
<linearGradient id="paint2_linear_3_42" x1="977.5" y1="468" x2="978.076" y2="518.998" gradientUnits="userSpaceOnUse">
<stop stop-color="white" stop-opacity="0.57"/>
<stop offset="1" stop-color="white" stop-opacity="0"/>
</linearGradient>
</defs>
</svg>
