<svg width="1920" height="1080" viewBox="0 0 1920 1080" fill="none" xmlns="http://www.w3.org/2000/svg">
<rect width="1920" height="1080" fill="white"/>
<path d="M378.445 322C387.565 322 393.265 317.86 393.265 309.46C393.265 303.7 390.325 299.8 384.385 298.72C388.945 297.16 391.525 294.1 391.525 289.12C391.525 281.92 386.665 278.02 377.785 278.02H360.265V322H378.445ZM366.085 282.64H377.365C382.885 282.64 385.705 284.86 385.705 289.54C385.705 294.22 382.945 296.74 377.665 296.74H366.085V282.64ZM366.085 301.42H378.325C384.445 301.42 387.325 304.24 387.325 309.4C387.325 314.86 384.265 317.38 377.965 317.38H366.085V301.42ZM425.541 312.88C423.141 315.76 419.961 318.34 415.701 318.34C411.021 318.34 408.561 315.58 408.561 309.4V286.84H402.921V309.64C402.921 317.5 406.821 322.96 414.501 322.96C419.421 322.96 423.021 320.74 426.021 316.96L427.041 322H431.181V286.84H425.541V312.88ZM457.804 317.44C453.424 317.44 451.144 315.58 451.144 311.26V291.22H460.504V286.84H451.144V278.62H446.704L445.744 286.84H440.284V291.22H445.504V311.74C445.504 319.06 449.644 322.3 457.204 322.3C458.824 322.3 460.624 322.18 462.004 322V317.44H457.804ZM485.284 317.44C480.904 317.44 478.624 315.58 478.624 311.26V291.22H487.984V286.84H478.624V278.62H474.184L473.224 286.84H467.764V291.22H472.984V311.74C472.984 319.06 477.124 322.3 484.684 322.3C486.304 322.3 488.104 322.18 489.484 322V317.44H485.284ZM512.78 322.96C522.32 322.96 529.64 316.36 529.64 304.48C529.64 292.48 522.26 285.82 512.78 285.82C503.36 285.82 495.98 292.42 495.98 304.48C495.98 316.36 503.24 322.96 512.78 322.96ZM512.78 318.46C506.42 318.46 501.62 313.66 501.62 304.48C501.62 295.18 506.42 290.38 512.78 290.38C519.2 290.38 524 295.18 524 304.48C524 313.66 519.2 318.46 512.78 318.46ZM556.896 285.82C551.916 285.82 548.256 288.04 545.376 291.82L544.296 286.84H540.156V322H545.796V296.02C548.256 292.96 551.376 290.44 555.756 290.44C561.036 290.44 563.076 293.86 563.076 299.5V322H568.716V299.14C568.716 291.34 564.816 285.82 556.896 285.82ZM594.52 307.54L597.7 303.88C601.18 299.92 604.9 295.72 604.9 289.42C604.9 282.04 599.74 277.06 591.28 277.06C582.88 277.06 577.18 282.1 577.18 289.48H582.88C582.88 284.98 585.88 281.86 591.28 281.86C596.08 281.86 599.08 284.56 599.08 289.42C599.08 293.8 596.44 297.46 592.24 302.38L587.74 307.54H594.52ZM595.18 322V314.74H587.44V322H595.18Z" fill="black"/>
<path d="M735.247 544.667C736.444 543.978 736.855 542.45 736.167 541.253L724.943 521.752C724.254 520.556 722.726 520.144 721.529 520.833C720.332 521.521 719.921 523.05 720.609 524.246L730.586 541.58L713.252 551.557C712.056 552.246 711.644 553.774 712.333 554.971C713.021 556.168 714.55 556.579 715.746 555.891L735.247 544.667ZM509.627 364.787C525.021 411.221 550.167 448.011 586.942 477.33C623.676 506.616 671.904 528.361 733.35 544.914L734.65 540.086C673.596 523.639 626.074 502.134 590.058 473.42C554.083 444.739 529.479 408.779 514.373 363.213L509.627 364.787Z" fill="black"/>
<path d="M955.516 146.02V150.88H969.376V190H975.196V150.88H989.056V146.02H955.516ZM1022.98 171.94C1022.98 160.12 1016.98 153.82 1007.44 153.82C998.262 153.82 991.182 160.24 991.182 172.36C991.182 184.36 997.362 190.96 1007.38 190.96C1015 190.96 1020.4 187 1022.56 180.28H1017.04C1015.24 184.3 1012.06 186.52 1007.38 186.52C1001.08 186.52 997.302 182.56 996.942 173.56H1022.98V171.94ZM996.942 169.9C997.482 162.7 1001.02 158.14 1007.44 158.14C1013.74 158.14 1017.04 162.34 1017.4 169.9H996.942ZM1059.37 154.84H1053.31L1044.19 169.12L1035.01 154.84H1028.89L1040.65 171.94L1027.99 190H1034.35L1044.19 175.12L1053.91 190H1060.33L1047.67 171.94L1059.37 154.84ZM1082.79 185.44C1078.41 185.44 1076.13 183.58 1076.13 179.26V159.22H1085.49V154.84H1076.13V146.62H1071.69L1070.73 154.84H1065.27V159.22H1070.49V179.74C1070.49 187.06 1074.63 190.3 1082.19 190.3C1083.81 190.3 1085.61 190.18 1086.99 190V185.44H1082.79ZM1119.68 190V146.02H1113.86V190H1119.68ZM1148.89 153.82C1143.91 153.82 1140.25 156.04 1137.37 159.82L1136.29 154.84H1132.15V190H1137.79V164.02C1140.25 160.96 1143.37 158.44 1147.75 158.44C1153.03 158.44 1155.07 161.86 1155.07 167.5V190H1160.71V167.14C1160.71 159.34 1156.81 153.82 1148.89 153.82ZM1189.85 153.82C1185.05 153.82 1181.27 155.56 1178.21 159.28L1177.31 154.84H1173.17V201.1H1178.81V186.7C1181.39 189.28 1184.69 190.96 1189.07 190.96C1198.55 190.96 1205.33 183.64 1205.33 171.94C1205.33 160.96 1199.09 153.82 1189.85 153.82ZM1188.65 186.46C1184.51 186.46 1181.33 184.48 1178.81 181.96V163C1181.45 160.48 1184.69 158.38 1189.07 158.38C1195.25 158.38 1199.63 162.76 1199.63 171.94C1199.63 182.32 1194.53 186.46 1188.65 186.46ZM1238.09 180.88C1235.69 183.76 1232.51 186.34 1228.25 186.34C1223.57 186.34 1221.11 183.58 1221.11 177.4V154.84H1215.47V177.64C1215.47 185.5 1219.37 190.96 1227.05 190.96C1231.97 190.96 1235.57 188.74 1238.57 184.96L1239.59 190H1243.73V154.84H1238.09V180.88ZM1270.35 185.44C1265.97 185.44 1263.69 183.58 1263.69 179.26V159.22H1273.05V154.84H1263.69V146.62H1259.25L1258.29 154.84H1252.83V159.22H1258.05V179.74C1258.05 187.06 1262.19 190.3 1269.75 190.3C1271.37 190.3 1273.17 190.18 1274.55 190V185.44H1270.35ZM1298.55 175.54L1301.73 171.88C1305.21 167.92 1308.93 163.72 1308.93 157.42C1308.93 150.04 1303.77 145.06 1295.31 145.06C1286.91 145.06 1281.21 150.1 1281.21 157.48H1286.91C1286.91 152.98 1289.91 149.86 1295.31 149.86C1300.11 149.86 1303.11 152.56 1303.11 157.42C1303.11 161.8 1300.47 165.46 1296.27 170.38L1291.77 175.54H1298.55ZM1299.21 190V182.74H1291.47V190H1299.21Z" fill="black"/>
<path d="M1158.68 433.493C1157.3 433.593 1156.11 432.558 1156.01 431.181L1154.38 408.74C1154.28 407.362 1155.32 406.165 1156.69 406.065C1158.07 405.966 1159.27 407.001 1159.37 408.378L1160.81 428.326L1180.76 426.88C1182.14 426.781 1183.33 427.816 1183.43 429.193C1183.53 430.57 1182.5 431.768 1181.12 431.867L1158.68 433.493ZM1160.55 235.573C1181.12 265.171 1197.43 295.612 1200.36 328.15C1203.31 360.83 1192.74 395.229 1160.39 432.635L1156.61 429.365C1188.26 392.771 1198.19 359.67 1195.38 328.6C1192.57 297.388 1176.88 267.829 1156.45 238.427L1160.55 235.573Z" fill="black"/>
<path d="M1407.07 458V437.54H1430.17V458H1436.05V414.02H1430.17V432.62H1407.07V414.02H1401.25V458H1407.07ZM1451.36 469.4C1457.66 469.4 1460.24 466.46 1461.92 461.72L1475.9 422.84H1470.14L1460.66 452.96L1450.16 422.84H1444.4L1457.84 457.88L1456.76 460.88C1455.62 464 1453.46 464.66 1451 464.66H1448.18V469.1C1449.02 469.28 1450.28 469.4 1451.36 469.4ZM1501.25 421.82C1496.45 421.82 1492.67 423.56 1489.61 427.28L1488.71 422.84H1484.57V469.1H1490.21V454.7C1492.79 457.28 1496.09 458.96 1500.47 458.96C1509.95 458.96 1516.73 451.64 1516.73 439.94C1516.73 428.96 1510.49 421.82 1501.25 421.82ZM1500.05 454.46C1495.91 454.46 1492.73 452.48 1490.21 449.96V431C1492.85 428.48 1496.09 426.38 1500.47 426.38C1506.65 426.38 1511.03 430.76 1511.03 439.94C1511.03 450.32 1505.93 454.46 1500.05 454.46ZM1556.69 439.94C1556.69 428.12 1550.69 421.82 1541.15 421.82C1531.97 421.82 1524.89 428.24 1524.89 440.36C1524.89 452.36 1531.07 458.96 1541.09 458.96C1548.71 458.96 1554.11 455 1556.27 448.28H1550.75C1548.95 452.3 1545.77 454.52 1541.09 454.52C1534.79 454.52 1531.01 450.56 1530.65 441.56H1556.69V439.94ZM1530.65 437.9C1531.19 430.7 1534.73 426.14 1541.15 426.14C1547.45 426.14 1550.75 430.34 1551.11 437.9H1530.65ZM1584.29 422.72C1579.91 422.72 1576.01 425.6 1573.85 429.86L1572.47 422.84H1563.05V426.74L1568.33 427.22V458H1573.97V434.96C1576.13 430.22 1579.97 429.02 1584.17 429.02H1586.57V422.84C1586.03 422.78 1585.31 422.72 1584.29 422.72ZM1606.78 453.32C1603 453.32 1600.42 451.7 1600.42 447.2V412.22H1594.78V448.04C1594.72 455.6 1599.64 458.3 1605.76 458.3C1607.38 458.3 1608.52 458.18 1610.08 458V453.32H1606.78ZM1617.22 409.64V416.42H1623.16V409.64H1617.22ZM1624.54 422.84H1613.62V426.74L1618.9 427.22V458H1624.54V422.84ZM1654.13 421.82C1649.15 421.82 1645.49 424.04 1642.61 427.82L1641.53 422.84H1637.39V458H1643.03V432.02C1645.49 428.96 1648.61 426.44 1652.99 426.44C1658.27 426.44 1660.31 429.86 1660.31 435.5V458H1665.95V435.14C1665.95 427.34 1662.05 421.82 1654.13 421.82ZM1707.56 458L1693.04 436.76L1706.96 422.84H1700.3L1683.98 439.76V412.22H1678.4V458H1683.98V445.82L1689.56 440.24L1701.32 458H1707.56ZM1730.54 443.54L1733.72 439.88C1737.2 435.92 1740.92 431.72 1740.92 425.42C1740.92 418.04 1735.76 413.06 1727.3 413.06C1718.9 413.06 1713.2 418.1 1713.2 425.48H1718.9C1718.9 420.98 1721.9 417.86 1727.3 417.86C1732.1 417.86 1735.1 420.56 1735.1 425.42C1735.1 429.8 1732.46 433.46 1728.26 438.38L1723.76 443.54H1730.54ZM1731.2 458V450.74H1723.46V458H1731.2Z" fill="black"/>
<path d="M1206.35 620.282C1205.65 619.097 1206.03 617.562 1207.22 616.854L1226.53 605.315C1227.72 604.606 1229.25 604.993 1229.96 606.179C1230.67 607.364 1230.28 608.899 1229.1 609.607L1211.93 619.864L1222.19 637.034C1222.89 638.219 1222.51 639.754 1221.32 640.462C1220.14 641.17 1218.6 640.783 1217.89 639.598L1206.35 620.282ZM1523.86 489.828C1505.54 541.985 1457.34 582.656 1398.56 606.381C1339.75 630.12 1269.96 637.067 1207.89 621.424L1209.11 616.576C1270.04 631.933 1338.75 625.13 1396.69 601.744C1454.66 578.344 1501.46 538.515 1519.14 488.172L1523.86 489.828Z" fill="black"/>
<path d="M1153.88 849.96C1163.24 849.96 1170.08 845.46 1170.08 837.24C1170.08 830.76 1166.42 827.04 1159.16 825.12L1151.36 823.08C1146.86 821.88 1143.98 820.38 1143.98 816.18C1143.98 811.8 1147.64 808.86 1153.88 808.86C1159.88 808.86 1163.18 811.8 1163.66 816.96H1169.42C1168.88 808.62 1162.82 804.06 1153.88 804.06C1144.7 804.06 1138.16 808.8 1138.16 816.18C1138.16 822.54 1141.64 826.02 1148.9 827.88L1156.7 829.92C1161.98 831.3 1164.08 833.22 1164.08 837.24C1164.08 842.22 1160.48 845.22 1153.88 845.22C1146.86 845.22 1142.9 842.22 1142.54 835.38H1136.72C1137.14 844.74 1143.2 849.96 1153.88 849.96ZM1193.48 844.44C1189.1 844.44 1186.82 842.58 1186.82 838.26V818.22H1196.18V813.84H1186.82V805.62H1182.38L1181.42 813.84H1175.96V818.22H1181.18V838.74C1181.18 846.06 1185.32 849.3 1192.88 849.3C1194.5 849.3 1196.3 849.18 1197.68 849V844.44H1193.48ZM1235.42 844.74C1233.5 844.74 1232.9 843.54 1232.9 841.32V824.52C1232.9 817.32 1228.58 812.82 1219.82 812.82C1212.2 812.82 1206.38 816.84 1205.96 823.2H1211.48C1211.9 819.3 1215.2 817.08 1219.82 817.08C1224.8 817.08 1227.26 819.66 1227.26 824.22V828.36L1220.42 828.42C1208.3 828.54 1204.52 833.7 1204.52 840C1204.52 846.06 1209.02 849.96 1216.1 849.96C1221.26 849.96 1225.22 847.92 1227.8 845.22C1228.46 847.56 1230.5 849.3 1233.74 849.3C1234.58 849.3 1235.42 849.24 1236.08 849V844.74H1235.42ZM1210.16 839.88C1210.16 835.68 1212.68 832.08 1221.26 832.08H1227.26V841.44L1227.32 841.74C1224.56 843.9 1221.2 845.76 1216.94 845.76C1212.8 845.76 1210.16 843.54 1210.16 839.88ZM1258.93 844.44C1254.55 844.44 1252.27 842.58 1252.27 838.26V818.22H1261.63V813.84H1252.27V805.62H1247.83L1246.87 813.84H1241.41V818.22H1246.63V838.74C1246.63 846.06 1250.77 849.3 1258.33 849.3C1259.95 849.3 1261.75 849.18 1263.13 849V844.44H1258.93ZM1272.07 800.64V807.42H1278.01V800.64H1272.07ZM1279.39 813.84H1268.47V817.74L1273.75 818.22V849H1279.39V813.84ZM1306.28 849.96C1313.72 849.96 1319.48 846.12 1321.1 839.28H1315.46C1314.14 843.36 1310.54 845.46 1306.28 845.46C1299.98 845.46 1295.54 840.78 1295.54 831.48C1295.54 822.3 1300.1 817.38 1306.46 817.38C1311.68 817.38 1314.02 819.78 1315.28 823.2H1320.92C1319.48 817.02 1314.86 812.82 1306.46 812.82C1296.62 812.82 1289.9 819.84 1289.9 831.48C1289.9 843.3 1296.26 849.96 1306.28 849.96ZM1343.01 805.02V809.88H1356.87V849H1362.69V809.88H1376.55V805.02H1343.01ZM1410.47 830.94C1410.47 819.12 1404.47 812.82 1394.93 812.82C1385.75 812.82 1378.67 819.24 1378.67 831.36C1378.67 843.36 1384.85 849.96 1394.87 849.96C1402.49 849.96 1407.89 846 1410.05 839.28H1404.53C1402.73 843.3 1399.55 845.52 1394.87 845.52C1388.57 845.52 1384.79 841.56 1384.43 832.56H1410.47V830.94ZM1384.43 828.9C1384.97 821.7 1388.51 817.14 1394.93 817.14C1401.23 817.14 1404.53 821.34 1404.89 828.9H1384.43ZM1446.87 813.84H1440.81L1431.69 828.12L1422.51 813.84H1416.39L1428.15 830.94L1415.49 849H1421.85L1431.69 834.12L1441.41 849H1447.83L1435.17 830.94L1446.87 813.84ZM1470.28 844.44C1465.9 844.44 1463.62 842.58 1463.62 838.26V818.22H1472.98V813.84H1463.62V805.62H1459.18L1458.22 813.84H1452.76V818.22H1457.98V838.74C1457.98 846.06 1462.12 849.3 1469.68 849.3C1471.3 849.3 1473.1 849.18 1474.48 849V844.44H1470.28ZM1498.48 834.54L1501.66 830.88C1505.14 826.92 1508.86 822.72 1508.86 816.42C1508.86 809.04 1503.7 804.06 1495.24 804.06C1486.84 804.06 1481.14 809.1 1481.14 816.48H1486.84C1486.84 811.98 1489.84 808.86 1495.24 808.86C1500.04 808.86 1503.04 811.56 1503.04 816.42C1503.04 820.8 1500.4 824.46 1496.2 829.38L1491.7 834.54H1498.48ZM1499.14 849V841.74H1491.4V849H1499.14Z" fill="black"/>
<path d="M906.902 647.754C908.143 647.148 909.64 647.662 910.246 648.902L920.126 669.117C920.732 670.358 920.218 671.855 918.977 672.461C917.737 673.067 916.24 672.553 915.633 671.313L906.852 653.344L888.883 662.126C887.642 662.732 886.145 662.218 885.539 660.977C884.933 659.737 885.447 658.24 886.687 657.633L906.902 647.754ZM1123.43 864.321C999.118 914.045 853.88 799.888 905.636 649.188L910.364 650.812C860.12 797.112 1000.88 907.955 1121.57 859.679L1123.43 864.321Z" fill="black"/>
<path d="M247.933 871.52C254.053 869.72 257.413 865.52 257.413 858.92C257.413 851 252.253 846.02 243.193 846.02H225.193V890H231.013V872.36H242.113L252.733 890H259.453L247.933 871.52ZM242.293 850.64C248.233 850.64 251.473 853.64 251.473 858.92C251.473 864.62 248.173 867.68 242.533 867.68H231.013V850.64H242.293ZM296.352 885.74C294.432 885.74 293.832 884.54 293.832 882.32V865.52C293.832 858.32 289.512 853.82 280.752 853.82C273.132 853.82 267.312 857.84 266.892 864.2H272.412C272.832 860.3 276.132 858.08 280.752 858.08C285.732 858.08 288.192 860.66 288.192 865.22V869.36L281.352 869.42C269.232 869.54 265.452 874.7 265.452 881C265.452 887.06 269.952 890.96 277.032 890.96C282.192 890.96 286.152 888.92 288.732 886.22C289.392 888.56 291.432 890.3 294.672 890.3C295.512 890.3 296.352 890.24 297.012 890V885.74H296.352ZM271.092 880.88C271.092 876.68 273.612 873.08 282.192 873.08H288.192V882.44L288.252 882.74C285.492 884.9 282.132 886.76 277.872 886.76C273.732 886.76 271.092 884.54 271.092 880.88ZM330.945 858.08C328.365 855.5 325.065 853.82 320.625 853.82C311.145 853.82 304.365 861.14 304.365 872.84C304.365 883.82 310.605 890.96 319.845 890.96C324.705 890.96 328.425 889.16 331.485 885.5L332.445 890H336.585V844.22H330.945V858.08ZM320.625 886.4C314.445 886.4 310.065 882.02 310.065 872.84C310.065 862.46 315.165 858.32 321.045 858.32C325.245 858.32 328.425 860.3 330.945 862.88V881.78C328.365 884.24 325.065 886.4 320.625 886.4ZM348.88 841.64V848.42H354.82V841.64H348.88ZM356.2 854.84H345.28V858.74L350.56 859.22V890H356.2V854.84ZM383.509 890.96C393.049 890.96 400.369 884.36 400.369 872.48C400.369 860.48 392.989 853.82 383.509 853.82C374.089 853.82 366.709 860.42 366.709 872.48C366.709 884.36 373.969 890.96 383.509 890.96ZM383.509 886.46C377.149 886.46 372.349 881.66 372.349 872.48C372.349 863.18 377.149 858.38 383.509 858.38C389.929 858.38 394.729 863.18 394.729 872.48C394.729 881.66 389.929 886.46 383.509 886.46ZM445.379 853.82C440.819 853.82 437.219 855.38 434.279 858.68V844.22H428.639V890H432.779L433.619 885.98C436.319 888.98 439.799 890.96 444.599 890.96C454.079 890.96 460.859 883.64 460.859 871.94C460.859 860.96 454.619 853.82 445.379 853.82ZM444.179 886.46C439.979 886.46 436.739 884.48 434.279 881.9V863C436.859 860.54 440.159 858.38 444.599 858.38C450.779 858.38 455.159 862.76 455.159 871.94C455.159 882.32 450.059 886.46 444.179 886.46ZM493.614 880.88C491.214 883.76 488.034 886.34 483.774 886.34C479.094 886.34 476.634 883.58 476.634 877.4V854.84H470.994V877.64C470.994 885.5 474.894 890.96 482.574 890.96C487.494 890.96 491.094 888.74 494.094 884.96L495.114 890H499.254V854.84H493.614V880.88ZM525.876 885.44C521.496 885.44 519.216 883.58 519.216 879.26V859.22H528.576V854.84H519.216V846.62H514.776L513.816 854.84H508.356V859.22H513.576V879.74C513.576 887.06 517.716 890.3 525.276 890.3C526.896 890.3 528.696 890.18 530.076 890V885.44H525.876ZM553.357 885.44C548.977 885.44 546.697 883.58 546.697 879.26V859.22H556.057V854.84H546.697V846.62H542.257L541.297 854.84H535.837V859.22H541.057V879.74C541.057 887.06 545.197 890.3 552.757 890.3C554.377 890.3 556.177 890.18 557.557 890V885.44H553.357ZM580.853 890.96C590.393 890.96 597.713 884.36 597.713 872.48C597.713 860.48 590.333 853.82 580.853 853.82C571.433 853.82 564.053 860.42 564.053 872.48C564.053 884.36 571.313 890.96 580.853 890.96ZM580.853 886.46C574.493 886.46 569.693 881.66 569.693 872.48C569.693 863.18 574.493 858.38 580.853 858.38C587.273 858.38 592.073 863.18 592.073 872.48C592.073 881.66 587.273 886.46 580.853 886.46ZM624.969 853.82C619.989 853.82 616.329 856.04 613.449 859.82L612.369 854.84H608.229V890H613.869V864.02C616.329 860.96 619.449 858.44 623.829 858.44C629.109 858.44 631.149 861.86 631.149 867.5V890H636.789V867.14C636.789 859.34 632.889 853.82 624.969 853.82ZM662.592 875.54L665.772 871.88C669.252 867.92 672.972 863.72 672.972 857.42C672.972 850.04 667.812 845.06 659.352 845.06C650.952 845.06 645.252 850.1 645.252 857.48H650.952C650.952 852.98 653.952 849.86 659.352 849.86C664.152 849.86 667.152 852.56 667.152 857.42C667.152 861.8 664.512 865.46 660.312 870.38L655.812 875.54H662.592ZM663.252 890V882.74H655.512V890H663.252Z" fill="black"/>
<path d="M791.876 628.1C792.925 627.202 794.503 627.326 795.4 628.376L810.019 645.479C810.916 646.529 810.793 648.107 809.743 649.004C808.694 649.901 807.116 649.778 806.219 648.728L793.224 633.525L778.021 646.519C776.971 647.416 775.393 647.293 774.496 646.243C773.599 645.194 773.722 643.616 774.772 642.719L791.876 628.1ZM460.003 821.387C461.142 796.187 467.01 777.058 476.609 762.608C486.221 748.139 499.447 738.552 514.964 732.239C545.807 719.69 586.054 719.971 625.779 720.438C665.818 720.908 705.352 721.569 735.858 710.379C751.02 704.818 763.835 696.361 773.332 683.558C782.836 670.747 789.16 653.393 791.008 629.805L795.992 630.195C794.09 654.482 787.539 672.8 777.348 686.537C767.15 700.284 753.449 709.253 737.58 715.074C706.023 726.649 665.432 725.904 625.721 725.437C585.696 724.967 546.568 724.779 516.848 736.87C502.084 742.877 489.732 751.888 480.774 765.375C471.802 778.88 466.108 797.063 464.997 821.613L460.003 821.387Z" fill="black"/>
<rect x="581" y="458" width="441" height="164" fill="#DDDDDD"/>
<path d="M651.178 586V545.08H697.378V586H709.138V498.04H697.378V535.24H651.178V498.04H639.538V586H651.178ZM793.045 549.88C793.045 526.24 781.045 513.64 761.965 513.64C743.605 513.64 729.445 526.48 729.445 550.72C729.445 574.72 741.805 587.92 761.845 587.92C777.085 587.92 787.885 580 792.205 566.56H781.165C777.565 574.6 771.205 579.04 761.845 579.04C749.245 579.04 741.685 571.12 740.965 553.12H793.045V549.88ZM740.965 545.8C742.045 531.4 749.125 522.28 761.965 522.28C774.565 522.28 781.165 530.68 781.885 545.8H740.965ZM837.447 576.64C829.887 576.64 824.727 573.4 824.727 564.4V494.44H813.447V566.08C813.327 581.2 823.167 586.6 835.407 586.6C838.647 586.6 840.927 586.36 844.047 586V576.64H837.447ZM882.799 576.64C875.239 576.64 870.079 573.4 870.079 564.4V494.44H858.799V566.08C858.679 581.2 868.519 586.6 880.759 586.6C883.999 586.6 886.279 586.36 889.399 586V576.64H882.799ZM933.67 587.92C952.75 587.92 967.39 574.72 967.39 550.96C967.39 526.96 952.63 513.64 933.67 513.64C914.83 513.64 900.07 526.84 900.07 550.96C900.07 574.72 914.59 587.92 933.67 587.92ZM933.67 578.92C920.95 578.92 911.35 569.32 911.35 550.96C911.35 532.36 920.95 522.76 933.67 522.76C946.51 522.76 956.11 532.36 956.11 550.96C956.11 569.32 946.51 578.92 933.67 578.92Z" fill="black"/>
<rect x="1022" y="458" width="176" height="164" fill="#CC3333"/>
<path d="M1091.41 581.43H1128.55C1133.4 581.43 1136.33 578.734 1136.52 573.891L1139.02 516.82H1144.88C1146.48 516.82 1147.81 515.453 1147.81 513.852C1147.81 512.25 1146.48 510.922 1144.88 510.922H1127.46V504.945C1127.46 499.047 1123.59 495.414 1117.34 495.414H1102.54C1096.29 495.414 1092.42 499.047 1092.42 504.945V510.922H1075.08C1073.52 510.922 1072.15 512.25 1072.15 513.852C1072.15 515.492 1073.52 516.82 1075.08 516.82H1080.98L1083.48 573.891C1083.67 578.734 1086.6 581.43 1091.41 581.43ZM1099.49 505.336C1099.49 503.383 1100.86 502.055 1102.97 502.055H1116.95C1119.06 502.055 1120.43 503.383 1120.43 505.336V510.922H1099.49V505.336ZM1097.62 570.258C1096.21 570.258 1095.23 569.359 1095.2 567.953L1093.98 525.414C1093.95 524.047 1094.92 523.109 1096.45 523.109C1097.81 523.109 1098.83 524.008 1098.87 525.375L1100.04 567.953C1100.08 569.32 1099.1 570.258 1097.62 570.258ZM1110 570.258C1108.52 570.258 1107.46 569.32 1107.46 567.953V525.414C1107.46 524.047 1108.52 523.109 1110 523.109C1111.48 523.109 1112.5 524.047 1112.5 525.414V567.953C1112.5 569.32 1111.48 570.258 1110 570.258ZM1122.34 570.258C1120.86 570.258 1119.88 569.32 1119.92 567.953L1121.09 525.414C1121.13 524.008 1122.15 523.109 1123.52 523.109C1125 523.109 1126.02 524.047 1125.98 525.414L1124.77 567.953C1124.73 569.359 1123.75 570.258 1122.34 570.258Z" fill="white"/>
</svg>
