<svg width="1920" height="1080" viewBox="0 0 1920 1080" fill="none" xmlns="http://www.w3.org/2000/svg">
<rect width="1920" height="1080" fill="white"/>
<path d="M1519.38 627.72C1525.59 627.72 1530.14 623.67 1530.59 617.37H1526.04C1525.1 620.97 1522.71 623.085 1519.38 623.085C1514.88 623.085 1512.23 619.62 1512.23 613.635C1512.23 607.515 1514.93 603.915 1519.65 603.915C1523.34 603.915 1525.91 606.345 1526.67 610.44H1531.22C1530.95 603.645 1526.54 599.28 1519.83 599.28C1512.18 599.28 1507.32 604.86 1507.32 613.635C1507.32 622.275 1512 627.72 1519.38 627.72ZM1550.26 627.72C1557.73 627.72 1562.5 622.23 1562.5 613.5C1562.5 604.77 1557.73 599.28 1550.26 599.28C1542.79 599.28 1538.02 604.77 1538.02 613.5C1538.02 622.23 1542.79 627.72 1550.26 627.72ZM1542.92 613.5C1542.92 607.47 1545.62 603.915 1550.26 603.915C1554.89 603.915 1557.59 607.47 1557.59 613.5C1557.59 619.53 1554.89 623.085 1550.26 623.085C1545.62 623.085 1542.92 619.53 1542.92 613.5ZM1569.44 600V627H1574.16V608.415C1574.16 605.985 1575.06 604.725 1576.86 604.725C1578.62 604.725 1579.52 605.985 1579.52 608.415V627H1584.2V608.415C1584.2 605.985 1585.1 604.725 1586.85 604.725C1588.65 604.725 1589.55 605.985 1589.55 608.415V627H1594.28V606.48C1594.28 602.115 1592.25 599.28 1589.1 599.28C1586.94 599.28 1585.32 600.45 1584.69 602.385H1583.52C1582.8 600.45 1581.36 599.28 1579.56 599.28C1577.58 599.28 1576.14 600.36 1575.56 602.16H1574.39V600H1569.44ZM1615.17 599.28C1612.24 599.28 1609.68 600.495 1608.51 602.475H1607.16V600H1602.21V636H1607.16V624.525H1608.51C1609.68 626.505 1612.24 627.72 1615.17 627.72C1621.87 627.72 1626.19 622.23 1626.19 613.5C1626.19 604.77 1621.87 599.28 1615.17 599.28ZM1606.98 613.5C1606.98 607.47 1609.59 603.915 1614.13 603.915C1618.63 603.915 1621.24 607.47 1621.24 613.5C1621.24 619.53 1618.63 623.085 1614.13 623.085C1609.59 623.085 1606.98 619.53 1606.98 613.5Z" fill="#CC33CC"/>
<rect x="84" y="132" width="1124" height="815" rx="20" stroke="black" stroke-width="10"/>
<path d="M84 268H1209" stroke="black" stroke-width="10"/>
<circle cx="151.5" cy="200.5" r="24.5" stroke="black" stroke-width="10"/>
<circle cx="233.5" cy="200.5" r="24.5" stroke="black" stroke-width="10"/>
<circle cx="315.5" cy="200.5" r="24.5" stroke="black" stroke-width="10"/>
<rect x="98" y="283" width="1097" height="649" fill="#CC33CC"/>
<path d="M592.345 625.72C597.925 625.72 602.245 622.84 603.46 617.71H599.23C598.24 620.77 595.54 622.345 592.345 622.345C587.62 622.345 584.29 618.835 584.29 611.86C584.29 604.975 587.71 601.285 592.48 601.285C596.395 601.285 598.15 603.085 599.095 605.65H603.325C602.245 601.015 598.78 597.865 592.48 597.865C585.1 597.865 580.06 603.13 580.06 611.86C580.06 620.725 584.83 625.72 592.345 625.72ZM621.62 625.72C628.775 625.72 634.265 620.77 634.265 611.86C634.265 602.86 628.73 597.865 621.62 597.865C614.555 597.865 609.02 602.815 609.02 611.86C609.02 620.77 614.465 625.72 621.62 625.72ZM621.62 622.345C616.85 622.345 613.25 618.745 613.25 611.86C613.25 604.885 616.85 601.285 621.62 601.285C626.435 601.285 630.035 604.885 630.035 611.86C630.035 618.745 626.435 622.345 621.62 622.345ZM670.052 597.865C666.317 597.865 663.662 599.845 661.457 602.635C660.197 599.71 657.722 597.865 654.032 597.865C650.612 597.865 648.137 599.53 646.022 602.32L645.257 598.63H642.152V625H646.382V605.335C648.137 603.175 650.297 601.33 653.267 601.33C656.777 601.33 658.172 603.805 658.172 608.125V625H662.402V607.855C662.402 607 662.357 606.235 662.222 605.47C664.022 603.31 666.182 601.33 669.287 601.33C672.842 601.33 674.192 603.85 674.192 608.125V625H678.422V607.855C678.422 602.05 675.677 597.865 670.052 597.865ZM700.277 597.865C696.677 597.865 693.842 599.17 691.547 601.96L690.872 598.63H687.767V633.325H691.997V622.525C693.932 624.46 696.407 625.72 699.692 625.72C706.802 625.72 711.887 620.23 711.887 611.455C711.887 603.22 707.207 597.865 700.277 597.865ZM699.377 622.345C696.272 622.345 693.887 620.86 691.997 618.97V604.75C693.977 602.86 696.407 601.285 699.692 601.285C704.327 601.285 707.612 604.57 707.612 611.455C707.612 619.24 703.787 622.345 699.377 622.345Z" fill="white"/>
</svg>
