<svg width="1920" height="1080" viewBox="0 0 1920 1080" fill="none" xmlns="http://www.w3.org/2000/svg">
<rect width="1920" height="1080" fill="white"/>
<rect x="98" y="284" width="1095" height="650" fill="#CC3333" fill-opacity="0.2" stroke="#CC3333" stroke-width="5" stroke-dasharray="20 10"/>
<rect x="110" y="559" width="1071" height="100" fill="#33CC33" fill-opacity="0.2" stroke="#33CC33" stroke-width="5" stroke-dasharray="20 10"/>
<path d="M1336.89 515.1V510.6C1326.99 512.94 1321.9 521.22 1321.9 534.9C1321.9 548.58 1326.99 556.86 1336.89 559.2V554.7C1330.27 552.36 1326.85 545.655 1326.85 534.9C1326.85 524.145 1330.27 517.44 1336.89 515.1ZM1369.92 552V525H1364.97V541.155C1364.97 545.61 1362.9 547.995 1358.99 547.995C1355.12 547.995 1353.05 545.61 1353.05 541.155V525H1348.1V542.505C1348.1 548.715 1351.79 552.72 1357.41 552.72C1360.02 552.72 1362.27 551.73 1363.62 549.975H1364.97V552H1369.92ZM1381.54 525V529.635H1389.73V547.365H1381.54V552H1402.83V547.365H1394.68V525H1381.54ZM1388.07 517.35C1388.07 519.645 1389.46 520.995 1391.8 520.995C1394.19 520.995 1395.58 519.645 1395.58 517.35C1395.58 515.055 1394.19 513.705 1391.8 513.705C1389.46 513.705 1388.07 515.055 1388.07 517.35ZM1432.54 513.84H1427.68L1412.02 559.65H1416.88L1432.54 513.84ZM1674.35 552.72C1683.08 552.72 1687.49 546.51 1687.49 534C1687.49 521.49 1683.08 515.28 1674.35 515.28C1665.62 515.28 1661.21 521.49 1661.21 534C1661.21 546.51 1665.62 552.72 1674.35 552.72ZM1666.34 534C1666.34 524.46 1668.86 520.095 1674.35 520.095C1677.9 520.095 1680.2 521.895 1681.41 525.765L1666.43 537.06C1666.38 536.115 1666.34 535.08 1666.34 534ZM1667.33 542.235L1682.27 530.985C1682.31 531.93 1682.36 532.92 1682.36 534C1682.36 543.54 1679.84 547.905 1674.35 547.905C1670.79 547.905 1668.5 546.105 1667.33 542.235ZM1705.86 552.36C1708.51 552.36 1710 550.785 1710 548.04C1710 545.34 1708.51 543.765 1705.86 543.765C1703.2 543.765 1701.72 545.34 1701.72 548.04C1701.72 550.785 1703.2 552.36 1705.86 552.36ZM1726.97 516V536.43H1731.65C1732.73 533.955 1734.93 532.605 1737.81 532.605C1741.91 532.605 1744.43 535.44 1744.43 540.075C1744.43 544.8 1741.77 547.905 1737.68 547.905C1733.94 547.905 1731.65 545.925 1730.7 542.37H1725.71C1726.43 548.85 1730.84 552.72 1737.77 552.72C1744.7 552.72 1749.56 547.455 1749.56 540.075C1749.56 532.875 1745.19 528.06 1739.07 528.06C1736.78 528.06 1734.57 528.825 1733.45 530.085H1732.1V520.815H1748.88V516H1726.97ZM1399.9 590.1V585.6C1390 587.94 1384.92 596.22 1384.92 609.9C1384.92 623.58 1390 631.86 1399.9 634.2V629.7C1393.29 627.36 1389.87 620.655 1389.87 609.9C1389.87 599.145 1393.29 592.44 1399.9 590.1ZM1432.94 627V600H1427.99V616.155C1427.99 620.61 1425.92 622.995 1422.01 622.995C1418.14 622.995 1416.07 620.61 1416.07 616.155V600H1411.12V617.505C1411.12 623.715 1414.81 627.72 1420.43 627.72C1423.04 627.72 1425.29 626.73 1426.64 624.975H1427.99V627H1432.94ZM1444.56 600V604.635H1452.75V622.365H1444.56V627H1465.85V622.365H1457.7V600H1444.56ZM1451.09 592.35C1451.09 594.645 1452.48 595.995 1454.82 595.995C1457.21 595.995 1458.6 594.645 1458.6 592.35C1458.6 590.055 1457.21 588.705 1454.82 588.705C1452.48 588.705 1451.09 590.055 1451.09 592.35ZM1495.55 588.84H1490.69L1475.03 634.65H1479.89L1495.55 588.84ZM1737.36 627.72C1746.09 627.72 1750.5 621.51 1750.5 609C1750.5 596.49 1746.09 590.28 1737.36 590.28C1728.63 590.28 1724.22 596.49 1724.22 609C1724.22 621.51 1728.63 627.72 1737.36 627.72ZM1729.35 609C1729.35 599.46 1731.87 595.095 1737.36 595.095C1740.92 595.095 1743.21 596.895 1744.43 600.765L1729.44 612.06C1729.4 611.115 1729.35 610.08 1729.35 609ZM1730.34 617.235L1745.28 605.985C1745.33 606.93 1745.37 607.92 1745.37 609C1745.37 618.54 1742.85 622.905 1737.36 622.905C1733.81 622.905 1731.51 621.105 1730.34 617.235ZM1768.87 627.36C1771.53 627.36 1773.01 625.785 1773.01 623.04C1773.01 620.34 1771.53 618.765 1768.87 618.765C1766.22 618.765 1764.73 620.34 1764.73 623.04C1764.73 625.785 1766.22 627.36 1768.87 627.36ZM1789.99 591V611.43H1794.67C1795.75 608.955 1797.95 607.605 1800.83 607.605C1804.93 607.605 1807.45 610.44 1807.45 615.075C1807.45 619.8 1804.79 622.905 1800.7 622.905C1796.96 622.905 1794.67 620.925 1793.72 617.37H1788.73C1789.45 623.85 1793.86 627.72 1800.79 627.72C1807.72 627.72 1812.58 622.455 1812.58 615.075C1812.58 607.875 1808.21 603.06 1802.09 603.06C1799.8 603.06 1797.59 603.825 1796.47 605.085H1795.12V595.815H1811.9V591H1789.99ZM1570.69 660.6V665.1C1577.3 667.44 1580.72 674.145 1580.72 684.9C1580.72 695.655 1577.3 702.36 1570.69 704.7V709.2C1580.59 706.86 1585.67 698.58 1585.67 684.9C1585.67 671.22 1580.59 662.94 1570.69 660.6ZM1602.19 660.6V665.1C1608.81 667.44 1612.23 674.145 1612.23 684.9C1612.23 695.655 1608.81 702.36 1602.19 704.7V709.2C1612.09 706.86 1617.18 698.58 1617.18 684.9C1617.18 671.22 1612.09 662.94 1602.19 660.6Z" fill="black"/>
<path d="M1441.05 525L1450.01 552H1457.57L1466.52 525H1461.57L1454.19 547.545H1453.74L1446.32 525H1441.05ZM1473.01 534.315H1477.73C1478.5 530.805 1481.11 528.87 1485.02 528.87C1488.62 528.87 1490.92 530.985 1490.92 534.45V535.215L1482.68 536.52C1477.37 537.375 1474.36 540.39 1474.36 544.89C1474.36 549.57 1477.55 552.675 1482.5 552.675C1485.83 552.675 1488.08 551.595 1489.57 549.525H1490.92V552H1495.73V534.135C1495.73 527.835 1491.91 524.28 1485.16 524.28C1478.09 524.28 1473.46 528.105 1473.01 534.315ZM1479.58 544.665C1479.58 542.55 1480.75 541.155 1483.31 540.75L1490.92 539.58V541.065C1490.92 544.98 1487.63 548.085 1483.67 548.085C1481.24 548.085 1479.58 546.69 1479.58 544.665ZM1506.9 513.84V518.475H1515.09V547.365H1506.9V552H1528.19V547.365H1520.04V513.84H1506.9ZM1539.09 525V529.635H1547.28V547.365H1539.09V552H1560.37V547.365H1552.23V525H1539.09ZM1545.61 517.35C1545.61 519.645 1547.01 520.995 1549.35 520.995C1551.73 520.995 1553.13 519.645 1553.13 517.35C1553.13 515.055 1551.73 513.705 1549.35 513.705C1547.01 513.705 1545.61 515.055 1545.61 517.35ZM1590.98 551.1V525H1586.03V527.25H1584.68C1583.56 525.45 1581.08 524.28 1578.38 524.28C1571.81 524.28 1567.63 529.41 1567.63 537.6C1567.63 545.655 1571.81 550.74 1578.38 550.74C1580.99 550.74 1583.47 549.66 1584.68 547.905H1586.03V550.785C1586.03 554.835 1583.47 557.22 1579.19 557.22C1575.68 557.22 1573.21 555.69 1572.26 553.035H1567.54C1567.81 558.39 1572.35 561.72 1579.19 561.72C1586.57 561.72 1590.98 557.625 1590.98 551.1ZM1572.53 537.6C1572.53 532.11 1575.1 528.915 1579.42 528.915C1583.78 528.915 1586.35 532.11 1586.35 537.6C1586.35 543.09 1583.78 546.285 1579.42 546.285C1575.1 546.285 1572.53 543.09 1572.53 537.6ZM1600.66 525V552H1605.61V535.845C1605.61 531.39 1607.68 529.005 1611.6 529.005C1615.47 529.005 1617.54 531.39 1617.54 535.845V552H1622.49V534.495C1622.49 528.285 1618.8 524.28 1613.17 524.28C1610.56 524.28 1608.31 525.27 1606.96 527.025H1605.61V525H1600.66Z" fill="#CC3333"/>
<path d="M1506.14 588.84V627H1511.09V610.845C1511.09 606.39 1513.16 604.005 1517.03 604.005C1520.94 604.005 1523.01 606.39 1523.01 610.845V627H1527.96V609.495C1527.96 603.285 1524.27 599.28 1518.6 599.28C1516.04 599.28 1513.79 600.27 1512.44 602.025H1511.09V588.84H1506.14ZM1536.03 609.315H1540.75C1541.52 605.805 1544.13 603.87 1548.04 603.87C1551.64 603.87 1553.94 605.985 1553.94 609.45V610.215L1545.7 611.52C1540.39 612.375 1537.38 615.39 1537.38 619.89C1537.38 624.57 1540.57 627.675 1545.52 627.675C1548.85 627.675 1551.1 626.595 1552.59 624.525H1553.94V627H1558.75V609.135C1558.75 602.835 1554.93 599.28 1548.18 599.28C1541.11 599.28 1536.48 603.105 1536.03 609.315ZM1542.6 619.665C1542.6 617.55 1543.77 616.155 1546.33 615.75L1553.94 614.58V616.065C1553.94 619.98 1550.65 623.085 1546.69 623.085C1544.26 623.085 1542.6 621.69 1542.6 619.665ZM1569.92 588.84V593.475H1578.11V622.365H1569.92V627H1591.21V622.365H1583.06V588.84H1569.92ZM1602.1 600V604.635H1610.29V622.365H1602.1V627H1623.39V622.365H1615.24V600H1602.1ZM1608.63 592.35C1608.63 594.645 1610.02 595.995 1612.36 595.995C1614.75 595.995 1616.14 594.645 1616.14 592.35C1616.14 590.055 1614.75 588.705 1612.36 588.705C1610.02 588.705 1608.63 590.055 1608.63 592.35ZM1654 626.1V600H1649.05V602.25H1647.7C1646.57 600.45 1644.1 599.28 1641.4 599.28C1634.83 599.28 1630.64 604.41 1630.64 612.6C1630.64 620.655 1634.83 625.74 1641.4 625.74C1644.01 625.74 1646.48 624.66 1647.7 622.905H1649.05V625.785C1649.05 629.835 1646.48 632.22 1642.21 632.22C1638.7 632.22 1636.22 630.69 1635.28 628.035H1630.55C1630.82 633.39 1635.37 636.72 1642.21 636.72C1649.59 636.72 1654 632.625 1654 626.1ZM1635.55 612.6C1635.55 607.11 1638.11 603.915 1642.43 603.915C1646.8 603.915 1649.36 607.11 1649.36 612.6C1649.36 618.09 1646.8 621.285 1642.43 621.285C1638.11 621.285 1635.55 618.09 1635.55 612.6ZM1663.68 600V627H1668.63V610.845C1668.63 606.39 1670.7 604.005 1674.62 604.005C1678.49 604.005 1680.56 606.39 1680.56 610.845V627H1685.51V609.495C1685.51 603.285 1681.82 599.28 1676.19 599.28C1673.58 599.28 1671.33 600.27 1669.98 602.025H1668.63V600H1663.68Z" fill="#33CC33"/>
<path d="M1454.42 702.72C1460.63 702.72 1465.17 698.67 1465.62 692.37H1461.08C1460.13 695.97 1457.75 698.085 1454.42 698.085C1449.92 698.085 1447.26 694.62 1447.26 688.635C1447.26 682.515 1449.96 678.915 1454.69 678.915C1458.38 678.915 1460.94 681.345 1461.71 685.44H1466.25C1465.98 678.645 1461.57 674.28 1454.87 674.28C1447.22 674.28 1442.36 679.86 1442.36 688.635C1442.36 697.275 1447.04 702.72 1454.42 702.72ZM1485.29 702.72C1492.76 702.72 1497.53 697.23 1497.53 688.5C1497.53 679.77 1492.76 674.28 1485.29 674.28C1477.82 674.28 1473.05 679.77 1473.05 688.5C1473.05 697.23 1477.82 702.72 1485.29 702.72ZM1477.96 688.5C1477.96 682.47 1480.66 678.915 1485.29 678.915C1489.93 678.915 1492.63 682.47 1492.63 688.5C1492.63 694.53 1489.93 698.085 1485.29 698.085C1480.66 698.085 1477.96 694.53 1477.96 688.5ZM1504.47 675V702H1509.2V683.415C1509.2 680.985 1510.1 679.725 1511.9 679.725C1513.65 679.725 1514.55 680.985 1514.55 683.415V702H1519.23V683.415C1519.23 680.985 1520.13 679.725 1521.89 679.725C1523.69 679.725 1524.59 680.985 1524.59 683.415V702H1529.31V681.48C1529.31 677.115 1527.29 674.28 1524.14 674.28C1521.98 674.28 1520.36 675.45 1519.73 677.385H1518.56C1517.84 675.45 1516.4 674.28 1514.6 674.28C1512.62 674.28 1511.18 675.36 1510.59 677.16H1509.42V675H1504.47ZM1550.2 674.28C1547.28 674.28 1544.71 675.495 1543.54 677.475H1542.19V675H1537.24V711H1542.19V699.525H1543.54C1544.71 701.505 1547.28 702.72 1550.2 702.72C1556.91 702.72 1561.23 697.23 1561.23 688.5C1561.23 679.77 1556.91 674.28 1550.2 674.28ZM1542.01 688.5C1542.01 682.47 1544.62 678.915 1549.17 678.915C1553.67 678.915 1556.28 682.47 1556.28 688.5C1556.28 694.53 1553.67 698.085 1549.17 698.085C1544.62 698.085 1542.01 694.53 1542.01 688.5Z" fill="#CC33CC"/>
<rect x="84" y="132" width="1124" height="815" rx="20" stroke="black" stroke-width="10"/>
<path d="M84 268H1209" stroke="black" stroke-width="10"/>
<circle cx="151.5" cy="200.5" r="24.5" stroke="black" stroke-width="10"/>
<circle cx="233.5" cy="200.5" r="24.5" stroke="black" stroke-width="10"/>
<circle cx="315.5" cy="200.5" r="24.5" stroke="black" stroke-width="10"/>
<rect x="505" y="559" width="282" height="100" fill="#CC33CC"/>
<path d="M592.345 626.72C597.925 626.72 602.245 623.84 603.46 618.71H599.23C598.24 621.77 595.54 623.345 592.345 623.345C587.62 623.345 584.29 619.835 584.29 612.86C584.29 605.975 587.71 602.285 592.48 602.285C596.395 602.285 598.15 604.085 599.095 606.65H603.325C602.245 602.015 598.78 598.865 592.48 598.865C585.1 598.865 580.06 604.13 580.06 612.86C580.06 621.725 584.83 626.72 592.345 626.72ZM621.62 626.72C628.775 626.72 634.265 621.77 634.265 612.86C634.265 603.86 628.73 598.865 621.62 598.865C614.555 598.865 609.02 603.815 609.02 612.86C609.02 621.77 614.465 626.72 621.62 626.72ZM621.62 623.345C616.85 623.345 613.25 619.745 613.25 612.86C613.25 605.885 616.85 602.285 621.62 602.285C626.435 602.285 630.035 605.885 630.035 612.86C630.035 619.745 626.435 623.345 621.62 623.345ZM670.052 598.865C666.317 598.865 663.662 600.845 661.457 603.635C660.197 600.71 657.722 598.865 654.032 598.865C650.612 598.865 648.137 600.53 646.022 603.32L645.257 599.63H642.152V626H646.382V606.335C648.137 604.175 650.297 602.33 653.267 602.33C656.777 602.33 658.172 604.805 658.172 609.125V626H662.402V608.855C662.402 608 662.357 607.235 662.222 606.47C664.022 604.31 666.182 602.33 669.287 602.33C672.842 602.33 674.192 604.85 674.192 609.125V626H678.422V608.855C678.422 603.05 675.677 598.865 670.052 598.865ZM700.277 598.865C696.677 598.865 693.842 600.17 691.547 602.96L690.872 599.63H687.767V634.325H691.997V623.525C693.932 625.46 696.407 626.72 699.692 626.72C706.802 626.72 711.887 621.23 711.887 612.455C711.887 604.22 707.207 598.865 700.277 598.865ZM699.377 623.345C696.272 623.345 693.887 621.86 691.997 619.97V605.75C693.977 603.86 696.407 602.285 699.692 602.285C704.327 602.285 707.612 605.57 707.612 612.455C707.612 620.24 703.787 623.345 699.377 623.345Z" fill="white"/>
</svg>
