<svg width="1920" height="1080" viewBox="0 0 1920 1080" fill="none" xmlns="http://www.w3.org/2000/svg">
<rect width="1920" height="1080" fill="white"/>
<rect x="96" y="731" width="830" height="100" fill="#C0C0C0"/>
<rect x="994" y="581" width="830" height="244" fill="#D0D0D0"/>
<rect x="96" y="382" width="1728" height="149" fill="#E0E0E0"/>
<rect x="96" y="99" width="1728" height="233" fill="#F0F0F0"/>
<path d="M935.427 419.699L911.576 415.539L942.755 397.76L977.659 399.951L1003.07 414.409L1020.3 449.751L1007.45 494.439L988.952 492.637L979.939 483.901L993.389 463.933L991.587 446.6L979.939 429.544L962.328 423.027L944.995 426.909L935.427 419.699Z" fill="#2D62D2"/>
<path d="M987.443 493.125L1002.05 498.528L973.862 515.323L933.347 512.986L909.896 494.579L896.6 454.504L911.576 416.232L933.347 419.027L940.835 425L927.384 450.344L929.187 467.678L940.835 484.734L958.445 491.251L977.859 484.734L987.443 493.125Z" fill="#59B502"/>
<path d="M961.773 423.304L945.411 426.909L980.632 483.624L993.667 464.488L992.003 445.768L980.632 429.544L961.773 423.304Z" fill="#4581FF"/>
<path d="M959 490.973L979.106 484.733L943.608 426.216L925.997 446.461L928.77 468.509L940.141 484.733L959 490.973Z" fill="#6AD305"/>
<path fill-rule="evenodd" clip-rule="evenodd" d="M924.912 421.178C920.775 421.808 915.758 424.407 909.737 430.429L904.389 425.08C911.037 418.432 917.449 414.665 923.772 413.7C930.217 412.717 935.949 414.738 940.944 418.382C942.291 419.365 943.594 420.473 944.859 421.683C949.223 419.908 953.997 418.93 959 418.93C979.747 418.93 996.566 435.749 996.566 456.496C996.566 467.447 991.88 477.304 984.404 484.17C984.974 484.842 985.545 485.476 986.117 486.071C989.589 489.677 992.721 491.397 995.658 491.581C998.508 491.758 1002.15 490.542 1006.8 486.048L1012.05 491.487C1006.53 496.822 1000.93 499.487 995.188 499.13C989.539 498.778 984.74 495.546 980.668 491.317C979.88 490.498 979.104 489.626 978.339 488.708C972.69 492.107 966.073 494.062 959 494.062C938.253 494.062 921.434 477.243 921.434 456.496C921.434 443.625 927.907 432.265 937.776 425.496C937.347 425.142 936.917 424.807 936.485 424.492C932.687 421.721 928.927 420.565 924.912 421.178ZM928.997 456.496C928.997 445.728 934.67 436.286 943.189 430.993C944.754 432.87 946.308 434.974 947.858 437.271C950.14 440.652 952.356 444.365 954.545 448.259L938.575 478.473C932.683 472.995 928.997 465.176 928.997 456.496ZM944.779 482.921C949.011 485.203 953.854 486.499 959 486.499C964.383 486.499 969.435 485.081 973.803 482.598C972.246 480.282 970.732 477.82 969.252 475.283C966.502 470.568 963.778 465.432 961.069 460.324C960.342 458.952 959.616 457.583 958.89 456.224L944.779 482.921ZM975.786 471.472C977.155 473.82 978.512 476.025 979.865 478.055C985.499 472.601 989.002 464.958 989.002 456.496C989.002 439.926 975.57 426.494 959 426.494C955.978 426.494 953.061 426.94 950.31 427.771C951.626 429.448 952.897 431.216 954.128 433.04C958.079 438.897 961.778 445.582 965.325 452.217C966.158 453.775 966.982 455.328 967.799 456.869L967.8 456.871L967.801 456.873L967.802 456.874C970.496 461.954 973.12 466.903 975.786 471.472Z" fill="white"/>
<path fill-rule="evenodd" clip-rule="evenodd" d="M924.912 421.178C920.775 421.808 915.758 424.407 909.737 430.429L904.389 425.08C911.037 418.432 917.449 414.665 923.772 413.7C930.217 412.717 935.949 414.738 940.944 418.382C942.291 419.365 943.594 420.473 944.859 421.683C949.223 419.908 953.997 418.93 959 418.93C979.747 418.93 996.566 435.749 996.566 456.496C996.566 467.447 991.88 477.304 984.404 484.17C984.974 484.842 985.545 485.476 986.117 486.071C989.589 489.677 992.721 491.397 995.658 491.581C998.508 491.758 1002.15 490.542 1006.8 486.048L1012.05 491.487C1006.53 496.822 1000.93 499.487 995.188 499.13C989.539 498.778 984.74 495.546 980.668 491.317C979.88 490.498 979.104 489.626 978.339 488.708C972.69 492.107 966.073 494.062 959 494.062C938.253 494.062 921.434 477.243 921.434 456.496C921.434 443.625 927.907 432.265 937.776 425.496C937.347 425.142 936.917 424.807 936.485 424.492C932.687 421.721 928.927 420.565 924.912 421.178ZM928.997 456.496C928.997 445.728 934.67 436.286 943.189 430.993C944.754 432.87 946.308 434.974 947.858 437.271C950.14 440.652 952.356 444.365 954.545 448.259L938.575 478.473C932.683 472.995 928.997 465.176 928.997 456.496ZM944.779 482.921C949.011 485.203 953.854 486.499 959 486.499C964.383 486.499 969.435 485.081 973.803 482.598C972.246 480.282 970.732 477.82 969.252 475.283C966.502 470.568 963.778 465.432 961.069 460.324C960.342 458.952 959.616 457.583 958.89 456.224L944.779 482.921ZM975.786 471.472C977.155 473.82 978.512 476.025 979.865 478.055C985.499 472.601 989.002 464.958 989.002 456.496C989.002 439.926 975.57 426.494 959 426.494C955.978 426.494 953.061 426.94 950.31 427.771C951.626 429.448 952.897 431.216 954.128 433.04C958.079 438.897 961.778 445.582 965.325 452.217C966.158 453.775 966.982 455.328 967.799 456.869L967.8 456.871L967.801 456.873L967.802 456.874C970.496 461.954 973.12 466.903 975.786 471.472Z" fill="white"/>
<path fill-rule="evenodd" clip-rule="evenodd" d="M924.912 421.178C920.775 421.808 915.758 424.407 909.737 430.429L904.389 425.08C911.037 418.432 917.449 414.665 923.772 413.7C930.217 412.717 935.949 414.738 940.944 418.382C942.291 419.365 943.594 420.473 944.859 421.683C949.223 419.908 953.997 418.93 959 418.93C979.747 418.93 996.566 435.749 996.566 456.496C996.566 467.447 991.88 477.304 984.404 484.17C984.974 484.842 985.545 485.476 986.117 486.071C989.589 489.677 992.721 491.397 995.658 491.581C998.508 491.758 1002.15 490.542 1006.8 486.048L1012.05 491.487C1006.53 496.822 1000.93 499.487 995.188 499.13C989.539 498.778 984.74 495.546 980.668 491.317C979.88 490.498 979.104 489.626 978.339 488.708C972.69 492.107 966.073 494.062 959 494.062C938.253 494.062 921.434 477.243 921.434 456.496C921.434 443.625 927.907 432.265 937.776 425.496C937.347 425.142 936.917 424.807 936.485 424.492C932.687 421.721 928.927 420.565 924.912 421.178ZM928.997 456.496C928.997 445.728 934.67 436.286 943.189 430.993C944.754 432.87 946.308 434.974 947.858 437.271C950.14 440.652 952.356 444.365 954.545 448.259L938.575 478.473C932.683 472.995 928.997 465.176 928.997 456.496ZM944.779 482.921C949.011 485.203 953.854 486.499 959 486.499C964.383 486.499 969.435 485.081 973.803 482.598C972.246 480.282 970.732 477.82 969.252 475.283C966.502 470.568 963.778 465.432 961.069 460.324C960.342 458.952 959.616 457.583 958.89 456.224L944.779 482.921ZM975.786 471.472C977.155 473.82 978.512 476.025 979.865 478.055C985.499 472.601 989.002 464.958 989.002 456.496C989.002 439.926 975.57 426.494 959 426.494C955.978 426.494 953.061 426.94 950.31 427.771C951.626 429.448 952.897 431.216 954.128 433.04C958.079 438.897 961.778 445.582 965.325 452.217C966.158 453.775 966.982 455.328 967.799 456.869L967.8 456.871L967.801 456.873L967.802 456.874C970.496 461.954 973.12 466.903 975.786 471.472Z" fill="white"/>
<path fill-rule="evenodd" clip-rule="evenodd" d="M959 521C994.346 521 1023 492.346 1023 457C1023 421.654 994.346 393 959 393C923.654 393 895 421.654 895 457C895 492.346 923.654 521 959 521ZM959 512.467C989.633 512.467 1014.47 487.633 1014.47 457C1014.47 426.367 989.633 401.533 959 401.533C928.367 401.533 903.533 426.367 903.533 457C903.533 487.633 928.367 512.467 959 512.467Z" fill="white"/>
<rect x="96" y="581" width="830" height="100" fill="#D0D0D0"/>
<path d="M446.383 812.235C442.762 812.235 439.057 811.612 435.267 810.368C431.534 809.067 428.111 807.059 425 804.343L433.315 794.331C435.408 795.915 437.643 797.216 440.019 798.234C442.395 799.196 444.855 799.676 447.401 799.676C449.607 799.676 451.163 799.365 452.068 798.743C453.029 798.121 453.51 797.357 453.51 796.452C453.51 795.66 453.312 795.01 452.916 794.5C452.577 793.935 452.068 793.454 451.389 793.058C450.71 792.605 449.862 792.181 448.843 791.785C447.882 791.389 446.779 790.937 445.534 790.428L438.661 787.543C437.077 786.977 435.578 786.242 434.164 785.337C432.75 784.375 431.505 783.272 430.431 782.027C429.412 780.726 428.592 779.255 427.97 777.615C427.348 775.975 427.036 774.164 427.036 772.184C427.036 769.809 427.546 767.602 428.564 765.566C429.582 763.473 430.996 761.663 432.806 760.136C434.673 758.552 436.879 757.307 439.425 756.402C442.027 755.497 444.912 755.044 448.08 755.044C451.361 755.044 454.642 755.638 457.922 756.826C461.203 758.014 464.202 759.881 466.917 762.427L459.62 771.591C457.64 770.289 455.716 769.3 453.85 768.621C452.039 767.942 449.833 767.602 447.231 767.602C445.591 767.602 444.261 767.914 443.243 768.536C442.281 769.102 441.801 770.035 441.801 771.336C441.801 771.958 441.999 772.524 442.395 773.033C442.791 773.486 443.356 773.91 444.092 774.306C444.827 774.702 445.732 775.098 446.807 775.494C447.882 775.89 449.098 776.342 450.456 776.851L456.819 779.482C460.553 780.839 463.41 782.734 465.389 785.167C467.426 787.599 468.444 790.739 468.444 794.585C468.444 796.905 467.963 799.139 467.002 801.289C466.04 803.438 464.626 805.333 462.759 806.974C460.892 808.558 458.573 809.83 455.801 810.792C453.086 811.754 449.946 812.235 446.383 812.235Z" fill="#292929"/>
<path d="M474.497 811.216V756.063H489.261V776.597H489.6L503.177 756.063H519.299L503.007 778.379L520.656 811.216H504.534L494.437 790.003L489.261 797.131V811.216H474.497Z" fill="#292929"/>
<path d="M564.732 784.403L563.883 788.221H573.726L572.878 784.403C572.255 781.744 571.577 778.888 570.841 775.833C570.162 772.722 569.512 769.752 568.89 766.924H568.55C567.928 769.752 567.278 772.722 566.599 775.833C565.976 778.888 565.354 781.744 564.732 784.403ZM543.604 811.216L560.235 756.063H577.884L594.515 811.216H579.072L576.357 799.507H561.253L558.538 811.216H543.604Z" fill="#292929"/>
<circle cx="530.876" cy="745.145" r="9.14513" fill="#292929"/>
<rect x="466.106" y="824.623" width="64.8644" height="1.50848" rx="0.754238" fill="url(#paint0_linear_31_484)"/>
<rect x="522.674" y="755.61" width="5.65678" height="55.0593" fill="#E94037"/>
<rect x="528.331" y="755.61" width="5.65678" height="55.0593" fill="#70BF4F"/>
<rect x="533.987" y="755.61" width="5.65678" height="55.0593" fill="#465BA6"/>
<path d="M530.688 824.623L522.58 813.309H539.173L530.688 824.623Z" fill="#292929"/>
<path d="M1336.23 785.992V735.913H1347.46V786.096C1347.46 792.898 1346.25 797.93 1343.82 801.192C1341.47 804.455 1336.68 807.925 1329.47 811.604L1325 803.17C1329.85 800.116 1332.94 797.618 1334.26 795.674C1335.57 793.8 1336.23 790.573 1336.23 785.992ZM1336.23 727.063V715.09H1347.46V727.063H1336.23Z" fill="#112A3D"/>
<path d="M1356.9 736.954H1368.02V778.287H1370.1L1379.98 736.954H1388.48L1398.36 778.287H1400.44V735.913H1411.67L1410.84 787.97H1390.76L1384.04 754.831L1377.7 787.97H1358.63L1356.9 736.954Z" fill="#112A3D"/>
<path d="M1420.69 786.929H1431.82V745.595H1433.9L1443.78 786.929H1452.27L1462.15 745.595H1464.23V787.97H1475.46L1474.63 735.913H1454.56L1447.84 769.052L1441.49 735.913H1422.42L1420.69 786.929Z" fill="#112A3D"/>
<path fill-rule="evenodd" clip-rule="evenodd" d="M1419.82 683.905H1402.72L1406.49 696.766L1401.03 727.609H1421.51L1416.05 696.766L1419.82 683.905ZM1358.92 698.277C1366.63 693.683 1374.99 690.073 1383.84 687.62L1395.06 727.609H1358.92V698.277ZM1463.62 727.609H1427.26L1438.49 687.562C1447.42 690.016 1455.85 693.647 1463.62 698.277V727.609Z" fill="#112A3D"/>
<path d="M1374.17 639.973H1407.86V674.117H1396.02C1388.37 674.117 1384.55 674.117 1381.62 672.628C1379.05 671.319 1376.97 669.229 1375.66 666.66C1374.17 663.738 1374.17 659.913 1374.17 652.265V639.973Z" fill="#FA752A"/>
<path d="M1448.37 639.973H1414.69V674.117H1426.52C1434.17 674.117 1438 674.117 1440.92 672.628C1443.49 671.319 1445.58 669.229 1446.89 666.66C1448.37 663.738 1448.37 659.913 1448.37 652.265V639.973Z" fill="#E44B29"/>
<path fill-rule="evenodd" clip-rule="evenodd" d="M1374.17 633.144H1448.49V599H1396.02C1388.37 599 1384.55 599 1381.62 600.489C1379.05 601.798 1376.97 603.887 1375.66 606.457C1374.17 609.379 1374.17 613.203 1374.17 620.852V633.144ZM1400.62 615.93C1400.62 620.754 1396.59 624.665 1391.61 624.665C1386.63 624.665 1382.59 620.754 1382.59 615.93C1382.59 611.105 1386.63 607.195 1391.61 607.195C1396.59 607.195 1400.62 611.105 1400.62 615.93ZM1421.97 611.178L1426.64 606.512L1431.42 611.292L1436.2 606.512L1440.86 611.178L1436.08 615.958L1440.63 620.511L1435.97 625.177L1431.42 620.625L1426.86 625.177L1422.2 620.511L1426.75 615.958L1421.97 611.178Z" fill="#EB582A"/>
<path d="M434.315 649.427C434.315 648.072 433.739 646.988 432.586 646.176C431.433 645.363 430.008 644.618 428.313 643.941C426.617 643.264 424.752 642.586 422.717 641.909C420.682 641.164 418.817 640.182 417.122 638.963C415.426 637.676 414.002 636.085 412.849 634.188C411.696 632.224 411.119 629.718 411.119 626.671C411.119 621.659 412.611 617.833 415.596 615.191C418.58 612.55 422.887 611.229 428.516 611.229C432.382 611.229 435.875 611.636 438.995 612.448C442.115 613.261 444.557 614.175 446.32 615.191L443.37 624.741C441.81 624.131 439.843 623.488 437.469 622.81C435.095 622.133 432.687 621.795 430.246 621.795C426.312 621.795 424.345 623.318 424.345 626.366C424.345 627.585 424.921 628.567 426.074 629.312C427.228 630.057 428.652 630.768 430.347 631.445C432.043 632.055 433.908 632.732 435.943 633.477C437.978 634.222 439.843 635.204 441.539 636.423C443.234 637.575 444.659 639.098 445.812 640.995C446.965 642.891 447.541 645.329 447.541 648.309C447.541 653.456 445.879 657.52 442.556 660.5C439.3 663.412 434.383 664.868 427.804 664.868C424.209 664.868 420.818 664.394 417.63 663.446C414.51 662.565 411.967 661.516 410 660.297L413.663 650.442C415.223 651.323 417.291 652.203 419.869 653.084C422.446 653.896 425.091 654.303 427.804 654.303C429.771 654.303 431.331 653.93 432.484 653.185C433.705 652.44 434.315 651.187 434.315 649.427Z" fill="black"/>
<path d="M472.963 642.417H469.402V663.446H456.176V592.334H469.402V634.29H471.551L484.052 612.652H498.6L484.268 635.255L500.534 663.446H485.375L472.963 642.417Z" fill="black"/>
<path d="M507.371 612.652H520.597V663.446H507.371V612.652Z" fill="black"/>
<path d="M560.39 615.598C563.103 614.379 566.325 613.43 570.055 612.753C573.785 612.008 577.685 611.636 581.755 611.636C585.282 611.636 588.232 612.076 590.606 612.956C592.98 613.769 594.845 614.954 596.202 616.512C597.626 618.07 598.609 619.932 599.152 622.099C599.762 624.267 600.068 626.705 600.068 629.414C600.068 632.394 599.966 635.407 599.762 638.455C599.559 641.435 599.423 644.381 599.355 647.293C599.355 650.205 599.457 653.05 599.661 655.827C599.864 658.536 600.373 661.109 601.187 663.547H590.403L588.266 656.538H587.757C586.401 658.637 584.502 660.466 582.06 662.024C579.686 663.513 576.6 664.258 572.802 664.258C570.428 664.258 568.292 663.92 566.393 663.243C564.493 662.498 562.866 661.482 561.509 660.195C560.153 658.84 559.101 657.283 558.355 655.522C557.609 653.693 557.236 651.662 557.236 649.427C557.236 646.311 557.914 643.704 559.271 641.604C560.695 639.437 562.696 637.71 565.273 636.423C567.919 635.069 571.039 634.154 574.633 633.68C578.296 633.139 582.365 632.969 586.842 633.172C587.316 629.38 587.045 626.671 586.028 625.045C585.01 623.352 582.738 622.506 579.211 622.506C576.566 622.506 573.752 622.777 570.767 623.318C567.851 623.86 565.443 624.571 563.544 625.452L560.39 615.598ZM577.177 653.389C579.822 653.389 581.924 652.813 583.484 651.662C585.044 650.442 586.197 649.156 586.943 647.801V641.198C584.841 640.995 582.806 640.961 580.839 641.096C578.94 641.232 577.244 641.537 575.752 642.011C574.26 642.485 573.073 643.162 572.192 644.042C571.31 644.923 570.869 646.04 570.869 647.395C570.869 649.291 571.412 650.781 572.497 651.865C573.65 652.881 575.21 653.389 577.177 653.389Z" fill="black"/>
<path d="M534.444 660.971H547.706V665.529C547.706 671.674 546.547 676.468 544.099 679.709C541.651 682.951 537.74 684.571 532.367 684.571C530.327 684.571 528.15 684.335 525.838 683.862V672.822C526.29 672.822 526.72 672.923 527.164 672.923C530.225 672.923 532.197 671.944 533.081 669.986C534.033 668.027 534.444 665.427 534.444 661.984V660.971Z" fill="url(#paint1_linear_31_484)"/>
<path d="M609.765 572.83L565.164 528.229V528.229C571.918 521.475 582.868 521.475 589.622 528.229L609.765 548.372C616.519 555.126 616.519 566.076 609.765 572.83V572.83Z" fill="#EA6C00"/>
<mask id="mask0_31_484" style="mask-type:alpha" maskUnits="userSpaceOnUse" x="522" y="558" width="58" height="58">
<path d="M573.796 586.857C578.51 591.692 575.055 598.547 579.551 603.043L566.962 615.632L522.362 571.031L534.95 558.442C539.267 562.759 546.335 559.577 551.136 564.197C556.13 569.003 552.35 575.842 557.251 580.743C562.151 585.643 568.958 581.895 573.796 586.857Z" fill="#FEEEB7"/>
</mask>
<g mask="url(#mask0_31_484)">
<path d="M534.95 583.62L534.95 558.442L540.166 553.227L584.766 597.828L579.551 603.043H554.373L534.95 583.62Z" fill="#FEEEB7"/>
</g>
<path d="M550.777 603.043H534.951V587.217L550.777 603.043Z" fill="black"/>
<mask id="mask1_31_484" style="mask-type:alpha" maskUnits="userSpaceOnUse" x="536" y="530" width="72" height="72">
<path d="M575.595 585.059C580.308 589.893 576.854 596.749 581.35 601.245L607.966 574.628L563.365 530.028L536.749 556.644C541.065 560.96 548.134 557.779 552.935 562.399C557.929 567.205 554.149 574.044 559.049 578.945C563.95 583.845 570.756 580.097 575.595 585.059Z" fill="#EEEEEE"/>
</mask>
<g mask="url(#mask1_31_484)">
<rect x="581.35" y="601.245" width="14.2427" height="37.6414" transform="rotate(-135 581.35 601.245)" fill="#FDAD00"/>
<rect x="546.82" y="566.715" width="14.2427" height="37.6414" transform="rotate(-135 546.82 566.715)" fill="#FFBF1F"/>
<rect x="569.48" y="589.375" width="29.5027" height="37.6414" transform="rotate(-135 569.48 589.375)" fill="#FDD231"/>
</g>
<rect x="534.499" y="612.687" width="13.2077" height="48.2838" fill="url(#paint2_linear_31_484)"/>
<ellipse cx="513.929" cy="597.639" rx="7.7947" ry="7.90296" fill="black"/>
<rect x="96" y="881" width="250" height="100" fill="#B0B0B0"/>
<path d="M145.489 917.68V947H154.769C164.129 947 169.129 942.16 169.129 932.24C169.129 922.44 164.129 917.68 154.569 917.68H145.489ZM154.809 920.92C161.649 920.92 165.169 924.32 165.169 932.24C165.169 940.2 161.649 943.76 155.009 943.76H149.369V920.92H154.809ZM175.838 914.76V919.28H179.798V914.76H175.838ZM180.718 923.56H173.438V926.16L176.958 926.48V947H180.718V923.56ZM200.684 923.48C197.764 923.48 195.164 925.4 193.724 928.24L192.804 923.56H186.524V926.16L190.044 926.48V947H193.804V931.64C195.244 928.48 197.804 927.68 200.604 927.68H202.204V923.56C201.844 923.52 201.364 923.48 200.684 923.48ZM226.619 934.96C226.619 927.08 222.619 922.88 216.259 922.88C210.139 922.88 205.419 927.16 205.419 935.24C205.419 943.24 209.539 947.64 216.219 947.64C221.299 947.64 224.899 945 226.339 940.52H222.659C221.459 943.2 219.339 944.68 216.219 944.68C212.019 944.68 209.499 942.04 209.259 936.04H226.619V934.96ZM209.259 933.6C209.619 928.8 211.979 925.76 216.259 925.76C220.459 925.76 222.659 928.56 222.899 933.6H209.259ZM242.98 947.64C247.94 947.64 251.78 945.08 252.86 940.52H249.1C248.22 943.24 245.82 944.64 242.98 944.64C238.78 944.64 235.82 941.52 235.82 935.32C235.82 929.2 238.86 925.92 243.1 925.92C246.58 925.92 248.14 927.52 248.98 929.8H252.74C251.78 925.68 248.7 922.88 243.1 922.88C236.54 922.88 232.06 927.56 232.06 935.32C232.06 943.2 236.3 947.64 242.98 947.64ZM268.757 943.96C265.837 943.96 264.317 942.72 264.317 939.84V926.48H270.557V923.56H264.317V918.08H261.357L260.717 923.56H257.077V926.48H260.557V940.16C260.557 945.04 263.317 947.2 268.357 947.2C269.437 947.2 270.637 947.12 271.557 947V943.96H268.757ZM298.358 917.68H294.038L287.078 929.48L280.078 917.68H275.798L284.798 931.8L274.998 947H279.318L287.078 934.44L294.838 947H299.158L289.398 931.8L298.358 917.68Z" fill="white"/>
<rect x="386" y="881" width="250" height="100" fill="#B0B0B0"/>
<path d="M441.683 947.64C449.563 947.64 455.523 942.32 455.523 932.32C455.523 922.4 449.563 917.04 441.683 917.04C433.803 917.04 427.843 922.4 427.843 932.32C427.843 942.32 433.803 947.64 441.683 947.64ZM441.683 944.32C436.043 944.32 431.803 940.36 431.803 932.32C431.803 924.32 436.043 920.36 441.683 920.36C447.363 920.36 451.563 924.32 451.563 932.32C451.563 940.36 447.363 944.32 441.683 944.32ZM473.763 922.88C470.563 922.88 468.043 924.04 466.003 926.52L465.403 923.56H462.643V954.4H466.403V944.8C468.123 946.52 470.323 947.64 473.243 947.64C479.563 947.64 484.083 942.76 484.083 934.96C484.083 927.64 479.923 922.88 473.763 922.88ZM472.963 944.64C470.203 944.64 468.083 943.32 466.403 941.64V929C468.163 927.32 470.323 925.92 473.243 925.92C477.363 925.92 480.283 928.84 480.283 934.96C480.283 941.88 476.883 944.64 472.963 944.64ZM510.721 934.96C510.721 927.08 506.721 922.88 500.361 922.88C494.241 922.88 489.521 927.16 489.521 935.24C489.521 943.24 493.641 947.64 500.321 947.64C505.401 947.64 509.001 945 510.441 940.52H506.761C505.561 943.2 503.441 944.68 500.321 944.68C496.121 944.68 493.601 942.04 493.361 936.04H510.721V934.96ZM493.361 933.6C493.721 928.8 496.081 925.76 500.361 925.76C504.561 925.76 506.761 928.56 507.001 933.6H493.361ZM528.881 922.88C525.561 922.88 523.121 924.36 521.201 926.88L520.481 923.56H517.721V947H521.481V929.68C523.121 927.64 525.201 925.96 528.121 925.96C531.641 925.96 533.001 928.24 533.001 932V947H536.761V931.76C536.761 926.56 534.161 922.88 528.881 922.88ZM557.545 934.28L565.545 934.68V939.88C563.705 942.24 561.225 944.36 557.065 944.36C551.145 944.36 547.545 940.36 547.545 932.28C547.545 924.76 551.465 920.36 557.305 920.36C561.705 920.36 564.345 922.6 564.945 925.64H568.825C567.945 920.16 563.385 917.04 557.305 917.04C548.945 917.04 543.585 923.04 543.585 932.28C543.585 942.4 549.025 947.64 556.745 947.64C561.225 947.64 564.145 945.72 565.945 943.16L566.665 947H569.385V931.52H557.545V934.28ZM595.422 947V943.6H580.502V917.68H576.622V947H595.422Z" fill="white"/>
<rect x="676" y="881" width="250" height="100" fill="#B0B0B0"/>
<path d="M747.118 947V922L756.358 947H759.838L769.078 922V947H772.758V917.68H767.078L758.078 942.52L749.158 917.68H743.438V947H747.118ZM800.701 934.96C800.701 927.08 796.701 922.88 790.341 922.88C784.221 922.88 779.501 927.16 779.501 935.24C779.501 943.24 783.621 947.64 790.301 947.64C795.381 947.64 798.981 945 800.421 940.52H796.741C795.541 943.2 793.421 944.68 790.301 944.68C786.101 944.68 783.581 942.04 783.341 936.04H800.701V934.96ZM783.341 933.6C783.701 928.8 786.061 925.76 790.341 925.76C794.541 925.76 796.741 928.56 796.981 933.6H783.341ZM816.902 943.96C813.982 943.96 812.462 942.72 812.462 939.84V926.48H818.702V923.56H812.462V918.08H809.502L808.862 923.56H805.222V926.48H808.702V940.16C808.702 945.04 811.462 947.2 816.502 947.2C817.582 947.2 818.782 947.12 819.702 947V943.96H816.902ZM844.862 944.16C843.582 944.16 843.182 943.36 843.182 941.88V930.68C843.182 925.88 840.302 922.88 834.462 922.88C829.382 922.88 825.502 925.56 825.222 929.8H828.902C829.182 927.2 831.382 925.72 834.462 925.72C837.782 925.72 839.422 927.44 839.422 930.48V933.24L834.862 933.28C826.782 933.36 824.262 936.8 824.262 941C824.262 945.04 827.262 947.64 831.982 947.64C835.422 947.64 838.062 946.28 839.782 944.48C840.222 946.04 841.582 947.2 843.742 947.2C844.302 947.2 844.862 947.16 845.302 947V944.16H844.862ZM828.022 940.92C828.022 938.12 829.702 935.72 835.422 935.72H839.422V941.96L839.462 942.16C837.622 943.6 835.382 944.84 832.542 944.84C829.782 944.84 828.022 943.36 828.022 940.92ZM859.564 943.88C857.044 943.88 855.324 942.8 855.324 939.8V916.48H851.564V940.36C851.524 945.4 854.804 947.2 858.884 947.2C859.964 947.2 860.724 947.12 861.764 947V943.88H859.564Z" fill="white"/>
<path d="M1067.96 298.951L1068.46 299.006L1068.51 298.509L1073.12 256.506L1073.17 256.009L1072.67 255.954L1067.08 255.342L1066.59 255.287L1066.53 255.784L1061.93 297.787L1061.88 298.284L1062.37 298.339L1067.96 298.951Z" fill="black" stroke="black"/>
<path d="M1131.8 228.855L1132.01 228.401L1131.55 228.191L1126.45 225.836L1126 225.626L1125.79 226.08L1114.48 250.584C1112.93 253.951 1110.94 256.048 1108.55 256.983L1108.55 256.983C1106.22 257.896 1103.49 257.673 1100.31 256.206C1096.95 254.654 1094.84 252.641 1093.89 250.202C1092.95 247.732 1093.2 244.841 1094.75 241.481L1106.06 216.978L1106.27 216.524L1105.82 216.315L1100.71 213.959L1100.26 213.75L1100.05 214.204L1088.74 238.707C1086.34 243.906 1085.95 248.447 1087.7 252.265L1087.7 252.265L1087.7 252.271C1089.48 256.027 1092.92 259.046 1097.94 261.359C1102.85 263.624 1107.27 264.164 1111.16 262.883L1111.17 262.882C1115.1 261.559 1118.19 258.344 1120.49 253.358L1131.8 228.855Z" fill="black" stroke="black"/>
<path d="M1052.11 192.956L1051.61 192.915L1051.57 193.413L1048.12 235.527L1048.08 236.025L1048.58 236.066L1077.83 238.461L1078.33 238.502L1078.37 238.003L1078.76 233.285L1078.8 232.786L1078.3 232.746L1055.15 230.85L1056.26 217.278L1077.64 219.029L1078.14 219.069L1078.18 218.571L1078.57 213.853L1078.61 213.354L1078.11 213.313L1056.73 211.563L1057.74 199.171L1080.72 201.051L1081.22 201.092L1081.26 200.594L1081.64 195.875L1081.68 195.377L1081.19 195.336L1052.11 192.956Z" fill="black" stroke="black"/>
<path d="M1012.53 216.242L1012.03 216.335L1012.13 216.826L1019.93 258.353L1020.03 258.845L1020.52 258.752L1048.03 253.58L1048.52 253.487L1048.43 252.996L1047.55 248.343L1047.46 247.852L1046.97 247.944L1025.47 251.985L1018.63 215.603L1018.54 215.111L1018.05 215.204L1012.53 216.242Z" fill="black" stroke="black"/>
<path d="M1146.72 198.07L1138.36 191.322L1146.17 181.646L1154.53 188.393C1155.46 189.148 1156.29 189.911 1157 190.683L1157.01 190.69L1157.01 190.698C1157.76 191.443 1158.28 192.223 1158.6 193.038C1158.91 193.837 1158.99 194.674 1158.83 195.559C1158.67 196.418 1158.17 197.411 1157.26 198.544C1155.91 200.206 1154.43 200.981 1152.79 200.98C1151.2 200.973 1149.18 200.056 1146.72 198.07ZM1145 173.339L1144.62 173.025L1144.3 173.414L1117.77 206.297L1117.45 206.686L1117.84 207L1133.73 219.822C1135.4 221.168 1137.1 222.096 1138.82 222.587L1138.82 222.587L1138.83 222.589C1140.59 223.067 1142.27 223.211 1143.86 223.011C1145.51 222.806 1147.03 222.292 1148.44 221.468C1149.84 220.648 1151.04 219.616 1152.05 218.37C1153.74 216.272 1154.64 214.016 1154.71 211.612C1154.77 209.572 1154.16 207.626 1152.93 205.782C1154.64 206.132 1156.29 206.06 1157.87 205.555C1159.88 204.926 1161.61 203.689 1163.08 201.873C1164.46 200.155 1165.26 198.358 1165.42 196.486C1165.6 194.689 1165.41 192.994 1164.83 191.407C1164.56 190.64 1164.12 189.879 1163.51 189.123C1162.94 188.406 1162.28 187.688 1161.52 186.971C1160.78 186.226 1160 185.514 1159.16 184.838C1158.39 184.162 1157.64 183.537 1156.93 182.965L1145 173.339ZM1136.78 214.914L1126.21 206.382L1134.76 195.785L1144.36 203.536C1145.26 204.258 1146.05 205.044 1146.74 205.893L1146.74 205.9L1146.75 205.906C1147.44 206.708 1147.92 207.548 1148.2 208.424L1148.2 208.437L1148.21 208.45C1148.53 209.309 1148.61 210.207 1148.46 211.151C1148.3 212.071 1147.83 213.045 1147 214.074C1145.58 215.833 1143.99 216.741 1142.2 216.88L1142.2 216.88L1142.2 216.881C1140.44 217.043 1138.64 216.417 1136.78 214.914Z" fill="black" stroke="black"/>
<path d="M1081.82 138.089L1081.34 137.963L1081.21 138.447L1070.57 179.341L1070.45 179.824L1070.93 179.95L1076.09 181.291L1076.57 181.417L1076.7 180.933L1084.93 149.273L1088.6 184.211L1088.64 184.556L1088.97 184.643L1093.61 185.85L1093.95 185.937L1094.15 185.654L1114.38 156.932L1106.14 188.592L1106.02 189.076L1106.5 189.202L1111.65 190.543L1112.14 190.668L1112.26 190.185L1122.9 149.291L1123.03 148.807L1122.54 148.681L1115.1 146.744L1114.76 146.657L1114.56 146.94L1093.45 176.851L1089.64 140.457L1089.6 140.113L1089.27 140.026L1081.82 138.089Z" fill="black" stroke="black"/>
<path d="M1041.76 135.809L1041.56 135.347L1041.1 135.538L1035.91 137.688L1035.45 137.879L1035.64 138.341L1045.96 163.276C1047.37 166.703 1047.57 169.586 1046.63 171.973L1046.63 171.973C1045.72 174.303 1043.71 176.156 1040.47 177.495C1037.05 178.912 1034.14 179.094 1031.7 178.14C1029.25 177.152 1027.3 175.003 1025.88 171.584L1015.56 146.649L1015.37 146.187L1014.91 146.378L1009.72 148.528L1009.25 148.719L1009.44 149.181L1019.76 174.116C1021.95 179.407 1025.02 182.78 1029.01 184.086L1029.01 184.086L1029.02 184.088C1032.99 185.327 1037.54 184.85 1042.64 182.739C1047.64 180.671 1051.03 177.79 1052.74 174.059L1052.74 174.056C1054.43 170.273 1054.18 165.817 1052.08 160.744L1041.76 135.809Z" fill="black" stroke="black"/>
<path d="M966.602 200.35L966.299 200.748L966.698 201.051L1000.35 226.6L1000.75 226.902L1001.05 226.504L1004.45 222.026L1004.75 221.628L1004.36 221.326L989.342 209.927L1002.19 193L1017.21 204.399L1017.61 204.702L1017.91 204.303L1021.31 199.825L1021.61 199.427L1021.21 199.125L987.556 173.575L987.158 173.273L986.855 173.671L983.456 178.149L983.154 178.547L983.552 178.85L997.624 189.533L984.774 206.459L970.702 195.776L970.304 195.474L970.001 195.872L966.602 200.35Z" fill="black" stroke="black"/>
<ellipse cx="872.881" cy="176.776" rx="54.3676" ry="33.4927" transform="rotate(-68.9199 872.881 176.776)" fill="url(#paint3_linear_31_484)"/>
<ellipse cx="836.702" cy="187.411" rx="57.1528" ry="34.3493" transform="rotate(-135 836.702 187.411)" fill="url(#paint4_linear_31_484)"/>
<path d="M822.073 262.047L812.821 275.535L814.453 279.464L831.871 282.73L822.073 262.047Z" fill="#020007"/>
<path d="M902.941 284.35C920.28 277.774 929.824 259.138 925.024 241.226C920.225 223.314 902.642 211.946 884.338 214.921L852.637 220.073C829.634 223.812 814.896 246.607 820.928 269.118C826.96 291.63 851.12 304.001 872.911 295.738L902.941 284.35Z" fill="url(#paint5_linear_31_484)"/>
<path d="M903.774 284.022C903.499 284.134 903.221 284.243 902.942 284.349L894.487 287.555C878.51 266.558 867.435 243.91 858.653 219.095L868.205 217.542C876.955 241.902 887.937 263.802 903.774 284.022Z" fill="black"/>
<path d="M842.109 223.333C844.944 221.994 847.987 220.976 851.202 220.333C856.364 245.104 864.217 270.075 874.469 295.147L872.912 295.737C870.387 296.695 867.83 297.375 865.274 297.795C855.164 272.927 847.338 248.072 842.109 223.333Z" fill="black"/>
<path d="M860.134 298.293C855.615 298.43 851.165 297.778 846.961 296.428C843.814 291.948 840.917 287.457 838.253 282.885C831.398 271.118 826.136 258.897 822.103 245.063C823.692 240.856 825.99 236.95 828.881 233.521C832.972 250.52 838.645 264.655 846.475 278.095C850.43 284.885 854.952 291.525 860.134 298.293Z" fill="black"/>
<path fill-rule="evenodd" clip-rule="evenodd" d="M897.884 247.284C895.496 244.766 892.82 241.354 889.835 237.34L893.653 234.501C896.627 238.501 899.159 241.715 901.336 244.009C903.608 246.404 905.137 247.399 906.066 247.605C906.407 247.681 906.587 247.632 906.749 247.542C906.971 247.42 907.361 247.095 907.841 246.275C908.83 244.586 909.783 241.53 910.627 236.607L915.316 237.411C914.457 242.424 913.395 246.204 911.947 248.678C911.208 249.939 910.275 251.028 909.053 251.705C907.772 252.414 906.388 252.55 905.035 252.249C902.572 251.703 900.178 249.701 897.884 247.284Z" fill="black"/>
<rect x="994" y="881" width="250" height="100" fill="#B0B0B0"/>
<path d="M1092.1 947L1098.82 920.92L1105.5 947H1109.7L1117.58 917.68H1113.62L1107.54 943.12L1100.98 917.68H1096.58L1090.06 943.12L1083.94 917.68H1079.98L1087.86 947H1092.1ZM1123.43 914.76V919.28H1127.39V914.76H1123.43ZM1128.31 923.56H1121.03V926.16L1124.55 926.48V947H1128.31V923.56ZM1148.03 922.88C1144.71 922.88 1142.27 924.36 1140.35 926.88L1139.63 923.56H1136.87V947H1140.63V929.68C1142.27 927.64 1144.35 925.96 1147.27 925.96C1150.79 925.96 1152.15 928.24 1152.15 932V947H1155.91V931.76C1155.91 926.56 1153.31 922.88 1148.03 922.88Z" fill="white"/>
<rect x="1284" y="881" width="250" height="100" fill="#B0B0B0"/>
<rect x="1574" y="881" width="250" height="100" fill="#B0B0B0"/>
<path d="M1398.23 917.68H1393.91L1386.95 929.48L1379.95 917.68H1375.67L1384.67 931.8L1374.87 947H1379.19L1386.95 934.44L1394.71 947H1399.03L1389.27 931.8L1398.23 917.68ZM1414.4 917.68H1411.4V917.88C1411.4 922.36 1409.08 923.6 1403.64 923.6H1403.36V926.44H1410.56V943.8H1403.4V947H1420.28V943.8H1414.4V917.68ZM1436.74 917.68H1433.74V917.88C1433.74 922.36 1431.42 923.6 1425.98 923.6H1425.7V926.44H1432.9V943.8H1425.74V947H1442.62V943.8H1436.74V917.68Z" fill="white"/>
<path d="M1662.19 947V922L1671.43 947H1674.91L1684.15 922V947H1687.83V917.68H1682.15L1673.15 942.52L1664.23 917.68H1658.51V947H1662.19ZM1714.97 944.16C1713.69 944.16 1713.29 943.36 1713.29 941.88V930.68C1713.29 925.88 1710.41 922.88 1704.57 922.88C1699.49 922.88 1695.61 925.56 1695.33 929.8H1699.01C1699.29 927.2 1701.49 925.72 1704.57 925.72C1707.89 925.72 1709.53 927.44 1709.53 930.48V933.24L1704.97 933.28C1696.89 933.36 1694.37 936.8 1694.37 941C1694.37 945.04 1697.37 947.64 1702.09 947.64C1705.53 947.64 1708.17 946.28 1709.89 944.48C1710.33 946.04 1711.69 947.2 1713.85 947.2C1714.41 947.2 1714.97 947.16 1715.41 947V944.16H1714.97ZM1698.13 940.92C1698.13 938.12 1699.81 935.72 1705.53 935.72H1709.53V941.96L1709.57 942.16C1707.73 943.6 1705.49 944.84 1702.65 944.84C1699.89 944.84 1698.13 943.36 1698.13 940.92ZM1731.23 947.64C1736.19 947.64 1740.03 945.08 1741.11 940.52H1737.35C1736.47 943.24 1734.07 944.64 1731.23 944.64C1727.03 944.64 1724.07 941.52 1724.07 935.32C1724.07 929.2 1727.11 925.92 1731.35 925.92C1734.83 925.92 1736.39 927.52 1737.23 929.8H1740.99C1740.03 925.68 1736.95 922.88 1731.35 922.88C1724.79 922.88 1720.31 927.56 1720.31 935.32C1720.31 943.2 1724.55 947.64 1731.23 947.64Z" fill="white"/>
<defs>
<linearGradient id="paint0_linear_31_484" x1="530.97" y1="825.377" x2="466.106" y2="825.377" gradientUnits="userSpaceOnUse">
<stop stop-color="#5A5A5A"/>
<stop offset="1" stop-color="#C9C9C9"/>
</linearGradient>
<linearGradient id="paint1_linear_31_484" x1="534.441" y1="660.971" x2="521.742" y2="669.156" gradientUnits="userSpaceOnUse">
<stop/>
<stop offset="1" stop-opacity="0"/>
</linearGradient>
<linearGradient id="paint2_linear_31_484" x1="541.102" y1="612.687" x2="541.102" y2="660.97" gradientUnits="userSpaceOnUse">
<stop offset="0.211845"/>
<stop offset="1"/>
</linearGradient>
<linearGradient id="paint3_linear_31_484" x1="927.08" y1="175.986" x2="822.714" y2="177.878" gradientUnits="userSpaceOnUse">
<stop stop-color="#00D1FF" stop-opacity="0.4"/>
<stop offset="1" stop-color="#00D1FF" stop-opacity="0"/>
</linearGradient>
<linearGradient id="paint4_linear_31_484" x1="893.677" y1="186.601" x2="783.966" y2="188.64" gradientUnits="userSpaceOnUse">
<stop stop-color="#00D1FF" stop-opacity="0.4"/>
<stop offset="1" stop-color="#00D1FF" stop-opacity="0"/>
</linearGradient>
<linearGradient id="paint5_linear_31_484" x1="877.592" y1="247.351" x2="886.845" y2="289.261" gradientUnits="userSpaceOnUse">
<stop stop-color="#FFDB2B"/>
<stop offset="1" stop-color="#C9A900"/>
</linearGradient>
</defs>
</svg>
