<svg width="1920" height="1080" viewBox="0 0 1920 1080" fill="none" xmlns="http://www.w3.org/2000/svg">
<rect width="1920" height="1080" fill="white"/>
<path fill-rule="evenodd" clip-rule="evenodd" d="M701 481.318L724.318 458H1195L1218 481V598.318L1195.32 621H724L701 598V481.318Z" fill="#2C80EB"/>
<path d="M917.4 587.92C941.04 587.92 958.92 571.96 958.92 541.96C958.92 512.2 941.04 496.12 917.4 496.12C893.76 496.12 875.88 512.2 875.88 541.96C875.88 571.96 893.76 587.92 917.4 587.92ZM917.4 577.96C900.48 577.96 887.76 566.08 887.76 541.96C887.76 517.96 900.48 506.08 917.4 506.08C934.44 506.08 947.04 517.96 947.04 541.96C947.04 566.08 934.44 577.96 917.4 577.96ZM1049.52 586L1012.8 534.28L1048.92 498.04H1035.12L991.201 542.44V498.04H979.561V586H991.201V555.64L1005.12 541.72L1035.48 586H1049.52Z" fill="white"/>
</svg>
