<svg width="1920" height="1080" viewBox="0 0 1920 1080" fill="none" xmlns="http://www.w3.org/2000/svg">
<rect width="1920" height="1080" fill="white"/>
<rect x="1464" y="656" width="327" height="245" stroke="black" stroke-width="8"/>
<rect x="701" y="458" width="517" height="163" rx="20" fill="#2C80EB"/>
<rect x="62" y="155" width="664" height="164" rx="82" fill="#D9D9D9"/>
<path d="M351.4 284.92C375.04 284.92 392.92 268.96 392.92 238.96C392.92 209.2 375.04 193.12 351.4 193.12C327.76 193.12 309.88 209.2 309.88 238.96C309.88 268.96 327.76 284.92 351.4 284.92ZM351.4 274.96C334.48 274.96 321.76 263.08 321.76 238.96C321.76 214.96 334.48 203.08 351.4 203.08C368.44 203.08 381.04 214.96 381.04 238.96C381.04 263.08 368.44 274.96 351.4 274.96ZM483.521 283L446.801 231.28L482.921 195.04H469.121L425.201 239.44V195.04H413.561V283H425.201V252.64L439.121 238.72L469.481 283H483.521Z" fill="black"/>
<path d="M1585.4 826.92C1609.04 826.92 1626.92 810.96 1626.92 780.96C1626.92 751.2 1609.04 735.12 1585.4 735.12C1561.76 735.12 1543.88 751.2 1543.88 780.96C1543.88 810.96 1561.76 826.92 1585.4 826.92ZM1585.4 816.96C1568.48 816.96 1555.76 805.08 1555.76 780.96C1555.76 756.96 1568.48 745.08 1585.4 745.08C1602.44 745.08 1615.04 756.96 1615.04 780.96C1615.04 805.08 1602.44 816.96 1585.4 816.96ZM1717.52 825L1680.8 773.28L1716.92 737.04H1703.12L1659.2 781.44V737.04H1647.56V825H1659.2V794.64L1673.12 780.72L1703.48 825H1717.52Z" fill="black"/>
<path d="M917.4 587.92C941.04 587.92 958.92 571.96 958.92 541.96C958.92 512.2 941.04 496.12 917.4 496.12C893.76 496.12 875.88 512.2 875.88 541.96C875.88 571.96 893.76 587.92 917.4 587.92ZM917.4 577.96C900.48 577.96 887.76 566.08 887.76 541.96C887.76 517.96 900.48 506.08 917.4 506.08C934.44 506.08 947.04 517.96 947.04 541.96C947.04 566.08 934.44 577.96 917.4 577.96ZM1049.52 586L1012.8 534.28L1048.92 498.04H1035.12L991.201 542.44V498.04H979.561V586H991.201V555.64L1005.12 541.72L1035.48 586H1049.52Z" fill="white"/>
<path d="M291.4 751.92C315.04 751.92 332.92 735.96 332.92 705.96C332.92 676.2 315.04 660.12 291.4 660.12C267.76 660.12 249.88 676.2 249.88 705.96C249.88 735.96 267.76 751.92 291.4 751.92ZM291.4 741.96C274.48 741.96 261.76 730.08 261.76 705.96C261.76 681.96 274.48 670.08 291.4 670.08C308.44 670.08 321.04 681.96 321.04 705.96C321.04 730.08 308.44 741.96 291.4 741.96ZM423.521 750L386.801 698.28L422.921 662.04H409.121L365.201 706.44V662.04H353.561V750H365.201V719.64L379.121 705.72L409.481 750H423.521Z" fill="black"/>
<path d="M1403.4 201.92C1427.04 201.92 1444.92 185.96 1444.92 155.96C1444.92 126.2 1427.04 110.12 1403.4 110.12C1379.76 110.12 1361.88 126.2 1361.88 155.96C1361.88 185.96 1379.76 201.92 1403.4 201.92ZM1403.4 191.96C1386.48 191.96 1373.76 180.08 1373.76 155.96C1373.76 131.96 1386.48 120.08 1403.4 120.08C1420.44 120.08 1433.04 131.96 1433.04 155.96C1433.04 180.08 1420.44 191.96 1403.4 191.96ZM1535.52 200L1498.8 148.28L1534.92 112.04H1521.12L1477.2 156.44V112.04H1465.56V200H1477.2V169.64L1491.12 155.72L1521.48 200H1535.52Z" fill="black"/>
<path d="M842.4 990.92C866.04 990.92 883.92 974.96 883.92 944.96C883.92 915.2 866.04 899.12 842.4 899.12C818.76 899.12 800.88 915.2 800.88 944.96C800.88 974.96 818.76 990.92 842.4 990.92ZM842.4 980.96C825.48 980.96 812.76 969.08 812.76 944.96C812.76 920.96 825.48 909.08 842.4 909.08C859.44 909.08 872.04 920.96 872.04 944.96C872.04 969.08 859.44 980.96 842.4 980.96ZM974.521 989L937.801 937.28L973.921 901.04H960.121L916.201 945.44V901.04H904.561V989H916.201V958.64L930.121 944.72L960.481 989H974.521Z" fill="black"/>
<path d="M1326 237H1574.5" stroke="black" stroke-width="10" stroke-linejoin="bevel"/>
<path d="M241 779L444 779" stroke="black" stroke-width="10" stroke-linejoin="bevel" stroke-dasharray="20 10"/>
</svg>
