<svg width="1920" height="1080" viewBox="0 0 1920 1080" fill="none" xmlns="http://www.w3.org/2000/svg">
<rect width="1920" height="1080" fill="white"/>
<path d="M368.823 617L316.423 470.4H290.623L238.223 617H259.223L273.423 576H333.423L347.623 617H368.823ZM329.223 560.4H277.623L303.423 484.2L329.223 560.4ZM452.759 496.4C436.159 496.4 423.959 503.8 414.359 516.4L410.759 499.8H396.959V617H415.759V530.4C423.959 520.2 434.359 511.8 448.959 511.8C466.559 511.8 473.359 523.2 473.359 542V617H492.159V540.8C492.159 514.8 479.159 496.4 452.759 496.4ZM614.477 510.6C605.877 502 594.877 496.4 580.077 496.4C548.477 496.4 525.877 520.8 525.877 559.8C525.877 596.4 546.677 620.2 577.477 620.2C593.677 620.2 606.077 614.2 616.277 602L619.477 617H633.277V464.4H614.477V510.6ZM580.077 605C559.477 605 544.877 590.4 544.877 559.8C544.877 525.2 561.877 511.4 581.477 511.4C595.477 511.4 606.077 518 614.477 526.6V589.6C605.877 597.8 594.877 605 580.077 605ZM685.46 655C706.46 655 715.06 645.2 720.66 629.4L767.26 499.8H748.06L716.46 600.2L681.46 499.8H662.26L707.06 616.6L703.46 626.6C699.66 637 692.46 639.2 684.26 639.2H674.86V654C677.66 654.6 681.86 655 685.46 655Z" fill="black"/>
<path d="M1224.82 617L1172.42 470.4H1146.62L1094.22 617H1115.22L1129.42 576H1189.42L1203.62 617H1224.82ZM1185.22 560.4H1133.62L1159.42 484.2L1185.22 560.4ZM1308.76 496.4C1292.16 496.4 1279.96 503.8 1270.36 516.4L1266.76 499.8H1252.96V617H1271.76V530.4C1279.96 520.2 1290.36 511.8 1304.96 511.8C1322.56 511.8 1329.36 523.2 1329.36 542V617H1348.16V540.8C1348.16 514.8 1335.16 496.4 1308.76 496.4ZM1470.48 510.6C1461.88 502 1450.88 496.4 1436.08 496.4C1404.48 496.4 1381.88 520.8 1381.88 559.8C1381.88 596.4 1402.68 620.2 1433.48 620.2C1449.68 620.2 1462.08 614.2 1472.28 602L1475.48 617H1489.28V464.4H1470.48V510.6ZM1436.08 605C1415.48 605 1400.88 590.4 1400.88 559.8C1400.88 525.2 1417.88 511.4 1437.48 511.4C1451.48 511.4 1462.08 518 1470.48 526.6V589.6C1461.88 597.8 1450.88 605 1436.08 605ZM1541.46 655C1562.46 655 1571.06 645.2 1576.66 629.4L1623.26 499.8H1604.06L1572.46 600.2L1537.46 499.8H1518.26L1563.06 616.6L1559.46 626.6C1555.66 637 1548.46 639.2 1540.26 639.2H1530.86V654C1533.66 654.6 1537.86 655 1541.46 655Z" fill="black"/>
<rect opacity="0.2" x="231" y="403" width="544" height="274" fill="#CC3333"/>
<rect opacity="0.2" x="1087" y="470" width="544" height="147" fill="#CC3333"/>
<path d="M335.503 864L345.583 824.88L355.603 864H361.903L373.723 820.02H367.783L358.663 858.18L348.823 820.02H342.223L332.443 858.18L323.263 820.02H317.323L329.143 864H335.503ZM409.503 845.94C409.503 834.12 403.503 827.82 393.963 827.82C384.783 827.82 377.703 834.24 377.703 846.36C377.703 858.36 383.883 864.96 393.903 864.96C401.523 864.96 406.923 861 409.083 854.28H403.563C401.763 858.3 398.583 860.52 393.903 860.52C387.603 860.52 383.823 856.56 383.463 847.56H409.503V845.94ZM383.463 843.9C384.003 836.7 387.543 832.14 393.963 832.14C400.263 832.14 403.563 836.34 403.923 843.9H383.463ZM436.744 827.82C432.184 827.82 428.584 829.38 425.644 832.68V818.22H420.004V864H424.144L424.984 859.98C427.684 862.98 431.164 864.96 435.964 864.96C445.444 864.96 452.224 857.64 452.224 845.94C452.224 834.96 445.984 827.82 436.744 827.82ZM435.544 860.46C431.344 860.46 428.104 858.48 425.644 855.9V837C428.224 834.54 431.524 832.38 435.964 832.38C442.144 832.38 446.524 836.76 446.524 845.94C446.524 856.32 441.424 860.46 435.544 860.46ZM481.859 818.94H476.699L458.219 865.08H463.319L481.859 818.94ZM495.418 864L495.058 827.58L517.498 864H524.038V820.02H518.518L518.878 856.44L496.498 820.02H489.898V864H495.418ZM564.807 859.74C562.887 859.74 562.287 858.54 562.287 856.32V839.52C562.287 832.32 557.967 827.82 549.207 827.82C541.587 827.82 535.767 831.84 535.347 838.2H540.867C541.287 834.3 544.587 832.08 549.207 832.08C554.187 832.08 556.647 834.66 556.647 839.22V843.36L549.807 843.42C537.687 843.54 533.907 848.7 533.907 855C533.907 861.06 538.407 864.96 545.487 864.96C550.647 864.96 554.607 862.92 557.187 860.22C557.847 862.56 559.887 864.3 563.127 864.3C563.967 864.3 564.807 864.24 565.467 864V859.74H564.807ZM539.547 854.88C539.547 850.68 542.067 847.08 550.647 847.08H556.647V856.44L556.707 856.74C553.947 858.9 550.587 860.76 546.327 860.76C542.187 860.76 539.547 858.54 539.547 854.88ZM588.316 859.44C583.936 859.44 581.656 857.58 581.656 853.26V833.22H591.016V828.84H581.656V820.62H577.216L576.256 828.84H570.796V833.22H576.016V853.74C576.016 861.06 580.156 864.3 587.716 864.3C589.336 864.3 591.136 864.18 592.516 864V859.44H588.316ZM601.456 815.64V822.42H607.396V815.64H601.456ZM608.776 828.84H597.856V832.74L603.136 833.22V864H608.776V828.84ZM636.445 864L648.985 828.84H643.105L633.205 859.8L623.305 828.84H617.485L630.025 864H636.445ZM686.476 845.94C686.476 834.12 680.476 827.82 670.936 827.82C661.756 827.82 654.676 834.24 654.676 846.36C654.676 858.36 660.856 864.96 670.876 864.96C678.496 864.96 683.896 861 686.056 854.28H680.536C678.736 858.3 675.556 860.52 670.876 860.52C664.576 860.52 660.796 856.56 660.436 847.56H686.476V845.94ZM660.436 843.9C660.976 836.7 664.516 832.14 670.936 832.14C677.236 832.14 680.536 836.34 680.896 843.9H660.436Z" fill="black"/>
<path d="M1203.27 864V843.54H1226.37V864H1232.25V820.02H1226.37V838.62H1203.27V820.02H1197.45V864H1203.27ZM1267 854.88C1264.6 857.76 1261.42 860.34 1257.16 860.34C1252.48 860.34 1250.02 857.58 1250.02 851.4V828.84H1244.38V851.64C1244.38 859.5 1248.28 864.96 1255.96 864.96C1260.88 864.96 1264.48 862.74 1267.48 858.96L1268.5 864H1272.64V828.84H1267V854.88ZM1322.67 827.82C1317.69 827.82 1314.15 830.46 1311.21 834.18C1309.53 830.28 1306.23 827.82 1301.31 827.82C1296.75 827.82 1293.45 830.04 1290.63 833.76L1289.61 828.84H1285.47V864H1291.11V837.78C1293.45 834.9 1296.33 832.44 1300.29 832.44C1304.97 832.44 1306.83 835.74 1306.83 841.5V864H1312.47V841.14C1312.47 840 1312.41 838.98 1312.23 837.96C1314.63 835.08 1317.51 832.44 1321.65 832.44C1326.39 832.44 1328.19 835.8 1328.19 841.5V864H1333.83V841.14C1333.83 833.4 1330.17 827.82 1322.67 827.82ZM1363.03 827.82C1358.47 827.82 1354.87 829.38 1351.93 832.68V818.22H1346.29V864H1350.43L1351.27 859.98C1353.97 862.98 1357.45 864.96 1362.25 864.96C1371.73 864.96 1378.51 857.64 1378.51 845.94C1378.51 834.96 1372.27 827.82 1363.03 827.82ZM1361.83 860.46C1357.63 860.46 1354.39 858.48 1351.93 855.9V837C1354.51 834.54 1357.81 832.38 1362.25 832.38C1368.43 832.38 1372.81 836.76 1372.81 845.94C1372.81 856.32 1367.71 860.46 1361.83 860.46ZM1400.7 859.32C1396.92 859.32 1394.34 857.7 1394.34 853.2V818.22H1388.7V854.04C1388.64 861.6 1393.56 864.3 1399.68 864.3C1401.3 864.3 1402.44 864.18 1404 864V859.32H1400.7ZM1441.14 845.94C1441.14 834.12 1435.14 827.82 1425.6 827.82C1416.42 827.82 1409.34 834.24 1409.34 846.36C1409.34 858.36 1415.52 864.96 1425.54 864.96C1433.16 864.96 1438.56 861 1440.72 854.28H1435.2C1433.4 858.3 1430.22 860.52 1425.54 860.52C1419.24 860.52 1415.46 856.56 1415.1 847.56H1441.14V845.94ZM1415.1 843.9C1415.64 836.7 1419.18 832.14 1425.6 832.14C1431.9 832.14 1435.2 836.34 1435.56 843.9H1415.1ZM1485.29 864.96C1496.09 864.96 1502.21 859.02 1502.21 848.34V820.02H1496.39V847.56C1496.39 856.02 1492.67 859.98 1485.29 859.98C1477.97 859.98 1474.25 856.02 1474.25 847.56V820.02H1468.43V848.34C1468.43 859.02 1474.55 864.96 1485.29 864.96ZM1519.56 864V820.02H1513.74V864H1519.56Z" fill="black"/>
</svg>
