<svg width="1920" height="1080" viewBox="0 0 1920 1080" fill="none" xmlns="http://www.w3.org/2000/svg">
<rect width="1920" height="1080" fill="white"/>
<path d="M529.993 531V520.8H485.233V443.04H473.593V531H529.993ZM603.958 522.48C600.118 522.48 598.918 520.08 598.918 515.64V482.04C598.918 467.64 590.278 458.64 572.758 458.64C557.518 458.64 545.878 466.68 545.038 479.4H556.078C556.918 471.6 563.518 467.16 572.758 467.16C582.718 467.16 587.638 472.32 587.638 481.44V489.72L573.958 489.84C549.718 490.08 542.158 500.4 542.158 513C542.158 525.12 551.158 532.92 565.318 532.92C575.638 532.92 583.558 528.84 588.718 523.44C590.038 528.12 594.118 531.6 600.598 531.6C602.278 531.6 603.958 531.48 605.278 531V522.48H603.958ZM553.438 512.76C553.438 504.36 558.478 497.16 575.638 497.16H587.638V515.88L587.758 516.48C582.238 520.8 575.518 524.52 566.998 524.52C558.718 524.52 553.438 520.08 553.438 512.76ZM658.144 458.64C649.024 458.64 641.824 461.76 635.944 468.36V439.44H624.664V531H632.944L634.624 522.96C640.024 528.96 646.984 532.92 656.584 532.92C675.544 532.92 689.104 518.28 689.104 494.88C689.104 472.92 676.624 458.64 658.144 458.64ZM655.744 523.92C647.344 523.92 640.864 519.96 635.944 514.8V477C641.104 472.08 647.704 467.76 656.584 467.76C668.944 467.76 677.704 476.52 677.704 494.88C677.704 515.64 667.504 523.92 655.744 523.92ZM769.014 494.88C769.014 471.24 757.014 458.64 737.934 458.64C719.574 458.64 705.414 471.48 705.414 495.72C705.414 519.72 717.774 532.92 737.814 532.92C753.054 532.92 763.854 525 768.174 511.56H757.134C753.534 519.6 747.174 524.04 737.814 524.04C725.214 524.04 717.654 516.12 716.934 498.12H769.014V494.88ZM716.934 490.8C718.014 476.4 725.094 467.28 737.934 467.28C750.534 467.28 757.134 475.68 757.854 490.8H716.934ZM813.416 521.64C805.856 521.64 800.696 518.4 800.696 509.4V439.44H789.416V511.08C789.296 526.2 799.136 531.6 811.376 531.6C814.616 531.6 816.896 531.36 820.016 531V521.64H813.416Z" fill="#212B37"/>
<path d="M1510.99 490V479.8H1466.23V402.04H1454.59V490H1510.99ZM1584.96 481.48C1581.12 481.48 1579.92 479.08 1579.92 474.64V441.04C1579.92 426.64 1571.28 417.64 1553.76 417.64C1538.52 417.64 1526.88 425.68 1526.04 438.4H1537.08C1537.92 430.6 1544.52 426.16 1553.76 426.16C1563.72 426.16 1568.64 431.32 1568.64 440.44V448.72L1554.96 448.84C1530.72 449.08 1523.16 459.4 1523.16 472C1523.16 484.12 1532.16 491.92 1546.32 491.92C1556.64 491.92 1564.56 487.84 1569.72 482.44C1571.04 487.12 1575.12 490.6 1581.6 490.6C1583.28 490.6 1584.96 490.48 1586.28 490V481.48H1584.96ZM1534.44 471.76C1534.44 463.36 1539.48 456.16 1556.64 456.16H1568.64V474.88L1568.76 475.48C1563.24 479.8 1556.52 483.52 1548 483.52C1539.72 483.52 1534.44 479.08 1534.44 471.76ZM1639.14 417.64C1630.02 417.64 1622.82 420.76 1616.94 427.36V398.44H1605.66V490H1613.94L1615.62 481.96C1621.02 487.96 1627.98 491.92 1637.58 491.92C1656.54 491.92 1670.1 477.28 1670.1 453.88C1670.1 431.92 1657.62 417.64 1639.14 417.64ZM1636.74 482.92C1628.34 482.92 1621.86 478.96 1616.94 473.8V436C1622.1 431.08 1628.7 426.76 1637.58 426.76C1649.94 426.76 1658.7 435.52 1658.7 453.88C1658.7 474.64 1648.5 482.92 1636.74 482.92ZM1750.01 453.88C1750.01 430.24 1738.01 417.64 1718.93 417.64C1700.57 417.64 1686.41 430.48 1686.41 454.72C1686.41 478.72 1698.77 491.92 1718.81 491.92C1734.05 491.92 1744.85 484 1749.17 470.56H1738.13C1734.53 478.6 1728.17 483.04 1718.81 483.04C1706.21 483.04 1698.65 475.12 1697.93 457.12H1750.01V453.88ZM1697.93 449.8C1699.01 435.4 1706.09 426.28 1718.93 426.28C1731.53 426.28 1738.13 434.68 1738.85 449.8H1697.93ZM1794.42 480.64C1786.86 480.64 1781.7 477.4 1781.7 468.4V398.44H1770.42V470.08C1770.3 485.2 1780.14 490.6 1792.38 490.6C1795.62 490.6 1797.9 490.36 1801.02 490V480.64H1794.42Z" fill="#212B37"/>
<path d="M335.503 254L345.583 214.88L355.603 254H361.903L373.723 210.02H367.783L358.663 248.18L348.823 210.02H342.223L332.443 248.18L323.263 210.02H317.323L329.143 254H335.503ZM409.503 235.94C409.503 224.12 403.503 217.82 393.963 217.82C384.783 217.82 377.703 224.24 377.703 236.36C377.703 248.36 383.883 254.96 393.903 254.96C401.523 254.96 406.923 251 409.083 244.28H403.563C401.763 248.3 398.583 250.52 393.903 250.52C387.603 250.52 383.823 246.56 383.463 237.56H409.503V235.94ZM383.463 233.9C384.003 226.7 387.543 222.14 393.963 222.14C400.263 222.14 403.563 226.34 403.923 233.9H383.463ZM436.744 217.82C432.184 217.82 428.584 219.38 425.644 222.68V208.22H420.004V254H424.144L424.984 249.98C427.684 252.98 431.164 254.96 435.964 254.96C445.444 254.96 452.224 247.64 452.224 235.94C452.224 224.96 445.984 217.82 436.744 217.82ZM435.544 250.46C431.344 250.46 428.104 248.48 425.644 245.9V227C428.224 224.54 431.524 222.38 435.964 222.38C442.144 222.38 446.524 226.76 446.524 235.94C446.524 246.32 441.424 250.46 435.544 250.46ZM481.859 208.94H476.699L458.219 255.08H463.319L481.859 208.94ZM495.418 254L495.058 217.58L517.498 254H524.038V210.02H518.518L518.878 246.44L496.498 210.02H489.898V254H495.418ZM564.807 249.74C562.887 249.74 562.287 248.54 562.287 246.32V229.52C562.287 222.32 557.967 217.82 549.207 217.82C541.587 217.82 535.767 221.84 535.347 228.2H540.867C541.287 224.3 544.587 222.08 549.207 222.08C554.187 222.08 556.647 224.66 556.647 229.22V233.36L549.807 233.42C537.687 233.54 533.907 238.7 533.907 245C533.907 251.06 538.407 254.96 545.487 254.96C550.647 254.96 554.607 252.92 557.187 250.22C557.847 252.56 559.887 254.3 563.127 254.3C563.967 254.3 564.807 254.24 565.467 254V249.74H564.807ZM539.547 244.88C539.547 240.68 542.067 237.08 550.647 237.08H556.647V246.44L556.707 246.74C553.947 248.9 550.587 250.76 546.327 250.76C542.187 250.76 539.547 248.54 539.547 244.88ZM588.316 249.44C583.936 249.44 581.656 247.58 581.656 243.26V223.22H591.016V218.84H581.656V210.62H577.216L576.256 218.84H570.796V223.22H576.016V243.74C576.016 251.06 580.156 254.3 587.716 254.3C589.336 254.3 591.136 254.18 592.516 254V249.44H588.316ZM601.456 205.64V212.42H607.396V205.64H601.456ZM608.776 218.84H597.856V222.74L603.136 223.22V254H608.776V218.84ZM636.445 254L648.985 218.84H643.105L633.205 249.8L623.305 218.84H617.485L630.025 254H636.445ZM686.476 235.94C686.476 224.12 680.476 217.82 670.936 217.82C661.756 217.82 654.676 224.24 654.676 236.36C654.676 248.36 660.856 254.96 670.876 254.96C678.496 254.96 683.896 251 686.056 244.28H680.536C678.736 248.3 675.556 250.52 670.876 250.52C664.576 250.52 660.796 246.56 660.436 237.56H686.476V235.94ZM660.436 233.9C660.976 226.7 664.516 222.14 670.936 222.14C677.236 222.14 680.536 226.34 680.896 233.9H660.436Z" fill="black"/>
<path d="M1203.27 254V233.54H1226.37V254H1232.25V210.02H1226.37V228.62H1203.27V210.02H1197.45V254H1203.27ZM1267 244.88C1264.6 247.76 1261.42 250.34 1257.16 250.34C1252.48 250.34 1250.02 247.58 1250.02 241.4V218.84H1244.38V241.64C1244.38 249.5 1248.28 254.96 1255.96 254.96C1260.88 254.96 1264.48 252.74 1267.48 248.96L1268.5 254H1272.64V218.84H1267V244.88ZM1322.67 217.82C1317.69 217.82 1314.15 220.46 1311.21 224.18C1309.53 220.28 1306.23 217.82 1301.31 217.82C1296.75 217.82 1293.45 220.04 1290.63 223.76L1289.61 218.84H1285.47V254H1291.11V227.78C1293.45 224.9 1296.33 222.44 1300.29 222.44C1304.97 222.44 1306.83 225.74 1306.83 231.5V254H1312.47V231.14C1312.47 230 1312.41 228.98 1312.23 227.96C1314.63 225.08 1317.51 222.44 1321.65 222.44C1326.39 222.44 1328.19 225.8 1328.19 231.5V254H1333.83V231.14C1333.83 223.4 1330.17 217.82 1322.67 217.82ZM1363.03 217.82C1358.47 217.82 1354.87 219.38 1351.93 222.68V208.22H1346.29V254H1350.43L1351.27 249.98C1353.97 252.98 1357.45 254.96 1362.25 254.96C1371.73 254.96 1378.51 247.64 1378.51 235.94C1378.51 224.96 1372.27 217.82 1363.03 217.82ZM1361.83 250.46C1357.63 250.46 1354.39 248.48 1351.93 245.9V227C1354.51 224.54 1357.81 222.38 1362.25 222.38C1368.43 222.38 1372.81 226.76 1372.81 235.94C1372.81 246.32 1367.71 250.46 1361.83 250.46ZM1400.7 249.32C1396.92 249.32 1394.34 247.7 1394.34 243.2V208.22H1388.7V244.04C1388.64 251.6 1393.56 254.3 1399.68 254.3C1401.3 254.3 1402.44 254.18 1404 254V249.32H1400.7ZM1441.14 235.94C1441.14 224.12 1435.14 217.82 1425.6 217.82C1416.42 217.82 1409.34 224.24 1409.34 236.36C1409.34 248.36 1415.52 254.96 1425.54 254.96C1433.16 254.96 1438.56 251 1440.72 244.28H1435.2C1433.4 248.3 1430.22 250.52 1425.54 250.52C1419.24 250.52 1415.46 246.56 1415.1 237.56H1441.14V235.94ZM1415.1 233.9C1415.64 226.7 1419.18 222.14 1425.6 222.14C1431.9 222.14 1435.2 226.34 1435.56 233.9H1415.1ZM1485.29 254.96C1496.09 254.96 1502.21 249.02 1502.21 238.34V210.02H1496.39V237.56C1496.39 246.02 1492.67 249.98 1485.29 249.98C1477.97 249.98 1474.25 246.02 1474.25 237.56V210.02H1468.43V238.34C1468.43 249.02 1474.55 254.96 1485.29 254.96ZM1519.56 254V210.02H1513.74V254H1519.56Z" fill="black"/>
<rect x="981" y="403" width="414" height="677" fill="url(#paint0_linear_32_605)"/>
<rect y="403" width="414" height="677" fill="url(#paint1_linear_32_605)"/>
<defs>
<linearGradient id="paint0_linear_32_605" x1="1395" y1="403" x2="1195.5" y2="1138.21" gradientUnits="userSpaceOnUse">
<stop stop-color="#D9D9D9"/>
<stop offset="1" stop-color="#D9D9D9" stop-opacity="0"/>
</linearGradient>
<linearGradient id="paint1_linear_32_605" x1="414" y1="403" x2="214.503" y2="1138.21" gradientUnits="userSpaceOnUse">
<stop stop-color="#D9D9D9"/>
<stop offset="1" stop-color="#D9D9D9" stop-opacity="0"/>
</linearGradient>
</defs>
</svg>
