<svg width="1920" height="1080" viewBox="0 0 1920 1080" fill="none" xmlns="http://www.w3.org/2000/svg">
<rect width="1920" height="1080" fill="white"/>
<path d="M485.161 579V570.5H447.861V505.7H438.161V579H485.161ZM546.798 571.9C543.598 571.9 542.598 569.9 542.598 566.2V538.2C542.598 526.2 535.398 518.7 520.798 518.7C508.098 518.7 498.398 525.4 497.698 536H506.898C507.598 529.5 513.098 525.8 520.798 525.8C529.098 525.8 533.198 530.1 533.198 537.7V544.6L521.798 544.7C501.598 544.9 495.298 553.5 495.298 564C495.298 574.1 502.798 580.6 514.598 580.6C523.198 580.6 529.798 577.2 534.098 572.7C535.198 576.6 538.598 579.5 543.998 579.5C545.398 579.5 546.798 579.4 547.898 579V571.9H546.798ZM504.698 563.8C504.698 556.8 508.898 550.8 523.198 550.8H533.198V566.4L533.298 566.9C528.698 570.5 523.098 573.6 515.998 573.6C509.098 573.6 504.698 569.9 504.698 563.8ZM591.954 518.7C584.354 518.7 578.354 521.3 573.454 526.8V502.7H564.054V579H570.954L572.354 572.3C576.854 577.3 582.654 580.6 590.654 580.6C606.454 580.6 617.754 568.4 617.754 548.9C617.754 530.6 607.354 518.7 591.954 518.7ZM589.954 573.1C582.954 573.1 577.554 569.8 573.454 565.5V534C577.754 529.9 583.254 526.3 590.654 526.3C600.954 526.3 608.254 533.6 608.254 548.9C608.254 566.2 599.754 573.1 589.954 573.1ZM684.345 548.9C684.345 529.2 674.345 518.7 658.445 518.7C643.145 518.7 631.345 529.4 631.345 549.6C631.345 569.6 641.645 580.6 658.345 580.6C671.045 580.6 680.045 574 683.645 562.8H674.445C671.445 569.5 666.145 573.2 658.345 573.2C647.845 573.2 641.545 566.6 640.945 551.6H684.345V548.9ZM640.945 545.5C641.845 533.5 647.745 525.9 658.445 525.9C668.945 525.9 674.445 532.9 675.045 545.5H640.945ZM721.346 571.2C715.046 571.2 710.746 568.5 710.746 561V502.7H701.346V562.4C701.246 575 709.446 579.5 719.646 579.5C722.346 579.5 724.246 579.3 726.846 579V571.2H721.346Z" fill="black"/>
<path d="M485.161 425V416.5H447.861V351.7H438.161V425H485.161ZM546.798 417.9C543.598 417.9 542.598 415.9 542.598 412.2V384.2C542.598 372.2 535.398 364.7 520.798 364.7C508.098 364.7 498.398 371.4 497.698 382H506.898C507.598 375.5 513.098 371.8 520.798 371.8C529.098 371.8 533.198 376.1 533.198 383.7V390.6L521.798 390.7C501.598 390.9 495.298 399.5 495.298 410C495.298 420.1 502.798 426.6 514.598 426.6C523.198 426.6 529.798 423.2 534.098 418.7C535.198 422.6 538.598 425.5 543.998 425.5C545.398 425.5 546.798 425.4 547.898 425V417.9H546.798ZM504.698 409.8C504.698 402.8 508.898 396.8 523.198 396.8H533.198V412.4L533.298 412.9C528.698 416.5 523.098 419.6 515.998 419.6C509.098 419.6 504.698 415.9 504.698 409.8ZM591.954 364.7C584.354 364.7 578.354 367.3 573.454 372.8V348.7H564.054V425H570.954L572.354 418.3C576.854 423.3 582.654 426.6 590.654 426.6C606.454 426.6 617.754 414.4 617.754 394.9C617.754 376.6 607.354 364.7 591.954 364.7ZM589.954 419.1C582.954 419.1 577.554 415.8 573.454 411.5V380C577.754 375.9 583.254 372.3 590.654 372.3C600.954 372.3 608.254 379.6 608.254 394.9C608.254 412.2 599.754 419.1 589.954 419.1ZM684.345 394.9C684.345 375.2 674.345 364.7 658.445 364.7C643.145 364.7 631.345 375.4 631.345 395.6C631.345 415.6 641.645 426.6 658.345 426.6C671.045 426.6 680.045 420 683.645 408.8H674.445C671.445 415.5 666.145 419.2 658.345 419.2C647.845 419.2 641.545 412.6 640.945 397.6H684.345V394.9ZM640.945 391.5C641.845 379.5 647.745 371.9 658.445 371.9C668.945 371.9 674.445 378.9 675.045 391.5H640.945ZM721.346 417.2C715.046 417.2 710.746 414.5 710.746 407V348.7H701.346V408.4C701.246 421 709.446 425.5 719.646 425.5C722.346 425.5 724.246 425.3 726.846 425V417.2H721.346Z" fill="black"/>
<path d="M485.161 271V262.5H447.861V197.7H438.161V271H485.161ZM546.798 263.9C543.598 263.9 542.598 261.9 542.598 258.2V230.2C542.598 218.2 535.398 210.7 520.798 210.7C508.098 210.7 498.398 217.4 497.698 228H506.898C507.598 221.5 513.098 217.8 520.798 217.8C529.098 217.8 533.198 222.1 533.198 229.7V236.6L521.798 236.7C501.598 236.9 495.298 245.5 495.298 256C495.298 266.1 502.798 272.6 514.598 272.6C523.198 272.6 529.798 269.2 534.098 264.7C535.198 268.6 538.598 271.5 543.998 271.5C545.398 271.5 546.798 271.4 547.898 271V263.9H546.798ZM504.698 255.8C504.698 248.8 508.898 242.8 523.198 242.8H533.198V258.4L533.298 258.9C528.698 262.5 523.098 265.6 515.998 265.6C509.098 265.6 504.698 261.9 504.698 255.8ZM591.954 210.7C584.354 210.7 578.354 213.3 573.454 218.8V194.7H564.054V271H570.954L572.354 264.3C576.854 269.3 582.654 272.6 590.654 272.6C606.454 272.6 617.754 260.4 617.754 240.9C617.754 222.6 607.354 210.7 591.954 210.7ZM589.954 265.1C582.954 265.1 577.554 261.8 573.454 257.5V226C577.754 221.9 583.254 218.3 590.654 218.3C600.954 218.3 608.254 225.6 608.254 240.9C608.254 258.2 599.754 265.1 589.954 265.1ZM684.345 240.9C684.345 221.2 674.345 210.7 658.445 210.7C643.145 210.7 631.345 221.4 631.345 241.6C631.345 261.6 641.645 272.6 658.345 272.6C671.045 272.6 680.045 266 683.645 254.8H674.445C671.445 261.5 666.145 265.2 658.345 265.2C647.845 265.2 641.545 258.6 640.945 243.6H684.345V240.9ZM640.945 237.5C641.845 225.5 647.745 217.9 658.445 217.9C668.945 217.9 674.445 224.9 675.045 237.5H640.945ZM721.346 263.2C715.046 263.2 710.746 260.5 710.746 253V194.7H701.346V254.4C701.246 267 709.446 271.5 719.646 271.5C722.346 271.5 724.246 271.3 726.846 271V263.2H721.346Z" fill="black"/>
<path d="M485.161 733V724.5H447.861V659.7H438.161V733H485.161ZM546.798 725.9C543.598 725.9 542.598 723.9 542.598 720.2V692.2C542.598 680.2 535.398 672.7 520.798 672.7C508.098 672.7 498.398 679.4 497.698 690H506.898C507.598 683.5 513.098 679.8 520.798 679.8C529.098 679.8 533.198 684.1 533.198 691.7V698.6L521.798 698.7C501.598 698.9 495.298 707.5 495.298 718C495.298 728.1 502.798 734.6 514.598 734.6C523.198 734.6 529.798 731.2 534.098 726.7C535.198 730.6 538.598 733.5 543.998 733.5C545.398 733.5 546.798 733.4 547.898 733V725.9H546.798ZM504.698 717.8C504.698 710.8 508.898 704.8 523.198 704.8H533.198V720.4L533.298 720.9C528.698 724.5 523.098 727.6 515.998 727.6C509.098 727.6 504.698 723.9 504.698 717.8ZM591.954 672.7C584.354 672.7 578.354 675.3 573.454 680.8V656.7H564.054V733H570.954L572.354 726.3C576.854 731.3 582.654 734.6 590.654 734.6C606.454 734.6 617.754 722.4 617.754 702.9C617.754 684.6 607.354 672.7 591.954 672.7ZM589.954 727.1C582.954 727.1 577.554 723.8 573.454 719.5V688C577.754 683.9 583.254 680.3 590.654 680.3C600.954 680.3 608.254 687.6 608.254 702.9C608.254 720.2 599.754 727.1 589.954 727.1ZM684.345 702.9C684.345 683.2 674.345 672.7 658.445 672.7C643.145 672.7 631.345 683.4 631.345 703.6C631.345 723.6 641.645 734.6 658.345 734.6C671.045 734.6 680.045 728 683.645 716.8H674.445C671.445 723.5 666.145 727.2 658.345 727.2C647.845 727.2 641.545 720.6 640.945 705.6H684.345V702.9ZM640.945 699.5C641.845 687.5 647.745 679.9 658.445 679.9C668.945 679.9 674.445 686.9 675.045 699.5H640.945ZM721.346 725.2C715.046 725.2 710.746 722.5 710.746 715V656.7H701.346V716.4C701.246 729 709.446 733.5 719.646 733.5C722.346 733.5 724.246 733.3 726.846 733V725.2H721.346Z" fill="black"/>
<path d="M1341.16 510V501.5H1303.86V436.7H1294.16V510H1341.16ZM1402.8 502.9C1399.6 502.9 1398.6 500.9 1398.6 497.2V469.2C1398.6 457.2 1391.4 449.7 1376.8 449.7C1364.1 449.7 1354.4 456.4 1353.7 467H1362.9C1363.6 460.5 1369.1 456.8 1376.8 456.8C1385.1 456.8 1389.2 461.1 1389.2 468.7V475.6L1377.8 475.7C1357.6 475.9 1351.3 484.5 1351.3 495C1351.3 505.1 1358.8 511.6 1370.6 511.6C1379.2 511.6 1385.8 508.2 1390.1 503.7C1391.2 507.6 1394.6 510.5 1400 510.5C1401.4 510.5 1402.8 510.4 1403.9 510V502.9H1402.8ZM1360.7 494.8C1360.7 487.8 1364.9 481.8 1379.2 481.8H1389.2V497.4L1389.3 497.9C1384.7 501.5 1379.1 504.6 1372 504.6C1365.1 504.6 1360.7 500.9 1360.7 494.8ZM1447.95 449.7C1440.35 449.7 1434.35 452.3 1429.45 457.8V433.7H1420.05V510H1426.95L1428.35 503.3C1432.85 508.3 1438.65 511.6 1446.65 511.6C1462.45 511.6 1473.75 499.4 1473.75 479.9C1473.75 461.6 1463.35 449.7 1447.95 449.7ZM1445.95 504.1C1438.95 504.1 1433.55 500.8 1429.45 496.5V465C1433.75 460.9 1439.25 457.3 1446.65 457.3C1456.95 457.3 1464.25 464.6 1464.25 479.9C1464.25 497.2 1455.75 504.1 1445.95 504.1ZM1540.34 479.9C1540.34 460.2 1530.34 449.7 1514.44 449.7C1499.14 449.7 1487.34 460.4 1487.34 480.6C1487.34 500.6 1497.64 511.6 1514.34 511.6C1527.04 511.6 1536.04 505 1539.64 493.8H1530.44C1527.44 500.5 1522.14 504.2 1514.34 504.2C1503.84 504.2 1497.54 497.6 1496.94 482.6H1540.34V479.9ZM1496.94 476.5C1497.84 464.5 1503.74 456.9 1514.44 456.9C1524.94 456.9 1530.44 463.9 1531.04 476.5H1496.94ZM1577.35 502.2C1571.05 502.2 1566.75 499.5 1566.75 492V433.7H1557.35V493.4C1557.25 506 1565.45 510.5 1575.65 510.5C1578.35 510.5 1580.25 510.3 1582.85 510V502.2H1577.35Z" fill="black"/>
<path d="M358.503 961L368.583 921.88L378.603 961H384.903L396.723 917.02H390.783L381.663 955.18L371.823 917.02H365.223L355.443 955.18L346.263 917.02H340.323L352.143 961H358.503ZM432.503 942.94C432.503 931.12 426.503 924.82 416.963 924.82C407.783 924.82 400.703 931.24 400.703 943.36C400.703 955.36 406.883 961.96 416.903 961.96C424.523 961.96 429.923 958 432.083 951.28H426.563C424.763 955.3 421.583 957.52 416.903 957.52C410.603 957.52 406.823 953.56 406.463 944.56H432.503V942.94ZM406.463 940.9C407.003 933.7 410.543 929.14 416.963 929.14C423.263 929.14 426.563 933.34 426.923 940.9H406.463ZM459.744 924.82C455.184 924.82 451.584 926.38 448.644 929.68V915.22H443.004V961H447.144L447.984 956.98C450.684 959.98 454.164 961.96 458.964 961.96C468.444 961.96 475.224 954.64 475.224 942.94C475.224 931.96 468.984 924.82 459.744 924.82ZM458.544 957.46C454.344 957.46 451.104 955.48 448.644 952.9V934C451.224 931.54 454.524 929.38 458.964 929.38C465.144 929.38 469.524 933.76 469.524 942.94C469.524 953.32 464.424 957.46 458.544 957.46ZM504.859 915.94H499.699L481.219 962.08H486.319L504.859 915.94ZM518.418 961L518.058 924.58L540.498 961H547.038V917.02H541.518L541.878 953.44L519.498 917.02H512.898V961H518.418ZM587.807 956.74C585.887 956.74 585.287 955.54 585.287 953.32V936.52C585.287 929.32 580.967 924.82 572.207 924.82C564.587 924.82 558.767 928.84 558.347 935.2H563.867C564.287 931.3 567.587 929.08 572.207 929.08C577.187 929.08 579.647 931.66 579.647 936.22V940.36L572.807 940.42C560.687 940.54 556.907 945.7 556.907 952C556.907 958.06 561.407 961.96 568.487 961.96C573.647 961.96 577.607 959.92 580.187 957.22C580.847 959.56 582.887 961.3 586.127 961.3C586.967 961.3 587.807 961.24 588.467 961V956.74H587.807ZM562.547 951.88C562.547 947.68 565.067 944.08 573.647 944.08H579.647V953.44L579.707 953.74C576.947 955.9 573.587 957.76 569.327 957.76C565.187 957.76 562.547 955.54 562.547 951.88ZM611.316 956.44C606.936 956.44 604.656 954.58 604.656 950.26V930.22H614.016V925.84H604.656V917.62H600.216L599.256 925.84H593.796V930.22H599.016V950.74C599.016 958.06 603.156 961.3 610.716 961.3C612.336 961.3 614.136 961.18 615.516 961V956.44H611.316ZM624.456 912.64V919.42H630.396V912.64H624.456ZM631.776 925.84H620.856V929.74L626.136 930.22V961H631.776V925.84ZM659.445 961L671.985 925.84H666.105L656.205 956.8L646.305 925.84H640.485L653.025 961H659.445ZM709.476 942.94C709.476 931.12 703.476 924.82 693.936 924.82C684.756 924.82 677.676 931.24 677.676 943.36C677.676 955.36 683.856 961.96 693.876 961.96C701.496 961.96 706.896 958 709.056 951.28H703.536C701.736 955.3 698.556 957.52 693.876 957.52C687.576 957.52 683.796 953.56 683.436 944.56H709.476V942.94ZM683.436 940.9C683.976 933.7 687.516 929.14 693.936 929.14C700.236 929.14 703.536 933.34 703.896 940.9H683.436Z" fill="black"/>
<path d="M1220.27 961V940.54H1243.37V961H1249.25V917.02H1243.37V935.62H1220.27V917.02H1214.45V961H1220.27ZM1284 951.88C1281.6 954.76 1278.42 957.34 1274.16 957.34C1269.48 957.34 1267.02 954.58 1267.02 948.4V925.84H1261.38V948.64C1261.38 956.5 1265.28 961.96 1272.96 961.96C1277.88 961.96 1281.48 959.74 1284.48 955.96L1285.5 961H1289.64V925.84H1284V951.88ZM1339.67 924.82C1334.69 924.82 1331.15 927.46 1328.21 931.18C1326.53 927.28 1323.23 924.82 1318.31 924.82C1313.75 924.82 1310.45 927.04 1307.63 930.76L1306.61 925.84H1302.47V961H1308.11V934.78C1310.45 931.9 1313.33 929.44 1317.29 929.44C1321.97 929.44 1323.83 932.74 1323.83 938.5V961H1329.47V938.14C1329.47 937 1329.41 935.98 1329.23 934.96C1331.63 932.08 1334.51 929.44 1338.65 929.44C1343.39 929.44 1345.19 932.8 1345.19 938.5V961H1350.83V938.14C1350.83 930.4 1347.17 924.82 1339.67 924.82ZM1380.03 924.82C1375.47 924.82 1371.87 926.38 1368.93 929.68V915.22H1363.29V961H1367.43L1368.27 956.98C1370.97 959.98 1374.45 961.96 1379.25 961.96C1388.73 961.96 1395.51 954.64 1395.51 942.94C1395.51 931.96 1389.27 924.82 1380.03 924.82ZM1378.83 957.46C1374.63 957.46 1371.39 955.48 1368.93 952.9V934C1371.51 931.54 1374.81 929.38 1379.25 929.38C1385.43 929.38 1389.81 933.76 1389.81 942.94C1389.81 953.32 1384.71 957.46 1378.83 957.46ZM1417.7 956.32C1413.92 956.32 1411.34 954.7 1411.34 950.2V915.22H1405.7V951.04C1405.64 958.6 1410.56 961.3 1416.68 961.3C1418.3 961.3 1419.44 961.18 1421 961V956.32H1417.7ZM1458.14 942.94C1458.14 931.12 1452.14 924.82 1442.6 924.82C1433.42 924.82 1426.34 931.24 1426.34 943.36C1426.34 955.36 1432.52 961.96 1442.54 961.96C1450.16 961.96 1455.56 958 1457.72 951.28H1452.2C1450.4 955.3 1447.22 957.52 1442.54 957.52C1436.24 957.52 1432.46 953.56 1432.1 944.56H1458.14V942.94ZM1432.1 940.9C1432.64 933.7 1436.18 929.14 1442.6 929.14C1448.9 929.14 1452.2 933.34 1452.56 940.9H1432.1ZM1502.29 961.96C1513.09 961.96 1519.21 956.02 1519.21 945.34V917.02H1513.39V944.56C1513.39 953.02 1509.67 956.98 1502.29 956.98C1494.97 956.98 1491.25 953.02 1491.25 944.56V917.02H1485.43V945.34C1485.43 956.02 1491.55 961.96 1502.29 961.96ZM1536.56 961V917.02H1530.74V961H1536.56Z" fill="black"/>
<path d="M1158 453.7C1158 443.304 1158 438.106 1160.02 434.135C1161.8 430.643 1164.64 427.803 1168.14 426.023C1172.11 424 1177.3 424 1187.7 424H1227.3C1237.7 424 1242.89 424 1246.86 426.023C1250.36 427.803 1253.2 430.643 1254.98 434.135C1257 438.106 1257 443.304 1257 453.7V493.3C1257 503.696 1257 508.894 1254.98 512.865C1253.2 516.357 1250.36 519.197 1246.86 520.977C1242.89 523 1237.7 523 1227.3 523H1187.7C1177.3 523 1172.11 523 1168.14 520.977C1164.64 519.197 1161.8 516.357 1160.02 512.865C1158 508.894 1158 503.696 1158 493.3V453.7Z" fill="#0080FF"/>
<path fill-rule="evenodd" clip-rule="evenodd" d="M1239.98 442.563C1243.4 445.126 1244.09 449.974 1241.53 453.391L1204.41 502.891C1202.95 504.839 1200.65 505.985 1198.22 505.985C1195.78 505.985 1193.49 504.839 1192.03 502.891L1173.47 478.141C1170.91 474.724 1171.6 469.876 1175.02 467.313C1178.43 464.75 1183.28 465.443 1185.84 468.86L1198.22 485.36L1229.16 444.11C1231.72 440.693 1236.57 440 1239.98 442.563Z" fill="white"/>
<path d="M302 355.7C302 345.304 302 340.106 304.023 336.135C305.803 332.643 308.643 329.803 312.135 328.023C316.106 326 321.304 326 331.7 326H371.3C381.696 326 386.894 326 390.865 328.023C394.357 329.803 397.197 332.643 398.977 336.135C401 340.106 401 345.304 401 355.7V395.3C401 405.696 401 410.894 398.977 414.865C397.197 418.357 394.357 421.197 390.865 422.977C386.894 425 381.696 425 371.3 425H331.7C321.304 425 316.106 425 312.135 422.977C308.643 421.197 305.803 418.357 304.023 414.865C302 410.894 302 405.696 302 395.3V355.7Z" fill="#0080FF"/>
<path fill-rule="evenodd" clip-rule="evenodd" d="M383.985 344.563C387.402 347.126 388.095 351.974 385.532 355.391L348.407 404.891C346.946 406.839 344.654 407.985 342.219 407.985C339.785 407.985 337.492 406.839 336.032 404.891L317.469 380.141C314.906 376.724 315.599 371.876 319.016 369.313C322.433 366.75 327.281 367.443 329.844 370.86L342.219 387.36L373.157 346.11C375.72 342.693 380.568 342 383.985 344.563Z" fill="white"/>
<path d="M302 520.7C302 510.304 302 505.106 304.023 501.135C305.803 497.643 308.643 494.803 312.135 493.023C316.106 491 321.304 491 331.7 491H371.3C381.696 491 386.894 491 390.865 493.023C394.357 494.803 397.197 497.643 398.977 501.135C401 505.106 401 510.304 401 520.7V560.3C401 570.696 401 575.894 398.977 579.865C397.197 583.357 394.357 586.197 390.865 587.977C386.894 590 381.696 590 371.3 590H331.7C321.304 590 316.106 590 312.135 587.977C308.643 586.197 305.803 583.357 304.023 579.865C302 575.894 302 570.696 302 560.3V520.7Z" fill="#0080FF"/>
<path fill-rule="evenodd" clip-rule="evenodd" d="M383.985 509.563C387.402 512.126 388.095 516.974 385.532 520.391L348.407 569.891C346.946 571.839 344.654 572.985 342.219 572.985C339.785 572.985 337.492 571.839 336.032 569.891L317.469 545.141C314.906 541.724 315.599 536.876 319.016 534.313C322.433 531.75 327.281 532.443 329.844 535.86L342.219 552.36L373.157 511.11C375.72 507.693 380.568 507 383.985 509.563Z" fill="white"/>
<path d="M302 193.7C302 183.304 302 178.106 304.023 174.135C305.803 170.643 308.643 167.803 312.135 166.023C316.106 164 321.304 164 331.7 164H371.3C381.696 164 386.894 164 390.865 166.023C394.357 167.803 397.197 170.643 398.977 174.135C401 178.106 401 183.304 401 193.7V233.3C401 243.696 401 248.894 398.977 252.865C397.197 256.357 394.357 259.197 390.865 260.977C386.894 263 381.696 263 371.3 263H331.7C321.304 263 316.106 263 312.135 260.977C308.643 259.197 305.803 256.357 304.023 252.865C302 248.894 302 243.696 302 233.3V193.7Z" fill="#0080FF"/>
<path fill-rule="evenodd" clip-rule="evenodd" d="M383.985 182.563C387.402 185.126 388.095 189.974 385.532 193.391L348.407 242.891C346.946 244.839 344.654 245.985 342.219 245.985C339.785 245.985 337.492 244.839 336.032 242.891L317.469 218.141C314.906 214.724 315.599 209.876 319.016 207.313C322.433 204.75 327.281 205.443 329.844 208.86L342.219 225.36L373.157 184.11C375.72 180.693 380.568 180 383.985 182.563Z" fill="white"/>
<path d="M302 693.7C302 683.304 302 678.106 304.023 674.135C305.803 670.643 308.643 667.803 312.135 666.023C316.106 664 321.304 664 331.7 664H371.3C381.696 664 386.894 664 390.865 666.023C394.357 667.803 397.197 670.643 398.977 674.135C401 678.106 401 683.304 401 693.7V733.3C401 743.696 401 748.894 398.977 752.865C397.197 756.357 394.357 759.197 390.865 760.977C386.894 763 381.696 763 371.3 763H331.7C321.304 763 316.106 763 312.135 760.977C308.643 759.197 305.803 756.357 304.023 752.865C302 748.894 302 743.696 302 733.3V693.7Z" fill="#0080FF"/>
<path fill-rule="evenodd" clip-rule="evenodd" d="M383.985 682.563C387.402 685.126 388.095 689.974 385.532 693.391L348.407 742.891C346.946 744.839 344.654 745.985 342.219 745.985C339.785 745.985 337.492 744.839 336.032 742.891L317.469 718.141C314.906 714.724 315.599 709.876 319.016 707.313C322.433 704.75 327.281 705.443 329.844 708.86L342.219 725.36L373.157 684.11C375.72 680.693 380.568 680 383.985 682.563Z" fill="white"/>
</svg>
