<svg width="1920" height="1080" viewBox="0 0 1920 1080" fill="none" xmlns="http://www.w3.org/2000/svg">
<rect width="1920" height="1080" fill="white"/>
<path d="M485.161 579V570.5H447.861V505.7H438.161V579H485.161ZM546.798 571.9C543.598 571.9 542.598 569.9 542.598 566.2V538.2C542.598 526.2 535.398 518.7 520.798 518.7C508.098 518.7 498.398 525.4 497.698 536H506.898C507.598 529.5 513.098 525.8 520.798 525.8C529.098 525.8 533.198 530.1 533.198 537.7V544.6L521.798 544.7C501.598 544.9 495.298 553.5 495.298 564C495.298 574.1 502.798 580.6 514.598 580.6C523.198 580.6 529.798 577.2 534.098 572.7C535.198 576.6 538.598 579.5 543.998 579.5C545.398 579.5 546.798 579.4 547.898 579V571.9H546.798ZM504.698 563.8C504.698 556.8 508.898 550.8 523.198 550.8H533.198V566.4L533.298 566.9C528.698 570.5 523.098 573.6 515.998 573.6C509.098 573.6 504.698 569.9 504.698 563.8ZM591.954 518.7C584.354 518.7 578.354 521.3 573.454 526.8V502.7H564.054V579H570.954L572.354 572.3C576.854 577.3 582.654 580.6 590.654 580.6C606.454 580.6 617.754 568.4 617.754 548.9C617.754 530.6 607.354 518.7 591.954 518.7ZM589.954 573.1C582.954 573.1 577.554 569.8 573.454 565.5V534C577.754 529.9 583.254 526.3 590.654 526.3C600.954 526.3 608.254 533.6 608.254 548.9C608.254 566.2 599.754 573.1 589.954 573.1ZM684.345 548.9C684.345 529.2 674.345 518.7 658.445 518.7C643.145 518.7 631.345 529.4 631.345 549.6C631.345 569.6 641.645 580.6 658.345 580.6C671.045 580.6 680.045 574 683.645 562.8H674.445C671.445 569.5 666.145 573.2 658.345 573.2C647.845 573.2 641.545 566.6 640.945 551.6H684.345V548.9ZM640.945 545.5C641.845 533.5 647.745 525.9 658.445 525.9C668.945 525.9 674.445 532.9 675.045 545.5H640.945ZM721.346 571.2C715.046 571.2 710.746 568.5 710.746 561V502.7H701.346V562.4C701.246 575 709.446 579.5 719.646 579.5C722.346 579.5 724.246 579.3 726.846 579V571.2H721.346Z" fill="#212B37"/>
<path d="M485.161 425V416.5H447.861V351.7H438.161V425H485.161ZM546.798 417.9C543.598 417.9 542.598 415.9 542.598 412.2V384.2C542.598 372.2 535.398 364.7 520.798 364.7C508.098 364.7 498.398 371.4 497.698 382H506.898C507.598 375.5 513.098 371.8 520.798 371.8C529.098 371.8 533.198 376.1 533.198 383.7V390.6L521.798 390.7C501.598 390.9 495.298 399.5 495.298 410C495.298 420.1 502.798 426.6 514.598 426.6C523.198 426.6 529.798 423.2 534.098 418.7C535.198 422.6 538.598 425.5 543.998 425.5C545.398 425.5 546.798 425.4 547.898 425V417.9H546.798ZM504.698 409.8C504.698 402.8 508.898 396.8 523.198 396.8H533.198V412.4L533.298 412.9C528.698 416.5 523.098 419.6 515.998 419.6C509.098 419.6 504.698 415.9 504.698 409.8ZM591.954 364.7C584.354 364.7 578.354 367.3 573.454 372.8V348.7H564.054V425H570.954L572.354 418.3C576.854 423.3 582.654 426.6 590.654 426.6C606.454 426.6 617.754 414.4 617.754 394.9C617.754 376.6 607.354 364.7 591.954 364.7ZM589.954 419.1C582.954 419.1 577.554 415.8 573.454 411.5V380C577.754 375.9 583.254 372.3 590.654 372.3C600.954 372.3 608.254 379.6 608.254 394.9C608.254 412.2 599.754 419.1 589.954 419.1ZM684.345 394.9C684.345 375.2 674.345 364.7 658.445 364.7C643.145 364.7 631.345 375.4 631.345 395.6C631.345 415.6 641.645 426.6 658.345 426.6C671.045 426.6 680.045 420 683.645 408.8H674.445C671.445 415.5 666.145 419.2 658.345 419.2C647.845 419.2 641.545 412.6 640.945 397.6H684.345V394.9ZM640.945 391.5C641.845 379.5 647.745 371.9 658.445 371.9C668.945 371.9 674.445 378.9 675.045 391.5H640.945ZM721.346 417.2C715.046 417.2 710.746 414.5 710.746 407V348.7H701.346V408.4C701.246 421 709.446 425.5 719.646 425.5C722.346 425.5 724.246 425.3 726.846 425V417.2H721.346Z" fill="#212B37"/>
<path d="M485.161 271V262.5H447.861V197.7H438.161V271H485.161ZM546.798 263.9C543.598 263.9 542.598 261.9 542.598 258.2V230.2C542.598 218.2 535.398 210.7 520.798 210.7C508.098 210.7 498.398 217.4 497.698 228H506.898C507.598 221.5 513.098 217.8 520.798 217.8C529.098 217.8 533.198 222.1 533.198 229.7V236.6L521.798 236.7C501.598 236.9 495.298 245.5 495.298 256C495.298 266.1 502.798 272.6 514.598 272.6C523.198 272.6 529.798 269.2 534.098 264.7C535.198 268.6 538.598 271.5 543.998 271.5C545.398 271.5 546.798 271.4 547.898 271V263.9H546.798ZM504.698 255.8C504.698 248.8 508.898 242.8 523.198 242.8H533.198V258.4L533.298 258.9C528.698 262.5 523.098 265.6 515.998 265.6C509.098 265.6 504.698 261.9 504.698 255.8ZM591.954 210.7C584.354 210.7 578.354 213.3 573.454 218.8V194.7H564.054V271H570.954L572.354 264.3C576.854 269.3 582.654 272.6 590.654 272.6C606.454 272.6 617.754 260.4 617.754 240.9C617.754 222.6 607.354 210.7 591.954 210.7ZM589.954 265.1C582.954 265.1 577.554 261.8 573.454 257.5V226C577.754 221.9 583.254 218.3 590.654 218.3C600.954 218.3 608.254 225.6 608.254 240.9C608.254 258.2 599.754 265.1 589.954 265.1ZM684.345 240.9C684.345 221.2 674.345 210.7 658.445 210.7C643.145 210.7 631.345 221.4 631.345 241.6C631.345 261.6 641.645 272.6 658.345 272.6C671.045 272.6 680.045 266 683.645 254.8H674.445C671.445 261.5 666.145 265.2 658.345 265.2C647.845 265.2 641.545 258.6 640.945 243.6H684.345V240.9ZM640.945 237.5C641.845 225.5 647.745 217.9 658.445 217.9C668.945 217.9 674.445 224.9 675.045 237.5H640.945ZM721.346 263.2C715.046 263.2 710.746 260.5 710.746 253V194.7H701.346V254.4C701.246 267 709.446 271.5 719.646 271.5C722.346 271.5 724.246 271.3 726.846 271V263.2H721.346Z" fill="#212B37"/>
<path d="M485.161 733V724.5H447.861V659.7H438.161V733H485.161ZM546.798 725.9C543.598 725.9 542.598 723.9 542.598 720.2V692.2C542.598 680.2 535.398 672.7 520.798 672.7C508.098 672.7 498.398 679.4 497.698 690H506.898C507.598 683.5 513.098 679.8 520.798 679.8C529.098 679.8 533.198 684.1 533.198 691.7V698.6L521.798 698.7C501.598 698.9 495.298 707.5 495.298 718C495.298 728.1 502.798 734.6 514.598 734.6C523.198 734.6 529.798 731.2 534.098 726.7C535.198 730.6 538.598 733.5 543.998 733.5C545.398 733.5 546.798 733.4 547.898 733V725.9H546.798ZM504.698 717.8C504.698 710.8 508.898 704.8 523.198 704.8H533.198V720.4L533.298 720.9C528.698 724.5 523.098 727.6 515.998 727.6C509.098 727.6 504.698 723.9 504.698 717.8ZM591.954 672.7C584.354 672.7 578.354 675.3 573.454 680.8V656.7H564.054V733H570.954L572.354 726.3C576.854 731.3 582.654 734.6 590.654 734.6C606.454 734.6 617.754 722.4 617.754 702.9C617.754 684.6 607.354 672.7 591.954 672.7ZM589.954 727.1C582.954 727.1 577.554 723.8 573.454 719.5V688C577.754 683.9 583.254 680.3 590.654 680.3C600.954 680.3 608.254 687.6 608.254 702.9C608.254 720.2 599.754 727.1 589.954 727.1ZM684.345 702.9C684.345 683.2 674.345 672.7 658.445 672.7C643.145 672.7 631.345 683.4 631.345 703.6C631.345 723.6 641.645 734.6 658.345 734.6C671.045 734.6 680.045 728 683.645 716.8H674.445C671.445 723.5 666.145 727.2 658.345 727.2C647.845 727.2 641.545 720.6 640.945 705.6H684.345V702.9ZM640.945 699.5C641.845 687.5 647.745 679.9 658.445 679.9C668.945 679.9 674.445 686.9 675.045 699.5H640.945ZM721.346 725.2C715.046 725.2 710.746 722.5 710.746 715V656.7H701.346V716.4C701.246 729 709.446 733.5 719.646 733.5C722.346 733.5 724.246 733.3 726.846 733V725.2H721.346Z" fill="#212B37"/>
<path d="M1341.16 510V501.5H1303.86V436.7H1294.16V510H1341.16ZM1402.8 502.9C1399.6 502.9 1398.6 500.9 1398.6 497.2V469.2C1398.6 457.2 1391.4 449.7 1376.8 449.7C1364.1 449.7 1354.4 456.4 1353.7 467H1362.9C1363.6 460.5 1369.1 456.8 1376.8 456.8C1385.1 456.8 1389.2 461.1 1389.2 468.7V475.6L1377.8 475.7C1357.6 475.9 1351.3 484.5 1351.3 495C1351.3 505.1 1358.8 511.6 1370.6 511.6C1379.2 511.6 1385.8 508.2 1390.1 503.7C1391.2 507.6 1394.6 510.5 1400 510.5C1401.4 510.5 1402.8 510.4 1403.9 510V502.9H1402.8ZM1360.7 494.8C1360.7 487.8 1364.9 481.8 1379.2 481.8H1389.2V497.4L1389.3 497.9C1384.7 501.5 1379.1 504.6 1372 504.6C1365.1 504.6 1360.7 500.9 1360.7 494.8ZM1447.95 449.7C1440.35 449.7 1434.35 452.3 1429.45 457.8V433.7H1420.05V510H1426.95L1428.35 503.3C1432.85 508.3 1438.65 511.6 1446.65 511.6C1462.45 511.6 1473.75 499.4 1473.75 479.9C1473.75 461.6 1463.35 449.7 1447.95 449.7ZM1445.95 504.1C1438.95 504.1 1433.55 500.8 1429.45 496.5V465C1433.75 460.9 1439.25 457.3 1446.65 457.3C1456.95 457.3 1464.25 464.6 1464.25 479.9C1464.25 497.2 1455.75 504.1 1445.95 504.1ZM1540.34 479.9C1540.34 460.2 1530.34 449.7 1514.44 449.7C1499.14 449.7 1487.34 460.4 1487.34 480.6C1487.34 500.6 1497.64 511.6 1514.34 511.6C1527.04 511.6 1536.04 505 1539.64 493.8H1530.44C1527.44 500.5 1522.14 504.2 1514.34 504.2C1503.84 504.2 1497.54 497.6 1496.94 482.6H1540.34V479.9ZM1496.94 476.5C1497.84 464.5 1503.74 456.9 1514.44 456.9C1524.94 456.9 1530.44 463.9 1531.04 476.5H1496.94ZM1577.35 502.2C1571.05 502.2 1566.75 499.5 1566.75 492V433.7H1557.35V493.4C1557.25 506 1565.45 510.5 1575.65 510.5C1578.35 510.5 1580.25 510.3 1582.85 510V502.2H1577.35Z" fill="#212B37"/>
<path d="M400.253 955L407.813 925.66L415.328 955H420.053L428.918 922.015H424.463L417.623 950.635L410.243 922.015H405.293L397.958 950.635L391.073 922.015H386.618L395.483 955H400.253ZM455.752 941.455C455.752 932.59 451.252 927.865 444.097 927.865C437.212 927.865 431.902 932.68 431.902 941.77C431.902 950.77 436.537 955.72 444.052 955.72C449.767 955.72 453.817 952.75 455.437 947.71H451.297C449.947 950.725 447.562 952.39 444.052 952.39C439.327 952.39 436.492 949.42 436.222 942.67H455.752V941.455ZM436.222 939.925C436.627 934.525 439.282 931.105 444.097 931.105C448.822 931.105 451.297 934.255 451.567 939.925H436.222ZM476.183 927.865C472.763 927.865 470.063 929.035 467.858 931.51V920.665H463.628V955H466.733L467.363 951.985C469.388 954.235 471.998 955.72 475.598 955.72C482.708 955.72 487.793 950.23 487.793 941.455C487.793 933.22 483.113 927.865 476.183 927.865ZM475.283 952.345C472.133 952.345 469.703 950.86 467.858 948.925V934.75C469.793 932.905 472.268 931.285 475.598 931.285C480.233 931.285 483.518 934.57 483.518 941.455C483.518 949.24 479.693 952.345 475.283 952.345ZM510.019 921.205H506.149L492.289 955.81H496.114L510.019 921.205ZM520.188 955L519.918 927.685L536.748 955H541.653V922.015H537.513L537.783 949.33L520.998 922.015H516.048V955H520.188ZM572.23 951.805C570.79 951.805 570.34 950.905 570.34 949.24V936.64C570.34 931.24 567.1 927.865 560.53 927.865C554.815 927.865 550.45 930.88 550.135 935.65H554.275C554.59 932.725 557.065 931.06 560.53 931.06C564.265 931.06 566.11 932.995 566.11 936.415V939.52L560.98 939.565C551.89 939.655 549.055 943.525 549.055 948.25C549.055 952.795 552.43 955.72 557.74 955.72C561.61 955.72 564.58 954.19 566.515 952.165C567.01 953.92 568.54 955.225 570.97 955.225C571.6 955.225 572.23 955.18 572.725 955V951.805H572.23ZM553.285 948.16C553.285 945.01 555.175 942.31 561.61 942.31H566.11V949.33L566.155 949.555C564.085 951.175 561.565 952.57 558.37 952.57C555.265 952.57 553.285 950.905 553.285 948.16ZM589.862 951.58C586.577 951.58 584.867 950.185 584.867 946.945V931.915H591.887V928.63H584.867V922.465H581.537L580.817 928.63H576.722V931.915H580.637V947.305C580.637 952.795 583.742 955.225 589.412 955.225C590.627 955.225 591.977 955.135 593.012 955V951.58H589.862ZM599.717 918.73V923.815H604.172V918.73H599.717ZM605.207 928.63H597.017V931.555L600.977 931.915V955H605.207V928.63ZM625.959 955L635.364 928.63H630.954L623.529 951.85L616.104 928.63H611.739L621.144 955H625.959ZM663.482 941.455C663.482 932.59 658.982 927.865 651.827 927.865C644.942 927.865 639.632 932.68 639.632 941.77C639.632 950.77 644.267 955.72 651.782 955.72C657.497 955.72 661.547 952.75 663.167 947.71H659.027C657.677 950.725 655.292 952.39 651.782 952.39C647.057 952.39 644.222 949.42 643.952 942.67H663.482V941.455ZM643.952 939.925C644.357 934.525 647.012 931.105 651.827 931.105C656.552 931.105 659.027 934.255 659.297 939.925H643.952Z" fill="#212B37"/>
<path d="M1259.08 955V939.655H1276.4V955H1280.81V922.015H1276.4V935.965H1259.08V922.015H1254.71V955H1259.08ZM1306.88 948.16C1305.08 950.32 1302.69 952.255 1299.5 952.255C1295.99 952.255 1294.14 950.185 1294.14 945.55V928.63H1289.91V945.73C1289.91 951.625 1292.84 955.72 1298.6 955.72C1302.29 955.72 1304.99 954.055 1307.24 951.22L1308 955H1311.11V928.63H1306.88V948.16ZM1348.63 927.865C1344.89 927.865 1342.24 929.845 1340.03 932.635C1338.77 929.71 1336.3 927.865 1332.61 927.865C1329.19 927.865 1326.71 929.53 1324.6 932.32L1323.83 928.63H1320.73V955H1324.96V935.335C1326.71 933.175 1328.87 931.33 1331.84 931.33C1335.35 931.33 1336.75 933.805 1336.75 938.125V955H1340.98V937.855C1340.98 937 1340.93 936.235 1340.8 935.47C1342.6 933.31 1344.76 931.33 1347.86 931.33C1351.42 931.33 1352.77 933.85 1352.77 938.125V955H1357V937.855C1357 932.05 1354.25 927.865 1348.63 927.865ZM1378.9 927.865C1375.48 927.865 1372.78 929.035 1370.57 931.51V920.665H1366.34V955H1369.45L1370.08 951.985C1372.1 954.235 1374.71 955.72 1378.31 955.72C1385.42 955.72 1390.51 950.23 1390.51 941.455C1390.51 933.22 1385.83 927.865 1378.9 927.865ZM1378 952.345C1374.85 952.345 1372.42 950.86 1370.57 948.925V934.75C1372.51 932.905 1374.98 931.285 1378.31 931.285C1382.95 931.285 1386.23 934.57 1386.23 941.455C1386.23 949.24 1382.41 952.345 1378 952.345ZM1407.15 951.49C1404.32 951.49 1402.38 950.275 1402.38 946.9V920.665H1398.15V947.53C1398.11 953.2 1401.8 955.225 1406.39 955.225C1407.6 955.225 1408.46 955.135 1409.63 955V951.49H1407.15ZM1437.48 941.455C1437.48 932.59 1432.98 927.865 1425.82 927.865C1418.94 927.865 1413.63 932.68 1413.63 941.77C1413.63 950.77 1418.26 955.72 1425.78 955.72C1431.49 955.72 1435.54 952.75 1437.16 947.71H1433.02C1431.67 950.725 1429.29 952.39 1425.78 952.39C1421.05 952.39 1418.22 949.42 1417.95 942.67H1437.48V941.455ZM1417.95 939.925C1418.35 934.525 1421.01 931.105 1425.82 931.105C1430.55 931.105 1433.02 934.255 1433.29 939.925H1417.95ZM1470.59 955.72C1478.69 955.72 1483.28 951.265 1483.28 943.255V922.015H1478.92V942.67C1478.92 949.015 1476.13 951.985 1470.59 951.985C1465.1 951.985 1462.31 949.015 1462.31 942.67V922.015H1457.95V943.255C1457.95 951.265 1462.54 955.72 1470.59 955.72ZM1496.29 955V922.015H1491.93V955H1496.29Z" fill="#212B37"/>
<path d="M1158 453.7C1158 443.304 1158 438.106 1160.02 434.135C1161.8 430.643 1164.64 427.803 1168.14 426.023C1172.11 424 1177.3 424 1187.7 424H1227.3C1237.7 424 1242.89 424 1246.86 426.023C1250.36 427.803 1253.2 430.643 1254.98 434.135C1257 438.106 1257 443.304 1257 453.7V493.3C1257 503.696 1257 508.894 1254.98 512.865C1253.2 516.357 1250.36 519.197 1246.86 520.977C1242.89 523 1237.7 523 1227.3 523H1187.7C1177.3 523 1172.11 523 1168.14 520.977C1164.64 519.197 1161.8 516.357 1160.02 512.865C1158 508.894 1158 503.696 1158 493.3V453.7Z" fill="#0080FF"/>
<path fill-rule="evenodd" clip-rule="evenodd" d="M1239.98 442.563C1243.4 445.126 1244.09 449.974 1241.53 453.391L1204.41 502.891C1202.95 504.839 1200.65 505.985 1198.22 505.985C1195.78 505.985 1193.49 504.839 1192.03 502.891L1173.47 478.141C1170.91 474.724 1171.6 469.876 1175.02 467.313C1178.43 464.75 1183.28 465.443 1185.84 468.86L1198.22 485.36L1229.16 444.11C1231.72 440.693 1236.57 440 1239.98 442.563Z" fill="white"/>
<path d="M302 355.7C302 345.304 302 340.106 304.023 336.135C305.803 332.643 308.643 329.803 312.135 328.023C316.106 326 321.304 326 331.7 326H371.3C381.696 326 386.894 326 390.865 328.023C394.357 329.803 397.197 332.643 398.977 336.135C401 340.106 401 345.304 401 355.7V395.3C401 405.696 401 410.894 398.977 414.865C397.197 418.357 394.357 421.197 390.865 422.977C386.894 425 381.696 425 371.3 425H331.7C321.304 425 316.106 425 312.135 422.977C308.643 421.197 305.803 418.357 304.023 414.865C302 410.894 302 405.696 302 395.3V355.7Z" fill="#0080FF"/>
<path fill-rule="evenodd" clip-rule="evenodd" d="M383.985 344.563C387.402 347.126 388.095 351.974 385.532 355.391L348.407 404.891C346.946 406.839 344.654 407.985 342.219 407.985C339.785 407.985 337.492 406.839 336.032 404.891L317.469 380.141C314.906 376.724 315.599 371.876 319.016 369.313C322.433 366.75 327.281 367.443 329.844 370.86L342.219 387.36L373.157 346.11C375.72 342.693 380.568 342 383.985 344.563Z" fill="white"/>
<path d="M302 520.7C302 510.304 302 505.106 304.023 501.135C305.803 497.643 308.643 494.803 312.135 493.023C316.106 491 321.304 491 331.7 491H371.3C381.696 491 386.894 491 390.865 493.023C394.357 494.803 397.197 497.643 398.977 501.135C401 505.106 401 510.304 401 520.7V560.3C401 570.696 401 575.894 398.977 579.865C397.197 583.357 394.357 586.197 390.865 587.977C386.894 590 381.696 590 371.3 590H331.7C321.304 590 316.106 590 312.135 587.977C308.643 586.197 305.803 583.357 304.023 579.865C302 575.894 302 570.696 302 560.3V520.7Z" fill="#0080FF"/>
<path fill-rule="evenodd" clip-rule="evenodd" d="M383.985 509.563C387.402 512.126 388.095 516.974 385.532 520.391L348.407 569.891C346.946 571.839 344.654 572.985 342.219 572.985C339.785 572.985 337.492 571.839 336.032 569.891L317.469 545.141C314.906 541.724 315.599 536.876 319.016 534.313C322.433 531.75 327.281 532.443 329.844 535.86L342.219 552.36L373.157 511.11C375.72 507.693 380.568 507 383.985 509.563Z" fill="white"/>
<path d="M302 193.7C302 183.304 302 178.106 304.023 174.135C305.803 170.643 308.643 167.803 312.135 166.023C316.106 164 321.304 164 331.7 164H371.3C381.696 164 386.894 164 390.865 166.023C394.357 167.803 397.197 170.643 398.977 174.135C401 178.106 401 183.304 401 193.7V233.3C401 243.696 401 248.894 398.977 252.865C397.197 256.357 394.357 259.197 390.865 260.977C386.894 263 381.696 263 371.3 263H331.7C321.304 263 316.106 263 312.135 260.977C308.643 259.197 305.803 256.357 304.023 252.865C302 248.894 302 243.696 302 233.3V193.7Z" fill="#0080FF"/>
<path fill-rule="evenodd" clip-rule="evenodd" d="M383.985 182.563C387.402 185.126 388.095 189.974 385.532 193.391L348.407 242.891C346.946 244.839 344.654 245.985 342.219 245.985C339.785 245.985 337.492 244.839 336.032 242.891L317.469 218.141C314.906 214.724 315.599 209.876 319.016 207.313C322.433 204.75 327.281 205.443 329.844 208.86L342.219 225.36L373.157 184.11C375.72 180.693 380.568 180 383.985 182.563Z" fill="white"/>
<path d="M302 693.7C302 683.304 302 678.106 304.023 674.135C305.803 670.643 308.643 667.803 312.135 666.023C316.106 664 321.304 664 331.7 664H371.3C381.696 664 386.894 664 390.865 666.023C394.357 667.803 397.197 670.643 398.977 674.135C401 678.106 401 683.304 401 693.7V733.3C401 743.696 401 748.894 398.977 752.865C397.197 756.357 394.357 759.197 390.865 760.977C386.894 763 381.696 763 371.3 763H331.7C321.304 763 316.106 763 312.135 760.977C308.643 759.197 305.803 756.357 304.023 752.865C302 748.894 302 743.696 302 733.3V693.7Z" fill="#0080FF"/>
<path fill-rule="evenodd" clip-rule="evenodd" d="M383.985 682.563C387.402 685.126 388.095 689.974 385.532 693.391L348.407 742.891C346.946 744.839 344.654 745.985 342.219 745.985C339.785 745.985 337.492 744.839 336.032 742.891L317.469 718.141C314.906 714.724 315.599 709.876 319.016 707.313C322.433 704.75 327.281 705.443 329.844 708.86L342.219 725.36L373.157 684.11C375.72 680.693 380.568 680 383.985 682.563Z" fill="white"/>
</svg>
