<svg width="1920" height="1080" viewBox="0 0 1920 1080" fill="none" xmlns="http://www.w3.org/2000/svg">
<rect width="1920" height="1080" fill="white"/>
<path d="M529.993 531V520.8H485.233V443.04H473.593V531H529.993ZM603.958 522.48C600.118 522.48 598.918 520.08 598.918 515.64V482.04C598.918 467.64 590.278 458.64 572.758 458.64C557.518 458.64 545.878 466.68 545.038 479.4H556.078C556.918 471.6 563.518 467.16 572.758 467.16C582.718 467.16 587.638 472.32 587.638 481.44V489.72L573.958 489.84C549.718 490.08 542.158 500.4 542.158 513C542.158 525.12 551.158 532.92 565.318 532.92C575.638 532.92 583.558 528.84 588.718 523.44C590.038 528.12 594.118 531.6 600.598 531.6C602.278 531.6 603.958 531.48 605.278 531V522.48H603.958ZM553.438 512.76C553.438 504.36 558.478 497.16 575.638 497.16H587.638V515.88L587.758 516.48C582.238 520.8 575.518 524.52 566.998 524.52C558.718 524.52 553.438 520.08 553.438 512.76ZM658.144 458.64C649.024 458.64 641.824 461.76 635.944 468.36V439.44H624.664V531H632.944L634.624 522.96C640.024 528.96 646.984 532.92 656.584 532.92C675.544 532.92 689.104 518.28 689.104 494.88C689.104 472.92 676.624 458.64 658.144 458.64ZM655.744 523.92C647.344 523.92 640.864 519.96 635.944 514.8V477C641.104 472.08 647.704 467.76 656.584 467.76C668.944 467.76 677.704 476.52 677.704 494.88C677.704 515.64 667.504 523.92 655.744 523.92ZM769.014 494.88C769.014 471.24 757.014 458.64 737.934 458.64C719.574 458.64 705.414 471.48 705.414 495.72C705.414 519.72 717.774 532.92 737.814 532.92C753.054 532.92 763.854 525 768.174 511.56H757.134C753.534 519.6 747.174 524.04 737.814 524.04C725.214 524.04 717.654 516.12 716.934 498.12H769.014V494.88ZM716.934 490.8C718.014 476.4 725.094 467.28 737.934 467.28C750.534 467.28 757.134 475.68 757.854 490.8H716.934ZM813.416 521.64C805.856 521.64 800.696 518.4 800.696 509.4V439.44H789.416V511.08C789.296 526.2 799.136 531.6 811.376 531.6C814.616 531.6 816.896 531.36 820.016 531V521.64H813.416Z" fill="#212B37"/>
<path d="M1510.99 491V480.8H1466.23V403.04H1454.59V491H1510.99ZM1584.96 482.48C1581.12 482.48 1579.92 480.08 1579.92 475.64V442.04C1579.92 427.64 1571.28 418.64 1553.76 418.64C1538.52 418.64 1526.88 426.68 1526.04 439.4H1537.08C1537.92 431.6 1544.52 427.16 1553.76 427.16C1563.72 427.16 1568.64 432.32 1568.64 441.44V449.72L1554.96 449.84C1530.72 450.08 1523.16 460.4 1523.16 473C1523.16 485.12 1532.16 492.92 1546.32 492.92C1556.64 492.92 1564.56 488.84 1569.72 483.44C1571.04 488.12 1575.12 491.6 1581.6 491.6C1583.28 491.6 1584.96 491.48 1586.28 491V482.48H1584.96ZM1534.44 472.76C1534.44 464.36 1539.48 457.16 1556.64 457.16H1568.64V475.88L1568.76 476.48C1563.24 480.8 1556.52 484.52 1548 484.52C1539.72 484.52 1534.44 480.08 1534.44 472.76ZM1639.14 418.64C1630.02 418.64 1622.82 421.76 1616.94 428.36V399.44H1605.66V491H1613.94L1615.62 482.96C1621.02 488.96 1627.98 492.92 1637.58 492.92C1656.54 492.92 1670.1 478.28 1670.1 454.88C1670.1 432.92 1657.62 418.64 1639.14 418.64ZM1636.74 483.92C1628.34 483.92 1621.86 479.96 1616.94 474.8V437C1622.1 432.08 1628.7 427.76 1637.58 427.76C1649.94 427.76 1658.7 436.52 1658.7 454.88C1658.7 475.64 1648.5 483.92 1636.74 483.92ZM1750.01 454.88C1750.01 431.24 1738.01 418.64 1718.93 418.64C1700.57 418.64 1686.41 431.48 1686.41 455.72C1686.41 479.72 1698.77 492.92 1718.81 492.92C1734.05 492.92 1744.85 485 1749.17 471.56H1738.13C1734.53 479.6 1728.17 484.04 1718.81 484.04C1706.21 484.04 1698.65 476.12 1697.93 458.12H1750.01V454.88ZM1697.93 450.8C1699.01 436.4 1706.09 427.28 1718.93 427.28C1731.53 427.28 1738.13 435.68 1738.85 450.8H1697.93ZM1794.42 481.64C1786.86 481.64 1781.7 478.4 1781.7 469.4V399.44H1770.42V471.08C1770.3 486.2 1780.14 491.6 1792.38 491.6C1795.62 491.6 1797.9 491.36 1801.02 491V481.64H1794.42Z" fill="#212B37"/>
<path d="M377.253 248L384.813 218.66L392.328 248H397.053L405.918 215.015H401.463L394.623 243.635L387.243 215.015H382.293L374.958 243.635L368.073 215.015H363.618L372.483 248H377.253ZM432.752 234.455C432.752 225.59 428.252 220.865 421.097 220.865C414.212 220.865 408.902 225.68 408.902 234.77C408.902 243.77 413.537 248.72 421.052 248.72C426.767 248.72 430.817 245.75 432.437 240.71H428.297C426.947 243.725 424.562 245.39 421.052 245.39C416.327 245.39 413.492 242.42 413.222 235.67H432.752V234.455ZM413.222 232.925C413.627 227.525 416.282 224.105 421.097 224.105C425.822 224.105 428.297 227.255 428.567 232.925H413.222ZM453.183 220.865C449.763 220.865 447.063 222.035 444.858 224.51V213.665H440.628V248H443.733L444.363 244.985C446.388 247.235 448.998 248.72 452.598 248.72C459.708 248.72 464.793 243.23 464.793 234.455C464.793 226.22 460.113 220.865 453.183 220.865ZM452.283 245.345C449.133 245.345 446.703 243.86 444.858 241.925V227.75C446.793 225.905 449.268 224.285 452.598 224.285C457.233 224.285 460.518 227.57 460.518 234.455C460.518 242.24 456.693 245.345 452.283 245.345ZM487.019 214.205H483.149L469.289 248.81H473.114L487.019 214.205ZM497.188 248L496.918 220.685L513.748 248H518.653V215.015H514.513L514.783 242.33L497.998 215.015H493.048V248H497.188ZM549.23 244.805C547.79 244.805 547.34 243.905 547.34 242.24V229.64C547.34 224.24 544.1 220.865 537.53 220.865C531.815 220.865 527.45 223.88 527.135 228.65H531.275C531.59 225.725 534.065 224.06 537.53 224.06C541.265 224.06 543.11 225.995 543.11 229.415V232.52L537.98 232.565C528.89 232.655 526.055 236.525 526.055 241.25C526.055 245.795 529.43 248.72 534.74 248.72C538.61 248.72 541.58 247.19 543.515 245.165C544.01 246.92 545.54 248.225 547.97 248.225C548.6 248.225 549.23 248.18 549.725 248V244.805H549.23ZM530.285 241.16C530.285 238.01 532.175 235.31 538.61 235.31H543.11V242.33L543.155 242.555C541.085 244.175 538.565 245.57 535.37 245.57C532.265 245.57 530.285 243.905 530.285 241.16ZM566.862 244.58C563.577 244.58 561.867 243.185 561.867 239.945V224.915H568.887V221.63H561.867V215.465H558.537L557.817 221.63H553.722V224.915H557.637V240.305C557.637 245.795 560.742 248.225 566.412 248.225C567.627 248.225 568.977 248.135 570.012 248V244.58H566.862ZM576.717 211.73V216.815H581.172V211.73H576.717ZM582.207 221.63H574.017V224.555L577.977 224.915V248H582.207V221.63ZM602.959 248L612.364 221.63H607.954L600.529 244.85L593.104 221.63H588.739L598.144 248H602.959ZM640.482 234.455C640.482 225.59 635.982 220.865 628.827 220.865C621.942 220.865 616.632 225.68 616.632 234.77C616.632 243.77 621.267 248.72 628.782 248.72C634.497 248.72 638.547 245.75 640.167 240.71H636.027C634.677 243.725 632.292 245.39 628.782 245.39C624.057 245.39 621.222 242.42 620.952 235.67H640.482V234.455ZM620.952 232.925C621.357 227.525 624.012 224.105 628.827 224.105C633.552 224.105 636.027 227.255 636.297 232.925H620.952Z" fill="#212B37"/>
<path d="M1242.08 248V232.655H1259.4V248H1263.81V215.015H1259.4V228.965H1242.08V215.015H1237.71V248H1242.08ZM1289.88 241.16C1288.08 243.32 1285.69 245.255 1282.5 245.255C1278.99 245.255 1277.14 243.185 1277.14 238.55V221.63H1272.91V238.73C1272.91 244.625 1275.84 248.72 1281.6 248.72C1285.29 248.72 1287.99 247.055 1290.24 244.22L1291 248H1294.11V221.63H1289.88V241.16ZM1331.63 220.865C1327.89 220.865 1325.24 222.845 1323.03 225.635C1321.77 222.71 1319.3 220.865 1315.61 220.865C1312.19 220.865 1309.71 222.53 1307.6 225.32L1306.83 221.63H1303.73V248H1307.96V228.335C1309.71 226.175 1311.87 224.33 1314.84 224.33C1318.35 224.33 1319.75 226.805 1319.75 231.125V248H1323.98V230.855C1323.98 230 1323.93 229.235 1323.8 228.47C1325.6 226.31 1327.76 224.33 1330.86 224.33C1334.42 224.33 1335.77 226.85 1335.77 231.125V248H1340V230.855C1340 225.05 1337.25 220.865 1331.63 220.865ZM1361.9 220.865C1358.48 220.865 1355.78 222.035 1353.57 224.51V213.665H1349.34V248H1352.45L1353.08 244.985C1355.1 247.235 1357.71 248.72 1361.31 248.72C1368.42 248.72 1373.51 243.23 1373.51 234.455C1373.51 226.22 1368.83 220.865 1361.9 220.865ZM1361 245.345C1357.85 245.345 1355.42 243.86 1353.57 241.925V227.75C1355.51 225.905 1357.98 224.285 1361.31 224.285C1365.95 224.285 1369.23 227.57 1369.23 234.455C1369.23 242.24 1365.41 245.345 1361 245.345ZM1390.15 244.49C1387.32 244.49 1385.38 243.275 1385.38 239.9V213.665H1381.15V240.53C1381.11 246.2 1384.8 248.225 1389.39 248.225C1390.6 248.225 1391.46 248.135 1392.63 248V244.49H1390.15ZM1420.48 234.455C1420.48 225.59 1415.98 220.865 1408.82 220.865C1401.94 220.865 1396.63 225.68 1396.63 234.77C1396.63 243.77 1401.26 248.72 1408.78 248.72C1414.49 248.72 1418.54 245.75 1420.16 240.71H1416.02C1414.67 243.725 1412.29 245.39 1408.78 245.39C1404.05 245.39 1401.22 242.42 1400.95 235.67H1420.48V234.455ZM1400.95 232.925C1401.35 227.525 1404.01 224.105 1408.82 224.105C1413.55 224.105 1416.02 227.255 1416.29 232.925H1400.95ZM1453.59 248.72C1461.69 248.72 1466.28 244.265 1466.28 236.255V215.015H1461.92V235.67C1461.92 242.015 1459.13 244.985 1453.59 244.985C1448.1 244.985 1445.31 242.015 1445.31 235.67V215.015H1440.95V236.255C1440.95 244.265 1445.54 248.72 1453.59 248.72ZM1479.29 248V215.015H1474.93V248H1479.29Z" fill="#212B37"/>
<g clip-path="url(#clip0_32_605)">
<rect width="413" height="676" transform="translate(1 403)" fill="white"/>
<rect x="1" y="403" width="413" height="676" fill="#5F6B47"/>
<path d="M1 419.5C145 419.5 324 435 414 481V1079H1V419.5Z" fill="#7B8853"/>
<path d="M1 446.5C179.5 446.5 328.863 496.573 414 553V1079H1V446.5Z" fill="#8F9B69"/>
<path d="M1 498C179.5 498 328.863 556.573 414 613V1079H1V498Z" fill="#97A069"/>
<path d="M1 607.5C179.5 607.5 328.863 666.073 414 722.5V1079H1V607.5Z" fill="#A5A66A"/>
<circle cx="391" cy="749" r="115" fill="#9F9854"/>
<path d="M120 689.5C120 648.907 152.907 616 193.5 616C234.093 616 267 648.907 267 689.5C266.015 710.731 269.252 720.774 280.5 736C280.5 776.593 234.093 805 193.5 805C152.907 805 120 772.093 120 731.5V689.5Z" fill="#667651"/>
<rect x="1" y="737" width="413" height="342" fill="#77885C"/>
<circle cx="169" cy="776" r="39" fill="#4E5641"/>
<circle cx="239" cy="784" r="39" fill="#4E5641"/>
<circle cx="328" cy="800" r="59" fill="#4E5641"/>
<circle cx="419" cy="800" r="59" fill="#4E5641"/>
<rect x="125" y="775" width="289" height="103" fill="#4E5641"/>
<rect x="1" y="878" width="413" height="201" fill="#6B6C4C"/>
<path d="M248 972C248 916.772 292.772 872 348 872H414V1046H248V972Z" fill="#A9904D"/>
<rect x="313" y="1044" width="101" height="35" fill="#90543C"/>
<circle cx="218" cy="961" r="30" fill="#4B4225"/>
<circle cx="335" cy="1010" r="16" fill="#5B5346"/>
<circle cx="358" cy="1009" r="12" fill="#5B5346"/>
<circle cx="378" cy="1010" r="11" fill="#5B5346"/>
<rect x="328" y="1004" width="50" height="17" fill="#5B5346"/>
<ellipse cx="247.5" cy="1223.5" rx="219.5" ry="234.5" fill="#824332"/>
<path d="M294 921.5H173C173 921.5 178.5 886 213 886C242.5 886 252.5 911 252.5 911C252.5 911 255.5 899.5 273 899.5C290.5 899.5 294 921.5 294 921.5Z" fill="#394328"/>
<path d="M141 635C130 621.5 124.985 612.248 110 604C130.055 710.827 140.115 773.894 110 1014.5L157.5 988.5C171.5 860 179.458 795.262 148.5 716.5C152 680 149 658.5 141 635Z" fill="#362828"/>
<circle cx="367" cy="937" r="47" fill="#665744"/>
<circle cx="422.5" cy="893.5" r="37.5" fill="#665744"/>
<circle cx="307.5" cy="944.5" r="13.5" fill="#665744"/>
<rect x="306" y="931" width="38" height="27" fill="#665744"/>
<rect x="208" y="965" width="149" height="19" fill="#7B6130"/>
<circle cx="271" cy="980" r="7" fill="#A9904D"/>
<circle cx="287.5" cy="980.5" r="8.5" fill="#A9904D"/>
<circle cx="309.5" cy="981.5" r="10.5" fill="#A9904D"/>
<path d="M56 812L137 884V1022H56V812Z" fill="#45201A"/>
<path d="M-17 848L67.5 854C73.5 902.5 85.0393 929.216 92 981.5C88.7127 1031.2 86.1088 1048.2 81.5 1079H-17V848Z" fill="#E0BB60"/>
<path d="M67.5 854C54 865 31.7688 869 12 869C8.2969 869 4.62837 868.847 1 868.545V843.5L67.5 746.5V854Z" fill="#957133"/>
<path d="M150 690.5C88 690.5 117.5 690.5 1 690.5C1 595.783 1 577 1 515.5C86.1058 514.882 138.5 563.5 150 690.5Z" fill="#4D2712"/>
<path d="M110 604C75.7825 557.424 51.2963 542.762 1.5 527V590L126.5 697.5L110 604Z" fill="#3B1B20"/>
<path d="M127.5 691C86.9036 640.336 67.6425 626.231 34.5 606L66.5 712L67.5 825.5C102.404 873.761 102 879 137 885L127.5 691Z" fill="#2F1C22"/>
<path d="M197 943C192.235 910.545 184.557 896.488 163.5 877.5L152 995.5L232 984C218.641 961.618 210.929 953.686 197 943Z" fill="#3B1B20"/>
<ellipse cx="-14.5" cy="709" rx="84.5" ry="137" fill="#C9A449"/>
<path d="M209.5 977.5C138.977 977.722 97.9285 1008.82 24 1079H320.5C294.5 1012 255 977.357 209.5 977.5Z" fill="#4B3528"/>
<path d="M226.634 1034C176.21 1034.1 146.859 1047.88 94 1079H316C297.41 1049.3 259.167 1033.94 226.634 1034Z" fill="#392727"/>
</g>
<g clip-path="url(#clip1_32_605)">
<rect width="413" height="676" transform="translate(982 403)" fill="white"/>
<rect x="982" y="403" width="413" height="676" fill="#5F6B47"/>
<path d="M982 419.5C1126 419.5 1305 435 1395 481V1079H982V419.5Z" fill="#7B8853"/>
<path d="M982 446.5C1160.5 446.5 1309.86 496.573 1395 553V1079H982V446.5Z" fill="#8F9B69"/>
<path d="M982 498C1160.5 498 1309.86 556.573 1395 613V1079H982V498Z" fill="#97A069"/>
<path d="M982 607.5C1160.5 607.5 1309.86 666.073 1395 722.5V1079H982V607.5Z" fill="#A5A66A"/>
<circle cx="1372" cy="749" r="115" fill="#9F9854"/>
<path d="M1101 689.5C1101 648.907 1133.91 616 1174.5 616C1215.09 616 1248 648.907 1248 689.5C1247.02 710.731 1250.25 720.774 1261.5 736C1261.5 776.593 1215.09 805 1174.5 805C1133.91 805 1101 772.093 1101 731.5V689.5Z" fill="#667651"/>
<rect x="982" y="737" width="413" height="342" fill="#77885C"/>
<circle cx="1150" cy="776" r="39" fill="#4E5641"/>
<circle cx="1220" cy="784" r="39" fill="#4E5641"/>
<circle cx="1309" cy="800" r="59" fill="#4E5641"/>
<circle cx="1400" cy="800" r="59" fill="#4E5641"/>
<rect x="1106" y="775" width="289" height="103" fill="#4E5641"/>
<rect x="982" y="878" width="413" height="201" fill="#6B6C4C"/>
<path d="M1229 972C1229 916.772 1273.77 872 1329 872H1395V1046H1229V972Z" fill="#A9904D"/>
<rect x="1294" y="1044" width="101" height="35" fill="#90543C"/>
<circle cx="1199" cy="961" r="30" fill="#4B4225"/>
<circle cx="1316" cy="1010" r="16" fill="#5B5346"/>
<circle cx="1339" cy="1009" r="12" fill="#5B5346"/>
<circle cx="1359" cy="1010" r="11" fill="#5B5346"/>
<rect x="1309" y="1004" width="50" height="17" fill="#5B5346"/>
<ellipse cx="1228.5" cy="1223.5" rx="219.5" ry="234.5" fill="#824332"/>
<path d="M1275 921.5H1154C1154 921.5 1159.5 886 1194 886C1223.5 886 1233.5 911 1233.5 911C1233.5 911 1236.5 899.5 1254 899.5C1271.5 899.5 1275 921.5 1275 921.5Z" fill="#394328"/>
<path d="M1122 635C1111 621.5 1105.98 612.248 1091 604C1111.06 710.827 1121.12 773.894 1091 1014.5L1138.5 988.5C1152.5 860 1160.46 795.262 1129.5 716.5C1133 680 1130 658.5 1122 635Z" fill="#362828"/>
<circle cx="1348" cy="937" r="47" fill="#665744"/>
<circle cx="1403.5" cy="893.5" r="37.5" fill="#665744"/>
<circle cx="1288.5" cy="944.5" r="13.5" fill="#665744"/>
<rect x="1287" y="931" width="38" height="27" fill="#665744"/>
<rect x="1189" y="965" width="149" height="19" fill="#7B6130"/>
<circle cx="1252" cy="980" r="7" fill="#A9904D"/>
<circle cx="1268.5" cy="980.5" r="8.5" fill="#A9904D"/>
<circle cx="1290.5" cy="981.5" r="10.5" fill="#A9904D"/>
<path d="M1037 812L1118 884V1022H1037V812Z" fill="#45201A"/>
<path d="M964 848L1048.5 854C1054.5 902.5 1066.04 929.216 1073 981.5C1069.71 1031.2 1067.11 1048.2 1062.5 1079H964V848Z" fill="#E0BB60"/>
<path d="M1048.5 854C1035 865 1012.77 869 993 869C989.297 869 985.628 868.847 982 868.545V843.5L1048.5 746.5V854Z" fill="#957133"/>
<path d="M1131 690.5C1069 690.5 1098.5 690.5 982 690.5C982 595.783 982 577 982 515.5C1067.11 514.882 1119.5 563.5 1131 690.5Z" fill="#4D2712"/>
<path d="M1091 604C1056.78 557.424 1032.3 542.762 982.5 527V590L1107.5 697.5L1091 604Z" fill="#3B1B20"/>
<path d="M1108.5 691C1067.9 640.336 1048.64 626.231 1015.5 606L1047.5 712L1048.5 825.5C1083.4 873.761 1083 879 1118 885L1108.5 691Z" fill="#2F1C22"/>
<path d="M1178 943C1173.23 910.545 1165.56 896.488 1144.5 877.5L1133 995.5L1213 984C1199.64 961.618 1191.93 953.686 1178 943Z" fill="#3B1B20"/>
<ellipse cx="966.5" cy="709" rx="84.5" ry="137" fill="#C9A449"/>
<path d="M1190.5 977.5C1119.98 977.722 1078.93 1008.82 1005 1079H1301.5C1275.5 1012 1236 977.357 1190.5 977.5Z" fill="#4B3528"/>
<path d="M1207.63 1034C1157.21 1034.1 1127.86 1047.88 1075 1079H1297C1278.41 1049.3 1240.17 1033.94 1207.63 1034Z" fill="#392727"/>
</g>
<defs>
<clipPath id="clip0_32_605">
<rect width="413" height="676" fill="white" transform="translate(1 403)"/>
</clipPath>
<clipPath id="clip1_32_605">
<rect width="413" height="676" fill="white" transform="translate(982 403)"/>
</clipPath>
</defs>
</svg>
