<svg width="1920" height="1080" viewBox="0 0 1920 1080" fill="none" xmlns="http://www.w3.org/2000/svg">
<rect width="1920" height="1080" fill="white"/>
<path d="M701 522C701 499.598 701 488.397 705.36 479.84C709.195 472.314 715.314 466.195 722.84 462.36C731.397 458 742.598 458 765 458H1154C1176.4 458 1187.6 458 1196.16 462.36C1203.69 466.195 1209.81 472.314 1213.64 479.84C1218 488.397 1218 499.598 1218 522V557C1218 579.402 1218 590.603 1213.64 599.16C1209.81 606.686 1203.69 612.805 1196.16 616.64C1187.6 621 1176.4 621 1154 621H765C742.598 621 731.397 621 722.84 616.64C715.314 612.805 709.195 606.686 705.36 599.16C701 590.603 701 579.402 701 557V522Z" fill="#2C80EB"/>
<path d="M917.4 587.92C941.04 587.92 958.92 571.96 958.92 541.96C958.92 512.2 941.04 496.12 917.4 496.12C893.76 496.12 875.88 512.2 875.88 541.96C875.88 571.96 893.76 587.92 917.4 587.92ZM917.4 577.96C900.48 577.96 887.76 566.08 887.76 541.96C887.76 517.96 900.48 506.08 917.4 506.08C934.44 506.08 947.04 517.96 947.04 541.96C947.04 566.08 934.44 577.96 917.4 577.96ZM1049.52 586L1012.8 534.28L1048.92 498.04H1035.12L991.201 542.44V498.04H979.561V586H991.201V555.64L1005.12 541.72L1035.48 586H1049.52Z" fill="white"/>
</svg>
