<svg width="1920" height="1080" viewBox="0 0 1920 1080" fill="none" xmlns="http://www.w3.org/2000/svg">
<path d="M874.196 341.243C794.944 326.809 729.925 340.55 704.834 384.01C686.218 416.254 692.757 459.352 718.661 504.532" stroke="#AFE8F7" stroke-width="20" stroke-linecap="round"/>
<path d="M761.617 562.46C794.407 598.494 837.862 633.494 889.082 663.065C1011.18 733.557 1137.93 750.418 1198.12 709.375" stroke="#AFE8F7" stroke-width="20" stroke-linecap="round"/>
<path d="M1224.55 722.64C1242.72 722.64 1257.46 707.904 1257.46 689.727C1257.46 671.549 1242.72 656.813 1224.55 656.813C1206.37 656.813 1191.63 671.549 1191.63 689.727C1191.63 707.904 1206.37 722.64 1224.55 722.64Z" stroke="#AFE8F7" stroke-width="20" stroke-linecap="round"/>
<path d="M1175.81 552.124C1227.7 490.828 1248.17 427.821 1223.13 384.452C1204.82 352.736 1165.24 336.847 1114.39 336.186" stroke="#AFE8F7" stroke-width="20" stroke-linecap="round"/>
<path d="M1041.66 344.084C993.666 354.368 941.082 374.611 889.335 404.487C763.637 477.059 684.698 582.326 695.411 655.324" stroke="#AFE8F7" stroke-width="20" stroke-linecap="round"/>
<path d="M703.914 722.64C722.091 722.64 736.827 707.904 736.827 689.727C736.827 671.549 722.091 656.813 703.914 656.813C685.736 656.813 671 671.549 671 689.727C671 707.904 685.736 722.64 703.914 722.64Z" stroke="#AFE8F7" stroke-width="20" stroke-linecap="round"/>
<path d="M842.449 707.963C869.58 783.721 913.962 833.087 964.109 833.087C1000.45 833.087 1033.76 807.162 1059.68 764.055" stroke="#AFE8F7" stroke-width="20" stroke-linecap="round"/>
<path d="M1090.97 692.451C1105.34 646.507 1113.65 592.193 1113.65 533.997C1113.65 391.176 1063.6 271.736 996.666 242.015" stroke="#AFE8F7" stroke-width="20" stroke-linecap="round"/>
<path d="M964.229 270.827C982.407 270.827 997.143 256.091 997.143 237.914C997.143 219.736 982.407 205 964.229 205C946.052 205 931.316 219.736 931.316 237.914C931.316 256.091 946.052 270.827 964.229 270.827Z" stroke="#AFE8F7" stroke-width="20" stroke-linecap="round"/>
<path d="M964.229 567.049C980.755 567.049 994.151 553.653 994.151 537.127C994.151 520.602 980.755 507.206 964.229 507.206C947.704 507.206 934.308 520.602 934.308 537.127C934.308 553.653 947.704 567.049 964.229 567.049Z" stroke="#AFE8F7" stroke-width="20" stroke-linecap="round"/>
<path d="M1233.32 856V851.2H1209.92V835.48H1231.34V830.68H1209.92V816.82H1233.02V812.02H1204.1V856H1233.32ZM1255.66 851.32C1251.88 851.32 1249.3 849.7 1249.3 845.2V810.22H1243.66V846.04C1243.6 853.6 1248.52 856.3 1254.64 856.3C1256.26 856.3 1257.4 856.18 1258.96 856V851.32H1255.66ZM1296.09 837.94C1296.09 826.12 1290.09 819.82 1280.55 819.82C1271.37 819.82 1264.29 826.24 1264.29 838.36C1264.29 850.36 1270.47 856.96 1280.49 856.96C1288.11 856.96 1293.51 853 1295.67 846.28H1290.15C1288.35 850.3 1285.17 852.52 1280.49 852.52C1274.19 852.52 1270.41 848.56 1270.05 839.56H1296.09V837.94ZM1270.05 835.9C1270.59 828.7 1274.13 824.14 1280.55 824.14C1286.85 824.14 1290.15 828.34 1290.51 835.9H1270.05ZM1320.63 856.96C1328.07 856.96 1333.83 853.12 1335.45 846.28H1329.81C1328.49 850.36 1324.89 852.46 1320.63 852.46C1314.33 852.46 1309.89 847.78 1309.89 838.48C1309.89 829.3 1314.45 824.38 1320.81 824.38C1326.03 824.38 1328.37 826.78 1329.63 830.2H1335.27C1333.83 824.02 1329.21 819.82 1320.81 819.82C1310.97 819.82 1304.25 826.84 1304.25 838.48C1304.25 850.3 1310.61 856.96 1320.63 856.96ZM1359.3 851.44C1354.92 851.44 1352.64 849.58 1352.64 845.26V825.22H1362V820.84H1352.64V812.62H1348.2L1347.24 820.84H1341.78V825.22H1347V845.74C1347 853.06 1351.14 856.3 1358.7 856.3C1360.32 856.3 1362.12 856.18 1363.5 856V851.44H1359.3ZM1390.08 820.72C1385.7 820.72 1381.8 823.6 1379.64 827.86L1378.26 820.84H1368.84V824.74L1374.12 825.22V856H1379.76V832.96C1381.92 828.22 1385.76 827.02 1389.96 827.02H1392.36V820.84C1391.82 820.78 1391.1 820.72 1390.08 820.72ZM1413.98 856.96C1423.52 856.96 1430.84 850.36 1430.84 838.48C1430.84 826.48 1423.46 819.82 1413.98 819.82C1404.56 819.82 1397.18 826.42 1397.18 838.48C1397.18 850.36 1404.44 856.96 1413.98 856.96ZM1413.98 852.46C1407.62 852.46 1402.82 847.66 1402.82 838.48C1402.82 829.18 1407.62 824.38 1413.98 824.38C1420.4 824.38 1425.2 829.18 1425.2 838.48C1425.2 847.66 1420.4 852.46 1413.98 852.46ZM1458.1 819.82C1453.12 819.82 1449.46 822.04 1446.58 825.82L1445.5 820.84H1441.36V856H1447V830.02C1449.46 826.96 1452.58 824.44 1456.96 824.44C1462.24 824.44 1464.28 827.86 1464.28 833.5V856H1469.92V833.14C1469.92 825.34 1466.02 819.82 1458.1 819.82Z" fill="#AFE8F7"/>
</svg>
