<svg width="1920" height="1080" viewBox="0 0 1920 1080" fill="none" xmlns="http://www.w3.org/2000/svg">
<rect width="1920" height="1080" fill="white"/>
<path d="M808 634.631C805.499 635.753 802.813 636.512 799.989 636.855C802.87 635.107 805.08 632.333 806.122 629.032C803.427 630.652 800.441 631.83 797.264 632.461C794.718 629.718 791.094 628 787.081 628C779.379 628 773.132 634.33 773.132 642.141C773.132 643.246 773.257 644.32 773.491 645.358C761.892 644.766 751.617 639.137 744.735 630.585C743.537 632.679 742.848 635.107 742.848 637.692C742.848 642.596 745.313 646.927 749.053 649.46C746.765 649.385 744.615 648.75 742.734 647.691V647.873C742.734 654.722 747.541 660.437 753.926 661.735C752.752 662.057 751.521 662.227 750.251 662.227C749.353 662.227 748.475 662.142 747.625 661.978C749.401 667.592 754.552 671.683 760.658 671.792C755.881 675.585 749.865 677.846 743.33 677.846C742.204 677.846 741.093 677.779 740 677.649C746.175 681.663 753.507 684 761.383 684C787.048 684 801.079 662.461 801.079 643.78C801.079 643.173 801.064 642.56 801.037 641.953C803.762 639.956 806.128 637.471 807.994 634.64L808 634.631Z" fill="#1D9BF0"/>
<path d="M866.467 642.82C861.487 642.82 857.827 645.04 854.947 648.82L853.867 643.84H849.727V679H855.367V653.02C857.827 649.96 860.947 647.44 865.327 647.44C870.607 647.44 872.647 650.86 872.647 656.5V679H878.287V656.14C878.287 648.34 874.387 642.82 866.467 642.82ZM890.202 630.64V637.42H896.142V630.64H890.202ZM897.522 643.84H886.602V647.74L891.882 648.22V679H897.522V643.84ZM939.531 679L925.011 657.76L938.931 643.84H932.271L915.951 660.76V633.22H910.371V679H915.951V666.82L921.531 661.24L933.291 679H939.531ZM947.448 630.64V637.42H953.388V630.64H947.448ZM954.768 643.84H943.848V647.74L949.128 648.22V679H954.768V643.84ZM981.417 674.44C977.037 674.44 974.757 672.58 974.757 668.26V648.22H984.117V643.84H974.757V635.62H970.317L969.357 643.84H963.897V648.22H969.117V668.74C969.117 676.06 973.257 679.3 980.817 679.3C982.437 679.3 984.237 679.18 985.617 679V674.44H981.417ZM1008.91 679.96C1018.45 679.96 1025.77 673.36 1025.77 661.48C1025.77 649.48 1018.39 642.82 1008.91 642.82C999.493 642.82 992.113 649.42 992.113 661.48C992.113 673.36 999.373 679.96 1008.91 679.96ZM1008.91 675.46C1002.55 675.46 997.753 670.66 997.753 661.48C997.753 652.18 1002.55 647.38 1008.91 647.38C1015.33 647.38 1020.13 652.18 1020.13 661.48C1020.13 670.66 1015.33 675.46 1008.91 675.46ZM1053.03 642.82C1048.05 642.82 1044.39 645.04 1041.51 648.82L1040.43 643.84H1036.29V679H1041.93V653.02C1044.39 649.96 1047.51 647.44 1051.89 647.44C1057.17 647.44 1059.21 650.86 1059.21 656.5V679H1064.85V656.14C1064.85 648.34 1060.95 642.82 1053.03 642.82ZM1089.18 679.96C1097.82 679.96 1102.8 675.7 1102.8 669.7C1102.8 663.64 1098.42 661.12 1092.96 659.68L1086.6 658C1083.66 657.16 1081.14 656.26 1081.14 652.6C1081.14 649.48 1083.78 647.14 1088.7 647.14C1093.5 647.14 1096.26 648.88 1096.68 653.2H1102.2C1101.54 646.24 1096.74 642.82 1088.7 642.82C1080.66 642.82 1075.5 647.08 1075.5 652.9C1075.5 658.84 1079.46 661.18 1084.32 662.44L1090.68 664.06C1095.24 665.26 1097.16 666.82 1097.16 669.82C1097.16 673.18 1094.64 675.64 1089.18 675.64C1083.54 675.64 1080.3 673.78 1079.7 669.28H1074.12C1074.84 676 1079.7 679.96 1089.18 679.96ZM1141.62 679L1127.1 657.76L1141.02 643.84H1134.36L1118.04 660.76V633.22H1112.46V679H1118.04V666.82L1123.62 661.24L1135.38 679H1141.62ZM1152.9 690.4C1159.2 690.4 1161.78 687.46 1163.46 682.72L1177.44 643.84H1171.68L1162.2 673.96L1151.7 643.84H1145.94L1159.38 678.88L1158.3 681.88C1157.16 685 1155 685.66 1152.54 685.66H1149.72V690.1C1150.56 690.28 1151.82 690.4 1152.9 690.4Z" fill="black"/>
<path fill-rule="evenodd" clip-rule="evenodd" d="M774 392C755.767 392 741 406.912 741 425.322C741 440.067 750.446 452.521 763.564 456.936C765.214 457.228 765.832 456.228 765.832 455.354C765.832 454.562 765.791 451.938 765.791 449.147C757.5 450.688 755.355 447.106 754.695 445.232C754.324 444.274 752.715 441.317 751.312 440.525C750.157 439.9 748.507 438.359 751.271 438.318C753.87 438.276 755.726 440.733 756.345 441.733C759.315 446.773 764.059 445.357 765.956 444.482C766.245 442.316 767.111 440.858 768.06 440.025C760.717 439.192 753.045 436.318 753.045 423.573C753.045 419.949 754.324 416.95 756.428 414.617C756.098 413.784 754.942 410.369 756.757 405.787C756.757 405.787 759.521 404.912 765.832 409.203C768.472 408.453 771.278 408.078 774.083 408.078C776.888 408.078 779.693 408.453 782.333 409.203C788.644 404.871 791.408 405.787 791.408 405.787C793.223 410.369 792.068 413.784 791.738 414.617C793.841 416.95 795.12 419.907 795.12 423.573C795.12 436.36 787.406 439.192 780.064 440.025C781.26 441.067 782.291 443.066 782.291 446.19C782.291 450.647 782.25 454.229 782.25 455.354C782.25 456.228 782.869 457.27 784.519 456.936C791.07 454.703 796.762 450.452 800.795 444.781C804.828 439.109 806.998 432.304 807 425.322C807 406.912 792.233 392 774 392Z" fill="black"/>
<path d="M866.529 410.82C861.789 410.82 858.309 412.86 855.429 416.28V401.22H849.789V447H855.429V421.02C857.889 417.96 861.009 415.44 865.389 415.44C870.669 415.44 872.709 418.86 872.709 424.5V447H878.349V424.14C878.349 416.34 874.449 410.82 866.529 410.82ZM913.065 437.88C910.665 440.76 907.485 443.34 903.225 443.34C898.545 443.34 896.085 440.58 896.085 434.4V411.84H890.445V434.64C890.445 442.5 894.345 447.96 902.025 447.96C906.945 447.96 910.545 445.74 913.545 441.96L914.565 447H918.705V411.84H913.065V437.88ZM968.727 410.82C963.747 410.82 960.207 413.46 957.267 417.18C955.587 413.28 952.287 410.82 947.367 410.82C942.807 410.82 939.507 413.04 936.687 416.76L935.667 411.84H931.527V447H937.167V420.78C939.507 417.9 942.387 415.44 946.347 415.44C951.027 415.44 952.887 418.74 952.887 424.5V447H958.527V424.14C958.527 423 958.467 421.98 958.287 420.96C960.687 418.08 963.567 415.44 967.707 415.44C972.447 415.44 974.247 418.8 974.247 424.5V447H979.887V424.14C979.887 416.4 976.227 410.82 968.727 410.82ZM1009.09 410.82C1004.53 410.82 1000.93 412.38 997.988 415.68V401.22H992.348V447H996.488L997.328 442.98C1000.03 445.98 1003.51 447.96 1008.31 447.96C1017.79 447.96 1024.57 440.64 1024.57 428.94C1024.57 417.96 1018.33 410.82 1009.09 410.82ZM1007.89 443.46C1003.69 443.46 1000.45 441.48 997.988 438.9V420C1000.57 417.54 1003.87 415.38 1008.31 415.38C1014.49 415.38 1018.87 419.76 1018.87 428.94C1018.87 439.32 1013.77 443.46 1007.89 443.46ZM1046.76 442.32C1042.98 442.32 1040.4 440.7 1040.4 436.2V401.22H1034.76V437.04C1034.7 444.6 1039.62 447.3 1045.74 447.3C1047.36 447.3 1048.5 447.18 1050.06 447V442.32H1046.76ZM1087.2 428.94C1087.2 417.12 1081.2 410.82 1071.66 410.82C1062.48 410.82 1055.4 417.24 1055.4 429.36C1055.4 441.36 1061.58 447.96 1071.6 447.96C1079.22 447.96 1084.62 444 1086.78 437.28H1081.26C1079.46 441.3 1076.28 443.52 1071.6 443.52C1065.3 443.52 1061.52 439.56 1061.16 430.56H1087.2V428.94ZM1061.16 426.9C1061.7 419.7 1065.24 415.14 1071.66 415.14C1077.96 415.14 1081.26 419.34 1081.62 426.9H1061.16ZM1119.96 437.88C1117.56 440.76 1114.38 443.34 1110.12 443.34C1105.44 443.34 1102.98 440.58 1102.98 434.4V411.84H1097.34V434.64C1097.34 442.5 1101.24 447.96 1108.92 447.96C1113.84 447.96 1117.44 445.74 1120.44 441.96L1121.46 447H1125.6V411.84H1119.96V437.88ZM1137.88 398.64V405.42H1143.82V398.64H1137.88ZM1145.2 411.84H1134.28V415.74L1139.56 416.22V447H1145.2V411.84Z" fill="black"/>
<path d="M866.529 526.82C861.789 526.82 858.309 528.86 855.429 532.28V517.22H849.789V563H855.429V537.02C857.889 533.96 861.009 531.44 865.389 531.44C870.669 531.44 872.709 534.86 872.709 540.5V563H878.349V540.14C878.349 532.34 874.449 526.82 866.529 526.82ZM913.065 553.88C910.665 556.76 907.485 559.34 903.225 559.34C898.545 559.34 896.085 556.58 896.085 550.4V527.84H890.445V550.64C890.445 558.5 894.345 563.96 902.025 563.96C906.945 563.96 910.545 561.74 913.545 557.96L914.565 563H918.705V527.84H913.065V553.88ZM968.727 526.82C963.747 526.82 960.207 529.46 957.267 533.18C955.587 529.28 952.287 526.82 947.367 526.82C942.807 526.82 939.507 529.04 936.687 532.76L935.667 527.84H931.527V563H937.167V536.78C939.507 533.9 942.387 531.44 946.347 531.44C951.027 531.44 952.887 534.74 952.887 540.5V563H958.527V540.14C958.527 539 958.467 537.98 958.287 536.96C960.687 534.08 963.567 531.44 967.707 531.44C972.447 531.44 974.247 534.8 974.247 540.5V563H979.887V540.14C979.887 532.4 976.227 526.82 968.727 526.82ZM1009.09 526.82C1004.53 526.82 1000.93 528.38 997.988 531.68V517.22H992.348V563H996.488L997.328 558.98C1000.03 561.98 1003.51 563.96 1008.31 563.96C1017.79 563.96 1024.57 556.64 1024.57 544.94C1024.57 533.96 1018.33 526.82 1009.09 526.82ZM1007.89 559.46C1003.69 559.46 1000.45 557.48 997.988 554.9V536C1000.57 533.54 1003.87 531.38 1008.31 531.38C1014.49 531.38 1018.87 535.76 1018.87 544.94C1018.87 555.32 1013.77 559.46 1007.89 559.46ZM1046.76 558.32C1042.98 558.32 1040.4 556.7 1040.4 552.2V517.22H1034.76V553.04C1034.7 560.6 1039.62 563.3 1045.74 563.3C1047.36 563.3 1048.5 563.18 1050.06 563V558.32H1046.76ZM1087.2 544.94C1087.2 533.12 1081.2 526.82 1071.66 526.82C1062.48 526.82 1055.4 533.24 1055.4 545.36C1055.4 557.36 1061.58 563.96 1071.6 563.96C1079.22 563.96 1084.62 560 1086.78 553.28H1081.26C1079.46 557.3 1076.28 559.52 1071.6 559.52C1065.3 559.52 1061.52 555.56 1061.16 546.56H1087.2V544.94ZM1061.16 542.9C1061.7 535.7 1065.24 531.14 1071.66 531.14C1077.96 531.14 1081.26 535.34 1081.62 542.9H1061.16ZM1119.96 553.88C1117.56 556.76 1114.38 559.34 1110.12 559.34C1105.44 559.34 1102.98 556.58 1102.98 550.4V527.84H1097.34V550.64C1097.34 558.5 1101.24 563.96 1108.92 563.96C1113.84 563.96 1117.44 561.74 1120.44 557.96L1121.46 563H1125.6V527.84H1119.96V553.88ZM1137.88 514.64V521.42H1143.82V514.64H1137.88ZM1145.2 527.84H1134.28V531.74L1139.56 532.22V563H1145.2V527.84Z" fill="black"/>
<path d="M776.204 515.816C776.204 512.052 779.256 509 783.02 509V509C786.785 509 789.837 512.052 789.837 515.816V532.898C789.837 536.663 786.785 539.714 783.02 539.714V539.714C779.256 539.714 776.204 536.663 776.204 532.898V515.816Z" fill="#2EB67D"/>
<path d="M793.245 532.898C793.245 529.133 796.297 526.082 800.061 526.082V526.082C803.826 526.082 806.878 529.133 806.878 532.898V532.898C806.878 536.663 803.826 539.714 800.061 539.714H793.245V532.898Z" fill="#2EB67D"/>
<path d="M748.816 539.714C745.052 539.714 742 536.663 742 532.898V532.898C742 529.133 745.052 526.082 748.816 526.082L765.898 526.082C769.663 526.082 772.714 529.133 772.714 532.898V532.898C772.714 536.663 769.663 539.714 765.898 539.714L748.816 539.714Z" fill="#36C5F0"/>
<path d="M765.898 522.673C762.133 522.673 759.082 519.622 759.082 515.857V515.857C759.082 512.092 762.133 509.041 765.898 509.041V509.041C769.663 509.041 772.714 512.092 772.714 515.857L772.714 522.673L765.898 522.673Z" fill="#36C5F0"/>
<path d="M800.142 543.163C803.907 543.163 806.959 546.215 806.959 549.98V549.98C806.959 553.744 803.907 556.796 800.142 556.796L783.061 556.796C779.296 556.796 776.244 553.744 776.244 549.98V549.98C776.244 546.215 779.296 543.163 783.061 543.163L800.142 543.163Z" fill="#ECB22E"/>
<path d="M783.061 560.204C786.825 560.204 789.877 563.256 789.877 567.021V567.021C789.877 570.785 786.825 573.837 783.061 573.837V573.837C779.296 573.837 776.244 570.785 776.244 567.021L776.244 560.204L783.061 560.204Z" fill="#ECB22E"/>
<path d="M772.714 567.021C772.714 570.785 769.663 573.837 765.898 573.837V573.837C762.133 573.837 759.082 570.785 759.082 567.021V549.939C759.082 546.174 762.133 543.123 765.898 543.123V543.123C769.663 543.123 772.714 546.174 772.714 549.939V567.021Z" fill="#E01E5A"/>
<path d="M755.673 549.939C755.673 553.704 752.622 556.755 748.857 556.755V556.755C745.092 556.755 742.041 553.704 742.041 549.939V549.939C742.041 546.174 745.092 543.123 748.857 543.123H755.673V549.939Z" fill="#E01E5A"/>
</svg>
