<svg width="1920" height="1080" viewBox="0 0 1920 1080" fill="none" xmlns="http://www.w3.org/2000/svg">
<rect width="1920" height="1080" fill="white"/>
<path d="M853 635.631C850.499 636.753 847.813 637.512 844.989 637.855C847.87 636.107 850.08 633.333 851.122 630.032C848.427 631.652 845.441 632.83 842.264 633.461C839.718 630.718 836.094 629 832.081 629C824.379 629 818.132 635.33 818.132 643.141C818.132 644.246 818.257 645.32 818.491 646.358C806.892 645.766 796.617 640.137 789.735 631.585C788.537 633.679 787.848 636.107 787.848 638.692C787.848 643.596 790.313 647.927 794.053 650.46C791.765 650.385 789.615 649.75 787.734 648.691V648.873C787.734 655.722 792.541 661.437 798.926 662.735C797.752 663.057 796.521 663.227 795.251 663.227C794.353 663.227 793.475 663.142 792.625 662.978C794.401 668.592 799.552 672.683 805.658 672.792C800.881 676.585 794.865 678.846 788.33 678.846C787.204 678.846 786.093 678.779 785 678.649C791.175 682.663 798.507 685 806.383 685C832.048 685 846.079 663.461 846.079 644.78C846.079 644.173 846.064 643.56 846.037 642.953C848.762 640.956 851.128 638.471 852.994 635.64L853 635.631Z" fill="#1D9BF0"/>
<path d="M898.725 646.865C894.99 646.865 892.245 648.53 890.085 651.365L889.275 647.63H886.17V674H890.4V654.515C892.245 652.22 894.585 650.33 897.87 650.33C901.83 650.33 903.36 652.895 903.36 657.125V674H907.59V656.855C907.59 651.005 904.665 646.865 898.725 646.865ZM916.527 637.73V642.815H920.982V637.73H916.527ZM922.017 647.63H913.827V650.555L917.787 650.915V674H922.017V647.63ZM953.523 674L942.633 658.07L953.073 647.63H948.078L935.838 660.32V639.665H931.653V674H935.838V664.865L940.023 660.68L948.843 674H953.523ZM959.461 637.73V642.815H963.916V637.73H959.461ZM964.951 647.63H956.761V650.555L960.721 650.915V674H964.951V647.63ZM984.938 670.58C981.653 670.58 979.943 669.185 979.943 665.945V650.915H986.963V647.63H979.943V641.465H976.613L975.893 647.63H971.798V650.915H975.713V666.305C975.713 671.795 978.818 674.225 984.488 674.225C985.703 674.225 987.053 674.135 988.088 674V670.58H984.938ZM1005.56 674.72C1012.71 674.72 1018.2 669.77 1018.2 660.86C1018.2 651.86 1012.67 646.865 1005.56 646.865C998.495 646.865 992.96 651.815 992.96 660.86C992.96 669.77 998.405 674.72 1005.56 674.72ZM1005.56 671.345C1000.79 671.345 997.19 667.745 997.19 660.86C997.19 653.885 1000.79 650.285 1005.56 650.285C1010.37 650.285 1013.97 653.885 1013.97 660.86C1013.97 667.745 1010.37 671.345 1005.56 671.345ZM1038.65 646.865C1034.91 646.865 1032.17 648.53 1030.01 651.365L1029.2 647.63H1026.09V674H1030.32V654.515C1032.17 652.22 1034.51 650.33 1037.79 650.33C1041.75 650.33 1043.28 652.895 1043.28 657.125V674H1047.51V656.855C1047.51 651.005 1044.59 646.865 1038.65 646.865ZM1065.76 674.72C1072.24 674.72 1075.98 671.525 1075.98 667.025C1075.98 662.48 1072.69 660.59 1068.6 659.51L1063.83 658.25C1061.62 657.62 1059.73 656.945 1059.73 654.2C1059.73 651.86 1061.71 650.105 1065.4 650.105C1069 650.105 1071.07 651.41 1071.39 654.65H1075.53C1075.03 649.43 1071.43 646.865 1065.4 646.865C1059.37 646.865 1055.5 650.06 1055.5 654.425C1055.5 658.88 1058.47 660.635 1062.12 661.58L1066.89 662.795C1070.31 663.695 1071.75 664.865 1071.75 667.115C1071.75 669.635 1069.86 671.48 1065.76 671.48C1061.53 671.48 1059.1 670.085 1058.65 666.71H1054.47C1055.01 671.75 1058.65 674.72 1065.76 674.72ZM1105.09 674L1094.2 658.07L1104.64 647.63H1099.65L1087.41 660.32V639.665H1083.22V674H1087.41V664.865L1091.59 660.68L1100.41 674H1105.09ZM1113.55 682.55C1118.27 682.55 1120.21 680.345 1121.47 676.79L1131.95 647.63H1127.63L1120.52 670.22L1112.65 647.63H1108.33L1118.41 673.91L1117.6 676.16C1116.74 678.5 1115.12 678.995 1113.28 678.995H1111.16V682.325C1111.79 682.46 1112.74 682.55 1113.55 682.55Z" fill="#232B36"/>
<path fill-rule="evenodd" clip-rule="evenodd" d="M819 393C800.767 393 786 407.912 786 426.322C786 441.067 795.446 453.521 808.564 457.936C810.214 458.228 810.832 457.228 810.832 456.354C810.832 455.562 810.791 452.938 810.791 450.147C802.5 451.688 800.355 448.106 799.695 446.232C799.324 445.274 797.715 442.317 796.312 441.525C795.157 440.9 793.507 439.359 796.271 439.318C798.87 439.276 800.726 441.733 801.345 442.733C804.315 447.773 809.059 446.357 810.956 445.482C811.245 443.316 812.111 441.858 813.06 441.025C805.717 440.192 798.045 437.318 798.045 424.573C798.045 420.949 799.324 417.95 801.428 415.617C801.098 414.784 799.942 411.369 801.757 406.787C801.757 406.787 804.521 405.912 810.832 410.203C813.472 409.453 816.278 409.078 819.083 409.078C821.888 409.078 824.693 409.453 827.333 410.203C833.644 405.871 836.408 406.787 836.408 406.787C838.223 411.369 837.068 414.784 836.738 415.617C838.841 417.95 840.12 420.907 840.12 424.573C840.12 437.36 832.406 440.192 825.064 441.025C826.26 442.067 827.291 444.066 827.291 447.19C827.291 451.647 827.25 455.229 827.25 456.354C827.25 457.228 827.869 458.27 829.519 457.936C836.07 455.703 841.762 451.452 845.795 445.781C849.828 440.109 851.998 433.304 852 426.322C852 407.912 837.233 393 819 393Z" fill="black"/>
<path d="M894.772 414.865C891.217 414.865 888.607 416.395 886.447 418.96V407.665H882.217V442H886.447V422.515C888.292 420.22 890.632 418.33 893.917 418.33C897.877 418.33 899.407 420.895 899.407 425.125V442H903.637V424.855C903.637 419.005 900.712 414.865 894.772 414.865ZM929.674 435.16C927.874 437.32 925.489 439.255 922.294 439.255C918.784 439.255 916.939 437.185 916.939 432.55V415.63H912.709V432.73C912.709 438.625 915.634 442.72 921.394 442.72C925.084 442.72 927.784 441.055 930.034 438.22L930.799 442H933.904V415.63H929.674V435.16ZM971.421 414.865C967.686 414.865 965.031 416.845 962.826 419.635C961.566 416.71 959.091 414.865 955.401 414.865C951.981 414.865 949.506 416.53 947.391 419.32L946.626 415.63H943.521V442H947.751V422.335C949.506 420.175 951.666 418.33 954.636 418.33C958.146 418.33 959.541 420.805 959.541 425.125V442H963.771V424.855C963.771 424 963.726 423.235 963.591 422.47C965.391 420.31 967.551 418.33 970.656 418.33C974.211 418.33 975.561 420.85 975.561 425.125V442H979.791V424.855C979.791 419.05 977.046 414.865 971.421 414.865ZM1001.69 414.865C998.271 414.865 995.571 416.035 993.366 418.51V407.665H989.136V442H992.241L992.871 438.985C994.896 441.235 997.506 442.72 1001.11 442.72C1008.22 442.72 1013.3 437.23 1013.3 428.455C1013.3 420.22 1008.62 414.865 1001.69 414.865ZM1000.79 439.345C997.641 439.345 995.211 437.86 993.366 435.925V421.75C995.301 419.905 997.776 418.285 1001.11 418.285C1005.74 418.285 1009.03 421.57 1009.03 428.455C1009.03 436.24 1005.2 439.345 1000.79 439.345ZM1029.95 438.49C1027.11 438.49 1025.18 437.275 1025.18 433.9V407.665H1020.95V434.53C1020.9 440.2 1024.59 442.225 1029.18 442.225C1030.4 442.225 1031.25 442.135 1032.42 442V438.49H1029.95ZM1060.27 428.455C1060.27 419.59 1055.77 414.865 1048.62 414.865C1041.73 414.865 1036.42 419.68 1036.42 428.77C1036.42 437.77 1041.06 442.72 1048.57 442.72C1054.29 442.72 1058.34 439.75 1059.96 434.71H1055.82C1054.47 437.725 1052.08 439.39 1048.57 439.39C1043.85 439.39 1041.01 436.42 1040.74 429.67H1060.27V428.455ZM1040.74 426.925C1041.15 421.525 1043.8 418.105 1048.62 418.105C1053.34 418.105 1055.82 421.255 1056.09 426.925H1040.74ZM1084.84 435.16C1083.04 437.32 1080.66 439.255 1077.46 439.255C1073.95 439.255 1072.11 437.185 1072.11 432.55V415.63H1067.88V432.73C1067.88 438.625 1070.8 442.72 1076.56 442.72C1080.25 442.72 1082.95 441.055 1085.2 438.22L1085.97 442H1089.07V415.63H1084.84V435.16ZM1098.29 405.73V410.815H1102.74V405.73H1098.29ZM1103.78 415.63H1095.59V418.555L1099.55 418.915V442H1103.78V415.63Z" fill="#232B36"/>
<path d="M894.772 530.865C891.217 530.865 888.607 532.395 886.447 534.96V523.665H882.217V558H886.447V538.515C888.292 536.22 890.632 534.33 893.917 534.33C897.877 534.33 899.407 536.895 899.407 541.125V558H903.637V540.855C903.637 535.005 900.712 530.865 894.772 530.865ZM929.674 551.16C927.874 553.32 925.489 555.255 922.294 555.255C918.784 555.255 916.939 553.185 916.939 548.55V531.63H912.709V548.73C912.709 554.625 915.634 558.72 921.394 558.72C925.084 558.72 927.784 557.055 930.034 554.22L930.799 558H933.904V531.63H929.674V551.16ZM971.421 530.865C967.686 530.865 965.031 532.845 962.826 535.635C961.566 532.71 959.091 530.865 955.401 530.865C951.981 530.865 949.506 532.53 947.391 535.32L946.626 531.63H943.521V558H947.751V538.335C949.506 536.175 951.666 534.33 954.636 534.33C958.146 534.33 959.541 536.805 959.541 541.125V558H963.771V540.855C963.771 540 963.726 539.235 963.591 538.47C965.391 536.31 967.551 534.33 970.656 534.33C974.211 534.33 975.561 536.85 975.561 541.125V558H979.791V540.855C979.791 535.05 977.046 530.865 971.421 530.865ZM1001.69 530.865C998.271 530.865 995.571 532.035 993.366 534.51V523.665H989.136V558H992.241L992.871 554.985C994.896 557.235 997.506 558.72 1001.11 558.72C1008.22 558.72 1013.3 553.23 1013.3 544.455C1013.3 536.22 1008.62 530.865 1001.69 530.865ZM1000.79 555.345C997.641 555.345 995.211 553.86 993.366 551.925V537.75C995.301 535.905 997.776 534.285 1001.11 534.285C1005.74 534.285 1009.03 537.57 1009.03 544.455C1009.03 552.24 1005.2 555.345 1000.79 555.345ZM1029.95 554.49C1027.11 554.49 1025.18 553.275 1025.18 549.9V523.665H1020.95V550.53C1020.9 556.2 1024.59 558.225 1029.18 558.225C1030.4 558.225 1031.25 558.135 1032.42 558V554.49H1029.95ZM1060.27 544.455C1060.27 535.59 1055.77 530.865 1048.62 530.865C1041.73 530.865 1036.42 535.68 1036.42 544.77C1036.42 553.77 1041.06 558.72 1048.57 558.72C1054.29 558.72 1058.34 555.75 1059.96 550.71H1055.82C1054.47 553.725 1052.08 555.39 1048.57 555.39C1043.85 555.39 1041.01 552.42 1040.74 545.67H1060.27V544.455ZM1040.74 542.925C1041.15 537.525 1043.8 534.105 1048.62 534.105C1053.34 534.105 1055.82 537.255 1056.09 542.925H1040.74ZM1084.84 551.16C1083.04 553.32 1080.66 555.255 1077.46 555.255C1073.95 555.255 1072.11 553.185 1072.11 548.55V531.63H1067.88V548.73C1067.88 554.625 1070.8 558.72 1076.56 558.72C1080.25 558.72 1082.95 557.055 1085.2 554.22L1085.97 558H1089.07V531.63H1084.84V551.16ZM1098.29 521.73V526.815H1102.74V521.73H1098.29ZM1103.78 531.63H1095.59V534.555L1099.55 534.915V558H1103.78V531.63Z" fill="#232B36"/>
<path d="M821.204 516.816C821.204 513.052 824.256 510 828.02 510V510C831.785 510 834.837 513.052 834.837 516.816V533.898C834.837 537.663 831.785 540.714 828.02 540.714V540.714C824.256 540.714 821.204 537.663 821.204 533.898V516.816Z" fill="#2EB67D"/>
<path d="M838.245 533.898C838.245 530.133 841.297 527.082 845.061 527.082V527.082C848.826 527.082 851.878 530.133 851.878 533.898V533.898C851.878 537.663 848.826 540.714 845.061 540.714H838.245V533.898Z" fill="#2EB67D"/>
<path d="M793.816 540.714C790.052 540.714 787 537.663 787 533.898V533.898C787 530.133 790.052 527.082 793.816 527.082L810.898 527.082C814.663 527.082 817.714 530.133 817.714 533.898V533.898C817.714 537.663 814.663 540.714 810.898 540.714L793.816 540.714Z" fill="#36C5F0"/>
<path d="M810.898 523.673C807.133 523.673 804.082 520.622 804.082 516.857V516.857C804.082 513.092 807.133 510.041 810.898 510.041V510.041C814.663 510.041 817.714 513.092 817.714 516.857L817.714 523.673L810.898 523.673Z" fill="#36C5F0"/>
<path d="M845.142 544.163C848.907 544.163 851.959 547.215 851.959 550.98V550.98C851.959 554.744 848.907 557.796 845.142 557.796L828.061 557.796C824.296 557.796 821.244 554.744 821.244 550.98V550.98C821.244 547.215 824.296 544.163 828.061 544.163L845.142 544.163Z" fill="#ECB22E"/>
<path d="M828.061 561.204C831.825 561.204 834.877 564.256 834.877 568.021V568.021C834.877 571.785 831.825 574.837 828.061 574.837V574.837C824.296 574.837 821.244 571.785 821.244 568.021L821.244 561.204L828.061 561.204Z" fill="#ECB22E"/>
<path d="M817.714 568.021C817.714 571.785 814.663 574.837 810.898 574.837V574.837C807.133 574.837 804.082 571.785 804.082 568.021V550.939C804.082 547.174 807.133 544.123 810.898 544.123V544.123C814.663 544.123 817.714 547.174 817.714 550.939V568.021Z" fill="#E01E5A"/>
<path d="M800.673 550.939C800.673 554.704 797.622 557.755 793.857 557.755V557.755C790.092 557.755 787.041 554.704 787.041 550.939V550.939C787.041 547.174 790.092 544.123 793.857 544.123H800.673V550.939Z" fill="#E01E5A"/>
</svg>
