<svg width="1920" height="1080" viewBox="0 0 1920 1080" fill="none" xmlns="http://www.w3.org/2000/svg">
<rect width="1920" height="1080" fill="white"/>
<rect x="95" y="170" width="492" height="740" rx="40" fill="#DDDDDD"/>
<rect x="714" y="170" width="492" height="740" rx="40" fill="#DDDDDD"/>
<rect x="1328" y="165" width="502" height="750" rx="45" fill="#DDFFDD" stroke="#33CC33" stroke-width="10"/>
<path d="M291.132 831L301.212 791.88L311.232 831H317.532L329.352 787.02H323.412L314.292 825.18L304.452 787.02H297.852L288.072 825.18L278.892 787.02H272.952L284.772 831H291.132ZM365.132 812.94C365.132 801.12 359.132 794.82 349.592 794.82C340.412 794.82 333.332 801.24 333.332 813.36C333.332 825.36 339.512 831.96 349.532 831.96C357.152 831.96 362.552 828 364.712 821.28H359.192C357.392 825.3 354.212 827.52 349.532 827.52C343.232 827.52 339.452 823.56 339.092 814.56H365.132V812.94ZM339.092 810.9C339.632 803.7 343.172 799.14 349.592 799.14C355.892 799.14 359.192 803.34 359.552 810.9H339.092ZM392.373 794.82C387.813 794.82 384.213 796.38 381.273 799.68V785.22H375.633V831H379.773L380.613 826.98C383.313 829.98 386.793 831.96 391.593 831.96C401.073 831.96 407.853 824.64 407.853 812.94C407.853 801.96 401.613 794.82 392.373 794.82ZM391.173 827.46C386.973 827.46 383.733 825.48 381.273 822.9V804C383.853 801.54 387.153 799.38 391.593 799.38C397.773 799.38 402.153 803.76 402.153 812.94C402.153 823.32 397.053 827.46 391.173 827.46Z" fill="#212B37"/>
<path d="M860.635 831V793.5L874.495 831H879.715L893.575 793.5V831H899.095V787.02H890.575L877.075 824.28L863.695 787.02H855.115V831H860.635ZM926.009 831.96C935.549 831.96 942.869 825.36 942.869 813.48C942.869 801.48 935.489 794.82 926.009 794.82C916.589 794.82 909.209 801.42 909.209 813.48C909.209 825.36 916.469 831.96 926.009 831.96ZM926.009 827.46C919.649 827.46 914.849 822.66 914.849 813.48C914.849 804.18 919.649 799.38 926.009 799.38C932.429 799.38 937.229 804.18 937.229 813.48C937.229 822.66 932.429 827.46 926.009 827.46ZM970.125 794.82C965.565 794.82 961.965 796.38 959.025 799.68V785.22H953.385V831H957.525L958.365 826.98C961.065 829.98 964.545 831.96 969.345 831.96C978.825 831.96 985.605 824.64 985.605 812.94C985.605 801.96 979.365 794.82 970.125 794.82ZM968.925 827.46C964.725 827.46 961.485 825.48 959.025 822.9V804C961.605 801.54 964.905 799.38 969.345 799.38C975.525 799.38 979.905 803.76 979.905 812.94C979.905 823.32 974.805 827.46 968.925 827.46ZM995.56 782.64V789.42H1001.5V782.64H995.56ZM1002.88 795.84H991.96V799.74L997.24 800.22V831H1002.88V795.84ZM1027.43 826.32C1023.65 826.32 1021.07 824.7 1021.07 820.2V785.22H1015.43V821.04C1015.37 828.6 1020.29 831.3 1026.41 831.3C1028.03 831.3 1029.17 831.18 1030.73 831V826.32H1027.43ZM1067.86 812.94C1067.86 801.12 1061.86 794.82 1052.32 794.82C1043.14 794.82 1036.06 801.24 1036.06 813.36C1036.06 825.36 1042.24 831.96 1052.26 831.96C1059.88 831.96 1065.28 828 1067.44 821.28H1061.92C1060.12 825.3 1056.94 827.52 1052.26 827.52C1045.96 827.52 1042.18 823.56 1041.82 814.56H1067.86V812.94ZM1041.82 810.9C1042.36 803.7 1045.9 799.14 1052.32 799.14C1058.62 799.14 1061.92 803.34 1062.28 810.9H1041.82Z" fill="#212B37"/>
<path d="M1449.18 787.02V831H1463.1C1477.14 831 1484.64 823.74 1484.64 808.86C1484.64 794.16 1477.14 787.02 1462.8 787.02H1449.18ZM1463.16 791.88C1473.42 791.88 1478.7 796.98 1478.7 808.86C1478.7 820.8 1473.42 826.14 1463.46 826.14H1455V791.88H1463.16ZM1524.7 812.94C1524.7 801.12 1518.7 794.82 1509.16 794.82C1499.98 794.82 1492.9 801.24 1492.9 813.36C1492.9 825.36 1499.08 831.96 1509.1 831.96C1516.72 831.96 1522.12 828 1524.28 821.28H1518.76C1516.96 825.3 1513.78 827.52 1509.1 827.52C1502.8 827.52 1499.02 823.56 1498.66 814.56H1524.7V812.94ZM1498.66 810.9C1499.2 803.7 1502.74 799.14 1509.16 799.14C1515.46 799.14 1518.76 803.34 1519.12 810.9H1498.66ZM1547.08 831.96C1555.72 831.96 1560.7 827.7 1560.7 821.7C1560.7 815.64 1556.32 813.12 1550.86 811.68L1544.5 810C1541.56 809.16 1539.04 808.26 1539.04 804.6C1539.04 801.48 1541.68 799.14 1546.6 799.14C1551.4 799.14 1554.16 800.88 1554.58 805.2H1560.1C1559.44 798.24 1554.64 794.82 1546.6 794.82C1538.56 794.82 1533.4 799.08 1533.4 804.9C1533.4 810.84 1537.36 813.18 1542.22 814.44L1548.58 816.06C1553.14 817.26 1555.06 818.82 1555.06 821.82C1555.06 825.18 1552.54 827.64 1547.08 827.64C1541.44 827.64 1538.2 825.78 1537.6 821.28H1532.02C1532.74 828 1537.6 831.96 1547.08 831.96ZM1599.52 831L1585 809.76L1598.92 795.84H1592.26L1575.94 812.76V785.22H1570.36V831H1575.94V818.82L1581.52 813.24L1593.28 831H1599.52ZM1621.77 826.44C1617.39 826.44 1615.11 824.58 1615.11 820.26V800.22H1624.47V795.84H1615.11V787.62H1610.67L1609.71 795.84H1604.25V800.22H1609.47V820.74C1609.47 828.06 1613.61 831.3 1621.17 831.3C1622.79 831.3 1624.59 831.18 1625.97 831V826.44H1621.77ZM1649.27 831.96C1658.81 831.96 1666.13 825.36 1666.13 813.48C1666.13 801.48 1658.75 794.82 1649.27 794.82C1639.85 794.82 1632.47 801.42 1632.47 813.48C1632.47 825.36 1639.73 831.96 1649.27 831.96ZM1649.27 827.46C1642.91 827.46 1638.11 822.66 1638.11 813.48C1638.11 804.18 1642.91 799.38 1649.27 799.38C1655.69 799.38 1660.49 804.18 1660.49 813.48C1660.49 822.66 1655.69 827.46 1649.27 827.46ZM1693.33 794.82C1688.53 794.82 1684.75 796.56 1681.69 800.28L1680.79 795.84H1676.65V842.1H1682.29V827.7C1684.87 830.28 1688.17 831.96 1692.55 831.96C1702.03 831.96 1708.81 824.64 1708.81 812.94C1708.81 801.96 1702.57 794.82 1693.33 794.82ZM1692.13 827.46C1687.99 827.46 1684.81 825.48 1682.29 822.96V804C1684.93 801.48 1688.17 799.38 1692.55 799.38C1698.73 799.38 1703.11 803.76 1703.11 812.94C1703.11 823.32 1698.01 827.46 1692.13 827.46Z" fill="#212B37"/>
<path d="M1522.22 358.121C1522.22 363.238 1523.45 367.027 1525.91 369.488C1528.41 371.949 1532.16 373.18 1537.16 373.18H1620.84C1625.84 373.18 1629.57 371.949 1632.03 369.488C1634.53 367.027 1635.78 363.238 1635.78 358.121V287.691C1635.78 282.574 1634.51 278.785 1631.97 276.324C1629.47 273.863 1625.72 272.633 1620.72 272.633H1537.28C1532.28 272.633 1528.51 273.863 1525.97 276.324C1523.47 278.785 1522.22 282.574 1522.22 287.691V358.121ZM1531.66 348.512V287.867C1531.66 285.797 1532.11 284.312 1533 283.414C1533.94 282.516 1535.43 282.066 1537.46 282.066H1620.54C1622.57 282.066 1624.04 282.516 1624.94 283.414C1625.88 284.312 1626.34 285.797 1626.34 287.867V348.512C1626.34 350.582 1625.88 352.066 1624.94 352.965C1624.04 353.824 1622.57 354.254 1620.54 354.254H1537.46C1535.43 354.254 1533.94 353.824 1533 352.965C1532.11 352.066 1531.66 350.582 1531.66 348.512ZM1612.11 367.086C1611.05 367.086 1610.11 366.676 1609.29 365.855C1608.51 365.035 1608.12 364.078 1608.12 362.984C1608.12 361.93 1608.51 361.012 1609.29 360.23C1610.11 359.41 1611.05 359 1612.11 359C1613.24 359 1614.2 359.41 1614.98 360.23C1615.8 361.012 1616.21 361.93 1616.21 362.984C1616.21 364.078 1615.8 365.035 1614.98 365.855C1614.2 366.676 1613.24 367.086 1612.11 367.086ZM1579 380.211C1583.18 380.211 1587.09 379.977 1590.72 379.508C1594.35 379.078 1597.63 378.434 1600.56 377.574C1603.53 376.715 1606.03 375.68 1608.06 374.469C1610.13 373.297 1611.66 371.969 1612.63 370.484H1545.37C1547.32 373.453 1551.32 375.816 1557.38 377.574C1563.47 379.332 1570.68 380.211 1579 380.211ZM1550.88 389.059H1607.12C1608.45 389.059 1609.47 388.746 1610.17 388.121C1610.88 387.535 1611.3 386.812 1611.46 385.953C1611.62 385.094 1611.5 384.254 1611.11 383.434C1610.76 382.652 1610.13 382.066 1609.23 381.676L1595.05 375.113H1562.95L1548.77 381.676C1547.87 382.066 1547.22 382.652 1546.83 383.434C1546.48 384.254 1546.38 385.094 1546.54 385.953C1546.7 386.812 1547.12 387.535 1547.83 388.121C1548.53 388.746 1549.55 389.059 1550.88 389.059Z" fill="#212B37"/>
<path d="M921.824 378.512C921.824 383.082 923.289 386.754 926.219 389.527C929.148 392.34 932.996 393.746 937.762 393.746H981.18C985.984 393.746 989.832 392.34 992.723 389.527C995.652 386.754 997.117 383.082 997.117 378.512V284.879C997.117 280.309 995.652 276.637 992.723 273.863C989.832 271.051 985.984 269.645 981.18 269.645H937.762C932.996 269.645 929.148 271.051 926.219 273.863C923.289 276.637 921.824 280.309 921.824 284.879V378.512ZM931.258 373.883V289.508H987.684V373.883H931.258ZM959.559 387.945C958.152 387.945 956.941 387.438 955.926 386.422C954.949 385.445 954.461 384.254 954.461 382.848C954.461 381.441 954.949 380.25 955.926 379.273C956.941 378.297 958.152 377.809 959.559 377.809C960.926 377.809 962.098 378.297 963.074 379.273C964.09 380.25 964.598 381.441 964.598 382.848C964.598 384.254 964.09 385.445 963.074 386.422C962.098 387.438 960.926 387.945 959.559 387.945ZM948.367 279.898C948.367 279.234 948.562 278.707 948.953 278.316C949.383 277.887 949.93 277.672 950.594 277.672H968.406C969.07 277.672 969.598 277.887 969.988 278.316C970.418 278.707 970.633 279.234 970.633 279.898C970.633 280.562 970.418 281.09 969.988 281.48C969.598 281.871 969.07 282.066 968.406 282.066H950.594C949.93 282.066 949.383 281.871 948.953 281.48C948.562 281.09 948.367 280.562 948.367 279.898Z" fill="#212B37"/>
<path d="M337.5 388.18C341.562 388.18 345.371 386.773 348.926 383.961C352.52 381.148 355.664 377.203 358.359 372.125C361.094 367.047 363.223 361.09 364.746 354.254C366.309 347.379 367.09 339.898 367.09 331.812C367.09 323.727 366.328 316.246 364.805 309.371C363.281 302.457 361.152 296.461 358.418 291.383C355.723 286.266 352.578 282.301 348.984 279.488C345.43 276.676 341.602 275.27 337.5 275.27C333.398 275.27 329.551 276.676 325.957 279.488C322.402 282.301 319.277 286.266 316.582 291.383C313.887 296.461 311.758 302.457 310.195 309.371C308.672 316.246 307.91 323.727 307.91 331.812C307.91 339.898 308.672 347.379 310.195 354.254C311.758 361.09 313.887 367.047 316.582 372.125C319.316 377.203 322.461 381.148 326.016 383.961C329.609 386.773 333.438 388.18 337.5 388.18ZM337.5 282.359C340.352 282.359 343.086 283.688 345.703 286.344C348.32 288.961 350.645 292.555 352.676 297.125C354.707 301.695 356.309 306.969 357.48 312.945C358.652 318.883 359.238 325.172 359.238 331.812C359.238 338.375 358.652 344.605 357.48 350.504C356.309 356.402 354.707 361.656 352.676 366.266C350.645 370.836 348.32 374.43 345.703 377.047C343.086 379.703 340.352 381.031 337.5 381.031C334.648 381.031 331.914 379.703 329.297 377.047C326.68 374.43 324.355 370.836 322.324 366.266C320.293 361.656 318.691 356.402 317.52 350.504C316.348 344.605 315.762 338.375 315.762 331.812C315.762 325.172 316.348 318.883 317.52 312.945C318.691 306.969 320.293 301.695 322.324 297.125C324.355 292.555 326.68 288.961 329.297 286.344C331.914 283.688 334.648 282.359 337.5 282.359ZM333.691 276.09V387.066H341.367V276.09H333.691ZM337.5 353.727C331.484 353.727 325.781 354.234 320.391 355.25C315 356.227 310.137 357.652 305.801 359.527C301.504 361.363 297.988 363.531 295.254 366.031L301.172 370.895C303.75 368.863 306.836 367.145 310.43 365.738C314.062 364.293 318.145 363.219 322.676 362.516C327.246 361.773 332.188 361.402 337.5 361.402C342.812 361.402 347.734 361.773 352.266 362.516C356.836 363.219 360.918 364.293 364.512 365.738C368.145 367.145 371.25 368.863 373.828 370.895L379.746 366.031C377.012 363.531 373.477 361.363 369.141 359.527C364.844 357.652 360 356.227 354.609 355.25C349.219 354.234 343.516 353.727 337.5 353.727ZM391.582 327.828H283.418V335.504H391.582V327.828ZM337.5 309.957C343.516 309.957 349.219 309.469 354.609 308.492C360 307.477 364.844 306.051 369.141 304.215C373.477 302.34 377.012 300.152 379.746 297.652L373.828 292.789C371.25 294.82 368.145 296.559 364.512 298.004C360.918 299.41 356.836 300.484 352.266 301.227C347.734 301.93 342.812 302.281 337.5 302.281C332.188 302.281 327.246 301.93 322.676 301.227C318.145 300.484 314.062 299.41 310.43 298.004C306.836 296.559 303.75 294.82 301.172 292.789L295.254 297.652C297.988 300.152 301.504 302.34 305.801 304.215C310.137 306.051 315 307.477 320.391 308.492C325.781 309.469 331.484 309.957 337.5 309.957ZM337.5 391.461C345.664 391.461 353.34 389.898 360.527 386.773C367.754 383.648 374.121 379.332 379.629 373.824C385.137 368.316 389.453 361.969 392.578 354.781C395.703 347.555 397.266 339.859 397.266 331.695C397.266 323.531 395.703 315.855 392.578 308.668C389.453 301.441 385.137 295.074 379.629 289.566C374.121 284.059 367.754 279.742 360.527 276.617C353.301 273.492 345.605 271.93 337.441 271.93C329.277 271.93 321.582 273.492 314.355 276.617C307.168 279.742 300.82 284.059 295.312 289.566C289.844 295.074 285.547 301.441 282.422 308.668C279.297 315.855 277.734 323.531 277.734 331.695C277.734 339.859 279.297 347.555 282.422 354.781C285.547 361.969 289.863 368.316 295.371 373.824C300.879 379.332 307.227 383.648 314.414 386.773C321.641 389.898 329.336 391.461 337.5 391.461ZM337.5 383.492C330.43 383.492 323.77 382.125 317.52 379.391C311.27 376.695 305.762 372.965 300.996 368.199C296.23 363.434 292.48 357.926 289.746 351.676C287.051 345.426 285.703 338.766 285.703 331.695C285.703 324.625 287.051 317.965 289.746 311.715C292.48 305.465 296.211 299.957 300.938 295.191C305.703 290.426 311.211 286.695 317.461 284C323.711 281.266 330.371 279.898 337.441 279.898C344.512 279.898 351.172 281.266 357.422 284C363.672 286.695 369.18 290.426 373.945 295.191C378.75 299.957 382.5 305.465 385.195 311.715C387.93 317.965 389.297 324.625 389.297 331.695C389.297 338.766 387.93 345.426 385.195 351.676C382.5 357.926 378.77 363.434 374.004 368.199C369.238 372.965 363.73 376.695 357.48 379.391C351.23 382.125 344.57 383.492 337.5 383.492Z" fill="#212B37"/>
<circle cx="337.5" cy="703.5" r="37.5" fill="white"/>
<circle cx="959.5" cy="703.5" r="37.5" fill="white"/>
<circle cx="1578.5" cy="703.5" r="37.5" fill="#33CC33"/>
<path d="M1557 702L1571 725.5L1601.5 681" stroke="white" stroke-width="10" stroke-linejoin="bevel"/>
</svg>
