<svg width="1920" height="1080" viewBox="0 0 1920 1080" fill="none" xmlns="http://www.w3.org/2000/svg">
<rect width="1920" height="1080" fill="white"/>
<rect x="100" y="175" width="482" height="730" rx="35" fill="#DDFFDD" stroke="#33CC33" stroke-width="10"/>
<rect x="719" y="175" width="482" height="730" rx="35" fill="#DDFFDD" stroke="#33CC33" stroke-width="10"/>
<rect x="1333" y="170" width="492" height="740" rx="40" fill="#DDDDDD"/>
<path d="M291.132 831L301.212 791.88L311.232 831H317.532L329.352 787.02H323.412L314.292 825.18L304.452 787.02H297.852L288.072 825.18L278.892 787.02H272.952L284.772 831H291.132ZM365.132 812.94C365.132 801.12 359.132 794.82 349.592 794.82C340.412 794.82 333.332 801.24 333.332 813.36C333.332 825.36 339.512 831.96 349.532 831.96C357.152 831.96 362.552 828 364.712 821.28H359.192C357.392 825.3 354.212 827.52 349.532 827.52C343.232 827.52 339.452 823.56 339.092 814.56H365.132V812.94ZM339.092 810.9C339.632 803.7 343.172 799.14 349.592 799.14C355.892 799.14 359.192 803.34 359.552 810.9H339.092ZM392.373 794.82C387.813 794.82 384.213 796.38 381.273 799.68V785.22H375.633V831H379.773L380.613 826.98C383.313 829.98 386.793 831.96 391.593 831.96C401.073 831.96 407.853 824.64 407.853 812.94C407.853 801.96 401.613 794.82 392.373 794.82ZM391.173 827.46C386.973 827.46 383.733 825.48 381.273 822.9V804C383.853 801.54 387.153 799.38 391.593 799.38C397.773 799.38 402.153 803.76 402.153 812.94C402.153 823.32 397.053 827.46 391.173 827.46Z" fill="#212B37"/>
<path d="M860.635 831V793.5L874.495 831H879.715L893.575 793.5V831H899.095V787.02H890.575L877.075 824.28L863.695 787.02H855.115V831H860.635ZM926.009 831.96C935.549 831.96 942.869 825.36 942.869 813.48C942.869 801.48 935.489 794.82 926.009 794.82C916.589 794.82 909.209 801.42 909.209 813.48C909.209 825.36 916.469 831.96 926.009 831.96ZM926.009 827.46C919.649 827.46 914.849 822.66 914.849 813.48C914.849 804.18 919.649 799.38 926.009 799.38C932.429 799.38 937.229 804.18 937.229 813.48C937.229 822.66 932.429 827.46 926.009 827.46ZM970.125 794.82C965.565 794.82 961.965 796.38 959.025 799.68V785.22H953.385V831H957.525L958.365 826.98C961.065 829.98 964.545 831.96 969.345 831.96C978.825 831.96 985.605 824.64 985.605 812.94C985.605 801.96 979.365 794.82 970.125 794.82ZM968.925 827.46C964.725 827.46 961.485 825.48 959.025 822.9V804C961.605 801.54 964.905 799.38 969.345 799.38C975.525 799.38 979.905 803.76 979.905 812.94C979.905 823.32 974.805 827.46 968.925 827.46ZM995.56 782.64V789.42H1001.5V782.64H995.56ZM1002.88 795.84H991.96V799.74L997.24 800.22V831H1002.88V795.84ZM1027.43 826.32C1023.65 826.32 1021.07 824.7 1021.07 820.2V785.22H1015.43V821.04C1015.37 828.6 1020.29 831.3 1026.41 831.3C1028.03 831.3 1029.17 831.18 1030.73 831V826.32H1027.43ZM1067.86 812.94C1067.86 801.12 1061.86 794.82 1052.32 794.82C1043.14 794.82 1036.06 801.24 1036.06 813.36C1036.06 825.36 1042.24 831.96 1052.26 831.96C1059.88 831.96 1065.28 828 1067.44 821.28H1061.92C1060.12 825.3 1056.94 827.52 1052.26 827.52C1045.96 827.52 1042.18 823.56 1041.82 814.56H1067.86V812.94ZM1041.82 810.9C1042.36 803.7 1045.9 799.14 1052.32 799.14C1058.62 799.14 1061.92 803.34 1062.28 810.9H1041.82Z" fill="#212B37"/>
<path d="M1449.18 787.02V831H1463.1C1477.14 831 1484.64 823.74 1484.64 808.86C1484.64 794.16 1477.14 787.02 1462.8 787.02H1449.18ZM1463.16 791.88C1473.42 791.88 1478.7 796.98 1478.7 808.86C1478.7 820.8 1473.42 826.14 1463.46 826.14H1455V791.88H1463.16ZM1524.7 812.94C1524.7 801.12 1518.7 794.82 1509.16 794.82C1499.98 794.82 1492.9 801.24 1492.9 813.36C1492.9 825.36 1499.08 831.96 1509.1 831.96C1516.72 831.96 1522.12 828 1524.28 821.28H1518.76C1516.96 825.3 1513.78 827.52 1509.1 827.52C1502.8 827.52 1499.02 823.56 1498.66 814.56H1524.7V812.94ZM1498.66 810.9C1499.2 803.7 1502.74 799.14 1509.16 799.14C1515.46 799.14 1518.76 803.34 1519.12 810.9H1498.66ZM1547.08 831.96C1555.72 831.96 1560.7 827.7 1560.7 821.7C1560.7 815.64 1556.32 813.12 1550.86 811.68L1544.5 810C1541.56 809.16 1539.04 808.26 1539.04 804.6C1539.04 801.48 1541.68 799.14 1546.6 799.14C1551.4 799.14 1554.16 800.88 1554.58 805.2H1560.1C1559.44 798.24 1554.64 794.82 1546.6 794.82C1538.56 794.82 1533.4 799.08 1533.4 804.9C1533.4 810.84 1537.36 813.18 1542.22 814.44L1548.58 816.06C1553.14 817.26 1555.06 818.82 1555.06 821.82C1555.06 825.18 1552.54 827.64 1547.08 827.64C1541.44 827.64 1538.2 825.78 1537.6 821.28H1532.02C1532.74 828 1537.6 831.96 1547.08 831.96ZM1599.52 831L1585 809.76L1598.92 795.84H1592.26L1575.94 812.76V785.22H1570.36V831H1575.94V818.82L1581.52 813.24L1593.28 831H1599.52ZM1621.77 826.44C1617.39 826.44 1615.11 824.58 1615.11 820.26V800.22H1624.47V795.84H1615.11V787.62H1610.67L1609.71 795.84H1604.25V800.22H1609.47V820.74C1609.47 828.06 1613.61 831.3 1621.17 831.3C1622.79 831.3 1624.59 831.18 1625.97 831V826.44H1621.77ZM1649.27 831.96C1658.81 831.96 1666.13 825.36 1666.13 813.48C1666.13 801.48 1658.75 794.82 1649.27 794.82C1639.85 794.82 1632.47 801.42 1632.47 813.48C1632.47 825.36 1639.73 831.96 1649.27 831.96ZM1649.27 827.46C1642.91 827.46 1638.11 822.66 1638.11 813.48C1638.11 804.18 1642.91 799.38 1649.27 799.38C1655.69 799.38 1660.49 804.18 1660.49 813.48C1660.49 822.66 1655.69 827.46 1649.27 827.46ZM1693.33 794.82C1688.53 794.82 1684.75 796.56 1681.69 800.28L1680.79 795.84H1676.65V842.1H1682.29V827.7C1684.87 830.28 1688.17 831.96 1692.55 831.96C1702.03 831.96 1708.81 824.64 1708.81 812.94C1708.81 801.96 1702.57 794.82 1693.33 794.82ZM1692.13 827.46C1687.99 827.46 1684.81 825.48 1682.29 822.96V804C1684.93 801.48 1688.17 799.38 1692.55 799.38C1698.73 799.38 1703.11 803.76 1703.11 812.94C1703.11 823.32 1698.01 827.46 1692.13 827.46Z" fill="#212B37"/>
<path d="M1522.22 358.121C1522.22 363.238 1523.45 367.027 1525.91 369.488C1528.41 371.949 1532.16 373.18 1537.16 373.18H1620.84C1625.84 373.18 1629.57 371.949 1632.03 369.488C1634.53 367.027 1635.78 363.238 1635.78 358.121V287.691C1635.78 282.574 1634.51 278.785 1631.97 276.324C1629.47 273.863 1625.72 272.633 1620.72 272.633H1537.28C1532.28 272.633 1528.51 273.863 1525.97 276.324C1523.47 278.785 1522.22 282.574 1522.22 287.691V358.121ZM1531.66 348.512V287.867C1531.66 285.797 1532.11 284.312 1533 283.414C1533.94 282.516 1535.43 282.066 1537.46 282.066H1620.54C1622.57 282.066 1624.04 282.516 1624.94 283.414C1625.88 284.312 1626.34 285.797 1626.34 287.867V348.512C1626.34 350.582 1625.88 352.066 1624.94 352.965C1624.04 353.824 1622.57 354.254 1620.54 354.254H1537.46C1535.43 354.254 1533.94 353.824 1533 352.965C1532.11 352.066 1531.66 350.582 1531.66 348.512ZM1612.11 367.086C1611.05 367.086 1610.11 366.676 1609.29 365.855C1608.51 365.035 1608.12 364.078 1608.12 362.984C1608.12 361.93 1608.51 361.012 1609.29 360.23C1610.11 359.41 1611.05 359 1612.11 359C1613.24 359 1614.2 359.41 1614.98 360.23C1615.8 361.012 1616.21 361.93 1616.21 362.984C1616.21 364.078 1615.8 365.035 1614.98 365.855C1614.2 366.676 1613.24 367.086 1612.11 367.086ZM1579 380.211C1583.18 380.211 1587.09 379.977 1590.72 379.508C1594.35 379.078 1597.63 378.434 1600.56 377.574C1603.53 376.715 1606.03 375.68 1608.06 374.469C1610.13 373.297 1611.66 371.969 1612.63 370.484H1545.37C1547.32 373.453 1551.32 375.816 1557.38 377.574C1563.47 379.332 1570.68 380.211 1579 380.211ZM1550.88 389.059H1607.12C1608.45 389.059 1609.47 388.746 1610.17 388.121C1610.88 387.535 1611.3 386.812 1611.46 385.953C1611.62 385.094 1611.5 384.254 1611.11 383.434C1610.76 382.652 1610.13 382.066 1609.23 381.676L1595.05 375.113H1562.95L1548.77 381.676C1547.87 382.066 1547.22 382.652 1546.83 383.434C1546.48 384.254 1546.38 385.094 1546.54 385.953C1546.7 386.812 1547.12 387.535 1547.83 388.121C1548.53 388.746 1549.55 389.059 1550.88 389.059Z" fill="#212B37"/>
<path d="M921.824 378.512C921.824 383.082 923.289 386.754 926.219 389.527C929.148 392.34 932.996 393.746 937.762 393.746H981.18C985.984 393.746 989.832 392.34 992.723 389.527C995.652 386.754 997.117 383.082 997.117 378.512V284.879C997.117 280.309 995.652 276.637 992.723 273.863C989.832 271.051 985.984 269.645 981.18 269.645H937.762C932.996 269.645 929.148 271.051 926.219 273.863C923.289 276.637 921.824 280.309 921.824 284.879V378.512ZM931.258 373.883V289.508H987.684V373.883H931.258ZM959.559 387.945C958.152 387.945 956.941 387.438 955.926 386.422C954.949 385.445 954.461 384.254 954.461 382.848C954.461 381.441 954.949 380.25 955.926 379.273C956.941 378.297 958.152 377.809 959.559 377.809C960.926 377.809 962.098 378.297 963.074 379.273C964.09 380.25 964.598 381.441 964.598 382.848C964.598 384.254 964.09 385.445 963.074 386.422C962.098 387.438 960.926 387.945 959.559 387.945ZM948.367 279.898C948.367 279.234 948.562 278.707 948.953 278.316C949.383 277.887 949.93 277.672 950.594 277.672H968.406C969.07 277.672 969.598 277.887 969.988 278.316C970.418 278.707 970.633 279.234 970.633 279.898C970.633 280.562 970.418 281.09 969.988 281.48C969.598 281.871 969.07 282.066 968.406 282.066H950.594C949.93 282.066 949.383 281.871 948.953 281.48C948.562 281.09 948.367 280.562 948.367 279.898Z" fill="#212B37"/>
<path d="M337.5 388.18C341.562 388.18 345.371 386.773 348.926 383.961C352.52 381.148 355.664 377.203 358.359 372.125C361.094 367.047 363.223 361.09 364.746 354.254C366.309 347.379 367.09 339.898 367.09 331.812C367.09 323.727 366.328 316.246 364.805 309.371C363.281 302.457 361.152 296.461 358.418 291.383C355.723 286.266 352.578 282.301 348.984 279.488C345.43 276.676 341.602 275.27 337.5 275.27C333.398 275.27 329.551 276.676 325.957 279.488C322.402 282.301 319.277 286.266 316.582 291.383C313.887 296.461 311.758 302.457 310.195 309.371C308.672 316.246 307.91 323.727 307.91 331.812C307.91 339.898 308.672 347.379 310.195 354.254C311.758 361.09 313.887 367.047 316.582 372.125C319.316 377.203 322.461 381.148 326.016 383.961C329.609 386.773 333.438 388.18 337.5 388.18ZM337.5 282.359C340.352 282.359 343.086 283.688 345.703 286.344C348.32 288.961 350.645 292.555 352.676 297.125C354.707 301.695 356.309 306.969 357.48 312.945C358.652 318.883 359.238 325.172 359.238 331.812C359.238 338.375 358.652 344.605 357.48 350.504C356.309 356.402 354.707 361.656 352.676 366.266C350.645 370.836 348.32 374.43 345.703 377.047C343.086 379.703 340.352 381.031 337.5 381.031C334.648 381.031 331.914 379.703 329.297 377.047C326.68 374.43 324.355 370.836 322.324 366.266C320.293 361.656 318.691 356.402 317.52 350.504C316.348 344.605 315.762 338.375 315.762 331.812C315.762 325.172 316.348 318.883 317.52 312.945C318.691 306.969 320.293 301.695 322.324 297.125C324.355 292.555 326.68 288.961 329.297 286.344C331.914 283.688 334.648 282.359 337.5 282.359ZM333.691 276.09V387.066H341.367V276.09H333.691ZM337.5 353.727C331.484 353.727 325.781 354.234 320.391 355.25C315 356.227 310.137 357.652 305.801 359.527C301.504 361.363 297.988 363.531 295.254 366.031L301.172 370.895C303.75 368.863 306.836 367.145 310.43 365.738C314.062 364.293 318.145 363.219 322.676 362.516C327.246 361.773 332.188 361.402 337.5 361.402C342.812 361.402 347.734 361.773 352.266 362.516C356.836 363.219 360.918 364.293 364.512 365.738C368.145 367.145 371.25 368.863 373.828 370.895L379.746 366.031C377.012 363.531 373.477 361.363 369.141 359.527C364.844 357.652 360 356.227 354.609 355.25C349.219 354.234 343.516 353.727 337.5 353.727ZM391.582 327.828H283.418V335.504H391.582V327.828ZM337.5 309.957C343.516 309.957 349.219 309.469 354.609 308.492C360 307.477 364.844 306.051 369.141 304.215C373.477 302.34 377.012 300.152 379.746 297.652L373.828 292.789C371.25 294.82 368.145 296.559 364.512 298.004C360.918 299.41 356.836 300.484 352.266 301.227C347.734 301.93 342.812 302.281 337.5 302.281C332.188 302.281 327.246 301.93 322.676 301.227C318.145 300.484 314.062 299.41 310.43 298.004C306.836 296.559 303.75 294.82 301.172 292.789L295.254 297.652C297.988 300.152 301.504 302.34 305.801 304.215C310.137 306.051 315 307.477 320.391 308.492C325.781 309.469 331.484 309.957 337.5 309.957ZM337.5 391.461C345.664 391.461 353.34 389.898 360.527 386.773C367.754 383.648 374.121 379.332 379.629 373.824C385.137 368.316 389.453 361.969 392.578 354.781C395.703 347.555 397.266 339.859 397.266 331.695C397.266 323.531 395.703 315.855 392.578 308.668C389.453 301.441 385.137 295.074 379.629 289.566C374.121 284.059 367.754 279.742 360.527 276.617C353.301 273.492 345.605 271.93 337.441 271.93C329.277 271.93 321.582 273.492 314.355 276.617C307.168 279.742 300.82 284.059 295.312 289.566C289.844 295.074 285.547 301.441 282.422 308.668C279.297 315.855 277.734 323.531 277.734 331.695C277.734 339.859 279.297 347.555 282.422 354.781C285.547 361.969 289.863 368.316 295.371 373.824C300.879 379.332 307.227 383.648 314.414 386.773C321.641 389.898 329.336 391.461 337.5 391.461ZM337.5 383.492C330.43 383.492 323.77 382.125 317.52 379.391C311.27 376.695 305.762 372.965 300.996 368.199C296.23 363.434 292.48 357.926 289.746 351.676C287.051 345.426 285.703 338.766 285.703 331.695C285.703 324.625 287.051 317.965 289.746 311.715C292.48 305.465 296.211 299.957 300.938 295.191C305.703 290.426 311.211 286.695 317.461 284C323.711 281.266 330.371 279.898 337.441 279.898C344.512 279.898 351.172 281.266 357.422 284C363.672 286.695 369.18 290.426 373.945 295.191C378.75 299.957 382.5 305.465 385.195 311.715C387.93 317.965 389.297 324.625 389.297 331.695C389.297 338.766 387.93 345.426 385.195 351.676C382.5 357.926 378.77 363.434 374.004 368.199C369.238 372.965 363.73 376.695 357.48 379.391C351.23 382.125 344.57 383.492 337.5 383.492Z" fill="#212B37"/>
<circle cx="337.5" cy="703.5" r="37.5" fill="#33CC33"/>
<path d="M316 702L330 725.5L360.5 681" stroke="white" stroke-width="10" stroke-linejoin="bevel"/>
<circle cx="959.5" cy="703.5" r="37.5" fill="#33CC33"/>
<path d="M938 702L952 725.5L982.5 681" stroke="white" stroke-width="10" stroke-linejoin="bevel"/>
<circle cx="1578.5" cy="703.5" r="37.5" fill="white"/>
<g filter="url(#filter0_d_26_46)">
<mask id="path-15-outside-1_26_46" maskUnits="userSpaceOnUse" x="100.246" y="103.435" width="272.638" height="298.093" fill="black">
<rect fill="white" x="100.246" y="103.435" width="272.638" height="298.093"/>
<path d="M290.081 158.698C264.055 136.803 224.742 138.776 202.448 163.105L163.308 205.849C158.002 211.563 153.95 218.325 151.411 225.698C148.872 233.071 147.902 240.894 148.564 248.664C149.658 261.761 155.088 274.118 163.994 283.782C161.594 291.003 160.689 298.637 161.335 306.219C162.015 314.144 164.271 321.854 167.969 328.896C171.668 335.938 176.734 342.171 182.873 347.23C208.985 369.101 248.229 367.147 270.523 342.818L309.662 300.074C314.967 294.358 319.018 287.597 321.557 280.224C324.096 272.851 325.067 265.029 324.407 257.259C323.318 244.149 317.884 231.778 308.968 222.107C311.368 214.886 312.273 207.252 311.627 199.67C310.948 191.743 308.691 184.032 304.989 176.99C301.288 169.948 296.216 163.717 290.072 158.663"/>
</mask>
<path d="M290.081 158.698C264.055 136.803 224.742 138.776 202.448 163.105L163.308 205.849C158.002 211.563 153.95 218.325 151.411 225.698C148.872 233.071 147.902 240.894 148.564 248.664C149.658 261.761 155.088 274.118 163.994 283.782C161.594 291.003 160.689 298.637 161.335 306.219C162.015 314.144 164.271 321.854 167.969 328.896C171.668 335.938 176.734 342.171 182.873 347.23C208.985 369.101 248.229 367.147 270.523 342.818L309.662 300.074C314.967 294.358 319.018 287.597 321.557 280.224C324.096 272.851 325.067 265.029 324.407 257.259C323.318 244.149 317.884 231.778 308.968 222.107C311.368 214.886 312.273 207.252 311.627 199.67C310.948 191.743 308.691 184.032 304.989 176.99C301.288 169.948 296.216 163.717 290.072 158.663" fill="#FF3E00"/>
<path d="M202.448 163.105L187.703 149.593L187.698 149.599L202.448 163.105ZM163.308 205.849L177.965 219.456L178.012 219.406L178.059 219.355L163.308 205.849ZM148.564 248.664L168.495 246.999L168.493 246.983L168.492 246.966L148.564 248.664ZM163.994 283.782L182.973 290.09L186.693 278.9L178.701 270.228L163.994 283.782ZM161.335 306.219L141.407 307.916L141.407 307.923L141.408 307.93L161.335 306.219ZM182.873 347.23L195.715 331.898L195.654 331.846L195.592 331.796L182.873 347.23ZM270.523 342.818L285.268 356.33L285.273 356.324L270.523 342.818ZM309.662 300.074L295.002 286.471L294.957 286.519L294.912 286.568L309.662 300.074ZM324.407 257.259L304.476 258.915L304.477 258.933L304.479 258.951L324.407 257.259ZM308.968 222.107L289.989 215.798L286.268 226.991L294.263 235.663L308.968 222.107ZM311.627 199.67L331.555 197.972L331.554 197.961L311.627 199.67ZM302.956 143.393C269.145 114.95 217.598 116.969 187.703 149.593L217.194 176.617C231.886 160.583 258.964 158.657 277.206 174.003L302.956 143.393ZM187.698 149.599L148.558 192.342L178.059 219.355L217.199 176.612L187.698 149.599ZM148.652 192.241C141.449 199.999 135.947 209.177 132.501 219.186L170.321 232.21C171.952 227.473 174.556 223.128 177.965 219.456L148.652 192.241ZM132.501 219.186C129.054 229.195 127.737 239.815 128.636 250.362L168.492 246.966C168.066 241.974 168.689 236.948 170.321 232.21L132.501 219.186ZM128.633 250.33C130.098 267.859 137.366 284.4 149.287 297.336L178.701 270.228C172.81 263.836 169.218 255.662 168.495 246.999L128.633 250.33ZM145.015 277.473C141.758 287.271 140.531 297.629 141.407 307.916L181.262 304.522C180.847 299.645 181.429 294.735 182.973 290.09L145.015 277.473ZM141.408 307.93C142.316 318.507 145.327 328.797 150.263 338.195L185.676 319.597C183.215 314.911 181.714 309.781 181.261 304.508L141.408 307.93ZM150.263 338.195C155.199 347.594 161.961 355.912 170.153 362.664L195.592 331.796C191.508 328.43 188.137 324.282 185.676 319.597L150.263 338.195ZM170.031 362.562C203.896 390.927 255.356 388.972 285.268 356.33L255.777 329.306C241.101 345.321 214.074 347.275 195.715 331.898L170.031 362.562ZM285.273 356.324L324.413 313.581L294.912 286.568L255.772 329.311L285.273 356.324ZM324.323 313.678C331.522 305.92 337.021 296.743 340.467 286.736L302.647 273.712C301.015 278.451 298.411 282.797 295.002 286.471L324.323 313.678ZM340.467 286.736C343.913 276.729 345.231 266.112 344.335 255.566L304.479 258.951C304.903 263.945 304.279 268.973 302.647 273.712L340.467 286.736ZM344.338 255.602C342.88 238.055 335.607 221.496 323.672 208.55L294.263 235.663C300.161 242.061 303.755 250.243 304.476 258.915L344.338 255.602ZM327.947 228.415C331.203 218.618 332.431 208.26 331.555 197.972L291.699 201.367C292.115 206.243 291.533 211.154 289.989 215.798L327.947 228.415ZM331.554 197.961C330.647 187.379 327.634 177.086 322.692 167.685L287.286 186.296C289.748 190.979 291.248 196.107 291.7 201.378L331.554 197.961ZM322.692 167.685C317.751 158.283 310.98 149.965 302.777 143.218L277.366 174.109C281.452 177.47 284.824 181.613 287.286 186.296L322.692 167.685Z" fill="white" mask="url(#path-15-outside-1_26_46)"/>
</g>
<path d="M290.081 158.698C264.055 136.803 224.742 138.776 202.448 163.105L163.308 205.849C158.002 211.563 153.95 218.325 151.411 225.698C148.872 233.071 147.902 240.894 148.564 248.664C149.658 261.761 155.088 274.118 163.994 283.782C161.594 291.003 160.689 298.637 161.335 306.219C162.015 314.144 164.271 321.854 167.969 328.896C171.668 335.938 176.734 342.171 182.873 347.23C208.985 369.101 248.229 367.147 270.523 342.818L309.662 300.074C314.967 294.358 319.018 287.597 321.557 280.224C324.096 272.851 325.067 265.029 324.407 257.259C323.318 244.149 317.884 231.778 308.968 222.107C311.368 214.886 312.273 207.252 311.627 199.67C310.948 191.743 308.691 184.032 304.989 176.99C301.288 169.948 296.216 163.717 290.072 158.663" fill="#FF3E00"/>
<path d="M243.232 333.726C236.326 337.645 228.384 339.35 220.478 338.61C212.572 337.871 205.084 334.723 199.024 329.591C195.326 326.555 192.271 322.81 190.04 318.577C187.809 314.344 186.446 309.708 186.031 304.941C185.899 303.373 185.877 301.798 185.965 300.227L186.131 297.274L189.013 298.343C195.696 300.953 202.778 302.4 209.95 302.619L211.811 302.691L212.099 304.455C212.56 306.997 213.9 309.297 215.884 310.952C217.715 312.546 219.997 313.53 222.413 313.766C224.829 314.003 227.259 313.482 229.365 312.274C230.313 311.727 231.172 311.038 231.91 310.23L270.969 267.527C271.929 266.487 272.663 265.26 273.126 263.923C273.588 262.585 273.768 261.166 273.655 259.756C273.541 258.323 273.144 256.927 272.485 255.65C271.827 254.372 270.921 253.238 269.82 252.314C267.992 250.767 265.734 249.817 263.35 249.593C260.966 249.369 258.57 249.883 256.487 251.063C255.535 251.615 254.672 252.306 253.924 253.112L238.928 269.429C236.474 272.109 233.621 274.395 230.471 276.206C223.561 280.131 215.613 281.84 207.701 281.102C199.788 280.365 192.293 277.215 186.229 272.08C182.543 269.033 179.503 265.282 177.287 261.045C175.07 256.808 173.722 252.171 173.321 247.407C172.93 242.734 173.515 238.031 175.04 233.597C176.565 229.163 178.997 225.095 182.18 221.651L221.255 178.944C223.709 176.264 226.562 173.978 229.713 172.167C236.62 168.244 244.566 166.536 252.475 167.275C260.384 168.014 267.876 171.163 273.938 176.298C277.636 179.334 280.69 183.078 282.922 187.311C285.153 191.544 286.516 196.181 286.931 200.948C287.063 202.516 287.085 204.091 286.997 205.662L286.831 208.615L283.949 207.546C277.265 204.935 270.184 203.489 263.012 203.27L261.151 203.197L260.863 201.434C260.401 198.891 259.062 196.592 257.078 194.936C255.252 193.386 252.993 192.435 250.609 192.211C248.224 191.987 245.828 192.502 243.745 193.685C242.797 194.232 241.938 194.922 241.2 195.73L201.993 238.362C201.032 239.399 200.298 240.626 199.839 241.963C199.379 243.301 199.204 244.719 199.324 246.128C199.429 247.563 199.822 248.962 200.482 250.241C201.141 251.52 202.051 252.652 203.159 253.57C204.987 255.117 207.245 256.067 209.629 256.291C212.014 256.515 214.409 256.001 216.492 254.821C217.444 254.269 218.308 253.578 219.055 252.772L233.982 236.473C236.436 233.793 239.289 231.507 242.44 229.697C249.349 225.771 257.297 224.062 265.21 224.8C273.122 225.538 280.617 228.687 286.682 233.823C290.375 236.863 293.424 240.61 295.649 244.845C297.874 249.079 299.231 253.716 299.641 258.482C300.032 263.155 299.447 267.858 297.922 272.292C296.397 276.726 293.965 280.794 290.782 284.237L251.707 326.945C249.253 329.625 246.4 331.911 243.249 333.722" fill="white"/>
<g filter="url(#filter1_d_26_46)">
<path d="M413.348 225.246L515.066 216.868L598.679 274.906L551.71 392.791L461.614 415.57L395.082 350.822L413.348 225.246Z" fill="#D9D9D9"/>
<path d="M412.527 215.28C407.885 215.662 404.122 219.198 403.452 223.807L385.186 349.383C384.724 352.554 385.811 355.754 388.107 357.989L454.64 422.737C457.129 425.159 460.698 426.117 464.065 425.265L554.161 402.486C557.269 401.7 559.813 399.471 560.999 396.492L607.969 278.607C609.691 274.284 608.204 269.344 604.381 266.691L520.768 208.654C518.863 207.331 516.557 206.712 514.245 206.902L412.527 215.28Z" stroke="white" stroke-width="20" stroke-linejoin="round"/>
</g>
<path d="M598.679 274.906L514.973 216.844L461.717 415.598L551.709 392.791L598.679 274.906Z" fill="#C3002F"/>
<path d="M413.348 225.246L514.871 216.816L461.615 415.57L395.082 350.822L413.348 225.246Z" fill="#DD0031"/>
<path d="M438.244 359.068L416.768 353.313L509.081 238.836L497.766 281.065L438.244 359.068Z" fill="white"/>
<path d="M510.311 378.378L531.787 384.132L509.08 238.836L497.765 281.064L510.311 378.378Z" fill="white"/>
<rect x="458.328" y="313.434" width="59.2177" height="18.8129" transform="rotate(15 458.328 313.434)" fill="white"/>
<g filter="url(#filter2_d_26_46)">
<path d="M408.379 571.883C412.281 572.147 416.361 572.241 420.589 572.176C420.538 577.167 420.68 581.945 421.017 586.463C423.008 613.179 431.947 631.16 443.565 634.268C455.533 637.469 473.604 625.685 489.285 602.292C491.466 599.038 493.589 595.545 495.648 591.843C499.939 594.376 504.142 596.636 508.216 598.598C532.357 610.221 552.397 611.452 560.893 602.939C569.646 594.17 568.461 572.631 556.026 547.359C554.336 543.922 552.419 540.419 550.297 536.868C553.297 535.161 556.155 533.416 558.857 531.64C583.104 515.698 595.571 497.629 592.302 485.427C589.164 473.717 570.46 464.868 543.395 462.977C539.086 462.677 534.558 462.548 529.847 462.591C529.883 458.88 529.802 455.286 529.599 451.829C527.901 422.851 518.475 403.025 506.273 399.762C494.565 396.632 477.553 408.411 462.393 430.913C459.977 434.498 457.6 438.359 455.281 442.466C452.076 440.576 448.915 438.847 445.811 437.293C419.86 424.296 397.98 422.558 389.057 431.504C380.493 440.082 382.207 460.704 394.13 485.076C396.041 488.981 398.213 492.99 400.629 497.073C396.1 499.606 391.871 502.204 387.99 504.843C365.839 519.905 354.726 536.635 357.838 548.251C361.046 560.222 380.28 569.983 408.379 571.883Z" fill="white"/>
<path d="M387.157 493.44C386.461 492.11 385.791 490.787 385.148 489.471L385.147 489.47C378.828 476.552 374.943 464.107 373.953 453.278C372.995 442.81 374.611 431.822 381.977 424.442C381.978 424.441 381.979 424.44 381.98 424.439C389.56 416.842 400.993 415.162 412.001 416.215C423.396 417.306 436.562 421.477 450.288 428.351L387.157 493.44ZM387.157 493.44C385.516 494.474 383.919 495.519 382.368 496.573L382.367 496.573C370.6 504.575 361.256 513.348 355.195 522.181C349.302 530.77 345.528 540.947 348.179 550.84C350.89 560.957 359.639 568.165 369.458 572.864C379.611 577.723 392.756 580.849 407.704 581.86L407.704 581.86C408.709 581.928 409.722 581.985 410.743 582.032C410.818 583.784 410.918 585.51 411.045 587.206C412.102 601.397 415.036 613.873 419.661 623.536C424.158 632.931 431.088 641.282 440.98 643.928L440.982 643.929C451.099 646.634 461.714 642.656 470.69 636.499C479.972 630.131 489.249 620.305 497.592 607.86L497.592 607.859C498.156 607.018 498.715 606.163 499.269 605.297C500.816 606.103 502.352 606.873 503.876 607.607L503.878 607.609C516.702 613.782 528.976 617.472 539.658 618.29C550.044 619.086 560.739 617.25 567.971 610.002C575.371 602.589 577.226 591.406 576.375 580.556C575.494 569.333 571.614 556.389 564.999 542.944C564.584 542.1 564.157 541.255 563.719 540.408C563.93 540.271 564.141 540.133 564.35 539.996C577.176 531.563 587.382 522.259 594.036 512.943C600.463 503.944 604.739 493.206 601.961 482.839C599.262 472.767 590.564 465.862 581.022 461.445C571.154 456.877 558.437 454.004 544.092 453.002L544.091 453.002C542.634 452.9 541.158 452.817 539.663 452.753C539.639 452.248 539.612 451.745 539.582 451.244L539.582 451.244C538.684 435.916 535.721 422.425 530.975 412.006C526.39 401.942 519.224 392.874 508.856 390.102C498.785 387.409 488.458 391.494 479.866 397.552C470.978 403.818 462.136 413.398 454.1 425.324L387.157 493.44ZM451.663 429.049C451.204 428.813 450.746 428.581 450.289 428.352L451.663 429.049Z" stroke="white" stroke-width="20" stroke-miterlimit="10"/>
</g>
<path d="M480.937 538.72C493.018 535.483 500.187 523.065 496.95 510.984C493.713 498.904 481.296 491.734 469.215 494.972C457.134 498.209 449.965 510.626 453.202 522.707C456.439 534.787 468.856 541.957 480.937 538.72Z" fill="#00D8FF"/>
<path d="M463.16 472.375C492.523 464.507 520.933 461.411 543.395 462.977C570.461 464.868 589.164 473.717 592.302 485.427C595.571 497.629 583.104 515.698 558.857 531.64C540.525 543.695 514.98 554.274 487.106 561.743C458.523 569.402 430.591 573.384 408.379 571.883C380.28 569.983 361.046 560.222 357.838 548.251C354.726 536.635 365.839 519.905 387.99 504.843C406.708 492.118 433.507 480.32 463.16 472.375V472.375Z" stroke="#00D8FF" stroke-width="10" stroke-miterlimit="10"/>
<path d="M430.443 505.112C438.294 475.745 449.809 449.586 462.393 430.913C477.554 408.411 494.565 396.632 506.274 399.762C518.475 403.025 527.902 422.851 529.6 451.829C530.883 473.737 527.287 501.143 519.829 529.027C512.186 557.611 501.678 583.801 489.286 602.292C473.605 625.685 455.533 637.469 443.566 634.268C431.948 631.16 423.008 613.178 421.017 586.463C419.334 563.873 422.506 534.767 430.443 505.112V505.112Z" stroke="#00D8FF" stroke-width="10" stroke-miterlimit="10"/>
<path d="M442.459 549.812C420.939 528.338 404.028 505.303 394.13 485.076C382.207 460.704 380.494 440.082 389.057 431.504C397.98 422.558 419.86 424.296 445.811 437.293C465.435 447.12 487.378 463.925 507.809 484.312C528.757 505.212 546.206 527.39 556.027 547.359C568.462 572.631 569.646 594.17 560.893 602.939C552.398 611.452 532.357 610.221 508.216 598.598C487.826 588.776 464.19 571.494 442.459 549.812V549.812Z" stroke="#00D8FF" stroke-width="10" stroke-miterlimit="10"/>
<g filter="url(#filter3_d_26_46)">
<path d="M724.824 371.242C727.397 374.188 730.214 377.139 733.25 380.083C729.685 383.576 726.407 387.056 723.45 390.488C705.967 410.787 699.574 429.822 705.591 440.235C711.791 450.961 732.902 455.407 760.531 449.954C764.374 449.195 768.345 448.226 772.419 447.064C773.662 451.89 775.036 456.46 776.528 460.728C785.381 486.017 798.681 501.058 810.708 501.046C823.097 501.035 837.49 484.967 846.567 458.303C847.802 454.677 848.924 450.845 849.934 446.834C853.262 447.748 856.517 448.536 859.684 449.19C888.102 455.063 909.694 451.102 916.01 440.162C922.072 429.662 915.104 410.18 897.302 389.705C894.468 386.446 891.357 383.153 887.995 379.852C890.645 377.254 893.129 374.655 895.43 372.067C914.72 350.375 922.074 329.691 915.753 318.756C909.687 308.263 889.33 304.564 862.698 309.755C858.455 310.582 854.044 311.631 849.5 312.895C848.571 309.293 847.557 305.835 846.462 302.541C837.302 275.001 823.059 258.3 810.424 258.316C798.303 258.326 784.933 274.12 776.13 299.784C774.72 303.897 773.421 308.268 772.242 312.864C767.249 311.452 762.421 310.299 757.812 309.421C731.498 304.408 711.809 308.379 705.796 318.794C699.6 329.527 706.299 350.03 724.824 371.242Z" fill="white"/>
<path d="M765.285 300.768C765.734 299.336 766.196 297.926 766.671 296.541L766.671 296.54C771.337 282.937 777.39 271.39 784.347 263.033C791.072 254.953 799.985 248.327 810.411 248.316C810.413 248.316 810.414 248.316 810.416 248.316C821.148 248.304 830.42 255.201 837.459 263.73C844.745 272.559 851.105 284.817 855.95 299.384L765.285 300.768ZM765.285 300.768C763.394 300.339 761.526 299.949 759.684 299.597L759.683 299.597C745.704 296.934 732.893 296.531 722.361 298.491C712.121 300.397 702.257 304.925 697.136 313.794C691.899 322.866 692.989 334.149 696.609 344.414C700.352 355.03 707.437 366.535 717.292 377.82L717.292 377.82C717.954 378.578 718.63 379.335 719.319 380.09C718.133 381.382 716.984 382.673 715.873 383.962C706.587 394.744 699.839 405.641 696.277 415.744C692.814 425.567 691.81 436.372 696.933 445.239L696.933 445.24C702.174 454.307 712.494 459 723.194 460.993C734.261 463.054 747.768 462.666 762.467 459.765L762.468 459.764C763.462 459.568 764.461 459.359 765.466 459.138C765.99 460.802 766.531 462.433 767.089 464.029L767.09 464.032C771.792 477.465 777.863 488.754 784.837 496.885C791.619 504.792 800.479 511.056 810.718 511.046C821.192 511.036 830.412 504.44 837.482 496.165C844.795 487.607 851.205 475.711 856.034 461.526C856.337 460.636 856.633 459.737 856.922 458.828C857.168 458.88 857.414 458.932 857.66 458.983C872.692 462.089 886.488 462.727 897.78 460.844C908.688 459.026 919.304 454.456 924.67 445.162C929.884 436.131 928.616 425.098 924.992 415.228C921.245 405.02 914.284 393.996 904.849 383.144L904.848 383.143C903.89 382.041 902.905 380.939 901.894 379.836C902.233 379.462 902.57 379.087 902.903 378.713L902.903 378.712C913.107 367.239 920.552 355.604 924.562 344.881C928.437 334.522 929.782 323.042 924.411 313.752C919.193 304.726 909.003 300.313 898.643 298.52C887.928 296.667 874.902 297.188 860.786 299.939L765.285 300.768ZM856.429 300.849C856.272 300.358 856.112 299.87 855.95 299.385L856.429 300.849Z" stroke="white" stroke-width="20" stroke-miterlimit="10"/>
</g>
<path d="M799.58 399.098C810.411 405.352 824.261 401.641 830.514 390.809C836.768 379.978 833.057 366.128 822.226 359.875C811.394 353.621 797.544 357.332 791.291 368.164C785.037 378.995 788.749 392.845 799.58 399.098Z" fill="#00D8FF"/>
<path d="M833.923 339.615C860.249 354.814 882.527 372.714 897.302 389.705C915.104 410.18 922.072 429.662 916.01 440.162C909.694 451.102 888.102 455.063 859.684 449.19C838.197 444.751 812.653 434.169 787.662 419.74C762.036 404.945 739.469 388.01 724.824 371.242C706.299 350.029 699.6 329.527 705.796 318.794C711.81 308.379 731.498 304.408 757.812 309.42C780.045 313.659 807.337 324.266 833.923 339.615V339.615Z" stroke="#00D8FF" stroke-width="10" stroke-miterlimit="10"/>
<path d="M787.639 339.63C813.957 324.415 840.596 314.061 862.698 309.755C889.33 304.564 909.687 308.264 915.753 318.757C922.074 329.691 914.72 350.376 895.43 372.067C880.847 388.466 858.925 405.302 833.934 419.745C808.318 434.553 782.369 445.642 760.531 449.954C732.902 455.407 711.791 450.961 705.591 440.236C699.574 429.823 705.967 410.787 723.45 390.489C738.234 373.324 761.058 354.986 787.639 339.63V339.63Z" stroke="#00D8FF" stroke-width="10" stroke-miterlimit="10"/>
<path d="M764.529 379.734C764.496 349.332 768.827 321.086 776.13 299.785C784.933 274.121 798.303 258.327 810.424 258.317C823.059 258.3 837.302 275.001 846.462 302.541C853.389 323.366 857.022 350.765 857.053 379.628C857.088 409.219 853.743 437.239 846.567 458.304C837.49 484.967 823.098 501.035 810.708 501.046C798.681 501.058 785.381 486.017 776.529 460.728C769.057 439.365 764.564 410.432 764.529 379.734V379.734Z" stroke="#00D8FF" stroke-width="10" stroke-miterlimit="10"/>
<g filter="url(#filter4_d_26_46)">
<path fill-rule="evenodd" clip-rule="evenodd" d="M1162.02 387.917C1166.95 394.315 1167.54 403.049 1163.53 410.058L1112.72 498.822L1168.61 483.846C1176.4 481.759 1184.68 484.555 1189.61 490.939C1194.54 497.322 1195.16 506.043 1191.17 513.054L1157.98 571.39L1215.89 605.317C1222.85 609.395 1226.68 617.253 1225.6 625.247C1224.52 633.241 1218.75 639.804 1210.96 641.892L1142.16 660.326C1137.04 661.696 1131.6 660.982 1127.01 658.341L985.867 577.111C981.265 574.462 977.906 570.093 976.528 564.966C975.151 559.839 975.868 554.374 978.523 549.776L1060.06 408.556C1062.71 403.962 1067.08 400.61 1072.2 399.237L1141 380.803C1148.8 378.713 1157.09 381.519 1162.02 387.917Z" fill="white"/>
</g>
<path d="M1206.31 622.755L1086.49 553.19L1061.13 597.341L1137.22 641.27L1206.31 622.755Z" fill="#04589C"/>
<path d="M1146.17 400.122L1039.46 584.958L995.843 559.776L1077.38 418.556L1146.17 400.122Z" fill="#5FC9F8"/>
<path d="M1174.16 502.74L1105.06 521.255L1061.13 597.341L1104.7 622.371L1174.16 502.74Z" fill="#5AC7F8"/>
<path d="M1130.23 578.826L1086.49 553.19L1061.13 597.341L1104.94 622.633L1130.23 578.826Z" fill="#31B9F6"/>
<path d="M1152.7 593.594L1104.94 622.633L1130.23 578.826L1152.7 593.594Z" fill="url(#paint0_linear_26_46)"/>
<g filter="url(#filter5_d_26_46)">
<rect x="772.846" y="422.753" width="209" height="209" rx="50" transform="rotate(15 772.846 422.753)" stroke="white" stroke-width="20" shape-rendering="crispEdges"/>
</g>
<rect x="779.917" y="435" width="189" height="189" rx="40" transform="rotate(15 779.917 435)" fill="url(#paint1_linear_26_46)"/>
<path fill-rule="evenodd" clip-rule="evenodd" d="M858.289 456C878.457 519.172 807.426 565.08 757.573 518.39L762.545 499.834C797.77 514.226 839.274 500.616 839.735 451.028C840.392 451.204 841.059 451.383 841.737 451.565L858.289 456Z" fill="url(#paint2_linear_26_46)"/>
<path fill-rule="evenodd" clip-rule="evenodd" d="M860.439 456.576C918.742 539.866 810.145 611.822 756.067 524.009L758.486 514.981C799.882 548.271 868.791 534.431 852.713 454.506L860.439 456.576Z" fill="url(#paint3_linear_26_46)"/>
<path d="M759.796 526.88C798.051 579.26 893.174 570.49 865.482 470.297C951.36 565.277 809.67 655.507 759.796 526.88Z" fill="url(#paint4_linear_26_46)"/>
<path d="M845.135 575.611C818.782 583.73 788.084 568.196 770.549 545.505C781.001 582.041 822.057 623.966 873.189 607.305C877.948 606.331 890.067 609.732 895.521 626.783C900.117 609.42 901.411 600.295 893.922 588.683C912.675 547.102 901.282 519.248 876.235 488.921C886.35 514.122 883.134 540.812 871.395 557.345C846.352 531.293 835.668 514.74 817.816 484.513C826.898 506.979 832.133 519.752 843.282 544.752C824.544 524.449 815.344 511.459 799.586 487.5C814.298 524.669 824.637 543.626 845.135 575.611Z" fill="black"/>
<g filter="url(#filter6_d_26_46)">
<path d="M1108.08 142.75L1051.47 142.75C1029.68 142.75 1009.54 154.377 998.643 173.25L970.338 222.276C959.442 241.149 959.442 264.402 970.338 283.276L998.643 332.302C1009.54 351.175 1029.68 362.802 1051.47 362.802L1108.08 362.802C1129.87 362.802 1150.01 351.175 1160.91 332.302L1189.21 283.276C1200.11 264.402 1200.11 241.149 1189.21 222.276L1160.91 173.25C1150.01 154.377 1129.87 142.75 1108.08 142.75Z" fill="#D9D9D9" stroke="white" stroke-width="20"/>
<path fill-rule="evenodd" clip-rule="evenodd" d="M972.211 254.922L1079.96 253.675L1132.87 159.179C1125.41 155.032 1116.91 152.75 1108.08 152.75L1051.47 152.75C1033.25 152.75 1016.41 162.471 1007.3 178.25L978.998 227.276C974.073 235.807 971.81 245.408 972.211 254.922Z" fill="#3CDC83"/>
<path fill-rule="evenodd" clip-rule="evenodd" d="M1133.33 346.114C1125.76 350.425 1117.09 352.802 1108.08 352.802L1051.47 352.802C1033.25 352.802 1016.41 343.081 1007.3 327.302L978.999 278.276C974.814 271.027 972.551 263.006 972.211 254.922L1079.96 253.675L1133.33 346.114Z" fill="#082F42"/>
<path fill-rule="evenodd" clip-rule="evenodd" d="M1132.87 159.179C1140.8 163.592 1147.55 170.116 1152.25 178.25L1180.55 227.276C1189.66 243.055 1189.66 262.497 1180.55 278.276L1152.25 327.302C1147.64 335.278 1141.06 341.707 1133.33 346.114L1079.96 253.675L1132.87 159.179Z" fill="#4285F3"/>
<path opacity="0.15" d="M1038.03 205.461C1042.49 197.726 1050.74 192.961 1059.68 192.961L1099.88 192.961C1108.81 192.961 1117.06 197.726 1121.53 205.461L1141.63 240.276C1146.09 248.011 1146.09 257.541 1141.63 265.276L1121.53 300.09C1117.06 307.825 1108.81 312.59 1099.88 312.59L1059.68 312.59C1050.74 312.59 1042.49 307.825 1038.03 300.09L1017.93 265.276C1013.46 257.541 1013.46 248.011 1017.93 240.276L1038.03 205.461Z" fill="black"/>
<path d="M1051.08 222.065C1054.47 216.186 1060.74 212.564 1067.53 212.564L1092.02 212.565C1098.81 212.565 1105.08 216.186 1108.48 222.065L1120.72 243.276C1124.12 249.155 1124.12 256.397 1120.72 262.276L1108.48 283.487C1105.08 289.366 1098.81 292.987 1092.02 292.987L1067.53 292.987C1060.74 292.987 1054.47 289.366 1051.08 283.487L1038.83 262.276C1035.43 256.397 1035.43 249.155 1038.83 243.276L1051.08 222.065Z" fill="#D5EFFF"/>
</g>
<g filter="url(#filter7_d_26_46)">
<path fill-rule="evenodd" clip-rule="evenodd" d="M310.621 351.868C315.673 356.927 317.64 364.3 315.78 371.204L256.001 593.045C254.145 599.934 248.758 605.313 241.866 607.16C234.974 609.006 227.62 607.041 222.568 602.003L59.8777 439.772C54.8144 434.723 52.8318 427.356 54.6776 420.448C56.5234 413.54 61.9167 408.142 68.8234 406.292L153.918 383.491C160.77 381.655 168.082 383.586 173.134 388.565L186.679 401.917L191.489 383.814C193.327 376.894 198.725 371.485 205.642 369.631L291.292 346.681C298.199 344.831 305.568 346.808 310.621 351.868Z" fill="white"/>
</g>
<path d="M74 425.61L236.69 587.841L296.469 366L251.975 377.922L216.108 511.027L117.938 413.837L74 425.61Z" fill="#41B883"/>
<path d="M117.937 413.837L216.256 511.583L251.974 377.922L210.817 388.95L197.165 440.335L159.093 402.809L117.937 413.837Z" fill="#35495E"/>
<defs>
<filter id="filter0_d_26_46" x="124.362" y="123.489" width="224.246" height="266.938" filterUnits="userSpaceOnUse" color-interpolation-filters="sRGB">
<feFlood flood-opacity="0" result="BackgroundImageFix"/>
<feColorMatrix in="SourceAlpha" type="matrix" values="0 0 0 0 0 0 0 0 0 0 0 0 0 0 0 0 0 0 127 0" result="hardAlpha"/>
<feOffset dy="4"/>
<feGaussianBlur stdDeviation="2"/>
<feComposite in2="hardAlpha" operator="out"/>
<feColorMatrix type="matrix" values="0 0 0 0 0 0 0 0 0 0 0 0 0 0 0 0 0 0 0.25 0"/>
<feBlend mode="normal" in2="BackgroundImageFix" result="effect1_dropShadow_26_46"/>
<feBlend mode="normal" in="SourceGraphic" in2="effect1_dropShadow_26_46" result="shape"/>
</filter>
<filter id="filter1_d_26_46" x="371.082" y="196.868" width="251.599" height="246.702" filterUnits="userSpaceOnUse" color-interpolation-filters="sRGB">
<feFlood flood-opacity="0" result="BackgroundImageFix"/>
<feColorMatrix in="SourceAlpha" type="matrix" values="0 0 0 0 0 0 0 0 0 0 0 0 0 0 0 0 0 0 127 0" result="hardAlpha"/>
<feOffset dy="4"/>
<feGaussianBlur stdDeviation="2"/>
<feComposite in2="hardAlpha" operator="out"/>
<feColorMatrix type="matrix" values="0 0 0 0 0 0 0 0 0 0 0 0 0 0 0 0 0 0 0.25 0"/>
<feBlend mode="normal" in2="BackgroundImageFix" result="effect1_dropShadow_26_46"/>
<feBlend mode="normal" in="SourceGraphic" in2="effect1_dropShadow_26_46" result="shape"/>
</filter>
<filter id="filter2_d_26_46" x="333.31" y="379.25" width="283.521" height="283.549" filterUnits="userSpaceOnUse" color-interpolation-filters="sRGB">
<feFlood flood-opacity="0" result="BackgroundImageFix"/>
<feColorMatrix in="SourceAlpha" type="matrix" values="0 0 0 0 0 0 0 0 0 0 0 0 0 0 0 0 0 0 127 0" result="hardAlpha"/>
<feOffset dy="4"/>
<feGaussianBlur stdDeviation="2"/>
<feComposite in2="hardAlpha" operator="out"/>
<feColorMatrix type="matrix" values="0 0 0 0 0 0 0 0 0 0 0 0 0 0 0 0 0 0 0.25 0"/>
<feBlend mode="normal" in2="BackgroundImageFix" result="effect1_dropShadow_26_46"/>
<feBlend mode="normal" in="SourceGraphic" in2="effect1_dropShadow_26_46" result="shape"/>
</filter>
<filter id="filter3_d_26_46" x="679.383" y="238.316" width="262.772" height="290.729" filterUnits="userSpaceOnUse" color-interpolation-filters="sRGB">
<feFlood flood-opacity="0" result="BackgroundImageFix"/>
<feColorMatrix in="SourceAlpha" type="matrix" values="0 0 0 0 0 0 0 0 0 0 0 0 0 0 0 0 0 0 127 0" result="hardAlpha"/>
<feOffset dy="4"/>
<feGaussianBlur stdDeviation="2"/>
<feComposite in2="hardAlpha" operator="out"/>
<feColorMatrix type="matrix" values="0 0 0 0 0 0 0 0 0 0 0 0 0 0 0 0 0 0 0.25 0"/>
<feBlend mode="normal" in2="BackgroundImageFix" result="effect1_dropShadow_26_46"/>
<feBlend mode="normal" in="SourceGraphic" in2="effect1_dropShadow_26_46" result="shape"/>
</filter>
<filter id="filter4_d_26_46" x="971.843" y="380.121" width="257.937" height="288.886" filterUnits="userSpaceOnUse" color-interpolation-filters="sRGB">
<feFlood flood-opacity="0" result="BackgroundImageFix"/>
<feColorMatrix in="SourceAlpha" type="matrix" values="0 0 0 0 0 0 0 0 0 0 0 0 0 0 0 0 0 0 127 0" result="hardAlpha"/>
<feOffset dy="4"/>
<feGaussianBlur stdDeviation="2"/>
<feComposite in2="hardAlpha" operator="out"/>
<feColorMatrix type="matrix" values="0 0 0 0 0 0 0 0 0 0 0 0 0 0 0 0 0 0 0.25 0"/>
<feBlend mode="normal" in2="BackgroundImageFix" result="effect1_dropShadow_26_46"/>
<feBlend mode="normal" in="SourceGraphic" in2="effect1_dropShadow_26_46" result="shape"/>
</filter>
<filter id="filter5_d_26_46" x="716.235" y="424.235" width="261.006" height="261.006" filterUnits="userSpaceOnUse" color-interpolation-filters="sRGB">
<feFlood flood-opacity="0" result="BackgroundImageFix"/>
<feColorMatrix in="SourceAlpha" type="matrix" values="0 0 0 0 0 0 0 0 0 0 0 0 0 0 0 0 0 0 127 0" result="hardAlpha"/>
<feOffset dy="4"/>
<feGaussianBlur stdDeviation="2"/>
<feComposite in2="hardAlpha" operator="out"/>
<feColorMatrix type="matrix" values="0 0 0 0 0 0 0 0 0 0 0 0 0 0 0 0 0 0 0.25 0"/>
<feBlend mode="normal" in2="BackgroundImageFix" result="effect1_dropShadow_26_46"/>
<feBlend mode="normal" in="SourceGraphic" in2="effect1_dropShadow_26_46" result="shape"/>
</filter>
<filter id="filter6_d_26_46" x="948.166" y="132.75" width="263.221" height="248.052" filterUnits="userSpaceOnUse" color-interpolation-filters="sRGB">
<feFlood flood-opacity="0" result="BackgroundImageFix"/>
<feColorMatrix in="SourceAlpha" type="matrix" values="0 0 0 0 0 0 0 0 0 0 0 0 0 0 0 0 0 0 127 0" result="hardAlpha"/>
<feOffset dy="4"/>
<feGaussianBlur stdDeviation="2"/>
<feComposite in2="hardAlpha" operator="out"/>
<feColorMatrix type="matrix" values="0 0 0 0 0 0 0 0 0 0 0 0 0 0 0 0 0 0 0.25 0"/>
<feBlend mode="normal" in2="BackgroundImageFix" result="effect1_dropShadow_26_46"/>
<feBlend mode="normal" in="SourceGraphic" in2="effect1_dropShadow_26_46" result="shape"/>
</filter>
<filter id="filter7_d_26_46" x="49.9995" y="346" width="270.469" height="269.842" filterUnits="userSpaceOnUse" color-interpolation-filters="sRGB">
<feFlood flood-opacity="0" result="BackgroundImageFix"/>
<feColorMatrix in="SourceAlpha" type="matrix" values="0 0 0 0 0 0 0 0 0 0 0 0 0 0 0 0 0 0 127 0" result="hardAlpha"/>
<feOffset dy="4"/>
<feGaussianBlur stdDeviation="2"/>
<feComposite in2="hardAlpha" operator="out"/>
<feColorMatrix type="matrix" values="0 0 0 0 0 0 0 0 0 0 0 0 0 0 0 0 0 0 0.25 0"/>
<feBlend mode="normal" in2="BackgroundImageFix" result="effect1_dropShadow_26_46"/>
<feBlend mode="normal" in="SourceGraphic" in2="effect1_dropShadow_26_46" result="shape"/>
</filter>
<linearGradient id="paint0_linear_26_46" x1="1104.94" y1="622.633" x2="1131.9" y2="592.345" gradientUnits="userSpaceOnUse">
<stop stop-opacity="0.21"/>
<stop offset="1" stop-opacity="0"/>
</linearGradient>
<linearGradient id="paint1_linear_26_46" x1="874.417" y1="435" x2="874.417" y2="624" gradientUnits="userSpaceOnUse">
<stop stop-color="#00F5F7"/>
<stop offset="1" stop-color="#00088D"/>
</linearGradient>
<linearGradient id="paint2_linear_26_46" x1="829.906" y1="525.425" x2="791.699" y2="470.768" gradientUnits="userSpaceOnUse">
<stop stop-color="#00D9FA"/>
<stop offset="1" stop-color="#02E7F1"/>
</linearGradient>
<linearGradient id="paint3_linear_26_46" x1="847.788" y1="551.019" x2="820.765" y2="504.983" gradientUnits="userSpaceOnUse">
<stop stop-color="#03A7FF"/>
<stop offset="1" stop-color="#00D9FA"/>
</linearGradient>
<linearGradient id="paint4_linear_26_46" x1="855.263" y1="560.894" x2="818.986" y2="501.132" gradientUnits="userSpaceOnUse">
<stop stop-color="#1046D4"/>
<stop offset="1" stop-color="#03A7FF"/>
</linearGradient>
</defs>
</svg>
