<svg width="1920" height="1080" viewBox="0 0 1920 1080" fill="none" xmlns="http://www.w3.org/2000/svg">
<rect width="1920" height="1080" fill="white"/>
<rect x="95" y="170" width="492" height="740" rx="40" fill="#DDDDDD"/>
<rect x="714" y="170" width="492" height="740" rx="40" fill="#DDDDDD"/>
<rect x="1333" y="170" width="492" height="740" rx="40" fill="#DDDDDD"/>
<path d="M304.099 825L311.659 795.66L319.174 825H323.899L332.764 792.015H328.309L321.469 820.635L314.089 792.015H309.139L301.804 820.635L294.919 792.015H290.464L299.329 825H304.099ZM359.599 811.455C359.599 802.59 355.099 797.865 347.944 797.865C341.059 797.865 335.749 802.68 335.749 811.77C335.749 820.77 340.384 825.72 347.899 825.72C353.614 825.72 357.664 822.75 359.284 817.71H355.144C353.794 820.725 351.409 822.39 347.899 822.39C343.174 822.39 340.339 819.42 340.069 812.67H359.599V811.455ZM340.069 809.925C340.474 804.525 343.129 801.105 347.944 801.105C352.669 801.105 355.144 804.255 355.414 809.925H340.069ZM380.03 797.865C376.61 797.865 373.91 799.035 371.705 801.51V790.665H367.475V825H370.58L371.21 821.985C373.235 824.235 375.845 825.72 379.445 825.72C386.555 825.72 391.64 820.23 391.64 811.455C391.64 803.22 386.96 797.865 380.03 797.865ZM379.13 822.345C375.98 822.345 373.55 820.86 371.705 818.925V804.75C373.64 802.905 376.115 801.285 379.445 801.285C384.08 801.285 387.365 804.57 387.365 811.455C387.365 819.24 383.54 822.345 379.13 822.345Z" fill="#212B37"/>
<path d="M885.101 825V796.875L895.496 825H899.411L909.806 796.875V825H913.946V792.015H907.556L897.431 819.96L887.396 792.015H880.961V825H885.101ZM934.132 825.72C941.287 825.72 946.777 820.77 946.777 811.86C946.777 802.86 941.242 797.865 934.132 797.865C927.067 797.865 921.532 802.815 921.532 811.86C921.532 820.77 926.977 825.72 934.132 825.72ZM934.132 822.345C929.362 822.345 925.762 818.745 925.762 811.86C925.762 804.885 929.362 801.285 934.132 801.285C938.947 801.285 942.547 804.885 942.547 811.86C942.547 818.745 938.947 822.345 934.132 822.345ZM967.219 797.865C963.799 797.865 961.099 799.035 958.894 801.51V790.665H954.664V825H957.769L958.399 821.985C960.424 824.235 963.034 825.72 966.634 825.72C973.744 825.72 978.829 820.23 978.829 811.455C978.829 803.22 974.149 797.865 967.219 797.865ZM966.319 822.345C963.169 822.345 960.739 820.86 958.894 818.925V804.75C960.829 802.905 963.304 801.285 966.634 801.285C971.269 801.285 974.554 804.57 974.554 811.455C974.554 819.24 970.729 822.345 966.319 822.345ZM986.295 788.73V793.815H990.75V788.73H986.295ZM991.785 798.63H983.595V801.555L987.555 801.915V825H991.785V798.63ZM1010.2 821.49C1007.36 821.49 1005.43 820.275 1005.43 816.9V790.665H1001.2V817.53C1001.15 823.2 1004.84 825.225 1009.43 825.225C1010.65 825.225 1011.5 825.135 1012.67 825V821.49H1010.2ZM1040.52 811.455C1040.52 802.59 1036.02 797.865 1028.87 797.865C1021.98 797.865 1016.67 802.68 1016.67 811.77C1016.67 820.77 1021.31 825.72 1028.82 825.72C1034.54 825.72 1038.59 822.75 1040.21 817.71H1036.07C1034.72 820.725 1032.33 822.39 1028.82 822.39C1024.1 822.39 1021.26 819.42 1020.99 812.67H1040.52V811.455ZM1020.99 809.925C1021.4 804.525 1024.05 801.105 1028.87 801.105C1033.59 801.105 1036.07 804.255 1036.34 809.925H1020.99Z" fill="#212B37"/>
<path d="M1481.88 792.015V825H1492.32C1502.85 825 1508.48 819.555 1508.48 808.395C1508.48 797.37 1502.85 792.015 1492.1 792.015H1481.88ZM1492.37 795.66C1500.06 795.66 1504.02 799.485 1504.02 808.395C1504.02 817.35 1500.06 821.355 1492.59 821.355H1486.25V795.66H1492.37ZM1538.53 811.455C1538.53 802.59 1534.03 797.865 1526.87 797.865C1519.99 797.865 1514.68 802.68 1514.68 811.77C1514.68 820.77 1519.31 825.72 1526.83 825.72C1532.54 825.72 1536.59 822.75 1538.21 817.71H1534.07C1532.72 820.725 1530.34 822.39 1526.83 822.39C1522.1 822.39 1519.27 819.42 1519 812.67H1538.53V811.455ZM1519 809.925C1519.4 804.525 1522.06 801.105 1526.87 801.105C1531.6 801.105 1534.07 804.255 1534.34 809.925H1519ZM1555.31 825.72C1561.79 825.72 1565.53 822.525 1565.53 818.025C1565.53 813.48 1562.24 811.59 1558.15 810.51L1553.38 809.25C1551.17 808.62 1549.28 807.945 1549.28 805.2C1549.28 802.86 1551.26 801.105 1554.95 801.105C1558.55 801.105 1560.62 802.41 1560.94 805.65H1565.08C1564.58 800.43 1560.98 797.865 1554.95 797.865C1548.92 797.865 1545.05 801.06 1545.05 805.425C1545.05 809.88 1548.02 811.635 1551.67 812.58L1556.44 813.795C1559.86 814.695 1561.3 815.865 1561.3 818.115C1561.3 820.635 1559.41 822.48 1555.31 822.48C1551.08 822.48 1548.65 821.085 1548.2 817.71H1544.02C1544.56 822.75 1548.2 825.72 1555.31 825.72ZM1594.64 825L1583.75 809.07L1594.19 798.63H1589.19L1576.95 811.32V790.665H1572.77V825H1576.95V815.865L1581.14 811.68L1589.96 825H1594.64ZM1611.33 821.58C1608.05 821.58 1606.34 820.185 1606.34 816.945V801.915H1613.36V798.63H1606.34V792.465H1603.01L1602.29 798.63H1598.19V801.915H1602.11V817.305C1602.11 822.795 1605.21 825.225 1610.88 825.225C1612.1 825.225 1613.45 825.135 1614.48 825V821.58H1611.33ZM1631.95 825.72C1639.11 825.72 1644.6 820.77 1644.6 811.86C1644.6 802.86 1639.06 797.865 1631.95 797.865C1624.89 797.865 1619.35 802.815 1619.35 811.86C1619.35 820.77 1624.8 825.72 1631.95 825.72ZM1631.95 822.345C1627.18 822.345 1623.58 818.745 1623.58 811.86C1623.58 804.885 1627.18 801.285 1631.95 801.285C1636.77 801.285 1640.37 804.885 1640.37 811.86C1640.37 818.745 1636.77 822.345 1631.95 822.345ZM1664.99 797.865C1661.39 797.865 1658.56 799.17 1656.26 801.96L1655.59 798.63H1652.48V833.325H1656.71V822.525C1658.65 824.46 1661.12 825.72 1664.41 825.72C1671.52 825.72 1676.6 820.23 1676.6 811.455C1676.6 803.22 1671.92 797.865 1664.99 797.865ZM1664.09 822.345C1660.99 822.345 1658.6 820.86 1656.71 818.97V804.75C1658.69 802.86 1661.12 801.285 1664.41 801.285C1669.04 801.285 1672.33 804.57 1672.33 811.455C1672.33 819.24 1668.5 822.345 1664.09 822.345Z" fill="#212B37"/>
<path d="M1522.22 358.121C1522.22 363.238 1523.45 367.027 1525.91 369.488C1528.41 371.949 1532.16 373.18 1537.16 373.18H1620.84C1625.84 373.18 1629.57 371.949 1632.03 369.488C1634.53 367.027 1635.78 363.238 1635.78 358.121V287.691C1635.78 282.574 1634.51 278.785 1631.97 276.324C1629.47 273.863 1625.72 272.633 1620.72 272.633H1537.28C1532.28 272.633 1528.51 273.863 1525.97 276.324C1523.47 278.785 1522.22 282.574 1522.22 287.691V358.121ZM1531.66 348.512V287.867C1531.66 285.797 1532.11 284.312 1533 283.414C1533.94 282.516 1535.43 282.066 1537.46 282.066H1620.54C1622.57 282.066 1624.04 282.516 1624.94 283.414C1625.88 284.312 1626.34 285.797 1626.34 287.867V348.512C1626.34 350.582 1625.88 352.066 1624.94 352.965C1624.04 353.824 1622.57 354.254 1620.54 354.254H1537.46C1535.43 354.254 1533.94 353.824 1533 352.965C1532.11 352.066 1531.66 350.582 1531.66 348.512ZM1612.11 367.086C1611.05 367.086 1610.11 366.676 1609.29 365.855C1608.51 365.035 1608.12 364.078 1608.12 362.984C1608.12 361.93 1608.51 361.012 1609.29 360.23C1610.11 359.41 1611.05 359 1612.11 359C1613.24 359 1614.2 359.41 1614.98 360.23C1615.8 361.012 1616.21 361.93 1616.21 362.984C1616.21 364.078 1615.8 365.035 1614.98 365.855C1614.2 366.676 1613.24 367.086 1612.11 367.086ZM1579 380.211C1583.18 380.211 1587.09 379.977 1590.72 379.508C1594.35 379.078 1597.63 378.434 1600.56 377.574C1603.53 376.715 1606.03 375.68 1608.06 374.469C1610.13 373.297 1611.66 371.969 1612.63 370.484H1545.37C1547.32 373.453 1551.32 375.816 1557.38 377.574C1563.47 379.332 1570.68 380.211 1579 380.211ZM1550.88 389.059H1607.12C1608.45 389.059 1609.47 388.746 1610.17 388.121C1610.88 387.535 1611.3 386.812 1611.46 385.953C1611.62 385.094 1611.5 384.254 1611.11 383.434C1610.76 382.652 1610.13 382.066 1609.23 381.676L1595.05 375.113H1562.95L1548.77 381.676C1547.87 382.066 1547.22 382.652 1546.83 383.434C1546.48 384.254 1546.38 385.094 1546.54 385.953C1546.7 386.812 1547.12 387.535 1547.83 388.121C1548.53 388.746 1549.55 389.059 1550.88 389.059Z" fill="#212B37"/>
<path d="M921.824 378.512C921.824 383.082 923.289 386.754 926.219 389.527C929.148 392.34 932.996 393.746 937.762 393.746H981.18C985.984 393.746 989.832 392.34 992.723 389.527C995.652 386.754 997.117 383.082 997.117 378.512V284.879C997.117 280.309 995.652 276.637 992.723 273.863C989.832 271.051 985.984 269.645 981.18 269.645H937.762C932.996 269.645 929.148 271.051 926.219 273.863C923.289 276.637 921.824 280.309 921.824 284.879V378.512ZM931.258 373.883V289.508H987.684V373.883H931.258ZM959.559 387.945C958.152 387.945 956.941 387.438 955.926 386.422C954.949 385.445 954.461 384.254 954.461 382.848C954.461 381.441 954.949 380.25 955.926 379.273C956.941 378.297 958.152 377.809 959.559 377.809C960.926 377.809 962.098 378.297 963.074 379.273C964.09 380.25 964.598 381.441 964.598 382.848C964.598 384.254 964.09 385.445 963.074 386.422C962.098 387.438 960.926 387.945 959.559 387.945ZM948.367 279.898C948.367 279.234 948.562 278.707 948.953 278.316C949.383 277.887 949.93 277.672 950.594 277.672H968.406C969.07 277.672 969.598 277.887 969.988 278.316C970.418 278.707 970.633 279.234 970.633 279.898C970.633 280.562 970.418 281.09 969.988 281.48C969.598 281.871 969.07 282.066 968.406 282.066H950.594C949.93 282.066 949.383 281.871 948.953 281.48C948.562 281.09 948.367 280.562 948.367 279.898Z" fill="#212B37"/>
<path d="M337.5 388.18C341.562 388.18 345.371 386.773 348.926 383.961C352.52 381.148 355.664 377.203 358.359 372.125C361.094 367.047 363.223 361.09 364.746 354.254C366.309 347.379 367.09 339.898 367.09 331.812C367.09 323.727 366.328 316.246 364.805 309.371C363.281 302.457 361.152 296.461 358.418 291.383C355.723 286.266 352.578 282.301 348.984 279.488C345.43 276.676 341.602 275.27 337.5 275.27C333.398 275.27 329.551 276.676 325.957 279.488C322.402 282.301 319.277 286.266 316.582 291.383C313.887 296.461 311.758 302.457 310.195 309.371C308.672 316.246 307.91 323.727 307.91 331.812C307.91 339.898 308.672 347.379 310.195 354.254C311.758 361.09 313.887 367.047 316.582 372.125C319.316 377.203 322.461 381.148 326.016 383.961C329.609 386.773 333.438 388.18 337.5 388.18ZM337.5 282.359C340.352 282.359 343.086 283.688 345.703 286.344C348.32 288.961 350.645 292.555 352.676 297.125C354.707 301.695 356.309 306.969 357.48 312.945C358.652 318.883 359.238 325.172 359.238 331.812C359.238 338.375 358.652 344.605 357.48 350.504C356.309 356.402 354.707 361.656 352.676 366.266C350.645 370.836 348.32 374.43 345.703 377.047C343.086 379.703 340.352 381.031 337.5 381.031C334.648 381.031 331.914 379.703 329.297 377.047C326.68 374.43 324.355 370.836 322.324 366.266C320.293 361.656 318.691 356.402 317.52 350.504C316.348 344.605 315.762 338.375 315.762 331.812C315.762 325.172 316.348 318.883 317.52 312.945C318.691 306.969 320.293 301.695 322.324 297.125C324.355 292.555 326.68 288.961 329.297 286.344C331.914 283.688 334.648 282.359 337.5 282.359ZM333.691 276.09V387.066H341.367V276.09H333.691ZM337.5 353.727C331.484 353.727 325.781 354.234 320.391 355.25C315 356.227 310.137 357.652 305.801 359.527C301.504 361.363 297.988 363.531 295.254 366.031L301.172 370.895C303.75 368.863 306.836 367.145 310.43 365.738C314.062 364.293 318.145 363.219 322.676 362.516C327.246 361.773 332.188 361.402 337.5 361.402C342.812 361.402 347.734 361.773 352.266 362.516C356.836 363.219 360.918 364.293 364.512 365.738C368.145 367.145 371.25 368.863 373.828 370.895L379.746 366.031C377.012 363.531 373.477 361.363 369.141 359.527C364.844 357.652 360 356.227 354.609 355.25C349.219 354.234 343.516 353.727 337.5 353.727ZM391.582 327.828H283.418V335.504H391.582V327.828ZM337.5 309.957C343.516 309.957 349.219 309.469 354.609 308.492C360 307.477 364.844 306.051 369.141 304.215C373.477 302.34 377.012 300.152 379.746 297.652L373.828 292.789C371.25 294.82 368.145 296.559 364.512 298.004C360.918 299.41 356.836 300.484 352.266 301.227C347.734 301.93 342.812 302.281 337.5 302.281C332.188 302.281 327.246 301.93 322.676 301.227C318.145 300.484 314.062 299.41 310.43 298.004C306.836 296.559 303.75 294.82 301.172 292.789L295.254 297.652C297.988 300.152 301.504 302.34 305.801 304.215C310.137 306.051 315 307.477 320.391 308.492C325.781 309.469 331.484 309.957 337.5 309.957ZM337.5 391.461C345.664 391.461 353.34 389.898 360.527 386.773C367.754 383.648 374.121 379.332 379.629 373.824C385.137 368.316 389.453 361.969 392.578 354.781C395.703 347.555 397.266 339.859 397.266 331.695C397.266 323.531 395.703 315.855 392.578 308.668C389.453 301.441 385.137 295.074 379.629 289.566C374.121 284.059 367.754 279.742 360.527 276.617C353.301 273.492 345.605 271.93 337.441 271.93C329.277 271.93 321.582 273.492 314.355 276.617C307.168 279.742 300.82 284.059 295.312 289.566C289.844 295.074 285.547 301.441 282.422 308.668C279.297 315.855 277.734 323.531 277.734 331.695C277.734 339.859 279.297 347.555 282.422 354.781C285.547 361.969 289.863 368.316 295.371 373.824C300.879 379.332 307.227 383.648 314.414 386.773C321.641 389.898 329.336 391.461 337.5 391.461ZM337.5 383.492C330.43 383.492 323.77 382.125 317.52 379.391C311.27 376.695 305.762 372.965 300.996 368.199C296.23 363.434 292.48 357.926 289.746 351.676C287.051 345.426 285.703 338.766 285.703 331.695C285.703 324.625 287.051 317.965 289.746 311.715C292.48 305.465 296.211 299.957 300.938 295.191C305.703 290.426 311.211 286.695 317.461 284C323.711 281.266 330.371 279.898 337.441 279.898C344.512 279.898 351.172 281.266 357.422 284C363.672 286.695 369.18 290.426 373.945 295.191C378.75 299.957 382.5 305.465 385.195 311.715C387.93 317.965 389.297 324.625 389.297 331.695C389.297 338.766 387.93 345.426 385.195 351.676C382.5 357.926 378.77 363.434 374.004 368.199C369.238 372.965 363.73 376.695 357.48 379.391C351.23 382.125 344.57 383.492 337.5 383.492Z" fill="#212B37"/>
<circle cx="337.5" cy="703.5" r="37.5" fill="white"/>
<circle cx="959.5" cy="703.5" r="37.5" fill="white"/>
<circle cx="1578.5" cy="703.5" r="37.5" fill="white"/>
</svg>
