<svg width="1920" height="1080" viewBox="0 0 1920 1080" fill="none" xmlns="http://www.w3.org/2000/svg">
<rect width="1920" height="1080" fill="white"/>
<rect x="100" y="175" width="482" height="730" rx="35" fill="#DDFFDD" stroke="#33CC33" stroke-width="10"/>
<rect x="719" y="175" width="482" height="730" rx="35" fill="#DDFFDD" stroke="#33CC33" stroke-width="10"/>
<rect x="1333" y="170" width="492" height="740" rx="40" fill="#DDDDDD"/>
<path d="M291.132 831L301.212 791.88L311.232 831H317.532L329.352 787.02H323.412L314.292 825.18L304.452 787.02H297.852L288.072 825.18L278.892 787.02H272.952L284.772 831H291.132ZM365.132 812.94C365.132 801.12 359.132 794.82 349.592 794.82C340.412 794.82 333.332 801.24 333.332 813.36C333.332 825.36 339.512 831.96 349.532 831.96C357.152 831.96 362.552 828 364.712 821.28H359.192C357.392 825.3 354.212 827.52 349.532 827.52C343.232 827.52 339.452 823.56 339.092 814.56H365.132V812.94ZM339.092 810.9C339.632 803.7 343.172 799.14 349.592 799.14C355.892 799.14 359.192 803.34 359.552 810.9H339.092ZM392.373 794.82C387.813 794.82 384.213 796.38 381.273 799.68V785.22H375.633V831H379.773L380.613 826.98C383.313 829.98 386.793 831.96 391.593 831.96C401.073 831.96 407.853 824.64 407.853 812.94C407.853 801.96 401.613 794.82 392.373 794.82ZM391.173 827.46C386.973 827.46 383.733 825.48 381.273 822.9V804C383.853 801.54 387.153 799.38 391.593 799.38C397.773 799.38 402.153 803.76 402.153 812.94C402.153 823.32 397.053 827.46 391.173 827.46Z" fill="#212B37"/>
<path d="M860.635 831V793.5L874.495 831H879.715L893.575 793.5V831H899.095V787.02H890.575L877.075 824.28L863.695 787.02H855.115V831H860.635ZM926.009 831.96C935.549 831.96 942.869 825.36 942.869 813.48C942.869 801.48 935.489 794.82 926.009 794.82C916.589 794.82 909.209 801.42 909.209 813.48C909.209 825.36 916.469 831.96 926.009 831.96ZM926.009 827.46C919.649 827.46 914.849 822.66 914.849 813.48C914.849 804.18 919.649 799.38 926.009 799.38C932.429 799.38 937.229 804.18 937.229 813.48C937.229 822.66 932.429 827.46 926.009 827.46ZM970.125 794.82C965.565 794.82 961.965 796.38 959.025 799.68V785.22H953.385V831H957.525L958.365 826.98C961.065 829.98 964.545 831.96 969.345 831.96C978.825 831.96 985.605 824.64 985.605 812.94C985.605 801.96 979.365 794.82 970.125 794.82ZM968.925 827.46C964.725 827.46 961.485 825.48 959.025 822.9V804C961.605 801.54 964.905 799.38 969.345 799.38C975.525 799.38 979.905 803.76 979.905 812.94C979.905 823.32 974.805 827.46 968.925 827.46ZM995.56 782.64V789.42H1001.5V782.64H995.56ZM1002.88 795.84H991.96V799.74L997.24 800.22V831H1002.88V795.84ZM1027.43 826.32C1023.65 826.32 1021.07 824.7 1021.07 820.2V785.22H1015.43V821.04C1015.37 828.6 1020.29 831.3 1026.41 831.3C1028.03 831.3 1029.17 831.18 1030.73 831V826.32H1027.43ZM1067.86 812.94C1067.86 801.12 1061.86 794.82 1052.32 794.82C1043.14 794.82 1036.06 801.24 1036.06 813.36C1036.06 825.36 1042.24 831.96 1052.26 831.96C1059.88 831.96 1065.28 828 1067.44 821.28H1061.92C1060.12 825.3 1056.94 827.52 1052.26 827.52C1045.96 827.52 1042.18 823.56 1041.82 814.56H1067.86V812.94ZM1041.82 810.9C1042.36 803.7 1045.9 799.14 1052.32 799.14C1058.62 799.14 1061.92 803.34 1062.28 810.9H1041.82Z" fill="#212B37"/>
<path d="M1449.18 787.02V831H1463.1C1477.14 831 1484.64 823.74 1484.64 808.86C1484.64 794.16 1477.14 787.02 1462.8 787.02H1449.18ZM1463.16 791.88C1473.42 791.88 1478.7 796.98 1478.7 808.86C1478.7 820.8 1473.42 826.14 1463.46 826.14H1455V791.88H1463.16ZM1524.7 812.94C1524.7 801.12 1518.7 794.82 1509.16 794.82C1499.98 794.82 1492.9 801.24 1492.9 813.36C1492.9 825.36 1499.08 831.96 1509.1 831.96C1516.72 831.96 1522.12 828 1524.28 821.28H1518.76C1516.96 825.3 1513.78 827.52 1509.1 827.52C1502.8 827.52 1499.02 823.56 1498.66 814.56H1524.7V812.94ZM1498.66 810.9C1499.2 803.7 1502.74 799.14 1509.16 799.14C1515.46 799.14 1518.76 803.34 1519.12 810.9H1498.66ZM1547.08 831.96C1555.72 831.96 1560.7 827.7 1560.7 821.7C1560.7 815.64 1556.32 813.12 1550.86 811.68L1544.5 810C1541.56 809.16 1539.04 808.26 1539.04 804.6C1539.04 801.48 1541.68 799.14 1546.6 799.14C1551.4 799.14 1554.16 800.88 1554.58 805.2H1560.1C1559.44 798.24 1554.64 794.82 1546.6 794.82C1538.56 794.82 1533.4 799.08 1533.4 804.9C1533.4 810.84 1537.36 813.18 1542.22 814.44L1548.58 816.06C1553.14 817.26 1555.06 818.82 1555.06 821.82C1555.06 825.18 1552.54 827.64 1547.08 827.64C1541.44 827.64 1538.2 825.78 1537.6 821.28H1532.02C1532.74 828 1537.6 831.96 1547.08 831.96ZM1599.52 831L1585 809.76L1598.92 795.84H1592.26L1575.94 812.76V785.22H1570.36V831H1575.94V818.82L1581.52 813.24L1593.28 831H1599.52ZM1621.77 826.44C1617.39 826.44 1615.11 824.58 1615.11 820.26V800.22H1624.47V795.84H1615.11V787.62H1610.67L1609.71 795.84H1604.25V800.22H1609.47V820.74C1609.47 828.06 1613.61 831.3 1621.17 831.3C1622.79 831.3 1624.59 831.18 1625.97 831V826.44H1621.77ZM1649.27 831.96C1658.81 831.96 1666.13 825.36 1666.13 813.48C1666.13 801.48 1658.75 794.82 1649.27 794.82C1639.85 794.82 1632.47 801.42 1632.47 813.48C1632.47 825.36 1639.73 831.96 1649.27 831.96ZM1649.27 827.46C1642.91 827.46 1638.11 822.66 1638.11 813.48C1638.11 804.18 1642.91 799.38 1649.27 799.38C1655.69 799.38 1660.49 804.18 1660.49 813.48C1660.49 822.66 1655.69 827.46 1649.27 827.46ZM1693.33 794.82C1688.53 794.82 1684.75 796.56 1681.69 800.28L1680.79 795.84H1676.65V842.1H1682.29V827.7C1684.87 830.28 1688.17 831.96 1692.55 831.96C1702.03 831.96 1708.81 824.64 1708.81 812.94C1708.81 801.96 1702.57 794.82 1693.33 794.82ZM1692.13 827.46C1687.99 827.46 1684.81 825.48 1682.29 822.96V804C1684.93 801.48 1688.17 799.38 1692.55 799.38C1698.73 799.38 1703.11 803.76 1703.11 812.94C1703.11 823.32 1698.01 827.46 1692.13 827.46Z" fill="#212B37"/>
<path d="M1522.22 358.121C1522.22 363.238 1523.45 367.027 1525.91 369.488C1528.41 371.949 1532.16 373.18 1537.16 373.18H1620.84C1625.84 373.18 1629.57 371.949 1632.03 369.488C1634.53 367.027 1635.78 363.238 1635.78 358.121V287.691C1635.78 282.574 1634.51 278.785 1631.97 276.324C1629.47 273.863 1625.72 272.633 1620.72 272.633H1537.28C1532.28 272.633 1528.51 273.863 1525.97 276.324C1523.47 278.785 1522.22 282.574 1522.22 287.691V358.121ZM1531.66 348.512V287.867C1531.66 285.797 1532.11 284.312 1533 283.414C1533.94 282.516 1535.43 282.066 1537.46 282.066H1620.54C1622.57 282.066 1624.04 282.516 1624.94 283.414C1625.88 284.312 1626.34 285.797 1626.34 287.867V348.512C1626.34 350.582 1625.88 352.066 1624.94 352.965C1624.04 353.824 1622.57 354.254 1620.54 354.254H1537.46C1535.43 354.254 1533.94 353.824 1533 352.965C1532.11 352.066 1531.66 350.582 1531.66 348.512ZM1612.11 367.086C1611.05 367.086 1610.11 366.676 1609.29 365.855C1608.51 365.035 1608.12 364.078 1608.12 362.984C1608.12 361.93 1608.51 361.012 1609.29 360.23C1610.11 359.41 1611.05 359 1612.11 359C1613.24 359 1614.2 359.41 1614.98 360.23C1615.8 361.012 1616.21 361.93 1616.21 362.984C1616.21 364.078 1615.8 365.035 1614.98 365.855C1614.2 366.676 1613.24 367.086 1612.11 367.086ZM1579 380.211C1583.18 380.211 1587.09 379.977 1590.72 379.508C1594.35 379.078 1597.63 378.434 1600.56 377.574C1603.53 376.715 1606.03 375.68 1608.06 374.469C1610.13 373.297 1611.66 371.969 1612.63 370.484H1545.37C1547.32 373.453 1551.32 375.816 1557.38 377.574C1563.47 379.332 1570.68 380.211 1579 380.211ZM1550.88 389.059H1607.12C1608.45 389.059 1609.47 388.746 1610.17 388.121C1610.88 387.535 1611.3 386.812 1611.46 385.953C1611.62 385.094 1611.5 384.254 1611.11 383.434C1610.76 382.652 1610.13 382.066 1609.23 381.676L1595.05 375.113H1562.95L1548.77 381.676C1547.87 382.066 1547.22 382.652 1546.83 383.434C1546.48 384.254 1546.38 385.094 1546.54 385.953C1546.7 386.812 1547.12 387.535 1547.83 388.121C1548.53 388.746 1549.55 389.059 1550.88 389.059Z" fill="#212B37"/>
<path d="M921.824 378.512C921.824 383.082 923.289 386.754 926.219 389.527C929.148 392.34 932.996 393.746 937.762 393.746H981.18C985.984 393.746 989.832 392.34 992.723 389.527C995.652 386.754 997.117 383.082 997.117 378.512V284.879C997.117 280.309 995.652 276.637 992.723 273.863C989.832 271.051 985.984 269.645 981.18 269.645H937.762C932.996 269.645 929.148 271.051 926.219 273.863C923.289 276.637 921.824 280.309 921.824 284.879V378.512ZM931.258 373.883V289.508H987.684V373.883H931.258ZM959.559 387.945C958.152 387.945 956.941 387.438 955.926 386.422C954.949 385.445 954.461 384.254 954.461 382.848C954.461 381.441 954.949 380.25 955.926 379.273C956.941 378.297 958.152 377.809 959.559 377.809C960.926 377.809 962.098 378.297 963.074 379.273C964.09 380.25 964.598 381.441 964.598 382.848C964.598 384.254 964.09 385.445 963.074 386.422C962.098 387.438 960.926 387.945 959.559 387.945ZM948.367 279.898C948.367 279.234 948.562 278.707 948.953 278.316C949.383 277.887 949.93 277.672 950.594 277.672H968.406C969.07 277.672 969.598 277.887 969.988 278.316C970.418 278.707 970.633 279.234 970.633 279.898C970.633 280.562 970.418 281.09 969.988 281.48C969.598 281.871 969.07 282.066 968.406 282.066H950.594C949.93 282.066 949.383 281.871 948.953 281.48C948.562 281.09 948.367 280.562 948.367 279.898Z" fill="#212B37"/>
<path d="M337.5 388.18C341.562 388.18 345.371 386.773 348.926 383.961C352.52 381.148 355.664 377.203 358.359 372.125C361.094 367.047 363.223 361.09 364.746 354.254C366.309 347.379 367.09 339.898 367.09 331.812C367.09 323.727 366.328 316.246 364.805 309.371C363.281 302.457 361.152 296.461 358.418 291.383C355.723 286.266 352.578 282.301 348.984 279.488C345.43 276.676 341.602 275.27 337.5 275.27C333.398 275.27 329.551 276.676 325.957 279.488C322.402 282.301 319.277 286.266 316.582 291.383C313.887 296.461 311.758 302.457 310.195 309.371C308.672 316.246 307.91 323.727 307.91 331.812C307.91 339.898 308.672 347.379 310.195 354.254C311.758 361.09 313.887 367.047 316.582 372.125C319.316 377.203 322.461 381.148 326.016 383.961C329.609 386.773 333.438 388.18 337.5 388.18ZM337.5 282.359C340.352 282.359 343.086 283.688 345.703 286.344C348.32 288.961 350.645 292.555 352.676 297.125C354.707 301.695 356.309 306.969 357.48 312.945C358.652 318.883 359.238 325.172 359.238 331.812C359.238 338.375 358.652 344.605 357.48 350.504C356.309 356.402 354.707 361.656 352.676 366.266C350.645 370.836 348.32 374.43 345.703 377.047C343.086 379.703 340.352 381.031 337.5 381.031C334.648 381.031 331.914 379.703 329.297 377.047C326.68 374.43 324.355 370.836 322.324 366.266C320.293 361.656 318.691 356.402 317.52 350.504C316.348 344.605 315.762 338.375 315.762 331.812C315.762 325.172 316.348 318.883 317.52 312.945C318.691 306.969 320.293 301.695 322.324 297.125C324.355 292.555 326.68 288.961 329.297 286.344C331.914 283.688 334.648 282.359 337.5 282.359ZM333.691 276.09V387.066H341.367V276.09H333.691ZM337.5 353.727C331.484 353.727 325.781 354.234 320.391 355.25C315 356.227 310.137 357.652 305.801 359.527C301.504 361.363 297.988 363.531 295.254 366.031L301.172 370.895C303.75 368.863 306.836 367.145 310.43 365.738C314.062 364.293 318.145 363.219 322.676 362.516C327.246 361.773 332.188 361.402 337.5 361.402C342.812 361.402 347.734 361.773 352.266 362.516C356.836 363.219 360.918 364.293 364.512 365.738C368.145 367.145 371.25 368.863 373.828 370.895L379.746 366.031C377.012 363.531 373.477 361.363 369.141 359.527C364.844 357.652 360 356.227 354.609 355.25C349.219 354.234 343.516 353.727 337.5 353.727ZM391.582 327.828H283.418V335.504H391.582V327.828ZM337.5 309.957C343.516 309.957 349.219 309.469 354.609 308.492C360 307.477 364.844 306.051 369.141 304.215C373.477 302.34 377.012 300.152 379.746 297.652L373.828 292.789C371.25 294.82 368.145 296.559 364.512 298.004C360.918 299.41 356.836 300.484 352.266 301.227C347.734 301.93 342.812 302.281 337.5 302.281C332.188 302.281 327.246 301.93 322.676 301.227C318.145 300.484 314.062 299.41 310.43 298.004C306.836 296.559 303.75 294.82 301.172 292.789L295.254 297.652C297.988 300.152 301.504 302.34 305.801 304.215C310.137 306.051 315 307.477 320.391 308.492C325.781 309.469 331.484 309.957 337.5 309.957ZM337.5 391.461C345.664 391.461 353.34 389.898 360.527 386.773C367.754 383.648 374.121 379.332 379.629 373.824C385.137 368.316 389.453 361.969 392.578 354.781C395.703 347.555 397.266 339.859 397.266 331.695C397.266 323.531 395.703 315.855 392.578 308.668C389.453 301.441 385.137 295.074 379.629 289.566C374.121 284.059 367.754 279.742 360.527 276.617C353.301 273.492 345.605 271.93 337.441 271.93C329.277 271.93 321.582 273.492 314.355 276.617C307.168 279.742 300.82 284.059 295.312 289.566C289.844 295.074 285.547 301.441 282.422 308.668C279.297 315.855 277.734 323.531 277.734 331.695C277.734 339.859 279.297 347.555 282.422 354.781C285.547 361.969 289.863 368.316 295.371 373.824C300.879 379.332 307.227 383.648 314.414 386.773C321.641 389.898 329.336 391.461 337.5 391.461ZM337.5 383.492C330.43 383.492 323.77 382.125 317.52 379.391C311.27 376.695 305.762 372.965 300.996 368.199C296.23 363.434 292.48 357.926 289.746 351.676C287.051 345.426 285.703 338.766 285.703 331.695C285.703 324.625 287.051 317.965 289.746 311.715C292.48 305.465 296.211 299.957 300.938 295.191C305.703 290.426 311.211 286.695 317.461 284C323.711 281.266 330.371 279.898 337.441 279.898C344.512 279.898 351.172 281.266 357.422 284C363.672 286.695 369.18 290.426 373.945 295.191C378.75 299.957 382.5 305.465 385.195 311.715C387.93 317.965 389.297 324.625 389.297 331.695C389.297 338.766 387.93 345.426 385.195 351.676C382.5 357.926 378.77 363.434 374.004 368.199C369.238 372.965 363.73 376.695 357.48 379.391C351.23 382.125 344.57 383.492 337.5 383.492Z" fill="#212B37"/>
<g filter="url(#filter0_d_26_65)">
<path d="M1527.39 436.249C1533.9 435.706 1540.17 433.957 1546.02 430.946C1551.62 428.065 1556.64 424.208 1560.79 419.288C1564.99 414.304 1568.1 408.638 1570.07 402.425C1572.05 396.155 1572.72 389.686 1572.18 383.181C1571.64 376.676 1569.9 370.408 1566.91 364.554C1564.53 359.909 1561.45 355.727 1557.68 352.132C1561.35 348.156 1563.42 342.707 1562.93 336.883L1562.16 327.724C1562.14 327.371 1562.14 326.686 1562.57 325.485C1562.62 325.401 1562.78 325.113 1563.14 324.622C1563.74 323.826 1564.72 322.69 1566.29 321.235C1573.73 314.358 1580.09 307.87 1585.2 301.801C1590.52 295.496 1595.01 288.987 1598.39 282.261C1601.93 275.629 1604.48 268.659 1605.73 261.393C1605.75 261.326 1605.76 261.259 1605.77 261.192C1606.91 254.177 1607.07 246.887 1606.45 239.428C1605.39 226.812 1602.02 215.005 1595.82 204.528C1589.95 194.614 1582.26 186.316 1572.8 179.884C1563.6 173.629 1553.34 169.411 1542.24 167.096C1531.47 164.587 1520.31 163.894 1508.85 164.85C1483.15 166.995 1460.88 175.856 1443.84 192.724C1426.2 209.953 1418.09 233.045 1417.57 259.49C1417.46 264.925 1419.57 270.169 1423.41 274.016C1427.25 277.863 1432.49 279.981 1437.93 279.882L1486.65 278.995C1490 279.364 1491.01 282.187 1488.27 286.018C1483.62 292.524 1478.84 298.908 1476.58 306.754C1474.42 314.284 1474.04 322.282 1474.7 330.253L1475.86 344.15C1476.34 349.919 1479.23 354.911 1483.45 358.223C1480.37 362.47 1478.09 367.148 1476.53 372.097C1474.55 378.367 1473.87 384.836 1474.42 391.341C1474.96 397.846 1476.7 404.114 1479.69 409.968C1482.49 415.447 1486.17 420.362 1490.72 424.557C1491.12 424.918 1491.52 425.263 1491.94 425.591C1496.82 429.409 1502.27 432.238 1508.13 434.108C1514.4 436.107 1520.88 436.793 1527.39 436.249Z" fill="white"/>
</g>
<path d="M1494.63 328.589C1494.11 322.273 1494.5 316.833 1495.81 312.271C1497.12 307.71 1499.61 303.367 1503.28 299.244C1508.68 293.069 1513.61 287.674 1518.09 283.06C1522.77 278.429 1526.75 274.174 1530.01 270.297C1533.26 266.209 1535.7 262.507 1537.33 259.191C1539.14 255.647 1539.9 252.086 1539.6 248.506C1539.02 241.558 1536.37 236.372 1531.65 232.95C1527.12 229.299 1521.6 227.745 1515.1 228.288C1505.24 229.111 1497.91 232.479 1493.13 238.391C1488.55 244.286 1486.27 251.155 1486.29 258.999L1437.56 259.885C1438.01 237.373 1444.78 219.74 1457.87 206.986C1470.94 194.021 1488.49 186.62 1510.52 184.781C1520.17 183.975 1529.3 184.591 1537.92 186.628C1546.74 188.437 1554.61 191.702 1561.56 196.423C1568.5 201.144 1574.18 207.243 1578.61 214.718C1583.04 222.194 1585.67 230.985 1586.52 241.092C1587.03 247.198 1586.86 252.831 1586.03 257.989C1585.17 262.937 1583.37 267.964 1580.63 273.069C1578.1 278.157 1574.52 283.438 1569.91 288.912C1565.49 294.158 1559.75 300.044 1552.69 306.57C1548.18 310.762 1545.23 314.719 1543.86 318.438C1542.48 322.158 1541.93 325.808 1542.23 329.387L1543 338.547L1495.79 342.486L1494.63 328.589ZM1494.35 389.678C1494.01 385.677 1494.43 381.826 1495.6 378.123C1496.77 374.421 1498.51 371.202 1500.81 368.465C1503.31 365.5 1506.28 363.132 1509.73 361.36C1513.17 359.588 1516.89 358.536 1520.87 358.204C1524.86 357.871 1528.7 358.293 1532.39 359.469C1536.08 360.645 1539.29 362.497 1542.04 365.024C1544.98 367.323 1547.33 370.201 1549.1 373.658C1550.87 377.115 1551.92 380.844 1552.25 384.845C1552.58 388.845 1552.17 392.697 1551 396.399C1549.83 400.101 1547.99 403.434 1545.49 406.399C1543.19 409.136 1540.31 411.39 1536.87 413.162C1533.42 414.934 1529.71 415.986 1525.72 416.318C1521.74 416.651 1517.9 416.229 1514.21 415.053C1510.52 413.877 1507.21 412.139 1504.27 409.84C1501.52 407.313 1499.26 404.321 1497.5 400.864C1495.73 397.407 1494.68 393.678 1494.35 389.678Z" fill="black"/>
<circle cx="337.5" cy="703.5" r="37.5" fill="#33CC33"/>
<path d="M316 702L330 725.5L360.5 681" stroke="white" stroke-width="10" stroke-linejoin="bevel"/>
<circle cx="959.5" cy="703.5" r="37.5" fill="#33CC33"/>
<path d="M938 702L952 725.5L982.5 681" stroke="white" stroke-width="10" stroke-linejoin="bevel"/>
<circle cx="1578.5" cy="703.5" r="37.5" fill="white"/>
<g filter="url(#filter1_d_26_65)">
<mask id="path-17-outside-1_26_65" maskUnits="userSpaceOnUse" x="100.246" y="103.435" width="272.638" height="298.093" fill="black">
<rect fill="white" x="100.246" y="103.435" width="272.638" height="298.093"/>
<path d="M290.081 158.698C264.055 136.803 224.742 138.776 202.448 163.105L163.308 205.849C158.002 211.563 153.95 218.325 151.411 225.698C148.872 233.071 147.902 240.894 148.564 248.664C149.658 261.761 155.088 274.118 163.994 283.782C161.594 291.003 160.689 298.637 161.335 306.219C162.015 314.144 164.271 321.854 167.969 328.896C171.668 335.938 176.734 342.171 182.873 347.23C208.985 369.101 248.229 367.147 270.523 342.818L309.662 300.074C314.967 294.358 319.018 287.597 321.557 280.224C324.096 272.851 325.067 265.029 324.407 257.259C323.318 244.149 317.884 231.778 308.968 222.107C311.368 214.886 312.273 207.252 311.627 199.67C310.948 191.743 308.691 184.032 304.989 176.99C301.288 169.948 296.216 163.717 290.072 158.663"/>
</mask>
<path d="M290.081 158.698C264.055 136.803 224.742 138.776 202.448 163.105L163.308 205.849C158.002 211.563 153.95 218.325 151.411 225.698C148.872 233.071 147.902 240.894 148.564 248.664C149.658 261.761 155.088 274.118 163.994 283.782C161.594 291.003 160.689 298.637 161.335 306.219C162.015 314.144 164.271 321.854 167.969 328.896C171.668 335.938 176.734 342.171 182.873 347.23C208.985 369.101 248.229 367.147 270.523 342.818L309.662 300.074C314.967 294.358 319.018 287.597 321.557 280.224C324.096 272.851 325.067 265.029 324.407 257.259C323.318 244.149 317.884 231.778 308.968 222.107C311.368 214.886 312.273 207.252 311.627 199.67C310.948 191.743 308.691 184.032 304.989 176.99C301.288 169.948 296.216 163.717 290.072 158.663" fill="#FF3E00"/>
<path d="M202.448 163.105L187.703 149.593L187.698 149.599L202.448 163.105ZM163.308 205.849L177.965 219.456L178.012 219.406L178.059 219.355L163.308 205.849ZM148.564 248.664L168.495 246.999L168.493 246.983L168.492 246.966L148.564 248.664ZM163.994 283.782L182.973 290.09L186.693 278.9L178.701 270.228L163.994 283.782ZM161.335 306.219L141.407 307.916L141.407 307.923L141.408 307.93L161.335 306.219ZM182.873 347.23L195.715 331.898L195.654 331.846L195.592 331.796L182.873 347.23ZM270.523 342.818L285.268 356.33L285.273 356.324L270.523 342.818ZM309.662 300.074L295.002 286.471L294.957 286.519L294.912 286.568L309.662 300.074ZM324.407 257.259L304.476 258.915L304.477 258.933L304.479 258.951L324.407 257.259ZM308.968 222.107L289.989 215.798L286.268 226.991L294.263 235.663L308.968 222.107ZM311.627 199.67L331.555 197.972L331.554 197.961L311.627 199.67ZM302.956 143.393C269.145 114.95 217.598 116.969 187.703 149.593L217.194 176.617C231.886 160.583 258.964 158.657 277.206 174.003L302.956 143.393ZM187.698 149.599L148.558 192.342L178.059 219.355L217.199 176.612L187.698 149.599ZM148.652 192.241C141.449 199.999 135.947 209.177 132.501 219.186L170.321 232.21C171.952 227.473 174.556 223.128 177.965 219.456L148.652 192.241ZM132.501 219.186C129.054 229.195 127.737 239.815 128.636 250.362L168.492 246.966C168.066 241.974 168.689 236.948 170.321 232.21L132.501 219.186ZM128.633 250.33C130.098 267.859 137.366 284.4 149.287 297.336L178.701 270.228C172.81 263.836 169.218 255.662 168.495 246.999L128.633 250.33ZM145.015 277.473C141.758 287.271 140.531 297.629 141.407 307.916L181.262 304.522C180.847 299.645 181.429 294.735 182.973 290.09L145.015 277.473ZM141.408 307.93C142.316 318.507 145.327 328.797 150.263 338.195L185.676 319.597C183.215 314.911 181.714 309.781 181.261 304.508L141.408 307.93ZM150.263 338.195C155.199 347.594 161.961 355.912 170.153 362.664L195.592 331.796C191.508 328.43 188.137 324.282 185.676 319.597L150.263 338.195ZM170.031 362.562C203.896 390.927 255.356 388.972 285.268 356.33L255.777 329.306C241.101 345.321 214.074 347.275 195.715 331.898L170.031 362.562ZM285.273 356.324L324.413 313.581L294.912 286.568L255.772 329.311L285.273 356.324ZM324.323 313.678C331.522 305.92 337.021 296.743 340.467 286.736L302.647 273.712C301.015 278.451 298.411 282.797 295.002 286.471L324.323 313.678ZM340.467 286.736C343.913 276.729 345.231 266.112 344.335 255.566L304.479 258.951C304.903 263.945 304.279 268.973 302.647 273.712L340.467 286.736ZM344.338 255.602C342.88 238.055 335.607 221.496 323.672 208.55L294.263 235.663C300.161 242.061 303.755 250.243 304.476 258.915L344.338 255.602ZM327.947 228.415C331.203 218.618 332.431 208.26 331.555 197.972L291.699 201.367C292.115 206.243 291.533 211.154 289.989 215.798L327.947 228.415ZM331.554 197.961C330.647 187.379 327.634 177.086 322.692 167.685L287.286 186.296C289.748 190.979 291.248 196.107 291.7 201.378L331.554 197.961ZM322.692 167.685C317.751 158.283 310.98 149.965 302.777 143.218L277.366 174.109C281.452 177.47 284.824 181.613 287.286 186.296L322.692 167.685Z" fill="white" mask="url(#path-17-outside-1_26_65)"/>
</g>
<path d="M290.081 158.698C264.055 136.803 224.742 138.776 202.448 163.105L163.308 205.849C158.002 211.563 153.95 218.325 151.411 225.698C148.872 233.071 147.902 240.894 148.564 248.664C149.658 261.761 155.088 274.118 163.994 283.782C161.594 291.003 160.689 298.637 161.335 306.219C162.015 314.144 164.271 321.854 167.969 328.896C171.668 335.938 176.734 342.171 182.873 347.23C208.985 369.101 248.229 367.147 270.523 342.818L309.662 300.074C314.967 294.358 319.018 287.597 321.557 280.224C324.096 272.851 325.067 265.029 324.407 257.259C323.318 244.149 317.884 231.778 308.968 222.107C311.368 214.886 312.273 207.252 311.627 199.67C310.948 191.743 308.691 184.032 304.989 176.99C301.288 169.948 296.216 163.717 290.072 158.663" fill="#FF3E00"/>
<path d="M243.232 333.726C236.326 337.645 228.384 339.35 220.478 338.61C212.572 337.871 205.084 334.723 199.024 329.591C195.326 326.555 192.271 322.81 190.04 318.577C187.809 314.344 186.446 309.708 186.031 304.941C185.899 303.373 185.877 301.798 185.965 300.227L186.131 297.274L189.013 298.343C195.696 300.954 202.778 302.4 209.95 302.619L211.811 302.691L212.099 304.455C212.56 306.997 213.9 309.297 215.884 310.953C217.715 312.546 219.997 313.53 222.413 313.766C224.829 314.003 227.259 313.482 229.365 312.274C230.313 311.728 231.172 311.038 231.91 310.23L270.969 267.527C271.929 266.488 272.663 265.26 273.126 263.923C273.588 262.585 273.768 261.167 273.655 259.756C273.541 258.323 273.144 256.927 272.485 255.65C271.827 254.372 270.921 253.238 269.82 252.315C267.992 250.767 265.734 249.817 263.35 249.593C260.966 249.369 258.57 249.883 256.487 251.064C255.535 251.615 254.672 252.306 253.924 253.113L238.928 269.429C236.474 272.109 233.621 274.395 230.471 276.206C223.561 280.131 215.613 281.84 207.701 281.102C199.788 280.365 192.293 277.215 186.229 272.08C182.543 269.033 179.503 265.282 177.287 261.045C175.07 256.808 173.722 252.172 173.321 247.407C172.93 242.734 173.515 238.031 175.04 233.597C176.565 229.163 178.997 225.095 182.18 221.652L221.255 178.944C223.709 176.264 226.562 173.978 229.713 172.167C236.62 168.244 244.566 166.536 252.475 167.275C260.384 168.014 267.876 171.163 273.938 176.298C277.636 179.334 280.69 183.079 282.922 187.312C285.153 191.545 286.516 196.181 286.931 200.948C287.063 202.516 287.085 204.091 286.997 205.662L286.831 208.615L283.949 207.546C277.265 204.935 270.184 203.489 263.012 203.27L261.151 203.198L260.863 201.434C260.401 198.891 259.062 196.592 257.078 194.936C255.252 193.386 252.993 192.435 250.609 192.211C248.224 191.987 245.828 192.502 243.745 193.685C242.797 194.232 241.938 194.922 241.2 195.73L201.993 238.362C201.032 239.399 200.298 240.626 199.839 241.963C199.379 243.301 199.204 244.719 199.324 246.128C199.429 247.563 199.822 248.962 200.482 250.241C201.141 251.52 202.051 252.652 203.159 253.57C204.987 255.117 207.245 256.067 209.629 256.291C212.014 256.515 214.409 256.002 216.492 254.821C217.444 254.269 218.308 253.578 219.055 252.772L233.982 236.473C236.436 233.793 239.289 231.508 242.44 229.697C249.349 225.771 257.297 224.062 265.21 224.8C273.122 225.538 280.617 228.687 286.682 233.823C290.375 236.863 293.424 240.61 295.649 244.845C297.874 249.079 299.231 253.716 299.641 258.482C300.032 263.155 299.447 267.858 297.922 272.292C296.397 276.726 293.965 280.794 290.782 284.237L251.707 326.945C249.253 329.625 246.4 331.911 243.249 333.722" fill="white"/>
<g filter="url(#filter2_d_26_65)">
<path d="M413.348 225.246L515.066 216.868L598.679 274.906L551.71 392.791L461.614 415.57L395.082 350.822L413.348 225.246Z" fill="#D9D9D9"/>
<path d="M412.527 215.28C407.885 215.662 404.122 219.198 403.452 223.807L385.186 349.383C384.724 352.554 385.811 355.754 388.107 357.989L454.64 422.737C457.129 425.159 460.698 426.117 464.065 425.265L554.161 402.486C557.269 401.7 559.813 399.471 560.999 396.492L607.969 278.607C609.691 274.284 608.204 269.344 604.381 266.691L520.768 208.654C518.863 207.331 516.557 206.712 514.245 206.902L412.527 215.28Z" stroke="white" stroke-width="20" stroke-linejoin="round"/>
</g>
<path d="M598.679 274.906L514.973 216.844L461.717 415.598L551.709 392.791L598.679 274.906Z" fill="#C3002F"/>
<path d="M413.348 225.246L514.871 216.816L461.615 415.57L395.082 350.822L413.348 225.246Z" fill="#DD0031"/>
<path d="M438.244 359.068L416.768 353.313L509.081 238.836L497.766 281.065L438.244 359.068Z" fill="white"/>
<path d="M510.311 378.378L531.787 384.132L509.08 238.836L497.765 281.064L510.311 378.378Z" fill="white"/>
<rect x="458.328" y="313.434" width="59.2177" height="18.8129" transform="rotate(15 458.328 313.434)" fill="white"/>
<g filter="url(#filter3_d_26_65)">
<path d="M408.379 571.883C412.281 572.147 416.361 572.241 420.589 572.176C420.538 577.167 420.68 581.945 421.017 586.463C423.008 613.179 431.947 631.16 443.565 634.268C455.533 637.469 473.604 625.685 489.285 602.292C491.466 599.038 493.589 595.545 495.648 591.843C499.939 594.376 504.142 596.636 508.216 598.598C532.357 610.221 552.397 611.452 560.893 602.939C569.646 594.17 568.461 572.631 556.026 547.359C554.336 543.922 552.419 540.419 550.297 536.868C553.297 535.161 556.155 533.416 558.857 531.64C583.104 515.698 595.571 497.629 592.302 485.427C589.164 473.717 570.46 464.868 543.395 462.977C539.086 462.677 534.558 462.548 529.847 462.591C529.883 458.88 529.802 455.286 529.599 451.829C527.901 422.851 518.475 403.025 506.273 399.762C494.565 396.632 477.553 408.411 462.393 430.913C459.977 434.498 457.6 438.359 455.281 442.466C452.076 440.576 448.915 438.847 445.811 437.293C419.86 424.296 397.98 422.558 389.057 431.504C380.493 440.082 382.207 460.704 394.13 485.076C396.041 488.981 398.213 492.99 400.629 497.073C396.1 499.606 391.871 502.204 387.99 504.843C365.839 519.905 354.726 536.635 357.838 548.251C361.046 560.222 380.28 569.983 408.379 571.883Z" fill="white"/>
<path d="M387.157 493.44C386.461 492.11 385.791 490.787 385.148 489.471L385.147 489.47C378.828 476.552 374.943 464.107 373.953 453.278C372.995 442.81 374.611 431.822 381.977 424.442C381.978 424.441 381.979 424.44 381.98 424.439C389.56 416.842 400.993 415.162 412.001 416.215C423.396 417.306 436.562 421.477 450.288 428.351L387.157 493.44ZM387.157 493.44C385.516 494.474 383.919 495.519 382.368 496.573L382.367 496.573C370.6 504.575 361.256 513.348 355.195 522.181C349.302 530.77 345.528 540.947 348.179 550.84C350.89 560.957 359.639 568.165 369.458 572.864C379.611 577.723 392.756 580.849 407.704 581.86L407.704 581.86C408.709 581.928 409.722 581.985 410.743 582.032C410.818 583.784 410.918 585.51 411.045 587.206C412.102 601.397 415.036 613.873 419.661 623.536C424.158 632.931 431.088 641.282 440.98 643.928L440.982 643.929C451.099 646.634 461.714 642.656 470.69 636.499C479.972 630.131 489.249 620.305 497.592 607.86L497.592 607.859C498.156 607.018 498.715 606.163 499.269 605.297C500.816 606.103 502.352 606.873 503.876 607.607L503.878 607.609C516.702 613.782 528.976 617.472 539.658 618.29C550.044 619.086 560.739 617.25 567.971 610.002C575.371 602.589 577.226 591.406 576.375 580.556C575.494 569.333 571.614 556.389 564.999 542.944C564.584 542.1 564.157 541.255 563.719 540.408C563.93 540.271 564.141 540.133 564.35 539.996C577.176 531.563 587.382 522.259 594.036 512.943C600.463 503.944 604.739 493.206 601.961 482.839C599.262 472.767 590.564 465.862 581.022 461.445C571.154 456.877 558.437 454.004 544.092 453.002L544.091 453.002C542.634 452.9 541.158 452.817 539.663 452.753C539.639 452.248 539.612 451.745 539.582 451.244L539.582 451.244C538.684 435.916 535.721 422.425 530.975 412.006C526.39 401.942 519.224 392.874 508.856 390.102C498.785 387.409 488.458 391.494 479.866 397.552C470.978 403.818 462.136 413.398 454.1 425.324L387.157 493.44ZM451.663 429.049C451.204 428.813 450.746 428.581 450.289 428.352L451.663 429.049Z" stroke="white" stroke-width="20" stroke-miterlimit="10"/>
</g>
<path d="M480.937 538.72C493.018 535.483 500.187 523.065 496.95 510.985C493.713 498.904 481.296 491.735 469.215 494.972C457.134 498.209 449.965 510.626 453.202 522.707C456.439 534.788 468.856 541.957 480.937 538.72Z" fill="#00D8FF"/>
<path d="M463.16 472.375C492.523 464.507 520.933 461.411 543.395 462.977C570.461 464.868 589.164 473.717 592.302 485.427C595.571 497.629 583.104 515.698 558.857 531.64C540.525 543.695 514.98 554.274 487.106 561.743C458.523 569.402 430.591 573.384 408.379 571.883C380.28 569.983 361.046 560.222 357.838 548.251C354.726 536.635 365.839 519.905 387.99 504.843C406.708 492.118 433.507 480.32 463.16 472.375V472.375Z" stroke="#00D8FF" stroke-width="10" stroke-miterlimit="10"/>
<path d="M430.443 505.112C438.294 475.745 449.809 449.586 462.393 430.913C477.554 408.411 494.565 396.632 506.274 399.762C518.475 403.025 527.902 422.851 529.6 451.829C530.883 473.737 527.287 501.143 519.829 529.027C512.186 557.611 501.678 583.801 489.286 602.292C473.605 625.685 455.533 637.469 443.566 634.268C431.948 631.16 423.008 613.178 421.017 586.463C419.334 563.873 422.506 534.767 430.443 505.112V505.112Z" stroke="#00D8FF" stroke-width="10" stroke-miterlimit="10"/>
<path d="M442.459 549.812C420.939 528.338 404.028 505.303 394.13 485.076C382.207 460.704 380.494 440.082 389.057 431.504C397.98 422.558 419.86 424.296 445.811 437.293C465.435 447.12 487.378 463.925 507.809 484.313C528.757 505.212 546.206 527.391 556.027 547.359C568.462 572.632 569.646 594.17 560.893 602.939C552.398 611.452 532.357 610.221 508.216 598.598C487.826 588.776 464.19 571.494 442.459 549.812V549.812Z" stroke="#00D8FF" stroke-width="10" stroke-miterlimit="10"/>
<g filter="url(#filter4_d_26_65)">
<path d="M724.824 371.242C727.397 374.188 730.214 377.139 733.25 380.083C729.685 383.576 726.407 387.056 723.45 390.488C705.967 410.786 699.574 429.822 705.591 440.235C711.791 450.961 732.902 455.407 760.531 449.954C764.374 449.195 768.345 448.226 772.419 447.064C773.662 451.89 775.036 456.46 776.528 460.728C785.381 486.017 798.681 501.058 810.708 501.045C823.097 501.035 837.49 484.967 846.567 458.303C847.802 454.677 848.924 450.845 849.934 446.834C853.262 447.748 856.517 448.535 859.684 449.19C888.102 455.063 909.694 451.102 916.01 440.162C922.072 429.662 915.104 410.18 897.302 389.705C894.468 386.446 891.357 383.153 887.995 379.852C890.645 377.253 893.129 374.655 895.43 372.067C914.72 350.375 922.074 329.691 915.753 318.756C909.687 308.263 889.33 304.564 862.698 309.755C858.455 310.581 854.044 311.631 849.5 312.895C848.571 309.293 847.557 305.835 846.462 302.541C837.302 275.001 823.059 258.3 810.424 258.316C798.303 258.326 784.933 274.12 776.13 299.784C774.72 303.897 773.421 308.268 772.242 312.864C767.249 311.452 762.421 310.299 757.812 309.421C731.498 304.408 711.809 308.379 705.796 318.794C699.6 329.527 706.299 350.029 724.824 371.242Z" fill="white"/>
<path d="M765.285 300.768C765.734 299.336 766.196 297.926 766.671 296.541L766.671 296.54C771.337 282.937 777.39 271.39 784.347 263.033C791.072 254.953 799.985 248.327 810.411 248.316C810.413 248.316 810.414 248.316 810.416 248.316C821.148 248.304 830.42 255.201 837.459 263.73C844.745 272.559 851.105 284.817 855.95 299.384L765.285 300.768ZM765.285 300.768C763.394 300.339 761.526 299.948 759.684 299.597L759.683 299.597C745.704 296.934 732.893 296.531 722.361 298.491C712.121 300.397 702.257 304.925 697.136 313.794C691.899 322.866 692.989 334.149 696.609 344.414C700.352 355.03 707.437 366.535 717.292 377.82L717.292 377.82C717.954 378.578 718.63 379.335 719.319 380.09C718.133 381.382 716.984 382.673 715.873 383.962C706.587 394.744 699.839 405.641 696.277 415.744C692.814 425.567 691.81 436.372 696.933 445.239L696.933 445.24C702.174 454.307 712.494 459 723.194 460.993C734.261 463.054 747.768 462.666 762.467 459.764L762.468 459.764C763.462 459.568 764.461 459.359 765.466 459.138C765.99 460.802 766.531 462.433 767.089 464.029L767.09 464.032C771.792 477.465 777.863 488.753 784.837 496.885C791.619 504.792 800.479 511.056 810.718 511.045C821.192 511.036 830.412 504.44 837.482 496.165C844.795 487.607 851.205 475.711 856.034 461.526C856.337 460.636 856.633 459.737 856.922 458.828C857.168 458.88 857.414 458.932 857.66 458.983C872.692 462.089 886.488 462.727 897.78 460.844C908.688 459.026 919.304 454.456 924.67 445.162C929.884 436.131 928.616 425.098 924.992 415.228C921.245 405.02 914.284 393.996 904.849 383.144L904.848 383.143C903.89 382.041 902.905 380.939 901.894 379.836C902.233 379.462 902.57 379.087 902.903 378.713L902.903 378.712C913.107 367.238 920.552 355.604 924.562 344.881C928.437 334.522 929.782 323.042 924.411 313.752C919.193 304.726 909.003 300.313 898.643 298.52C887.928 296.667 874.902 297.188 860.786 299.939L765.285 300.768ZM856.429 300.849C856.272 300.358 856.112 299.87 855.95 299.385L856.429 300.849Z" stroke="white" stroke-width="20" stroke-miterlimit="10"/>
</g>
<path d="M799.58 399.098C810.411 405.352 824.261 401.641 830.514 390.809C836.768 379.978 833.057 366.128 822.226 359.875C811.394 353.621 797.544 357.332 791.291 368.164C785.037 378.995 788.749 392.845 799.58 399.098Z" fill="#00D8FF"/>
<path d="M833.923 339.615C860.249 354.814 882.527 372.714 897.302 389.705C915.104 410.18 922.072 429.662 916.01 440.162C909.694 451.102 888.102 455.063 859.684 449.19C838.197 444.752 812.653 434.169 787.662 419.74C762.036 404.945 739.469 388.01 724.824 371.242C706.299 350.03 699.6 329.527 705.796 318.794C711.81 308.379 731.498 304.408 757.812 309.421C780.045 313.659 807.337 324.266 833.923 339.615V339.615Z" stroke="#00D8FF" stroke-width="10" stroke-miterlimit="10"/>
<path d="M787.639 339.63C813.957 324.415 840.596 314.061 862.698 309.755C889.33 304.564 909.687 308.264 915.753 318.757C922.074 329.691 914.72 350.376 895.43 372.067C880.847 388.466 858.925 405.302 833.934 419.745C808.318 434.553 782.369 445.642 760.531 449.954C732.902 455.407 711.791 450.961 705.591 440.236C699.574 429.823 705.967 410.787 723.45 390.488C738.234 373.324 761.058 354.986 787.639 339.63V339.63Z" stroke="#00D8FF" stroke-width="10" stroke-miterlimit="10"/>
<path d="M764.529 379.734C764.496 349.332 768.827 321.086 776.13 299.785C784.933 274.121 798.303 258.327 810.424 258.317C823.059 258.301 837.302 275.001 846.462 302.541C853.389 323.366 857.022 350.765 857.053 379.628C857.088 409.219 853.743 437.239 846.567 458.304C837.49 484.967 823.098 501.035 810.708 501.046C798.681 501.058 785.381 486.017 776.529 460.728C769.057 439.365 764.564 410.432 764.529 379.734V379.734Z" stroke="#00D8FF" stroke-width="10" stroke-miterlimit="10"/>
<g filter="url(#filter5_d_26_65)">
<rect x="772.846" y="422.753" width="209" height="209" rx="50" transform="rotate(15 772.846 422.753)" stroke="white" stroke-width="20" shape-rendering="crispEdges"/>
</g>
<rect x="779.917" y="435" width="189" height="189" rx="40" transform="rotate(15 779.917 435)" fill="url(#paint0_linear_26_65)"/>
<path fill-rule="evenodd" clip-rule="evenodd" d="M858.289 456C878.457 519.172 807.426 565.08 757.573 518.389L762.545 499.833C797.77 514.226 839.274 500.616 839.735 451.028C840.392 451.204 841.059 451.383 841.737 451.564L858.289 456Z" fill="url(#paint1_linear_26_65)"/>
<path fill-rule="evenodd" clip-rule="evenodd" d="M860.439 456.576C918.742 539.866 810.145 611.822 756.067 524.009L758.486 514.981C799.882 548.271 868.791 534.431 852.713 454.506L860.439 456.576Z" fill="url(#paint2_linear_26_65)"/>
<path d="M759.796 526.88C798.051 579.26 893.174 570.49 865.482 470.297C951.36 565.277 809.67 655.507 759.796 526.88Z" fill="url(#paint3_linear_26_65)"/>
<path d="M845.135 575.61C818.782 583.73 788.084 568.195 770.549 545.505C781.001 582.041 822.057 623.966 873.189 607.305C877.948 606.331 890.067 609.731 895.521 626.783C900.117 609.42 901.411 600.295 893.922 588.683C912.675 547.102 901.282 519.248 876.235 488.921C886.35 514.122 883.134 540.811 871.395 557.345C846.352 531.293 835.668 514.74 817.816 484.513C826.898 506.979 832.133 519.752 843.282 544.752C824.544 524.449 815.344 511.459 799.586 487.5C814.298 524.669 824.637 543.626 845.135 575.61Z" fill="black"/>
<g filter="url(#filter6_d_26_65)">
<path d="M1108.08 142.75L1051.47 142.75C1029.68 142.75 1009.54 154.377 998.643 173.25L970.338 222.276C959.442 241.149 959.442 264.402 970.338 283.276L998.643 332.302C1009.54 351.175 1029.68 362.802 1051.47 362.802L1108.08 362.802C1129.87 362.802 1150.01 351.175 1160.91 332.302L1189.21 283.276C1200.11 264.402 1200.11 241.149 1189.21 222.276L1160.91 173.25C1150.01 154.377 1129.87 142.75 1108.08 142.75Z" fill="#D9D9D9" stroke="white" stroke-width="20"/>
<path fill-rule="evenodd" clip-rule="evenodd" d="M972.211 254.922L1079.96 253.675L1132.87 159.179C1125.41 155.032 1116.91 152.75 1108.08 152.75L1051.47 152.75C1033.25 152.75 1016.41 162.471 1007.3 178.25L978.998 227.276C974.073 235.807 971.81 245.408 972.211 254.922Z" fill="#3CDC83"/>
<path fill-rule="evenodd" clip-rule="evenodd" d="M1133.33 346.114C1125.76 350.425 1117.09 352.802 1108.08 352.802L1051.47 352.802C1033.25 352.802 1016.41 343.081 1007.3 327.302L978.999 278.276C974.814 271.027 972.551 263.006 972.211 254.922L1079.96 253.675L1133.33 346.114Z" fill="#082F42"/>
<path fill-rule="evenodd" clip-rule="evenodd" d="M1132.87 159.179C1140.8 163.592 1147.55 170.116 1152.25 178.25L1180.55 227.276C1189.66 243.055 1189.66 262.497 1180.55 278.276L1152.25 327.302C1147.64 335.278 1141.06 341.707 1133.33 346.114L1079.96 253.675L1132.87 159.179Z" fill="#4285F3"/>
<path opacity="0.15" d="M1038.03 205.461C1042.49 197.726 1050.74 192.961 1059.68 192.961L1099.88 192.961C1108.81 192.961 1117.06 197.726 1121.53 205.461L1141.63 240.276C1146.09 248.011 1146.09 257.541 1141.63 265.276L1121.53 300.09C1117.06 307.825 1108.81 312.59 1099.88 312.59L1059.68 312.59C1050.74 312.59 1042.49 307.825 1038.03 300.09L1017.93 265.276C1013.46 257.541 1013.46 248.011 1017.93 240.276L1038.03 205.461Z" fill="black"/>
<path d="M1051.08 222.065C1054.47 216.186 1060.74 212.565 1067.53 212.565L1092.02 212.565C1098.81 212.565 1105.08 216.186 1108.48 222.065L1120.72 243.276C1124.12 249.155 1124.12 256.397 1120.72 262.276L1108.48 283.487C1105.08 289.366 1098.81 292.987 1092.02 292.987L1067.53 292.987C1060.74 292.987 1054.47 289.366 1051.08 283.487L1038.83 262.276C1035.43 256.397 1035.43 249.155 1038.83 243.276L1051.08 222.065Z" fill="#D5EFFF"/>
</g>
<g filter="url(#filter7_d_26_65)">
<path d="M1674.2 467.279C1680.52 468.97 1687.01 469.444 1693.53 468.591C1699.78 467.774 1705.81 465.842 1711.37 462.616C1717.01 459.346 1721.86 455.068 1725.81 449.885C1729.8 444.655 1732.62 438.797 1734.31 432.491C1736 426.186 1736.48 419.7 1735.65 413.178C1734.98 408.003 1733.5 403.026 1731.16 398.366C1735.97 395.869 1739.75 391.438 1741.26 385.793L1743.64 376.915C1743.73 376.573 1743.97 375.93 1744.79 374.946C1744.85 374.882 1745.1 374.666 1745.61 374.327C1746.44 373.778 1747.75 373.044 1749.72 372.203C1759.04 368.248 1767.23 364.294 1774.09 360.314C1781.23 356.178 1787.66 351.573 1793.12 346.388C1798.68 341.341 1803.44 335.646 1807.08 329.232C1807.12 329.173 1807.15 329.114 1807.18 329.055C1810.63 322.838 1813.25 316.034 1815.18 308.804C1818.46 296.575 1819.28 284.324 1816.99 272.366C1814.82 261.051 1810.39 250.641 1803.66 241.389C1797.12 232.391 1788.89 224.948 1779.22 219.015C1769.94 213.013 1759.67 208.584 1748.57 205.609C1723.66 198.934 1699.7 199.74 1677.96 209.849C1655.53 220.094 1640.09 239.082 1630.65 263.792C1628.71 268.87 1628.92 274.519 1631.24 279.438C1633.55 284.357 1637.76 288.123 1642.91 289.868L1689.07 305.517C1692.09 306.995 1692.09 309.995 1688.21 312.673C1681.64 317.221 1674.97 321.61 1670.2 328.232C1665.62 334.587 1662.55 341.984 1660.48 349.71L1656.87 363.18C1655.37 368.772 1656.4 374.446 1659.25 378.991C1654.92 381.946 1651.19 385.576 1648.05 389.705C1644.06 394.935 1641.24 400.794 1639.55 407.1C1637.86 413.405 1637.37 419.891 1638.21 426.413C1638.99 432.517 1640.79 438.384 1643.66 443.874C1643.91 444.346 1644.17 444.809 1644.46 445.26C1647.76 450.504 1651.92 455.008 1656.81 458.752C1662.04 462.753 1667.89 465.588 1674.2 467.279Z" fill="white"/>
</g>
<path d="M1679.8 354.886C1681.44 348.764 1683.65 343.777 1686.42 339.927C1689.2 336.077 1693.01 332.833 1697.86 330.194C1705.03 326.21 1711.5 322.803 1717.27 319.974C1723.25 317.2 1728.43 314.541 1732.81 311.998C1737.25 309.251 1740.8 306.591 1743.45 304.02C1746.36 301.3 1748.28 298.205 1749.21 294.735C1751.01 288 1750.27 282.223 1746.99 277.406C1743.96 272.438 1739.29 269.11 1732.99 267.421C1723.43 264.86 1715.4 265.551 1708.89 269.495C1702.59 273.494 1698.12 279.188 1695.49 286.576L1649.33 270.927C1657.37 249.893 1669.7 235.588 1686.33 228.014C1703.02 220.235 1722.04 219.207 1743.39 224.928C1752.75 227.434 1761.14 231.104 1768.56 235.937C1776.24 240.62 1782.55 246.357 1787.49 253.149C1792.42 259.94 1795.71 267.602 1797.35 276.134C1798.98 284.667 1798.49 293.831 1795.86 303.627C1794.28 309.546 1792.22 314.791 1789.69 319.362C1787.21 323.73 1783.82 327.852 1779.51 331.729C1775.4 335.66 1770.25 339.421 1764.06 343.011C1758.13 346.452 1750.73 350.049 1741.88 353.802C1736.22 356.223 1732.11 358.95 1729.55 361.983C1727 365.017 1725.25 368.269 1724.32 371.738L1721.95 380.616L1676.19 368.357L1679.8 354.886ZM1658.87 412.276C1659.9 408.398 1661.6 404.915 1663.95 401.827C1666.31 398.739 1669.03 396.297 1672.13 394.502C1675.48 392.557 1679.08 391.333 1682.92 390.831C1686.76 390.329 1690.61 390.595 1694.47 391.63C1698.34 392.666 1701.81 394.361 1704.88 396.716C1707.96 399.071 1710.36 401.902 1712.09 405.209C1714.07 408.366 1715.31 411.87 1715.81 415.721C1716.3 419.572 1716.03 423.437 1714.99 427.315C1713.95 431.192 1712.26 434.675 1709.9 437.764C1707.55 440.852 1704.7 443.368 1701.34 445.313C1698.24 447.108 1694.78 448.257 1690.94 448.76C1687.1 449.262 1683.24 448.995 1679.38 447.96C1675.52 446.925 1672.05 445.23 1668.97 442.875C1665.9 440.52 1663.37 437.764 1661.38 434.606C1659.65 431.299 1658.54 427.72 1658.05 423.869C1657.55 420.018 1657.83 416.154 1658.87 412.276Z" fill="black"/>
<g filter="url(#filter8_d_26_65)">
<path d="M1487.92 500.307C1493.57 497.041 1498.5 492.786 1502.51 487.569C1506.35 482.576 1509.25 476.945 1510.9 470.728C1512.57 464.429 1512.98 457.975 1512.11 451.517C1511.23 445.001 1509.08 438.862 1505.82 433.208C1502.55 427.555 1498.31 422.627 1493.11 418.606C1488.98 415.417 1484.41 412.945 1479.46 411.303C1481.09 406.138 1480.64 400.331 1477.71 395.27L1473.12 387.31C1472.94 387.003 1472.65 386.382 1472.53 385.11C1472.54 385.016 1472.56 384.688 1472.68 384.087C1472.88 383.114 1473.29 381.665 1474.08 379.683C1477.88 370.292 1480.87 361.71 1482.91 354.04C1485.03 346.072 1486.32 338.267 1486.51 330.742C1486.88 323.237 1486.22 315.843 1484.26 308.735C1484.24 308.67 1484.22 308.605 1484.2 308.54C1482.24 301.709 1479.29 295.044 1475.54 288.562C1469.21 277.598 1461.13 268.353 1451.05 261.52C1441.52 255.054 1431.03 250.825 1419.73 249.038C1408.74 247.3 1397.65 247.861 1386.63 250.499C1375.82 252.817 1365.42 256.949 1355.47 262.695C1333.13 275.591 1316.77 293.098 1308.54 315.619C1299.92 338.726 1302.43 363.072 1313.23 387.217C1315.45 392.179 1319.59 396.024 1324.71 397.867C1329.82 399.71 1335.47 399.392 1340.34 396.986L1384.04 375.415C1387.22 374.323 1389.34 376.444 1388.5 381.078C1387.06 388.946 1385.46 396.76 1386.76 404.818C1388.02 412.551 1391.08 419.95 1395.08 426.877L1402.05 438.954C1404.95 443.967 1409.68 447.254 1414.91 448.451C1413.94 453.604 1413.87 458.807 1414.56 463.952C1415.45 470.468 1417.59 476.607 1420.85 482.261C1424.12 487.914 1428.36 492.842 1433.57 496.863C1438.44 500.625 1443.85 503.505 1449.77 505.357C1450.27 505.516 1450.79 505.655 1451.31 505.773C1457.35 507.147 1463.48 507.385 1469.59 506.576C1476.11 505.712 1482.26 503.573 1487.92 500.307Z" fill="white"/>
</g>
<path d="M1412.4 416.877C1409.23 411.387 1407.26 406.3 1406.5 401.615C1405.74 396.931 1406.15 391.941 1407.71 386.648C1409.96 378.76 1412.13 371.775 1414.21 365.695C1416.47 359.508 1418.25 353.965 1419.56 349.065C1420.75 343.982 1421.38 339.594 1421.44 335.902C1421.57 331.922 1420.74 328.376 1418.94 325.265C1415.46 319.227 1410.85 315.666 1405.12 314.583C1399.46 313.211 1393.81 314.157 1388.16 317.42C1379.59 322.368 1374.4 328.536 1372.59 335.925C1370.96 343.209 1371.83 350.394 1375.19 357.48L1331.49 379.051C1322.3 358.497 1320.9 339.662 1327.31 322.545C1333.61 305.245 1346.33 291.069 1365.47 280.016C1373.86 275.174 1382.38 271.837 1391.05 270.005C1399.79 267.885 1408.31 267.481 1416.6 268.793C1424.9 270.104 1432.64 273.198 1439.83 278.073C1447.02 282.949 1453.15 289.779 1458.22 298.562C1461.29 303.868 1463.54 309.033 1464.98 314.057C1466.32 318.897 1466.83 324.211 1466.53 329.998C1466.4 335.681 1465.42 341.981 1463.58 348.899C1461.82 355.529 1459.13 363.3 1455.53 372.213C1453.24 377.928 1452.26 382.762 1452.6 386.714C1452.94 390.667 1454 394.199 1455.8 397.31L1460.39 405.27L1419.37 428.954L1412.4 416.877ZM1438.18 472.261C1436.17 468.784 1434.9 465.122 1434.39 461.274C1433.87 457.427 1434.07 453.774 1434.99 450.315C1435.98 446.567 1437.66 443.159 1440.02 440.088C1442.38 437.018 1445.29 434.483 1448.76 432.483C1452.22 430.483 1455.87 429.228 1459.71 428.72C1463.55 428.211 1467.25 428.515 1470.81 429.63C1474.45 430.458 1477.8 432.058 1480.88 434.432C1483.95 436.806 1486.49 439.732 1488.5 443.208C1490.5 446.685 1491.77 450.347 1492.29 454.195C1492.81 458.042 1492.57 461.84 1491.57 465.587C1490.65 469.046 1489.01 472.311 1486.65 475.381C1484.29 478.451 1481.38 480.987 1477.92 482.987C1474.45 484.987 1470.8 486.241 1466.96 486.749C1463.12 487.258 1459.38 487.099 1455.75 486.271C1452.18 485.156 1448.87 483.411 1445.79 481.037C1442.72 478.663 1440.18 475.738 1438.18 472.261Z" fill="black"/>
<g filter="url(#filter9_d_26_65)">
<path d="M1692.19 677.613C1698.47 679.434 1704.95 680.043 1711.49 679.325C1717.75 678.638 1723.82 676.832 1729.45 673.721C1735.15 670.57 1740.09 666.393 1744.15 661.293C1748.24 656.147 1751.18 650.348 1753 644.079C1754.82 637.81 1755.44 631.336 1754.74 624.798C1754.19 619.611 1752.81 614.604 1750.57 609.896C1755.42 607.499 1759.3 603.148 1760.93 597.535L1763.49 588.708C1763.59 588.369 1763.84 587.731 1764.67 586.764C1764.74 586.702 1764.99 586.49 1765.51 586.162C1766.35 585.63 1767.68 584.924 1769.66 584.124C1779.07 580.363 1787.33 576.58 1794.28 572.743C1801.49 568.756 1808.02 564.285 1813.58 559.214C1819.25 554.284 1824.13 548.689 1827.9 542.352C1827.94 542.294 1827.97 542.236 1828.01 542.177C1831.58 536.033 1834.34 529.284 1836.43 522.096C1839.96 509.938 1841.03 497.707 1838.99 485.704C1837.05 474.346 1832.84 463.846 1826.31 454.457C1819.96 445.326 1811.88 437.713 1802.34 431.581C1793.18 425.387 1783 420.746 1771.97 417.542C1747.2 410.352 1723.24 410.661 1701.29 420.317C1678.65 430.094 1662.82 448.757 1652.87 473.266C1650.82 478.302 1650.92 483.955 1653.13 488.921C1655.34 493.887 1659.48 497.739 1664.59 499.591L1710.41 516.193C1713.4 517.734 1713.33 520.734 1709.41 523.331C1702.73 527.741 1695.98 531.991 1691.07 538.513C1686.36 544.772 1683.14 552.103 1680.91 559.784L1677.02 573.177C1675.41 578.736 1676.32 584.43 1679.07 589.033C1674.68 591.898 1670.88 595.45 1667.65 599.513C1663.55 604.659 1660.61 610.458 1658.79 616.727C1656.97 622.996 1656.35 629.471 1657.05 636.009C1657.71 642.127 1659.38 648.031 1662.14 653.579C1662.37 654.057 1662.63 654.524 1662.91 654.981C1666.1 660.292 1670.17 664.882 1674.98 668.727C1680.12 672.836 1685.92 675.791 1692.19 677.613Z" fill="white"/>
</g>
<path d="M1700.12 565.36C1701.88 559.273 1704.2 554.333 1707.05 550.542C1709.9 546.75 1713.78 543.586 1718.68 541.048C1725.94 537.213 1732.48 533.941 1738.3 531.233C1744.33 528.583 1749.57 526.033 1754.01 523.581C1758.51 520.926 1762.11 518.341 1764.81 515.826C1767.77 513.166 1769.76 510.111 1770.76 506.662C1772.7 499.966 1772.08 494.175 1768.9 489.29C1765.97 484.261 1761.37 480.836 1755.11 479.017C1745.6 476.258 1737.56 476.783 1730.97 480.591C1724.59 484.458 1720.01 490.058 1717.22 497.39L1671.4 480.787C1679.87 459.924 1692.5 445.878 1709.28 438.651C1726.13 431.22 1745.16 430.586 1766.39 436.749C1775.69 439.449 1784 443.292 1791.32 448.278C1798.91 453.119 1805.1 458.986 1809.89 465.879C1814.68 472.771 1817.81 480.499 1819.27 489.064C1820.73 497.628 1820.05 506.78 1817.22 516.52C1815.51 522.405 1813.34 527.606 1810.72 532.124C1808.15 536.439 1804.67 540.489 1800.28 544.276C1796.1 548.121 1790.87 551.775 1784.61 555.236C1778.6 558.553 1771.13 561.996 1762.21 565.564C1756.5 567.867 1752.33 570.508 1749.71 573.488C1747.09 576.468 1745.28 579.683 1744.28 583.132L1741.72 591.959L1696.23 578.753L1700.12 565.36ZM1678 622.303C1679.12 618.448 1680.88 615.001 1683.3 611.962C1685.72 608.923 1688.49 606.539 1691.62 604.808C1695.02 602.933 1698.64 601.785 1702.49 601.362C1706.34 600.939 1710.18 601.286 1714.03 602.401C1717.87 603.516 1721.3 605.283 1724.33 607.701C1727.35 610.119 1729.69 613 1731.35 616.342C1733.27 619.54 1734.44 623.069 1734.86 626.929C1735.27 630.79 1734.92 634.648 1733.8 638.503C1732.68 642.359 1730.91 645.806 1728.49 648.844C1726.08 651.883 1723.17 654.34 1719.78 656.215C1716.64 657.945 1713.15 659.022 1709.3 659.444C1705.45 659.867 1701.61 659.521 1697.77 658.406C1693.93 657.29 1690.49 655.524 1687.47 653.105C1684.44 650.687 1681.97 647.879 1680.05 644.681C1678.39 641.339 1677.35 637.737 1676.94 633.877C1676.52 630.017 1676.88 626.159 1678 622.303Z" fill="black"/>
<g filter="url(#filter10_d_26_65)">
<path d="M1594.39 586.249C1600.9 585.706 1607.17 583.957 1613.02 580.946C1618.62 578.065 1623.64 574.208 1627.79 569.288C1631.99 564.304 1635.1 558.638 1637.07 552.425C1639.05 546.155 1639.72 539.686 1639.18 533.181C1638.64 526.676 1636.9 520.408 1633.91 514.554C1631.53 509.909 1628.45 505.727 1624.68 502.132C1628.35 498.156 1630.42 492.707 1629.93 486.883L1629.16 477.724C1629.14 477.371 1629.14 476.686 1629.57 475.485C1629.62 475.401 1629.78 475.113 1630.14 474.622C1630.74 473.826 1631.72 472.69 1633.29 471.235C1640.73 464.358 1647.09 457.87 1652.2 451.801C1657.52 445.496 1662.01 438.987 1665.39 432.261C1668.93 425.629 1671.48 418.659 1672.73 411.393C1672.75 411.326 1672.76 411.259 1672.77 411.192C1673.91 404.177 1674.07 396.887 1673.45 389.428C1672.39 376.812 1669.02 365.005 1662.82 354.528C1656.95 344.614 1649.26 336.316 1639.8 329.884C1630.6 323.629 1620.34 319.411 1609.24 317.096C1598.47 314.587 1587.31 313.894 1575.85 314.85C1550.15 316.995 1527.88 325.856 1510.84 342.724C1493.2 359.953 1485.09 383.045 1484.57 409.49C1484.46 414.925 1486.57 420.169 1490.41 424.016C1494.25 427.863 1499.49 429.981 1504.93 429.882L1553.65 428.995C1557 429.364 1558.01 432.187 1555.27 436.018C1550.62 442.524 1545.84 448.908 1543.58 456.754C1541.42 464.284 1541.04 472.282 1541.7 480.253L1542.86 494.15C1543.34 499.919 1546.23 504.911 1550.45 508.223C1547.37 512.47 1545.09 517.148 1543.53 522.097C1541.55 528.367 1540.87 534.836 1541.42 541.341C1541.96 547.846 1543.7 554.114 1546.69 559.968C1549.49 565.447 1553.17 570.362 1557.72 574.557C1558.12 574.918 1558.52 575.263 1558.94 575.591C1563.82 579.409 1569.27 582.238 1575.13 584.108C1581.4 586.107 1587.88 586.793 1594.39 586.249Z" fill="white"/>
</g>
<path d="M1561.63 478.59C1561.11 472.273 1561.5 466.833 1562.81 462.272C1564.12 457.71 1566.61 453.367 1570.28 449.244C1575.68 443.069 1580.61 437.674 1585.09 433.06C1589.77 428.429 1593.75 424.175 1597.01 420.297C1600.26 416.21 1602.7 412.508 1604.33 409.192C1606.14 405.648 1606.9 402.086 1606.6 398.506C1606.02 391.558 1603.37 386.372 1598.65 382.95C1594.12 379.299 1588.6 377.746 1582.1 378.288C1572.24 379.111 1564.91 382.479 1560.13 388.391C1555.55 394.286 1553.27 401.155 1553.29 408.999L1504.56 409.885C1505.01 387.373 1511.78 369.74 1524.87 356.986C1537.94 344.021 1555.49 336.62 1577.52 334.781C1587.17 333.976 1596.3 334.591 1604.92 336.628C1613.74 338.437 1621.61 341.702 1628.56 346.423C1635.5 351.144 1641.18 357.243 1645.61 364.718C1650.04 372.194 1652.67 380.985 1653.52 391.092C1654.03 397.198 1653.86 402.831 1653.03 407.989C1652.17 412.937 1650.37 417.964 1647.63 423.069C1645.1 428.158 1641.52 433.438 1636.91 438.912C1632.49 444.158 1626.75 450.044 1619.69 456.57C1615.18 460.763 1612.23 464.719 1610.86 468.438C1609.48 472.158 1608.93 475.808 1609.23 479.387L1610 488.547L1562.79 492.487L1561.63 478.59ZM1561.35 539.678C1561.01 535.677 1561.43 531.826 1562.6 528.124C1563.77 524.421 1565.51 521.202 1567.81 518.465C1570.31 515.5 1573.28 513.132 1576.73 511.36C1580.17 509.589 1583.89 508.536 1587.87 508.204C1591.86 507.871 1595.7 508.293 1599.39 509.469C1603.08 510.645 1606.29 512.497 1609.04 515.024C1611.98 517.323 1614.33 520.201 1616.1 523.658C1617.87 527.115 1618.92 530.844 1619.25 534.845C1619.58 538.845 1619.17 542.697 1618 546.399C1616.83 550.101 1614.99 553.434 1612.49 556.399C1610.19 559.136 1607.31 561.391 1603.87 563.162C1600.42 564.934 1596.71 565.986 1592.72 566.319C1588.74 566.651 1584.9 566.23 1581.21 565.053C1577.52 563.877 1574.21 562.139 1571.27 559.84C1568.52 557.313 1566.26 554.321 1564.5 550.864C1562.73 547.407 1561.68 543.678 1561.35 539.678Z" fill="black"/>
<g filter="url(#filter11_d_26_65)">
<path d="M1553.51 686.459C1558.07 681.779 1561.65 676.347 1564.1 670.236C1566.43 664.388 1567.69 658.183 1567.6 651.75C1567.5 645.233 1566.14 638.911 1563.54 632.933C1560.93 626.901 1557.19 621.575 1552.52 617.02C1547.84 612.466 1542.42 608.875 1536.32 606.419C1531.48 604.471 1526.41 603.333 1521.2 603.096C1521.37 597.682 1519.35 592.217 1515.17 588.14L1508.58 581.727C1508.33 581.48 1507.88 580.96 1507.42 579.769C1507.4 579.677 1507.33 579.356 1507.29 578.745C1507.21 577.755 1507.21 576.249 1507.44 574.126C1508.54 564.056 1509.09 554.984 1508.97 547.049C1508.85 538.804 1507.97 530.942 1506.11 523.647C1504.43 516.325 1501.78 509.388 1497.96 503.08C1497.93 503.022 1497.89 502.964 1497.86 502.907C1494.12 496.865 1489.46 491.254 1484.1 486.032C1475.03 477.199 1464.74 470.497 1453.18 466.657C1442.25 463.024 1431 461.803 1419.65 463.152C1408.6 464.464 1398.08 468.015 1388.18 473.548C1378.41 478.714 1369.53 485.514 1361.51 493.747C1343.52 512.224 1332.52 533.518 1330.72 557.427C1328.7 582.005 1337.73 604.755 1354.68 625.06C1358.16 629.233 1363.19 631.809 1368.62 632.193C1374.04 632.578 1379.38 630.739 1383.42 627.099L1419.62 594.471C1422.39 592.556 1425.01 594.021 1425.45 598.71C1426.21 606.673 1426.78 614.63 1430.23 622.03C1433.53 629.132 1438.49 635.421 1444.22 641.001L1454.21 650.731C1458.36 654.77 1463.81 656.646 1469.17 656.378C1469.63 661.601 1470.98 666.628 1473.04 671.391C1475.66 677.423 1479.39 682.749 1484.07 687.303C1488.75 691.858 1494.17 695.448 1500.27 697.904C1505.98 700.203 1511.97 701.502 1518.17 701.679C1518.7 701.694 1519.23 701.688 1519.77 701.661C1525.95 701.343 1531.92 699.906 1537.57 697.47C1543.62 694.867 1548.95 691.139 1553.51 686.459Z" fill="white"/>
</g>
<path d="M1458.17 626.674C1453.63 622.251 1450.36 617.889 1448.36 613.586C1446.35 609.284 1445.38 604.373 1445.45 598.854C1445.48 590.651 1445.66 583.341 1446.01 576.923C1446.51 570.355 1446.72 564.536 1446.65 559.466C1446.42 554.249 1445.83 549.856 1444.88 546.287C1443.93 542.42 1442.17 539.234 1439.59 536.728C1434.6 531.863 1429.2 529.688 1423.39 530.201C1417.57 530.417 1412.39 532.862 1407.84 537.538C1400.93 544.626 1397.61 551.972 1397.88 559.576C1398.29 567.028 1401.07 573.708 1406.23 579.615L1370.03 612.244C1355.6 594.958 1349.14 577.209 1350.66 558.996C1352.02 540.636 1360.42 523.538 1375.84 507.701C1382.6 500.764 1389.9 495.236 1397.74 491.12C1405.58 486.705 1413.67 484.003 1422 483.013C1430.34 482.023 1438.63 482.897 1446.88 485.637C1455.12 488.377 1462.88 493.284 1470.14 500.36C1474.53 504.635 1478.1 508.995 1480.86 513.437C1483.46 517.733 1485.39 522.707 1486.67 528.36C1488.1 533.862 1488.86 540.192 1488.97 547.35C1489.08 554.209 1488.6 562.418 1487.55 571.975C1486.9 578.097 1487.27 583.015 1488.67 586.727C1490.07 590.44 1492.05 593.549 1494.63 596.055L1501.21 602.468L1468.16 636.403L1458.17 626.674ZM1498.02 672.975C1495.15 670.174 1492.94 666.993 1491.39 663.431C1489.85 659.869 1489.05 656.299 1488.99 652.72C1488.93 648.843 1489.62 645.107 1491.06 641.511C1492.5 637.915 1494.61 634.684 1497.4 631.818C1500.19 628.953 1503.37 626.754 1506.92 625.222C1510.48 623.69 1514.12 622.977 1517.86 623.084C1521.58 622.892 1525.24 623.521 1528.85 624.972C1532.45 626.422 1535.69 628.548 1538.56 631.349C1541.44 634.149 1543.65 637.331 1545.19 640.893C1546.74 644.454 1547.54 648.174 1547.6 652.051C1547.65 655.63 1546.96 659.217 1545.52 662.813C1544.09 666.409 1541.97 669.64 1539.18 672.505C1536.39 675.371 1533.22 677.57 1529.66 679.102C1526.1 680.634 1522.46 681.496 1518.74 681.688C1515.01 681.581 1511.34 680.803 1507.74 679.352C1504.14 677.902 1500.9 675.776 1498.02 672.975Z" fill="black"/>
<g filter="url(#filter12_d_26_65)">
<path fill-rule="evenodd" clip-rule="evenodd" d="M1162.02 387.917C1166.95 394.315 1167.54 403.049 1163.53 410.058L1112.72 498.822L1168.61 483.846C1176.4 481.759 1184.68 484.555 1189.61 490.939C1194.54 497.322 1195.16 506.043 1191.17 513.054L1157.98 571.39L1215.89 605.317C1222.85 609.395 1226.68 617.253 1225.6 625.247C1224.52 633.241 1218.75 639.804 1210.96 641.892L1142.16 660.326C1137.04 661.696 1131.6 660.982 1127.01 658.341L985.867 577.111C981.265 574.462 977.906 570.093 976.528 564.966C975.151 559.839 975.868 554.374 978.523 549.776L1060.06 408.556C1062.71 403.962 1067.08 400.61 1072.2 399.237L1141 380.803C1148.8 378.713 1157.09 381.519 1162.02 387.917Z" fill="white"/>
</g>
<path d="M1206.31 622.755L1086.49 553.19L1061.13 597.341L1137.22 641.27L1206.31 622.755Z" fill="#04589C"/>
<path d="M1146.17 400.122L1039.46 584.958L995.843 559.776L1077.38 418.556L1146.17 400.122Z" fill="#5FC9F8"/>
<path d="M1174.16 502.74L1105.06 521.255L1061.13 597.341L1104.7 622.371L1174.16 502.74Z" fill="#5AC7F8"/>
<path d="M1130.23 578.826L1086.49 553.19L1061.13 597.341L1104.94 622.633L1130.23 578.826Z" fill="#31B9F6"/>
<path d="M1152.7 593.594L1104.94 622.633L1130.23 578.826L1152.7 593.594Z" fill="url(#paint4_linear_26_65)"/>
<g filter="url(#filter13_d_26_65)">
<path fill-rule="evenodd" clip-rule="evenodd" d="M310.621 351.868C315.673 356.928 317.64 364.3 315.78 371.204L256.001 593.045C254.145 599.934 248.758 605.313 241.866 607.16C234.974 609.007 227.62 607.042 222.568 602.003L59.8777 439.773C54.8144 434.724 52.8318 427.356 54.6776 420.448C56.5234 413.54 61.9167 408.143 68.8234 406.292L153.918 383.491C160.77 381.655 168.082 383.586 173.134 388.566L186.679 401.917L191.489 383.815C193.327 376.894 198.725 371.485 205.642 369.632L291.292 346.682C298.199 344.831 305.568 346.808 310.621 351.868Z" fill="white"/>
</g>
<path d="M74 425.61L236.69 587.841L296.469 366L251.975 377.922L216.108 511.027L117.938 413.837L74 425.61Z" fill="#41B883"/>
<path d="M117.937 413.837L216.256 511.584L251.974 377.922L210.817 388.95L197.165 440.335L159.093 402.809L117.937 413.837Z" fill="#35495E"/>
<defs>
<filter id="filter0_d_26_65" x="1413.56" y="164.439" width="197.242" height="279.99" filterUnits="userSpaceOnUse" color-interpolation-filters="sRGB">
<feFlood flood-opacity="0" result="BackgroundImageFix"/>
<feColorMatrix in="SourceAlpha" type="matrix" values="0 0 0 0 0 0 0 0 0 0 0 0 0 0 0 0 0 0 127 0" result="hardAlpha"/>
<feOffset dy="4"/>
<feGaussianBlur stdDeviation="2"/>
<feComposite in2="hardAlpha" operator="out"/>
<feColorMatrix type="matrix" values="0 0 0 0 0 0 0 0 0 0 0 0 0 0 0 0 0 0 0.25 0"/>
<feBlend mode="normal" in2="BackgroundImageFix" result="effect1_dropShadow_26_65"/>
<feBlend mode="normal" in="SourceGraphic" in2="effect1_dropShadow_26_65" result="shape"/>
</filter>
<filter id="filter1_d_26_65" x="124.362" y="123.489" width="224.246" height="266.938" filterUnits="userSpaceOnUse" color-interpolation-filters="sRGB">
<feFlood flood-opacity="0" result="BackgroundImageFix"/>
<feColorMatrix in="SourceAlpha" type="matrix" values="0 0 0 0 0 0 0 0 0 0 0 0 0 0 0 0 0 0 127 0" result="hardAlpha"/>
<feOffset dy="4"/>
<feGaussianBlur stdDeviation="2"/>
<feComposite in2="hardAlpha" operator="out"/>
<feColorMatrix type="matrix" values="0 0 0 0 0 0 0 0 0 0 0 0 0 0 0 0 0 0 0.25 0"/>
<feBlend mode="normal" in2="BackgroundImageFix" result="effect1_dropShadow_26_65"/>
<feBlend mode="normal" in="SourceGraphic" in2="effect1_dropShadow_26_65" result="shape"/>
</filter>
<filter id="filter2_d_26_65" x="371.082" y="196.868" width="251.599" height="246.702" filterUnits="userSpaceOnUse" color-interpolation-filters="sRGB">
<feFlood flood-opacity="0" result="BackgroundImageFix"/>
<feColorMatrix in="SourceAlpha" type="matrix" values="0 0 0 0 0 0 0 0 0 0 0 0 0 0 0 0 0 0 127 0" result="hardAlpha"/>
<feOffset dy="4"/>
<feGaussianBlur stdDeviation="2"/>
<feComposite in2="hardAlpha" operator="out"/>
<feColorMatrix type="matrix" values="0 0 0 0 0 0 0 0 0 0 0 0 0 0 0 0 0 0 0.25 0"/>
<feBlend mode="normal" in2="BackgroundImageFix" result="effect1_dropShadow_26_65"/>
<feBlend mode="normal" in="SourceGraphic" in2="effect1_dropShadow_26_65" result="shape"/>
</filter>
<filter id="filter3_d_26_65" x="333.31" y="379.25" width="283.521" height="283.549" filterUnits="userSpaceOnUse" color-interpolation-filters="sRGB">
<feFlood flood-opacity="0" result="BackgroundImageFix"/>
<feColorMatrix in="SourceAlpha" type="matrix" values="0 0 0 0 0 0 0 0 0 0 0 0 0 0 0 0 0 0 127 0" result="hardAlpha"/>
<feOffset dy="4"/>
<feGaussianBlur stdDeviation="2"/>
<feComposite in2="hardAlpha" operator="out"/>
<feColorMatrix type="matrix" values="0 0 0 0 0 0 0 0 0 0 0 0 0 0 0 0 0 0 0.25 0"/>
<feBlend mode="normal" in2="BackgroundImageFix" result="effect1_dropShadow_26_65"/>
<feBlend mode="normal" in="SourceGraphic" in2="effect1_dropShadow_26_65" result="shape"/>
</filter>
<filter id="filter4_d_26_65" x="679.383" y="238.316" width="262.772" height="290.729" filterUnits="userSpaceOnUse" color-interpolation-filters="sRGB">
<feFlood flood-opacity="0" result="BackgroundImageFix"/>
<feColorMatrix in="SourceAlpha" type="matrix" values="0 0 0 0 0 0 0 0 0 0 0 0 0 0 0 0 0 0 127 0" result="hardAlpha"/>
<feOffset dy="4"/>
<feGaussianBlur stdDeviation="2"/>
<feComposite in2="hardAlpha" operator="out"/>
<feColorMatrix type="matrix" values="0 0 0 0 0 0 0 0 0 0 0 0 0 0 0 0 0 0 0.25 0"/>
<feBlend mode="normal" in2="BackgroundImageFix" result="effect1_dropShadow_26_65"/>
<feBlend mode="normal" in="SourceGraphic" in2="effect1_dropShadow_26_65" result="shape"/>
</filter>
<filter id="filter5_d_26_65" x="716.235" y="424.235" width="261.006" height="261.006" filterUnits="userSpaceOnUse" color-interpolation-filters="sRGB">
<feFlood flood-opacity="0" result="BackgroundImageFix"/>
<feColorMatrix in="SourceAlpha" type="matrix" values="0 0 0 0 0 0 0 0 0 0 0 0 0 0 0 0 0 0 127 0" result="hardAlpha"/>
<feOffset dy="4"/>
<feGaussianBlur stdDeviation="2"/>
<feComposite in2="hardAlpha" operator="out"/>
<feColorMatrix type="matrix" values="0 0 0 0 0 0 0 0 0 0 0 0 0 0 0 0 0 0 0.25 0"/>
<feBlend mode="normal" in2="BackgroundImageFix" result="effect1_dropShadow_26_65"/>
<feBlend mode="normal" in="SourceGraphic" in2="effect1_dropShadow_26_65" result="shape"/>
</filter>
<filter id="filter6_d_26_65" x="948.166" y="132.75" width="263.221" height="248.052" filterUnits="userSpaceOnUse" color-interpolation-filters="sRGB">
<feFlood flood-opacity="0" result="BackgroundImageFix"/>
<feColorMatrix in="SourceAlpha" type="matrix" values="0 0 0 0 0 0 0 0 0 0 0 0 0 0 0 0 0 0 127 0" result="hardAlpha"/>
<feOffset dy="4"/>
<feGaussianBlur stdDeviation="2"/>
<feComposite in2="hardAlpha" operator="out"/>
<feColorMatrix type="matrix" values="0 0 0 0 0 0 0 0 0 0 0 0 0 0 0 0 0 0 0.25 0"/>
<feBlend mode="normal" in2="BackgroundImageFix" result="effect1_dropShadow_26_65"/>
<feBlend mode="normal" in="SourceGraphic" in2="effect1_dropShadow_26_65" result="shape"/>
</filter>
<filter id="filter7_d_26_65" x="1625.33" y="201.292" width="196.955" height="275.714" filterUnits="userSpaceOnUse" color-interpolation-filters="sRGB">
<feFlood flood-opacity="0" result="BackgroundImageFix"/>
<feColorMatrix in="SourceAlpha" type="matrix" values="0 0 0 0 0 0 0 0 0 0 0 0 0 0 0 0 0 0 127 0" result="hardAlpha"/>
<feOffset dy="4"/>
<feGaussianBlur stdDeviation="2"/>
<feComposite in2="hardAlpha" operator="out"/>
<feColorMatrix type="matrix" values="0 0 0 0 0 0 0 0 0 0 0 0 0 0 0 0 0 0 0.25 0"/>
<feBlend mode="normal" in2="BackgroundImageFix" result="effect1_dropShadow_26_65"/>
<feBlend mode="normal" in="SourceGraphic" in2="effect1_dropShadow_26_65" result="shape"/>
</filter>
<filter id="filter8_d_26_65" x="1299.36" y="248.041" width="217.196" height="266.999" filterUnits="userSpaceOnUse" color-interpolation-filters="sRGB">
<feFlood flood-opacity="0" result="BackgroundImageFix"/>
<feColorMatrix in="SourceAlpha" type="matrix" values="0 0 0 0 0 0 0 0 0 0 0 0 0 0 0 0 0 0 127 0" result="hardAlpha"/>
<feOffset dy="4"/>
<feGaussianBlur stdDeviation="2"/>
<feComposite in2="hardAlpha" operator="out"/>
<feColorMatrix type="matrix" values="0 0 0 0 0 0 0 0 0 0 0 0 0 0 0 0 0 0 0.25 0"/>
<feBlend mode="normal" in2="BackgroundImageFix" result="effect1_dropShadow_26_65"/>
<feBlend mode="normal" in="SourceGraphic" in2="effect1_dropShadow_26_65" result="shape"/>
</filter>
<filter id="filter9_d_26_65" x="1647.4" y="412.559" width="196.618" height="275.06" filterUnits="userSpaceOnUse" color-interpolation-filters="sRGB">
<feFlood flood-opacity="0" result="BackgroundImageFix"/>
<feColorMatrix in="SourceAlpha" type="matrix" values="0 0 0 0 0 0 0 0 0 0 0 0 0 0 0 0 0 0 127 0" result="hardAlpha"/>
<feOffset dy="4"/>
<feGaussianBlur stdDeviation="2"/>
<feComposite in2="hardAlpha" operator="out"/>
<feColorMatrix type="matrix" values="0 0 0 0 0 0 0 0 0 0 0 0 0 0 0 0 0 0 0.25 0"/>
<feBlend mode="normal" in2="BackgroundImageFix" result="effect1_dropShadow_26_65"/>
<feBlend mode="normal" in="SourceGraphic" in2="effect1_dropShadow_26_65" result="shape"/>
</filter>
<filter id="filter10_d_26_65" x="1480.56" y="314.438" width="197.242" height="279.99" filterUnits="userSpaceOnUse" color-interpolation-filters="sRGB">
<feFlood flood-opacity="0" result="BackgroundImageFix"/>
<feColorMatrix in="SourceAlpha" type="matrix" values="0 0 0 0 0 0 0 0 0 0 0 0 0 0 0 0 0 0 127 0" result="hardAlpha"/>
<feOffset dy="4"/>
<feGaussianBlur stdDeviation="2"/>
<feComposite in2="hardAlpha" operator="out"/>
<feColorMatrix type="matrix" values="0 0 0 0 0 0 0 0 0 0 0 0 0 0 0 0 0 0 0.25 0"/>
<feBlend mode="normal" in2="BackgroundImageFix" result="effect1_dropShadow_26_65"/>
<feBlend mode="normal" in="SourceGraphic" in2="effect1_dropShadow_26_65" result="shape"/>
</filter>
<filter id="filter11_d_26_65" x="1326.44" y="462.618" width="245.16" height="247.069" filterUnits="userSpaceOnUse" color-interpolation-filters="sRGB">
<feFlood flood-opacity="0" result="BackgroundImageFix"/>
<feColorMatrix in="SourceAlpha" type="matrix" values="0 0 0 0 0 0 0 0 0 0 0 0 0 0 0 0 0 0 127 0" result="hardAlpha"/>
<feOffset dy="4"/>
<feGaussianBlur stdDeviation="2"/>
<feComposite in2="hardAlpha" operator="out"/>
<feColorMatrix type="matrix" values="0 0 0 0 0 0 0 0 0 0 0 0 0 0 0 0 0 0 0.25 0"/>
<feBlend mode="normal" in2="BackgroundImageFix" result="effect1_dropShadow_26_65"/>
<feBlend mode="normal" in="SourceGraphic" in2="effect1_dropShadow_26_65" result="shape"/>
</filter>
<filter id="filter12_d_26_65" x="971.843" y="380.121" width="257.937" height="288.886" filterUnits="userSpaceOnUse" color-interpolation-filters="sRGB">
<feFlood flood-opacity="0" result="BackgroundImageFix"/>
<feColorMatrix in="SourceAlpha" type="matrix" values="0 0 0 0 0 0 0 0 0 0 0 0 0 0 0 0 0 0 127 0" result="hardAlpha"/>
<feOffset dy="4"/>
<feGaussianBlur stdDeviation="2"/>
<feComposite in2="hardAlpha" operator="out"/>
<feColorMatrix type="matrix" values="0 0 0 0 0 0 0 0 0 0 0 0 0 0 0 0 0 0 0.25 0"/>
<feBlend mode="normal" in2="BackgroundImageFix" result="effect1_dropShadow_26_65"/>
<feBlend mode="normal" in="SourceGraphic" in2="effect1_dropShadow_26_65" result="shape"/>
</filter>
<filter id="filter13_d_26_65" x="49.9995" y="346" width="270.469" height="269.842" filterUnits="userSpaceOnUse" color-interpolation-filters="sRGB">
<feFlood flood-opacity="0" result="BackgroundImageFix"/>
<feColorMatrix in="SourceAlpha" type="matrix" values="0 0 0 0 0 0 0 0 0 0 0 0 0 0 0 0 0 0 127 0" result="hardAlpha"/>
<feOffset dy="4"/>
<feGaussianBlur stdDeviation="2"/>
<feComposite in2="hardAlpha" operator="out"/>
<feColorMatrix type="matrix" values="0 0 0 0 0 0 0 0 0 0 0 0 0 0 0 0 0 0 0.25 0"/>
<feBlend mode="normal" in2="BackgroundImageFix" result="effect1_dropShadow_26_65"/>
<feBlend mode="normal" in="SourceGraphic" in2="effect1_dropShadow_26_65" result="shape"/>
</filter>
<linearGradient id="paint0_linear_26_65" x1="874.417" y1="435" x2="874.417" y2="624" gradientUnits="userSpaceOnUse">
<stop stop-color="#00F5F7"/>
<stop offset="1" stop-color="#00088D"/>
</linearGradient>
<linearGradient id="paint1_linear_26_65" x1="829.906" y1="525.425" x2="791.699" y2="470.768" gradientUnits="userSpaceOnUse">
<stop stop-color="#00D9FA"/>
<stop offset="1" stop-color="#02E7F1"/>
</linearGradient>
<linearGradient id="paint2_linear_26_65" x1="847.788" y1="551.019" x2="820.765" y2="504.983" gradientUnits="userSpaceOnUse">
<stop stop-color="#03A7FF"/>
<stop offset="1" stop-color="#00D9FA"/>
</linearGradient>
<linearGradient id="paint3_linear_26_65" x1="855.263" y1="560.894" x2="818.986" y2="501.132" gradientUnits="userSpaceOnUse">
<stop stop-color="#1046D4"/>
<stop offset="1" stop-color="#03A7FF"/>
</linearGradient>
<linearGradient id="paint4_linear_26_65" x1="1104.94" y1="622.633" x2="1131.9" y2="592.345" gradientUnits="userSpaceOnUse">
<stop stop-opacity="0.21"/>
<stop offset="1" stop-opacity="0"/>
</linearGradient>
</defs>
</svg>
