<svg width="1920" height="1080" viewBox="0 0 1920 1080" fill="none" xmlns="http://www.w3.org/2000/svg">
<rect width="1920" height="1080" fill="white"/>
<rect x="100" y="175" width="482" height="730" rx="35" fill="#DDFFDD" stroke="#33CC33" stroke-width="10"/>
<rect x="714" y="170" width="492" height="740" rx="40" fill="#DDDDDD"/>
<rect x="1333" y="170" width="492" height="740" rx="40" fill="#DDDDDD"/>
<path d="M304.099 825L311.659 795.66L319.174 825H323.899L332.764 792.015H328.309L321.469 820.635L314.089 792.015H309.139L301.804 820.635L294.919 792.015H290.464L299.329 825H304.099ZM359.599 811.455C359.599 802.59 355.099 797.865 347.944 797.865C341.059 797.865 335.749 802.68 335.749 811.77C335.749 820.77 340.384 825.72 347.899 825.72C353.614 825.72 357.664 822.75 359.284 817.71H355.144C353.794 820.725 351.409 822.39 347.899 822.39C343.174 822.39 340.339 819.42 340.069 812.67H359.599V811.455ZM340.069 809.925C340.474 804.525 343.129 801.105 347.944 801.105C352.669 801.105 355.144 804.255 355.414 809.925H340.069ZM380.03 797.865C376.61 797.865 373.91 799.035 371.705 801.51V790.665H367.475V825H370.58L371.21 821.985C373.235 824.235 375.845 825.72 379.445 825.72C386.555 825.72 391.64 820.23 391.64 811.455C391.64 803.22 386.96 797.865 380.03 797.865ZM379.13 822.345C375.98 822.345 373.55 820.86 371.705 818.925V804.75C373.64 802.905 376.115 801.285 379.445 801.285C384.08 801.285 387.365 804.57 387.365 811.455C387.365 819.24 383.54 822.345 379.13 822.345Z" fill="#212B37"/>
<path d="M885.101 825V796.875L895.496 825H899.411L909.806 796.875V825H913.946V792.015H907.556L897.431 819.96L887.396 792.015H880.961V825H885.101ZM934.132 825.72C941.287 825.72 946.777 820.77 946.777 811.86C946.777 802.86 941.242 797.865 934.132 797.865C927.067 797.865 921.532 802.815 921.532 811.86C921.532 820.77 926.977 825.72 934.132 825.72ZM934.132 822.345C929.362 822.345 925.762 818.745 925.762 811.86C925.762 804.885 929.362 801.285 934.132 801.285C938.947 801.285 942.547 804.885 942.547 811.86C942.547 818.745 938.947 822.345 934.132 822.345ZM967.219 797.865C963.799 797.865 961.099 799.035 958.894 801.51V790.665H954.664V825H957.769L958.399 821.985C960.424 824.235 963.034 825.72 966.634 825.72C973.744 825.72 978.829 820.23 978.829 811.455C978.829 803.22 974.149 797.865 967.219 797.865ZM966.319 822.345C963.169 822.345 960.739 820.86 958.894 818.925V804.75C960.829 802.905 963.304 801.285 966.634 801.285C971.269 801.285 974.554 804.57 974.554 811.455C974.554 819.24 970.729 822.345 966.319 822.345ZM986.295 788.73V793.815H990.75V788.73H986.295ZM991.785 798.63H983.595V801.555L987.555 801.915V825H991.785V798.63ZM1010.2 821.49C1007.36 821.49 1005.43 820.275 1005.43 816.9V790.665H1001.2V817.53C1001.15 823.2 1004.84 825.225 1009.43 825.225C1010.65 825.225 1011.5 825.135 1012.67 825V821.49H1010.2ZM1040.52 811.455C1040.52 802.59 1036.02 797.865 1028.87 797.865C1021.98 797.865 1016.67 802.68 1016.67 811.77C1016.67 820.77 1021.31 825.72 1028.82 825.72C1034.54 825.72 1038.59 822.75 1040.21 817.71H1036.07C1034.72 820.725 1032.33 822.39 1028.82 822.39C1024.1 822.39 1021.26 819.42 1020.99 812.67H1040.52V811.455ZM1020.99 809.925C1021.4 804.525 1024.05 801.105 1028.87 801.105C1033.59 801.105 1036.07 804.255 1036.34 809.925H1020.99Z" fill="#212B37"/>
<path d="M1481.88 792.015V825H1492.32C1502.85 825 1508.48 819.555 1508.48 808.395C1508.48 797.37 1502.85 792.015 1492.1 792.015H1481.88ZM1492.37 795.66C1500.06 795.66 1504.02 799.485 1504.02 808.395C1504.02 817.35 1500.06 821.355 1492.59 821.355H1486.25V795.66H1492.37ZM1538.53 811.455C1538.53 802.59 1534.03 797.865 1526.87 797.865C1519.99 797.865 1514.68 802.68 1514.68 811.77C1514.68 820.77 1519.31 825.72 1526.83 825.72C1532.54 825.72 1536.59 822.75 1538.21 817.71H1534.07C1532.72 820.725 1530.34 822.39 1526.83 822.39C1522.1 822.39 1519.27 819.42 1519 812.67H1538.53V811.455ZM1519 809.925C1519.4 804.525 1522.06 801.105 1526.87 801.105C1531.6 801.105 1534.07 804.255 1534.34 809.925H1519ZM1555.31 825.72C1561.79 825.72 1565.53 822.525 1565.53 818.025C1565.53 813.48 1562.24 811.59 1558.15 810.51L1553.38 809.25C1551.17 808.62 1549.28 807.945 1549.28 805.2C1549.28 802.86 1551.26 801.105 1554.95 801.105C1558.55 801.105 1560.62 802.41 1560.94 805.65H1565.08C1564.58 800.43 1560.98 797.865 1554.95 797.865C1548.92 797.865 1545.05 801.06 1545.05 805.425C1545.05 809.88 1548.02 811.635 1551.67 812.58L1556.44 813.795C1559.86 814.695 1561.3 815.865 1561.3 818.115C1561.3 820.635 1559.41 822.48 1555.31 822.48C1551.08 822.48 1548.65 821.085 1548.2 817.71H1544.02C1544.56 822.75 1548.2 825.72 1555.31 825.72ZM1594.64 825L1583.75 809.07L1594.19 798.63H1589.19L1576.95 811.32V790.665H1572.77V825H1576.95V815.865L1581.14 811.68L1589.96 825H1594.64ZM1611.33 821.58C1608.05 821.58 1606.34 820.185 1606.34 816.945V801.915H1613.36V798.63H1606.34V792.465H1603.01L1602.29 798.63H1598.19V801.915H1602.11V817.305C1602.11 822.795 1605.21 825.225 1610.88 825.225C1612.1 825.225 1613.45 825.135 1614.48 825V821.58H1611.33ZM1631.95 825.72C1639.11 825.72 1644.6 820.77 1644.6 811.86C1644.6 802.86 1639.06 797.865 1631.95 797.865C1624.89 797.865 1619.35 802.815 1619.35 811.86C1619.35 820.77 1624.8 825.72 1631.95 825.72ZM1631.95 822.345C1627.18 822.345 1623.58 818.745 1623.58 811.86C1623.58 804.885 1627.18 801.285 1631.95 801.285C1636.77 801.285 1640.37 804.885 1640.37 811.86C1640.37 818.745 1636.77 822.345 1631.95 822.345ZM1664.99 797.865C1661.39 797.865 1658.56 799.17 1656.26 801.96L1655.59 798.63H1652.48V833.325H1656.71V822.525C1658.65 824.46 1661.12 825.72 1664.41 825.72C1671.52 825.72 1676.6 820.23 1676.6 811.455C1676.6 803.22 1671.92 797.865 1664.99 797.865ZM1664.09 822.345C1660.99 822.345 1658.6 820.86 1656.71 818.97V804.75C1658.69 802.86 1661.12 801.285 1664.41 801.285C1669.04 801.285 1672.33 804.57 1672.33 811.455C1672.33 819.24 1668.5 822.345 1664.09 822.345Z" fill="#212B37"/>
<path d="M1522.22 358.121C1522.22 363.238 1523.45 367.027 1525.91 369.488C1528.41 371.949 1532.16 373.18 1537.16 373.18H1620.84C1625.84 373.18 1629.57 371.949 1632.03 369.488C1634.53 367.027 1635.78 363.238 1635.78 358.121V287.691C1635.78 282.574 1634.51 278.785 1631.97 276.324C1629.47 273.863 1625.72 272.633 1620.72 272.633H1537.28C1532.28 272.633 1528.51 273.863 1525.97 276.324C1523.47 278.785 1522.22 282.574 1522.22 287.691V358.121ZM1531.66 348.512V287.867C1531.66 285.797 1532.11 284.312 1533 283.414C1533.94 282.516 1535.43 282.066 1537.46 282.066H1620.54C1622.57 282.066 1624.04 282.516 1624.94 283.414C1625.88 284.312 1626.34 285.797 1626.34 287.867V348.512C1626.34 350.582 1625.88 352.066 1624.94 352.965C1624.04 353.824 1622.57 354.254 1620.54 354.254H1537.46C1535.43 354.254 1533.94 353.824 1533 352.965C1532.11 352.066 1531.66 350.582 1531.66 348.512ZM1612.11 367.086C1611.05 367.086 1610.11 366.676 1609.29 365.855C1608.51 365.035 1608.12 364.078 1608.12 362.984C1608.12 361.93 1608.51 361.012 1609.29 360.23C1610.11 359.41 1611.05 359 1612.11 359C1613.24 359 1614.2 359.41 1614.98 360.23C1615.8 361.012 1616.21 361.93 1616.21 362.984C1616.21 364.078 1615.8 365.035 1614.98 365.855C1614.2 366.676 1613.24 367.086 1612.11 367.086ZM1579 380.211C1583.18 380.211 1587.09 379.977 1590.72 379.508C1594.35 379.078 1597.63 378.434 1600.56 377.574C1603.53 376.715 1606.03 375.68 1608.06 374.469C1610.13 373.297 1611.66 371.969 1612.63 370.484H1545.37C1547.32 373.453 1551.32 375.816 1557.38 377.574C1563.47 379.332 1570.68 380.211 1579 380.211ZM1550.88 389.059H1607.12C1608.45 389.059 1609.47 388.746 1610.17 388.121C1610.88 387.535 1611.3 386.812 1611.46 385.953C1611.62 385.094 1611.5 384.254 1611.11 383.434C1610.76 382.652 1610.13 382.066 1609.23 381.676L1595.05 375.113H1562.95L1548.77 381.676C1547.87 382.066 1547.22 382.652 1546.83 383.434C1546.48 384.254 1546.38 385.094 1546.54 385.953C1546.7 386.812 1547.12 387.535 1547.83 388.121C1548.53 388.746 1549.55 389.059 1550.88 389.059Z" fill="#212B37"/>
<path d="M921.824 378.512C921.824 383.082 923.289 386.754 926.219 389.527C929.148 392.34 932.996 393.746 937.762 393.746H981.18C985.984 393.746 989.832 392.34 992.723 389.527C995.652 386.754 997.117 383.082 997.117 378.512V284.879C997.117 280.309 995.652 276.637 992.723 273.863C989.832 271.051 985.984 269.645 981.18 269.645H937.762C932.996 269.645 929.148 271.051 926.219 273.863C923.289 276.637 921.824 280.309 921.824 284.879V378.512ZM931.258 373.883V289.508H987.684V373.883H931.258ZM959.559 387.945C958.152 387.945 956.941 387.438 955.926 386.422C954.949 385.445 954.461 384.254 954.461 382.848C954.461 381.441 954.949 380.25 955.926 379.273C956.941 378.297 958.152 377.809 959.559 377.809C960.926 377.809 962.098 378.297 963.074 379.273C964.09 380.25 964.598 381.441 964.598 382.848C964.598 384.254 964.09 385.445 963.074 386.422C962.098 387.438 960.926 387.945 959.559 387.945ZM948.367 279.898C948.367 279.234 948.562 278.707 948.953 278.316C949.383 277.887 949.93 277.672 950.594 277.672H968.406C969.07 277.672 969.598 277.887 969.988 278.316C970.418 278.707 970.633 279.234 970.633 279.898C970.633 280.562 970.418 281.09 969.988 281.48C969.598 281.871 969.07 282.066 968.406 282.066H950.594C949.93 282.066 949.383 281.871 948.953 281.48C948.562 281.09 948.367 280.562 948.367 279.898Z" fill="#212B37"/>
<path d="M337.5 388.18C341.562 388.18 345.371 386.773 348.926 383.961C352.52 381.148 355.664 377.203 358.359 372.125C361.094 367.047 363.223 361.09 364.746 354.254C366.309 347.379 367.09 339.898 367.09 331.812C367.09 323.727 366.328 316.246 364.805 309.371C363.281 302.457 361.152 296.461 358.418 291.383C355.723 286.266 352.578 282.301 348.984 279.488C345.43 276.676 341.602 275.27 337.5 275.27C333.398 275.27 329.551 276.676 325.957 279.488C322.402 282.301 319.277 286.266 316.582 291.383C313.887 296.461 311.758 302.457 310.195 309.371C308.672 316.246 307.91 323.727 307.91 331.812C307.91 339.898 308.672 347.379 310.195 354.254C311.758 361.09 313.887 367.047 316.582 372.125C319.316 377.203 322.461 381.148 326.016 383.961C329.609 386.773 333.438 388.18 337.5 388.18ZM337.5 282.359C340.352 282.359 343.086 283.688 345.703 286.344C348.32 288.961 350.645 292.555 352.676 297.125C354.707 301.695 356.309 306.969 357.48 312.945C358.652 318.883 359.238 325.172 359.238 331.812C359.238 338.375 358.652 344.605 357.48 350.504C356.309 356.402 354.707 361.656 352.676 366.266C350.645 370.836 348.32 374.43 345.703 377.047C343.086 379.703 340.352 381.031 337.5 381.031C334.648 381.031 331.914 379.703 329.297 377.047C326.68 374.43 324.355 370.836 322.324 366.266C320.293 361.656 318.691 356.402 317.52 350.504C316.348 344.605 315.762 338.375 315.762 331.812C315.762 325.172 316.348 318.883 317.52 312.945C318.691 306.969 320.293 301.695 322.324 297.125C324.355 292.555 326.68 288.961 329.297 286.344C331.914 283.688 334.648 282.359 337.5 282.359ZM333.691 276.09V387.066H341.367V276.09H333.691ZM337.5 353.727C331.484 353.727 325.781 354.234 320.391 355.25C315 356.227 310.137 357.652 305.801 359.527C301.504 361.363 297.988 363.531 295.254 366.031L301.172 370.895C303.75 368.863 306.836 367.145 310.43 365.738C314.062 364.293 318.145 363.219 322.676 362.516C327.246 361.773 332.188 361.402 337.5 361.402C342.812 361.402 347.734 361.773 352.266 362.516C356.836 363.219 360.918 364.293 364.512 365.738C368.145 367.145 371.25 368.863 373.828 370.895L379.746 366.031C377.012 363.531 373.477 361.363 369.141 359.527C364.844 357.652 360 356.227 354.609 355.25C349.219 354.234 343.516 353.727 337.5 353.727ZM391.582 327.828H283.418V335.504H391.582V327.828ZM337.5 309.957C343.516 309.957 349.219 309.469 354.609 308.492C360 307.477 364.844 306.051 369.141 304.215C373.477 302.34 377.012 300.152 379.746 297.652L373.828 292.789C371.25 294.82 368.145 296.559 364.512 298.004C360.918 299.41 356.836 300.484 352.266 301.227C347.734 301.93 342.812 302.281 337.5 302.281C332.188 302.281 327.246 301.93 322.676 301.227C318.145 300.484 314.062 299.41 310.43 298.004C306.836 296.559 303.75 294.82 301.172 292.789L295.254 297.652C297.988 300.152 301.504 302.34 305.801 304.215C310.137 306.051 315 307.477 320.391 308.492C325.781 309.469 331.484 309.957 337.5 309.957ZM337.5 391.461C345.664 391.461 353.34 389.898 360.527 386.773C367.754 383.648 374.121 379.332 379.629 373.824C385.137 368.316 389.453 361.969 392.578 354.781C395.703 347.555 397.266 339.859 397.266 331.695C397.266 323.531 395.703 315.855 392.578 308.668C389.453 301.441 385.137 295.074 379.629 289.566C374.121 284.059 367.754 279.742 360.527 276.617C353.301 273.492 345.605 271.93 337.441 271.93C329.277 271.93 321.582 273.492 314.355 276.617C307.168 279.742 300.82 284.059 295.312 289.566C289.844 295.074 285.547 301.441 282.422 308.668C279.297 315.855 277.734 323.531 277.734 331.695C277.734 339.859 279.297 347.555 282.422 354.781C285.547 361.969 289.863 368.316 295.371 373.824C300.879 379.332 307.227 383.648 314.414 386.773C321.641 389.898 329.336 391.461 337.5 391.461ZM337.5 383.492C330.43 383.492 323.77 382.125 317.52 379.391C311.27 376.695 305.762 372.965 300.996 368.199C296.23 363.434 292.48 357.926 289.746 351.676C287.051 345.426 285.703 338.766 285.703 331.695C285.703 324.625 287.051 317.965 289.746 311.715C292.48 305.465 296.211 299.957 300.938 295.191C305.703 290.426 311.211 286.695 317.461 284C323.711 281.266 330.371 279.898 337.441 279.898C344.512 279.898 351.172 281.266 357.422 284C363.672 286.695 369.18 290.426 373.945 295.191C378.75 299.957 382.5 305.465 385.195 311.715C387.93 317.965 389.297 324.625 389.297 331.695C389.297 338.766 387.93 345.426 385.195 351.676C382.5 357.926 378.77 363.434 374.004 368.199C369.238 372.965 363.73 376.695 357.48 379.391C351.23 382.125 344.57 383.492 337.5 383.492Z" fill="#212B37"/>
<circle cx="337.5" cy="703.5" r="37.5" fill="#33CC33"/>
<path d="M316 702L330 725.5L360.5 681" stroke="white" stroke-width="10" stroke-linejoin="bevel"/>
<circle cx="959.5" cy="703.5" r="37.5" fill="white"/>
<circle cx="1578.5" cy="703.5" r="37.5" fill="white"/>
<g filter="url(#filter0_d_26_12)">
<mask id="path-14-outside-1_26_12" maskUnits="userSpaceOnUse" x="100.246" y="103.435" width="272.638" height="298.093" fill="black">
<rect fill="white" x="100.246" y="103.435" width="272.638" height="298.093"/>
<path d="M290.081 158.698C264.055 136.803 224.742 138.776 202.448 163.105L163.308 205.848C158.002 211.563 153.95 218.325 151.411 225.698C148.872 233.071 147.902 240.894 148.564 248.664C149.658 261.761 155.088 274.118 163.994 283.782C161.594 291.003 160.689 298.637 161.335 306.219C162.015 314.144 164.271 321.854 167.969 328.896C171.668 335.938 176.734 342.171 182.873 347.23C208.985 369.101 248.229 367.147 270.523 342.818L309.662 300.074C314.967 294.358 319.018 287.597 321.557 280.224C324.096 272.851 325.067 265.029 324.407 257.259C323.318 244.149 317.884 231.778 308.968 222.107C311.368 214.886 312.273 207.252 311.627 199.669C310.948 191.743 308.691 184.032 304.989 176.99C301.288 169.948 296.216 163.717 290.072 158.663"/>
</mask>
<path d="M290.081 158.698C264.055 136.803 224.742 138.776 202.448 163.105L163.308 205.848C158.002 211.563 153.95 218.325 151.411 225.698C148.872 233.071 147.902 240.894 148.564 248.664C149.658 261.761 155.088 274.118 163.994 283.782C161.594 291.003 160.689 298.637 161.335 306.219C162.015 314.144 164.271 321.854 167.969 328.896C171.668 335.938 176.734 342.171 182.873 347.23C208.985 369.101 248.229 367.147 270.523 342.818L309.662 300.074C314.967 294.358 319.018 287.597 321.557 280.224C324.096 272.851 325.067 265.029 324.407 257.259C323.318 244.149 317.884 231.778 308.968 222.107C311.368 214.886 312.273 207.252 311.627 199.669C310.948 191.743 308.691 184.032 304.989 176.99C301.288 169.948 296.216 163.717 290.072 158.663" fill="#FF3E00"/>
<path d="M202.448 163.105L187.703 149.593L187.698 149.599L202.448 163.105ZM163.308 205.848L177.965 219.456L178.012 219.406L178.059 219.355L163.308 205.848ZM148.564 248.664L168.495 246.999L168.493 246.983L168.492 246.966L148.564 248.664ZM163.994 283.782L182.973 290.09L186.693 278.9L178.701 270.228L163.994 283.782ZM161.335 306.219L141.407 307.916L141.407 307.923L141.408 307.93L161.335 306.219ZM182.873 347.23L195.715 331.898L195.654 331.846L195.592 331.796L182.873 347.23ZM270.523 342.818L285.268 356.33L285.273 356.324L270.523 342.818ZM309.662 300.074L295.002 286.471L294.957 286.519L294.912 286.568L309.662 300.074ZM324.407 257.259L304.476 258.915L304.477 258.933L304.479 258.951L324.407 257.259ZM308.968 222.107L289.989 215.798L286.268 226.991L294.263 235.663L308.968 222.107ZM311.627 199.669L331.555 197.972L331.554 197.961L311.627 199.669ZM302.956 143.393C269.145 114.95 217.598 116.969 187.703 149.593L217.194 176.617C231.886 160.583 258.964 158.657 277.206 174.003L302.956 143.393ZM187.698 149.599L148.558 192.342L178.059 219.355L217.199 176.612L187.698 149.599ZM148.652 192.241C141.449 199.999 135.947 209.177 132.501 219.186L170.321 232.21C171.952 227.473 174.556 223.128 177.965 219.456L148.652 192.241ZM132.501 219.186C129.054 229.195 127.737 239.815 128.636 250.362L168.492 246.966C168.066 241.974 168.689 236.948 170.321 232.21L132.501 219.186ZM128.633 250.33C130.098 267.859 137.366 284.4 149.287 297.336L178.701 270.228C172.81 263.836 169.218 255.662 168.495 246.999L128.633 250.33ZM145.015 277.473C141.758 287.271 140.531 297.629 141.407 307.916L181.262 304.522C180.847 299.645 181.429 294.735 182.973 290.09L145.015 277.473ZM141.408 307.93C142.316 318.507 145.327 328.797 150.263 338.195L185.676 319.597C183.215 314.911 181.714 309.781 181.261 304.508L141.408 307.93ZM150.263 338.195C155.199 347.594 161.961 355.912 170.153 362.664L195.592 331.796C191.508 328.43 188.137 324.282 185.676 319.597L150.263 338.195ZM170.031 362.562C203.896 390.927 255.356 388.972 285.268 356.33L255.777 329.306C241.101 345.321 214.074 347.275 195.715 331.898L170.031 362.562ZM285.273 356.324L324.413 313.581L294.912 286.568L255.772 329.311L285.273 356.324ZM324.323 313.678C331.522 305.92 337.021 296.743 340.467 286.736L302.647 273.712C301.015 278.451 298.411 282.797 295.002 286.471L324.323 313.678ZM340.467 286.736C343.913 276.729 345.231 266.112 344.335 255.566L304.479 258.951C304.903 263.945 304.279 268.973 302.647 273.712L340.467 286.736ZM344.338 255.602C342.88 238.055 335.607 221.496 323.672 208.55L294.263 235.663C300.161 242.061 303.755 250.243 304.476 258.915L344.338 255.602ZM327.947 228.415C331.203 218.618 332.431 208.26 331.555 197.972L291.699 201.367C292.115 206.243 291.533 211.154 289.989 215.798L327.947 228.415ZM331.554 197.961C330.647 187.379 327.634 177.086 322.692 167.684L287.286 186.296C289.748 190.979 291.248 196.107 291.7 201.378L331.554 197.961ZM322.692 167.684C317.751 158.283 310.98 149.965 302.777 143.218L277.366 174.109C281.452 177.47 284.824 181.613 287.286 186.296L322.692 167.684Z" fill="white" mask="url(#path-14-outside-1_26_12)"/>
</g>
<path d="M290.081 158.698C264.055 136.803 224.742 138.776 202.448 163.105L163.308 205.848C158.002 211.563 153.95 218.325 151.411 225.698C148.872 233.071 147.902 240.894 148.564 248.664C149.658 261.761 155.088 274.118 163.994 283.782C161.594 291.003 160.689 298.637 161.335 306.219C162.015 314.144 164.271 321.854 167.969 328.896C171.668 335.938 176.734 342.171 182.873 347.23C208.985 369.101 248.229 367.147 270.523 342.818L309.662 300.074C314.967 294.358 319.018 287.597 321.557 280.224C324.096 272.851 325.067 265.029 324.407 257.259C323.318 244.149 317.884 231.778 308.968 222.107C311.368 214.886 312.273 207.252 311.627 199.669C310.948 191.743 308.691 184.032 304.989 176.99C301.288 169.948 296.216 163.717 290.072 158.663" fill="#FF3E00"/>
<path d="M243.232 333.726C236.326 337.645 228.384 339.35 220.478 338.61C212.572 337.871 205.084 334.723 199.024 329.591C195.326 326.555 192.271 322.81 190.04 318.577C187.809 314.344 186.446 309.708 186.031 304.941C185.899 303.373 185.877 301.798 185.965 300.227L186.131 297.274L189.013 298.343C195.696 300.953 202.778 302.4 209.95 302.619L211.811 302.691L212.099 304.455C212.56 306.997 213.9 309.297 215.884 310.952C217.715 312.546 219.997 313.53 222.413 313.766C224.829 314.003 227.259 313.482 229.365 312.274C230.313 311.727 231.172 311.038 231.91 310.23L270.969 267.527C271.929 266.487 272.663 265.26 273.126 263.923C273.588 262.585 273.768 261.166 273.655 259.756C273.541 258.323 273.144 256.927 272.485 255.65C271.827 254.372 270.921 253.238 269.82 252.314C267.992 250.767 265.734 249.817 263.35 249.593C260.966 249.369 258.57 249.883 256.487 251.063C255.535 251.615 254.672 252.306 253.924 253.112L238.928 269.429C236.474 272.109 233.621 274.395 230.471 276.206C223.561 280.131 215.613 281.84 207.701 281.102C199.788 280.364 192.293 277.215 186.229 272.08C182.543 269.033 179.503 265.282 177.287 261.045C175.07 256.808 173.722 252.171 173.321 247.407C172.93 242.734 173.515 238.031 175.04 233.597C176.565 229.163 178.997 225.095 182.18 221.651L221.255 178.944C223.709 176.264 226.562 173.978 229.713 172.167C236.62 168.244 244.566 166.536 252.475 167.275C260.384 168.014 267.876 171.163 273.938 176.298C277.636 179.334 280.69 183.078 282.922 187.311C285.153 191.544 286.516 196.181 286.931 200.948C287.063 202.515 287.085 204.091 286.997 205.661L286.831 208.615L283.949 207.546C277.265 204.935 270.184 203.489 263.012 203.27L261.151 203.197L260.863 201.434C260.401 198.891 259.062 196.592 257.078 194.936C255.252 193.386 252.993 192.435 250.609 192.211C248.224 191.987 245.828 192.502 243.745 193.685C242.797 194.232 241.938 194.922 241.2 195.73L201.993 238.362C201.032 239.399 200.298 240.626 199.839 241.963C199.379 243.3 199.204 244.719 199.324 246.128C199.429 247.563 199.822 248.962 200.482 250.241C201.141 251.519 202.051 252.652 203.159 253.57C204.987 255.117 207.245 256.067 209.629 256.291C212.014 256.515 214.409 256.001 216.492 254.821C217.444 254.269 218.308 253.578 219.055 252.772L233.982 236.473C236.436 233.793 239.289 231.507 242.44 229.697C249.349 225.771 257.297 224.062 265.21 224.8C273.122 225.538 280.617 228.687 286.682 233.823C290.375 236.863 293.424 240.61 295.649 244.845C297.874 249.079 299.231 253.716 299.641 258.482C300.032 263.155 299.447 267.857 297.922 272.292C296.397 276.726 293.965 280.794 290.782 284.237L251.707 326.945C249.253 329.625 246.4 331.911 243.249 333.722" fill="white"/>
<g filter="url(#filter1_d_26_12)">
<path d="M413.348 225.246L515.066 216.868L598.679 274.906L551.71 392.791L461.614 415.57L395.082 350.822L413.348 225.246Z" fill="#D9D9D9"/>
<path d="M412.527 215.28C407.885 215.662 404.122 219.198 403.452 223.807L385.186 349.383C384.724 352.554 385.811 355.754 388.107 357.989L454.64 422.737C457.129 425.159 460.698 426.117 464.065 425.265L554.161 402.486C557.269 401.7 559.813 399.471 560.999 396.492L607.969 278.607C609.691 274.284 608.204 269.344 604.381 266.691L520.768 208.654C518.863 207.331 516.557 206.712 514.245 206.902L412.527 215.28Z" stroke="white" stroke-width="20" stroke-linejoin="round"/>
</g>
<path d="M598.679 274.906L514.973 216.844L461.717 415.598L551.709 392.791L598.679 274.906Z" fill="#C3002F"/>
<path d="M413.348 225.246L514.871 216.816L461.615 415.57L395.082 350.822L413.348 225.246Z" fill="#DD0031"/>
<path d="M438.244 359.068L416.768 353.313L509.081 238.836L497.766 281.065L438.244 359.068Z" fill="white"/>
<path d="M510.311 378.378L531.787 384.132L509.08 238.836L497.765 281.064L510.311 378.378Z" fill="white"/>
<rect x="458.328" y="313.434" width="59.2177" height="18.8129" transform="rotate(15 458.328 313.434)" fill="white"/>
<g filter="url(#filter2_d_26_12)">
<path d="M251.975 377.922L296.469 366L236.69 587.841L74 425.61L159.094 402.809L197.166 440.335L210.818 388.95L251.975 377.922Z" fill="white"/>
<path d="M306.124 368.602C307.054 365.15 306.071 361.464 303.545 358.934C301.018 356.404 297.334 355.415 293.88 356.341L249.387 368.263L208.23 379.291C204.772 380.217 202.073 382.922 201.154 386.382L191.923 421.126L166.114 395.687C163.588 393.198 159.932 392.232 156.506 393.15L71.4118 415.951C67.9584 416.876 65.2618 419.575 64.3389 423.029C63.416 426.483 64.4073 430.167 66.9389 432.691L229.629 594.922C232.155 597.441 235.832 598.424 239.278 597.5C242.724 596.577 245.418 593.888 246.346 590.443L306.124 368.602Z" stroke="white" stroke-width="20" stroke-linejoin="round"/>
</g>
<path d="M74 425.61L236.69 587.841L296.469 366L251.975 377.922L216.108 511.027L117.938 413.837L74 425.61Z" fill="#41B883"/>
<path d="M117.937 413.837L216.256 511.583L251.974 377.922L210.818 388.95L197.166 440.335L159.094 402.809L117.937 413.837Z" fill="#35495E"/>
<g filter="url(#filter3_d_26_12)">
<path d="M408.379 571.883C412.281 572.146 416.361 572.241 420.589 572.176C420.538 577.167 420.68 581.945 421.017 586.463C423.008 613.178 431.947 631.16 443.565 634.268C455.533 637.469 473.604 625.685 489.285 602.292C491.466 599.037 493.589 595.545 495.648 591.843C499.939 594.376 504.142 596.636 508.216 598.598C532.357 610.221 552.397 611.452 560.893 602.939C569.646 594.17 568.461 572.631 556.026 547.359C554.336 543.922 552.419 540.419 550.297 536.868C553.297 535.161 556.155 533.416 558.857 531.64C583.104 515.698 595.571 497.629 592.302 485.427C589.164 473.717 570.46 464.868 543.395 462.977C539.086 462.677 534.558 462.548 529.847 462.591C529.883 458.88 529.802 455.286 529.599 451.829C527.901 422.851 518.475 403.024 506.273 399.762C494.565 396.632 477.553 408.411 462.393 430.913C459.977 434.498 457.6 438.359 455.281 442.466C452.076 440.576 448.915 438.847 445.811 437.293C419.86 424.296 397.98 422.558 389.057 431.504C380.493 440.082 382.207 460.704 394.13 485.076C396.041 488.981 398.213 492.99 400.629 497.073C396.1 499.606 391.871 502.204 387.99 504.843C365.839 519.905 354.726 536.635 357.838 548.251C361.046 560.222 380.28 569.983 408.379 571.883Z" fill="white"/>
<path d="M387.157 493.44C386.461 492.11 385.791 490.787 385.148 489.471L385.147 489.47C378.828 476.552 374.943 464.107 373.953 453.278C372.995 442.81 374.611 431.822 381.977 424.442C381.978 424.441 381.979 424.44 381.98 424.438C389.56 416.842 400.993 415.162 412.001 416.215C423.396 417.306 436.562 421.477 450.288 428.351L387.157 493.44ZM387.157 493.44C385.516 494.474 383.919 495.519 382.368 496.573L382.367 496.573C370.6 504.575 361.256 513.348 355.195 522.181C349.302 530.77 345.528 540.947 348.179 550.84C350.89 560.957 359.639 568.165 369.458 572.864C379.611 577.723 392.756 580.849 407.704 581.86L407.704 581.86C408.709 581.928 409.722 581.985 410.743 582.032C410.818 583.784 410.918 585.51 411.045 587.206C412.102 601.397 415.036 613.873 419.661 623.536C424.158 632.931 431.088 641.281 440.98 643.928L440.982 643.929C451.099 646.634 461.714 642.656 470.69 636.499C479.972 630.131 489.249 620.305 497.592 607.86L497.592 607.859C498.156 607.018 498.715 606.163 499.269 605.297C500.816 606.103 502.352 606.873 503.876 607.607L503.878 607.609C516.702 613.782 528.976 617.472 539.658 618.29C550.044 619.086 560.739 617.25 567.971 610.002C575.371 602.589 577.226 591.406 576.375 580.556C575.494 569.333 571.614 556.389 564.999 542.944C564.584 542.1 564.157 541.255 563.719 540.408C563.93 540.271 564.141 540.133 564.35 539.996C577.176 531.563 587.382 522.259 594.036 512.943C600.463 503.944 604.739 493.206 601.961 482.839C599.262 472.767 590.564 465.862 581.022 461.445C571.154 456.877 558.437 454.004 544.092 453.002L544.091 453.002C542.634 452.9 541.158 452.817 539.663 452.753C539.639 452.248 539.612 451.745 539.582 451.244L539.582 451.244C538.684 435.916 535.721 422.425 530.975 412.006C526.39 401.942 519.224 392.874 508.856 390.102C498.785 387.409 488.458 391.494 479.866 397.552C470.978 403.818 462.136 413.398 454.1 425.324L387.157 493.44ZM451.663 429.049C451.204 428.813 450.746 428.581 450.289 428.352L451.663 429.049Z" stroke="white" stroke-width="20" stroke-miterlimit="10"/>
</g>
<path d="M480.937 538.72C493.018 535.483 500.187 523.065 496.95 510.984C493.713 498.904 481.296 491.735 469.215 494.972C457.134 498.209 449.965 510.626 453.202 522.707C456.439 534.787 468.856 541.957 480.937 538.72Z" fill="#00D8FF"/>
<path d="M463.16 472.375C492.523 464.507 520.933 461.411 543.395 462.977C570.461 464.868 589.164 473.717 592.302 485.427C595.571 497.629 583.104 515.698 558.857 531.64C540.525 543.695 514.98 554.274 487.106 561.743C458.523 569.402 430.591 573.384 408.379 571.883C380.28 569.983 361.046 560.222 357.838 548.251C354.726 536.635 365.839 519.905 387.99 504.843C406.708 492.118 433.507 480.32 463.16 472.375V472.375Z" stroke="#00D8FF" stroke-width="10" stroke-miterlimit="10"/>
<path d="M430.443 505.112C438.294 475.745 449.809 449.586 462.393 430.913C477.554 408.411 494.565 396.632 506.274 399.762C518.475 403.024 527.902 422.851 529.6 451.829C530.883 473.737 527.287 501.143 519.829 529.027C512.186 557.611 501.678 583.801 489.286 602.292C473.605 625.684 455.533 637.469 443.566 634.268C431.948 631.16 423.008 613.178 421.017 586.463C419.334 563.873 422.506 534.767 430.443 505.112V505.112Z" stroke="#00D8FF" stroke-width="10" stroke-miterlimit="10"/>
<path d="M442.459 549.812C420.939 528.338 404.028 505.303 394.13 485.076C382.207 460.704 380.494 440.082 389.057 431.504C397.98 422.558 419.86 424.296 445.811 437.293C465.435 447.12 487.378 463.925 507.809 484.312C528.757 505.212 546.206 527.39 556.027 547.359C568.462 572.631 569.646 594.17 560.893 602.939C552.398 611.452 532.357 610.221 508.216 598.598C487.826 588.776 464.19 571.494 442.459 549.812V549.812Z" stroke="#00D8FF" stroke-width="10" stroke-miterlimit="10"/>
<defs>
<filter id="filter0_d_26_12" x="124.362" y="123.489" width="224.246" height="266.938" filterUnits="userSpaceOnUse" color-interpolation-filters="sRGB">
<feFlood flood-opacity="0" result="BackgroundImageFix"/>
<feColorMatrix in="SourceAlpha" type="matrix" values="0 0 0 0 0 0 0 0 0 0 0 0 0 0 0 0 0 0 127 0" result="hardAlpha"/>
<feOffset dy="4"/>
<feGaussianBlur stdDeviation="2"/>
<feComposite in2="hardAlpha" operator="out"/>
<feColorMatrix type="matrix" values="0 0 0 0 0 0 0 0 0 0 0 0 0 0 0 0 0 0 0.25 0"/>
<feBlend mode="normal" in2="BackgroundImageFix" result="effect1_dropShadow_26_12"/>
<feBlend mode="normal" in="SourceGraphic" in2="effect1_dropShadow_26_12" result="shape"/>
</filter>
<filter id="filter1_d_26_12" x="371.082" y="196.868" width="251.599" height="246.702" filterUnits="userSpaceOnUse" color-interpolation-filters="sRGB">
<feFlood flood-opacity="0" result="BackgroundImageFix"/>
<feColorMatrix in="SourceAlpha" type="matrix" values="0 0 0 0 0 0 0 0 0 0 0 0 0 0 0 0 0 0 127 0" result="hardAlpha"/>
<feOffset dy="4"/>
<feGaussianBlur stdDeviation="2"/>
<feComposite in2="hardAlpha" operator="out"/>
<feColorMatrix type="matrix" values="0 0 0 0 0 0 0 0 0 0 0 0 0 0 0 0 0 0 0.25 0"/>
<feBlend mode="normal" in2="BackgroundImageFix" result="effect1_dropShadow_26_12"/>
<feBlend mode="normal" in="SourceGraphic" in2="effect1_dropShadow_26_12" result="shape"/>
</filter>
<filter id="filter2_d_26_12" x="49.9995" y="346" width="270.47" height="269.842" filterUnits="userSpaceOnUse" color-interpolation-filters="sRGB">
<feFlood flood-opacity="0" result="BackgroundImageFix"/>
<feColorMatrix in="SourceAlpha" type="matrix" values="0 0 0 0 0 0 0 0 0 0 0 0 0 0 0 0 0 0 127 0" result="hardAlpha"/>
<feOffset dy="4"/>
<feGaussianBlur stdDeviation="2"/>
<feComposite in2="hardAlpha" operator="out"/>
<feColorMatrix type="matrix" values="0 0 0 0 0 0 0 0 0 0 0 0 0 0 0 0 0 0 0.25 0"/>
<feBlend mode="normal" in2="BackgroundImageFix" result="effect1_dropShadow_26_12"/>
<feBlend mode="normal" in="SourceGraphic" in2="effect1_dropShadow_26_12" result="shape"/>
</filter>
<filter id="filter3_d_26_12" x="333.31" y="379.25" width="283.521" height="283.549" filterUnits="userSpaceOnUse" color-interpolation-filters="sRGB">
<feFlood flood-opacity="0" result="BackgroundImageFix"/>
<feColorMatrix in="SourceAlpha" type="matrix" values="0 0 0 0 0 0 0 0 0 0 0 0 0 0 0 0 0 0 127 0" result="hardAlpha"/>
<feOffset dy="4"/>
<feGaussianBlur stdDeviation="2"/>
<feComposite in2="hardAlpha" operator="out"/>
<feColorMatrix type="matrix" values="0 0 0 0 0 0 0 0 0 0 0 0 0 0 0 0 0 0 0.25 0"/>
<feBlend mode="normal" in2="BackgroundImageFix" result="effect1_dropShadow_26_12"/>
<feBlend mode="normal" in="SourceGraphic" in2="effect1_dropShadow_26_12" result="shape"/>
</filter>
</defs>
</svg>
