<svg width="1920" height="1080" viewBox="0 0 1920 1080" fill="none" xmlns="http://www.w3.org/2000/svg">
<path d="M625 980.736C623.235 981.538 621.339 982.08 619.345 982.325C621.379 981.076 622.939 979.095 623.675 976.737C621.772 977.894 619.664 978.735 617.421 979.186C615.625 977.227 613.067 976 610.234 976C604.797 976 600.387 980.522 600.387 986.101C600.387 986.89 600.476 987.657 600.641 988.398C592.453 987.976 585.2 983.955 580.342 977.847C579.497 979.342 579.01 981.076 579.01 982.923C579.01 986.426 580.75 989.519 583.391 991.329C581.775 991.275 580.258 990.822 578.93 990.065V990.195C578.93 995.087 582.323 999.169 586.83 1000.1C586.001 1000.33 585.132 1000.45 584.236 1000.45C583.602 1000.45 582.983 1000.39 582.382 1000.27C583.636 1004.28 587.272 1007.2 591.582 1007.28C588.21 1009.99 583.963 1011.6 579.351 1011.6C578.556 1011.6 577.772 1011.56 577 1011.46C581.359 1014.33 586.534 1016 592.094 1016C610.211 1016 620.115 1000.61 620.115 987.271C620.115 986.838 620.104 986.4 620.085 985.966C622.009 984.54 623.679 982.765 624.996 980.743L625 980.736Z" fill="#1D9BF0"/>
<path d="M652.649 987.704C649.993 987.704 648.041 988.888 646.505 990.904L645.929 988.248H643.721V1007H646.729V993.144C648.041 991.512 649.705 990.168 652.041 990.168C654.857 990.168 655.945 991.992 655.945 995V1007H658.953V994.808C658.953 990.648 656.873 987.704 652.649 987.704ZM665.308 981.208V984.824H668.476V981.208H665.308ZM669.212 988.248H663.388V990.328L666.204 990.584V1007H669.212V988.248ZM691.617 1007L683.873 995.672L691.297 988.248H687.745L679.041 997.272V982.584H676.065V1007H679.041V1000.5L682.017 997.528L688.289 1007H691.617ZM695.839 981.208V984.824H699.007V981.208H695.839ZM699.743 988.248H693.919V990.328L696.735 990.584V1007H699.743V988.248ZM713.956 1004.57C711.62 1004.57 710.404 1003.58 710.404 1001.27V990.584H715.396V988.248H710.404V983.864H708.036L707.524 988.248H704.612V990.584H707.396V1001.53C707.396 1005.43 709.604 1007.16 713.636 1007.16C714.5 1007.16 715.46 1007.1 716.196 1007V1004.57H713.956ZM728.62 1007.51C733.708 1007.51 737.612 1003.99 737.612 997.656C737.612 991.256 733.676 987.704 728.62 987.704C723.596 987.704 719.66 991.224 719.66 997.656C719.66 1003.99 723.532 1007.51 728.62 1007.51ZM728.62 1005.11C725.228 1005.11 722.668 1002.55 722.668 997.656C722.668 992.696 725.228 990.136 728.62 990.136C732.044 990.136 734.604 992.696 734.604 997.656C734.604 1002.55 732.044 1005.11 728.62 1005.11ZM752.149 987.704C749.493 987.704 747.541 988.888 746.005 990.904L745.429 988.248H743.221V1007H746.229V993.144C747.541 991.512 749.205 990.168 751.541 990.168C754.357 990.168 755.445 991.992 755.445 995V1007H758.453V994.808C758.453 990.648 756.373 987.704 752.149 987.704ZM771.432 1007.51C776.04 1007.51 778.696 1005.24 778.696 1002.04C778.696 998.808 776.36 997.464 773.448 996.696L770.056 995.8C768.488 995.352 767.144 994.872 767.144 992.92C767.144 991.256 768.552 990.008 771.176 990.008C773.736 990.008 775.208 990.936 775.432 993.24H778.376C778.024 989.528 775.464 987.704 771.176 987.704C766.888 987.704 764.136 989.976 764.136 993.08C764.136 996.248 766.248 997.496 768.84 998.168L772.232 999.032C774.664 999.672 775.688 1000.5 775.688 1002.1C775.688 1003.9 774.344 1005.21 771.432 1005.21C768.424 1005.21 766.696 1004.22 766.376 1001.82H763.4C763.784 1005.4 766.376 1007.51 771.432 1007.51ZM799.398 1007L791.654 995.672L799.078 988.248H795.526L786.822 997.272V982.584H783.846V1007H786.822V1000.5L789.798 997.528L796.07 1007H799.398ZM805.412 1013.08C808.772 1013.08 810.148 1011.51 811.044 1008.98L818.5 988.248H815.428L810.372 1004.31L804.772 988.248H801.7L808.868 1006.94L808.292 1008.54C807.684 1010.2 806.532 1010.55 805.22 1010.55H803.716V1012.92C804.164 1013.02 804.836 1013.08 805.412 1013.08Z" fill="black"/>
<path fill-rule="evenodd" clip-rule="evenodd" d="M275 974C263.95 974 255 982.95 255 994C255 1002.85 260.725 1010.33 268.675 1012.98C269.675 1013.15 270.05 1012.55 270.05 1012.03C270.05 1011.55 270.025 1009.98 270.025 1008.3C265 1009.23 263.7 1007.07 263.3 1005.95C263.075 1005.37 262.1 1003.6 261.25 1003.12C260.55 1002.75 259.55 1001.82 261.225 1001.8C262.8 1001.77 263.925 1003.25 264.3 1003.85C266.1 1006.87 268.975 1006.03 270.125 1005.5C270.3 1004.2 270.825 1003.32 271.4 1002.82C266.95 1002.32 262.3 1000.6 262.3 992.95C262.3 990.775 263.075 988.975 264.35 987.575C264.15 987.075 263.45 985.025 264.55 982.275C264.55 982.275 266.225 981.75 270.05 984.325C271.65 983.875 273.35 983.65 275.05 983.65C276.75 983.65 278.45 983.875 280.05 984.325C283.875 981.725 285.55 982.275 285.55 982.275C286.65 985.025 285.95 987.075 285.75 987.575C287.025 988.975 287.8 990.75 287.8 992.95C287.8 1000.62 283.125 1002.32 278.675 1002.82C279.4 1003.45 280.025 1004.65 280.025 1006.53C280.025 1009.2 280 1011.35 280 1012.03C280 1012.55 280.375 1013.18 281.375 1012.98C285.345 1011.63 288.795 1009.08 291.24 1005.68C293.684 1002.28 294.999 998.191 295 994C295 982.95 286.05 974 275 974Z" fill="black"/>
<path d="M326.649 987.704C324.121 987.704 322.265 988.792 320.729 990.616V982.584H317.721V1007H320.729V993.144C322.041 991.512 323.705 990.168 326.041 990.168C328.857 990.168 329.945 991.992 329.945 995V1007H332.953V994.808C332.953 990.648 330.873 987.704 326.649 987.704ZM351.468 1002.14C350.188 1003.67 348.492 1005.05 346.22 1005.05C343.724 1005.05 342.412 1003.58 342.412 1000.28V988.248H339.404V1000.41C339.404 1004.6 341.484 1007.51 345.58 1007.51C348.204 1007.51 350.124 1006.33 351.724 1004.31L352.268 1007H354.476V988.248H351.468V1002.14ZM381.155 987.704C378.499 987.704 376.611 989.112 375.043 991.096C374.147 989.016 372.387 987.704 369.763 987.704C367.331 987.704 365.571 988.888 364.067 990.872L363.523 988.248H361.315V1007H364.323V993.016C365.571 991.48 367.107 990.168 369.219 990.168C371.715 990.168 372.707 991.928 372.707 995V1007H375.715V994.808C375.715 994.2 375.683 993.656 375.587 993.112C376.867 991.576 378.403 990.168 380.611 990.168C383.139 990.168 384.099 991.96 384.099 995V1007H387.107V994.808C387.107 990.68 385.155 987.704 381.155 987.704ZM402.68 987.704C400.248 987.704 398.328 988.536 396.76 990.296V982.584H393.752V1007H395.96L396.408 1004.86C397.848 1006.46 399.704 1007.51 402.264 1007.51C407.32 1007.51 410.936 1003.61 410.936 997.368C410.936 991.512 407.608 987.704 402.68 987.704ZM402.04 1005.11C399.8 1005.11 398.072 1004.06 396.76 1002.68V992.6C398.136 991.288 399.896 990.136 402.264 990.136C405.56 990.136 407.896 992.472 407.896 997.368C407.896 1002.9 405.176 1005.11 402.04 1005.11ZM422.773 1004.5C420.757 1004.5 419.381 1003.64 419.381 1001.24V982.584H416.373V1001.69C416.341 1005.72 418.965 1007.16 422.229 1007.16C423.093 1007.16 423.701 1007.1 424.533 1007V1004.5H422.773ZM444.339 997.368C444.339 991.064 441.139 987.704 436.051 987.704C431.155 987.704 427.379 991.128 427.379 997.592C427.379 1003.99 430.675 1007.51 436.019 1007.51C440.083 1007.51 442.963 1005.4 444.115 1001.82H441.171C440.211 1003.96 438.515 1005.14 436.019 1005.14C432.659 1005.14 430.643 1003.03 430.451 998.232H444.339V997.368ZM430.451 996.28C430.739 992.44 432.627 990.008 436.051 990.008C439.411 990.008 441.171 992.248 441.363 996.28H430.451ZM461.812 1002.14C460.532 1003.67 458.836 1005.05 456.564 1005.05C454.068 1005.05 452.756 1003.58 452.756 1000.28V988.248H449.748V1000.41C449.748 1004.6 451.828 1007.51 455.924 1007.51C458.548 1007.51 460.468 1006.33 462.068 1004.31L462.612 1007H464.82V988.248H461.812V1002.14ZM471.37 981.208V984.824H474.538V981.208H471.37ZM475.274 988.248H469.45V990.328L472.266 990.584V1007H475.274V988.248Z" fill="black"/>
<path d="M1316.11 1013.91H1342.79C1346.88 1013.91 1348.91 1011.88 1348.91 1007.85V984.004C1348.91 979.98 1346.88 977.949 1342.79 977.949H1316.11C1312.03 977.949 1309.98 979.961 1309.98 984.004V1007.85C1309.98 1011.89 1312.03 1013.91 1316.11 1013.91ZM1315.82 1010.76C1314.08 1010.76 1313.12 1009.84 1313.12 1008.03V989.609C1313.12 987.812 1314.08 986.875 1315.82 986.875H1343.05C1344.79 986.875 1345.76 987.812 1345.76 989.609V1008.03C1345.76 1009.84 1344.79 1010.76 1343.05 1010.76H1315.82Z" fill="#CC3333"/>
<path d="M1326.8 993.887H1325.64C1324.96 993.887 1324.73 993.691 1324.73 993.008V991.855C1324.73 991.172 1324.96 990.957 1325.64 990.957H1326.8C1327.48 990.957 1327.7 991.172 1327.7 991.855V993.008C1327.7 993.691 1327.48 993.887 1326.8 993.887Z" fill="black"/>
<path d="M1333.28 993.887H1332.13C1331.45 993.887 1331.21 993.691 1331.21 993.008V991.855C1331.21 991.172 1331.45 990.957 1332.13 990.957H1333.28C1333.96 990.957 1334.2 991.172 1334.2 991.855V993.008C1334.2 993.691 1333.96 993.887 1333.28 993.887Z" fill="black"/>
<path d="M1339.77 993.887H1338.61C1337.93 993.887 1337.71 993.691 1337.71 993.008V991.855C1337.71 991.172 1337.93 990.957 1338.61 990.957H1339.77C1340.45 990.957 1340.68 991.172 1340.68 991.855V993.008C1340.68 993.691 1340.45 993.887 1339.77 993.887Z" fill="black"/>
<path d="M1320.29 1000.27H1319.16C1318.46 1000.27 1318.24 1000.08 1318.24 999.395V998.242C1318.24 997.559 1318.46 997.363 1319.16 997.363H1320.29C1321 997.363 1321.21 997.559 1321.21 998.242V999.395C1321.21 1000.08 1321 1000.27 1320.29 1000.27Z" fill="black"/>
<path d="M1326.8 1000.27H1325.64C1324.96 1000.27 1324.73 1000.08 1324.73 999.395V998.242C1324.73 997.559 1324.96 997.363 1325.64 997.363H1326.8C1327.48 997.363 1327.7 997.559 1327.7 998.242V999.395C1327.7 1000.08 1327.48 1000.27 1326.8 1000.27Z" fill="black"/>
<path d="M1333.28 1000.27H1332.13C1331.45 1000.27 1331.21 1000.08 1331.21 999.395V998.242C1331.21 997.559 1331.45 997.363 1332.13 997.363H1333.28C1333.96 997.363 1334.2 997.559 1334.2 998.242V999.395C1334.2 1000.08 1333.96 1000.27 1333.28 1000.27Z" fill="black"/>
<path d="M1339.77 1000.27H1338.61C1337.93 1000.27 1337.71 1000.08 1337.71 999.395V998.242C1337.71 997.559 1337.93 997.363 1338.61 997.363H1339.77C1340.45 997.363 1340.68 997.559 1340.68 998.242V999.395C1340.68 1000.08 1340.45 1000.27 1339.77 1000.27Z" fill="black"/>
<path d="M1320.29 1006.68H1319.16C1318.46 1006.68 1318.24 1006.46 1318.24 1005.78V1004.63C1318.24 1003.95 1318.46 1003.75 1319.16 1003.75H1320.29C1321 1003.75 1321.21 1003.95 1321.21 1004.63V1005.78C1321.21 1006.46 1321 1006.68 1320.29 1006.68Z" fill="black"/>
<path d="M1326.8 1006.68H1325.64C1324.96 1006.68 1324.73 1006.46 1324.73 1005.78V1004.63C1324.73 1003.95 1324.96 1003.75 1325.64 1003.75H1326.8C1327.48 1003.75 1327.7 1003.95 1327.7 1004.63V1005.78C1327.7 1006.46 1327.48 1006.68 1326.8 1006.68Z" fill="black"/>
<path d="M1333.28 1006.68H1332.13C1331.45 1006.68 1331.21 1006.46 1331.21 1005.78V1004.63C1331.21 1003.95 1331.45 1003.75 1332.13 1003.75H1333.28C1333.96 1003.75 1334.2 1003.95 1334.2 1004.63V1005.78C1334.2 1006.46 1333.96 1006.68 1333.28 1006.68Z" fill="black"/>
<path d="M1378.87 1007.51C1383.48 1007.51 1386.13 1005.24 1386.13 1002.04C1386.13 998.808 1383.8 997.464 1380.89 996.696L1377.49 995.8C1375.93 995.352 1374.58 994.872 1374.58 992.92C1374.58 991.256 1375.99 990.008 1378.61 990.008C1381.17 990.008 1382.65 990.936 1382.87 993.24H1385.81C1385.46 989.528 1382.9 987.704 1378.61 987.704C1374.33 987.704 1371.57 989.976 1371.57 993.08C1371.57 996.248 1373.69 997.496 1376.28 998.168L1379.67 999.032C1382.1 999.672 1383.13 1000.5 1383.13 1002.1C1383.13 1003.9 1381.78 1005.21 1378.87 1005.21C1375.86 1005.21 1374.13 1004.22 1373.81 1001.82H1370.84C1371.22 1005.4 1373.81 1007.51 1378.87 1007.51ZM1407 997.368C1407 991.064 1403.8 987.704 1398.71 987.704C1393.81 987.704 1390.04 991.128 1390.04 997.592C1390.04 1003.99 1393.33 1007.51 1398.68 1007.51C1402.74 1007.51 1405.62 1005.4 1406.77 1001.82H1403.83C1402.87 1003.96 1401.17 1005.14 1398.68 1005.14C1395.32 1005.14 1393.3 1003.03 1393.11 998.232H1407V997.368ZM1393.11 996.28C1393.4 992.44 1395.28 990.008 1398.71 990.008C1402.07 990.008 1403.83 992.248 1404.02 996.28H1393.11ZM1421.49 987.704C1418.93 987.704 1416.92 988.632 1415.28 990.616L1414.8 988.248H1412.6V1012.92H1415.6V1005.24C1416.98 1006.62 1418.74 1007.51 1421.08 1007.51C1426.13 1007.51 1429.75 1003.61 1429.75 997.368C1429.75 991.512 1426.42 987.704 1421.49 987.704ZM1420.85 1005.11C1418.64 1005.11 1416.95 1004.06 1415.6 1002.71V992.6C1417.01 991.256 1418.74 990.136 1421.08 990.136C1424.37 990.136 1426.71 992.472 1426.71 997.368C1426.71 1002.9 1423.99 1005.11 1420.85 1005.11ZM1442.71 1004.57C1440.37 1004.57 1439.15 1003.58 1439.15 1001.27V990.584H1444.15V988.248H1439.15V983.864H1436.79L1436.27 988.248H1433.36V990.584H1436.15V1001.53C1436.15 1005.43 1438.35 1007.16 1442.39 1007.16C1443.25 1007.16 1444.21 1007.1 1444.95 1007V1004.57H1442.71ZM1465.37 997.368C1465.37 991.064 1462.17 987.704 1457.08 987.704C1452.19 987.704 1448.41 991.128 1448.41 997.592C1448.41 1003.99 1451.71 1007.51 1457.05 1007.51C1461.11 1007.51 1463.99 1005.4 1465.15 1001.82H1462.2C1461.24 1003.96 1459.55 1005.14 1457.05 1005.14C1453.69 1005.14 1451.67 1003.03 1451.48 998.232H1465.37V997.368ZM1451.48 996.28C1451.77 992.44 1453.66 990.008 1457.08 990.008C1460.44 990.008 1462.2 992.248 1462.39 996.28H1451.48ZM1490.81 987.704C1488.15 987.704 1486.27 989.112 1484.7 991.096C1483.8 989.016 1482.04 987.704 1479.42 987.704C1476.99 987.704 1475.23 988.888 1473.72 990.872L1473.18 988.248H1470.97V1007H1473.98V993.016C1475.23 991.48 1476.76 990.168 1478.87 990.168C1481.37 990.168 1482.36 991.928 1482.36 995V1007H1485.37V994.808C1485.37 994.2 1485.34 993.656 1485.24 993.112C1486.52 991.576 1488.06 990.168 1490.27 990.168C1492.79 990.168 1493.75 991.96 1493.75 995V1007H1496.76V994.808C1496.76 990.68 1494.81 987.704 1490.81 987.704ZM1512.34 987.704C1509.9 987.704 1507.98 988.536 1506.42 990.296V982.584H1503.41V1007H1505.62L1506.06 1004.86C1507.5 1006.46 1509.36 1007.51 1511.92 1007.51C1516.98 1007.51 1520.59 1003.61 1520.59 997.368C1520.59 991.512 1517.26 987.704 1512.34 987.704ZM1511.7 1005.11C1509.46 1005.11 1507.73 1004.06 1506.42 1002.68V992.6C1507.79 991.288 1509.55 990.136 1511.92 990.136C1515.22 990.136 1517.55 992.472 1517.55 997.368C1517.55 1002.9 1514.83 1005.11 1511.7 1005.11ZM1541.9 997.368C1541.9 991.064 1538.7 987.704 1533.61 987.704C1528.72 987.704 1524.94 991.128 1524.94 997.592C1524.94 1003.99 1528.24 1007.51 1533.58 1007.51C1537.65 1007.51 1540.53 1005.4 1541.68 1001.82H1538.73C1537.77 1003.96 1536.08 1005.14 1533.58 1005.14C1530.22 1005.14 1528.21 1003.03 1528.01 998.232H1541.9V997.368ZM1528.01 996.28C1528.3 992.44 1530.19 990.008 1533.61 990.008C1536.97 990.008 1538.73 992.248 1538.93 996.28H1528.01ZM1556.62 988.184C1554.29 988.184 1552.21 989.72 1551.05 991.992L1550.32 988.248H1545.29V990.328L1548.11 990.584V1007H1551.12V994.712C1552.27 992.184 1554.32 991.544 1556.56 991.544H1557.84V988.248C1557.55 988.216 1557.17 988.184 1556.62 988.184ZM1580.4 999.768C1582.84 997.848 1584.6 996.088 1584.6 993.24C1584.6 989.944 1581.94 987.704 1577.65 987.704C1573.17 987.704 1570.29 989.944 1569.94 993.784H1572.79C1573.17 991.352 1574.77 990.072 1577.65 990.072C1580.08 990.072 1581.56 991.192 1581.56 993.24C1581.56 995.32 1580.08 996.696 1578.04 998.36L1570.29 1004.6V1007H1585.01V1004.6H1574.2L1580.4 999.768ZM1598.28 1007.51C1603.37 1007.51 1607.43 1004.47 1607.43 997.56C1607.43 990.552 1603.37 987.704 1598.28 987.704C1593.19 987.704 1589.13 990.552 1589.13 997.56C1589.13 1004.47 1593.23 1007.51 1598.28 1007.51ZM1598.31 1005.14C1595.05 1005.14 1592.11 1002.9 1592.11 997.56C1592.11 992.088 1595.02 990.072 1598.28 990.072C1601.58 990.072 1604.49 992.152 1604.49 997.56C1604.49 1002.94 1601.51 1005.14 1598.31 1005.14ZM1621.87 999.768C1624.31 997.848 1626.07 996.088 1626.07 993.24C1626.07 989.944 1623.41 987.704 1619.12 987.704C1614.64 987.704 1611.76 989.944 1611.41 993.784H1614.26C1614.64 991.352 1616.24 990.072 1619.12 990.072C1621.55 990.072 1623.03 991.192 1623.03 993.24C1623.03 995.32 1621.55 996.696 1619.51 998.36L1611.76 1004.6V1007H1626.48V1004.6H1615.67L1621.87 999.768ZM1641.19 999.768C1643.62 997.848 1645.38 996.088 1645.38 993.24C1645.38 989.944 1642.72 987.704 1638.43 987.704C1633.95 987.704 1631.07 989.944 1630.72 993.784H1633.57C1633.95 991.352 1635.55 990.072 1638.43 990.072C1640.87 990.072 1642.34 991.192 1642.34 993.24C1642.34 995.32 1640.87 996.696 1638.82 998.36L1631.07 1004.6V1007H1645.79V1004.6H1634.98L1641.19 999.768Z" fill="black"/>
<circle cx="936" cy="996" r="22" fill="white"/>
<path d="M936 1016C924.954 1016 916 1007.05 916 996C916 984.954 924.954 976 936 976V1016Z" fill="#6AD305"/>
<path d="M936 1016C947.046 1016 956 1007.05 956 996C956 984.954 947.046 976 936 976V1016Z" fill="#4581FF"/>
<circle cx="936" cy="996" r="15" fill="white"/>
<path d="M936 984C929.373 984 924 989.373 924 996C924 1002.63 929.373 1008 936 1008V984Z" fill="#6AD305"/>
<path d="M936 984C942.627 984 948 989.373 948 996C948 1002.63 942.627 1008 936 1008V984Z" fill="#4581FF"/>
<path d="M937 975H935L933 1017.04L939 1017L937 975Z" fill="white"/>
<circle cx="936" cy="993" r="5" fill="white"/>
<path d="M986.068 1007.51C990.036 1007.51 993.108 1005.46 993.972 1001.82H990.964C990.26 1003.99 988.34 1005.11 986.068 1005.11C982.708 1005.11 980.34 1002.62 980.34 997.656C980.34 992.76 982.772 990.136 986.164 990.136C988.948 990.136 990.196 991.416 990.868 993.24H993.876C993.108 989.944 990.644 987.704 986.164 987.704C980.916 987.704 977.332 991.448 977.332 997.656C977.332 1003.96 980.724 1007.51 986.068 1007.51ZM1005.57 1004.5C1003.55 1004.5 1002.18 1003.64 1002.18 1001.24V982.584H999.17V1001.69C999.138 1005.72 1001.76 1007.16 1005.03 1007.16C1005.89 1007.16 1006.5 1007.1 1007.33 1007V1004.5H1005.57ZM1019.14 1007.51C1024.22 1007.51 1028.13 1003.99 1028.13 997.656C1028.13 991.256 1024.19 987.704 1019.14 987.704C1014.11 987.704 1010.18 991.224 1010.18 997.656C1010.18 1003.99 1014.05 1007.51 1019.14 1007.51ZM1019.14 1005.11C1015.74 1005.11 1013.18 1002.55 1013.18 997.656C1013.18 992.696 1015.74 990.136 1019.14 990.136C1022.56 990.136 1025.12 992.696 1025.12 997.656C1025.12 1002.55 1022.56 1005.11 1019.14 1005.11ZM1033.45 981.208V984.824H1036.62V981.208H1033.45ZM1037.35 988.248H1031.53V990.328L1034.34 990.584V1008.06C1034.34 1009.98 1033.54 1010.62 1032.14 1010.62H1031.14V1012.92C1031.53 1013.02 1032.01 1013.08 1032.65 1013.08C1036.26 1013.08 1037.35 1011.03 1037.35 1007.99V988.248ZM1056.08 1002.14C1054.8 1003.67 1053.1 1005.05 1050.83 1005.05C1048.33 1005.05 1047.02 1003.58 1047.02 1000.28V988.248H1044.01V1000.41C1044.01 1004.6 1046.09 1007.51 1050.19 1007.51C1052.81 1007.51 1054.73 1006.33 1056.33 1004.31L1056.88 1007H1059.09V988.248H1056.08V1002.14ZM1075.04 988.184C1072.71 988.184 1070.63 989.72 1069.48 991.992L1068.74 988.248H1063.72V990.328L1066.53 990.584V1007H1069.54V994.712C1070.69 992.184 1072.74 991.544 1074.98 991.544H1076.26V988.248C1075.97 988.216 1075.59 988.184 1075.04 988.184ZM1095.79 997.368C1095.79 991.064 1092.59 987.704 1087.5 987.704C1082.61 987.704 1078.83 991.128 1078.83 997.592C1078.83 1003.99 1082.13 1007.51 1087.47 1007.51C1091.54 1007.51 1094.42 1005.4 1095.57 1001.82H1092.62C1091.66 1003.96 1089.97 1005.14 1087.47 1005.14C1084.11 1005.14 1082.1 1003.03 1081.9 998.232H1095.79V997.368ZM1081.9 996.28C1082.19 992.44 1084.08 990.008 1087.5 990.008C1090.86 990.008 1092.62 992.248 1092.82 996.28H1081.9ZM1119.79 987.704C1117.36 987.704 1115.44 988.536 1113.87 990.296V982.584H1110.86V1007H1113.07L1113.52 1004.86C1114.96 1006.46 1116.81 1007.51 1119.37 1007.51C1124.43 1007.51 1128.05 1003.61 1128.05 997.368C1128.05 991.512 1124.72 987.704 1119.79 987.704ZM1119.15 1005.11C1116.91 1005.11 1115.18 1004.06 1113.87 1002.68V992.6C1115.25 991.288 1117.01 990.136 1119.37 990.136C1122.67 990.136 1125.01 992.472 1125.01 997.368C1125.01 1002.9 1122.29 1005.11 1119.15 1005.11ZM1149.35 997.368C1149.35 991.064 1146.15 987.704 1141.07 987.704C1136.17 987.704 1132.39 991.128 1132.39 997.592C1132.39 1003.99 1135.69 1007.51 1141.03 1007.51C1145.1 1007.51 1147.98 1005.4 1149.13 1001.82H1146.19C1145.23 1003.96 1143.53 1005.14 1141.03 1005.14C1137.67 1005.14 1135.66 1003.03 1135.47 998.232H1149.35V997.368ZM1135.47 996.28C1135.75 992.44 1137.64 990.008 1141.07 990.008C1144.43 990.008 1146.19 992.248 1146.38 996.28H1135.47ZM1164.08 988.184C1161.74 988.184 1159.66 989.72 1158.51 991.992L1157.77 988.248H1152.75V990.328L1155.56 990.584V1007H1158.57V994.712C1159.72 992.184 1161.77 991.544 1164.01 991.544H1165.29V988.248C1165 988.216 1164.62 988.184 1164.08 988.184ZM1176.07 1004.5C1174.05 1004.5 1172.68 1003.64 1172.68 1001.24V982.584H1169.67V1001.69C1169.64 1005.72 1172.26 1007.16 1175.53 1007.16C1176.39 1007.16 1177 1007.1 1177.83 1007V1004.5H1176.07ZM1181.64 981.208V984.824H1184.8V981.208H1181.64ZM1185.54 988.248H1179.72V990.328L1182.53 990.584V1007H1185.54V988.248ZM1201.32 987.704C1198.66 987.704 1196.71 988.888 1195.18 990.904L1194.6 988.248H1192.39V1007H1195.4V993.144C1196.71 991.512 1198.38 990.168 1200.71 990.168C1203.53 990.168 1204.62 991.992 1204.62 995V1007H1207.62V994.808C1207.62 990.648 1205.54 987.704 1201.32 987.704Z" fill="black"/>
<path d="M664.617 524.015V557H676.542C687.522 557 693.597 551.51 693.597 540.53C693.597 529.505 687.522 524.015 676.587 524.015H664.617ZM677.217 530.135C682.572 530.135 685.227 533.375 685.227 540.53C685.227 547.73 682.572 550.88 677.127 550.88H672.852V530.135H677.217ZM724.575 543.68C724.575 535.13 719.94 529.82 711.705 529.82C703.74 529.82 698.43 534.995 698.43 543.725C698.43 552.68 703.56 557.765 711.795 557.765C718.815 557.765 722.955 554.12 724.305 549.125H716.43C715.62 551.195 714.18 552.365 711.66 552.365C708.33 552.365 706.665 550.16 706.395 545.075H724.575V543.68ZM706.44 541.295C706.845 536.975 708.555 534.95 711.57 534.95C714.675 534.95 716.43 536.705 716.655 541.295H706.44ZM741.379 557.765C748.894 557.765 753.214 554.39 753.214 549.35C753.214 544.67 750.199 542.87 745.879 541.79L740.704 540.485C738.949 540.035 737.824 539.36 737.824 537.605C737.824 536.03 739.039 534.815 741.334 534.815C743.719 534.815 745.069 535.94 745.204 538.1H752.809C752.269 532.745 748.669 529.82 741.424 529.82C734.404 529.82 729.904 533.33 729.904 538.235C729.904 542.825 732.964 544.625 737.014 545.615L742.009 546.785C744.574 547.415 745.294 548.36 745.294 549.8C745.294 551.465 744.079 552.68 741.379 552.68C738.544 552.68 736.834 551.78 736.564 549.125H729.094C729.544 554.84 733.999 557.765 741.379 557.765ZM784.892 557L774.182 540.935L784.397 530.63H776.027L766.937 540.62V522.665H759.152V557H766.937V548.27L769.502 545.66L776.207 557H784.892ZM802.703 551.105C800.138 551.105 798.563 549.98 798.563 547.46V536.03H804.728V530.63H798.563V524.465H791.948L791.138 530.63H787.133V536.03H790.778V547.955C790.778 554.435 794.153 557.27 800.993 557.27C802.703 557.27 804.368 557.18 805.583 557V551.105H802.703ZM823.2 557.765C831.12 557.765 836.745 552.635 836.745 543.815C836.745 534.905 831.075 529.82 823.2 529.82C815.37 529.82 809.655 534.905 809.655 543.815C809.655 552.635 815.325 557.765 823.2 557.765ZM823.2 552.185C819.78 552.185 817.575 549.35 817.575 543.815C817.575 538.235 819.78 535.4 823.2 535.4C826.62 535.4 828.87 538.235 828.87 543.815C828.87 549.35 826.62 552.185 823.2 552.185ZM858.026 529.82C854.561 529.82 851.906 531.125 849.701 533.735L848.396 530.63H843.131V565.325H850.961V555.47C852.671 556.865 854.831 557.765 857.531 557.765C865.136 557.765 869.456 551.6 869.456 543.59C869.456 535.895 865.451 529.82 858.026 529.82ZM855.821 552.185C853.976 552.185 852.356 551.645 850.961 550.79V536.93C852.536 536.03 854.201 535.4 856.181 535.4C859.466 535.4 861.536 537.695 861.536 543.59C861.536 549.755 859.196 552.185 855.821 552.185ZM901.836 557.765C910.476 557.765 915.426 553.175 915.426 545.435V524.015H907.191V544.985C907.191 549.485 905.391 551.42 901.836 551.42C898.326 551.42 896.481 549.485 896.481 544.985V524.015H888.246V545.435C888.246 553.175 893.196 557.765 901.836 557.765ZM930.415 557V524.015H922.18V557H930.415ZM963.897 557L968.487 536.12L973.032 557H981.717L988.827 530.63H980.997L977.082 551.375L972.447 530.63H964.437L959.847 551.375L955.887 530.63H948.057L955.212 557H963.897ZM993.633 519.74V526.715H1001.55V519.74H993.633ZM1002.81 530.63H991.203V535.49L994.983 536.03V557H1002.81V530.63ZM1023.84 551.105C1021.27 551.105 1019.7 549.98 1019.7 547.46V536.03H1025.86V530.63H1019.7V524.465H1013.08L1012.27 530.63H1008.27V536.03H1011.91V547.955C1011.91 554.435 1015.29 557.27 1022.13 557.27C1023.84 557.27 1025.5 557.18 1026.72 557V551.105H1023.84ZM1048.01 529.82C1045.04 529.82 1042.61 531.08 1040.5 533.015V522.665H1032.67V557H1040.5V537.515C1041.94 536.39 1043.47 535.67 1045.31 535.67C1048.01 535.67 1048.96 537.335 1048.96 540.53V557H1056.79V540.17C1056.79 533.825 1053.91 529.82 1048.01 529.82ZM1091.58 557.765C1099.68 557.765 1105.39 553.31 1106.25 546.335H1098.06C1097.29 549.44 1095.31 551.42 1091.58 551.42C1086.94 551.42 1084.33 547.865 1084.33 540.395C1084.33 533.24 1087.03 529.55 1091.94 529.55C1095.72 529.55 1097.43 531.62 1097.88 533.51H1106.11C1105.35 528.245 1100.53 523.25 1091.89 523.25C1082.22 523.25 1075.96 529.595 1075.96 540.395C1075.96 551.78 1081.95 557.765 1091.58 557.765ZM1123.73 551.06C1121.3 551.06 1119.86 549.98 1119.86 547.37V522.665H1112.03V548.27C1111.98 554.705 1115.9 557.27 1121.57 557.27C1123.23 557.27 1124.36 557.135 1125.44 557V551.06H1123.73ZM1142.07 557.765C1149.99 557.765 1155.61 552.635 1155.61 543.815C1155.61 534.905 1149.94 529.82 1142.07 529.82C1134.24 529.82 1128.52 534.905 1128.52 543.815C1128.52 552.635 1134.19 557.765 1142.07 557.765ZM1142.07 552.185C1138.65 552.185 1136.44 549.35 1136.44 543.815C1136.44 538.235 1138.65 535.4 1142.07 535.4C1145.49 535.4 1147.74 538.235 1147.74 543.815C1147.74 549.35 1145.49 552.185 1142.07 552.185ZM1161.55 519.74V526.715H1169.47V519.74H1161.55ZM1170.77 530.63H1159.16V535.49L1162.94 536.03V556.505C1162.94 559.205 1162 559.925 1159.93 559.925H1158.76V565.37C1159.43 565.505 1160.42 565.595 1161.32 565.595C1168.84 565.595 1170.77 562.265 1170.77 556.55V530.63ZM1194.32 550.07C1192.88 551.195 1191.35 551.96 1189.59 551.96C1187.21 551.96 1186.13 550.475 1186.13 547.145V530.63H1178.3V547.46C1178.3 553.805 1181.13 557.765 1186.89 557.765C1190.4 557.765 1193.1 556.1 1195.4 553.625L1196.79 557H1202.15V530.63H1194.32V550.07ZM1226.05 530.54C1222.59 530.54 1219.93 532.52 1218.31 535.805L1216.15 530.63H1207.06V535.49L1210.84 536.03V557H1218.67V541.7C1220.02 539.27 1222.36 538.55 1225.06 538.55H1227.54V530.63C1227.22 530.585 1226.73 530.54 1226.05 530.54ZM1256.49 543.68C1256.49 535.13 1251.85 529.82 1243.62 529.82C1235.65 529.82 1230.34 534.995 1230.34 543.725C1230.34 552.68 1235.47 557.765 1243.71 557.765C1250.73 557.765 1254.87 554.12 1256.22 549.125H1248.34C1247.53 551.195 1246.09 552.365 1243.57 552.365C1240.24 552.365 1238.58 550.16 1238.31 545.075H1256.49V543.68ZM1238.35 541.295C1238.76 536.975 1240.47 534.95 1243.48 534.95C1246.59 534.95 1248.34 536.705 1248.57 541.295H1238.35Z" fill="#212B37"/>
</svg>
