<svg width="1920" height="1080" viewBox="0 0 1920 1080" fill="none" xmlns="http://www.w3.org/2000/svg">
<rect width="1920" height="1080" fill="white"/>
<path d="M206.268 171.232C205.291 170.256 203.709 170.256 202.732 171.232L186.822 187.142C185.846 188.118 185.846 189.701 186.822 190.678C187.799 191.654 189.382 191.654 190.358 190.678L204.5 176.536L218.642 190.678C219.618 191.654 221.201 191.654 222.178 190.678C223.154 189.701 223.154 188.118 222.178 187.142L206.268 171.232ZM204.5 908.5H202V911H204.5V908.5ZM1752.77 910.268C1753.74 909.291 1753.74 907.709 1752.77 906.732L1736.86 890.822C1735.88 889.846 1734.3 889.846 1733.32 890.822C1732.35 891.799 1732.35 893.382 1733.32 894.358L1747.46 908.5L1733.32 922.642C1732.35 923.618 1732.35 925.201 1733.32 926.178C1734.3 927.154 1735.88 927.154 1736.86 926.178L1752.77 910.268ZM202 173L202 908.5H207L207 173H202ZM204.5 911H1751V906H204.5V911Z" fill="black"/>
<path d="M73.7184 130.96C84.5184 130.96 90.6384 125.02 90.6384 114.34V86.02H84.8184V113.56C84.8184 122.02 81.0984 125.98 73.7184 125.98C66.3984 125.98 62.6784 122.02 62.6784 113.56L62.6784 86.02H56.8584L56.8584 114.34C56.8584 125.02 62.9784 130.96 73.7184 130.96ZM107.985 130V86.02L102.165 86.02V130H107.985ZM163.109 98.8C160.409 95.8 156.929 93.82 152.129 93.82C142.649 93.82 135.869 101.14 135.869 112.84C135.869 123.82 142.109 130.96 151.349 130.96C155.909 130.96 159.509 129.4 162.449 126.1V141.1H168.089V94.84H163.889L163.109 98.8ZM152.129 126.4C145.949 126.4 141.569 122.02 141.569 112.84C141.569 102.46 146.669 98.32 152.549 98.32C156.749 98.32 159.929 100.3 162.449 102.88V121.78C159.869 124.24 156.569 126.4 152.129 126.4ZM203.125 120.88C200.725 123.76 197.545 126.34 193.285 126.34C188.605 126.34 186.145 123.58 186.145 117.4V94.84H180.505V117.64C180.505 125.5 184.405 130.96 192.085 130.96C197.005 130.96 200.605 128.74 203.605 124.96L204.625 130H208.765V94.84H203.125V120.88ZM249.848 125.74C247.928 125.74 247.328 124.54 247.328 122.32V105.52C247.328 98.32 243.008 93.82 234.248 93.82C226.628 93.82 220.808 97.84 220.388 104.2H225.908C226.328 100.3 229.628 98.08 234.248 98.08C239.228 98.08 241.688 100.66 241.688 105.22V109.36L234.848 109.42C222.728 109.54 218.948 114.7 218.948 121C218.948 127.06 223.448 130.96 230.528 130.96C235.688 130.96 239.648 128.92 242.228 126.22C242.888 128.56 244.928 130.3 248.168 130.3C249.008 130.3 249.848 130.24 250.508 130V125.74H249.848ZM224.588 120.88C224.588 116.68 227.108 113.08 235.688 113.08H241.688V122.44L241.748 122.74C238.988 124.9 235.628 126.76 231.368 126.76C227.228 126.76 224.588 124.54 224.588 120.88ZM271.901 125.32C268.121 125.32 265.541 123.7 265.541 119.2V84.22H259.901V120.04C259.841 127.6 264.761 130.3 270.881 130.3C272.501 130.3 273.641 130.18 275.201 130V125.32H271.901ZM282.337 81.64V88.42L288.277 88.42V81.64H282.337ZM289.657 94.84L278.737 94.84V98.74L284.017 99.22V130H289.657V94.84ZM316.306 125.44C311.926 125.44 309.646 123.58 309.646 119.26V99.22H319.006V94.84H309.646V86.62H305.206L304.246 94.84H298.786V99.22H304.006V119.74C304.006 127.06 308.146 130.3 315.706 130.3C317.326 130.3 319.126 130.18 320.506 130V125.44H316.306ZM332.806 141.4C339.106 141.4 341.686 138.46 343.366 133.72L357.346 94.84H351.586L342.106 124.96L331.606 94.84H325.846L339.286 129.88L338.206 132.88C337.066 136 334.906 136.66 332.446 136.66H329.626V141.1C330.466 141.28 331.726 141.4 332.806 141.4Z" fill="black"/>
<path d="M1670.27 833.44C1665.89 833.44 1663.61 831.58 1663.61 827.26V807.22H1672.97V802.84H1663.61V794.62H1659.17L1658.21 802.84H1652.75V807.22H1657.97V827.74C1657.97 835.06 1662.11 838.3 1669.67 838.3C1671.29 838.3 1673.09 838.18 1674.47 838V833.44H1670.27ZM1683.42 789.64V796.42H1689.36V789.64H1683.42ZM1690.74 802.84H1679.82V806.74L1685.1 807.22V838H1690.74V802.84ZM1740.78 801.82C1735.8 801.82 1732.26 804.46 1729.32 808.18C1727.64 804.28 1724.34 801.82 1719.42 801.82C1714.86 801.82 1711.56 804.04 1708.74 807.76L1707.72 802.84H1703.58V838H1709.22V811.78C1711.56 808.9 1714.44 806.44 1718.4 806.44C1723.08 806.44 1724.94 809.74 1724.94 815.5V838H1730.58V815.14C1730.58 814 1730.52 812.98 1730.34 811.96C1732.74 809.08 1735.62 806.44 1739.76 806.44C1744.5 806.44 1746.3 809.8 1746.3 815.5V838H1751.94V815.14C1751.94 807.4 1748.28 801.82 1740.78 801.82ZM1793.86 819.94C1793.86 808.12 1787.86 801.82 1778.32 801.82C1769.14 801.82 1762.06 808.24 1762.06 820.36C1762.06 832.36 1768.24 838.96 1778.26 838.96C1785.88 838.96 1791.28 835 1793.44 828.28H1787.92C1786.12 832.3 1782.94 834.52 1778.26 834.52C1771.96 834.52 1768.18 830.56 1767.82 821.56H1793.86V819.94ZM1767.82 817.9C1768.36 810.7 1771.9 806.14 1778.32 806.14C1784.62 806.14 1787.92 810.34 1788.28 817.9H1767.82Z" fill="black"/>
<path d="M311 319.879C623.613 319.879 751.741 130 1033 130C1303 130 1564.95 200.385 1700 414" stroke="#3F8BFD" stroke-width="20"/>
<path d="M750 838.5C1055.56 791.044 1185.5 482.5 1715 451.5" stroke="#ED2828" stroke-width="20"/>
<path d="M954.523 992.1C958.243 988.2 961.783 984.48 961.783 978.12C961.783 971.1 956.623 966.06 947.923 966.06C938.923 966.06 933.043 971.16 933.043 979.8H938.623C938.623 974.16 941.983 970.86 947.863 970.86C953.023 970.86 955.963 973.56 955.963 978.12C955.963 982.92 953.263 985.8 949.783 989.52L934.243 1006.08V1011H962.683V1006.02L940.783 1006.08L954.523 992.1ZM987.766 1011.96C998.386 1011.96 1004.27 1004.7 1004.27 988.92C1004.27 972.78 998.386 966.06 987.766 966.06C977.086 966.06 971.326 972.72 971.326 988.92C971.326 1004.58 977.146 1011.96 987.766 1011.96ZM987.826 1007.1C980.866 1007.1 977.086 1001.58 977.086 988.92C977.086 975.78 980.746 970.98 987.766 970.98C994.786 970.98 998.506 975.9 998.506 988.92C998.506 1001.64 994.726 1007.1 987.826 1007.1ZM1030.54 1011.96C1041.16 1011.96 1047.04 1004.7 1047.04 988.92C1047.04 972.78 1041.16 966.06 1030.54 966.06C1019.86 966.06 1014.1 972.72 1014.1 988.92C1014.1 1004.58 1019.92 1011.96 1030.54 1011.96ZM1030.6 1007.1C1023.64 1007.1 1019.86 1001.58 1019.86 988.92C1019.86 975.78 1023.52 970.98 1030.54 970.98C1037.56 970.98 1041.28 975.9 1041.28 988.92C1041.28 1001.64 1037.5 1007.1 1030.6 1007.1ZM1071.33 1011.96C1080.93 1011.96 1086.87 1005.96 1086.87 996.9C1086.87 987.48 1081.23 982.02 1073.43 982.02C1069.17 982.02 1066.23 983.88 1063.77 986.28V971.94H1084.41V967.02H1058.25V990.3H1062.99C1065.81 988.56 1068.51 986.76 1072.47 986.76C1078.17 986.76 1081.11 990.24 1081.11 996.9C1081.11 1003.26 1077.51 1007.22 1071.33 1007.22C1065.69 1007.22 1062.87 1004.4 1062.09 1000.98H1056.33C1057.29 1007.76 1062.75 1011.96 1071.33 1011.96Z" fill="black"/>
<path d="M1615.67 992.1C1619.39 988.2 1622.93 984.48 1622.93 978.12C1622.93 971.1 1617.77 966.06 1609.07 966.06C1600.07 966.06 1594.19 971.16 1594.19 979.8H1599.77C1599.77 974.16 1603.13 970.86 1609.01 970.86C1614.17 970.86 1617.11 973.56 1617.11 978.12C1617.11 982.92 1614.41 985.8 1610.93 989.52L1595.39 1006.08V1011H1623.83V1006.02L1601.93 1006.08L1615.67 992.1ZM1648.91 1011.96C1659.53 1011.96 1665.41 1004.7 1665.41 988.92C1665.41 972.78 1659.53 966.06 1648.91 966.06C1638.23 966.06 1632.47 972.72 1632.47 988.92C1632.47 1004.58 1638.29 1011.96 1648.91 1011.96ZM1648.97 1007.1C1642.01 1007.1 1638.23 1001.58 1638.23 988.92C1638.23 975.78 1641.89 970.98 1648.91 970.98C1655.93 970.98 1659.65 975.9 1659.65 988.92C1659.65 1001.64 1655.87 1007.1 1648.97 1007.1ZM1695.18 992.1C1698.9 988.2 1702.44 984.48 1702.44 978.12C1702.44 971.1 1697.28 966.06 1688.58 966.06C1679.58 966.06 1673.7 971.16 1673.7 979.8H1679.28C1679.28 974.16 1682.64 970.86 1688.52 970.86C1693.68 970.86 1696.62 973.56 1696.62 978.12C1696.62 982.92 1693.92 985.8 1690.44 989.52L1674.9 1006.08V1011H1703.34V1006.02L1681.44 1006.08L1695.18 992.1ZM1728.42 1011.96C1739.04 1011.96 1744.92 1004.7 1744.92 988.92C1744.92 972.78 1739.04 966.06 1728.42 966.06C1717.74 966.06 1711.98 972.72 1711.98 988.92C1711.98 1004.58 1717.8 1011.96 1728.42 1011.96ZM1728.48 1007.1C1721.52 1007.1 1717.74 1001.58 1717.74 988.92C1717.74 975.78 1721.4 970.98 1728.42 970.98C1735.44 970.98 1739.16 975.9 1739.16 988.92C1739.16 1001.64 1735.38 1007.1 1728.48 1007.1Z" fill="black"/>
<path d="M388.771 424.08C386.191 421.5 382.891 419.82 378.451 419.82C368.971 419.82 362.191 427.14 362.191 438.84C362.191 449.82 368.431 456.96 377.671 456.96C382.531 456.96 386.251 455.16 389.311 451.5L390.271 456H394.411V410.22H388.771V424.08ZM378.451 452.4C372.271 452.4 367.891 448.02 367.891 438.84C367.891 428.46 372.991 424.32 378.871 424.32C383.071 424.32 386.251 426.3 388.771 428.88V447.78C386.191 450.24 382.891 452.4 378.451 452.4ZM436.706 437.94C436.706 426.12 430.706 419.82 421.166 419.82C411.986 419.82 404.906 426.24 404.906 438.36C404.906 450.36 411.086 456.96 421.106 456.96C428.726 456.96 434.126 453 436.286 446.28H430.766C428.966 450.3 425.786 452.52 421.106 452.52C414.806 452.52 411.026 448.56 410.666 439.56H436.706V437.94ZM410.666 435.9C411.206 428.7 414.746 424.14 421.166 424.14C427.466 424.14 430.766 428.34 431.126 435.9H410.666ZM459.087 456.96C467.727 456.96 472.707 452.7 472.707 446.7C472.707 440.64 468.327 438.12 462.867 436.68L456.507 435C453.567 434.16 451.047 433.26 451.047 429.6C451.047 426.48 453.687 424.14 458.607 424.14C463.407 424.14 466.167 425.88 466.587 430.2H472.107C471.447 423.24 466.647 419.82 458.607 419.82C450.567 419.82 445.407 424.08 445.407 429.9C445.407 435.84 449.367 438.18 454.227 439.44L460.587 441.06C465.147 442.26 467.067 443.82 467.067 446.82C467.067 450.18 464.547 452.64 459.087 452.64C453.447 452.64 450.207 450.78 449.607 446.28H444.027C444.747 453 449.607 456.96 459.087 456.96ZM511.523 456L497.003 434.76L510.923 420.84H504.263L487.943 437.76V410.22H482.363V456H487.943V443.82L493.523 438.24L505.283 456H511.523ZM533.781 451.44C529.401 451.44 527.121 449.58 527.121 445.26V425.22H536.481V420.84H527.121V412.62H522.681L521.721 420.84H516.261V425.22H521.481V445.74C521.481 453.06 525.621 456.3 533.181 456.3C534.801 456.3 536.601 456.18 537.981 456V451.44H533.781ZM561.276 456.96C570.816 456.96 578.136 450.36 578.136 438.48C578.136 426.48 570.756 419.82 561.276 419.82C551.856 419.82 544.476 426.42 544.476 438.48C544.476 450.36 551.736 456.96 561.276 456.96ZM561.276 452.46C554.916 452.46 550.116 447.66 550.116 438.48C550.116 429.18 554.916 424.38 561.276 424.38C567.696 424.38 572.496 429.18 572.496 438.48C572.496 447.66 567.696 452.46 561.276 452.46ZM605.332 419.82C600.532 419.82 596.752 421.56 593.692 425.28L592.792 420.84H588.652V467.1H594.292V452.7C596.872 455.28 600.172 456.96 604.552 456.96C614.032 456.96 620.812 449.64 620.812 437.94C620.812 426.96 614.572 419.82 605.332 419.82ZM604.132 452.46C599.992 452.46 596.812 450.48 594.292 447.96V429C596.932 426.48 600.172 424.38 604.552 424.38C610.732 424.38 615.112 428.76 615.112 437.94C615.112 448.32 610.012 452.46 604.132 452.46Z" fill="black"/>
<path d="M282.611 451.061C282.611 456.158 285.102 458.59 290.082 458.59H295.473C296.615 459.469 298.256 460.23 300.277 460.816L295.883 462.838C294.125 463.629 294.301 466.529 296.938 466.529H325.062C327.699 466.529 327.875 463.629 326.117 462.838L321.723 460.816C323.744 460.23 325.385 459.469 326.527 458.59H331.918C336.898 458.59 339.389 456.158 339.389 451.061V415.846C339.389 410.719 336.869 408.316 331.859 408.316H290.141C285.131 408.316 282.611 410.719 282.611 415.846V451.061ZM327.553 455.543C326.498 455.543 325.561 454.605 325.561 453.492C325.561 452.438 326.498 451.5 327.553 451.5C328.695 451.5 329.604 452.438 329.604 453.492C329.604 454.605 328.695 455.543 327.553 455.543Z" fill="black"/>
<path fill-rule="evenodd" clip-rule="evenodd" d="M287.328 446.256V415.934C287.328 413.854 288.207 413.033 290.229 413.033H331.771C333.793 413.033 334.672 413.854 334.672 415.934V446.256C334.672 448.307 333.793 449.127 331.771 449.127H290.229C288.207 449.127 287.328 448.307 287.328 446.256Z" fill="#0066FF"/>
<path d="M300.248 429.908C299.369 429.146 298.373 427.359 298.373 425.543C298.373 423.727 299.105 422.145 300.248 421.178C300.482 420.973 300.775 420.855 301.01 420.855C301.508 420.855 301.889 421.236 301.889 421.705C301.889 422.065 301.705 422.268 301.462 422.537L301.42 422.584C300.629 423.463 300.219 424.459 300.219 425.543C300.219 426.598 300.57 427.652 301.42 428.502C301.684 428.766 301.889 428.971 301.889 429.352C301.889 429.82 301.508 430.201 301.01 430.201C300.746 430.201 300.482 430.113 300.248 429.908Z" fill="white"/>
<path d="M296.293 423.053C296.293 423.814 295.678 424.459 294.887 424.459C294.096 424.459 293.48 423.814 293.48 423.053C293.48 422.262 294.096 421.617 294.887 421.617C295.678 421.617 296.293 422.262 296.293 423.053Z" fill="white"/>
<path d="M296.293 428.297C296.293 429.088 295.678 429.732 294.887 429.732C294.096 429.732 293.48 429.088 293.48 428.297C293.48 427.535 294.096 426.891 294.887 426.891C295.678 426.891 296.293 427.535 296.293 428.297Z" fill="white"/>
<path d="M313.812 436.324H294.564C293.92 436.324 293.48 435.914 293.48 435.24C293.48 434.625 293.92 434.244 294.564 434.244H313.812C314.428 434.244 314.838 434.625 314.838 435.24C314.838 435.914 314.428 436.324 313.812 436.324Z" fill="white"/>
<path d="M308.275 441.275H294.564C293.92 441.275 293.48 440.836 293.48 440.191C293.48 439.576 293.92 439.195 294.564 439.195H308.275C308.861 439.195 309.33 439.576 309.33 440.191C309.33 440.836 308.861 441.275 308.275 441.275Z" fill="white"/>
<path d="M760.595 740.06L768.815 709.76L776.975 740.06H783.995L793.835 704.84H788.015L780.155 735.2L771.995 704.84H765.695L757.535 735.2L749.615 704.84H743.795L753.695 740.06H760.595ZM832.169 721.94C832.169 710.12 826.169 703.82 816.629 703.82C807.449 703.82 800.369 710.24 800.369 722.36C800.369 734.36 806.549 740.96 816.569 740.96C824.189 740.96 829.589 737 831.749 730.28H826.229C824.429 734.3 821.249 736.52 816.569 736.52C810.269 736.52 806.489 732.56 806.129 723.56H832.169V721.94ZM806.129 719.9C806.669 712.7 810.209 708.14 816.629 708.14C822.929 708.14 826.229 712.34 826.589 719.9H806.129ZM859.41 703.82C854.85 703.82 851.25 705.38 848.31 708.68V694.22H842.67V740H846.81L847.65 735.98C850.35 738.98 853.83 740.96 858.63 740.96C868.11 740.96 874.89 733.64 874.89 721.94C874.89 710.96 868.65 703.82 859.41 703.82ZM858.21 736.46C854.01 736.46 850.77 734.48 848.31 731.9V713C850.89 710.54 854.19 708.38 858.63 708.38C864.81 708.38 869.19 712.76 869.19 721.94C869.19 732.32 864.09 736.46 858.21 736.46Z" fill="black"/>
<path d="M695.5 751.73C711.848 751.73 725.383 738.166 725.383 721.848C725.383 705.5 711.818 691.965 695.471 691.965C679.152 691.965 665.617 705.5 665.617 721.848C665.617 738.166 679.182 751.73 695.5 751.73ZM687.326 716.193C687.209 715.051 686.711 714.025 685.92 713.293C688.498 706.76 692.6 700.842 697.961 696.066C698.371 696.096 698.781 696.154 699.191 696.213C695.354 702.688 693.039 709.953 692.482 717.482C690.725 717.189 688.996 716.75 687.326 716.193ZM673.82 707.785C678.01 701.398 684.953 696.887 692.863 696.066C688.41 700.725 684.953 706.145 682.609 712.033C681.789 712.033 680.91 712.326 680.148 712.824C677.863 711.418 675.725 709.719 673.82 707.785ZM700.979 708.137C701.008 710.803 701.33 713.439 701.945 715.988C701.418 716.516 701.037 717.189 700.832 717.922C700.1 717.98 699.367 718.01 698.605 718.01C697.727 718.01 696.848 717.98 695.998 717.922C696.496 710.744 698.693 703.889 702.355 697.824C701.389 701.135 700.949 704.592 700.979 708.137ZM704.523 708.107C704.494 704.738 704.963 701.369 705.959 698.205C711.701 700.783 716.389 705.441 719.025 711.154C715.949 713.498 712.492 715.256 708.801 716.428C708.01 715.344 706.721 714.641 705.256 714.611C704.816 712.502 704.553 710.334 704.523 708.107ZM669.602 721.848C669.602 718.01 670.451 714.377 672.004 711.066C673.908 712.883 675.988 714.494 678.244 715.842C678.186 716.076 678.186 716.34 678.186 716.604C678.186 718.156 678.947 719.533 680.148 720.383C679.533 723.43 679.211 726.594 679.211 729.787C675.842 728.146 672.619 726.066 669.66 723.576C669.631 722.99 669.602 722.434 669.602 721.848ZM721.398 721.848C721.398 724.367 721.018 726.828 720.314 729.143C718.615 730.051 716.857 730.842 715.041 731.516C712.229 728.967 709.885 725.92 708.127 722.551C708.918 721.877 709.445 720.939 709.65 719.885C713.459 718.713 717.062 716.955 720.344 714.611C721.018 716.926 721.398 719.357 721.398 721.848ZM692.336 721.232C692.336 725.041 692.775 728.791 693.625 732.453C693.127 732.834 692.717 733.332 692.424 733.889C689.143 733.391 685.891 732.541 682.756 731.34C682.668 727.854 682.932 724.426 683.605 721.115C684.66 720.91 685.568 720.354 686.242 719.562C688.205 720.236 690.256 720.734 692.336 721.057C692.336 721.115 692.336 721.174 692.336 721.232ZM698.605 721.555C699.543 721.555 700.451 721.525 701.33 721.438C702.033 722.609 703.264 723.43 704.699 723.605C706.369 726.975 708.596 730.08 711.262 732.746C707.805 733.713 704.289 734.24 700.744 734.357C700.129 732.805 698.723 731.691 697.023 731.486C696.291 728.234 695.881 724.865 695.881 721.467C696.789 721.525 697.697 721.555 698.605 721.555ZM670.568 728.791C673.322 730.754 676.252 732.424 679.328 733.742C679.445 736.877 679.914 739.982 680.734 743.029C675.871 739.602 672.209 734.592 670.568 728.791ZM695.5 747.746C691.896 747.746 688.41 746.984 685.275 745.578C684.045 742.238 683.254 738.752 682.961 735.178C685.949 736.203 688.996 736.965 692.131 737.404C692.688 739.191 694.328 740.48 696.291 740.568C697.287 742.912 698.488 745.197 699.865 747.365C698.43 747.6 696.994 747.746 695.5 747.746ZM699.631 739.338C700.041 738.928 700.393 738.43 700.627 737.902C705.256 737.756 709.885 736.994 714.338 735.529C714.982 736.057 715.686 736.555 716.359 737.053C713.166 741.389 708.684 744.729 703.469 746.457C701.975 744.201 700.686 741.799 699.631 739.338Z" fill="black"/>
</svg>
