<svg width="1920" height="1080" viewBox="0 0 1920 1080" fill="none" xmlns="http://www.w3.org/2000/svg">
<rect width="1920" height="1080" fill="white"/>
<path d="M648.67 645.32C661.18 645.32 667.3 652.475 667.3 661.79C667.3 670.52 663.16 675.38 658.345 675.38C656.32 675.38 654.655 674.57 653.71 672.95C651.955 674.84 650.02 675.695 647.545 675.695C642.01 675.695 638.365 671.33 638.365 664.985C638.365 658.37 642.235 653.825 647.815 653.825C650.065 653.825 651.865 654.545 653.44 655.94L653.845 654.32H656.23V669.53C656.23 671.69 657.355 672.5 658.705 672.5C661.18 672.5 663.79 669.17 663.79 661.79C663.79 654.005 659.335 648.335 648.67 648.335C638.995 648.335 632.065 654.59 632.065 665.705C632.065 675.695 638.005 681.05 648.4 681.05C652.405 681.05 655.735 680.42 658.12 679.565V682.58C656.185 683.3 652.855 684.065 648.4 684.065C636.07 684.065 628.465 677.18 628.465 665.705C628.465 652.925 637.105 645.32 648.67 645.32ZM647.995 672.77C649.975 672.77 651.55 672.005 652.9 670.745C652.855 670.34 652.81 669.89 652.81 669.395L652.765 658.505C651.505 657.335 649.975 656.66 648.085 656.66C644.71 656.66 642.01 659.18 642.01 664.985C642.01 670.115 644.44 672.77 647.995 672.77ZM688.073 649.865C694.013 649.865 696.938 654.005 696.938 659.855V677H692.708V660.125C692.708 655.895 691.178 653.33 687.218 653.33C683.933 653.33 681.593 655.22 679.748 657.515V677H675.518V650.63H678.623L679.433 654.365C681.593 651.53 684.338 649.865 688.073 649.865ZM705.875 640.73H710.33V645.815H705.875V640.73ZM711.365 650.63V677H707.135V653.915L703.175 653.555V650.63H711.365ZM742.872 677H738.192L729.372 663.68L725.187 667.865V677H721.002V642.665H725.187V663.32L737.427 650.63H742.422L731.982 661.07L742.872 677ZM748.809 640.73H753.264V645.815H748.809V640.73ZM754.299 650.63V677H750.069V653.915L746.109 653.555V650.63H754.299ZM774.286 673.58H777.436V677C776.401 677.135 775.051 677.225 773.836 677.225C768.166 677.225 765.061 674.795 765.061 669.305V653.915H761.146V650.63H765.241L765.961 644.465H769.291V650.63H776.311V653.915H769.291V668.945C769.291 672.185 771.001 673.58 774.286 673.58ZM794.908 677.72C787.753 677.72 782.308 672.77 782.308 663.86C782.308 654.815 787.843 649.865 794.908 649.865C802.018 649.865 807.553 654.86 807.553 663.86C807.553 672.77 802.063 677.72 794.908 677.72ZM794.908 674.345C799.723 674.345 803.323 670.745 803.323 663.86C803.323 656.885 799.723 653.285 794.908 653.285C790.138 653.285 786.538 656.885 786.538 663.86C786.538 670.745 790.138 674.345 794.908 674.345ZM827.995 649.865C833.935 649.865 836.86 654.005 836.86 659.855V677H832.63V660.125C832.63 655.895 831.1 653.33 827.14 653.33C823.855 653.33 821.515 655.22 819.67 657.515V677H815.44V650.63H818.545L819.355 654.365C821.515 651.53 824.26 649.865 827.995 649.865ZM855.112 677.72C848.002 677.72 844.357 674.75 843.817 669.71H848.002C848.452 673.085 850.882 674.48 855.112 674.48C859.207 674.48 861.097 672.635 861.097 670.115C861.097 667.865 859.657 666.695 856.237 665.795L851.467 664.58C847.822 663.635 844.852 661.88 844.852 657.425C844.852 653.06 848.722 649.865 854.752 649.865C860.782 649.865 864.382 652.43 864.877 657.65H860.737C860.422 654.41 858.352 653.105 854.752 653.105C851.062 653.105 849.082 654.86 849.082 657.2C849.082 659.945 850.972 660.62 853.177 661.25L857.947 662.51C862.042 663.59 865.327 665.48 865.327 670.025C865.327 674.525 861.592 677.72 855.112 677.72ZM894.439 677H889.759L880.939 663.68L876.754 667.865V677H872.569V642.665H876.754V663.32L888.994 650.63H893.989L883.549 661.07L894.439 677ZM902.897 685.55C902.087 685.55 901.142 685.46 900.512 685.325V681.995H902.627C904.472 681.995 906.092 681.5 906.947 679.16L907.757 676.91L897.677 650.63H901.997L909.872 673.22L916.982 650.63H921.302L910.817 679.79C909.557 683.345 907.622 685.55 902.897 685.55ZM946.224 645.32C958.734 645.32 964.854 652.475 964.854 661.79C964.854 670.52 960.714 675.38 955.899 675.38C953.874 675.38 952.209 674.57 951.264 672.95C949.509 674.84 947.574 675.695 945.099 675.695C939.564 675.695 935.919 671.33 935.919 664.985C935.919 658.37 939.789 653.825 945.369 653.825C947.619 653.825 949.419 654.545 950.994 655.94L951.399 654.32H953.784V669.53C953.784 671.69 954.909 672.5 956.259 672.5C958.734 672.5 961.344 669.17 961.344 661.79C961.344 654.005 956.889 648.335 946.224 648.335C936.549 648.335 929.619 654.59 929.619 665.705C929.619 675.695 935.559 681.05 945.954 681.05C949.959 681.05 953.289 680.42 955.674 679.565V682.58C953.739 683.3 950.409 684.065 945.954 684.065C933.624 684.065 926.019 677.18 926.019 665.705C926.019 652.925 934.659 645.32 946.224 645.32ZM945.549 672.77C947.529 672.77 949.104 672.005 950.454 670.745C950.409 670.34 950.364 669.89 950.364 669.395L950.319 658.505C949.059 657.335 947.529 656.66 945.639 656.66C942.264 656.66 939.564 659.18 939.564 664.985C939.564 670.115 941.994 672.77 945.549 672.77ZM1000.97 649.865C1006.6 649.865 1009.34 654.05 1009.34 659.855V677H1005.11V660.125C1005.11 655.85 1003.76 653.33 1000.21 653.33C997.102 653.33 994.942 655.31 993.142 657.47C993.277 658.235 993.322 659 993.322 659.855V677H989.092V660.125C989.092 655.805 987.697 653.33 984.187 653.33C981.217 653.33 979.057 655.175 977.302 657.335V677H973.072V650.63H976.177L976.942 654.32C979.057 651.53 981.532 649.865 984.952 649.865C988.642 649.865 991.117 651.71 992.377 654.635C994.582 651.845 997.237 649.865 1000.97 649.865ZM1039.88 673.805H1040.38V677C1039.88 677.18 1039.25 677.225 1038.62 677.225C1036.19 677.225 1034.66 675.92 1034.17 674.165C1032.23 676.19 1029.26 677.72 1025.39 677.72C1020.08 677.72 1016.71 674.795 1016.71 670.25C1016.71 665.525 1019.54 661.655 1028.63 661.565L1033.76 661.52V658.415C1033.76 654.995 1031.92 653.06 1028.18 653.06C1024.72 653.06 1022.24 654.725 1021.93 657.65H1017.79C1018.1 652.88 1022.47 649.865 1028.18 649.865C1034.75 649.865 1037.99 653.24 1037.99 658.64V671.24C1037.99 672.905 1038.44 673.805 1039.88 673.805ZM1020.94 670.16C1020.94 672.905 1022.92 674.57 1026.02 674.57C1029.22 674.57 1031.74 673.175 1033.81 671.555L1033.76 671.33V664.31H1029.26C1022.83 664.31 1020.94 667.01 1020.94 670.16ZM1056.56 677.72C1049.45 677.72 1045.8 674.75 1045.26 669.71H1049.45C1049.9 673.085 1052.33 674.48 1056.56 674.48C1060.65 674.48 1062.54 672.635 1062.54 670.115C1062.54 667.865 1061.1 666.695 1057.68 665.795L1052.91 664.58C1049.27 663.635 1046.3 661.88 1046.3 657.425C1046.3 653.06 1050.17 649.865 1056.2 649.865C1062.23 649.865 1065.83 652.43 1066.32 657.65H1062.18C1061.87 654.41 1059.8 653.105 1056.2 653.105C1052.51 653.105 1050.53 654.86 1050.53 657.2C1050.53 659.945 1052.42 660.62 1054.62 661.25L1059.39 662.51C1063.49 663.59 1066.77 665.48 1066.77 670.025C1066.77 674.525 1063.04 677.72 1056.56 677.72ZM1084.36 673.58H1087.51V677C1086.48 677.135 1085.13 677.225 1083.91 677.225C1078.24 677.225 1075.14 674.795 1075.14 669.305V653.915H1071.22V650.63H1075.32L1076.04 644.465H1079.37V650.63H1086.39V653.915H1079.37V668.945C1079.37 672.185 1081.08 673.58 1084.36 673.58ZM1104.99 677.72C1097.83 677.72 1092.39 672.77 1092.39 663.86C1092.39 654.815 1097.92 649.865 1104.99 649.865C1112.1 649.865 1117.63 654.86 1117.63 663.86C1117.63 672.77 1112.14 677.72 1104.99 677.72ZM1104.99 674.345C1109.8 674.345 1113.4 670.745 1113.4 663.86C1113.4 656.885 1109.8 653.285 1104.99 653.285C1100.22 653.285 1096.62 656.885 1096.62 663.86C1096.62 670.745 1100.22 674.345 1104.99 674.345ZM1143.7 653.06V642.665H1147.93V677H1144.82L1144.1 673.625C1141.81 676.37 1139.02 677.72 1135.37 677.72C1128.44 677.72 1123.76 672.365 1123.76 664.13C1123.76 655.355 1128.85 649.865 1135.96 649.865C1139.29 649.865 1141.76 651.125 1143.7 653.06ZM1135.96 674.3C1139.29 674.3 1141.76 672.68 1143.7 670.835V656.66C1141.81 654.725 1139.42 653.24 1136.27 653.24C1131.86 653.24 1128.04 656.345 1128.04 664.13C1128.04 671.015 1131.32 674.3 1135.96 674.3ZM1168.4 677.72C1161.24 677.72 1155.8 672.77 1155.8 663.86C1155.8 654.815 1161.33 649.865 1168.4 649.865C1175.51 649.865 1181.04 654.86 1181.04 663.86C1181.04 672.77 1175.55 677.72 1168.4 677.72ZM1168.4 674.345C1173.21 674.345 1176.81 670.745 1176.81 663.86C1176.81 656.885 1173.21 653.285 1168.4 653.285C1163.63 653.285 1160.03 656.885 1160.03 663.86C1160.03 670.745 1163.63 674.345 1168.4 674.345ZM1201.49 649.865C1207.43 649.865 1210.35 654.005 1210.35 659.855V677H1206.12V660.125C1206.12 655.895 1204.59 653.33 1200.63 653.33C1197.35 653.33 1195.01 655.22 1193.16 657.515V677H1188.93V650.63H1192.04L1192.85 654.365C1195.01 651.53 1197.75 649.865 1201.49 649.865ZM1225.32 677H1219.51V671.555H1225.32V677ZM1245.17 677.72C1238.02 677.72 1232.57 672.77 1232.57 663.86C1232.57 654.815 1238.11 649.865 1245.17 649.865C1252.28 649.865 1257.82 654.86 1257.82 663.86C1257.82 672.77 1252.33 677.72 1245.17 677.72ZM1245.17 674.345C1249.99 674.345 1253.59 670.745 1253.59 663.86C1253.59 656.885 1249.99 653.285 1245.17 653.285C1240.4 653.285 1236.8 656.885 1236.8 663.86C1236.8 670.745 1240.4 674.345 1245.17 674.345ZM1278.26 649.865C1284.2 649.865 1287.12 654.005 1287.12 659.855V677H1282.89V660.125C1282.89 655.895 1281.36 653.33 1277.4 653.33C1274.12 653.33 1271.78 655.22 1269.93 657.515V677H1265.7V650.63H1268.81L1269.62 654.365C1271.78 651.53 1274.52 649.865 1278.26 649.865ZM1305.24 673.49H1307.72V677C1306.55 677.135 1305.69 677.225 1304.48 677.225C1299.89 677.225 1296.2 675.2 1296.24 669.53V642.665H1300.47V668.9C1300.47 672.275 1302.41 673.49 1305.24 673.49ZM1313.07 640.73H1317.52V645.815H1313.07V640.73ZM1318.56 650.63V677H1314.33V653.915L1310.37 653.555V650.63H1318.56ZM1340.75 649.865C1346.69 649.865 1349.61 654.005 1349.61 659.855V677H1345.38V660.125C1345.38 655.895 1343.85 653.33 1339.89 653.33C1336.61 653.33 1334.27 655.22 1332.42 657.515V677H1328.19V650.63H1331.3L1332.11 654.365C1334.27 651.53 1337.01 649.865 1340.75 649.865ZM1381.05 663.455V664.67H1361.52C1361.79 671.42 1364.63 674.39 1369.35 674.39C1372.86 674.39 1375.25 672.725 1376.6 669.71H1380.74C1379.12 674.75 1375.07 677.72 1369.35 677.72C1361.84 677.72 1357.2 672.77 1357.2 663.77C1357.2 654.68 1362.51 649.865 1369.4 649.865C1376.55 649.865 1381.05 654.59 1381.05 663.455ZM1361.52 661.925H1376.87C1376.6 656.255 1374.12 653.105 1369.4 653.105C1364.58 653.105 1361.93 656.525 1361.52 661.925Z" fill="#232B36"/>
<path fill-rule="evenodd" clip-rule="evenodd" d="M567 394C548.767 394 534 408.912 534 427.322C534 442.067 543.446 454.521 556.564 458.936C558.214 459.228 558.832 458.228 558.832 457.354C558.832 456.562 558.791 453.938 558.791 451.147C550.5 452.688 548.355 449.106 547.695 447.232C547.324 446.274 545.715 443.317 544.312 442.525C543.157 441.9 541.507 440.359 544.271 440.318C546.87 440.276 548.726 442.733 549.345 443.733C552.315 448.773 557.059 447.357 558.956 446.482C559.245 444.316 560.111 442.858 561.06 442.025C553.717 441.192 546.045 438.318 546.045 425.573C546.045 421.949 547.324 418.95 549.428 416.617C549.098 415.784 547.942 412.369 549.757 407.787C549.757 407.787 552.521 406.912 558.832 411.203C561.472 410.453 564.278 410.078 567.083 410.078C569.888 410.078 572.693 410.453 575.333 411.203C581.644 406.871 584.408 407.787 584.408 407.787C586.223 412.369 585.068 415.784 584.738 416.617C586.841 418.95 588.12 421.907 588.12 425.573C588.12 438.36 580.406 441.192 573.064 442.025C574.26 443.067 575.291 445.066 575.291 448.19C575.291 452.647 575.25 456.229 575.25 457.354C575.25 458.228 575.869 459.27 577.519 458.936C584.07 456.703 589.762 452.452 593.795 446.781C597.828 441.109 599.998 434.304 600 427.322C600 408.912 585.233 394 567 394Z" fill="black"/>
<path d="M640.165 439.58H643.315V443C642.28 443.135 640.93 443.225 639.715 443.225C634.045 443.225 630.94 440.795 630.94 435.305V419.915H627.025V416.63H631.12L631.84 410.465H635.17V416.63H642.19V419.915H635.17V434.945C635.17 438.185 636.88 439.58 640.165 439.58ZM660.787 443.72C653.632 443.72 648.187 438.77 648.187 429.86C648.187 420.815 653.722 415.865 660.787 415.865C667.897 415.865 673.432 420.86 673.432 429.86C673.432 438.77 667.942 443.72 660.787 443.72ZM660.787 440.345C665.602 440.345 669.202 436.745 669.202 429.86C669.202 422.885 665.602 419.285 660.787 419.285C656.017 419.285 652.417 422.885 652.417 429.86C652.417 436.745 656.017 440.345 660.787 440.345ZM693.874 415.865C699.814 415.865 702.739 420.005 702.739 425.855V443H698.509V426.125C698.509 421.895 696.979 419.33 693.019 419.33C689.734 419.33 687.394 421.22 685.549 423.515V443H681.319V416.63H684.424L685.234 420.365C687.394 417.53 690.139 415.865 693.874 415.865ZM720.991 443.72C713.881 443.72 710.236 440.75 709.696 435.71H713.881C714.331 439.085 716.761 440.48 720.991 440.48C725.086 440.48 726.976 438.635 726.976 436.115C726.976 433.865 725.536 432.695 722.116 431.795L717.346 430.58C713.701 429.635 710.731 427.88 710.731 423.425C710.731 419.06 714.601 415.865 720.631 415.865C726.661 415.865 730.261 418.43 730.756 423.65H726.616C726.301 420.41 724.231 419.105 720.631 419.105C716.941 419.105 714.961 420.86 714.961 423.2C714.961 425.945 716.851 426.62 719.056 427.25L723.826 428.51C727.921 429.59 731.206 431.48 731.206 436.025C731.206 440.525 727.471 443.72 720.991 443.72ZM760.318 443H755.638L746.818 429.68L742.633 433.865V443H738.448V408.665H742.633V429.32L754.873 416.63H759.868L749.428 427.07L760.318 443ZM768.776 451.55C767.966 451.55 767.021 451.46 766.391 451.325V447.995H768.506C770.351 447.995 771.971 447.5 772.826 445.16L773.636 442.91L763.556 416.63H767.876L775.751 439.22L782.861 416.63H787.181L776.696 445.79C775.436 449.345 773.501 451.55 768.776 451.55ZM808.042 409.205L794.137 443.81H790.312L804.172 409.205H808.042ZM822.63 443.72C815.115 443.72 810.345 438.725 810.345 429.86C810.345 421.13 815.385 415.865 822.765 415.865C829.065 415.865 832.53 419.015 833.61 423.65H829.38C828.435 421.085 826.68 419.285 822.765 419.285C817.995 419.285 814.575 422.975 814.575 429.86C814.575 436.835 817.905 440.345 822.63 440.345C825.825 440.345 828.525 438.77 829.515 435.71H833.745C832.53 440.84 828.21 443.72 822.63 443.72ZM850.055 439.49H852.53V443C851.36 443.135 850.505 443.225 849.29 443.225C844.7 443.225 841.01 441.2 841.055 435.53V408.665H845.285V434.9C845.285 438.275 847.22 439.49 850.055 439.49ZM857.882 406.73H862.337V411.815H857.882V406.73ZM863.372 416.63V444.395C863.372 448.67 861.842 451.55 856.757 451.55C855.857 451.55 855.182 451.46 854.642 451.325V448.085H856.037C858.017 448.085 859.142 447.185 859.142 444.485V419.915L855.182 419.555V416.63H863.372ZM872.333 428.42H883.673V431.84H872.333V428.42ZM905.433 416.54C906.198 416.54 906.738 416.585 907.143 416.63V421.265H905.343C902.193 421.265 899.313 422.165 897.693 425.72V443H893.463V419.915L889.503 419.555V416.63H896.568L897.603 421.895C899.223 418.7 902.148 416.54 905.433 416.54ZM934.61 429.455V430.67H915.08C915.35 437.42 918.185 440.39 922.91 440.39C926.42 440.39 928.805 438.725 930.155 435.71H934.295C932.675 440.75 928.625 443.72 922.91 443.72C915.395 443.72 910.76 438.77 910.76 429.77C910.76 420.68 916.07 415.865 922.955 415.865C930.11 415.865 934.61 420.59 934.61 429.455ZM915.08 427.925H930.425C930.155 422.255 927.68 419.105 922.955 419.105C918.14 419.105 915.485 422.525 915.08 427.925ZM951.261 439.49H953.736V443C952.566 443.135 951.711 443.225 950.496 443.225C945.906 443.225 942.216 441.2 942.261 435.53V408.665H946.491V434.9C946.491 438.275 948.426 439.49 951.261 439.49ZM970.338 443.72C963.183 443.72 957.738 438.77 957.738 429.86C957.738 420.815 963.273 415.865 970.338 415.865C977.448 415.865 982.983 420.86 982.983 429.86C982.983 438.77 977.493 443.72 970.338 443.72ZM970.338 440.345C975.153 440.345 978.753 436.745 978.753 429.86C978.753 422.885 975.153 419.285 970.338 419.285C965.568 419.285 961.968 422.885 961.968 429.86C961.968 436.745 965.568 440.345 970.338 440.345ZM1012.06 439.805H1012.56V443C1012.06 443.18 1011.43 443.225 1010.8 443.225C1008.37 443.225 1006.84 441.92 1006.35 440.165C1004.41 442.19 1001.44 443.72 997.575 443.72C992.265 443.72 988.89 440.795 988.89 436.25C988.89 431.525 991.725 427.655 1000.81 427.565L1005.94 427.52V424.415C1005.94 420.995 1004.1 419.06 1000.36 419.06C996.9 419.06 994.425 420.725 994.11 423.65H989.97C990.285 418.88 994.65 415.865 1000.36 415.865C1006.93 415.865 1010.17 419.24 1010.17 424.64V437.24C1010.17 438.905 1010.62 439.805 1012.06 439.805ZM993.12 436.16C993.12 438.905 995.1 440.57 998.205 440.57C1001.4 440.57 1003.92 439.175 1005.99 437.555L1005.94 437.33V430.31H1001.44C995.01 430.31 993.12 433.01 993.12 436.16ZM1038.01 419.06V408.665H1042.24V443H1039.13L1038.41 439.625C1036.12 442.37 1033.33 443.72 1029.68 443.72C1022.75 443.72 1018.07 438.365 1018.07 430.13C1018.07 421.355 1023.16 415.865 1030.27 415.865C1033.6 415.865 1036.07 417.125 1038.01 419.06ZM1030.27 440.3C1033.6 440.3 1036.07 438.68 1038.01 436.835V422.66C1036.12 420.725 1033.73 419.24 1030.58 419.24C1026.17 419.24 1022.35 422.345 1022.35 430.13C1022.35 437.015 1025.63 440.3 1030.27 440.3Z" fill="#232B36"/>
<path d="M640.345 560.72C632.83 560.72 628.06 555.725 628.06 546.86C628.06 538.13 633.1 532.865 640.48 532.865C646.78 532.865 650.245 536.015 651.325 540.65H647.095C646.15 538.085 644.395 536.285 640.48 536.285C635.71 536.285 632.29 539.975 632.29 546.86C632.29 553.835 635.62 557.345 640.345 557.345C643.54 557.345 646.24 555.77 647.23 552.71H651.46C650.245 557.84 645.925 560.72 640.345 560.72ZM667.77 556.49H670.245V560C669.075 560.135 668.22 560.225 667.005 560.225C662.415 560.225 658.725 558.2 658.77 552.53V525.665H663V551.9C663 555.275 664.935 556.49 667.77 556.49ZM675.597 523.73H680.052V528.815H675.597V523.73ZM681.087 533.63V561.395C681.087 565.67 679.557 568.55 674.472 568.55C673.572 568.55 672.897 568.46 672.357 568.325V565.085H673.752C675.732 565.085 676.857 564.185 676.857 561.485V536.915L672.897 536.555V533.63H681.087ZM690.048 545.42H701.388V548.84H690.048V545.42ZM723.148 533.54C723.913 533.54 724.453 533.585 724.858 533.63V538.265H723.058C719.908 538.265 717.028 539.165 715.408 542.72V560H711.178V536.915L707.218 536.555V533.63H714.283L715.318 538.895C716.938 535.7 719.863 533.54 723.148 533.54ZM752.325 546.455V547.67H732.795C733.065 554.42 735.9 557.39 740.625 557.39C744.135 557.39 746.52 555.725 747.87 552.71H752.01C750.39 557.75 746.34 560.72 740.625 560.72C733.11 560.72 728.475 555.77 728.475 546.77C728.475 537.68 733.785 532.865 740.67 532.865C747.825 532.865 752.325 537.59 752.325 546.455ZM732.795 544.925H748.14C747.87 539.255 745.395 536.105 740.67 536.105C735.855 536.105 733.2 539.525 732.795 544.925ZM768.976 556.49H771.451V560C770.281 560.135 769.426 560.225 768.211 560.225C763.621 560.225 759.931 558.2 759.976 552.53V525.665H764.206V551.9C764.206 555.275 766.141 556.49 768.976 556.49ZM788.053 560.72C780.898 560.72 775.453 555.77 775.453 546.86C775.453 537.815 780.988 532.865 788.053 532.865C795.163 532.865 800.698 537.86 800.698 546.86C800.698 555.77 795.208 560.72 788.053 560.72ZM788.053 557.345C792.868 557.345 796.468 553.745 796.468 546.86C796.468 539.885 792.868 536.285 788.053 536.285C783.283 536.285 779.683 539.885 779.683 546.86C779.683 553.745 783.283 557.345 788.053 557.345ZM829.78 556.805H830.275V560C829.78 560.18 829.15 560.225 828.52 560.225C826.09 560.225 824.56 558.92 824.065 557.165C822.13 559.19 819.16 560.72 815.29 560.72C809.98 560.72 806.605 557.795 806.605 553.25C806.605 548.525 809.44 544.655 818.53 544.565L823.66 544.52V541.415C823.66 537.995 821.815 536.06 818.08 536.06C814.615 536.06 812.14 537.725 811.825 540.65H807.685C808 535.88 812.365 532.865 818.08 532.865C824.65 532.865 827.89 536.24 827.89 541.64V554.24C827.89 555.905 828.34 556.805 829.78 556.805ZM810.835 553.16C810.835 555.905 812.815 557.57 815.92 557.57C819.115 557.57 821.635 556.175 823.705 554.555L823.66 554.33V547.31H819.16C812.725 547.31 810.835 550.01 810.835 553.16ZM855.724 536.06V525.665H859.954V560H856.849L856.129 556.625C853.834 559.37 851.044 560.72 847.399 560.72C840.469 560.72 835.789 555.365 835.789 547.13C835.789 538.355 840.874 532.865 847.984 532.865C851.314 532.865 853.789 534.125 855.724 536.06ZM847.984 557.3C851.314 557.3 853.789 555.68 855.724 553.835V539.66C853.834 537.725 851.449 536.24 848.299 536.24C843.889 536.24 840.064 539.345 840.064 547.13C840.064 554.015 843.349 557.3 847.984 557.3Z" fill="#232B36"/>
<path d="M569.204 518.816C569.204 515.052 572.256 512 576.02 512V512C579.785 512 582.837 515.052 582.837 518.816V535.898C582.837 539.663 579.785 542.714 576.02 542.714V542.714C572.256 542.714 569.204 539.663 569.204 535.898V518.816Z" fill="#2EB67D"/>
<path d="M586.245 535.898C586.245 532.133 589.297 529.082 593.061 529.082V529.082C596.826 529.082 599.878 532.133 599.878 535.898V535.898C599.878 539.663 596.826 542.714 593.061 542.714H586.245V535.898Z" fill="#2EB67D"/>
<path d="M541.816 542.714C538.052 542.714 535 539.663 535 535.898V535.898C535 532.133 538.052 529.082 541.816 529.082L558.898 529.082C562.663 529.082 565.714 532.133 565.714 535.898V535.898C565.714 539.663 562.663 542.714 558.898 542.714L541.816 542.714Z" fill="#36C5F0"/>
<path d="M558.898 525.673C555.133 525.673 552.082 522.622 552.082 518.857V518.857C552.082 515.092 555.133 512.041 558.898 512.041V512.041C562.663 512.041 565.714 515.092 565.714 518.857L565.714 525.673L558.898 525.673Z" fill="#36C5F0"/>
<path d="M593.142 546.163C596.907 546.163 599.959 549.215 599.959 552.98V552.98C599.959 556.744 596.907 559.796 593.142 559.796L576.061 559.796C572.296 559.796 569.244 556.744 569.244 552.98V552.98C569.244 549.215 572.296 546.163 576.061 546.163L593.142 546.163Z" fill="#ECB22E"/>
<path d="M576.061 563.204C579.825 563.204 582.877 566.256 582.877 570.021V570.021C582.877 573.785 579.825 576.837 576.061 576.837V576.837C572.296 576.837 569.244 573.785 569.244 570.021L569.244 563.204L576.061 563.204Z" fill="#ECB22E"/>
<path d="M565.714 570.021C565.714 573.785 562.663 576.837 558.898 576.837V576.837C555.133 576.837 552.082 573.785 552.082 570.021V552.939C552.082 549.174 555.133 546.123 558.898 546.123V546.123C562.663 546.123 565.714 549.174 565.714 552.939V570.021Z" fill="#E01E5A"/>
<path d="M548.673 552.939C548.673 556.704 545.622 559.755 541.857 559.755V559.755C538.092 559.755 535.041 556.704 535.041 552.939V552.939C535.041 549.174 538.092 546.123 541.857 546.123H548.673V552.939Z" fill="#E01E5A"/>
<path fill-rule="evenodd" clip-rule="evenodd" d="M581.733 630.809C588.672 631.84 594.526 637.162 595.43 643.916C595.824 647.933 595.629 653.968 595.534 656.902C595.511 657.633 595.493 658.171 595.493 658.438C595.493 658.832 595.436 662.432 595.413 662.812C594.805 672.462 588.82 676.273 582.531 677.488C582.463 677.508 582.387 677.523 582.308 677.538C582.288 677.542 582.267 677.546 582.247 677.55C578.26 678.333 573.989 678.542 569.936 678.656C568.967 678.682 568.001 678.682 567.032 678.682C563.003 678.683 558.988 678.203 555.071 677.253C555.05 677.248 555.029 677.247 555.008 677.252C554.987 677.257 554.967 677.266 554.95 677.28C554.934 677.293 554.921 677.311 554.912 677.33C554.903 677.35 554.899 677.372 554.9 677.393C555.011 678.675 555.288 679.937 555.725 681.147C556.267 682.547 558.163 685.91 565.21 685.91C569.306 685.917 573.387 685.438 577.371 684.481C577.391 684.477 577.412 684.476 577.432 684.481C577.452 684.486 577.471 684.495 577.488 684.507C577.504 684.52 577.517 684.537 577.527 684.555C577.536 684.574 577.541 684.595 577.541 684.615V689.352C577.54 689.375 577.534 689.396 577.524 689.416C577.514 689.436 577.499 689.453 577.481 689.467C576.236 690.374 574.562 690.908 573.095 691.375C573.029 691.396 572.963 691.417 572.898 691.438C572.231 691.649 571.555 691.835 570.871 691.995C564.654 693.419 558.166 693.074 552.133 691.001C546.497 689.012 540.745 684.138 539.325 678.282C538.566 675.111 538.031 671.889 537.725 668.642C537.403 665.092 537.295 661.535 537.187 657.973C537.147 656.632 537.106 655.29 537.054 653.947C536.92 650.524 536.997 646.793 537.716 643.427C539.211 636.594 545.372 631.811 552.118 630.809C552.257 630.788 552.41 630.761 552.59 630.729C553.925 630.493 556.712 630 565.773 630H565.85C576.126 630 580.562 630.634 581.733 630.809ZM552.714 654.095C555.607 654.095 557.952 651.75 557.952 648.857C557.952 645.964 555.607 643.619 552.714 643.619C549.821 643.619 547.476 645.964 547.476 648.857C547.476 651.75 549.821 654.095 552.714 654.095Z" fill="url(#paint0_linear_9_111)"/>
<defs>
<linearGradient id="paint0_linear_9_111" x1="566.333" y1="630" x2="566.333" y2="692.857" gradientUnits="userSpaceOnUse">
<stop stop-color="#6364FF"/>
<stop offset="1" stop-color="#563ACC"/>
</linearGradient>
</defs>
</svg>
