<svg width="1920" height="1080" viewBox="0 0 1920 1080" fill="none" xmlns="http://www.w3.org/2000/svg">
<rect width="1920" height="1080" fill="white"/>
<path d="M313.703 540.485C313.703 529.325 306.998 523.295 298.133 523.295C289.268 523.295 282.563 529.325 282.563 540.485C282.563 550.835 288.233 556.73 296.063 557.585V558.89C296.063 563.12 298.313 565.595 303.173 565.595C304.343 565.595 305.513 565.46 306.323 565.37V562.13H303.398C301.103 562.13 300.158 561.275 300.158 559.115V557.63C307.988 556.775 313.703 550.88 313.703 540.485ZM286.973 540.485C286.973 531.485 291.788 527.03 298.133 527.03C304.523 527.03 309.338 531.485 309.338 540.485C309.338 548.81 305.558 553.31 299.978 554.075V546.47H296.243V554.075C290.753 553.265 286.973 548.81 286.973 540.485ZM338.408 550.16C336.608 552.32 334.223 554.255 331.028 554.255C327.518 554.255 325.673 552.185 325.673 547.55V530.63H321.443V547.73C321.443 553.625 324.368 557.72 330.128 557.72C333.818 557.72 336.518 556.055 338.768 553.22L339.533 557H342.638V530.63H338.408V550.16ZM374.35 543.455C374.35 534.59 369.85 529.865 362.695 529.865C355.81 529.865 350.5 534.68 350.5 543.77C350.5 552.77 355.135 557.72 362.65 557.72C368.365 557.72 372.415 554.75 374.035 549.71H369.895C368.545 552.725 366.16 554.39 362.65 554.39C357.925 554.39 355.09 551.42 354.82 544.67H374.35V543.455ZM354.82 541.925C355.225 536.525 357.88 533.105 362.695 533.105C367.42 533.105 369.895 536.255 370.165 541.925H354.82ZM391.136 557.72C397.616 557.72 401.351 554.525 401.351 550.025C401.351 545.48 398.066 543.59 393.971 542.51L389.201 541.25C386.996 540.62 385.106 539.945 385.106 537.2C385.106 534.86 387.086 533.105 390.776 533.105C394.376 533.105 396.446 534.41 396.761 537.65H400.901C400.406 532.43 396.806 529.865 390.776 529.865C384.746 529.865 380.876 533.06 380.876 537.425C380.876 541.88 383.846 543.635 387.491 544.58L392.261 545.795C395.681 546.695 397.121 547.865 397.121 550.115C397.121 552.635 395.231 554.48 391.136 554.48C386.906 554.48 384.476 553.085 384.026 549.71H379.841C380.381 554.75 384.026 557.72 391.136 557.72ZM418.943 553.58C415.658 553.58 413.948 552.185 413.948 548.945V533.915H420.968V530.63H413.948V524.465H410.618L409.898 530.63H405.803V533.915H409.718V549.305C409.718 554.795 412.823 557.225 418.493 557.225C419.708 557.225 421.058 557.135 422.093 557V553.58H418.943ZM428.798 520.73V525.815H433.253V520.73H428.798ZM434.288 530.63H426.098V533.555L430.058 533.915V557H434.288V530.63ZM454.77 557.72C461.925 557.72 467.415 552.77 467.415 543.86C467.415 534.86 461.88 529.865 454.77 529.865C447.705 529.865 442.17 534.815 442.17 543.86C442.17 552.77 447.615 557.72 454.77 557.72ZM454.77 554.345C450 554.345 446.4 550.745 446.4 543.86C446.4 536.885 450 533.285 454.77 533.285C459.585 533.285 463.185 536.885 463.185 543.86C463.185 550.745 459.585 554.345 454.77 554.345ZM487.857 529.865C484.122 529.865 481.377 531.53 479.217 534.365L478.407 530.63H475.302V557H479.532V537.515C481.377 535.22 483.717 533.33 487.002 533.33C490.962 533.33 492.492 535.895 492.492 540.125V557H496.722V539.855C496.722 534.005 493.797 529.865 487.857 529.865ZM514.974 557.72C521.454 557.72 525.189 554.525 525.189 550.025C525.189 545.48 521.904 543.59 517.809 542.51L513.039 541.25C510.834 540.62 508.944 539.945 508.944 537.2C508.944 534.86 510.924 533.105 514.614 533.105C518.214 533.105 520.284 534.41 520.599 537.65H524.739C524.244 532.43 520.644 529.865 514.614 529.865C508.584 529.865 504.714 533.06 504.714 537.425C504.714 541.88 507.684 543.635 511.329 544.58L516.099 545.795C519.519 546.695 520.959 547.865 520.959 550.115C520.959 552.635 519.069 554.48 514.974 554.48C510.744 554.48 508.314 553.085 507.864 549.71H503.679C504.219 554.75 507.864 557.72 514.974 557.72ZM542.881 546.155L545.266 543.41C547.876 540.44 550.666 537.29 550.666 532.565C550.666 527.03 546.796 523.295 540.451 523.295C534.151 523.295 529.876 527.075 529.876 532.61H534.151C534.151 529.235 536.401 526.895 540.451 526.895C544.051 526.895 546.301 528.92 546.301 532.565C546.301 535.85 544.321 538.595 541.171 542.285L537.796 546.155H542.881ZM543.376 557V551.555H537.571V557H543.376Z" fill="black"/>
<path d="M1074.67 645.32C1087.18 645.32 1093.3 652.475 1093.3 661.79C1093.3 670.52 1089.16 675.38 1084.35 675.38C1082.32 675.38 1080.66 674.57 1079.71 672.95C1077.96 674.84 1076.02 675.695 1073.55 675.695C1068.01 675.695 1064.37 671.33 1064.37 664.985C1064.37 658.37 1068.24 653.825 1073.82 653.825C1076.07 653.825 1077.87 654.545 1079.44 655.94L1079.85 654.32H1082.23V669.53C1082.23 671.69 1083.36 672.5 1084.71 672.5C1087.18 672.5 1089.79 669.17 1089.79 661.79C1089.79 654.005 1085.34 648.335 1074.67 648.335C1065 648.335 1058.07 654.59 1058.07 665.705C1058.07 675.695 1064.01 681.05 1074.4 681.05C1078.41 681.05 1081.74 680.42 1084.12 679.565V682.58C1082.19 683.3 1078.86 684.065 1074.4 684.065C1062.07 684.065 1054.47 677.18 1054.47 665.705C1054.47 652.925 1063.11 645.32 1074.67 645.32ZM1074 672.77C1075.98 672.77 1077.55 672.005 1078.9 670.745C1078.86 670.34 1078.81 669.89 1078.81 669.395L1078.77 658.505C1077.51 657.335 1075.98 656.66 1074.09 656.66C1070.71 656.66 1068.01 659.18 1068.01 664.985C1068.01 670.115 1070.44 672.77 1074 672.77ZM1114.07 649.865C1120.01 649.865 1122.94 654.005 1122.94 659.855V677H1118.71V660.125C1118.71 655.895 1117.18 653.33 1113.22 653.33C1109.93 653.33 1107.59 655.22 1105.75 657.515V677H1101.52V650.63H1104.62L1105.43 654.365C1107.59 651.53 1110.34 649.865 1114.07 649.865ZM1131.87 640.73H1136.33V645.815H1131.87V640.73ZM1137.36 650.63V677H1133.13V653.915L1129.17 653.555V650.63H1137.36ZM1168.87 677H1164.19L1155.37 663.68L1151.19 667.865V677H1147V642.665H1151.19V663.32L1163.43 650.63H1168.42L1157.98 661.07L1168.87 677ZM1174.81 640.73H1179.26V645.815H1174.81V640.73ZM1180.3 650.63V677H1176.07V653.915L1172.11 653.555V650.63H1180.3ZM1200.29 673.58H1203.44V677C1202.4 677.135 1201.05 677.225 1199.84 677.225C1194.17 677.225 1191.06 674.795 1191.06 669.305V653.915H1187.15V650.63H1191.24L1191.96 644.465H1195.29V650.63H1202.31V653.915H1195.29V668.945C1195.29 672.185 1197 673.58 1200.29 673.58ZM1220.91 677.72C1213.75 677.72 1208.31 672.77 1208.31 663.86C1208.31 654.815 1213.84 649.865 1220.91 649.865C1228.02 649.865 1233.55 654.86 1233.55 663.86C1233.55 672.77 1228.06 677.72 1220.91 677.72ZM1220.91 674.345C1225.72 674.345 1229.32 670.745 1229.32 663.86C1229.32 656.885 1225.72 653.285 1220.91 653.285C1216.14 653.285 1212.54 656.885 1212.54 663.86C1212.54 670.745 1216.14 674.345 1220.91 674.345ZM1254 649.865C1259.94 649.865 1262.86 654.005 1262.86 659.855V677H1258.63V660.125C1258.63 655.895 1257.1 653.33 1253.14 653.33C1249.85 653.33 1247.52 655.22 1245.67 657.515V677H1241.44V650.63H1244.55L1245.36 654.365C1247.52 651.53 1250.26 649.865 1254 649.865ZM1281.11 677.72C1274 677.72 1270.36 674.75 1269.82 669.71H1274C1274.45 673.085 1276.88 674.48 1281.11 674.48C1285.21 674.48 1287.1 672.635 1287.1 670.115C1287.1 667.865 1285.66 666.695 1282.24 665.795L1277.47 664.58C1273.82 663.635 1270.85 661.88 1270.85 657.425C1270.85 653.06 1274.72 649.865 1280.75 649.865C1286.78 649.865 1290.38 652.43 1290.88 657.65H1286.74C1286.42 654.41 1284.35 653.105 1280.75 653.105C1277.06 653.105 1275.08 654.86 1275.08 657.2C1275.08 659.945 1276.97 660.62 1279.18 661.25L1283.95 662.51C1288.04 663.59 1291.33 665.48 1291.33 670.025C1291.33 674.525 1287.59 677.72 1281.11 677.72ZM1320.44 677H1315.76L1306.94 663.68L1302.75 667.865V677H1298.57V642.665H1302.75V663.32L1314.99 650.63H1319.99L1309.55 661.07L1320.44 677ZM1328.9 685.55C1328.09 685.55 1327.14 685.46 1326.51 685.325V681.995H1328.63C1330.47 681.995 1332.09 681.5 1332.95 679.16L1333.76 676.91L1323.68 650.63H1328L1335.87 673.22L1342.98 650.63H1347.3L1336.82 679.79C1335.56 683.345 1333.62 685.55 1328.9 685.55ZM1372.22 645.32C1384.73 645.32 1390.85 652.475 1390.85 661.79C1390.85 670.52 1386.71 675.38 1381.9 675.38C1379.87 675.38 1378.21 674.57 1377.26 672.95C1375.51 674.84 1373.57 675.695 1371.1 675.695C1365.56 675.695 1361.92 671.33 1361.92 664.985C1361.92 658.37 1365.79 653.825 1371.37 653.825C1373.62 653.825 1375.42 654.545 1376.99 655.94L1377.4 654.32H1379.78V669.53C1379.78 671.69 1380.91 672.5 1382.26 672.5C1384.73 672.5 1387.34 669.17 1387.34 661.79C1387.34 654.005 1382.89 648.335 1372.22 648.335C1362.55 648.335 1355.62 654.59 1355.62 665.705C1355.62 675.695 1361.56 681.05 1371.95 681.05C1375.96 681.05 1379.29 680.42 1381.67 679.565V682.58C1379.74 683.3 1376.41 684.065 1371.95 684.065C1359.62 684.065 1352.02 677.18 1352.02 665.705C1352.02 652.925 1360.66 645.32 1372.22 645.32ZM1371.55 672.77C1373.53 672.77 1375.1 672.005 1376.45 670.745C1376.41 670.34 1376.36 669.89 1376.36 669.395L1376.32 658.505C1375.06 657.335 1373.53 656.66 1371.64 656.66C1368.26 656.66 1365.56 659.18 1365.56 664.985C1365.56 670.115 1367.99 672.77 1371.55 672.77ZM1426.97 649.865C1432.6 649.865 1435.34 654.05 1435.34 659.855V677H1431.11V660.125C1431.11 655.85 1429.76 653.33 1426.21 653.33C1423.1 653.33 1420.94 655.31 1419.14 657.47C1419.28 658.235 1419.32 659 1419.32 659.855V677H1415.09V660.125C1415.09 655.805 1413.7 653.33 1410.19 653.33C1407.22 653.33 1405.06 655.175 1403.3 657.335V677H1399.07V650.63H1402.18L1402.94 654.32C1405.06 651.53 1407.53 649.865 1410.95 649.865C1414.64 649.865 1417.12 651.71 1418.38 654.635C1420.58 651.845 1423.24 649.865 1426.97 649.865ZM1465.88 673.805H1466.38V677C1465.88 677.18 1465.25 677.225 1464.62 677.225C1462.19 677.225 1460.66 675.92 1460.17 674.165C1458.23 676.19 1455.26 677.72 1451.39 677.72C1446.08 677.72 1442.71 674.795 1442.71 670.25C1442.71 665.525 1445.54 661.655 1454.63 661.565L1459.76 661.52V658.415C1459.76 654.995 1457.92 653.06 1454.18 653.06C1450.72 653.06 1448.24 654.725 1447.93 657.65H1443.79C1444.1 652.88 1448.47 649.865 1454.18 649.865C1460.75 649.865 1463.99 653.24 1463.99 658.64V671.24C1463.99 672.905 1464.44 673.805 1465.88 673.805ZM1446.94 670.16C1446.94 672.905 1448.92 674.57 1452.02 674.57C1455.22 674.57 1457.74 673.175 1459.81 671.555L1459.76 671.33V664.31H1455.26C1448.83 664.31 1446.94 667.01 1446.94 670.16ZM1482.56 677.72C1475.45 677.72 1471.8 674.75 1471.26 669.71H1475.45C1475.9 673.085 1478.33 674.48 1482.56 674.48C1486.65 674.48 1488.54 672.635 1488.54 670.115C1488.54 667.865 1487.1 666.695 1483.68 665.795L1478.91 664.58C1475.27 663.635 1472.3 661.88 1472.3 657.425C1472.3 653.06 1476.17 649.865 1482.2 649.865C1488.23 649.865 1491.83 652.43 1492.32 657.65H1488.18C1487.87 654.41 1485.8 653.105 1482.2 653.105C1478.51 653.105 1476.53 654.86 1476.53 657.2C1476.53 659.945 1478.42 660.62 1480.62 661.25L1485.39 662.51C1489.49 663.59 1492.77 665.48 1492.77 670.025C1492.77 674.525 1489.04 677.72 1482.56 677.72ZM1510.36 673.58H1513.51V677C1512.48 677.135 1511.13 677.225 1509.91 677.225C1504.24 677.225 1501.14 674.795 1501.14 669.305V653.915H1497.22V650.63H1501.32L1502.04 644.465H1505.37V650.63H1512.39V653.915H1505.37V668.945C1505.37 672.185 1507.08 673.58 1510.36 673.58ZM1530.99 677.72C1523.83 677.72 1518.39 672.77 1518.39 663.86C1518.39 654.815 1523.92 649.865 1530.99 649.865C1538.1 649.865 1543.63 654.86 1543.63 663.86C1543.63 672.77 1538.14 677.72 1530.99 677.72ZM1530.99 674.345C1535.8 674.345 1539.4 670.745 1539.4 663.86C1539.4 656.885 1535.8 653.285 1530.99 653.285C1526.22 653.285 1522.62 656.885 1522.62 663.86C1522.62 670.745 1526.22 674.345 1530.99 674.345ZM1569.7 653.06V642.665H1573.93V677H1570.82L1570.1 673.625C1567.81 676.37 1565.02 677.72 1561.37 677.72C1554.44 677.72 1549.76 672.365 1549.76 664.13C1549.76 655.355 1554.85 649.865 1561.96 649.865C1565.29 649.865 1567.76 651.125 1569.7 653.06ZM1561.96 674.3C1565.29 674.3 1567.76 672.68 1569.7 670.835V656.66C1567.81 654.725 1565.42 653.24 1562.27 653.24C1557.86 653.24 1554.04 656.345 1554.04 664.13C1554.04 671.015 1557.32 674.3 1561.96 674.3ZM1594.4 677.72C1587.24 677.72 1581.8 672.77 1581.8 663.86C1581.8 654.815 1587.33 649.865 1594.4 649.865C1601.51 649.865 1607.04 654.86 1607.04 663.86C1607.04 672.77 1601.55 677.72 1594.4 677.72ZM1594.4 674.345C1599.21 674.345 1602.81 670.745 1602.81 663.86C1602.81 656.885 1599.21 653.285 1594.4 653.285C1589.63 653.285 1586.03 656.885 1586.03 663.86C1586.03 670.745 1589.63 674.345 1594.4 674.345ZM1627.49 649.865C1633.43 649.865 1636.35 654.005 1636.35 659.855V677H1632.12V660.125C1632.12 655.895 1630.59 653.33 1626.63 653.33C1623.35 653.33 1621.01 655.22 1619.16 657.515V677H1614.93V650.63H1618.04L1618.85 654.365C1621.01 651.53 1623.75 649.865 1627.49 649.865ZM1651.32 677H1645.51V671.555H1651.32V677ZM1671.17 677.72C1664.02 677.72 1658.57 672.77 1658.57 663.86C1658.57 654.815 1664.11 649.865 1671.17 649.865C1678.28 649.865 1683.82 654.86 1683.82 663.86C1683.82 672.77 1678.33 677.72 1671.17 677.72ZM1671.17 674.345C1675.99 674.345 1679.59 670.745 1679.59 663.86C1679.59 656.885 1675.99 653.285 1671.17 653.285C1666.4 653.285 1662.8 656.885 1662.8 663.86C1662.8 670.745 1666.4 674.345 1671.17 674.345ZM1704.26 649.865C1710.2 649.865 1713.12 654.005 1713.12 659.855V677H1708.89V660.125C1708.89 655.895 1707.36 653.33 1703.4 653.33C1700.12 653.33 1697.78 655.22 1695.93 657.515V677H1691.7V650.63H1694.81L1695.62 654.365C1697.78 651.53 1700.52 649.865 1704.26 649.865ZM1731.24 673.49H1733.72V677C1732.55 677.135 1731.69 677.225 1730.48 677.225C1725.89 677.225 1722.2 675.2 1722.24 669.53V642.665H1726.47V668.9C1726.47 672.275 1728.41 673.49 1731.24 673.49ZM1739.07 640.73H1743.52V645.815H1739.07V640.73ZM1744.56 650.63V677H1740.33V653.915L1736.37 653.555V650.63H1744.56ZM1766.75 649.865C1772.69 649.865 1775.61 654.005 1775.61 659.855V677H1771.38V660.125C1771.38 655.895 1769.85 653.33 1765.89 653.33C1762.61 653.33 1760.27 655.22 1758.42 657.515V677H1754.19V650.63H1757.3L1758.11 654.365C1760.27 651.53 1763.01 649.865 1766.75 649.865ZM1807.05 663.455V664.67H1787.52C1787.79 671.42 1790.63 674.39 1795.35 674.39C1798.86 674.39 1801.25 672.725 1802.6 669.71H1806.74C1805.12 674.75 1801.07 677.72 1795.35 677.72C1787.84 677.72 1783.2 672.77 1783.2 663.77C1783.2 654.68 1788.51 649.865 1795.4 649.865C1802.55 649.865 1807.05 654.59 1807.05 663.455ZM1787.52 661.925H1802.87C1802.6 656.255 1800.12 653.105 1795.4 653.105C1790.58 653.105 1787.93 656.525 1787.52 661.925Z" fill="#232B36"/>
<path fill-rule="evenodd" clip-rule="evenodd" d="M993 394C974.767 394 960 408.912 960 427.322C960 442.067 969.446 454.521 982.564 458.936C984.214 459.228 984.832 458.228 984.832 457.354C984.832 456.562 984.791 453.938 984.791 451.147C976.5 452.688 974.355 449.106 973.695 447.232C973.324 446.274 971.715 443.317 970.312 442.525C969.157 441.9 967.507 440.359 970.271 440.318C972.87 440.276 974.726 442.733 975.345 443.733C978.315 448.773 983.059 447.357 984.956 446.482C985.245 444.316 986.111 442.858 987.06 442.025C979.717 441.192 972.045 438.318 972.045 425.573C972.045 421.949 973.324 418.95 975.428 416.617C975.098 415.784 973.942 412.369 975.757 407.787C975.757 407.787 978.521 406.912 984.832 411.203C987.472 410.453 990.278 410.078 993.083 410.078C995.888 410.078 998.693 410.453 1001.33 411.203C1007.64 406.871 1010.41 407.787 1010.41 407.787C1012.22 412.369 1011.07 415.784 1010.74 416.617C1012.84 418.95 1014.12 421.907 1014.12 425.573C1014.12 438.36 1006.41 441.192 999.064 442.025C1000.26 443.067 1001.29 445.066 1001.29 448.19C1001.29 452.647 1001.25 456.229 1001.25 457.354C1001.25 458.228 1001.87 459.27 1003.52 458.936C1010.07 456.703 1015.76 452.452 1019.8 446.781C1023.83 441.109 1026 434.304 1026 427.322C1026 408.912 1011.23 394 993 394Z" fill="black"/>
<path d="M1066.17 439.58H1069.32V443C1068.28 443.135 1066.93 443.225 1065.72 443.225C1060.05 443.225 1056.94 440.795 1056.94 435.305V419.915H1053.03V416.63H1057.12L1057.84 410.465H1061.17V416.63H1068.19V419.915H1061.17V434.945C1061.17 438.185 1062.88 439.58 1066.17 439.58ZM1086.79 443.72C1079.63 443.72 1074.19 438.77 1074.19 429.86C1074.19 420.815 1079.72 415.865 1086.79 415.865C1093.9 415.865 1099.43 420.86 1099.43 429.86C1099.43 438.77 1093.94 443.72 1086.79 443.72ZM1086.79 440.345C1091.6 440.345 1095.2 436.745 1095.2 429.86C1095.2 422.885 1091.6 419.285 1086.79 419.285C1082.02 419.285 1078.42 422.885 1078.42 429.86C1078.42 436.745 1082.02 440.345 1086.79 440.345ZM1119.87 415.865C1125.81 415.865 1128.74 420.005 1128.74 425.855V443H1124.51V426.125C1124.51 421.895 1122.98 419.33 1119.02 419.33C1115.73 419.33 1113.39 421.22 1111.55 423.515V443H1107.32V416.63H1110.42L1111.23 420.365C1113.39 417.53 1116.14 415.865 1119.87 415.865ZM1146.99 443.72C1139.88 443.72 1136.24 440.75 1135.7 435.71H1139.88C1140.33 439.085 1142.76 440.48 1146.99 440.48C1151.09 440.48 1152.98 438.635 1152.98 436.115C1152.98 433.865 1151.54 432.695 1148.12 431.795L1143.35 430.58C1139.7 429.635 1136.73 427.88 1136.73 423.425C1136.73 419.06 1140.6 415.865 1146.63 415.865C1152.66 415.865 1156.26 418.43 1156.76 423.65H1152.62C1152.3 420.41 1150.23 419.105 1146.63 419.105C1142.94 419.105 1140.96 420.86 1140.96 423.2C1140.96 425.945 1142.85 426.62 1145.06 427.25L1149.83 428.51C1153.92 429.59 1157.21 431.48 1157.21 436.025C1157.21 440.525 1153.47 443.72 1146.99 443.72ZM1186.32 443H1181.64L1172.82 429.68L1168.63 433.865V443H1164.45V408.665H1168.63V429.32L1180.87 416.63H1185.87L1175.43 427.07L1186.32 443ZM1194.78 451.55C1193.97 451.55 1193.02 451.46 1192.39 451.325V447.995H1194.51C1196.35 447.995 1197.97 447.5 1198.83 445.16L1199.64 442.91L1189.56 416.63H1193.88L1201.75 439.22L1208.86 416.63H1213.18L1202.7 445.79C1201.44 449.345 1199.5 451.55 1194.78 451.55ZM1234.04 409.205L1220.14 443.81H1216.31L1230.17 409.205H1234.04ZM1248.63 443.72C1241.12 443.72 1236.35 438.725 1236.35 429.86C1236.35 421.13 1241.39 415.865 1248.77 415.865C1255.07 415.865 1258.53 419.015 1259.61 423.65H1255.38C1254.44 421.085 1252.68 419.285 1248.77 419.285C1244 419.285 1240.58 422.975 1240.58 429.86C1240.58 436.835 1243.91 440.345 1248.63 440.345C1251.83 440.345 1254.53 438.77 1255.52 435.71H1259.75C1258.53 440.84 1254.21 443.72 1248.63 443.72ZM1276.05 439.49H1278.53V443C1277.36 443.135 1276.5 443.225 1275.29 443.225C1270.7 443.225 1267.01 441.2 1267.05 435.53V408.665H1271.28V434.9C1271.28 438.275 1273.22 439.49 1276.05 439.49ZM1283.88 406.73H1288.34V411.815H1283.88V406.73ZM1289.37 416.63V444.395C1289.37 448.67 1287.84 451.55 1282.76 451.55C1281.86 451.55 1281.18 451.46 1280.64 451.325V448.085H1282.04C1284.02 448.085 1285.14 447.185 1285.14 444.485V419.915L1281.18 419.555V416.63H1289.37ZM1298.33 428.42H1309.67V431.84H1298.33V428.42ZM1331.43 416.54C1332.2 416.54 1332.74 416.585 1333.14 416.63V421.265H1331.34C1328.19 421.265 1325.31 422.165 1323.69 425.72V443H1319.46V419.915L1315.5 419.555V416.63H1322.57L1323.6 421.895C1325.22 418.7 1328.15 416.54 1331.43 416.54ZM1360.61 429.455V430.67H1341.08C1341.35 437.42 1344.19 440.39 1348.91 440.39C1352.42 440.39 1354.81 438.725 1356.16 435.71H1360.3C1358.68 440.75 1354.63 443.72 1348.91 443.72C1341.4 443.72 1336.76 438.77 1336.76 429.77C1336.76 420.68 1342.07 415.865 1348.96 415.865C1356.11 415.865 1360.61 420.59 1360.61 429.455ZM1341.08 427.925H1356.43C1356.16 422.255 1353.68 419.105 1348.96 419.105C1344.14 419.105 1341.49 422.525 1341.08 427.925ZM1377.26 439.49H1379.74V443C1378.57 443.135 1377.71 443.225 1376.5 443.225C1371.91 443.225 1368.22 441.2 1368.26 435.53V408.665H1372.49V434.9C1372.49 438.275 1374.43 439.49 1377.26 439.49ZM1396.34 443.72C1389.18 443.72 1383.74 438.77 1383.74 429.86C1383.74 420.815 1389.27 415.865 1396.34 415.865C1403.45 415.865 1408.98 420.86 1408.98 429.86C1408.98 438.77 1403.49 443.72 1396.34 443.72ZM1396.34 440.345C1401.15 440.345 1404.75 436.745 1404.75 429.86C1404.75 422.885 1401.15 419.285 1396.34 419.285C1391.57 419.285 1387.97 422.885 1387.97 429.86C1387.97 436.745 1391.57 440.345 1396.34 440.345ZM1438.06 439.805H1438.56V443C1438.06 443.18 1437.43 443.225 1436.8 443.225C1434.37 443.225 1432.84 441.92 1432.35 440.165C1430.41 442.19 1427.44 443.72 1423.57 443.72C1418.26 443.72 1414.89 440.795 1414.89 436.25C1414.89 431.525 1417.72 427.655 1426.81 427.565L1431.94 427.52V424.415C1431.94 420.995 1430.1 419.06 1426.36 419.06C1422.9 419.06 1420.42 420.725 1420.11 423.65H1415.97C1416.28 418.88 1420.65 415.865 1426.36 415.865C1432.93 415.865 1436.17 419.24 1436.17 424.64V437.24C1436.17 438.905 1436.62 439.805 1438.06 439.805ZM1419.12 436.16C1419.12 438.905 1421.1 440.57 1424.2 440.57C1427.4 440.57 1429.92 439.175 1431.99 437.555L1431.94 437.33V430.31H1427.44C1421.01 430.31 1419.12 433.01 1419.12 436.16ZM1464.01 419.06V408.665H1468.24V443H1465.13L1464.41 439.625C1462.12 442.37 1459.33 443.72 1455.68 443.72C1448.75 443.72 1444.07 438.365 1444.07 430.13C1444.07 421.355 1449.16 415.865 1456.27 415.865C1459.6 415.865 1462.07 417.125 1464.01 419.06ZM1456.27 440.3C1459.6 440.3 1462.07 438.68 1464.01 436.835V422.66C1462.12 420.725 1459.73 419.24 1456.58 419.24C1452.17 419.24 1448.35 422.345 1448.35 430.13C1448.35 437.015 1451.63 440.3 1456.27 440.3Z" fill="#232B36"/>
<path d="M1066.35 560.72C1058.83 560.72 1054.06 555.725 1054.06 546.86C1054.06 538.13 1059.1 532.865 1066.48 532.865C1072.78 532.865 1076.25 536.015 1077.33 540.65H1073.1C1072.15 538.085 1070.4 536.285 1066.48 536.285C1061.71 536.285 1058.29 539.975 1058.29 546.86C1058.29 553.835 1061.62 557.345 1066.35 557.345C1069.54 557.345 1072.24 555.77 1073.23 552.71H1077.46C1076.25 557.84 1071.93 560.72 1066.35 560.72ZM1093.77 556.49H1096.24V560C1095.07 560.135 1094.22 560.225 1093 560.225C1088.41 560.225 1084.72 558.2 1084.77 552.53V525.665H1089V551.9C1089 555.275 1090.93 556.49 1093.77 556.49ZM1101.6 523.73H1106.05V528.815H1101.6V523.73ZM1107.09 533.63V561.395C1107.09 565.67 1105.56 568.55 1100.47 568.55C1099.57 568.55 1098.9 568.46 1098.36 568.325V565.085H1099.75C1101.73 565.085 1102.86 564.185 1102.86 561.485V536.915L1098.9 536.555V533.63H1107.09ZM1116.05 545.42H1127.39V548.84H1116.05V545.42ZM1149.15 533.54C1149.91 533.54 1150.45 533.585 1150.86 533.63V538.265H1149.06C1145.91 538.265 1143.03 539.165 1141.41 542.72V560H1137.18V536.915L1133.22 536.555V533.63H1140.28L1141.32 538.895C1142.94 535.7 1145.86 533.54 1149.15 533.54ZM1178.33 546.455V547.67H1158.8C1159.07 554.42 1161.9 557.39 1166.63 557.39C1170.14 557.39 1172.52 555.725 1173.87 552.71H1178.01C1176.39 557.75 1172.34 560.72 1166.63 560.72C1159.11 560.72 1154.48 555.77 1154.48 546.77C1154.48 537.68 1159.79 532.865 1166.67 532.865C1173.83 532.865 1178.33 537.59 1178.33 546.455ZM1158.8 544.925H1174.14C1173.87 539.255 1171.4 536.105 1166.67 536.105C1161.86 536.105 1159.2 539.525 1158.8 544.925ZM1194.98 556.49H1197.45V560C1196.28 560.135 1195.43 560.225 1194.21 560.225C1189.62 560.225 1185.93 558.2 1185.98 552.53V525.665H1190.21V551.9C1190.21 555.275 1192.14 556.49 1194.98 556.49ZM1214.05 560.72C1206.9 560.72 1201.45 555.77 1201.45 546.86C1201.45 537.815 1206.99 532.865 1214.05 532.865C1221.16 532.865 1226.7 537.86 1226.7 546.86C1226.7 555.77 1221.21 560.72 1214.05 560.72ZM1214.05 557.345C1218.87 557.345 1222.47 553.745 1222.47 546.86C1222.47 539.885 1218.87 536.285 1214.05 536.285C1209.28 536.285 1205.68 539.885 1205.68 546.86C1205.68 553.745 1209.28 557.345 1214.05 557.345ZM1255.78 556.805H1256.27V560C1255.78 560.18 1255.15 560.225 1254.52 560.225C1252.09 560.225 1250.56 558.92 1250.06 557.165C1248.13 559.19 1245.16 560.72 1241.29 560.72C1235.98 560.72 1232.6 557.795 1232.6 553.25C1232.6 548.525 1235.44 544.655 1244.53 544.565L1249.66 544.52V541.415C1249.66 537.995 1247.81 536.06 1244.08 536.06C1240.61 536.06 1238.14 537.725 1237.82 540.65H1233.68C1234 535.88 1238.36 532.865 1244.08 532.865C1250.65 532.865 1253.89 536.24 1253.89 541.64V554.24C1253.89 555.905 1254.34 556.805 1255.78 556.805ZM1236.83 553.16C1236.83 555.905 1238.81 557.57 1241.92 557.57C1245.11 557.57 1247.63 556.175 1249.7 554.555L1249.66 554.33V547.31H1245.16C1238.72 547.31 1236.83 550.01 1236.83 553.16ZM1281.72 536.06V525.665H1285.95V560H1282.85L1282.13 556.625C1279.83 559.37 1277.04 560.72 1273.4 560.72C1266.47 560.72 1261.79 555.365 1261.79 547.13C1261.79 538.355 1266.87 532.865 1273.98 532.865C1277.31 532.865 1279.79 534.125 1281.72 536.06ZM1273.98 557.3C1277.31 557.3 1279.79 555.68 1281.72 553.835V539.66C1279.83 537.725 1277.45 536.24 1274.3 536.24C1269.89 536.24 1266.06 539.345 1266.06 547.13C1266.06 554.015 1269.35 557.3 1273.98 557.3Z" fill="#232B36"/>
<path d="M995.204 518.816C995.204 515.052 998.256 512 1002.02 512V512C1005.78 512 1008.84 515.052 1008.84 518.816V535.898C1008.84 539.663 1005.78 542.714 1002.02 542.714V542.714C998.256 542.714 995.204 539.663 995.204 535.898V518.816Z" fill="#2EB67D"/>
<path d="M1012.24 535.898C1012.24 532.133 1015.3 529.082 1019.06 529.082V529.082C1022.83 529.082 1025.88 532.133 1025.88 535.898V535.898C1025.88 539.663 1022.83 542.714 1019.06 542.714H1012.24V535.898Z" fill="#2EB67D"/>
<path d="M967.816 542.714C964.052 542.714 961 539.663 961 535.898V535.898C961 532.133 964.052 529.082 967.816 529.082L984.898 529.082C988.663 529.082 991.714 532.133 991.714 535.898V535.898C991.714 539.663 988.663 542.714 984.898 542.714L967.816 542.714Z" fill="#36C5F0"/>
<path d="M984.898 525.673C981.133 525.673 978.082 522.622 978.082 518.857V518.857C978.082 515.092 981.133 512.041 984.898 512.041V512.041C988.663 512.041 991.714 515.092 991.714 518.857L991.714 525.673L984.898 525.673Z" fill="#36C5F0"/>
<path d="M1019.14 546.163C1022.91 546.163 1025.96 549.215 1025.96 552.98V552.98C1025.96 556.744 1022.91 559.796 1019.14 559.796L1002.06 559.796C998.296 559.796 995.244 556.744 995.244 552.98V552.98C995.244 549.215 998.296 546.163 1002.06 546.163L1019.14 546.163Z" fill="#ECB22E"/>
<path d="M1002.06 563.204C1005.83 563.204 1008.88 566.256 1008.88 570.021V570.021C1008.88 573.785 1005.83 576.837 1002.06 576.837V576.837C998.296 576.837 995.244 573.785 995.244 570.021L995.244 563.204L1002.06 563.204Z" fill="#ECB22E"/>
<path d="M991.714 570.021C991.714 573.785 988.663 576.837 984.898 576.837V576.837C981.133 576.837 978.082 573.785 978.082 570.021V552.939C978.082 549.174 981.133 546.123 984.898 546.123V546.123C988.663 546.123 991.714 549.174 991.714 552.939V570.021Z" fill="#E01E5A"/>
<path d="M974.673 552.939C974.673 556.704 971.622 559.755 967.857 559.755V559.755C964.092 559.755 961.041 556.704 961.041 552.939V552.939C961.041 549.174 964.092 546.123 967.857 546.123H974.673V552.939Z" fill="#E01E5A"/>
<path fill-rule="evenodd" clip-rule="evenodd" d="M1007.73 630.809C1014.67 631.84 1020.53 637.162 1021.43 643.916C1021.82 647.933 1021.63 653.968 1021.53 656.902C1021.51 657.633 1021.49 658.171 1021.49 658.438C1021.49 658.832 1021.44 662.432 1021.41 662.812C1020.8 672.462 1014.82 676.273 1008.53 677.488C1008.46 677.508 1008.39 677.523 1008.31 677.538C1008.29 677.542 1008.27 677.546 1008.25 677.55C1004.26 678.333 999.989 678.542 995.936 678.656C994.967 678.682 994.001 678.682 993.032 678.682C989.003 678.683 984.988 678.203 981.071 677.253C981.05 677.248 981.029 677.247 981.008 677.252C980.987 677.257 980.967 677.266 980.95 677.28C980.934 677.293 980.921 677.311 980.912 677.33C980.903 677.35 980.899 677.372 980.9 677.393C981.011 678.675 981.288 679.937 981.725 681.147C982.267 682.547 984.163 685.91 991.21 685.91C995.306 685.917 999.387 685.438 1003.37 684.481C1003.39 684.477 1003.41 684.476 1003.43 684.481C1003.45 684.486 1003.47 684.495 1003.49 684.507C1003.5 684.52 1003.52 684.537 1003.53 684.555C1003.54 684.574 1003.54 684.595 1003.54 684.615V689.352C1003.54 689.375 1003.53 689.396 1003.52 689.416C1003.51 689.436 1003.5 689.453 1003.48 689.467C1002.24 690.374 1000.56 690.908 999.095 691.375C999.029 691.396 998.963 691.417 998.898 691.438C998.231 691.649 997.555 691.835 996.871 691.995C990.654 693.419 984.166 693.074 978.133 691.001C972.497 689.012 966.745 684.138 965.325 678.282C964.566 675.111 964.031 671.889 963.725 668.642C963.403 665.092 963.295 661.535 963.187 657.973C963.147 656.632 963.106 655.29 963.054 653.947C962.92 650.524 962.997 646.793 963.716 643.427C965.211 636.594 971.372 631.811 978.118 630.809C978.257 630.788 978.41 630.761 978.59 630.729C979.925 630.493 982.712 630 991.773 630H991.85C1002.13 630 1006.56 630.634 1007.73 630.809ZM978.714 654.095C981.607 654.095 983.952 651.75 983.952 648.857C983.952 645.964 981.607 643.619 978.714 643.619C975.821 643.619 973.476 645.964 973.476 648.857C973.476 651.75 975.821 654.095 978.714 654.095Z" fill="url(#paint0_linear_9_126)"/>
<defs>
<linearGradient id="paint0_linear_9_126" x1="992.333" y1="630" x2="992.333" y2="692.857" gradientUnits="userSpaceOnUse">
<stop stop-color="#6364FF"/>
<stop offset="1" stop-color="#563ACC"/>
</linearGradient>
</defs>
</svg>
