<svg width="140" height="140" viewBox="0 0 140 140" fill="none" xmlns="http://www.w3.org/2000/svg">
<path opacity="0.9" d="M0 34C0 25.5992 0 21.3988 1.6349 18.1901C3.073 15.3677 5.36771 13.073 8.19014 11.6349C11.3988 10 15.5992 10 24 10H60V60H0V34Z" fill="white"/>
<path opacity="0.9" d="M0 80H60V130H24C15.5992 130 11.3988 130 8.19014 128.365C5.36771 126.927 3.073 124.632 1.6349 121.81C0 118.601 0 114.401 0 106V80Z" fill="white"/>
<path opacity="0.9" d="M80 10H116C124.401 10 128.601 10 131.81 11.6349C134.632 13.073 136.927 15.3677 138.365 18.1901C140 21.3988 140 25.5992 140 34V60H80V10Z" fill="white"/>
<path opacity="0.9" d="M80 80H140V106C140 114.401 140 118.601 138.365 121.81C136.927 124.632 134.632 126.927 131.81 128.365C128.601 130 124.401 130 116 130H80V80Z" fill="white"/>
</svg>
