<svg width="400" height="400" viewBox="0 0 400 400" fill="none" xmlns="http://www.w3.org/2000/svg">
<g opacity="0.9">
<path d="M110 147C110 138.599 110 134.399 111.635 131.19C113.073 128.368 115.368 126.073 118.19 124.635C121.399 123 125.599 123 134 123H190V193H110V147Z" fill="white"/>
<path d="M110 213H190V277H134C125.599 277 121.399 277 118.19 275.365C115.368 273.927 113.073 271.632 111.635 268.81C110 265.601 110 261.401 110 253V213Z" fill="white"/>
<path d="M210 123H266C274.401 123 278.601 123 281.81 124.635C284.632 126.073 286.927 128.368 288.365 131.19C290 134.399 290 138.599 290 147V193H210V123Z" fill="white"/>
<path d="M210 213H290V253C290 261.401 290 265.601 288.365 268.81C286.927 271.632 284.632 273.927 281.81 275.365C278.601 277 274.401 277 266 277H210V213Z" fill="white"/>
</g>
</svg>
