<svg width="400" height="400" viewBox="0 0 400 400" fill="none" xmlns="http://www.w3.org/2000/svg">
<path opacity="0.9" d="M132.171 290H266.829C272.184 290 276.368 288.799 279.381 286.396C282.46 284.06 284 280.823 284 276.685C284 270.278 282.025 263.504 278.075 256.363C274.193 249.221 268.569 242.547 261.206 236.34C253.909 230.067 245.039 224.994 234.595 221.123C224.219 217.186 212.504 215.217 199.45 215.217C186.463 215.217 174.747 217.186 164.304 221.123C153.928 224.994 145.058 230.067 137.694 236.34C130.33 242.547 124.707 249.221 120.824 256.363C116.941 263.504 115 270.278 115 276.685C115 280.823 116.506 284.06 119.519 286.396C122.598 288.799 126.816 290 132.171 290ZM199.55 197.297C206.713 197.297 213.341 195.362 219.433 191.491C225.524 187.553 230.411 182.247 234.093 175.573C237.842 168.899 239.717 161.39 239.717 153.048C239.717 144.839 237.842 137.497 234.093 131.023C230.411 124.483 225.524 119.344 219.433 115.606C213.341 111.869 206.713 110 199.55 110C192.387 110 185.76 111.902 179.668 115.706C173.576 119.511 168.656 124.683 164.907 131.224C161.225 137.764 159.384 145.106 159.384 153.248C159.384 161.524 161.225 168.999 164.907 175.673C168.656 182.28 173.576 187.553 179.668 191.491C185.76 195.362 192.387 197.297 199.55 197.297Z" fill="white"/>
</svg>
