<svg width="400" height="400" viewBox="0 0 400 400" fill="none" xmlns="http://www.w3.org/2000/svg">
<path d="M133.11 205.173C133.11 242.087 162.92 271.896 199.761 271.896C236.675 271.896 266.411 242.087 266.411 205.173C266.411 168.186 237.188 138.815 200.347 138.815C197.783 138.815 195.22 139.108 192.949 139.475L207.524 125.192C209.136 123.508 210.088 121.604 210.088 119.04C210.088 113.84 206.06 109.665 201.006 109.665C198.442 109.665 196.318 110.617 194.634 112.375L164.751 142.844C162.773 144.675 161.748 147.092 161.748 149.655C161.748 152.292 162.773 154.489 164.751 156.467L194.634 186.789C196.245 188.4 198.369 189.279 201.006 189.279C206.06 189.279 210.088 185.251 210.088 180.124C210.088 177.561 209.136 175.656 207.524 174.045L191.045 157.712C193.755 157.199 196.978 156.979 200.347 156.979C226.787 156.979 247.515 178.146 247.515 205.173C247.515 231.613 226.274 253 199.761 253C173.247 253 151.934 231.613 151.934 205.173C151.934 199.46 148.125 195.505 142.705 195.505C137.065 195.505 133.11 199.46 133.11 205.173Z" fill="white"/>
</svg>
