<svg width="1920" height="1080" viewBox="0 0 1920 1080" fill="none" xmlns="http://www.w3.org/2000/svg">
<rect width="1920" height="1080" fill="white"/>
<rect x="98" y="284" width="1095" height="650" fill="#F7CECD" stroke="#CC3333" stroke-width="5" stroke-dasharray="20 10"/>
<path d="M1376.89 552.1V547.6C1366.99 549.94 1361.9 558.22 1361.9 571.9C1361.9 585.58 1366.99 593.86 1376.89 596.2V591.7C1370.27 589.36 1366.85 582.655 1366.85 571.9C1366.85 561.145 1370.27 554.44 1376.89 552.1ZM1409.92 589V562H1404.97V578.155C1404.97 582.61 1402.9 584.995 1398.99 584.995C1395.12 584.995 1393.05 582.61 1393.05 578.155V562H1388.1V579.505C1388.1 585.715 1391.79 589.72 1397.41 589.72C1400.02 589.72 1402.27 588.73 1403.62 586.975H1404.97V589H1409.92ZM1421.54 562V566.635H1429.73V584.365H1421.54V589H1442.83V584.365H1434.68V562H1421.54ZM1428.07 554.35C1428.07 556.645 1429.46 557.995 1431.8 557.995C1434.19 557.995 1435.58 556.645 1435.58 554.35C1435.58 552.055 1434.19 550.705 1431.8 550.705C1429.46 550.705 1428.07 552.055 1428.07 554.35ZM1472.54 550.84H1467.68L1452.02 596.65H1456.88L1472.54 550.84ZM1714.35 589.72C1723.08 589.72 1727.49 583.51 1727.49 571C1727.49 558.49 1723.08 552.28 1714.35 552.28C1705.62 552.28 1701.21 558.49 1701.21 571C1701.21 583.51 1705.62 589.72 1714.35 589.72ZM1706.34 571C1706.34 561.46 1708.86 557.095 1714.35 557.095C1717.9 557.095 1720.2 558.895 1721.41 562.765L1706.43 574.06C1706.38 573.115 1706.34 572.08 1706.34 571ZM1707.33 579.235L1722.27 567.985C1722.31 568.93 1722.36 569.92 1722.36 571C1722.36 580.54 1719.84 584.905 1714.35 584.905C1710.79 584.905 1708.5 583.105 1707.33 579.235ZM1745.86 589.36C1748.51 589.36 1750 587.785 1750 585.04C1750 582.34 1748.51 580.765 1745.86 580.765C1743.2 580.765 1741.72 582.34 1741.72 585.04C1741.72 587.785 1743.2 589.36 1745.86 589.36ZM1766.97 553V573.43H1771.65C1772.73 570.955 1774.93 569.605 1777.81 569.605C1781.91 569.605 1784.43 572.44 1784.43 577.075C1784.43 581.8 1781.77 584.905 1777.68 584.905C1773.94 584.905 1771.65 582.925 1770.7 579.37H1765.71C1766.43 585.85 1770.84 589.72 1777.77 589.72C1784.7 589.72 1789.56 584.455 1789.56 577.075C1789.56 569.875 1785.19 565.06 1779.07 565.06C1776.78 565.06 1774.57 565.825 1773.45 567.085H1772.1V557.815H1788.88V553H1766.97ZM1547.67 622.6V627.1C1554.28 629.44 1557.7 636.145 1557.7 646.9C1557.7 657.655 1554.28 664.36 1547.67 666.7V671.2C1557.57 668.86 1562.65 660.58 1562.65 646.9C1562.65 633.22 1557.57 624.94 1547.67 622.6Z" fill="black"/>
<path d="M1481.05 562L1490.01 589H1497.57L1506.52 562H1501.57L1494.19 584.545H1493.74L1486.32 562H1481.05ZM1513.01 571.315H1517.73C1518.5 567.805 1521.11 565.87 1525.02 565.87C1528.62 565.87 1530.92 567.985 1530.92 571.45V572.215L1522.68 573.52C1517.37 574.375 1514.36 577.39 1514.36 581.89C1514.36 586.57 1517.55 589.675 1522.5 589.675C1525.83 589.675 1528.08 588.595 1529.57 586.525H1530.92V589H1535.73V571.135C1535.73 564.835 1531.91 561.28 1525.16 561.28C1518.09 561.28 1513.46 565.105 1513.01 571.315ZM1519.58 581.665C1519.58 579.55 1520.75 578.155 1523.31 577.75L1530.92 576.58V578.065C1530.92 581.98 1527.63 585.085 1523.67 585.085C1521.24 585.085 1519.58 583.69 1519.58 581.665ZM1546.9 550.84V555.475H1555.09V584.365H1546.9V589H1568.19V584.365H1560.04V550.84H1546.9ZM1579.09 562V566.635H1587.28V584.365H1579.09V589H1600.37V584.365H1592.23V562H1579.09ZM1585.61 554.35C1585.61 556.645 1587.01 557.995 1589.35 557.995C1591.73 557.995 1593.13 556.645 1593.13 554.35C1593.13 552.055 1591.73 550.705 1589.35 550.705C1587.01 550.705 1585.61 552.055 1585.61 554.35ZM1630.98 588.1V562H1626.03V564.25H1624.68C1623.56 562.45 1621.08 561.28 1618.38 561.28C1611.81 561.28 1607.63 566.41 1607.63 574.6C1607.63 582.655 1611.81 587.74 1618.38 587.74C1620.99 587.74 1623.47 586.66 1624.68 584.905H1626.03V587.785C1626.03 591.835 1623.47 594.22 1619.19 594.22C1615.68 594.22 1613.21 592.69 1612.26 590.035H1607.54C1607.81 595.39 1612.35 598.72 1619.19 598.72C1626.57 598.72 1630.98 594.625 1630.98 588.1ZM1612.53 574.6C1612.53 569.11 1615.1 565.915 1619.42 565.915C1623.78 565.915 1626.35 569.11 1626.35 574.6C1626.35 580.09 1623.78 583.285 1619.42 583.285C1615.1 583.285 1612.53 580.09 1612.53 574.6ZM1640.66 562V589H1645.61V572.845C1645.61 568.39 1647.68 566.005 1651.6 566.005C1655.47 566.005 1657.54 568.39 1657.54 572.845V589H1662.49V571.495C1662.49 565.285 1658.8 561.28 1653.17 561.28C1650.56 561.28 1648.31 562.27 1646.96 564.025H1645.61V562H1640.66Z" fill="#CC3333"/>
<path d="M1431.4 664.72C1437.61 664.72 1442.15 660.67 1442.6 654.37H1438.06C1437.11 657.97 1434.73 660.085 1431.4 660.085C1426.9 660.085 1424.24 656.62 1424.24 650.635C1424.24 644.515 1426.94 640.915 1431.67 640.915C1435.36 640.915 1437.92 643.345 1438.69 647.44H1443.23C1442.96 640.645 1438.55 636.28 1431.85 636.28C1424.2 636.28 1419.34 641.86 1419.34 650.635C1419.34 659.275 1424.02 664.72 1431.4 664.72ZM1462.28 664.72C1469.75 664.72 1474.52 659.23 1474.52 650.5C1474.52 641.77 1469.75 636.28 1462.28 636.28C1454.81 636.28 1450.04 641.77 1450.04 650.5C1450.04 659.23 1454.81 664.72 1462.28 664.72ZM1454.94 650.5C1454.94 644.47 1457.64 640.915 1462.28 640.915C1466.91 640.915 1469.61 644.47 1469.61 650.5C1469.61 656.53 1466.91 660.085 1462.28 660.085C1457.64 660.085 1454.94 656.53 1454.94 650.5ZM1481.46 637V664H1486.18V645.415C1486.18 642.985 1487.08 641.725 1488.88 641.725C1490.64 641.725 1491.54 642.985 1491.54 645.415V664H1496.22V645.415C1496.22 642.985 1497.12 641.725 1498.87 641.725C1500.67 641.725 1501.57 642.985 1501.57 645.415V664H1506.3V643.48C1506.3 639.115 1504.27 636.28 1501.12 636.28C1498.96 636.28 1497.34 637.45 1496.71 639.385H1495.54C1494.82 637.45 1493.38 636.28 1491.58 636.28C1489.6 636.28 1488.16 637.36 1487.58 639.16H1486.41V637H1481.46ZM1527.18 636.28C1524.26 636.28 1521.69 637.495 1520.52 639.475H1519.17V637H1514.22V673H1519.17V661.525H1520.52C1521.69 663.505 1524.26 664.72 1527.18 664.72C1533.89 664.72 1538.21 659.23 1538.21 650.5C1538.21 641.77 1533.89 636.28 1527.18 636.28ZM1518.99 650.5C1518.99 644.47 1521.6 640.915 1526.15 640.915C1530.65 640.915 1533.26 644.47 1533.26 650.5C1533.26 656.53 1530.65 660.085 1526.15 660.085C1521.6 660.085 1518.99 656.53 1518.99 650.5Z" fill="#CC33CC"/>
<rect x="84" y="132" width="1124" height="815" rx="20" stroke="black" stroke-width="10"/>
<path d="M84 268H1209" stroke="black" stroke-width="10"/>
<circle cx="151.5" cy="200.5" r="24.5" stroke="black" stroke-width="10"/>
<circle cx="233.5" cy="200.5" r="24.5" stroke="black" stroke-width="10"/>
<circle cx="315.5" cy="200.5" r="24.5" stroke="black" stroke-width="10"/>
<rect x="99" y="559" width="1094" height="100" fill="#CC33CC"/>
<path d="M592.345 626.72C597.925 626.72 602.245 623.84 603.46 618.71H599.23C598.24 621.77 595.54 623.345 592.345 623.345C587.62 623.345 584.29 619.835 584.29 612.86C584.29 605.975 587.71 602.285 592.48 602.285C596.395 602.285 598.15 604.085 599.095 606.65H603.325C602.245 602.015 598.78 598.865 592.48 598.865C585.1 598.865 580.06 604.13 580.06 612.86C580.06 621.725 584.83 626.72 592.345 626.72ZM621.62 626.72C628.775 626.72 634.265 621.77 634.265 612.86C634.265 603.86 628.73 598.865 621.62 598.865C614.555 598.865 609.02 603.815 609.02 612.86C609.02 621.77 614.465 626.72 621.62 626.72ZM621.62 623.345C616.85 623.345 613.25 619.745 613.25 612.86C613.25 605.885 616.85 602.285 621.62 602.285C626.435 602.285 630.035 605.885 630.035 612.86C630.035 619.745 626.435 623.345 621.62 623.345ZM670.052 598.865C666.317 598.865 663.662 600.845 661.457 603.635C660.197 600.71 657.722 598.865 654.032 598.865C650.612 598.865 648.137 600.53 646.022 603.32L645.257 599.63H642.152V626H646.382V606.335C648.137 604.175 650.297 602.33 653.267 602.33C656.777 602.33 658.172 604.805 658.172 609.125V626H662.402V608.855C662.402 608 662.357 607.235 662.222 606.47C664.022 604.31 666.182 602.33 669.287 602.33C672.842 602.33 674.192 604.85 674.192 609.125V626H678.422V608.855C678.422 603.05 675.677 598.865 670.052 598.865ZM700.277 598.865C696.677 598.865 693.842 600.17 691.547 602.96L690.872 599.63H687.767V634.325H691.997V623.525C693.932 625.46 696.407 626.72 699.692 626.72C706.802 626.72 711.887 621.23 711.887 612.455C711.887 604.22 707.207 598.865 700.277 598.865ZM699.377 623.345C696.272 623.345 693.887 621.86 691.997 619.97V605.75C693.977 603.86 696.407 602.285 699.692 602.285C704.327 602.285 707.612 605.57 707.612 612.455C707.612 620.24 703.787 623.345 699.377 623.345Z" fill="white"/>
</svg>
