<svg width="1920" height="1080" viewBox="0 0 1920 1080" fill="none" xmlns="http://www.w3.org/2000/svg">
<rect width="1920" height="1080" fill="white"/>
<rect x="397" y="132" width="1124" height="815" rx="20" stroke="black" stroke-width="10"/>
<path d="M397 268H1522" stroke="black" stroke-width="10"/>
<circle cx="464.5" cy="200.5" r="24.5" stroke="black" stroke-width="10"/>
<circle cx="546.5" cy="200.5" r="24.5" stroke="black" stroke-width="10"/>
<circle cx="628.5" cy="200.5" r="24.5" stroke="black" stroke-width="10"/>
<rect x="818" y="559" width="282" height="100" fill="#CC33CC"/>
<path d="M905.345 626.72C910.925 626.72 915.245 623.84 916.46 618.71H912.23C911.24 621.77 908.54 623.345 905.345 623.345C900.62 623.345 897.29 619.835 897.29 612.86C897.29 605.975 900.71 602.285 905.48 602.285C909.395 602.285 911.15 604.085 912.095 606.65H916.325C915.245 602.015 911.78 598.865 905.48 598.865C898.1 598.865 893.06 604.13 893.06 612.86C893.06 621.725 897.83 626.72 905.345 626.72ZM934.62 626.72C941.775 626.72 947.265 621.77 947.265 612.86C947.265 603.86 941.73 598.865 934.62 598.865C927.555 598.865 922.02 603.815 922.02 612.86C922.02 621.77 927.465 626.72 934.62 626.72ZM934.62 623.345C929.85 623.345 926.25 619.745 926.25 612.86C926.25 605.885 929.85 602.285 934.62 602.285C939.435 602.285 943.035 605.885 943.035 612.86C943.035 619.745 939.435 623.345 934.62 623.345ZM983.052 598.865C979.317 598.865 976.662 600.845 974.457 603.635C973.197 600.71 970.722 598.865 967.032 598.865C963.612 598.865 961.137 600.53 959.022 603.32L958.257 599.63H955.152V626H959.382V606.335C961.137 604.175 963.297 602.33 966.267 602.33C969.777 602.33 971.172 604.805 971.172 609.125V626H975.402V608.855C975.402 608 975.357 607.235 975.222 606.47C977.022 604.31 979.182 602.33 982.287 602.33C985.842 602.33 987.192 604.85 987.192 609.125V626H991.422V608.855C991.422 603.05 988.677 598.865 983.052 598.865ZM1013.28 598.865C1009.68 598.865 1006.84 600.17 1004.55 602.96L1003.87 599.63H1000.77V634.325H1005V623.525C1006.93 625.46 1009.41 626.72 1012.69 626.72C1019.8 626.72 1024.89 621.23 1024.89 612.455C1024.89 604.22 1020.21 598.865 1013.28 598.865ZM1012.38 623.345C1009.27 623.345 1006.89 621.86 1005 619.97V605.75C1006.98 603.86 1009.41 602.285 1012.69 602.285C1017.33 602.285 1020.61 605.57 1020.61 612.455C1020.61 620.24 1016.79 623.345 1012.38 623.345Z" fill="white"/>
</svg>
