<svg width="1920" height="1080" viewBox="0 0 1920 1080" fill="none" xmlns="http://www.w3.org/2000/svg">
<rect width="1920" height="1080" fill="white"/>
<path d="M1436.89 552.1V547.6C1426.99 549.94 1421.9 558.22 1421.9 571.9C1421.9 585.58 1426.99 593.86 1436.89 596.2V591.7C1430.27 589.36 1426.85 582.655 1426.85 571.9C1426.85 561.145 1430.27 554.44 1436.89 552.1ZM1469.92 589V562H1464.97V578.155C1464.97 582.61 1462.9 584.995 1458.99 584.995C1455.12 584.995 1453.05 582.61 1453.05 578.155V562H1448.1V579.505C1448.1 585.715 1451.79 589.72 1457.41 589.72C1460.02 589.72 1462.27 588.73 1463.62 586.975H1464.97V589H1469.92ZM1481.54 562V566.635H1489.73V584.365H1481.54V589H1502.83V584.365H1494.68V562H1481.54ZM1488.07 554.35C1488.07 556.645 1489.46 557.995 1491.8 557.995C1494.19 557.995 1495.58 556.645 1495.58 554.35C1495.58 552.055 1494.19 550.705 1491.8 550.705C1489.46 550.705 1488.07 552.055 1488.07 554.35ZM1532.54 550.84H1527.68L1512.02 596.65H1516.88L1532.54 550.84ZM1554.42 589.72C1560.63 589.72 1565.17 585.67 1565.62 579.37H1561.08C1560.13 582.97 1557.75 585.085 1554.42 585.085C1549.92 585.085 1547.26 581.62 1547.26 575.635C1547.26 569.515 1549.96 565.915 1554.69 565.915C1558.38 565.915 1560.94 568.345 1561.71 572.44H1566.25C1565.98 565.645 1561.57 561.28 1554.87 561.28C1547.22 561.28 1542.36 566.86 1542.36 575.635C1542.36 584.275 1547.04 589.72 1554.42 589.72ZM1573.86 575.275C1573.86 584.41 1578.32 589.72 1585.97 589.72C1591.77 589.72 1596.18 586.3 1597.49 580.72H1592.85C1591.28 583.645 1588.98 585.22 1585.97 585.22C1581.74 585.22 1579.22 582.385 1578.77 577.12H1596.68C1596.72 576.49 1596.77 575.725 1596.77 575.05C1596.77 566.32 1592.72 561.28 1585.83 561.28C1578.5 561.28 1573.86 566.68 1573.86 575.275ZM1578.86 572.755C1579.53 568.3 1582.01 565.78 1585.83 565.78C1589.34 565.78 1591.5 568.21 1592.04 572.755H1578.86ZM1606.14 562V589H1611.09V572.845C1611.09 568.39 1613.16 566.005 1617.07 566.005C1620.94 566.005 1623.01 568.39 1623.01 572.845V589H1627.96V571.495C1627.96 565.285 1624.27 561.28 1618.65 561.28C1616.04 561.28 1613.79 562.27 1612.44 564.025H1611.09V562H1606.14ZM1647.1 554.98H1642.15V562H1636.21V566.635H1642.15V580.315C1642.15 586.3 1645.25 589.72 1650.79 589.72C1656.46 589.72 1659.79 586.12 1660.06 579.55H1655.69C1654.97 583.285 1653.58 585.085 1650.97 585.085C1648.45 585.085 1647.1 583.33 1647.1 580.135V566.635H1659.25V562H1647.1V554.98ZM1668.39 575.275C1668.39 584.41 1672.85 589.72 1680.5 589.72C1686.3 589.72 1690.71 586.3 1692.02 580.72H1687.38C1685.81 583.645 1683.51 585.22 1680.5 585.22C1676.27 585.22 1673.75 582.385 1673.3 577.12H1691.21C1691.25 576.49 1691.3 575.725 1691.3 575.05C1691.3 566.32 1687.25 561.28 1680.36 561.28C1673.03 561.28 1668.39 566.68 1668.39 575.275ZM1673.39 572.755C1674.06 568.3 1676.54 565.78 1680.36 565.78C1683.87 565.78 1686.03 568.21 1686.57 572.755H1673.39ZM1699.85 562V566.635H1705.75V584.365H1700.66V589H1719.07V584.365H1710.7V574.285C1710.7 568.75 1712.23 565.96 1715.33 565.96C1717.76 565.96 1719.02 567.49 1719.02 570.505V573.7H1724.15V569.785C1724.15 564.52 1721.5 561.28 1717.13 561.28C1714.75 561.28 1712.81 562.27 1711.73 563.98H1710.38V562H1699.85ZM1607.67 622.6V627.1C1614.28 629.44 1617.7 636.145 1617.7 646.9C1617.7 657.655 1614.28 664.36 1607.67 666.7V671.2C1617.57 668.86 1622.65 660.58 1622.65 646.9C1622.65 633.22 1617.57 624.94 1607.67 622.6Z" fill="black"/>
<path d="M1491.4 664.72C1497.61 664.72 1502.15 660.67 1502.6 654.37H1498.06C1497.11 657.97 1494.73 660.085 1491.4 660.085C1486.9 660.085 1484.24 656.62 1484.24 650.635C1484.24 644.515 1486.94 640.915 1491.67 640.915C1495.36 640.915 1497.92 643.345 1498.69 647.44H1503.23C1502.96 640.645 1498.55 636.28 1491.85 636.28C1484.2 636.28 1479.34 641.86 1479.34 650.635C1479.34 659.275 1484.02 664.72 1491.4 664.72ZM1522.28 664.72C1529.75 664.72 1534.52 659.23 1534.52 650.5C1534.52 641.77 1529.75 636.28 1522.28 636.28C1514.81 636.28 1510.04 641.77 1510.04 650.5C1510.04 659.23 1514.81 664.72 1522.28 664.72ZM1514.94 650.5C1514.94 644.47 1517.64 640.915 1522.28 640.915C1526.91 640.915 1529.61 644.47 1529.61 650.5C1529.61 656.53 1526.91 660.085 1522.28 660.085C1517.64 660.085 1514.94 656.53 1514.94 650.5ZM1541.46 637V664H1546.18V645.415C1546.18 642.985 1547.08 641.725 1548.88 641.725C1550.64 641.725 1551.54 642.985 1551.54 645.415V664H1556.22V645.415C1556.22 642.985 1557.12 641.725 1558.87 641.725C1560.67 641.725 1561.57 642.985 1561.57 645.415V664H1566.3V643.48C1566.3 639.115 1564.27 636.28 1561.12 636.28C1558.96 636.28 1557.34 637.45 1556.71 639.385H1555.54C1554.82 637.45 1553.38 636.28 1551.58 636.28C1549.6 636.28 1548.16 637.36 1547.58 639.16H1546.41V637H1541.46ZM1587.18 636.28C1584.26 636.28 1581.69 637.495 1580.52 639.475H1579.17V637H1574.22V673H1579.17V661.525H1580.52C1581.69 663.505 1584.26 664.72 1587.18 664.72C1593.89 664.72 1598.21 659.23 1598.21 650.5C1598.21 641.77 1593.89 636.28 1587.18 636.28ZM1578.99 650.5C1578.99 644.47 1581.6 640.915 1586.15 640.915C1590.65 640.915 1593.26 644.47 1593.26 650.5C1593.26 656.53 1590.65 660.085 1586.15 660.085C1581.6 660.085 1578.99 656.53 1578.99 650.5Z" fill="#CC33CC"/>
<rect x="84" y="132" width="1124" height="815" rx="20" stroke="black" stroke-width="10"/>
<path d="M84 268H1209" stroke="black" stroke-width="10"/>
<circle cx="151.5" cy="200.5" r="24.5" stroke="black" stroke-width="10"/>
<circle cx="233.5" cy="200.5" r="24.5" stroke="black" stroke-width="10"/>
<circle cx="315.5" cy="200.5" r="24.5" stroke="black" stroke-width="10"/>
<rect x="505" y="559" width="282" height="100" fill="#CC33CC"/>
<path d="M592.345 626.72C597.925 626.72 602.245 623.84 603.46 618.71H599.23C598.24 621.77 595.54 623.345 592.345 623.345C587.62 623.345 584.29 619.835 584.29 612.86C584.29 605.975 587.71 602.285 592.48 602.285C596.395 602.285 598.15 604.085 599.095 606.65H603.325C602.245 602.015 598.78 598.865 592.48 598.865C585.1 598.865 580.06 604.13 580.06 612.86C580.06 621.725 584.83 626.72 592.345 626.72ZM621.62 626.72C628.775 626.72 634.265 621.77 634.265 612.86C634.265 603.86 628.73 598.865 621.62 598.865C614.555 598.865 609.02 603.815 609.02 612.86C609.02 621.77 614.465 626.72 621.62 626.72ZM621.62 623.345C616.85 623.345 613.25 619.745 613.25 612.86C613.25 605.885 616.85 602.285 621.62 602.285C626.435 602.285 630.035 605.885 630.035 612.86C630.035 619.745 626.435 623.345 621.62 623.345ZM670.052 598.865C666.317 598.865 663.662 600.845 661.457 603.635C660.197 600.71 657.722 598.865 654.032 598.865C650.612 598.865 648.137 600.53 646.022 603.32L645.257 599.63H642.152V626H646.382V606.335C648.137 604.175 650.297 602.33 653.267 602.33C656.777 602.33 658.172 604.805 658.172 609.125V626H662.402V608.855C662.402 608 662.357 607.235 662.222 606.47C664.022 604.31 666.182 602.33 669.287 602.33C672.842 602.33 674.192 604.85 674.192 609.125V626H678.422V608.855C678.422 603.05 675.677 598.865 670.052 598.865ZM700.277 598.865C696.677 598.865 693.842 600.17 691.547 602.96L690.872 599.63H687.767V634.325H691.997V623.525C693.932 625.46 696.407 626.72 699.692 626.72C706.802 626.72 711.887 621.23 711.887 612.455C711.887 604.22 707.207 598.865 700.277 598.865ZM699.377 623.345C696.272 623.345 693.887 621.86 691.997 619.97V605.75C693.977 603.86 696.407 602.285 699.692 602.285C704.327 602.285 707.612 605.57 707.612 612.455C707.612 620.24 703.787 623.345 699.377 623.345Z" fill="white"/>
</svg>
