<svg width="1920" height="1080" viewBox="0 0 1920 1080" fill="none" xmlns="http://www.w3.org/2000/svg">
<rect width="1920" height="1080" fill="white"/>
<rect x="984" y="403" width="750" height="281" rx="40" fill="#2C80EB"/>
<rect x="128" y="403" width="750" height="274" rx="40" fill="#2C80EB"/>
<path d="M432.501 620.2C471.901 620.2 501.701 593.6 501.701 543.6C501.701 494 471.901 467.2 432.501 467.2C393.101 467.2 363.301 494 363.301 543.6C363.301 593.6 393.101 620.2 432.501 620.2ZM432.501 603.6C404.301 603.6 383.101 583.8 383.101 543.6C383.101 503.6 404.301 483.8 432.501 483.8C460.901 483.8 481.901 503.6 481.901 543.6C481.901 583.8 460.901 603.6 432.501 603.6ZM652.702 617L591.502 530.8L651.702 470.4H628.702L555.502 544.4V470.4H536.102V617H555.502V566.4L578.702 543.2L629.302 617H652.702Z" fill="white"/>
<path d="M1288.5 620.2C1327.9 620.2 1357.7 593.6 1357.7 543.6C1357.7 494 1327.9 467.2 1288.5 467.2C1249.1 467.2 1219.3 494 1219.3 543.6C1219.3 593.6 1249.1 620.2 1288.5 620.2ZM1288.5 603.6C1260.3 603.6 1239.1 583.8 1239.1 543.6C1239.1 503.6 1260.3 483.8 1288.5 483.8C1316.9 483.8 1337.9 503.6 1337.9 543.6C1337.9 583.8 1316.9 603.6 1288.5 603.6ZM1508.7 617L1447.5 530.8L1507.7 470.4H1484.7L1411.5 544.4V470.4H1392.1V617H1411.5V566.4L1434.7 543.2L1485.3 617H1508.7Z" fill="white"/>
<path d="M377.253 858L384.813 828.66L392.328 858H397.053L405.918 825.015H401.463L394.623 853.635L387.243 825.015H382.293L374.958 853.635L368.073 825.015H363.618L372.483 858H377.253ZM432.752 844.455C432.752 835.59 428.252 830.865 421.097 830.865C414.212 830.865 408.902 835.68 408.902 844.77C408.902 853.77 413.537 858.72 421.052 858.72C426.767 858.72 430.817 855.75 432.437 850.71H428.297C426.947 853.725 424.562 855.39 421.052 855.39C416.327 855.39 413.492 852.42 413.222 845.67H432.752V844.455ZM413.222 842.925C413.627 837.525 416.282 834.105 421.097 834.105C425.822 834.105 428.297 837.255 428.567 842.925H413.222ZM453.183 830.865C449.763 830.865 447.063 832.035 444.858 834.51V823.665H440.628V858H443.733L444.363 854.985C446.388 857.235 448.998 858.72 452.598 858.72C459.708 858.72 464.793 853.23 464.793 844.455C464.793 836.22 460.113 830.865 453.183 830.865ZM452.283 855.345C449.133 855.345 446.703 853.86 444.858 851.925V837.75C446.793 835.905 449.268 834.285 452.598 834.285C457.233 834.285 460.518 837.57 460.518 844.455C460.518 852.24 456.693 855.345 452.283 855.345ZM487.019 824.205H483.149L469.289 858.81H473.114L487.019 824.205ZM497.188 858L496.918 830.685L513.748 858H518.653V825.015H514.513L514.783 852.33L497.998 825.015H493.048V858H497.188ZM549.23 854.805C547.79 854.805 547.34 853.905 547.34 852.24V839.64C547.34 834.24 544.1 830.865 537.53 830.865C531.815 830.865 527.45 833.88 527.135 838.65H531.275C531.59 835.725 534.065 834.06 537.53 834.06C541.265 834.06 543.11 835.995 543.11 839.415V842.52L537.98 842.565C528.89 842.655 526.055 846.525 526.055 851.25C526.055 855.795 529.43 858.72 534.74 858.72C538.61 858.72 541.58 857.19 543.515 855.165C544.01 856.92 545.54 858.225 547.97 858.225C548.6 858.225 549.23 858.18 549.725 858V854.805H549.23ZM530.285 851.16C530.285 848.01 532.175 845.31 538.61 845.31H543.11V852.33L543.155 852.555C541.085 854.175 538.565 855.57 535.37 855.57C532.265 855.57 530.285 853.905 530.285 851.16ZM566.862 854.58C563.577 854.58 561.867 853.185 561.867 849.945V834.915H568.887V831.63H561.867V825.465H558.537L557.817 831.63H553.722V834.915H557.637V850.305C557.637 855.795 560.742 858.225 566.412 858.225C567.627 858.225 568.977 858.135 570.012 858V854.58H566.862ZM576.717 821.73V826.815H581.172V821.73H576.717ZM582.207 831.63H574.017V834.555L577.977 834.915V858H582.207V831.63ZM602.959 858L612.364 831.63H607.954L600.529 854.85L593.104 831.63H588.739L598.144 858H602.959ZM640.482 844.455C640.482 835.59 635.982 830.865 628.827 830.865C621.942 830.865 616.632 835.68 616.632 844.77C616.632 853.77 621.267 858.72 628.782 858.72C634.497 858.72 638.547 855.75 640.167 850.71H636.027C634.677 853.725 632.292 855.39 628.782 855.39C624.057 855.39 621.222 852.42 620.952 845.67H640.482V844.455ZM620.952 842.925C621.357 837.525 624.012 834.105 628.827 834.105C633.552 834.105 636.027 837.255 636.297 842.925H620.952Z" fill="#212B37"/>
<path d="M1242.08 858V842.655H1259.4V858H1263.81V825.015H1259.4V838.965H1242.08V825.015H1237.71V858H1242.08ZM1289.88 851.16C1288.08 853.32 1285.69 855.255 1282.5 855.255C1278.99 855.255 1277.14 853.185 1277.14 848.55V831.63H1272.91V848.73C1272.91 854.625 1275.84 858.72 1281.6 858.72C1285.29 858.72 1287.99 857.055 1290.24 854.22L1291 858H1294.11V831.63H1289.88V851.16ZM1331.63 830.865C1327.89 830.865 1325.24 832.845 1323.03 835.635C1321.77 832.71 1319.3 830.865 1315.61 830.865C1312.19 830.865 1309.71 832.53 1307.6 835.32L1306.83 831.63H1303.73V858H1307.96V838.335C1309.71 836.175 1311.87 834.33 1314.84 834.33C1318.35 834.33 1319.75 836.805 1319.75 841.125V858H1323.98V840.855C1323.98 840 1323.93 839.235 1323.8 838.47C1325.6 836.31 1327.76 834.33 1330.86 834.33C1334.42 834.33 1335.77 836.85 1335.77 841.125V858H1340V840.855C1340 835.05 1337.25 830.865 1331.63 830.865ZM1361.9 830.865C1358.48 830.865 1355.78 832.035 1353.57 834.51V823.665H1349.34V858H1352.45L1353.08 854.985C1355.1 857.235 1357.71 858.72 1361.31 858.72C1368.42 858.72 1373.51 853.23 1373.51 844.455C1373.51 836.22 1368.83 830.865 1361.9 830.865ZM1361 855.345C1357.85 855.345 1355.42 853.86 1353.57 851.925V837.75C1355.51 835.905 1357.98 834.285 1361.31 834.285C1365.95 834.285 1369.23 837.57 1369.23 844.455C1369.23 852.24 1365.41 855.345 1361 855.345ZM1390.15 854.49C1387.32 854.49 1385.38 853.275 1385.38 849.9V823.665H1381.15V850.53C1381.11 856.2 1384.8 858.225 1389.39 858.225C1390.6 858.225 1391.46 858.135 1392.63 858V854.49H1390.15ZM1420.48 844.455C1420.48 835.59 1415.98 830.865 1408.82 830.865C1401.94 830.865 1396.63 835.68 1396.63 844.77C1396.63 853.77 1401.26 858.72 1408.78 858.72C1414.49 858.72 1418.54 855.75 1420.16 850.71H1416.02C1414.67 853.725 1412.29 855.39 1408.78 855.39C1404.05 855.39 1401.22 852.42 1400.95 845.67H1420.48V844.455ZM1400.95 842.925C1401.35 837.525 1404.01 834.105 1408.82 834.105C1413.55 834.105 1416.02 837.255 1416.29 842.925H1400.95ZM1453.59 858.72C1461.69 858.72 1466.28 854.265 1466.28 846.255V825.015H1461.92V845.67C1461.92 852.015 1459.13 854.985 1453.59 854.985C1448.1 854.985 1445.31 852.015 1445.31 845.67V825.015H1440.95V846.255C1440.95 854.265 1445.54 858.72 1453.59 858.72ZM1479.29 858V825.015H1474.93V858H1479.29Z" fill="#212B37"/>
<rect x="488" y="403" width="57" height="67" fill="#D9D9D9"/>
<rect x="488" y="610" width="57" height="67" fill="#D9D9D9"/>
<rect x="1347" y="403" width="57" height="67" fill="#D9D9D9"/>
<rect x="1346" y="617" width="57" height="67" fill="#D9D9D9"/>
</svg>
