<svg width="1920" height="1080" viewBox="0 0 1920 1080" fill="none" xmlns="http://www.w3.org/2000/svg">
<rect width="1920" height="1080" fill="white"/>
<path d="M1333.56 885.819L1334.55 885.928L1334.66 884.934L1353.32 714.594L1353.43 713.6L1352.44 713.491L1329.77 711.007L1328.78 710.898L1328.67 711.892L1310.01 882.233L1309.9 883.227L1310.89 883.336L1333.56 885.819Z" fill="black" stroke="black" stroke-width="2"/>
<path d="M1591.4 602.137L1591.82 601.229L1590.91 600.811L1570.2 591.258L1569.3 590.839L1568.88 591.747L1523.03 691.118C1516.66 704.922 1508.43 713.675 1498.43 717.596L1498.43 717.596C1488.65 721.434 1477.27 720.447 1464.21 714.421C1450.42 708.055 1441.62 699.729 1437.62 689.51C1433.69 679.156 1434.8 667.132 1441.16 653.344L1487.01 553.973L1487.43 553.065L1486.52 552.646L1465.82 543.093L1464.91 542.674L1464.49 543.582L1418.64 642.953C1408.99 663.881 1407.48 681.966 1414.41 697.077L1414.41 697.09C1421.52 712.038 1435.25 724.139 1455.43 733.453C1475.19 742.57 1492.85 744.68 1508.33 739.591L1508.33 739.589C1523.91 734.342 1536.29 721.568 1545.54 701.509L1591.4 602.137Z" fill="black" stroke="black" stroke-width="2"/>
<path d="M1269.06 458.004L1268.07 457.923L1267.98 458.919L1254 629.708L1253.92 630.705L1254.92 630.786L1373.56 640.498L1374.56 640.58L1374.64 639.583L1376.21 620.447L1376.29 619.451L1375.29 619.369L1280.37 611.599L1285.04 554.51L1372.79 561.693L1373.78 561.774L1373.87 560.778L1375.43 541.642L1375.51 540.645L1374.52 540.563L1286.77 533.38L1291.05 481.075L1385.26 488.787L1386.25 488.869L1386.34 487.872L1387.9 468.736L1387.98 467.739L1386.99 467.658L1269.06 458.004Z" fill="black" stroke="black" stroke-width="2"/>
<path d="M1108.82 552.428L1107.83 552.613L1108.02 553.596L1139.68 722.005L1139.87 722.988L1140.85 722.803L1252.41 701.828L1253.4 701.643L1253.21 700.66L1249.66 681.791L1249.48 680.808L1248.5 680.993L1160.32 697.571L1132.39 549.013L1132.21 548.031L1131.22 548.215L1108.82 552.428Z" fill="black" stroke="black" stroke-width="2"/>
<path d="M1652.2 478.517L1617.49 450.508L1650.45 409.667L1685.16 437.676C1688.98 440.764 1692.36 443.894 1695.28 447.064L1695.29 447.079L1695.31 447.093C1698.41 450.198 1700.62 453.481 1701.98 456.937C1703.31 460.362 1703.65 463.949 1702.96 467.718C1702.29 471.435 1700.13 475.621 1696.37 480.284C1690.78 487.206 1684.48 490.554 1677.46 490.549C1670.64 490.519 1662.24 486.614 1652.2 478.517ZM1645.24 378.223L1644.46 377.595L1643.84 378.373L1536.22 511.729L1535.59 512.507L1536.37 513.135L1600.81 565.133C1607.49 570.524 1614.25 574.212 1621.1 576.158L1621.11 576.161C1628.13 578.069 1634.8 578.638 1641.13 577.846C1647.66 577.032 1653.72 574.99 1659.3 571.719C1664.86 568.459 1669.65 564.351 1673.64 559.4C1680.39 551.037 1683.94 542.1 1684.21 532.607C1684.46 523.772 1681.57 515.354 1675.61 507.374C1683.33 509.422 1690.72 509.339 1697.75 507.092C1705.67 504.609 1712.54 499.726 1718.38 492.496C1723.9 485.653 1727.02 478.551 1727.64 471.198C1728.38 464.047 1727.61 457.324 1725.31 451.043C1724.28 448.062 1722.54 445.074 1720.13 442.076C1717.86 439.205 1715.19 436.327 1712.14 433.443C1709.18 430.438 1706.01 427.571 1702.63 424.843C1699.49 422.103 1696.49 419.575 1693.62 417.259L1645.24 378.223ZM1611.88 546.826L1568.21 511.583L1604.18 467.006L1643.93 499.084C1647.61 502.057 1650.87 505.295 1653.71 508.798L1653.72 508.811L1653.73 508.824C1656.64 512.169 1658.66 515.695 1659.82 519.401L1659.83 519.427L1659.84 519.453C1661.21 523.112 1661.56 526.934 1660.9 530.937C1660.24 534.891 1658.24 538.999 1654.79 543.265C1648.9 550.571 1642.17 554.437 1634.6 555.027L1634.59 555.028C1627.14 555.715 1619.58 553.042 1611.88 546.826Z" fill="black" stroke="black" stroke-width="2"/>
<path d="M1389.39 235.467L1388.42 235.215L1388.17 236.183L1345.03 402.024L1344.78 402.992L1345.75 403.244L1366.65 408.681L1367.62 408.933L1367.87 407.965L1402.69 274.09L1418.17 421.412L1418.24 422.101L1418.91 422.275L1437.73 427.169L1438.4 427.343L1438.8 426.777L1524.09 305.668L1489.27 439.543L1489.02 440.511L1489.99 440.763L1510.89 446.2L1511.86 446.452L1512.11 445.484L1555.25 279.643L1555.5 278.675L1554.53 278.423L1524.34 270.569L1523.67 270.395L1523.27 270.96L1436.06 394.495L1420.33 244.185L1420.25 243.495L1419.58 243.321L1389.39 235.467Z" fill="black" stroke="black" stroke-width="2"/>
<path d="M1226.21 225.618L1225.83 224.694L1224.91 225.076L1203.84 233.795L1202.92 234.177L1203.3 235.101L1245.15 336.223C1250.96 350.27 1251.81 362.25 1247.9 372.259L1247.9 372.259C1244.08 382.048 1235.63 389.73 1222.34 395.23C1208.3 401.041 1196.22 401.848 1186 397.85C1175.73 393.709 1167.65 384.732 1161.84 370.701L1119.99 269.579L1119.61 268.655L1118.68 269.038L1097.62 277.757L1096.69 278.139L1097.08 279.063L1138.93 380.185C1147.74 401.481 1160 414.864 1175.8 420.034L1175.81 420.038C1191.61 424.966 1209.82 423.098 1230.36 414.597C1250.46 406.275 1264 394.74 1270.77 379.919L1270.77 379.913C1277.49 364.913 1276.51 347.152 1268.06 326.739L1226.21 225.618Z" fill="black" stroke="black" stroke-width="2"/>
<path d="M923.204 487.592L922.599 488.388L923.395 488.993L1059.88 592.607L1060.68 593.212L1061.28 592.415L1075.07 574.256L1075.67 573.459L1074.88 572.855L1013.16 526.005L1066.52 455.724L1128.23 502.573L1129.03 503.177L1129.63 502.381L1143.42 484.221L1144.02 483.425L1143.23 482.82L1006.74 379.205L1005.95 378.601L1005.34 379.397L991.554 397.557L990.95 398.354L991.746 398.958L1049.63 442.905L996.279 513.187L938.391 469.24L937.594 468.635L936.99 469.432L923.204 487.592Z" fill="black" stroke="black" stroke-width="2"/>
<ellipse cx="513.988" cy="410.052" rx="185.383" ry="114.203" transform="rotate(-68.9199 513.988 410.052)" fill="url(#paint0_linear_31_312)"/>
<ellipse cx="390.62" cy="446.314" rx="194.88" ry="117.124" transform="rotate(-135 390.62 446.314)" fill="url(#paint1_linear_31_312)"/>
<path d="M340.741 700.806L309.191 746.798L314.759 760.195L374.148 771.331L340.741 700.806Z" fill="#020007"/>
<path d="M616.483 776.856C675.606 754.435 708.147 690.888 691.782 629.812C675.416 568.735 615.461 529.972 553.05 540.117L444.956 557.686C366.518 570.436 316.267 648.16 336.835 724.919C357.402 801.679 439.783 843.864 514.087 815.687L616.483 776.856Z" fill="url(#paint2_linear_31_312)"/>
<path d="M619.32 775.74C618.381 776.122 617.435 776.494 616.482 776.856L587.655 787.788C533.174 716.191 495.411 638.967 465.466 554.352L498.039 549.058C527.873 632.118 565.321 706.794 619.32 775.74Z" fill="black"/>
<path d="M409.055 568.802C418.723 564.237 429.098 560.765 440.06 558.573C457.662 643.036 484.44 728.182 519.397 813.673L514.086 815.687C505.477 818.951 496.76 821.272 488.043 822.703C453.569 737.907 426.887 653.158 409.055 568.802Z" fill="black"/>
<path d="M470.516 824.401C455.109 824.867 439.934 822.644 425.6 818.043C414.868 802.767 404.989 787.451 395.908 771.862C372.534 731.741 354.59 690.068 340.839 642.899C346.258 628.553 354.092 615.232 363.952 603.541C377.902 661.504 397.243 709.702 423.942 755.531C437.428 778.681 452.846 801.324 470.516 824.401Z" fill="black"/>
<path fill-rule="evenodd" clip-rule="evenodd" d="M599.24 650.469C591.096 641.886 581.972 630.249 571.795 616.563L584.812 606.882C594.953 620.52 603.585 631.48 611.008 639.303C618.755 647.469 623.969 650.861 627.136 651.564C628.301 651.822 628.913 651.657 629.466 651.351C630.222 650.932 631.552 649.826 633.19 647.028C636.561 641.27 639.812 630.851 642.689 614.064L658.678 616.804C655.749 633.898 652.129 646.787 647.19 655.224C644.672 659.524 641.488 663.237 637.322 665.543C632.953 667.962 628.237 668.425 623.62 667.4C615.223 665.536 607.059 658.71 599.24 650.469Z" fill="black"/>
<defs>
<linearGradient id="paint0_linear_31_312" x1="698.796" y1="407.36" x2="342.929" y2="413.81" gradientUnits="userSpaceOnUse">
<stop stop-color="#00D1FF" stop-opacity="0.4"/>
<stop offset="1" stop-color="#00D1FF" stop-opacity="0"/>
</linearGradient>
<linearGradient id="paint1_linear_31_312" x1="584.895" y1="443.553" x2="210.804" y2="450.503" gradientUnits="userSpaceOnUse">
<stop stop-color="#00D1FF" stop-opacity="0.4"/>
<stop offset="1" stop-color="#00D1FF" stop-opacity="0"/>
</linearGradient>
<linearGradient id="paint2_linear_31_312" x1="530.047" y1="650.699" x2="561.598" y2="793.603" gradientUnits="userSpaceOnUse">
<stop stop-color="#FFDB2B"/>
<stop offset="1" stop-color="#C9A900"/>
</linearGradient>
</defs>
</svg>
