<svg width="1920" height="1080" viewBox="0 0 1920 1080" fill="none" xmlns="http://www.w3.org/2000/svg">
<rect width="1920" height="1080" fill="white"/>
<path d="M658.345 904.482V684.478H707.69V904.94C707.69 934.822 702.36 956.93 691.699 971.261C681.342 985.593 660.325 1000.84 628.647 1017L609 979.951C630.322 966.535 643.877 955.557 649.664 947.019C655.451 938.786 658.345 924.607 658.345 904.482ZM658.345 645.6V593H707.69V645.6H658.345Z" fill="#112A3D"/>
<path d="M749.124 689.052H798.013V870.635H807.151L850.556 689.052H887.863L931.268 870.635H940.406V684.478H989.751L986.096 913.173H897.915L868.386 767.588L840.504 913.173H756.733L749.124 689.052Z" fill="#112A3D"/>
<path d="M1029.37 908.599H1078.26V727.015H1087.4L1130.8 908.599H1168.11L1211.52 727.015H1220.65V913.173H1270L1266.34 684.478H1178.16L1148.64 830.062L1120.75 684.478H1036.98L1029.37 908.599Z" fill="#112A3D"/>
<path fill-rule="evenodd" clip-rule="evenodd" d="M1025.55 456H950.447L967 512.5L943 648H1033L1009 512.5L1025.55 456ZM758 519.137C791.871 498.957 828.616 483.098 867.474 472.322L916.777 648H758V519.137ZM1218 648H1058.22L1107.6 472.066C1146.8 482.846 1183.86 498.796 1218 519.137V648Z" fill="#112A3D"/>
<path d="M825 263H973V413H921C887.397 413 870.595 413 857.761 406.46C846.471 400.708 837.292 391.529 831.54 380.239C825 367.405 825 350.603 825 317V263Z" fill="#FA752A"/>
<path d="M1151 263H1003V413H1055C1088.6 413 1105.4 413 1118.24 406.46C1129.53 400.708 1138.71 391.529 1144.46 380.239C1151 367.405 1151 350.603 1151 317V263Z" fill="#E44B29"/>
<path fill-rule="evenodd" clip-rule="evenodd" d="M825 233H1151.5V83H921C887.397 83 870.595 83 857.761 89.5396C846.471 95.292 837.292 104.471 831.54 115.761C825 128.595 825 145.397 825 179V233ZM941.226 157.375C941.226 178.569 923.491 195.75 901.613 195.75C879.735 195.75 862 178.569 862 157.375C862 136.181 879.735 119 901.613 119C923.491 119 941.226 136.181 941.226 157.375ZM1035 136.5L1055.5 116L1076.5 137L1097.5 116L1118 136.5L1097 157.5L1117 177.5L1096.5 198L1076.5 178L1056.5 198L1036 177.5L1056 157.5L1035 136.5Z" fill="#EB582A"/>
</svg>
