<svg width="1920" height="1080" viewBox="0 0 1920 1080" fill="none" xmlns="http://www.w3.org/2000/svg">
<rect width="1920" height="1080" fill="white"/>
<path d="M465 634.631C462.499 635.753 459.813 636.512 456.989 636.855C459.87 635.107 462.08 632.333 463.122 629.032C460.427 630.652 457.441 631.83 454.264 632.461C451.718 629.718 448.094 628 444.081 628C436.379 628 430.132 634.33 430.132 642.141C430.132 643.246 430.257 644.32 430.491 645.358C418.892 644.766 408.617 639.137 401.735 630.585C400.537 632.679 399.848 635.107 399.848 637.692C399.848 642.596 402.313 646.927 406.053 649.46C403.765 649.385 401.615 648.75 399.734 647.691V647.873C399.734 654.722 404.541 660.437 410.926 661.735C409.752 662.057 408.521 662.227 407.251 662.227C406.353 662.227 405.475 662.142 404.625 661.978C406.401 667.592 411.552 671.683 417.658 671.792C412.881 675.585 406.865 677.846 400.33 677.846C399.204 677.846 398.093 677.779 397 677.649C403.175 681.663 410.507 684 418.383 684C444.048 684 458.079 662.461 458.079 643.78C458.079 643.173 458.064 642.56 458.037 641.953C460.762 639.956 463.128 637.471 464.994 634.64L465 634.631Z" fill="#1D9BF0"/>
<path d="M510.725 645.865C506.99 645.865 504.245 647.53 502.085 650.365L501.275 646.63H498.17V673H502.4V653.515C504.245 651.22 506.585 649.33 509.87 649.33C513.83 649.33 515.36 651.895 515.36 656.125V673H519.59V655.855C519.59 650.005 516.665 645.865 510.725 645.865ZM528.527 636.73V641.815H532.982V636.73H528.527ZM534.017 646.63H525.827V649.555L529.787 649.915V673H534.017V646.63ZM565.523 673L554.633 657.07L565.073 646.63H560.078L547.838 659.32V638.665H543.653V673H547.838V663.865L552.023 659.68L560.843 673H565.523ZM571.461 636.73V641.815H575.916V636.73H571.461ZM576.951 646.63H568.761V649.555L572.721 649.915V673H576.951V646.63ZM596.938 669.58C593.653 669.58 591.943 668.185 591.943 664.945V649.915H598.963V646.63H591.943V640.465H588.613L587.893 646.63H583.798V649.915H587.713V665.305C587.713 670.795 590.818 673.225 596.488 673.225C597.703 673.225 599.053 673.135 600.088 673V669.58H596.938ZM617.56 673.72C624.715 673.72 630.205 668.77 630.205 659.86C630.205 650.86 624.67 645.865 617.56 645.865C610.495 645.865 604.96 650.815 604.96 659.86C604.96 668.77 610.405 673.72 617.56 673.72ZM617.56 670.345C612.79 670.345 609.19 666.745 609.19 659.86C609.19 652.885 612.79 649.285 617.56 649.285C622.375 649.285 625.975 652.885 625.975 659.86C625.975 666.745 622.375 670.345 617.56 670.345ZM650.647 645.865C646.912 645.865 644.167 647.53 642.007 650.365L641.197 646.63H638.092V673H642.322V653.515C644.167 651.22 646.507 649.33 649.792 649.33C653.752 649.33 655.282 651.895 655.282 656.125V673H659.512V655.855C659.512 650.005 656.587 645.865 650.647 645.865ZM677.764 673.72C684.244 673.72 687.979 670.525 687.979 666.025C687.979 661.48 684.694 659.59 680.599 658.51L675.829 657.25C673.624 656.62 671.734 655.945 671.734 653.2C671.734 650.86 673.714 649.105 677.404 649.105C681.004 649.105 683.074 650.41 683.389 653.65H687.529C687.034 648.43 683.434 645.865 677.404 645.865C671.374 645.865 667.504 649.06 667.504 653.425C667.504 657.88 670.474 659.635 674.119 660.58L678.889 661.795C682.309 662.695 683.749 663.865 683.749 666.115C683.749 668.635 681.859 670.48 677.764 670.48C673.534 670.48 671.104 669.085 670.654 665.71H666.469C667.009 670.75 670.654 673.72 677.764 673.72ZM717.091 673L706.201 657.07L716.641 646.63H711.646L699.406 659.32V638.665H695.221V673H699.406V663.865L703.591 659.68L712.411 673H717.091ZM725.549 681.55C730.274 681.55 732.209 679.345 733.469 675.79L743.954 646.63H739.634L732.524 669.22L724.649 646.63H720.329L730.409 672.91L729.599 675.16C728.744 677.5 727.124 677.995 725.279 677.995H723.164V681.325C723.794 681.46 724.739 681.55 725.549 681.55Z" fill="#232B36"/>
<path fill-rule="evenodd" clip-rule="evenodd" d="M431 392C412.767 392 398 406.912 398 425.322C398 440.067 407.446 452.521 420.564 456.936C422.214 457.228 422.832 456.228 422.832 455.354C422.832 454.562 422.791 451.938 422.791 449.147C414.5 450.688 412.355 447.106 411.695 445.232C411.324 444.274 409.715 441.317 408.312 440.525C407.157 439.9 405.507 438.359 408.271 438.318C410.87 438.276 412.726 440.733 413.345 441.733C416.315 446.773 421.059 445.357 422.956 444.482C423.245 442.316 424.111 440.858 425.06 440.025C417.717 439.192 410.045 436.318 410.045 423.573C410.045 419.949 411.324 416.95 413.428 414.617C413.098 413.784 411.942 410.369 413.757 405.787C413.757 405.787 416.521 404.912 422.832 409.203C425.472 408.453 428.278 408.078 431.083 408.078C433.888 408.078 436.693 408.453 439.333 409.203C445.644 404.871 448.408 405.787 448.408 405.787C450.223 410.369 449.068 413.784 448.738 414.617C450.841 416.95 452.12 419.907 452.12 423.573C452.12 436.36 444.406 439.192 437.064 440.025C438.26 441.067 439.291 443.066 439.291 446.19C439.291 450.647 439.25 454.229 439.25 455.354C439.25 456.228 439.869 457.27 441.519 456.936C448.07 454.703 453.762 450.452 457.795 444.781C461.828 439.109 463.998 432.304 464 425.322C464 406.912 449.233 392 431 392Z" fill="black"/>
<path d="M506.772 413.865C503.217 413.865 500.607 415.395 498.447 417.96V406.665H494.217V441H498.447V421.515C500.292 419.22 502.632 417.33 505.917 417.33C509.877 417.33 511.407 419.895 511.407 424.125V441H515.637V423.855C515.637 418.005 512.712 413.865 506.772 413.865ZM541.674 434.16C539.874 436.32 537.489 438.255 534.294 438.255C530.784 438.255 528.939 436.185 528.939 431.55V414.63H524.709V431.73C524.709 437.625 527.634 441.72 533.394 441.72C537.084 441.72 539.784 440.055 542.034 437.22L542.799 441H545.904V414.63H541.674V434.16ZM583.421 413.865C579.686 413.865 577.031 415.845 574.826 418.635C573.566 415.71 571.091 413.865 567.401 413.865C563.981 413.865 561.506 415.53 559.391 418.32L558.626 414.63H555.521V441H559.751V421.335C561.506 419.175 563.666 417.33 566.636 417.33C570.146 417.33 571.541 419.805 571.541 424.125V441H575.771V423.855C575.771 423 575.726 422.235 575.591 421.47C577.391 419.31 579.551 417.33 582.656 417.33C586.211 417.33 587.561 419.85 587.561 424.125V441H591.791V423.855C591.791 418.05 589.046 413.865 583.421 413.865ZM613.691 413.865C610.271 413.865 607.571 415.035 605.366 417.51V406.665H601.136V441H604.241L604.871 437.985C606.896 440.235 609.506 441.72 613.106 441.72C620.216 441.72 625.301 436.23 625.301 427.455C625.301 419.22 620.621 413.865 613.691 413.865ZM612.791 438.345C609.641 438.345 607.211 436.86 605.366 434.925V420.75C607.301 418.905 609.776 417.285 613.106 417.285C617.741 417.285 621.026 420.57 621.026 427.455C621.026 435.24 617.201 438.345 612.791 438.345ZM641.947 437.49C639.112 437.49 637.177 436.275 637.177 432.9V406.665H632.947V433.53C632.902 439.2 636.592 441.225 641.182 441.225C642.397 441.225 643.252 441.135 644.422 441V437.49H641.947ZM672.274 427.455C672.274 418.59 667.774 413.865 660.619 413.865C653.734 413.865 648.424 418.68 648.424 427.77C648.424 436.77 653.059 441.72 660.574 441.72C666.289 441.72 670.339 438.75 671.959 433.71H667.819C666.469 436.725 664.084 438.39 660.574 438.39C655.849 438.39 653.014 435.42 652.744 428.67H672.274V427.455ZM652.744 425.925C653.149 420.525 655.804 417.105 660.619 417.105C665.344 417.105 667.819 420.255 668.089 425.925H652.744ZM696.844 434.16C695.044 436.32 692.659 438.255 689.464 438.255C685.954 438.255 684.109 436.185 684.109 431.55V414.63H679.879V431.73C679.879 437.625 682.804 441.72 688.564 441.72C692.254 441.72 694.954 440.055 697.204 437.22L697.969 441H701.074V414.63H696.844V434.16ZM710.286 404.73V409.815H714.741V404.73H710.286ZM715.776 414.63H707.586V417.555L711.546 417.915V441H715.776V414.63Z" fill="#232B36"/>
<path d="M506.772 529.865C503.217 529.865 500.607 531.395 498.447 533.96V522.665H494.217V557H498.447V537.515C500.292 535.22 502.632 533.33 505.917 533.33C509.877 533.33 511.407 535.895 511.407 540.125V557H515.637V539.855C515.637 534.005 512.712 529.865 506.772 529.865ZM541.674 550.16C539.874 552.32 537.489 554.255 534.294 554.255C530.784 554.255 528.939 552.185 528.939 547.55V530.63H524.709V547.73C524.709 553.625 527.634 557.72 533.394 557.72C537.084 557.72 539.784 556.055 542.034 553.22L542.799 557H545.904V530.63H541.674V550.16ZM583.421 529.865C579.686 529.865 577.031 531.845 574.826 534.635C573.566 531.71 571.091 529.865 567.401 529.865C563.981 529.865 561.506 531.53 559.391 534.32L558.626 530.63H555.521V557H559.751V537.335C561.506 535.175 563.666 533.33 566.636 533.33C570.146 533.33 571.541 535.805 571.541 540.125V557H575.771V539.855C575.771 539 575.726 538.235 575.591 537.47C577.391 535.31 579.551 533.33 582.656 533.33C586.211 533.33 587.561 535.85 587.561 540.125V557H591.791V539.855C591.791 534.05 589.046 529.865 583.421 529.865ZM613.691 529.865C610.271 529.865 607.571 531.035 605.366 533.51V522.665H601.136V557H604.241L604.871 553.985C606.896 556.235 609.506 557.72 613.106 557.72C620.216 557.72 625.301 552.23 625.301 543.455C625.301 535.22 620.621 529.865 613.691 529.865ZM612.791 554.345C609.641 554.345 607.211 552.86 605.366 550.925V536.75C607.301 534.905 609.776 533.285 613.106 533.285C617.741 533.285 621.026 536.57 621.026 543.455C621.026 551.24 617.201 554.345 612.791 554.345ZM641.947 553.49C639.112 553.49 637.177 552.275 637.177 548.9V522.665H632.947V549.53C632.902 555.2 636.592 557.225 641.182 557.225C642.397 557.225 643.252 557.135 644.422 557V553.49H641.947ZM672.274 543.455C672.274 534.59 667.774 529.865 660.619 529.865C653.734 529.865 648.424 534.68 648.424 543.77C648.424 552.77 653.059 557.72 660.574 557.72C666.289 557.72 670.339 554.75 671.959 549.71H667.819C666.469 552.725 664.084 554.39 660.574 554.39C655.849 554.39 653.014 551.42 652.744 544.67H672.274V543.455ZM652.744 541.925C653.149 536.525 655.804 533.105 660.619 533.105C665.344 533.105 667.819 536.255 668.089 541.925H652.744ZM696.844 550.16C695.044 552.32 692.659 554.255 689.464 554.255C685.954 554.255 684.109 552.185 684.109 547.55V530.63H679.879V547.73C679.879 553.625 682.804 557.72 688.564 557.72C692.254 557.72 694.954 556.055 697.204 553.22L697.969 557H701.074V530.63H696.844V550.16ZM710.286 520.73V525.815H714.741V520.73H710.286ZM715.776 530.63H707.586V533.555L711.546 533.915V557H715.776V530.63Z" fill="#232B36"/>
<path d="M433.204 515.816C433.204 512.052 436.256 509 440.02 509V509C443.785 509 446.837 512.052 446.837 515.816V532.898C446.837 536.663 443.785 539.714 440.02 539.714V539.714C436.256 539.714 433.204 536.663 433.204 532.898V515.816Z" fill="#2EB67D"/>
<path d="M450.245 532.898C450.245 529.134 453.297 526.082 457.061 526.082V526.082C460.826 526.082 463.878 529.134 463.878 532.898V532.898C463.878 536.663 460.826 539.715 457.061 539.715H450.245V532.898Z" fill="#2EB67D"/>
<path d="M405.816 539.715C402.052 539.715 399 536.663 399 532.898V532.898C399 529.134 402.052 526.082 405.816 526.082L422.898 526.082C426.663 526.082 429.714 529.134 429.714 532.898V532.898C429.714 536.663 426.663 539.715 422.898 539.715L405.816 539.715Z" fill="#36C5F0"/>
<path d="M422.898 522.674C419.133 522.674 416.082 519.622 416.082 515.857V515.857C416.082 512.093 419.133 509.041 422.898 509.041V509.041C426.663 509.041 429.714 512.093 429.714 515.857L429.714 522.674L422.898 522.674Z" fill="#36C5F0"/>
<path d="M457.142 543.163C460.907 543.163 463.959 546.215 463.959 549.979V549.979C463.959 553.744 460.907 556.796 457.142 556.796L440.061 556.796C436.296 556.796 433.244 553.744 433.244 549.979V549.979C433.244 546.215 436.296 543.163 440.061 543.163L457.142 543.163Z" fill="#ECB22E"/>
<path d="M440.061 560.204C443.825 560.204 446.877 563.256 446.877 567.021V567.021C446.877 570.785 443.825 573.837 440.061 573.837V573.837C436.296 573.837 433.244 570.785 433.244 567.021L433.244 560.204L440.061 560.204Z" fill="#ECB22E"/>
<path d="M429.714 567.021C429.714 570.785 426.663 573.837 422.898 573.837V573.837C419.133 573.837 416.082 570.785 416.082 567.021V549.939C416.082 546.174 419.133 543.123 422.898 543.123V543.123C426.663 543.123 429.714 546.174 429.714 549.939V567.021Z" fill="#E01E5A"/>
<path d="M412.673 549.939C412.673 553.704 409.622 556.756 405.857 556.756V556.756C402.092 556.756 399.041 553.704 399.041 549.939V549.939C399.041 546.175 402.092 543.123 405.857 543.123H412.673V549.939Z" fill="#E01E5A"/>
<path d="M1220.7 540.485C1220.7 529.325 1214 523.295 1205.13 523.295C1196.27 523.295 1189.56 529.325 1189.56 540.485C1189.56 550.835 1195.23 556.73 1203.06 557.585V558.89C1203.06 563.12 1205.31 565.595 1210.17 565.595C1211.34 565.595 1212.51 565.46 1213.32 565.37V562.13H1210.4C1208.1 562.13 1207.16 561.275 1207.16 559.115V557.63C1214.99 556.775 1220.7 550.88 1220.7 540.485ZM1193.97 540.485C1193.97 531.485 1198.79 527.03 1205.13 527.03C1211.52 527.03 1216.34 531.485 1216.34 540.485C1216.34 548.81 1212.56 553.31 1206.98 554.075V546.47H1203.24V554.075C1197.75 553.265 1193.97 548.81 1193.97 540.485ZM1245.41 550.16C1243.61 552.32 1241.22 554.255 1238.03 554.255C1234.52 554.255 1232.67 552.185 1232.67 547.55V530.63H1228.44V547.73C1228.44 553.625 1231.37 557.72 1237.13 557.72C1240.82 557.72 1243.52 556.055 1245.77 553.22L1246.53 557H1249.64V530.63H1245.41V550.16ZM1281.35 543.455C1281.35 534.59 1276.85 529.865 1269.69 529.865C1262.81 529.865 1257.5 534.68 1257.5 543.77C1257.5 552.77 1262.13 557.72 1269.65 557.72C1275.36 557.72 1279.41 554.75 1281.03 549.71H1276.89C1275.54 552.725 1273.16 554.39 1269.65 554.39C1264.92 554.39 1262.09 551.42 1261.82 544.67H1281.35V543.455ZM1261.82 541.925C1262.22 536.525 1264.88 533.105 1269.69 533.105C1274.42 533.105 1276.89 536.255 1277.16 541.925H1261.82ZM1298.14 557.72C1304.62 557.72 1308.35 554.525 1308.35 550.025C1308.35 545.48 1305.07 543.59 1300.97 542.51L1296.2 541.25C1294 540.62 1292.11 539.945 1292.11 537.2C1292.11 534.86 1294.09 533.105 1297.78 533.105C1301.38 533.105 1303.45 534.41 1303.76 537.65H1307.9C1307.41 532.43 1303.81 529.865 1297.78 529.865C1291.75 529.865 1287.88 533.06 1287.88 537.425C1287.88 541.88 1290.85 543.635 1294.49 544.58L1299.26 545.795C1302.68 546.695 1304.12 547.865 1304.12 550.115C1304.12 552.635 1302.23 554.48 1298.14 554.48C1293.91 554.48 1291.48 553.085 1291.03 549.71H1286.84C1287.38 554.75 1291.03 557.72 1298.14 557.72ZM1325.94 553.58C1322.66 553.58 1320.95 552.185 1320.95 548.945V533.915H1327.97V530.63H1320.95V524.465H1317.62L1316.9 530.63H1312.8V533.915H1316.72V549.305C1316.72 554.795 1319.82 557.225 1325.49 557.225C1326.71 557.225 1328.06 557.135 1329.09 557V553.58H1325.94ZM1335.8 520.73V525.815H1340.25V520.73H1335.8ZM1341.29 530.63H1333.1V533.555L1337.06 533.915V557H1341.29V530.63ZM1361.77 557.72C1368.92 557.72 1374.41 552.77 1374.41 543.86C1374.41 534.86 1368.88 529.865 1361.77 529.865C1354.7 529.865 1349.17 534.815 1349.17 543.86C1349.17 552.77 1354.61 557.72 1361.77 557.72ZM1361.77 554.345C1357 554.345 1353.4 550.745 1353.4 543.86C1353.4 536.885 1357 533.285 1361.77 533.285C1366.58 533.285 1370.18 536.885 1370.18 543.86C1370.18 550.745 1366.58 554.345 1361.77 554.345ZM1394.86 529.865C1391.12 529.865 1388.38 531.53 1386.22 534.365L1385.41 530.63H1382.3V557H1386.53V537.515C1388.38 535.22 1390.72 533.33 1394 533.33C1397.96 533.33 1399.49 535.895 1399.49 540.125V557H1403.72V539.855C1403.72 534.005 1400.8 529.865 1394.86 529.865ZM1421.97 557.72C1428.45 557.72 1432.19 554.525 1432.19 550.025C1432.19 545.48 1428.9 543.59 1424.81 542.51L1420.04 541.25C1417.83 540.62 1415.94 539.945 1415.94 537.2C1415.94 534.86 1417.92 533.105 1421.61 533.105C1425.21 533.105 1427.28 534.41 1427.6 537.65H1431.74C1431.24 532.43 1427.64 529.865 1421.61 529.865C1415.58 529.865 1411.71 533.06 1411.71 537.425C1411.71 541.88 1414.68 543.635 1418.33 544.58L1423.1 545.795C1426.52 546.695 1427.96 547.865 1427.96 550.115C1427.96 552.635 1426.07 554.48 1421.97 554.48C1417.74 554.48 1415.31 553.085 1414.86 549.71H1410.68C1411.22 554.75 1414.86 557.72 1421.97 557.72ZM1449.88 546.155L1452.27 543.41C1454.88 540.44 1457.67 537.29 1457.67 532.565C1457.67 527.03 1453.8 523.295 1447.45 523.295C1441.15 523.295 1436.88 527.075 1436.88 532.61H1441.15C1441.15 529.235 1443.4 526.895 1447.45 526.895C1451.05 526.895 1453.3 528.92 1453.3 532.565C1453.3 535.85 1451.32 538.595 1448.17 542.285L1444.8 546.155H1449.88ZM1450.38 557V551.555H1444.57V557H1450.38Z" fill="black"/>
</svg>
