<svg width="1920" height="1080" viewBox="0 0 1920 1080" fill="none" xmlns="http://www.w3.org/2000/svg">
<rect width="1920" height="1080" fill="white"/>
<path d="M601.4 705.3C582.2 705.3 562.55 702 542.45 695.4C522.65 688.5 504.5 677.85 488 663.45L532.1 610.35C543.2 618.75 555.05 625.65 567.65 631.05C580.25 636.15 593.3 638.7 606.8 638.7C618.5 638.7 626.75 637.05 631.55 633.75C636.65 630.45 639.2 626.4 639.2 621.6C639.2 617.4 638.15 613.95 636.05 611.25C634.25 608.25 631.55 605.7 627.95 603.6C624.35 601.2 619.85 598.95 614.45 596.85C609.35 594.75 603.5 592.35 596.9 589.65L560.45 574.35C552.05 571.35 544.1 567.45 536.6 562.65C529.1 557.55 522.5 551.7 516.8 545.1C511.4 538.2 507.05 530.4 503.75 521.7C500.45 513 498.8 503.4 498.8 492.9C498.8 480.3 501.5 468.6 506.9 457.8C512.3 446.7 519.8 437.1 529.4 429C539.3 420.6 551 414 564.5 409.2C578.3 404.4 593.6 402 610.4 402C627.8 402 645.2 405.15 662.6 411.45C680 417.75 695.9 427.65 710.3 441.15L671.6 489.75C661.1 482.85 650.9 477.6 641 474C631.4 470.4 619.7 468.6 605.9 468.6C597.2 468.6 590.15 470.25 584.75 473.55C579.65 476.55 577.1 481.5 577.1 488.4C577.1 491.7 578.15 494.7 580.25 497.4C582.35 499.8 585.35 502.05 589.25 504.15C593.15 506.25 597.95 508.35 603.65 510.45C609.35 512.55 615.8 514.95 623 517.65L656.75 531.6C676.55 538.8 691.7 548.85 702.2 561.75C713 574.65 718.4 591.3 718.4 611.7C718.4 624 715.85 635.85 710.75 647.25C705.65 658.65 698.15 668.7 688.25 677.4C678.35 685.8 666.05 692.55 651.35 697.65C636.95 702.75 620.3 705.3 601.4 705.3Z" fill="#292929"/>
<path d="M750.5 699.9V407.4H828.8V516.3H830.6L902.6 407.4H988.1L901.7 525.75L995.3 699.9H909.8L856.25 587.4L828.8 625.2V699.9H750.5Z" fill="#292929"/>
<path d="M1229.05 557.7L1224.55 577.95H1276.75L1272.25 557.7C1268.95 543.6 1265.35 528.45 1261.45 512.25C1257.85 495.75 1254.4 480 1251.1 465H1249.3C1246 480 1242.55 495.75 1238.95 512.25C1235.65 528.45 1232.35 543.6 1229.05 557.7ZM1117 699.9L1205.2 407.4H1298.8L1387 699.9H1305.1L1290.7 637.8H1210.6L1196.2 699.9H1117Z" fill="#292929"/>
<circle cx="1049.5" cy="349.5" r="48.5" fill="#292929"/>
<rect x="706" y="771" width="344" height="8" rx="4" fill="url(#paint0_linear_3_48)"/>
<rect x="1006" y="405" width="30" height="292" fill="#E94037"/>
<rect x="1036" y="405" width="30" height="292" fill="#70BF4F"/>
<rect x="1066" y="405" width="30" height="292" fill="#465BA6"/>
<path d="M1048.5 771L1005.5 711H1093.5L1048.5 771Z" fill="#292929"/>
<defs>
<linearGradient id="paint0_linear_3_48" x1="1050" y1="775" x2="706" y2="775" gradientUnits="userSpaceOnUse">
<stop stop-color="#5A5A5A"/>
<stop offset="1" stop-color="#C9C9C9"/>
</linearGradient>
</defs>
</svg>
