<svg width="1920" height="1080" viewBox="0 0 1920 1080" fill="none" xmlns="http://www.w3.org/2000/svg">
<rect width="1920" height="1080" fill="white"/>
<path d="M561.3 780.683C561.3 774.428 558.638 769.423 553.312 765.669C547.987 761.916 541.409 758.475 533.578 755.347C525.746 752.219 517.132 749.092 507.735 745.964C498.337 742.523 489.723 737.987 481.891 732.357C474.06 726.414 467.482 719.064 462.157 710.305C456.831 701.234 454.169 689.661 454.169 675.585C454.169 652.439 461.06 634.766 474.843 622.567C488.626 610.368 508.518 604.269 534.517 604.269C552.373 604.269 568.505 606.146 582.915 609.899C597.324 613.653 608.601 617.875 616.746 622.567L603.119 666.671C595.915 663.856 586.83 660.884 575.867 657.756C564.903 654.628 553.782 653.064 542.505 653.064C524.337 653.064 515.253 660.102 515.253 674.178C515.253 679.808 517.915 684.344 523.24 687.784C528.566 691.225 535.144 694.509 542.975 697.637C550.806 700.452 559.421 703.58 568.818 707.021C578.216 710.462 586.83 714.997 594.662 720.627C602.493 725.945 609.071 732.983 614.396 741.741C619.722 750.499 622.384 761.76 622.384 775.522C622.384 799.295 614.71 818.062 599.36 831.825C584.324 845.275 561.614 852 531.228 852C514.626 852 498.963 849.811 484.241 845.431C469.831 841.365 458.084 836.517 449 830.887L465.916 785.375C473.12 789.442 482.674 793.508 494.578 797.574C506.482 801.328 518.698 803.205 531.228 803.205C540.313 803.205 547.517 801.484 552.843 798.043C558.481 794.603 561.3 788.816 561.3 780.683Z" fill="black"/>
<path d="M739.795 748.31H723.349V845.431H662.265V517H723.349V710.775H733.275L791.011 610.838H858.203L792.01 715.232L867.131 845.431H797.119L739.795 748.31Z" fill="black"/>
<path d="M898.712 610.838H959.796V845.431H898.712V610.838Z" fill="black"/>
<path d="M1143.58 624.444C1156.11 618.814 1170.99 614.435 1188.22 611.307C1205.45 607.866 1223.46 606.146 1242.25 606.146C1258.54 606.146 1272.17 608.179 1283.13 612.245C1294.1 615.999 1302.71 621.472 1308.98 628.667C1315.55 635.861 1320.1 644.463 1322.6 654.472C1325.42 664.481 1326.83 675.742 1326.83 688.254C1326.83 702.016 1326.36 715.936 1325.42 730.011C1324.48 743.774 1323.86 757.381 1323.54 770.831C1323.54 784.281 1324.01 797.418 1324.95 810.242C1325.89 822.754 1328.24 834.64 1332 845.901H1282.19L1272.33 813.527H1269.98C1263.71 823.223 1254.94 831.669 1243.66 838.863C1232.7 845.744 1218.45 849.185 1200.9 849.185C1189.94 849.185 1180.07 847.621 1171.3 844.493C1162.53 841.052 1155.01 836.36 1148.75 830.417C1142.48 824.162 1137.63 816.967 1134.18 808.835C1130.74 800.389 1129.01 791.006 1129.01 780.683C1129.01 766.295 1132.15 754.253 1138.41 744.556C1144.99 734.547 1154.23 726.571 1166.13 720.627C1178.35 714.372 1192.76 710.149 1209.36 707.959C1226.28 705.457 1245.07 704.675 1265.75 705.613C1267.94 688.097 1266.69 675.585 1261.99 668.078C1257.29 660.259 1246.8 656.349 1230.51 656.349C1218.29 656.349 1205.29 657.6 1191.51 660.102C1178.04 662.605 1166.92 665.889 1158.15 669.955L1143.58 624.444ZM1221.11 798.982C1233.33 798.982 1243.04 796.323 1250.24 791.006C1257.45 785.375 1262.77 779.432 1266.22 773.176V742.679C1256.51 741.741 1247.11 741.585 1238.02 742.21C1229.25 742.836 1221.42 744.243 1214.53 746.433C1207.64 748.622 1202.16 751.75 1198.09 755.817C1194.01 759.883 1191.98 765.044 1191.98 771.3C1191.98 780.058 1194.48 786.939 1199.49 791.944C1204.82 796.636 1212.02 798.982 1221.11 798.982Z" fill="black"/>
<path d="M1023.75 834H1085V855.051C1085 883.432 1079.65 905.575 1068.34 920.545C1057.03 935.515 1038.97 943 1014.15 943C1004.73 943 994.68 941.908 984 939.725V888.734C986.09 888.734 988.072 889.202 990.125 889.202C1004.26 889.202 1013.37 884.68 1017.45 875.635C1021.85 866.591 1023.75 854.584 1023.75 838.678V834Z" fill="url(#paint0_linear_31_418)"/>
<path d="M1371.62 426.921L1165.63 220.932L1207.97 178.593C1215.78 170.783 1228.44 170.783 1236.25 178.593L1413.96 356.298C1421.77 364.108 1421.77 376.771 1413.96 384.582L1371.62 426.921Z" fill="#EA6C00"/>
<mask id="mask0_31_418" style="mask-type:alpha" maskUnits="userSpaceOnUse" x="967" y="360" width="266" height="265">
<path d="M1205.5 491.707C1227.27 514.035 1211.31 545.696 1232.08 566.461L1173.93 624.604L967.944 418.615L1026.09 360.473C1046.02 380.407 1078.67 365.715 1100.84 387.052C1123.91 409.246 1106.45 440.833 1129.08 463.467C1151.71 486.101 1183.15 468.789 1205.5 491.707Z" fill="#FEEEB7"/>
</mask>
<g mask="url(#mask0_31_418)">
<path d="M1026.09 476.757V360.473L1050.17 336.385L1256.16 542.374L1232.08 566.461L1115.79 566.461L1026.09 476.757Z" fill="#FEEEB7"/>
</g>
<path d="M1099.18 566.462H1026.09V493.369L1099.18 566.462Z" fill="black"/>
<mask id="mask1_31_418" style="mask-type:alpha" maskUnits="userSpaceOnUse" x="1034" y="229" width="330" height="330">
<path d="M1213.8 483.401C1235.57 505.728 1219.62 537.39 1240.38 558.155L1363.31 435.226L1157.32 229.237L1034.39 352.166C1054.33 372.101 1086.97 357.409 1109.15 378.746C1132.21 400.94 1114.75 432.527 1137.39 455.161C1160.02 477.795 1191.46 460.483 1213.8 483.401Z" fill="#EEEEEE"/>
</mask>
<g mask="url(#mask1_31_418)">
<rect x="1240.38" y="558.155" width="65.7802" height="173.848" transform="rotate(-135 1240.38 558.155)" fill="#FDAD00"/>
<rect x="1080.91" y="398.68" width="65.7802" height="173.848" transform="rotate(-135 1080.91 398.68)" fill="#FFBF1F"/>
<rect x="1185.56" y="503.336" width="136.259" height="173.848" transform="rotate(-135 1185.56 503.336)" fill="#FDD231"/>
</g>
<rect x="1024" y="611" width="61" height="223" fill="url(#paint1_linear_31_418)"/>
<ellipse cx="929" cy="541.5" rx="36" ry="36.5" fill="black"/>
<defs>
<linearGradient id="paint0_linear_31_418" x1="1023.73" y1="834" x2="965.081" y2="871.806" gradientUnits="userSpaceOnUse">
<stop/>
<stop offset="1" stop-color="white"/>
</linearGradient>
<linearGradient id="paint1_linear_31_418" x1="1054.5" y1="611" x2="1054.5" y2="834" gradientUnits="userSpaceOnUse">
<stop offset="0.211845"/>
<stop offset="1"/>
</linearGradient>
</defs>
</svg>
