<svg width="1920" height="1080" viewBox="0 0 1920 1080" fill="none" xmlns="http://www.w3.org/2000/svg">
<path d="M624 980.736C622.235 981.538 620.339 982.08 618.345 982.325C620.379 981.076 621.939 979.095 622.675 976.737C620.772 977.894 618.664 978.735 616.421 979.186C614.625 977.227 612.067 976 609.234 976C603.797 976 599.387 980.522 599.387 986.101C599.387 986.89 599.476 987.657 599.641 988.398C591.453 987.976 584.2 983.955 579.342 977.847C578.497 979.342 578.01 981.076 578.01 982.923C578.01 986.426 579.75 989.519 582.391 991.329C580.775 991.275 579.258 990.822 577.93 990.065V990.195C577.93 995.087 581.323 999.169 585.83 1000.1C585.001 1000.33 584.132 1000.45 583.236 1000.45C582.602 1000.45 581.983 1000.39 581.382 1000.27C582.636 1004.28 586.272 1007.2 590.582 1007.28C587.21 1009.99 582.963 1011.6 578.351 1011.6C577.556 1011.6 576.772 1011.56 576 1011.46C580.359 1014.33 585.534 1016 591.094 1016C609.211 1016 619.115 1000.61 619.115 987.271C619.115 986.838 619.104 986.4 619.085 985.966C621.009 984.54 622.679 982.765 623.996 980.743L624 980.736Z" fill="#1D9BF0"/>
<path d="M651.649 987.704C648.993 987.704 647.041 988.888 645.505 990.904L644.929 988.248H642.721V1007H645.729V993.144C647.041 991.512 648.705 990.168 651.041 990.168C653.857 990.168 654.945 991.992 654.945 995V1007H657.953V994.808C657.953 990.648 655.873 987.704 651.649 987.704ZM664.308 981.208V984.824H667.476V981.208H664.308ZM668.212 988.248H662.388V990.328L665.204 990.584V1007H668.212V988.248ZM690.617 1007L682.873 995.672L690.297 988.248H686.745L678.041 997.272V982.584H675.065V1007H678.041V1000.5L681.017 997.528L687.289 1007H690.617ZM694.839 981.208V984.824H698.007V981.208H694.839ZM698.743 988.248H692.919V990.328L695.735 990.584V1007H698.743V988.248ZM712.956 1004.57C710.62 1004.57 709.404 1003.58 709.404 1001.27V990.584H714.396V988.248H709.404V983.864H707.036L706.524 988.248H703.612V990.584H706.396V1001.53C706.396 1005.43 708.604 1007.16 712.636 1007.16C713.5 1007.16 714.46 1007.1 715.196 1007V1004.57H712.956ZM727.62 1007.51C732.708 1007.51 736.612 1003.99 736.612 997.656C736.612 991.256 732.676 987.704 727.62 987.704C722.596 987.704 718.66 991.224 718.66 997.656C718.66 1003.99 722.532 1007.51 727.62 1007.51ZM727.62 1005.11C724.228 1005.11 721.668 1002.55 721.668 997.656C721.668 992.696 724.228 990.136 727.62 990.136C731.044 990.136 733.604 992.696 733.604 997.656C733.604 1002.55 731.044 1005.11 727.62 1005.11ZM751.149 987.704C748.493 987.704 746.541 988.888 745.005 990.904L744.429 988.248H742.221V1007H745.229V993.144C746.541 991.512 748.205 990.168 750.541 990.168C753.357 990.168 754.445 991.992 754.445 995V1007H757.453V994.808C757.453 990.648 755.373 987.704 751.149 987.704ZM770.432 1007.51C775.04 1007.51 777.696 1005.24 777.696 1002.04C777.696 998.808 775.36 997.464 772.448 996.696L769.056 995.8C767.488 995.352 766.144 994.872 766.144 992.92C766.144 991.256 767.552 990.008 770.176 990.008C772.736 990.008 774.208 990.936 774.432 993.24H777.376C777.024 989.528 774.464 987.704 770.176 987.704C765.888 987.704 763.136 989.976 763.136 993.08C763.136 996.248 765.248 997.496 767.84 998.168L771.232 999.032C773.664 999.672 774.688 1000.5 774.688 1002.1C774.688 1003.9 773.344 1005.21 770.432 1005.21C767.424 1005.21 765.696 1004.22 765.376 1001.82H762.4C762.784 1005.4 765.376 1007.51 770.432 1007.51ZM798.398 1007L790.654 995.672L798.078 988.248H794.526L785.822 997.272V982.584H782.846V1007H785.822V1000.5L788.798 997.528L795.07 1007H798.398ZM804.412 1013.08C807.772 1013.08 809.148 1011.51 810.044 1008.98L817.5 988.248H814.428L809.372 1004.31L803.772 988.248H800.7L807.868 1006.94L807.292 1008.54C806.684 1010.2 805.532 1010.55 804.22 1010.55H802.716V1012.92C803.164 1013.02 803.836 1013.08 804.412 1013.08Z" fill="black"/>
<path fill-rule="evenodd" clip-rule="evenodd" d="M297 974C285.95 974 277 982.95 277 994C277 1002.85 282.725 1010.33 290.675 1012.98C291.675 1013.15 292.05 1012.55 292.05 1012.03C292.05 1011.55 292.025 1009.98 292.025 1008.3C287 1009.23 285.7 1007.07 285.3 1005.95C285.075 1005.37 284.1 1003.6 283.25 1003.12C282.55 1002.75 281.55 1001.82 283.225 1001.8C284.8 1001.77 285.925 1003.25 286.3 1003.85C288.1 1006.87 290.975 1006.03 292.125 1005.5C292.3 1004.2 292.825 1003.32 293.4 1002.82C288.95 1002.32 284.3 1000.6 284.3 992.95C284.3 990.775 285.075 988.975 286.35 987.575C286.15 987.075 285.45 985.025 286.55 982.275C286.55 982.275 288.225 981.75 292.05 984.325C293.65 983.875 295.35 983.65 297.05 983.65C298.75 983.65 300.45 983.875 302.05 984.325C305.875 981.725 307.55 982.275 307.55 982.275C308.65 985.025 307.95 987.075 307.75 987.575C309.025 988.975 309.8 990.75 309.8 992.95C309.8 1000.62 305.125 1002.32 300.675 1002.82C301.4 1003.45 302.025 1004.65 302.025 1006.53C302.025 1009.2 302 1011.35 302 1012.03C302 1012.55 302.375 1013.18 303.375 1012.98C307.345 1011.63 310.795 1009.08 313.24 1005.68C315.684 1002.28 316.999 998.191 317 994C317 982.95 308.05 974 297 974Z" fill="black"/>
<path d="M348.649 987.704C346.121 987.704 344.265 988.792 342.729 990.616V982.584H339.721V1007H342.729V993.144C344.041 991.512 345.705 990.168 348.041 990.168C350.857 990.168 351.945 991.992 351.945 995V1007H354.953V994.808C354.953 990.648 352.873 987.704 348.649 987.704ZM373.468 1002.14C372.188 1003.67 370.492 1005.05 368.22 1005.05C365.724 1005.05 364.412 1003.58 364.412 1000.28V988.248H361.404V1000.41C361.404 1004.6 363.484 1007.51 367.58 1007.51C370.204 1007.51 372.124 1006.33 373.724 1004.31L374.268 1007H376.476V988.248H373.468V1002.14ZM403.155 987.704C400.499 987.704 398.611 989.112 397.043 991.096C396.147 989.016 394.387 987.704 391.763 987.704C389.331 987.704 387.571 988.888 386.067 990.872L385.523 988.248H383.315V1007H386.323V993.016C387.571 991.48 389.107 990.168 391.219 990.168C393.715 990.168 394.707 991.928 394.707 995V1007H397.715V994.808C397.715 994.2 397.683 993.656 397.587 993.112C398.867 991.576 400.403 990.168 402.611 990.168C405.139 990.168 406.099 991.96 406.099 995V1007H409.107V994.808C409.107 990.68 407.155 987.704 403.155 987.704ZM424.68 987.704C422.248 987.704 420.328 988.536 418.76 990.296V982.584H415.752V1007H417.96L418.408 1004.86C419.848 1006.46 421.704 1007.51 424.264 1007.51C429.32 1007.51 432.936 1003.61 432.936 997.368C432.936 991.512 429.608 987.704 424.68 987.704ZM424.04 1005.11C421.8 1005.11 420.072 1004.06 418.76 1002.68V992.6C420.136 991.288 421.896 990.136 424.264 990.136C427.56 990.136 429.896 992.472 429.896 997.368C429.896 1002.9 427.176 1005.11 424.04 1005.11ZM444.773 1004.5C442.757 1004.5 441.381 1003.64 441.381 1001.24V982.584H438.373V1001.69C438.341 1005.72 440.965 1007.16 444.229 1007.16C445.093 1007.16 445.701 1007.1 446.533 1007V1004.5H444.773ZM466.339 997.368C466.339 991.064 463.139 987.704 458.051 987.704C453.155 987.704 449.379 991.128 449.379 997.592C449.379 1003.99 452.675 1007.51 458.019 1007.51C462.083 1007.51 464.963 1005.4 466.115 1001.82H463.171C462.211 1003.96 460.515 1005.14 458.019 1005.14C454.659 1005.14 452.643 1003.03 452.451 998.232H466.339V997.368ZM452.451 996.28C452.739 992.44 454.627 990.008 458.051 990.008C461.411 990.008 463.171 992.248 463.363 996.28H452.451ZM483.812 1002.14C482.532 1003.67 480.836 1005.05 478.564 1005.05C476.068 1005.05 474.756 1003.58 474.756 1000.28V988.248H471.748V1000.41C471.748 1004.6 473.828 1007.51 477.924 1007.51C480.548 1007.51 482.468 1006.33 484.068 1004.31L484.612 1007H486.82V988.248H483.812V1002.14ZM493.37 981.208V984.824H496.538V981.208H493.37ZM497.274 988.248H491.45V990.328L494.266 990.584V1007H497.274V988.248Z" fill="black"/>
<path d="M1363.13 1013.91H1389.81C1393.89 1013.91 1395.93 1011.88 1395.93 1007.85V984.004C1395.93 979.98 1393.89 977.949 1389.81 977.949H1363.13C1359.05 977.949 1357 979.961 1357 984.004V1007.85C1357 1011.89 1359.05 1013.91 1363.13 1013.91ZM1362.84 1010.76C1361.1 1010.76 1360.14 1009.84 1360.14 1008.03V989.609C1360.14 987.812 1361.1 986.875 1362.84 986.875H1390.07C1391.8 986.875 1392.78 987.812 1392.78 989.609V1008.03C1392.78 1009.84 1391.8 1010.76 1390.07 1010.76H1362.84Z" fill="#CC3333"/>
<path d="M1373.82 993.887H1372.66C1371.98 993.887 1371.75 993.691 1371.75 993.008V991.855C1371.75 991.172 1371.98 990.957 1372.66 990.957H1373.82C1374.5 990.957 1374.71 991.172 1374.71 991.855V993.008C1374.71 993.691 1374.5 993.887 1373.82 993.887Z" fill="black"/>
<path d="M1380.3 993.887H1379.15C1378.46 993.887 1378.23 993.691 1378.23 993.008V991.855C1378.23 991.172 1378.46 990.957 1379.15 990.957H1380.3C1380.98 990.957 1381.22 991.172 1381.22 991.855V993.008C1381.22 993.691 1380.98 993.887 1380.3 993.887Z" fill="black"/>
<path d="M1386.79 993.887H1385.63C1384.95 993.887 1384.73 993.691 1384.73 993.008V991.855C1384.73 991.172 1384.95 990.957 1385.63 990.957H1386.79C1387.47 990.957 1387.7 991.172 1387.7 991.855V993.008C1387.7 993.691 1387.47 993.887 1386.79 993.887Z" fill="black"/>
<path d="M1367.31 1000.27H1366.18C1365.48 1000.27 1365.26 1000.08 1365.26 999.395V998.242C1365.26 997.559 1365.48 997.363 1366.18 997.363H1367.31C1368.02 997.363 1368.23 997.559 1368.23 998.242V999.395C1368.23 1000.08 1368.02 1000.27 1367.31 1000.27Z" fill="black"/>
<path d="M1373.82 1000.27H1372.66C1371.98 1000.27 1371.75 1000.08 1371.75 999.395V998.242C1371.75 997.559 1371.98 997.363 1372.66 997.363H1373.82C1374.5 997.363 1374.71 997.559 1374.71 998.242V999.395C1374.71 1000.08 1374.5 1000.27 1373.82 1000.27Z" fill="black"/>
<path d="M1380.3 1000.27H1379.15C1378.46 1000.27 1378.23 1000.08 1378.23 999.395V998.242C1378.23 997.559 1378.46 997.363 1379.15 997.363H1380.3C1380.98 997.363 1381.22 997.559 1381.22 998.242V999.395C1381.22 1000.08 1380.98 1000.27 1380.3 1000.27Z" fill="black"/>
<path d="M1386.79 1000.27H1385.63C1384.95 1000.27 1384.73 1000.08 1384.73 999.395V998.242C1384.73 997.559 1384.95 997.363 1385.63 997.363H1386.79C1387.47 997.363 1387.7 997.559 1387.7 998.242V999.395C1387.7 1000.08 1387.47 1000.27 1386.79 1000.27Z" fill="black"/>
<path d="M1367.31 1006.68H1366.18C1365.48 1006.68 1365.26 1006.46 1365.26 1005.78V1004.63C1365.26 1003.95 1365.48 1003.75 1366.18 1003.75H1367.31C1368.02 1003.75 1368.23 1003.95 1368.23 1004.63V1005.78C1368.23 1006.46 1368.02 1006.68 1367.31 1006.68Z" fill="black"/>
<path d="M1373.82 1006.68H1372.66C1371.98 1006.68 1371.75 1006.46 1371.75 1005.78V1004.63C1371.75 1003.95 1371.98 1003.75 1372.66 1003.75H1373.82C1374.5 1003.75 1374.71 1003.95 1374.71 1004.63V1005.78C1374.71 1006.46 1374.5 1006.68 1373.82 1006.68Z" fill="black"/>
<path d="M1380.3 1006.68H1379.15C1378.46 1006.68 1378.23 1006.46 1378.23 1005.78V1004.63C1378.23 1003.95 1378.46 1003.75 1379.15 1003.75H1380.3C1380.98 1003.75 1381.22 1003.95 1381.22 1004.63V1005.78C1381.22 1006.46 1380.98 1006.68 1380.3 1006.68Z" fill="black"/>
<path d="M1426.36 1007.51C1431.45 1007.51 1435.35 1003.99 1435.35 997.656C1435.35 991.256 1431.41 987.704 1426.36 987.704C1421.33 987.704 1417.4 991.224 1417.4 997.656C1417.4 1003.99 1421.27 1007.51 1426.36 1007.51ZM1426.36 1005.11C1422.97 1005.11 1420.41 1002.55 1420.41 997.656C1420.41 992.696 1422.97 990.136 1426.36 990.136C1429.78 990.136 1432.34 992.696 1432.34 997.656C1432.34 1002.55 1429.78 1005.11 1426.36 1005.11ZM1448.45 1007.51C1452.42 1007.51 1455.49 1005.46 1456.35 1001.82H1453.34C1452.64 1003.99 1450.72 1005.11 1448.45 1005.11C1445.09 1005.11 1442.72 1002.62 1442.72 997.656C1442.72 992.76 1445.15 990.136 1448.54 990.136C1451.33 990.136 1452.58 991.416 1453.25 993.24H1456.26C1455.49 989.944 1453.02 987.704 1448.54 987.704C1443.3 987.704 1439.71 991.448 1439.71 997.656C1439.71 1003.96 1443.1 1007.51 1448.45 1007.51ZM1469.07 1004.57C1466.73 1004.57 1465.52 1003.58 1465.52 1001.27V990.584H1470.51V988.248H1465.52V983.864H1463.15L1462.64 988.248H1459.73V990.584H1462.51V1001.53C1462.51 1005.43 1464.72 1007.16 1468.75 1007.16C1469.61 1007.16 1470.57 1007.1 1471.31 1007V1004.57H1469.07ZM1483.73 1007.51C1488.82 1007.51 1492.73 1003.99 1492.73 997.656C1492.73 991.256 1488.79 987.704 1483.73 987.704C1478.71 987.704 1474.77 991.224 1474.77 997.656C1474.77 1003.99 1478.65 1007.51 1483.73 1007.51ZM1483.73 1005.11C1480.34 1005.11 1477.78 1002.55 1477.78 997.656C1477.78 992.696 1480.34 990.136 1483.73 990.136C1487.16 990.136 1489.72 992.696 1489.72 997.656C1489.72 1002.55 1487.16 1005.11 1483.73 1005.11ZM1507.26 987.704C1504.83 987.704 1502.91 988.536 1501.34 990.296V982.584H1498.33V1007H1500.54L1500.99 1004.86C1502.43 1006.46 1504.29 1007.51 1506.85 1007.51C1511.9 1007.51 1515.52 1003.61 1515.52 997.368C1515.52 991.512 1512.19 987.704 1507.26 987.704ZM1506.62 1005.11C1504.38 1005.11 1502.65 1004.06 1501.34 1002.68V992.6C1502.72 991.288 1504.48 990.136 1506.85 990.136C1510.14 990.136 1512.48 992.472 1512.48 997.368C1512.48 1002.9 1509.76 1005.11 1506.62 1005.11ZM1536.83 997.368C1536.83 991.064 1533.63 987.704 1528.54 987.704C1523.64 987.704 1519.87 991.128 1519.87 997.592C1519.87 1003.99 1523.16 1007.51 1528.51 1007.51C1532.57 1007.51 1535.45 1005.4 1536.6 1001.82H1533.66C1532.7 1003.96 1531 1005.14 1528.51 1005.14C1525.15 1005.14 1523.13 1003.03 1522.94 998.232H1536.83V997.368ZM1522.94 996.28C1523.23 992.44 1525.12 990.008 1528.54 990.008C1531.9 990.008 1533.66 992.248 1533.85 996.28H1522.94ZM1551.55 988.184C1549.21 988.184 1547.13 989.72 1545.98 991.992L1545.24 988.248H1540.22V990.328L1543.04 990.584V1007H1546.04V994.712C1547.2 992.184 1549.24 991.544 1551.48 991.544H1552.76V988.248C1552.48 988.216 1552.09 988.184 1551.55 988.184ZM1575.33 999.768C1577.76 997.848 1579.52 996.088 1579.52 993.24C1579.52 989.944 1576.87 987.704 1572.58 987.704C1568.1 987.704 1565.22 989.944 1564.87 993.784H1567.71C1568.1 991.352 1569.7 990.072 1572.58 990.072C1575.01 990.072 1576.48 991.192 1576.48 993.24C1576.48 995.32 1575.01 996.696 1572.96 998.36L1565.22 1004.6V1007H1579.94V1004.6H1569.12L1575.33 999.768ZM1593.21 1007.51C1598.29 1007.51 1602.36 1004.47 1602.36 997.56C1602.36 990.552 1598.29 987.704 1593.21 987.704C1588.12 987.704 1584.05 990.552 1584.05 997.56C1584.05 1004.47 1588.15 1007.51 1593.21 1007.51ZM1593.24 1005.14C1589.97 1005.14 1587.03 1002.9 1587.03 997.56C1587.03 992.088 1589.94 990.072 1593.21 990.072C1596.5 990.072 1599.41 992.152 1599.41 997.56C1599.41 1002.94 1596.44 1005.14 1593.24 1005.14ZM1616.8 999.768C1619.23 997.848 1620.99 996.088 1620.99 993.24C1620.99 989.944 1618.34 987.704 1614.05 987.704C1609.57 987.704 1606.69 989.944 1606.34 993.784H1609.18C1609.57 991.352 1611.17 990.072 1614.05 990.072C1616.48 990.072 1617.95 991.192 1617.95 993.24C1617.95 995.32 1616.48 996.696 1614.43 998.36L1606.69 1004.6V1007H1621.41V1004.6H1610.59L1616.8 999.768ZM1636.11 999.768C1638.54 997.848 1640.3 996.088 1640.3 993.24C1640.3 989.944 1637.65 987.704 1633.36 987.704C1628.88 987.704 1626 989.944 1625.65 993.784H1628.5C1628.88 991.352 1630.48 990.072 1633.36 990.072C1635.79 990.072 1637.26 991.192 1637.26 993.24C1637.26 995.32 1635.79 996.696 1633.74 998.36L1626 1004.6V1007H1640.72V1004.6H1629.9L1636.11 999.768Z" fill="black"/>
<path d="M974.508 989.976C973.132 988.6 971.372 987.704 969.004 987.704C963.948 987.704 960.332 991.608 960.332 997.848C960.332 1003.7 963.66 1007.51 968.588 1007.51C971.18 1007.51 973.164 1006.55 974.796 1004.6L975.308 1007H977.516V982.584H974.508V989.976ZM969.004 1005.08C965.708 1005.08 963.372 1002.74 963.372 997.848C963.372 992.312 966.092 990.104 969.228 990.104C971.468 990.104 973.164 991.16 974.508 992.536V1002.62C973.132 1003.93 971.372 1005.08 969.004 1005.08ZM996.234 1002.14C994.954 1003.67 993.258 1005.05 990.986 1005.05C988.49 1005.05 987.178 1003.58 987.178 1000.28V988.248H984.17V1000.41C984.17 1004.6 986.25 1007.51 990.345 1007.51C992.97 1007.51 994.89 1006.33 996.49 1004.31L997.034 1007H999.242V988.248H996.234V1002.14ZM1013.44 1004.57C1011.1 1004.57 1009.89 1003.58 1009.89 1001.27V990.584H1014.88V988.248H1009.89V983.864H1007.52L1007.01 988.248H1004.1V990.584H1006.88V1001.53C1006.88 1005.43 1009.09 1007.16 1013.12 1007.16C1013.98 1007.16 1014.94 1007.1 1015.68 1007V1004.57H1013.44ZM1027.88 1007.51C1031.85 1007.51 1034.92 1005.46 1035.78 1001.82H1032.78C1032.07 1003.99 1030.15 1005.11 1027.88 1005.11C1024.52 1005.11 1022.15 1002.62 1022.15 997.656C1022.15 992.76 1024.58 990.136 1027.98 990.136C1030.76 990.136 1032.01 991.416 1032.68 993.24H1035.69C1034.92 989.944 1032.46 987.704 1027.98 987.704C1022.73 987.704 1019.14 991.448 1019.14 997.656C1019.14 1003.96 1022.54 1007.51 1027.88 1007.51ZM1050.07 987.704C1047.54 987.704 1045.69 988.792 1044.15 990.616V982.584H1041.14V1007H1044.15V993.144C1045.46 991.512 1047.13 990.168 1049.46 990.168C1052.28 990.168 1053.37 991.992 1053.37 995V1007H1056.37V994.808C1056.37 990.648 1054.29 987.704 1050.07 987.704ZM1079.97 1007.51C1083.94 1007.51 1087.01 1005.46 1087.88 1001.82H1084.87C1084.17 1003.99 1082.25 1005.11 1079.97 1005.11C1076.61 1005.11 1074.25 1002.62 1074.25 997.656C1074.25 992.76 1076.68 990.136 1080.07 990.136C1082.85 990.136 1084.1 991.416 1084.77 993.24H1087.78C1087.01 989.944 1084.55 987.704 1080.07 987.704C1074.82 987.704 1071.24 991.448 1071.24 997.656C1071.24 1003.96 1074.63 1007.51 1079.97 1007.51ZM1099.48 1004.5C1097.46 1004.5 1096.08 1003.64 1096.08 1001.24V982.584H1093.08V1001.69C1093.04 1005.72 1095.67 1007.16 1098.93 1007.16C1099.8 1007.16 1100.4 1007.1 1101.24 1007V1004.5H1099.48ZM1113.04 1007.51C1118.13 1007.51 1122.03 1003.99 1122.03 997.656C1122.03 991.256 1118.1 987.704 1113.04 987.704C1108.02 987.704 1104.08 991.224 1104.08 997.656C1104.08 1003.99 1107.95 1007.51 1113.04 1007.51ZM1113.04 1005.11C1109.65 1005.11 1107.09 1002.55 1107.09 997.656C1107.09 992.696 1109.65 990.136 1113.04 990.136C1116.47 990.136 1119.03 992.696 1119.03 997.656C1119.03 1002.55 1116.47 1005.11 1113.04 1005.11ZM1127.35 981.208V984.824H1130.52V981.208H1127.35ZM1131.26 988.248H1125.43V990.328L1128.25 990.584V1008.06C1128.25 1009.98 1127.45 1010.62 1126.04 1010.62H1125.05V1012.92C1125.43 1013.02 1125.91 1013.08 1126.55 1013.08C1130.17 1013.08 1131.26 1011.03 1131.26 1007.99V988.248ZM1149.98 1002.14C1148.7 1003.67 1147.01 1005.05 1144.74 1005.05C1142.24 1005.05 1140.93 1003.58 1140.93 1000.28V988.248H1137.92V1000.41C1137.92 1004.6 1140 1007.51 1144.1 1007.51C1146.72 1007.51 1148.64 1006.33 1150.24 1004.31L1150.78 1007H1152.99V988.248H1149.98V1002.14ZM1168.95 988.184C1166.61 988.184 1164.53 989.72 1163.38 991.992L1162.65 988.248H1157.62V990.328L1160.44 990.584V1007H1163.45V994.712C1164.6 992.184 1166.65 991.544 1168.89 991.544H1170.17V988.248C1169.88 988.216 1169.49 988.184 1168.95 988.184ZM1189.7 997.368C1189.7 991.064 1186.5 987.704 1181.41 987.704C1176.51 987.704 1172.74 991.128 1172.74 997.592C1172.74 1003.99 1176.03 1007.51 1181.38 1007.51C1185.44 1007.51 1188.32 1005.4 1189.47 1001.82H1186.53C1185.57 1003.96 1183.87 1005.14 1181.38 1005.14C1178.02 1005.14 1176 1003.03 1175.81 998.232H1189.7V997.368ZM1175.81 996.28C1176.1 992.44 1177.99 990.008 1181.41 990.008C1184.77 990.008 1186.53 992.248 1186.72 996.28H1175.81ZM1217.7 989.976C1216.32 988.6 1214.56 987.704 1212.19 987.704C1207.14 987.704 1203.52 991.608 1203.52 997.848C1203.52 1003.7 1206.85 1007.51 1211.78 1007.51C1214.37 1007.51 1216.35 1006.55 1217.98 1004.6L1218.5 1007H1220.7V982.584H1217.7V989.976ZM1212.19 1005.08C1208.9 1005.08 1206.56 1002.74 1206.56 997.848C1206.56 992.312 1209.28 990.104 1212.42 990.104C1214.66 990.104 1216.35 991.16 1217.7 992.536V1002.62C1216.32 1003.93 1214.56 1005.08 1212.19 1005.08ZM1242.62 1004.73C1241.6 1004.73 1241.28 1004.09 1241.28 1002.9V993.944C1241.28 990.104 1238.97 987.704 1234.3 987.704C1230.24 987.704 1227.13 989.848 1226.91 993.24H1229.85C1230.08 991.16 1231.84 989.976 1234.3 989.976C1236.96 989.976 1238.27 991.352 1238.27 993.784V995.992L1234.62 996.024C1228.16 996.088 1226.14 998.84 1226.14 1002.2C1226.14 1005.43 1228.54 1007.51 1232.32 1007.51C1235.07 1007.51 1237.18 1006.42 1238.56 1004.98C1238.91 1006.23 1240 1007.16 1241.73 1007.16C1242.17 1007.16 1242.62 1007.13 1242.97 1007V1004.73H1242.62ZM1229.15 1002.14C1229.15 999.896 1230.49 997.976 1235.07 997.976H1238.27V1002.97L1238.3 1003.13C1236.83 1004.28 1235.04 1005.27 1232.77 1005.27C1230.56 1005.27 1229.15 1004.09 1229.15 1002.14ZM1249.3 1013.08C1252.66 1013.08 1254.04 1011.51 1254.94 1008.98L1262.39 988.248H1259.32L1254.26 1004.31L1248.66 988.248H1245.59L1252.76 1006.94L1252.18 1008.54C1251.58 1010.2 1250.42 1010.55 1249.11 1010.55H1247.61V1012.92C1248.06 1013.02 1248.73 1013.08 1249.3 1013.08ZM1272.85 1007.51C1277.46 1007.51 1280.12 1005.24 1280.12 1002.04C1280.12 998.808 1277.78 997.464 1274.87 996.696L1271.48 995.8C1269.91 995.352 1268.57 994.872 1268.57 992.92C1268.57 991.256 1269.97 990.008 1272.6 990.008C1275.16 990.008 1276.63 990.936 1276.85 993.24H1279.8C1279.45 989.528 1276.89 987.704 1272.6 987.704C1268.31 987.704 1265.56 989.976 1265.56 993.08C1265.56 996.248 1267.67 997.496 1270.26 998.168L1273.65 999.032C1276.09 999.672 1277.11 1000.5 1277.11 1002.1C1277.11 1003.9 1275.77 1005.21 1272.85 1005.21C1269.85 1005.21 1268.12 1004.22 1267.8 1001.82H1264.82C1265.21 1005.4 1267.8 1007.51 1272.85 1007.51Z" fill="black"/>
<path d="M916.5 1018C928.926 1018 939 1007.93 939 995.5C939 983.074 928.926 973 916.5 973C904.074 973 894 983.074 894 995.5C894 1007.93 904.074 1018 916.5 1018Z" fill="#FF6B12" stroke="white" stroke-width="1.75318"/>
<path fill-rule="evenodd" clip-rule="evenodd" d="M918.944 1012.09V1007.48C918.944 1006.13 917.844 1005.03 916.487 1005.03C915.131 1005.03 914.031 1006.13 914.031 1007.48V1012.09H907.948C908.598 1008.16 909.066 1005.21 909.352 1003.24C909.665 1001.1 910.095 997.875 910.642 993.579C910.756 990.449 913.33 987.946 916.487 987.946C919.415 987.946 921.841 990.098 922.269 992.906C922.858 997.466 923.319 1000.89 923.653 1003.17C923.943 1005.15 924.417 1008.12 925.075 1012.09H918.944Z" stroke="white" stroke-width="1.75468"/>
<path d="M916.413 975.959C918.533 982.116 918.605 988.256 916.609 992.693" stroke="white" stroke-width="1.75468"/>
<path d="M902.246 1001.27C906.518 996.355 911.8 993.223 916.64 992.733" stroke="white" stroke-width="1.75468"/>
<path d="M931.259 1000.84C924.867 999.595 919.513 996.586 916.669 992.639" stroke="white" stroke-width="1.75468"/>
<path d="M821.134 518.88V502.5H808.894V518.88H792.694V530.76H808.894V547.14H821.134V530.76H837.334V518.88H821.134Z" fill="#212B37"/>
<path d="M1141.69 508.8V520.68H1186.33V508.8H1141.69ZM1141.69 529.05V540.93H1186.33V529.05H1141.69Z" fill="#212B37"/>
<path d="M1332 496.168C1332 496.168 1344.67 474 1371.11 474C1391.61 474 1411 490.407 1411 512.897C1411 554.605 1357.52 562.117 1332 600C1306.48 562.117 1253 554.605 1253 512.897C1253 490.407 1272.39 474 1292.89 474C1319.33 474 1332 496.168 1332 496.168Z" fill="#CC3333"/>
<path d="M593.062 468.968L554.677 462.273L604.856 433.661L661.029 437.186L701.925 460.455L729.659 517.333L708.976 589.253L679.204 586.354L664.698 572.294L686.346 540.158L683.444 512.262L664.698 484.813L636.356 474.324L608.46 480.573L593.062 468.968Z" fill="#2D62D2"/>
<path d="M676.776 587.138L700.28 595.834L654.918 622.863L589.714 619.102L551.974 589.478L530.575 524.983L554.677 463.389L589.714 467.887L601.765 477.5L580.118 518.288L583.019 546.184L601.765 573.633L630.107 584.122L661.351 573.633L676.776 587.138Z" fill="#59B502"/>
<path d="M635.463 474.77L609.13 480.572L665.814 571.848L686.792 541.051L684.114 510.923L665.814 484.813L635.463 474.77Z" fill="#4581FF"/>
<path d="M631 583.676L663.359 573.633L606.228 479.457L577.886 512.039L582.349 547.523L600.649 573.633L631 583.676Z" fill="#6AD305"/>
<path fill-rule="evenodd" clip-rule="evenodd" d="M576.14 471.348C569.482 472.363 561.408 476.546 551.717 486.236L543.11 477.629C553.809 466.93 564.128 460.866 574.305 459.314C584.677 457.732 593.902 460.984 601.94 466.849C604.108 468.431 606.207 470.213 608.241 472.161C615.266 469.305 622.949 467.731 631 467.731C664.389 467.731 691.457 494.799 691.457 528.189C691.457 545.813 683.916 561.676 671.885 572.726C672.802 573.808 673.72 574.829 674.641 575.786C680.229 581.59 685.269 584.358 689.997 584.653C694.583 584.939 700.437 582.981 707.922 575.749L716.38 584.503C707.496 593.088 698.473 597.377 689.24 596.802C680.148 596.235 672.426 591.035 665.872 584.228C664.603 582.91 663.354 581.507 662.124 580.031C653.032 585.501 642.383 588.647 631 588.647C597.61 588.647 570.542 561.579 570.542 528.189C570.542 507.474 580.96 489.192 596.843 478.297C596.153 477.728 595.46 477.19 594.766 476.683C588.653 472.222 582.602 470.362 576.14 471.348ZM582.714 528.189C582.714 510.86 591.844 495.662 605.555 487.144C608.073 490.166 610.574 493.551 613.068 497.248C616.74 502.69 620.307 508.666 623.831 514.932L598.128 563.558C588.646 554.741 582.714 542.158 582.714 528.189ZM608.113 570.716C614.924 574.389 622.718 576.474 631 576.474C639.663 576.474 647.794 574.192 654.824 570.197C652.318 566.469 649.882 562.507 647.5 558.424C643.073 550.836 638.69 542.569 634.33 534.349C633.16 532.141 631.991 529.937 630.824 527.751L608.113 570.716ZM658.015 552.291C660.219 556.069 662.402 559.619 664.579 562.886C673.647 554.108 679.285 541.807 679.285 528.189C679.285 501.522 657.667 479.904 631 479.904C626.137 479.904 621.442 480.623 617.015 481.96C619.132 484.659 621.177 487.503 623.159 490.44C629.518 499.865 635.47 510.625 641.18 521.302C642.52 523.81 643.846 526.31 645.161 528.79L645.162 528.791L645.165 528.796L645.166 528.798C649.501 536.973 653.725 544.937 658.015 552.291Z" fill="white"/>
<path fill-rule="evenodd" clip-rule="evenodd" d="M576.14 471.348C569.482 472.363 561.408 476.546 551.717 486.236L543.11 477.629C553.809 466.93 564.128 460.866 574.305 459.314C584.677 457.732 593.902 460.984 601.94 466.849C604.108 468.431 606.207 470.213 608.241 472.161C615.266 469.305 622.949 467.731 631 467.731C664.389 467.731 691.457 494.799 691.457 528.189C691.457 545.813 683.916 561.676 671.885 572.726C672.802 573.808 673.72 574.829 674.641 575.786C680.229 581.59 685.269 584.358 689.997 584.653C694.583 584.939 700.437 582.981 707.922 575.749L716.38 584.503C707.496 593.088 698.473 597.377 689.24 596.802C680.148 596.235 672.426 591.035 665.872 584.228C664.603 582.91 663.354 581.507 662.124 580.031C653.032 585.501 642.383 588.647 631 588.647C597.61 588.647 570.542 561.579 570.542 528.189C570.542 507.474 580.96 489.192 596.843 478.297C596.153 477.728 595.46 477.19 594.766 476.683C588.653 472.222 582.602 470.362 576.14 471.348ZM582.714 528.189C582.714 510.86 591.844 495.662 605.555 487.144C608.073 490.166 610.574 493.551 613.068 497.248C616.74 502.69 620.307 508.666 623.831 514.932L598.128 563.558C588.646 554.741 582.714 542.158 582.714 528.189ZM608.113 570.716C614.924 574.389 622.718 576.474 631 576.474C639.663 576.474 647.794 574.192 654.824 570.197C652.318 566.469 649.882 562.507 647.5 558.424C643.073 550.836 638.69 542.569 634.33 534.349C633.16 532.141 631.991 529.937 630.824 527.751L608.113 570.716ZM658.015 552.291C660.219 556.069 662.402 559.619 664.579 562.886C673.647 554.108 679.285 541.807 679.285 528.189C679.285 501.522 657.667 479.904 631 479.904C626.137 479.904 621.442 480.623 617.015 481.96C619.132 484.659 621.177 487.503 623.159 490.44C629.518 499.865 635.47 510.625 641.18 521.302C642.52 523.81 643.846 526.31 645.161 528.79L645.162 528.791L645.165 528.796L645.166 528.798C649.501 536.973 653.725 544.937 658.015 552.291Z" fill="white"/>
<path fill-rule="evenodd" clip-rule="evenodd" d="M576.14 471.348C569.482 472.363 561.408 476.546 551.717 486.236L543.11 477.629C553.809 466.93 564.128 460.866 574.305 459.314C584.677 457.732 593.902 460.984 601.94 466.849C604.108 468.431 606.207 470.213 608.241 472.161C615.266 469.305 622.949 467.731 631 467.731C664.389 467.731 691.457 494.799 691.457 528.189C691.457 545.813 683.916 561.676 671.885 572.726C672.802 573.808 673.72 574.829 674.641 575.786C680.229 581.59 685.269 584.358 689.997 584.653C694.583 584.939 700.437 582.981 707.922 575.749L716.38 584.503C707.496 593.088 698.473 597.377 689.24 596.802C680.148 596.235 672.426 591.035 665.872 584.228C664.603 582.91 663.354 581.507 662.124 580.031C653.032 585.501 642.383 588.647 631 588.647C597.61 588.647 570.542 561.579 570.542 528.189C570.542 507.474 580.96 489.192 596.843 478.297C596.153 477.728 595.46 477.19 594.766 476.683C588.653 472.222 582.602 470.362 576.14 471.348ZM582.714 528.189C582.714 510.86 591.844 495.662 605.555 487.144C608.073 490.166 610.574 493.551 613.068 497.248C616.74 502.69 620.307 508.666 623.831 514.932L598.128 563.558C588.646 554.741 582.714 542.158 582.714 528.189ZM608.113 570.716C614.924 574.389 622.718 576.474 631 576.474C639.663 576.474 647.794 574.192 654.824 570.197C652.318 566.469 649.882 562.507 647.5 558.424C643.073 550.836 638.69 542.569 634.33 534.349C633.16 532.141 631.991 529.937 630.824 527.751L608.113 570.716ZM658.015 552.291C660.219 556.069 662.402 559.619 664.579 562.886C673.647 554.108 679.285 541.807 679.285 528.189C679.285 501.522 657.667 479.904 631 479.904C626.137 479.904 621.442 480.623 617.015 481.96C619.132 484.659 621.177 487.503 623.159 490.44C629.518 499.865 635.47 510.625 641.18 521.302C642.52 523.81 643.846 526.31 645.161 528.79L645.162 528.791L645.165 528.796L645.166 528.798C649.501 536.973 653.725 544.937 658.015 552.291Z" fill="white"/>
<path fill-rule="evenodd" clip-rule="evenodd" d="M631 632C687.885 632 734 585.885 734 529C734 472.115 687.885 426 631 426C574.115 426 528 472.115 528 529C528 585.885 574.115 632 631 632ZM631 618.267C680.301 618.267 720.267 578.301 720.267 529C720.267 479.699 680.301 439.733 631 439.733C581.699 439.733 541.733 479.699 541.733 529C541.733 578.301 581.699 618.267 631 618.267Z" fill="white"/>
<ellipse cx="989.701" cy="438.421" rx="77.4443" ry="47.7089" transform="rotate(-68.9199 989.701 438.421)" fill="url(#paint0_linear_1_3)"/>
<ellipse cx="938.165" cy="453.571" rx="81.4118" ry="48.9291" transform="rotate(-135 938.165 453.571)" fill="url(#paint1_linear_1_3)"/>
<path d="M917.328 559.887L904.147 579.1L906.473 584.697L931.283 589.348L917.328 559.887Z" fill="#020007"/>
<path d="M1032.52 591.656C1057.22 582.289 1070.81 555.742 1063.98 530.227C1057.14 504.713 1032.09 488.519 1006.02 492.757L960.864 500.097C928.096 505.423 907.104 537.893 915.696 569.959C924.288 602.026 958.703 619.649 989.744 607.878L1032.52 591.656Z" fill="url(#paint2_linear_1_3)"/>
<path d="M1033.71 591.189C1033.31 591.349 1032.92 591.504 1032.52 591.655L1020.48 596.222C997.718 566.312 981.942 534.052 969.433 498.704L983.04 496.492C995.504 531.191 1011.15 562.387 1033.71 591.189Z" fill="black"/>
<path d="M945.867 504.74C949.906 502.833 954.24 501.382 958.819 500.467C966.173 535.752 977.359 571.322 991.963 607.036L989.744 607.877C986.148 609.241 982.506 610.21 978.864 610.808C964.463 575.384 953.316 539.98 945.867 504.74Z" fill="black"/>
<path d="M971.543 611.517C965.106 611.712 958.767 610.783 952.779 608.861C948.295 602.48 944.168 596.082 940.374 589.569C930.61 572.808 923.114 555.399 917.369 535.694C919.633 529.701 922.906 524.136 927.025 519.252C932.852 543.467 940.932 563.601 952.086 582.747C957.72 592.418 964.161 601.877 971.543 611.517Z" fill="black"/>
<path fill-rule="evenodd" clip-rule="evenodd" d="M1025.32 538.857C1021.92 535.271 1018.1 530.41 1013.85 524.692L1019.29 520.649C1023.53 526.346 1027.13 530.924 1030.23 534.193C1033.47 537.604 1035.65 539.021 1036.97 539.314C1037.46 539.422 1037.71 539.353 1037.94 539.225C1038.26 539.05 1038.82 538.588 1039.5 537.42C1040.91 535.014 1042.27 530.662 1043.47 523.649L1050.15 524.793C1048.92 531.934 1047.41 537.319 1045.35 540.843C1044.3 542.64 1042.97 544.191 1041.23 545.154C1039.4 546.165 1037.43 546.358 1035.5 545.93C1031.99 545.151 1028.58 542.3 1025.32 538.857Z" fill="black"/>
<defs>
<linearGradient id="paint0_linear_1_3" x1="1066.91" y1="437.297" x2="918.24" y2="439.991" gradientUnits="userSpaceOnUse">
<stop stop-color="#00D1FF" stop-opacity="0.4"/>
<stop offset="1" stop-color="#00D1FF" stop-opacity="0"/>
</linearGradient>
<linearGradient id="paint1_linear_1_3" x1="1019.32" y1="452.417" x2="863.046" y2="455.321" gradientUnits="userSpaceOnUse">
<stop stop-color="#00D1FF" stop-opacity="0.4"/>
<stop offset="1" stop-color="#00D1FF" stop-opacity="0"/>
</linearGradient>
<linearGradient id="paint2_linear_1_3" x1="996.411" y1="538.953" x2="1009.59" y2="598.652" gradientUnits="userSpaceOnUse">
<stop stop-color="#FFDB2B"/>
<stop offset="1" stop-color="#C9A900"/>
</linearGradient>
</defs>
</svg>
