<svg width="1920" height="1080" viewBox="0 0 1920 1080" fill="none" xmlns="http://www.w3.org/2000/svg">
<rect width="1920" height="1080" fill="white"/>
<rect x="96" y="731" width="830" height="100" fill="#C0C0C0"/>
<path d="M446.383 812.235C442.762 812.235 439.057 811.612 435.267 810.368C431.534 809.067 428.111 807.059 425 804.343L433.315 794.331C435.408 795.915 437.643 797.216 440.019 798.234C442.395 799.196 444.855 799.676 447.401 799.676C449.607 799.676 451.163 799.365 452.068 798.743C453.029 798.121 453.51 797.357 453.51 796.452C453.51 795.66 453.312 795.01 452.916 794.5C452.577 793.935 452.068 793.454 451.389 793.058C450.71 792.605 449.862 792.181 448.843 791.785C447.882 791.389 446.779 790.937 445.534 790.428L438.661 787.543C437.077 786.977 435.578 786.242 434.164 785.337C432.75 784.375 431.505 783.272 430.431 782.027C429.412 780.726 428.592 779.255 427.97 777.615C427.348 775.975 427.036 774.164 427.036 772.184C427.036 769.809 427.546 767.602 428.564 765.566C429.582 763.473 430.996 761.663 432.806 760.136C434.673 758.552 436.879 757.307 439.425 756.402C442.027 755.497 444.912 755.044 448.08 755.044C451.361 755.044 454.642 755.638 457.922 756.826C461.203 758.014 464.202 759.881 466.917 762.427L459.62 771.591C457.64 770.289 455.716 769.3 453.85 768.621C452.039 767.942 449.833 767.602 447.231 767.602C445.591 767.602 444.261 767.914 443.243 768.536C442.281 769.102 441.801 770.035 441.801 771.336C441.801 771.958 441.999 772.524 442.395 773.033C442.791 773.486 443.356 773.91 444.092 774.306C444.827 774.702 445.732 775.098 446.807 775.494C447.882 775.89 449.098 776.342 450.456 776.851L456.819 779.482C460.553 780.839 463.41 782.734 465.389 785.167C467.426 787.599 468.444 790.739 468.444 794.585C468.444 796.905 467.963 799.139 467.002 801.289C466.04 803.438 464.626 805.333 462.759 806.974C460.892 808.558 458.573 809.83 455.801 810.792C453.086 811.754 449.946 812.235 446.383 812.235Z" fill="#292929"/>
<path d="M474.497 811.216V756.063H489.261V776.597H489.6L503.177 756.063H519.299L503.007 778.379L520.656 811.216H504.534L494.437 790.003L489.261 797.131V811.216H474.497Z" fill="#292929"/>
<path d="M564.732 784.403L563.883 788.221H573.726L572.878 784.403C572.255 781.744 571.577 778.888 570.841 775.833C570.162 772.722 569.512 769.752 568.89 766.924H568.55C567.928 769.752 567.278 772.722 566.599 775.833C565.976 778.888 565.354 781.744 564.732 784.403ZM543.604 811.216L560.235 756.063H577.884L594.515 811.216H579.072L576.357 799.507H561.253L558.538 811.216H543.604Z" fill="#292929"/>
<circle cx="530.876" cy="745.145" r="9.14513" fill="#292929"/>
<rect x="466.106" y="824.623" width="64.8644" height="1.50848" rx="0.754238" fill="url(#paint0_linear_412_97)"/>
<rect x="522.674" y="755.61" width="5.65678" height="55.0593" fill="#E94037"/>
<rect x="528.331" y="755.61" width="5.65678" height="55.0593" fill="#70BF4F"/>
<rect x="533.987" y="755.61" width="5.65678" height="55.0593" fill="#465BA6"/>
<path d="M530.688 824.623L522.58 813.309H539.173L530.688 824.623Z" fill="#292929"/>
<rect x="96" y="881" width="250" height="100" fill="#B0B0B0"/>
<path d="M145.489 917.68V947H154.769C164.129 947 169.129 942.16 169.129 932.24C169.129 922.44 164.129 917.68 154.569 917.68H145.489ZM154.809 920.92C161.649 920.92 165.169 924.32 165.169 932.24C165.169 940.2 161.649 943.76 155.009 943.76H149.369V920.92H154.809ZM175.838 914.76V919.28H179.798V914.76H175.838ZM180.718 923.56H173.438V926.16L176.958 926.48V947H180.718V923.56ZM200.684 923.48C197.764 923.48 195.164 925.4 193.724 928.24L192.804 923.56H186.524V926.16L190.044 926.48V947H193.804V931.64C195.244 928.48 197.804 927.68 200.604 927.68H202.204V923.56C201.844 923.52 201.364 923.48 200.684 923.48ZM226.619 934.96C226.619 927.08 222.619 922.88 216.259 922.88C210.139 922.88 205.419 927.16 205.419 935.24C205.419 943.24 209.539 947.64 216.219 947.64C221.299 947.64 224.899 945 226.339 940.52H222.659C221.459 943.2 219.339 944.68 216.219 944.68C212.019 944.68 209.499 942.04 209.259 936.04H226.619V934.96ZM209.259 933.6C209.619 928.8 211.979 925.76 216.259 925.76C220.459 925.76 222.659 928.56 222.899 933.6H209.259ZM242.98 947.64C247.94 947.64 251.78 945.08 252.86 940.52H249.1C248.22 943.24 245.82 944.64 242.98 944.64C238.78 944.64 235.82 941.52 235.82 935.32C235.82 929.2 238.86 925.92 243.1 925.92C246.58 925.92 248.14 927.52 248.98 929.8H252.74C251.78 925.68 248.7 922.88 243.1 922.88C236.54 922.88 232.06 927.56 232.06 935.32C232.06 943.2 236.3 947.64 242.98 947.64ZM268.757 943.96C265.837 943.96 264.317 942.72 264.317 939.84V926.48H270.557V923.56H264.317V918.08H261.357L260.717 923.56H257.077V926.48H260.557V940.16C260.557 945.04 263.317 947.2 268.357 947.2C269.437 947.2 270.637 947.12 271.557 947V943.96H268.757ZM298.358 917.68H294.038L287.078 929.48L280.078 917.68H275.798L284.798 931.8L274.998 947H279.318L287.078 934.44L294.838 947H299.158L289.398 931.8L298.358 917.68Z" fill="white"/>
<rect x="386" y="881" width="250" height="100" fill="#B0B0B0"/>
<path d="M441.683 947.64C433.803 947.64 427.843 942.32 427.843 932.32C427.843 922.4 433.803 917.04 441.683 917.04C449.563 917.04 455.523 922.4 455.523 932.32C455.523 942.32 449.563 947.64 441.683 947.64ZM441.683 944.32C447.363 944.32 451.563 940.36 451.563 932.32C451.563 924.32 447.363 920.36 441.683 920.36C436.043 920.36 431.803 924.32 431.803 932.32C431.803 940.36 436.043 944.32 441.683 944.32ZM473.763 922.88C479.923 922.88 484.083 927.64 484.083 934.96C484.083 942.76 479.563 947.64 473.243 947.64C470.323 947.64 468.123 946.52 466.403 944.8V954.4H462.643V923.56H465.403L466.003 926.52C468.043 924.04 470.563 922.88 473.763 922.88ZM472.963 944.64C476.883 944.64 480.283 941.88 480.283 934.96C480.283 928.84 477.363 925.92 473.243 925.92C470.323 925.92 468.163 927.32 466.403 929V941.64C468.083 943.32 470.203 944.64 472.963 944.64ZM510.721 934.96V936.04H493.361C493.601 942.04 496.121 944.68 500.321 944.68C503.441 944.68 505.561 943.2 506.761 940.52H510.441C509.001 945 505.401 947.64 500.321 947.64C493.641 947.64 489.521 943.24 489.521 935.24C489.521 927.16 494.241 922.88 500.361 922.88C506.721 922.88 510.721 927.08 510.721 934.96ZM493.361 933.6H507.001C506.761 928.56 504.561 925.76 500.361 925.76C496.081 925.76 493.721 928.8 493.361 933.6ZM528.881 922.88C534.161 922.88 536.761 926.56 536.761 931.76V947H533.001V932C533.001 928.24 531.641 925.96 528.121 925.96C525.201 925.96 523.121 927.64 521.481 929.68V947H517.721V923.56H520.481L521.201 926.88C523.121 924.36 525.561 922.88 528.881 922.88ZM557.545 934.28V931.52H569.385V947H566.665L565.945 943.16C564.145 945.72 561.225 947.64 556.745 947.64C549.025 947.64 543.585 942.4 543.585 932.28C543.585 923.04 548.945 917.04 557.305 917.04C563.385 917.04 567.945 920.16 568.825 925.64H564.945C564.345 922.6 561.705 920.36 557.305 920.36C551.465 920.36 547.545 924.76 547.545 932.28C547.545 940.36 551.145 944.36 557.065 944.36C561.225 944.36 563.705 942.24 565.545 939.88V934.68L557.545 934.28ZM595.422 947H576.622V917.68H580.502V943.6H595.422V947Z" fill="white"/>
<rect x="676" y="881" width="250" height="100" fill="#B0B0B0"/>
<path d="M747.118 947H743.438V917.68H749.158L758.078 942.52L767.078 917.68H772.758V947H769.078V922L759.838 947H756.358L747.118 922V947ZM800.701 934.96V936.04H783.341C783.581 942.04 786.101 944.68 790.301 944.68C793.421 944.68 795.541 943.2 796.741 940.52H800.421C798.981 945 795.381 947.64 790.301 947.64C783.621 947.64 779.501 943.24 779.501 935.24C779.501 927.16 784.221 922.88 790.341 922.88C796.701 922.88 800.701 927.08 800.701 934.96ZM783.341 933.6H796.981C796.741 928.56 794.541 925.76 790.341 925.76C786.061 925.76 783.701 928.8 783.341 933.6ZM816.902 943.96H819.702V947C818.782 947.12 817.582 947.2 816.502 947.2C811.462 947.2 808.702 945.04 808.702 940.16V926.48H805.222V923.56H808.862L809.502 918.08H812.462V923.56H818.702V926.48H812.462V939.84C812.462 942.72 813.982 943.96 816.902 943.96ZM844.862 944.16H845.302V947C844.862 947.16 844.302 947.2 843.742 947.2C841.582 947.2 840.222 946.04 839.782 944.48C838.062 946.28 835.422 947.64 831.982 947.64C827.262 947.64 824.262 945.04 824.262 941C824.262 936.8 826.782 933.36 834.862 933.28L839.422 933.24V930.48C839.422 927.44 837.782 925.72 834.462 925.72C831.382 925.72 829.182 927.2 828.902 929.8H825.222C825.502 925.56 829.382 922.88 834.462 922.88C840.302 922.88 843.182 925.88 843.182 930.68V941.88C843.182 943.36 843.582 944.16 844.862 944.16ZM828.022 940.92C828.022 943.36 829.782 944.84 832.542 944.84C835.382 944.84 837.622 943.6 839.462 942.16L839.422 941.96V935.72H835.422C829.702 935.72 828.022 938.12 828.022 940.92ZM859.564 943.88H861.764V947C860.724 947.12 859.964 947.2 858.884 947.2C854.804 947.2 851.524 945.4 851.564 940.36V916.48H855.324V939.8C855.324 942.8 857.044 943.88 859.564 943.88Z" fill="white"/>
<path d="M1109.76 536.28V533.52H1121.6V549H1118.88L1118.16 545.16C1116.36 547.72 1113.44 549.64 1108.96 549.64C1101.24 549.64 1095.8 544.4 1095.8 534.28C1095.8 525.04 1101.16 519.04 1109.52 519.04C1115.6 519.04 1120.16 522.16 1121.04 527.64H1117.16C1116.56 524.6 1113.92 522.36 1109.52 522.36C1103.68 522.36 1099.76 526.76 1099.76 534.28C1099.76 542.36 1103.36 546.36 1109.28 546.36C1113.44 546.36 1115.92 544.24 1117.76 541.88V536.68L1109.76 536.28ZM1140.48 525.48C1141.16 525.48 1141.64 525.52 1142 525.56V529.68H1140.4C1137.6 529.68 1135.04 530.48 1133.6 533.64V549H1129.84V528.48L1126.32 528.16V525.56H1132.6L1133.52 530.24C1134.96 527.4 1137.56 525.48 1140.48 525.48ZM1165.42 546.16H1165.86V549C1165.42 549.16 1164.86 549.2 1164.3 549.2C1162.14 549.2 1160.78 548.04 1160.34 546.48C1158.62 548.28 1155.98 549.64 1152.54 549.64C1147.82 549.64 1144.82 547.04 1144.82 543C1144.82 538.8 1147.34 535.36 1155.42 535.28L1159.98 535.24V532.48C1159.98 529.44 1158.34 527.72 1155.02 527.72C1151.94 527.72 1149.74 529.2 1149.46 531.8H1145.78C1146.06 527.56 1149.94 524.88 1155.02 524.88C1160.86 524.88 1163.74 527.88 1163.74 532.68V543.88C1163.74 545.36 1164.14 546.16 1165.42 546.16ZM1148.58 542.92C1148.58 545.36 1150.34 546.84 1153.1 546.84C1155.94 546.84 1158.18 545.6 1160.02 544.16L1159.98 543.96V537.72H1155.98C1150.26 537.72 1148.58 540.12 1148.58 542.92ZM1183.44 524.88C1189.6 524.88 1193.76 529.64 1193.76 536.96C1193.76 544.76 1189.24 549.64 1182.92 549.64C1180 549.64 1177.8 548.52 1176.08 546.8V556.4H1172.32V525.56H1175.08L1175.68 528.52C1177.72 526.04 1180.24 524.88 1183.44 524.88ZM1182.64 546.64C1186.56 546.64 1189.96 543.88 1189.96 536.96C1189.96 530.84 1187.04 527.92 1182.92 527.92C1180 527.92 1177.84 529.32 1176.08 531V543.64C1177.76 545.32 1179.88 546.64 1182.64 546.64ZM1211.92 524.88C1217.2 524.88 1219.8 528.56 1219.8 533.76V549H1216.04V534C1216.04 530.24 1214.68 527.96 1211.16 527.96C1208.24 527.96 1206.16 529.64 1204.52 531.68V549H1200.76V518.48H1204.52V528.52C1206.44 526.24 1208.76 524.88 1211.92 524.88ZM1227.74 516.76H1231.7V521.28H1227.74V516.76ZM1232.62 525.56V549H1228.86V528.48L1225.34 528.16V525.56H1232.62ZM1250.55 549.64C1243.87 549.64 1239.63 545.2 1239.63 537.32C1239.63 529.56 1244.11 524.88 1250.67 524.88C1256.27 524.88 1259.35 527.68 1260.31 531.8H1256.55C1255.71 529.52 1254.15 527.92 1250.67 527.92C1246.43 527.92 1243.39 531.2 1243.39 537.32C1243.39 543.52 1246.35 546.64 1250.55 546.64C1253.39 546.64 1255.79 545.24 1256.67 542.52H1260.43C1259.35 547.08 1255.51 549.64 1250.55 549.64ZM1275.04 549.64C1268.72 549.64 1265.48 547 1265 542.52H1268.72C1269.12 545.52 1271.28 546.76 1275.04 546.76C1278.68 546.76 1280.36 545.12 1280.36 542.88C1280.36 540.88 1279.08 539.84 1276.04 539.04L1271.8 537.96C1268.56 537.12 1265.92 535.56 1265.92 531.6C1265.92 527.72 1269.36 524.88 1274.72 524.88C1280.08 524.88 1283.28 527.16 1283.72 531.8H1280.04C1279.76 528.92 1277.92 527.76 1274.72 527.76C1271.44 527.76 1269.68 529.32 1269.68 531.4C1269.68 533.84 1271.36 534.44 1273.32 535L1277.56 536.12C1281.2 537.08 1284.12 538.76 1284.12 542.8C1284.12 546.8 1280.8 549.64 1275.04 549.64ZM1310.2 545.88H1312.4V549C1311.36 549.12 1310.6 549.2 1309.52 549.2C1305.44 549.2 1302.16 547.4 1302.2 542.36V518.48H1305.96V541.8C1305.96 544.8 1307.68 545.88 1310.2 545.88ZM1317.15 516.76H1321.11V521.28H1317.15V516.76ZM1322.03 525.56V549H1318.27V528.48L1314.75 528.16V525.56H1322.03ZM1341.76 524.88C1347.92 524.88 1352.08 529.64 1352.08 536.96C1352.08 544.76 1347.56 549.64 1341.24 549.64C1338.04 549.64 1335.72 548.32 1333.92 546.32L1333.36 549H1330.6V518.48H1334.36V528.12C1336.32 525.92 1338.72 524.88 1341.76 524.88ZM1340.96 546.64C1344.88 546.64 1348.28 543.88 1348.28 536.96C1348.28 530.84 1345.36 527.92 1341.24 527.92C1338.28 527.92 1336.08 529.36 1334.36 531V543.6C1336 545.32 1338.16 546.64 1340.96 546.64ZM1370.48 525.48C1371.16 525.48 1371.64 525.52 1372 525.56V529.68H1370.4C1367.6 529.68 1365.04 530.48 1363.6 533.64V549H1359.84V528.48L1356.32 528.16V525.56H1362.6L1363.52 530.24C1364.96 527.4 1367.56 525.48 1370.48 525.48ZM1395.42 546.16H1395.86V549C1395.42 549.16 1394.86 549.2 1394.3 549.2C1392.14 549.2 1390.78 548.04 1390.34 546.48C1388.62 548.28 1385.98 549.64 1382.54 549.64C1377.82 549.64 1374.82 547.04 1374.82 543C1374.82 538.8 1377.34 535.36 1385.42 535.28L1389.98 535.24V532.48C1389.98 529.44 1388.34 527.72 1385.02 527.72C1381.94 527.72 1379.74 529.2 1379.46 531.8H1375.78C1376.06 527.56 1379.94 524.88 1385.02 524.88C1390.86 524.88 1393.74 527.88 1393.74 532.68V543.88C1393.74 545.36 1394.14 546.16 1395.42 546.16ZM1378.58 542.92C1378.58 545.36 1380.34 546.84 1383.1 546.84C1385.94 546.84 1388.18 545.6 1390.02 544.16L1389.98 543.96V537.72H1385.98C1380.26 537.72 1378.58 540.12 1378.58 542.92ZM1413.72 525.48C1414.4 525.48 1414.88 525.52 1415.24 525.56V529.68H1413.64C1410.84 529.68 1408.28 530.48 1406.84 533.64V549H1403.08V528.48L1399.56 528.16V525.56H1405.84L1406.76 530.24C1408.2 527.4 1410.8 525.48 1413.72 525.48ZM1422.95 556.6C1422.23 556.6 1421.39 556.52 1420.83 556.4V553.44H1422.71C1424.35 553.44 1425.79 553 1426.55 550.92L1427.27 548.92L1418.31 525.56H1422.15L1429.15 545.64L1435.47 525.56H1439.31L1429.99 551.48C1428.87 554.64 1427.15 556.6 1422.95 556.6ZM1109.76 591.28V588.52H1121.6V604H1118.88L1118.16 600.16C1116.36 602.72 1113.44 604.64 1108.96 604.64C1101.24 604.64 1095.8 599.4 1095.8 589.28C1095.8 580.04 1101.16 574.04 1109.52 574.04C1115.6 574.04 1120.16 577.16 1121.04 582.64H1117.16C1116.56 579.6 1113.92 577.36 1109.52 577.36C1103.68 577.36 1099.76 581.76 1099.76 589.28C1099.76 597.36 1103.36 601.36 1109.28 601.36C1113.44 601.36 1115.92 599.24 1117.76 596.88V591.68L1109.76 591.28ZM1138.72 604.64C1132.36 604.64 1127.52 600.24 1127.52 592.32C1127.52 584.28 1132.44 579.88 1138.72 579.88C1145.04 579.88 1149.96 584.32 1149.96 592.32C1149.96 600.24 1145.08 604.64 1138.72 604.64ZM1138.72 601.64C1143 601.64 1146.2 598.44 1146.2 592.32C1146.2 586.12 1143 582.92 1138.72 582.92C1134.48 582.92 1131.28 586.12 1131.28 592.32C1131.28 598.44 1134.48 601.64 1138.72 601.64ZM1166.61 604.64C1160.25 604.64 1155.41 600.24 1155.41 592.32C1155.41 584.28 1160.33 579.88 1166.61 579.88C1172.93 579.88 1177.85 584.32 1177.85 592.32C1177.85 600.24 1172.97 604.64 1166.61 604.64ZM1166.61 601.64C1170.89 601.64 1174.09 598.44 1174.09 592.32C1174.09 586.12 1170.89 582.92 1166.61 582.92C1162.37 582.92 1159.17 586.12 1159.17 592.32C1159.17 598.44 1162.37 601.64 1166.61 601.64ZM1201.02 582.72V573.48H1204.78V604H1202.02L1201.38 601C1199.34 603.44 1196.86 604.64 1193.62 604.64C1187.46 604.64 1183.3 599.88 1183.3 592.56C1183.3 584.76 1187.82 579.88 1194.14 579.88C1197.1 579.88 1199.3 581 1201.02 582.72ZM1194.14 601.6C1197.1 601.6 1199.3 600.16 1201.02 598.52V585.92C1199.34 584.2 1197.22 582.88 1194.42 582.88C1190.5 582.88 1187.1 585.64 1187.1 592.56C1187.1 598.68 1190.02 601.6 1194.14 601.6ZM1244.81 591.96V593.04H1227.45C1227.69 599.04 1230.21 601.68 1234.41 601.68C1237.53 601.68 1239.65 600.2 1240.85 597.52H1244.53C1243.09 602 1239.49 604.64 1234.41 604.64C1227.73 604.64 1223.61 600.24 1223.61 592.24C1223.61 584.16 1228.33 579.88 1234.45 579.88C1240.81 579.88 1244.81 584.08 1244.81 591.96ZM1227.45 590.6H1241.09C1240.85 585.56 1238.65 582.76 1234.45 582.76C1230.17 582.76 1227.81 585.8 1227.45 590.6ZM1262.97 579.88C1268.25 579.88 1270.85 583.56 1270.85 588.76V604H1267.09V589C1267.09 585.24 1265.73 582.96 1262.21 582.96C1259.29 582.96 1257.21 584.64 1255.57 586.68V604H1251.81V580.56H1254.57L1255.29 583.88C1257.21 581.36 1259.65 579.88 1262.97 579.88ZM1288.8 604.64C1282.44 604.64 1277.6 600.24 1277.6 592.32C1277.6 584.28 1282.52 579.88 1288.8 579.88C1295.12 579.88 1300.04 584.32 1300.04 592.32C1300.04 600.24 1295.16 604.64 1288.8 604.64ZM1288.8 601.64C1293.08 601.64 1296.28 598.44 1296.28 592.32C1296.28 586.12 1293.08 582.92 1288.8 582.92C1284.56 582.92 1281.36 586.12 1281.36 592.32C1281.36 598.44 1284.56 601.64 1288.8 601.64ZM1321.89 597.92V580.56H1325.65V604H1322.89L1322.21 600.64C1320.21 603.16 1317.81 604.64 1314.53 604.64C1309.41 604.64 1306.81 601 1306.81 595.76V580.56H1310.57V595.6C1310.57 599.72 1312.21 601.56 1315.33 601.56C1318.17 601.56 1320.29 599.84 1321.89 597.92ZM1350.35 583.2L1350.91 580.56H1353.71V602.84C1353.71 608.92 1349.51 612.12 1343.43 612.12C1337.39 612.12 1333.95 609.28 1333.47 605.8H1337.23C1337.59 607.72 1339.75 609.2 1343.43 609.2C1347.31 609.2 1349.95 607.4 1349.95 602.84V598.96C1347.91 601.2 1345.51 602.24 1342.67 602.24C1336.39 602.24 1332.63 597.4 1332.63 591.32C1332.63 584.76 1336.87 579.88 1342.99 579.88C1345.95 579.88 1348.35 581.04 1350.35 583.2ZM1343.11 599.2C1346.03 599.2 1348.23 597.84 1349.95 596V586.04C1348.27 584.12 1346.19 582.88 1343.47 582.88C1339.59 582.88 1336.43 585.72 1336.43 591.32C1336.43 596.28 1339.19 599.2 1343.11 599.2ZM1373.4 579.88C1378.68 579.88 1381.28 583.56 1381.28 588.76V604H1377.52V589C1377.52 585.24 1376.16 582.96 1372.64 582.96C1369.72 582.96 1367.64 584.64 1366 586.68V604H1362.24V573.48H1366V583.52C1367.92 581.24 1370.24 579.88 1373.4 579.88ZM1414.42 575.8H1409.94C1407.3 575.8 1405.66 576.76 1405.66 579.64V580.56L1413.26 581.08V583.48H1405.82V604H1402.06V583.48H1398.38V580.56H1402.06V579.48C1402.06 574.88 1404.7 572.92 1409.78 572.92C1410.94 572.92 1413.06 573 1414.42 573.12V575.8ZM1428.6 604.64C1422.24 604.64 1417.4 600.24 1417.4 592.32C1417.4 584.28 1422.32 579.88 1428.6 579.88C1434.92 579.88 1439.84 584.32 1439.84 592.32C1439.84 600.24 1434.96 604.64 1428.6 604.64ZM1428.6 601.64C1432.88 601.64 1436.08 598.44 1436.08 592.32C1436.08 586.12 1432.88 582.92 1428.6 582.92C1424.36 582.92 1421.16 586.12 1421.16 592.32C1421.16 598.44 1424.36 601.64 1428.6 601.64ZM1458.25 580.48C1458.93 580.48 1459.41 580.52 1459.77 580.56V584.68H1458.17C1455.37 584.68 1452.81 585.48 1451.37 588.64V604H1447.61V583.48L1444.09 583.16V580.56H1450.37L1451.29 585.24C1452.73 582.4 1455.33 580.48 1458.25 580.48ZM1488.42 604.64C1480.54 604.64 1475.02 599.24 1475.02 589.28C1475.02 579.52 1480.82 574.04 1488.62 574.04C1495.18 574.04 1499.46 577.6 1500.38 582.64H1496.42C1495.82 579.68 1493.1 577.36 1488.62 577.36C1482.98 577.36 1478.98 581.4 1478.98 589.28C1478.98 597.32 1482.94 601.32 1488.38 601.32C1493.14 601.32 1495.82 598.72 1496.66 594.92H1500.62C1499.78 600.4 1495.38 604.64 1488.42 604.64ZM1518.44 579.88C1523.72 579.88 1526.32 583.56 1526.32 588.76V604H1522.56V589C1522.56 585.24 1521.2 582.96 1517.68 582.96C1514.76 582.96 1512.68 584.64 1511.04 586.68V604H1507.28V573.48H1511.04V583.52C1512.96 581.24 1515.28 579.88 1518.44 579.88ZM1546.02 580.48C1546.7 580.48 1547.18 580.52 1547.54 580.56V584.68H1545.94C1543.14 584.68 1540.58 585.48 1539.14 588.64V604H1535.38V583.48L1531.86 583.16V580.56H1538.14L1539.06 585.24C1540.5 582.4 1543.1 580.48 1546.02 580.48ZM1561.96 604.64C1555.6 604.64 1550.76 600.24 1550.76 592.32C1550.76 584.28 1555.68 579.88 1561.96 579.88C1568.28 579.88 1573.2 584.32 1573.2 592.32C1573.2 600.24 1568.32 604.64 1561.96 604.64ZM1561.96 601.64C1566.24 601.64 1569.44 598.44 1569.44 592.32C1569.44 586.12 1566.24 582.92 1561.96 582.92C1557.72 582.92 1554.52 586.12 1554.52 592.32C1554.52 598.44 1557.72 601.64 1561.96 601.64ZM1605.01 579.88C1610.01 579.88 1612.45 583.6 1612.45 588.76V604H1608.69V589C1608.69 585.2 1607.49 582.96 1604.33 582.96C1601.57 582.96 1599.65 584.72 1598.05 586.64C1598.17 587.32 1598.21 588 1598.21 588.76V604H1594.45V589C1594.45 585.16 1593.21 582.96 1590.09 582.96C1587.45 582.96 1585.53 584.6 1583.97 586.52V604H1580.21V580.56H1582.97L1583.65 583.84C1585.53 581.36 1587.73 579.88 1590.77 579.88C1594.05 579.88 1596.25 581.52 1597.37 584.12C1599.33 581.64 1601.69 579.88 1605.01 579.88ZM1640.4 591.96V593.04H1623.04C1623.28 599.04 1625.8 601.68 1630 601.68C1633.12 601.68 1635.24 600.2 1636.44 597.52H1640.12C1638.68 602 1635.08 604.64 1630 604.64C1623.32 604.64 1619.2 600.24 1619.2 592.24C1619.2 584.16 1623.92 579.88 1630.04 579.88C1636.4 579.88 1640.4 584.08 1640.4 591.96ZM1623.04 590.6H1636.68C1636.44 585.56 1634.24 582.76 1630.04 582.76C1625.76 582.76 1623.4 585.8 1623.04 590.6ZM1115.36 653.96L1119.76 659H1115.52L1113.16 656.32C1110.8 658.4 1107.96 659.64 1104.88 659.64C1099.2 659.64 1095.48 656.52 1095.48 651.4C1095.48 647.52 1097.64 645.12 1101.28 642.84C1099.08 640.36 1097.76 638.84 1097.76 635.68C1097.76 631.68 1100.96 629.04 1105.56 629.04C1109.8 629.04 1112.84 631.52 1112.84 635.44C1112.84 639.4 1110.12 641.44 1106.2 643.56L1113.2 651.52C1114.56 649.64 1115.6 647.32 1116.28 644.64H1119.6C1118.8 648.2 1117.32 651.44 1115.36 653.96ZM1105.56 631.92C1102.8 631.92 1101.36 633.52 1101.36 635.68C1101.36 638.32 1102.72 639.6 1104.12 641.16L1104.16 641.2C1107.84 639.16 1109.36 638 1109.36 635.44C1109.36 633.4 1107.96 631.92 1105.56 631.92ZM1104.88 656.44C1107.12 656.44 1109.24 655.56 1111.08 653.96L1103.28 645.12C1100.28 646.96 1099.24 648.6 1099.24 651.4C1099.24 654.52 1101.4 656.44 1104.88 656.44ZM1160.36 659H1156.12L1153.28 650.8H1141.28L1138.44 659H1134.24L1144.72 629.68H1149.88L1160.36 659ZM1152.44 647.68L1147.28 632.44L1142.12 647.68H1152.44ZM1177.15 634.88C1182.43 634.88 1185.03 638.56 1185.03 643.76V659H1181.27V644C1181.27 640.24 1179.91 637.96 1176.39 637.96C1173.47 637.96 1171.39 639.64 1169.75 641.68V659H1165.99V635.56H1168.75L1169.47 638.88C1171.39 636.36 1173.83 634.88 1177.15 634.88ZM1209.49 637.72V628.48H1213.25V659H1210.49L1209.85 656C1207.81 658.44 1205.33 659.64 1202.09 659.64C1195.93 659.64 1191.77 654.88 1191.77 647.56C1191.77 639.76 1196.29 634.88 1202.61 634.88C1205.57 634.88 1207.77 636 1209.49 637.72ZM1202.61 656.6C1205.57 656.6 1207.77 655.16 1209.49 653.52V640.92C1207.81 639.2 1205.69 637.88 1202.89 637.88C1198.97 637.88 1195.57 640.64 1195.57 647.56C1195.57 653.68 1198.49 656.6 1202.61 656.6ZM1233.21 635.48C1233.89 635.48 1234.37 635.52 1234.73 635.56V639.68H1233.13C1230.33 639.68 1227.77 640.48 1226.33 643.64V659H1222.57V638.48L1219.05 638.16V635.56H1225.33L1226.25 640.24C1227.69 637.4 1230.29 635.48 1233.21 635.48ZM1249.15 659.64C1242.79 659.64 1237.95 655.24 1237.95 647.32C1237.95 639.28 1242.87 634.88 1249.15 634.88C1255.47 634.88 1260.39 639.32 1260.39 647.32C1260.39 655.24 1255.51 659.64 1249.15 659.64ZM1249.15 656.64C1253.43 656.64 1256.63 653.44 1256.63 647.32C1256.63 641.12 1253.43 637.92 1249.15 637.92C1244.91 637.92 1241.71 641.12 1241.71 647.32C1241.71 653.44 1244.91 656.64 1249.15 656.64ZM1267.04 626.76H1271V631.28H1267.04V626.76ZM1271.92 635.56V659H1268.16V638.48L1264.64 638.16V635.56H1271.92ZM1296.64 637.72V628.48H1300.4V659H1297.64L1297 656C1294.96 658.44 1292.48 659.64 1289.24 659.64C1283.08 659.64 1278.92 654.88 1278.92 647.56C1278.92 639.76 1283.44 634.88 1289.76 634.88C1292.72 634.88 1294.92 636 1296.64 637.72ZM1289.76 656.6C1292.72 656.6 1294.92 655.16 1296.64 653.52V640.92C1294.96 639.2 1292.84 637.88 1290.04 637.88C1286.12 637.88 1282.72 640.64 1282.72 647.56C1282.72 653.68 1285.64 656.6 1289.76 656.6ZM1115.36 708.96L1119.76 714H1115.52L1113.16 711.32C1110.8 713.4 1107.96 714.64 1104.88 714.64C1099.2 714.64 1095.48 711.52 1095.48 706.4C1095.48 702.52 1097.64 700.12 1101.28 697.84C1099.08 695.36 1097.76 693.84 1097.76 690.68C1097.76 686.68 1100.96 684.04 1105.56 684.04C1109.8 684.04 1112.84 686.52 1112.84 690.44C1112.84 694.4 1110.12 696.44 1106.2 698.56L1113.2 706.52C1114.56 704.64 1115.6 702.32 1116.28 699.64H1119.6C1118.8 703.2 1117.32 706.44 1115.36 708.96ZM1105.56 686.92C1102.8 686.92 1101.36 688.52 1101.36 690.68C1101.36 693.32 1102.72 694.6 1104.12 696.16L1104.16 696.2C1107.84 694.16 1109.36 693 1109.36 690.44C1109.36 688.4 1107.96 686.92 1105.56 686.92ZM1104.88 711.44C1107.12 711.44 1109.24 710.56 1111.08 708.96L1103.28 700.12C1100.28 701.96 1099.24 703.6 1099.24 706.4C1099.24 709.52 1101.4 711.44 1104.88 711.44ZM1140.76 714H1136.88V684.68H1155.4V687.92H1140.76V698.36H1154.32V701.64H1140.76V714ZM1169.14 710.88H1171.34V714C1170.3 714.12 1169.54 714.2 1168.46 714.2C1164.38 714.2 1161.1 712.4 1161.14 707.36V683.48H1164.9V706.8C1164.9 709.8 1166.62 710.88 1169.14 710.88ZM1191.3 707.92V690.56H1195.06V714H1192.3L1191.62 710.64C1189.62 713.16 1187.22 714.64 1183.94 714.64C1178.82 714.64 1176.22 711 1176.22 705.76V690.56H1179.98V705.6C1179.98 709.72 1181.62 711.56 1184.74 711.56C1187.58 711.56 1189.7 709.84 1191.3 707.92ZM1212.81 710.96H1215.61V714C1214.69 714.12 1213.49 714.2 1212.41 714.2C1207.37 714.2 1204.61 712.04 1204.61 707.16V693.48H1201.13V690.56H1204.77L1205.41 685.08H1208.37V690.56H1214.61V693.48H1208.37V706.84C1208.37 709.72 1209.89 710.96 1212.81 710.96ZM1231.13 710.96H1233.93V714C1233.01 714.12 1231.81 714.2 1230.73 714.2C1225.69 714.2 1222.93 712.04 1222.93 707.16V693.48H1219.45V690.56H1223.09L1223.73 685.08H1226.69V690.56H1232.93V693.48H1226.69V706.84C1226.69 709.72 1228.21 710.96 1231.13 710.96ZM1259.46 701.96V703.04H1242.1C1242.34 709.04 1244.86 711.68 1249.06 711.68C1252.18 711.68 1254.3 710.2 1255.5 707.52H1259.18C1257.74 712 1254.14 714.64 1249.06 714.64C1242.38 714.64 1238.26 710.24 1238.26 702.24C1238.26 694.16 1242.98 689.88 1249.1 689.88C1255.46 689.88 1259.46 694.08 1259.46 701.96ZM1242.1 700.6H1255.74C1255.5 695.56 1253.3 692.76 1249.1 692.76C1244.82 692.76 1242.46 695.8 1242.1 700.6ZM1277.86 690.48C1278.54 690.48 1279.02 690.52 1279.38 690.56V694.68H1277.78C1274.98 694.68 1272.42 695.48 1270.98 698.64V714H1267.22V693.48L1263.7 693.16V690.56H1269.98L1270.9 695.24C1272.34 692.4 1274.94 690.48 1277.86 690.48ZM1286.85 713.76L1284.17 720.4H1282.33L1283.61 714H1281.69V709.16H1286.85V713.76ZM1325.64 714H1306.84V684.68H1310.72V710.6H1325.64V714ZM1330.32 681.76H1334.28V686.28H1330.32V681.76ZM1335.2 690.56V714H1331.44V693.48L1327.92 693.16V690.56H1335.2ZM1354.92 689.88C1361.08 689.88 1365.24 694.64 1365.24 701.96C1365.24 709.76 1360.72 714.64 1354.4 714.64C1351.2 714.64 1348.88 713.32 1347.08 711.32L1346.52 714H1343.76V683.48H1347.52V693.12C1349.48 690.92 1351.88 689.88 1354.92 689.88ZM1354.12 711.64C1358.04 711.64 1361.44 708.88 1361.44 701.96C1361.44 695.84 1358.52 692.92 1354.4 692.92C1351.44 692.92 1349.24 694.36 1347.52 696V708.6C1349.16 710.32 1351.32 711.64 1354.12 711.64ZM1383.64 690.48C1384.32 690.48 1384.8 690.52 1385.16 690.56V694.68H1383.56C1380.76 694.68 1378.2 695.48 1376.76 698.64V714H1373V693.48L1369.48 693.16V690.56H1375.76L1376.68 695.24C1378.12 692.4 1380.72 690.48 1383.64 690.48ZM1409.58 701.96V703.04H1392.22C1392.46 709.04 1394.98 711.68 1399.18 711.68C1402.3 711.68 1404.42 710.2 1405.62 707.52H1409.3C1407.86 712 1404.26 714.64 1399.18 714.64C1392.5 714.64 1388.38 710.24 1388.38 702.24C1388.38 694.16 1393.1 689.88 1399.22 689.88C1405.58 689.88 1409.58 694.08 1409.58 701.96ZM1392.22 700.6H1405.86C1405.62 695.56 1403.42 692.76 1399.22 692.76C1394.94 692.76 1392.58 695.8 1392.22 700.6ZM1440.77 714.64C1432.89 714.64 1426.93 709.32 1426.93 699.32C1426.93 689.4 1432.89 684.04 1440.77 684.04C1448.65 684.04 1454.61 689.4 1454.61 699.32C1454.61 709.32 1448.65 714.64 1440.77 714.64ZM1440.77 711.32C1446.45 711.32 1450.65 707.36 1450.65 699.32C1450.65 691.32 1446.45 687.36 1440.77 687.36C1435.13 687.36 1430.89 691.32 1430.89 699.32C1430.89 707.36 1435.13 711.32 1440.77 711.32ZM1495.57 681.76H1499.49V686.28H1495.57V681.76ZM1462.37 690.56V689.48C1462.37 684.88 1465.01 682.92 1470.09 682.92C1471.25 682.92 1473.37 683 1474.73 683.12V685.8H1470.25C1467.61 685.8 1465.97 686.76 1465.97 689.64V690.56L1473.57 691.08V693.48H1466.13V714H1462.37V693.48H1458.69V690.56H1462.37ZM1479.89 690.56V689.48C1479.89 684.88 1482.53 682.92 1487.61 682.92C1488.77 682.92 1490.89 683 1492.25 683.12V685.8H1487.77C1485.13 685.8 1483.49 686.76 1483.49 689.64V690.56L1491.09 691.08V693.48H1483.65V714H1479.89V693.48H1476.21V690.56H1479.89ZM1500.45 690.56V714H1496.69V693.48L1493.13 693.16V690.56H1500.45ZM1518.24 714.64C1511.56 714.64 1507.32 710.2 1507.32 702.32C1507.32 694.56 1511.8 689.88 1518.36 689.88C1523.96 689.88 1527.04 692.68 1528 696.8H1524.24C1523.4 694.52 1521.84 692.92 1518.36 692.92C1514.12 692.92 1511.08 696.2 1511.08 702.32C1511.08 708.52 1514.04 711.64 1518.24 711.64C1521.08 711.64 1523.48 710.24 1524.36 707.52H1528.12C1527.04 712.08 1523.2 714.64 1518.24 714.64ZM1554.26 701.96V703.04H1536.9C1537.14 709.04 1539.66 711.68 1543.86 711.68C1546.98 711.68 1549.1 710.2 1550.3 707.52H1553.98C1552.54 712 1548.94 714.64 1543.86 714.64C1537.18 714.64 1533.06 710.24 1533.06 702.24C1533.06 694.16 1537.78 689.88 1543.9 689.88C1550.26 689.88 1554.26 694.08 1554.26 701.96ZM1536.9 700.6H1550.54C1550.3 695.56 1548.1 692.76 1543.9 692.76C1539.62 692.76 1537.26 695.8 1536.9 700.6ZM1565.87 713.76L1563.19 720.4H1561.35L1562.63 714H1560.71V709.16H1565.87V713.76ZM1609.35 714H1605.11L1602.27 705.8H1590.27L1587.43 714H1583.23L1593.71 684.68H1598.87L1609.35 714ZM1601.43 702.68L1596.27 687.44L1591.11 702.68H1601.43ZM1624.27 714H1619.99L1611.63 690.56H1615.51L1622.11 711.2L1628.71 690.56H1632.63L1624.27 714ZM1656.63 711.16H1657.07V714C1656.63 714.16 1656.07 714.2 1655.51 714.2C1653.35 714.2 1651.99 713.04 1651.55 711.48C1649.83 713.28 1647.19 714.64 1643.75 714.64C1639.03 714.64 1636.03 712.04 1636.03 708C1636.03 703.8 1638.55 700.36 1646.63 700.28L1651.19 700.24V697.48C1651.19 694.44 1649.55 692.72 1646.23 692.72C1643.15 692.72 1640.95 694.2 1640.67 696.8H1636.99C1637.27 692.56 1641.15 689.88 1646.23 689.88C1652.07 689.88 1654.95 692.88 1654.95 697.68V708.88C1654.95 710.36 1655.35 711.16 1656.63 711.16ZM1639.79 707.92C1639.79 710.36 1641.55 711.84 1644.31 711.84C1647.15 711.84 1649.39 710.6 1651.23 709.16L1651.19 708.96V702.72H1647.19C1641.47 702.72 1639.79 705.12 1639.79 707.92ZM1671.33 710.88H1673.53V714C1672.49 714.12 1671.73 714.2 1670.65 714.2C1666.57 714.2 1663.29 712.4 1663.33 707.36V683.48H1667.09V706.8C1667.09 709.8 1668.81 710.88 1671.33 710.88ZM1688.29 714.64C1681.93 714.64 1677.09 710.24 1677.09 702.32C1677.09 694.28 1682.01 689.88 1688.29 689.88C1694.61 689.88 1699.53 694.32 1699.53 702.32C1699.53 710.24 1694.65 714.64 1688.29 714.64ZM1688.29 711.64C1692.57 711.64 1695.77 708.44 1695.77 702.32C1695.77 696.12 1692.57 692.92 1688.29 692.92C1684.05 692.92 1680.85 696.12 1680.85 702.32C1680.85 708.44 1684.05 711.64 1688.29 711.64ZM1717.7 689.88C1722.98 689.88 1725.58 693.56 1725.58 698.76V714H1721.82V699C1721.82 695.24 1720.46 692.96 1716.94 692.96C1714.02 692.96 1711.94 694.64 1710.3 696.68V714H1706.54V690.56H1709.3L1710.02 693.88C1711.94 691.36 1714.38 689.88 1717.7 689.88ZM1733.52 681.76H1737.48V686.28H1733.52V681.76ZM1738.4 690.56V714H1734.64V693.48L1731.12 693.16V690.56H1738.4ZM1765.81 711.16H1766.25V714C1765.81 714.16 1765.25 714.2 1764.69 714.2C1762.53 714.2 1761.17 713.04 1760.73 711.48C1759.01 713.28 1756.37 714.64 1752.93 714.64C1748.21 714.64 1745.21 712.04 1745.21 708C1745.21 703.8 1747.73 700.36 1755.81 700.28L1760.37 700.24V697.48C1760.37 694.44 1758.73 692.72 1755.41 692.72C1752.33 692.72 1750.13 694.2 1749.85 696.8H1746.17C1746.45 692.56 1750.33 689.88 1755.41 689.88C1761.25 689.88 1764.13 692.88 1764.13 697.68V708.88C1764.13 710.36 1764.53 711.16 1765.81 711.16ZM1748.97 707.92C1748.97 710.36 1750.73 711.84 1753.49 711.84C1756.33 711.84 1758.57 710.6 1760.41 709.16L1760.37 708.96V702.72H1756.37C1750.65 702.72 1748.97 705.12 1748.97 707.92ZM1777.71 713.76L1775.03 720.4H1773.19L1774.47 714H1772.55V709.16H1777.71V713.76ZM1802.94 714H1797.78V709.16H1802.94V714ZM1816.34 714H1811.18V709.16H1816.34V714ZM1829.74 714H1824.58V709.16H1829.74V714ZM1100.92 769H1097.04V739.68H1115.56V742.92H1100.92V753.36H1114.48V756.64H1100.92V769ZM1138.74 766.16H1139.18V769C1138.74 769.16 1138.18 769.2 1137.62 769.2C1135.46 769.2 1134.1 768.04 1133.66 766.48C1131.94 768.28 1129.3 769.64 1125.86 769.64C1121.14 769.64 1118.14 767.04 1118.14 763C1118.14 758.8 1120.66 755.36 1128.74 755.28L1133.3 755.24V752.48C1133.3 749.44 1131.66 747.72 1128.34 747.72C1125.26 747.72 1123.06 749.2 1122.78 751.8H1119.1C1119.38 747.56 1123.26 744.88 1128.34 744.88C1134.18 744.88 1137.06 747.88 1137.06 752.68V763.88C1137.06 765.36 1137.46 766.16 1138.74 766.16ZM1121.9 762.92C1121.9 765.36 1123.66 766.84 1126.42 766.84C1129.26 766.84 1131.5 765.6 1133.34 764.16L1133.3 763.96V757.72H1129.3C1123.58 757.72 1121.9 760.12 1121.9 762.92ZM1153.56 769.64C1147.24 769.64 1144 767 1143.52 762.52H1147.24C1147.64 765.52 1149.8 766.76 1153.56 766.76C1157.2 766.76 1158.88 765.12 1158.88 762.88C1158.88 760.88 1157.6 759.84 1154.56 759.04L1150.32 757.96C1147.08 757.12 1144.44 755.56 1144.44 751.6C1144.44 747.72 1147.88 744.88 1153.24 744.88C1158.6 744.88 1161.8 747.16 1162.24 751.8H1158.56C1158.28 748.92 1156.44 747.76 1153.24 747.76C1149.96 747.76 1148.2 749.32 1148.2 751.4C1148.2 753.84 1149.88 754.44 1151.84 755L1156.08 756.12C1159.72 757.08 1162.64 758.76 1162.64 762.8C1162.64 766.8 1159.32 769.64 1153.56 769.64ZM1178.28 765.96H1181.08V769C1180.16 769.12 1178.96 769.2 1177.88 769.2C1172.84 769.2 1170.08 767.04 1170.08 762.16V748.48H1166.6V745.56H1170.24L1170.88 740.08H1173.84V745.56H1180.08V748.48H1173.84V761.84C1173.84 764.72 1175.36 765.96 1178.28 765.96ZM1100.72 824H1097.04V794.68H1102.76L1111.68 819.52L1120.68 794.68H1126.36V824H1122.68V799L1113.44 824H1109.96L1100.72 799V824ZM1144.3 824.64C1137.94 824.64 1133.1 820.24 1133.1 812.32C1133.1 804.28 1138.02 799.88 1144.3 799.88C1150.62 799.88 1155.54 804.32 1155.54 812.32C1155.54 820.24 1150.66 824.64 1144.3 824.64ZM1144.3 821.64C1148.58 821.64 1151.78 818.44 1151.78 812.32C1151.78 806.12 1148.58 802.92 1144.3 802.92C1140.06 802.92 1136.86 806.12 1136.86 812.32C1136.86 818.44 1140.06 821.64 1144.3 821.64ZM1178.71 802.72V793.48H1182.47V824H1179.71L1179.07 821C1177.03 823.44 1174.55 824.64 1171.31 824.64C1165.15 824.64 1160.99 819.88 1160.99 812.56C1160.99 804.76 1165.51 799.88 1171.83 799.88C1174.79 799.88 1176.99 801 1178.71 802.72ZM1171.83 821.6C1174.79 821.6 1176.99 820.16 1178.71 818.52V805.92C1177.03 804.2 1174.91 802.88 1172.11 802.88C1168.19 802.88 1164.79 805.64 1164.79 812.56C1164.79 818.68 1167.71 821.6 1171.83 821.6ZM1210.67 811.96V813.04H1193.31C1193.55 819.04 1196.07 821.68 1200.27 821.68C1203.39 821.68 1205.51 820.2 1206.71 817.52H1210.39C1208.95 822 1205.35 824.64 1200.27 824.64C1193.59 824.64 1189.47 820.24 1189.47 812.24C1189.47 804.16 1194.19 799.88 1200.31 799.88C1206.67 799.88 1210.67 804.08 1210.67 811.96ZM1193.31 810.6H1206.95C1206.71 805.56 1204.51 802.76 1200.31 802.76C1196.03 802.76 1193.67 805.8 1193.31 810.6ZM1229.07 800.48C1229.75 800.48 1230.23 800.52 1230.59 800.56V804.68H1228.99C1226.19 804.68 1223.63 805.48 1222.19 808.64V824H1218.43V803.48L1214.91 803.16V800.56H1221.19L1222.11 805.24C1223.55 802.4 1226.15 800.48 1229.07 800.48ZM1247.42 799.88C1252.7 799.88 1255.3 803.56 1255.3 808.76V824H1251.54V809C1251.54 805.24 1250.18 802.96 1246.66 802.96C1243.74 802.96 1241.66 804.64 1240.02 806.68V824H1236.26V800.56H1239.02L1239.74 803.88C1241.66 801.36 1244.1 799.88 1247.42 799.88ZM1109.64 879.64C1101.76 879.64 1095.8 874.32 1095.8 864.32C1095.8 854.4 1101.76 849.04 1109.64 849.04C1117.52 849.04 1123.48 854.4 1123.48 864.32C1123.48 874.32 1117.52 879.64 1109.64 879.64ZM1109.64 876.32C1115.32 876.32 1119.52 872.36 1119.52 864.32C1119.52 856.32 1115.32 852.36 1109.64 852.36C1104 852.36 1099.76 856.32 1099.76 864.32C1099.76 872.36 1104 876.32 1109.64 876.32ZM1141.72 854.88C1147.88 854.88 1152.04 859.64 1152.04 866.96C1152.04 874.76 1147.52 879.64 1141.2 879.64C1138.28 879.64 1136.08 878.52 1134.36 876.8V886.4H1130.6V855.56H1133.36L1133.96 858.52C1136 856.04 1138.52 854.88 1141.72 854.88ZM1140.92 876.64C1144.84 876.64 1148.24 873.88 1148.24 866.96C1148.24 860.84 1145.32 857.92 1141.2 857.92C1138.28 857.92 1136.12 859.32 1134.36 861V873.64C1136.04 875.32 1138.16 876.64 1140.92 876.64ZM1178.68 866.96V868.04H1161.32C1161.56 874.04 1164.08 876.68 1168.28 876.68C1171.4 876.68 1173.52 875.2 1174.72 872.52H1178.4C1176.96 877 1173.36 879.64 1168.28 879.64C1161.6 879.64 1157.48 875.24 1157.48 867.24C1157.48 859.16 1162.2 854.88 1168.32 854.88C1174.68 854.88 1178.68 859.08 1178.68 866.96ZM1161.32 865.6H1174.96C1174.72 860.56 1172.52 857.76 1168.32 857.76C1164.04 857.76 1161.68 860.8 1161.32 865.6ZM1196.84 854.88C1202.12 854.88 1204.72 858.56 1204.72 863.76V879H1200.96V864C1200.96 860.24 1199.6 857.96 1196.08 857.96C1193.16 857.96 1191.08 859.64 1189.44 861.68V879H1185.68V855.56H1188.44L1189.16 858.88C1191.08 856.36 1193.52 854.88 1196.84 854.88ZM1225.5 866.28V863.52H1237.34V879H1234.62L1233.9 875.16C1232.1 877.72 1229.18 879.64 1224.7 879.64C1216.98 879.64 1211.54 874.4 1211.54 864.28C1211.54 855.04 1216.9 849.04 1225.26 849.04C1231.34 849.04 1235.9 852.16 1236.78 857.64H1232.9C1232.3 854.6 1229.66 852.36 1225.26 852.36C1219.42 852.36 1215.5 856.76 1215.5 864.28C1215.5 872.36 1219.1 876.36 1225.02 876.36C1229.18 876.36 1231.66 874.24 1233.5 871.88V866.68L1225.5 866.28ZM1263.38 879H1244.58V849.68H1248.46V875.6H1263.38V879ZM1097.04 904.68H1106.12C1115.68 904.68 1120.68 909.44 1120.68 919.24C1120.68 929.16 1115.68 934 1106.32 934H1097.04V904.68ZM1106.36 907.92H1100.92V930.76H1106.56C1113.2 930.76 1116.72 927.2 1116.72 919.24C1116.72 911.32 1113.2 907.92 1106.36 907.92ZM1127.39 901.76H1131.35V906.28H1127.39V901.76ZM1132.27 910.56V934H1128.51V913.48L1124.99 913.16V910.56H1132.27ZM1152.23 910.48C1152.91 910.48 1153.39 910.52 1153.75 910.56V914.68H1152.15C1149.35 914.68 1146.79 915.48 1145.35 918.64V934H1141.59V913.48L1138.07 913.16V910.56H1144.35L1145.27 915.24C1146.71 912.4 1149.31 910.48 1152.23 910.48ZM1178.17 921.96V923.04H1160.81C1161.05 929.04 1163.57 931.68 1167.77 931.68C1170.89 931.68 1173.01 930.2 1174.21 927.52H1177.89C1176.45 932 1172.85 934.64 1167.77 934.64C1161.09 934.64 1156.97 930.24 1156.97 922.24C1156.97 914.16 1161.69 909.88 1167.81 909.88C1174.17 909.88 1178.17 914.08 1178.17 921.96ZM1160.81 920.6H1174.45C1174.21 915.56 1172.01 912.76 1167.81 912.76C1163.53 912.76 1161.17 915.8 1160.81 920.6ZM1194.53 934.64C1187.85 934.64 1183.61 930.2 1183.61 922.32C1183.61 914.56 1188.09 909.88 1194.65 909.88C1200.25 909.88 1203.33 912.68 1204.29 916.8H1200.53C1199.69 914.52 1198.13 912.92 1194.65 912.92C1190.41 912.92 1187.37 916.2 1187.37 922.32C1187.37 928.52 1190.33 931.64 1194.53 931.64C1197.37 931.64 1199.77 930.24 1200.65 927.52H1204.41C1203.33 932.08 1199.49 934.64 1194.53 934.64ZM1220.31 930.96H1223.11V934C1222.19 934.12 1220.99 934.2 1219.91 934.2C1214.87 934.2 1212.11 932.04 1212.11 927.16V913.48H1208.63V910.56H1212.27L1212.91 905.08H1215.87V910.56H1222.11V913.48H1215.87V926.84C1215.87 929.72 1217.39 930.96 1220.31 930.96ZM1249.91 904.68L1240.95 918.8L1250.71 934H1246.39L1238.63 921.44L1230.87 934H1226.55L1236.35 918.8L1227.35 904.68H1231.63L1238.63 916.48L1245.59 904.68H1249.91ZM1278.5 904.68V930.8H1284.38V934H1267.5V930.8H1274.66V913.44H1267.46V910.6H1267.74C1273.18 910.6 1275.5 909.36 1275.5 904.88V904.68H1278.5ZM1300.84 904.68V930.8H1306.72V934H1289.84V930.8H1297V913.44H1289.8V910.6H1290.08C1295.52 910.6 1297.84 909.36 1297.84 904.88V904.68H1300.84ZM1317.91 933.76L1315.23 940.4H1313.39L1314.67 934H1312.75V929.16H1317.91V933.76ZM1348.42 904.68V930.8H1354.3V934H1337.42V930.8H1344.58V913.44H1337.38V910.6H1337.66C1343.1 910.6 1345.42 909.36 1345.42 904.88V904.68H1348.42ZM1373.2 921.4L1364.04 930.72L1378.64 930.68V934H1359.68V930.72L1370.04 919.68C1372.36 917.2 1374.16 915.28 1374.16 912.08C1374.16 909.04 1372.2 907.24 1368.76 907.24C1364.84 907.24 1362.6 909.44 1362.6 913.2H1358.88C1358.88 907.44 1362.8 904.04 1368.8 904.04C1374.6 904.04 1378.04 907.4 1378.04 912.08C1378.04 916.32 1375.68 918.8 1373.2 921.4ZM1100.72 989H1097.04V959.68H1102.76L1111.68 984.52L1120.68 959.68H1126.36V989H1122.68V964L1113.44 989H1109.96L1100.72 964V989ZM1154.3 976.96V978.04H1136.94C1137.18 984.04 1139.7 986.68 1143.9 986.68C1147.02 986.68 1149.14 985.2 1150.34 982.52H1154.02C1152.58 987 1148.98 989.64 1143.9 989.64C1137.22 989.64 1133.1 985.24 1133.1 977.24C1133.1 969.16 1137.82 964.88 1143.94 964.88C1150.3 964.88 1154.3 969.08 1154.3 976.96ZM1136.94 975.6H1150.58C1150.34 970.56 1148.14 967.76 1143.94 967.76C1139.66 967.76 1137.3 970.8 1136.94 975.6ZM1170.5 985.96H1173.3V989C1172.38 989.12 1171.18 989.2 1170.1 989.2C1165.06 989.2 1162.3 987.04 1162.3 982.16V968.48H1158.82V965.56H1162.46L1163.1 960.08H1166.06V965.56H1172.3V968.48H1166.06V981.84C1166.06 984.72 1167.58 985.96 1170.5 985.96ZM1198.46 986.16H1198.9V989C1198.46 989.16 1197.9 989.2 1197.34 989.2C1195.18 989.2 1193.82 988.04 1193.38 986.48C1191.66 988.28 1189.02 989.64 1185.58 989.64C1180.86 989.64 1177.86 987.04 1177.86 983C1177.86 978.8 1180.38 975.36 1188.46 975.28L1193.02 975.24V972.48C1193.02 969.44 1191.38 967.72 1188.06 967.72C1184.98 967.72 1182.78 969.2 1182.5 971.8H1178.82C1179.1 967.56 1182.98 964.88 1188.06 964.88C1193.9 964.88 1196.78 967.88 1196.78 972.68V983.88C1196.78 985.36 1197.18 986.16 1198.46 986.16ZM1181.62 982.92C1181.62 985.36 1183.38 986.84 1186.14 986.84C1188.98 986.84 1191.22 985.6 1193.06 984.16L1193.02 983.96V977.72H1189.02C1183.3 977.72 1181.62 980.12 1181.62 982.92ZM1213.17 985.88H1215.37V989C1214.33 989.12 1213.57 989.2 1212.49 989.2C1208.41 989.2 1205.13 987.4 1205.17 982.36V958.48H1208.93V981.8C1208.93 984.8 1210.65 985.88 1213.17 985.88ZM1225.48 988.76L1222.8 995.4H1220.96L1222.24 989H1220.32V984.16H1225.48V988.76ZM1256.82 989H1251.94L1242.06 959.68H1246.18L1254.38 986.32L1262.58 959.68H1266.74L1256.82 989ZM1285.44 982.92V965.56H1289.2V989H1286.44L1285.76 985.64C1283.76 988.16 1281.36 989.64 1278.08 989.64C1272.96 989.64 1270.36 986 1270.36 980.76V965.56H1274.12V980.6C1274.12 984.72 1275.76 986.56 1278.88 986.56C1281.72 986.56 1283.84 984.84 1285.44 982.92ZM1305.55 985.88H1307.75V989C1306.71 989.12 1305.95 989.2 1304.87 989.2C1300.79 989.2 1297.51 987.4 1297.55 982.36V958.48H1301.31V981.8C1301.31 984.8 1303.03 985.88 1305.55 985.88ZM1332.31 989H1328.15L1320.31 977.16L1316.59 980.88V989H1312.87V958.48H1316.59V976.84L1327.47 965.56H1331.91L1322.63 974.84L1332.31 989ZM1356.59 986.16H1357.03V989C1356.59 989.16 1356.03 989.2 1355.47 989.2C1353.31 989.2 1351.95 988.04 1351.51 986.48C1349.79 988.28 1347.15 989.64 1343.71 989.64C1338.99 989.64 1335.99 987.04 1335.99 983C1335.99 978.8 1338.51 975.36 1346.59 975.28L1351.15 975.24V972.48C1351.15 969.44 1349.51 967.72 1346.19 967.72C1343.11 967.72 1340.91 969.2 1340.63 971.8H1336.95C1337.23 967.56 1341.11 964.88 1346.19 964.88C1352.03 964.88 1354.91 967.88 1354.91 972.68V983.88C1354.91 985.36 1355.31 986.16 1356.59 986.16ZM1339.75 982.92C1339.75 985.36 1341.51 986.84 1344.27 986.84C1347.11 986.84 1349.35 985.6 1351.19 984.16L1351.15 983.96V977.72H1347.15C1341.43 977.72 1339.75 980.12 1339.75 982.92ZM1374.65 964.88C1379.93 964.88 1382.53 968.56 1382.53 973.76V989H1378.77V974C1378.77 970.24 1377.41 967.96 1373.89 967.96C1370.97 967.96 1368.89 969.64 1367.25 971.68V989H1363.49V965.56H1366.25L1366.97 968.88C1368.89 966.36 1371.33 964.88 1374.65 964.88ZM1395.83 988.76L1393.15 995.4H1391.31L1392.59 989H1390.67V984.16H1395.83V988.76ZM1425.44 989H1421.2L1413.32 959.68H1417.28L1423.4 985.12L1429.92 959.68H1434.32L1440.88 985.12L1446.96 959.68H1450.92L1443.04 989H1438.84L1432.16 962.92L1425.44 989ZM1474.77 976.96V978.04H1457.41C1457.65 984.04 1460.17 986.68 1464.37 986.68C1467.49 986.68 1469.61 985.2 1470.81 982.52H1474.49C1473.05 987 1469.45 989.64 1464.37 989.64C1457.69 989.64 1453.57 985.24 1453.57 977.24C1453.57 969.16 1458.29 964.88 1464.41 964.88C1470.77 964.88 1474.77 969.08 1474.77 976.96ZM1457.41 975.6H1471.05C1470.81 970.56 1468.61 967.76 1464.41 967.76C1460.13 967.76 1457.77 970.8 1457.41 975.6ZM1492.93 964.88C1499.09 964.88 1503.25 969.64 1503.25 976.96C1503.25 984.76 1498.73 989.64 1492.41 989.64C1489.21 989.64 1486.89 988.32 1485.09 986.32L1484.53 989H1481.77V958.48H1485.53V968.12C1487.49 965.92 1489.89 964.88 1492.93 964.88ZM1492.13 986.64C1496.05 986.64 1499.45 983.88 1499.45 976.96C1499.45 970.84 1496.53 967.92 1492.41 967.92C1489.45 967.92 1487.25 969.36 1485.53 971V983.6C1487.17 985.32 1489.33 986.64 1492.13 986.64ZM1522.73 976.28V973.52H1534.57V989H1531.85L1531.13 985.16C1529.33 987.72 1526.41 989.64 1521.93 989.64C1514.21 989.64 1508.77 984.4 1508.77 974.28C1508.77 965.04 1514.13 959.04 1522.49 959.04C1528.57 959.04 1533.13 962.16 1534.01 967.64H1530.13C1529.53 964.6 1526.89 962.36 1522.49 962.36C1516.65 962.36 1512.73 966.76 1512.73 974.28C1512.73 982.36 1516.33 986.36 1522.25 986.36C1526.41 986.36 1528.89 984.24 1530.73 981.88V976.68L1522.73 976.28ZM1545.69 989H1541.81V959.68H1552.37C1559.13 959.68 1562.81 962.76 1562.81 968.56C1562.81 974.32 1559.13 977.72 1552.37 977.72H1545.69V989ZM1545.69 962.8V974.56H1551.85C1556.21 974.56 1558.85 972.6 1558.85 968.56C1558.85 964.52 1556.25 962.8 1551.85 962.8H1545.69ZM1579.52 989.64C1572.36 989.64 1568.28 985.68 1568.28 978.56V959.68H1572.16V978.04C1572.16 983.68 1574.64 986.32 1579.52 986.32C1584.44 986.32 1586.92 983.68 1586.92 978.04V959.68H1590.8V978.56C1590.8 985.68 1586.72 989.64 1579.52 989.64Z" fill="black"/>
<path d="M976.5 777.5H1052.5M1052.5 777.5V521M1052.5 777.5V993.5" stroke="black" stroke-width="4"/>
<defs>
<linearGradient id="paint0_linear_412_97" x1="530.97" y1="825.377" x2="466.106" y2="825.377" gradientUnits="userSpaceOnUse">
<stop stop-color="#5A5A5A"/>
<stop offset="1" stop-color="#C9C9C9"/>
</linearGradient>
</defs>
</svg>
