<svg width="1920" height="1080" viewBox="0 0 1920 1080" fill="none" xmlns="http://www.w3.org/2000/svg">
<rect width="1920" height="1080" fill="white"/>
<rect x="994" y="581" width="830" height="244" fill="#D0D0D0"/>
<path d="M1336.23 785.992V735.913H1347.46V786.096C1347.46 792.898 1346.25 797.93 1343.82 801.192C1341.47 804.455 1336.68 807.925 1329.47 811.604L1325 803.17C1329.85 800.116 1332.94 797.618 1334.26 795.674C1335.57 793.8 1336.23 790.573 1336.23 785.992ZM1336.23 727.063V715.09H1347.46V727.063H1336.23Z" fill="#112A3D"/>
<path d="M1356.9 736.954H1368.02V778.287H1370.1L1379.98 736.954H1388.48L1398.36 778.287H1400.44V735.913H1411.67L1410.84 787.97H1390.76L1384.04 754.831L1377.7 787.97H1358.63L1356.9 736.954Z" fill="#112A3D"/>
<path d="M1420.69 786.929H1431.82V745.595H1433.9L1443.78 786.929H1452.27L1462.15 745.595H1464.23V787.97H1475.46L1474.63 735.913H1454.56L1447.84 769.052L1441.49 735.913H1422.42L1420.69 786.929Z" fill="#112A3D"/>
<path fill-rule="evenodd" clip-rule="evenodd" d="M1419.82 683.905H1402.72L1406.49 696.766L1401.03 727.609H1421.51L1416.05 696.766L1419.82 683.905ZM1358.92 698.277C1366.63 693.683 1374.99 690.073 1383.84 687.62L1395.06 727.609H1358.92V698.277ZM1463.63 727.609H1427.26L1438.49 687.562C1447.42 690.016 1455.85 693.647 1463.63 698.277V727.609Z" fill="#112A3D"/>
<path d="M1374.17 639.973H1407.86V674.117H1396.02C1388.37 674.117 1384.55 674.117 1381.62 672.628C1379.05 671.319 1376.96 669.229 1375.66 666.66C1374.17 663.738 1374.17 659.913 1374.17 652.265V639.973Z" fill="#FA752A"/>
<path d="M1448.37 639.973H1414.68V674.117H1426.52C1434.17 674.117 1437.99 674.117 1440.92 672.628C1443.49 671.319 1445.58 669.229 1446.88 666.66C1448.37 663.738 1448.37 659.913 1448.37 652.265V639.973Z" fill="#E44B29"/>
<path fill-rule="evenodd" clip-rule="evenodd" d="M1374.17 633.144H1448.49V599H1396.02C1388.37 599 1384.55 599 1381.62 600.489C1379.05 601.798 1376.96 603.887 1375.66 606.457C1374.17 609.379 1374.17 613.203 1374.17 620.852V633.144ZM1400.62 615.93C1400.62 620.754 1396.59 624.665 1391.61 624.665C1386.63 624.665 1382.59 620.754 1382.59 615.93C1382.59 611.105 1386.63 607.195 1391.61 607.195C1396.59 607.195 1400.62 611.105 1400.62 615.93ZM1421.97 611.178L1426.64 606.512L1431.42 611.292L1436.2 606.512L1440.86 611.178L1436.08 615.958L1440.63 620.511L1435.97 625.177L1431.42 620.625L1426.86 625.177L1422.2 620.511L1426.75 615.958L1421.97 611.178Z" fill="#EB582A"/>
<rect x="994" y="881" width="250" height="100" fill="#B0B0B0"/>
<path d="M1092.1 947L1098.82 920.92L1105.5 947H1109.7L1117.58 917.68H1113.62L1107.54 943.12L1100.98 917.68H1096.58L1090.06 943.12L1083.94 917.68H1079.98L1087.86 947H1092.1ZM1123.43 914.76V919.28H1127.39V914.76H1123.43ZM1128.31 923.56H1121.03V926.16L1124.55 926.48V947H1128.31V923.56ZM1148.03 922.88C1144.71 922.88 1142.27 924.36 1140.35 926.88L1139.63 923.56H1136.87V947H1140.63V929.68C1142.27 927.64 1144.35 925.96 1147.27 925.96C1150.79 925.96 1152.15 928.24 1152.15 932V947H1155.91V931.76C1155.91 926.56 1153.31 922.88 1148.03 922.88Z" fill="white"/>
<rect x="1284" y="881" width="250" height="100" fill="#B0B0B0"/>
<rect x="1574" y="881" width="250" height="100" fill="#B0B0B0"/>
<path d="M1398.23 917.68L1389.27 931.8L1399.03 947H1394.71L1386.95 934.44L1379.19 947H1374.87L1384.67 931.8L1375.67 917.68H1379.95L1386.95 929.48L1393.91 917.68H1398.23ZM1414.4 917.68V943.8H1420.28V947H1403.4V943.8H1410.56V926.44H1403.36V923.6H1403.64C1409.08 923.6 1411.4 922.36 1411.4 917.88V917.68H1414.4ZM1436.74 917.68V943.8H1442.62V947H1425.74V943.8H1432.9V926.44H1425.7V923.6H1425.98C1431.42 923.6 1433.74 922.36 1433.74 917.88V917.68H1436.74Z" fill="white"/>
<path d="M1662.19 947H1658.51V917.68H1664.23L1673.15 942.52L1682.15 917.68H1687.83V947H1684.15V922L1674.91 947H1671.43L1662.19 922V947ZM1714.97 944.16H1715.41V947C1714.97 947.16 1714.41 947.2 1713.85 947.2C1711.69 947.2 1710.33 946.04 1709.89 944.48C1708.17 946.28 1705.53 947.64 1702.09 947.64C1697.37 947.64 1694.37 945.04 1694.37 941C1694.37 936.8 1696.89 933.36 1704.97 933.28L1709.53 933.24V930.48C1709.53 927.44 1707.89 925.72 1704.57 925.72C1701.49 925.72 1699.29 927.2 1699.01 929.8H1695.33C1695.61 925.56 1699.49 922.88 1704.57 922.88C1710.41 922.88 1713.29 925.88 1713.29 930.68V941.88C1713.29 943.36 1713.69 944.16 1714.97 944.16ZM1698.13 940.92C1698.13 943.36 1699.89 944.84 1702.65 944.84C1705.49 944.84 1707.73 943.6 1709.57 942.16L1709.53 941.96V935.72H1705.53C1699.81 935.72 1698.13 938.12 1698.13 940.92ZM1731.23 947.64C1724.55 947.64 1720.31 943.2 1720.31 935.32C1720.31 927.56 1724.79 922.88 1731.35 922.88C1736.95 922.88 1740.03 925.68 1740.99 929.8H1737.23C1736.39 927.52 1734.83 925.92 1731.35 925.92C1727.11 925.92 1724.07 929.2 1724.07 935.32C1724.07 941.52 1727.03 944.64 1731.23 944.64C1734.07 944.64 1736.47 943.24 1737.35 940.52H1741.11C1740.03 945.08 1736.19 947.64 1731.23 947.64Z" fill="white"/>
<path d="M252.703 565.6C246.823 565.6 243.063 561.92 243.023 555.92H246.823C246.983 560.28 249.023 562.36 252.663 562.36C256.463 562.36 258.463 560.08 258.463 555.32V535.68H262.383V555.52C262.383 561.72 258.663 565.6 252.703 565.6ZM288.948 562.16H289.388V565C288.948 565.16 288.388 565.2 287.828 565.2C285.668 565.2 284.308 564.04 283.868 562.48C282.148 564.28 279.508 565.64 276.068 565.64C271.348 565.64 268.348 563.04 268.348 559C268.348 554.8 270.868 551.36 278.948 551.28L283.508 551.24V548.48C283.508 545.44 281.868 543.72 278.548 543.72C275.468 543.72 273.268 545.2 272.988 547.8H269.308C269.588 543.56 273.468 540.88 278.548 540.88C284.388 540.88 287.268 543.88 287.268 548.68V559.88C287.268 561.36 287.668 562.16 288.948 562.16ZM272.108 558.92C272.108 561.36 273.868 562.84 276.628 562.84C279.468 562.84 281.708 561.6 283.548 560.16L283.508 559.96V553.72H279.508C273.788 553.72 272.108 556.12 272.108 558.92ZM305.301 565H301.021L292.661 541.56H296.541L303.141 562.2L309.741 541.56H313.661L305.301 565ZM337.659 562.16H338.099V565C337.659 565.16 337.099 565.2 336.539 565.2C334.379 565.2 333.019 564.04 332.579 562.48C330.859 564.28 328.219 565.64 324.779 565.64C320.059 565.64 317.059 563.04 317.059 559C317.059 554.8 319.579 551.36 327.659 551.28L332.219 551.24V548.48C332.219 545.44 330.579 543.72 327.259 543.72C324.179 543.72 321.979 545.2 321.699 547.8H318.019C318.299 543.56 322.179 540.88 327.259 540.88C333.099 540.88 335.979 543.88 335.979 548.68V559.88C335.979 561.36 336.379 562.16 337.659 562.16ZM320.819 558.92C320.819 561.36 322.579 562.84 325.339 562.84C328.179 562.84 330.419 561.6 332.259 560.16L332.219 559.96V553.72H328.219C322.499 553.72 320.819 556.12 320.819 558.92ZM365.767 565H361.527L353.647 535.68H357.607L363.727 561.12L370.247 535.68H374.647L381.207 561.12L387.287 535.68H391.247L383.367 565H379.167L372.487 538.92L365.767 565ZM397.092 532.76H401.052V537.28H397.092V532.76ZM401.972 541.56V565H398.212V544.48L394.692 544.16V541.56H401.972ZM421.698 540.88C426.978 540.88 429.578 544.56 429.578 549.76V565H425.818V550C425.818 546.24 424.458 543.96 420.938 543.96C418.018 543.96 415.938 545.64 414.298 547.68V565H410.538V541.56H413.298L414.018 544.88C415.938 542.36 418.378 540.88 421.698 540.88ZM454.042 543.72V534.48H457.802V565H455.042L454.402 562C452.362 564.44 449.882 565.64 446.642 565.64C440.482 565.64 436.322 560.88 436.322 553.56C436.322 545.76 440.842 540.88 447.162 540.88C450.122 540.88 452.322 542 454.042 543.72ZM447.162 562.6C450.122 562.6 452.322 561.16 454.042 559.52V546.92C452.362 545.2 450.242 543.88 447.442 543.88C443.522 543.88 440.122 546.64 440.122 553.56C440.122 559.68 443.042 562.6 447.162 562.6ZM475.998 565.64C469.638 565.64 464.798 561.24 464.798 553.32C464.798 545.28 469.718 540.88 475.998 540.88C482.318 540.88 487.238 545.32 487.238 553.32C487.238 561.24 482.358 565.64 475.998 565.64ZM475.998 562.64C480.278 562.64 483.478 559.44 483.478 553.32C483.478 547.12 480.278 543.92 475.998 543.92C471.758 543.92 468.558 547.12 468.558 553.32C468.558 559.44 471.758 562.64 475.998 562.64ZM502.813 565.04H498.213L491.613 541.56H495.493L500.773 561.8L506.213 541.56H510.413L515.853 561.8L521.093 541.56H524.973L518.413 565.04H513.733L508.293 544.84L502.813 565.04ZM545.97 565H542.29V535.68H548.01L556.93 560.52L565.93 535.68H571.61V565H567.93V540L558.69 565H555.21L545.97 540V565ZM598.753 562.16H599.193V565C598.753 565.16 598.193 565.2 597.633 565.2C595.473 565.2 594.113 564.04 593.673 562.48C591.953 564.28 589.313 565.64 585.873 565.64C581.153 565.64 578.153 563.04 578.153 559C578.153 554.8 580.673 551.36 588.753 551.28L593.313 551.24V548.48C593.313 545.44 591.673 543.72 588.353 543.72C585.273 543.72 583.073 545.2 582.793 547.8H579.113C579.393 543.56 583.273 540.88 588.353 540.88C594.193 540.88 597.073 543.88 597.073 548.68V559.88C597.073 561.36 597.473 562.16 598.753 562.16ZM581.913 558.92C581.913 561.36 583.673 562.84 586.433 562.84C589.273 562.84 591.513 561.6 593.353 560.16L593.313 559.96V553.72H589.313C583.593 553.72 581.913 556.12 581.913 558.92ZM616.815 540.88C622.095 540.88 624.695 544.56 624.695 549.76V565H620.935V550C620.935 546.24 619.575 543.96 616.055 543.96C613.135 543.96 611.055 545.64 609.415 547.68V565H605.655V541.56H608.415L609.135 544.88C611.055 542.36 613.495 540.88 616.815 540.88ZM651.839 562.16H652.279V565C651.839 565.16 651.279 565.2 650.719 565.2C648.559 565.2 647.199 564.04 646.759 562.48C645.039 564.28 642.399 565.64 638.959 565.64C634.239 565.64 631.239 563.04 631.239 559C631.239 554.8 633.759 551.36 641.839 551.28L646.399 551.24V548.48C646.399 545.44 644.759 543.72 641.439 543.72C638.359 543.72 636.159 545.2 635.879 547.8H632.199C632.479 543.56 636.359 540.88 641.439 540.88C647.279 540.88 650.159 543.88 650.159 548.68V559.88C650.159 561.36 650.559 562.16 651.839 562.16ZM634.999 558.92C634.999 561.36 636.759 562.84 639.519 562.84C642.359 562.84 644.599 561.6 646.439 560.16L646.399 559.96V553.72H642.399C636.679 553.72 634.999 556.12 634.999 558.92ZM674.901 544.2L675.461 541.56H678.261V563.84C678.261 569.92 674.061 573.12 667.981 573.12C661.941 573.12 658.501 570.28 658.021 566.8H661.781C662.141 568.72 664.301 570.2 667.981 570.2C671.861 570.2 674.501 568.4 674.501 563.84V559.96C672.461 562.2 670.061 563.24 667.221 563.24C660.941 563.24 657.181 558.4 657.181 552.32C657.181 545.76 661.421 540.88 667.541 540.88C670.501 540.88 672.901 542.04 674.901 544.2ZM667.661 560.2C670.581 560.2 672.781 558.84 674.501 557V547.04C672.821 545.12 670.741 543.88 668.021 543.88C664.141 543.88 660.981 546.72 660.981 552.32C660.981 557.28 663.741 560.2 667.661 560.2ZM706.428 552.96V554.04H689.068C689.308 560.04 691.828 562.68 696.028 562.68C699.148 562.68 701.268 561.2 702.468 558.52H706.148C704.708 563 701.108 565.64 696.028 565.64C689.348 565.64 685.228 561.24 685.228 553.24C685.228 545.16 689.948 540.88 696.068 540.88C702.428 540.88 706.428 545.08 706.428 552.96ZM689.068 551.6H702.708C702.468 546.56 700.268 543.76 696.068 543.76C691.788 543.76 689.428 546.8 689.068 551.6ZM738.228 540.88C743.228 540.88 745.668 544.6 745.668 549.76V565H741.908V550C741.908 546.2 740.708 543.96 737.548 543.96C734.788 543.96 732.868 545.72 731.268 547.64C731.388 548.32 731.428 549 731.428 549.76V565H727.668V550C727.668 546.16 726.428 543.96 723.308 543.96C720.668 543.96 718.748 545.6 717.188 547.52V565H713.428V541.56H716.188L716.868 544.84C718.748 542.36 720.948 540.88 723.988 540.88C727.268 540.88 729.468 542.52 730.588 545.12C732.548 542.64 734.908 540.88 738.228 540.88ZM773.615 552.96V554.04H756.255C756.495 560.04 759.015 562.68 763.215 562.68C766.335 562.68 768.455 561.2 769.655 558.52H773.335C771.895 563 768.295 565.64 763.215 565.64C756.535 565.64 752.415 561.24 752.415 553.24C752.415 545.16 757.135 540.88 763.255 540.88C769.615 540.88 773.615 545.08 773.615 552.96ZM756.255 551.6H769.895C769.655 546.56 767.455 543.76 763.255 543.76C758.975 543.76 756.615 546.8 756.255 551.6ZM791.776 540.88C797.056 540.88 799.656 544.56 799.656 549.76V565H795.896V550C795.896 546.24 794.536 543.96 791.016 543.96C788.096 543.96 786.016 545.64 784.376 547.68V565H780.616V541.56H783.376L784.096 544.88C786.016 542.36 788.456 540.88 791.776 540.88ZM817.16 561.96H819.96V565C819.04 565.12 817.84 565.2 816.76 565.2C811.72 565.2 808.96 563.04 808.96 558.16V544.48H805.48V541.56H809.12L809.76 536.08H812.72V541.56H818.96V544.48H812.72V557.84C812.72 560.72 814.24 561.96 817.16 561.96ZM524.148 620.64C516.268 620.64 510.308 615.32 510.308 605.32C510.308 595.4 516.268 590.04 524.148 590.04C532.028 590.04 537.988 595.4 537.988 605.32C537.988 615.32 532.028 620.64 524.148 620.64ZM524.148 617.32C529.828 617.32 534.028 613.36 534.028 605.32C534.028 597.32 529.828 593.36 524.148 593.36C518.508 593.36 514.268 597.32 514.268 605.32C514.268 613.36 518.508 617.32 524.148 617.32ZM554.393 620.64C547.273 620.64 543.233 617.16 542.953 610.92H546.833C547.073 615.48 549.713 617.48 554.393 617.48C558.793 617.48 561.193 615.48 561.193 612.16C561.193 609.48 559.793 608.2 556.273 607.28L551.073 605.92C546.233 604.68 543.913 602.36 543.913 598.12C543.913 593.2 548.273 590.04 554.393 590.04C560.353 590.04 564.393 593.08 564.753 598.64H560.913C560.593 595.2 558.393 593.24 554.393 593.24C550.233 593.24 547.793 595.2 547.793 598.12C547.793 600.92 549.713 601.92 552.713 602.72L557.913 604.08C562.753 605.36 565.193 607.84 565.193 612.16C565.193 617.64 560.633 620.64 554.393 620.64ZM583.459 587.76H587.419V592.28H583.459V587.76ZM588.339 596.56V620H584.579V599.48L581.059 599.16V596.56H588.339ZM608.065 595.88C613.345 595.88 615.945 599.56 615.945 604.76V620H612.185V605C612.185 601.24 610.825 598.96 607.305 598.96C604.385 598.96 602.305 600.64 600.665 602.68V620H596.905V596.56H599.665L600.385 599.88C602.305 597.36 604.745 595.88 608.065 595.88ZM633.449 616.96H636.249V620C635.329 620.12 634.129 620.2 633.049 620.2C628.009 620.2 625.249 618.04 625.249 613.16V599.48H621.769V596.56H625.409L626.049 591.08H629.009V596.56H635.249V599.48H629.009V612.84C629.009 615.72 630.529 616.96 633.449 616.96ZM661.779 607.96V609.04H644.419C644.659 615.04 647.179 617.68 651.379 617.68C654.499 617.68 656.619 616.2 657.819 613.52H661.499C660.059 618 656.459 620.64 651.379 620.64C644.699 620.64 640.579 616.24 640.579 608.24C640.579 600.16 645.299 595.88 651.419 595.88C657.779 595.88 661.779 600.08 661.779 607.96ZM644.419 606.6H658.059C657.819 601.56 655.619 598.76 651.419 598.76C647.139 598.76 644.779 601.8 644.419 606.6ZM684.94 599.2L685.5 596.56H688.3V618.84C688.3 624.92 684.1 628.12 678.02 628.12C671.98 628.12 668.54 625.28 668.06 621.8H671.82C672.18 623.72 674.34 625.2 678.02 625.2C681.9 625.2 684.54 623.4 684.54 618.84V614.96C682.5 617.2 680.1 618.24 677.26 618.24C670.98 618.24 667.22 613.4 667.22 607.32C667.22 600.76 671.46 595.88 677.58 595.88C680.54 595.88 682.94 597.04 684.94 599.2ZM677.7 615.2C680.62 615.2 682.82 613.84 684.54 612V602.04C682.86 600.12 680.78 598.88 678.06 598.88C674.18 598.88 671.02 601.72 671.02 607.32C671.02 612.28 673.78 615.2 677.7 615.2ZM708.227 596.48C708.907 596.48 709.387 596.52 709.747 596.56V600.68H708.147C705.347 600.68 702.787 601.48 701.347 604.64V620H697.587V599.48L694.067 599.16V596.56H700.347L701.267 601.24C702.707 598.4 705.307 596.48 708.227 596.48ZM733.167 617.16H733.607V620C733.167 620.16 732.607 620.2 732.047 620.2C729.887 620.2 728.527 619.04 728.087 617.48C726.367 619.28 723.727 620.64 720.287 620.64C715.567 620.64 712.567 618.04 712.567 614C712.567 609.8 715.087 606.36 723.167 606.28L727.727 606.24V603.48C727.727 600.44 726.087 598.72 722.767 598.72C719.687 598.72 717.487 600.2 717.207 602.8H713.527C713.807 598.56 717.687 595.88 722.767 595.88C728.607 595.88 731.487 598.88 731.487 603.68V614.88C731.487 616.36 731.887 617.16 733.167 617.16ZM716.327 613.92C716.327 616.36 718.087 617.84 720.847 617.84C723.687 617.84 725.927 616.6 727.767 615.16L727.727 614.96V608.72H723.727C718.007 608.72 716.327 611.12 716.327 613.92ZM748.839 616.96H751.639V620C750.719 620.12 749.519 620.2 748.439 620.2C743.399 620.2 740.639 618.04 740.639 613.16V599.48H737.159V596.56H740.799L741.439 591.08H744.399V596.56H750.639V599.48H744.399V612.84C744.399 615.72 745.919 616.96 748.839 616.96ZM757.6 587.76H761.56V592.28H757.6V587.76ZM762.48 596.56V620H758.72V599.48L755.2 599.16V596.56H762.48ZM780.686 620.64C774.326 620.64 769.486 616.24 769.486 608.32C769.486 600.28 774.406 595.88 780.686 595.88C787.006 595.88 791.926 600.32 791.926 608.32C791.926 616.24 787.046 620.64 780.686 620.64ZM780.686 617.64C784.966 617.64 788.166 614.44 788.166 608.32C788.166 602.12 784.966 598.92 780.686 598.92C776.446 598.92 773.246 602.12 773.246 608.32C773.246 614.44 776.446 617.64 780.686 617.64ZM810.096 595.88C815.376 595.88 817.976 599.56 817.976 604.76V620H814.216V605C814.216 601.24 812.856 598.96 809.336 598.96C806.416 598.96 804.336 600.64 802.696 602.68V620H798.936V596.56H801.696L802.416 599.88C804.336 597.36 806.776 595.88 810.096 595.88ZM394.603 675H390.923V645.68H396.643L405.563 670.52L414.563 645.68H420.243V675H416.563V650L407.323 675H403.843L394.603 650V675ZM438.186 675.64C431.826 675.64 426.986 671.24 426.986 663.32C426.986 655.28 431.906 650.88 438.186 650.88C444.506 650.88 449.426 655.32 449.426 663.32C449.426 671.24 444.546 675.64 438.186 675.64ZM438.186 672.64C442.466 672.64 445.666 669.44 445.666 663.32C445.666 657.12 442.466 653.92 438.186 653.92C433.946 653.92 430.746 657.12 430.746 663.32C430.746 669.44 433.946 672.64 438.186 672.64ZM472.596 653.72V644.48H476.356V675H473.596L472.956 672C470.916 674.44 468.436 675.64 465.196 675.64C459.036 675.64 454.876 670.88 454.876 663.56C454.876 655.76 459.396 650.88 465.716 650.88C468.676 650.88 470.876 652 472.596 653.72ZM465.716 672.6C468.676 672.6 470.876 671.16 472.596 669.52V656.92C470.916 655.2 468.796 653.88 465.996 653.88C462.076 653.88 458.676 656.64 458.676 663.56C458.676 669.68 461.596 672.6 465.716 672.6ZM504.553 662.96V664.04H487.193C487.433 670.04 489.953 672.68 494.153 672.68C497.273 672.68 499.393 671.2 500.593 668.52H504.273C502.833 673 499.233 675.64 494.153 675.64C487.473 675.64 483.353 671.24 483.353 663.24C483.353 655.16 488.073 650.88 494.193 650.88C500.553 650.88 504.553 655.08 504.553 662.96ZM487.193 661.6H500.833C500.593 656.56 498.393 653.76 494.193 653.76C489.913 653.76 487.553 656.8 487.193 661.6ZM522.953 651.48C523.633 651.48 524.113 651.52 524.473 651.56V655.68H522.873C520.073 655.68 517.513 656.48 516.073 659.64V675H512.313V654.48L508.793 654.16V651.56H515.073L515.993 656.24C517.433 653.4 520.033 651.48 522.953 651.48ZM541.307 650.88C546.587 650.88 549.187 654.56 549.187 659.76V675H545.427V660C545.427 656.24 544.067 653.96 540.547 653.96C537.627 653.96 535.547 655.64 533.907 657.68V675H530.147V651.56H532.907L533.627 654.88C535.547 652.36 537.987 650.88 541.307 650.88ZM578.687 675.64C572.007 675.64 567.767 671.2 567.767 663.32C567.767 655.56 572.247 650.88 578.807 650.88C584.407 650.88 587.487 653.68 588.447 657.8H584.687C583.847 655.52 582.287 653.92 578.807 653.92C574.567 653.92 571.527 657.2 571.527 663.32C571.527 669.52 574.487 672.64 578.687 672.64C581.527 672.64 583.927 671.24 584.807 668.52H588.567C587.487 673.08 583.647 675.64 578.687 675.64ZM613.948 672.16H614.388V675C613.948 675.16 613.388 675.2 612.828 675.2C610.668 675.2 609.308 674.04 608.868 672.48C607.148 674.28 604.508 675.64 601.068 675.64C596.348 675.64 593.348 673.04 593.348 669C593.348 664.8 595.868 661.36 603.948 661.28L608.508 661.24V658.48C608.508 655.44 606.868 653.72 603.548 653.72C600.468 653.72 598.268 655.2 597.988 657.8H594.308C594.588 653.56 598.468 650.88 603.548 650.88C609.388 650.88 612.268 653.88 612.268 658.68V669.88C612.268 671.36 612.668 672.16 613.948 672.16ZM597.108 668.92C597.108 671.36 598.868 672.84 601.628 672.84C604.468 672.84 606.708 671.6 608.548 670.16L608.508 669.96V663.72H604.508C598.788 663.72 597.108 666.12 597.108 668.92ZM631.97 650.88C638.13 650.88 642.29 655.64 642.29 662.96C642.29 670.76 637.77 675.64 631.45 675.64C628.53 675.64 626.33 674.52 624.61 672.8V682.4H620.85V651.56H623.61L624.21 654.52C626.25 652.04 628.77 650.88 631.97 650.88ZM631.17 672.64C635.09 672.64 638.49 669.88 638.49 662.96C638.49 656.84 635.57 653.92 631.45 653.92C628.53 653.92 626.37 655.32 624.61 657V669.64C626.29 671.32 628.41 672.64 631.17 672.64ZM668.128 672.16H668.568V675C668.128 675.16 667.568 675.2 667.008 675.2C664.848 675.2 663.488 674.04 663.048 672.48C661.328 674.28 658.688 675.64 655.248 675.64C650.528 675.64 647.528 673.04 647.528 669C647.528 664.8 650.048 661.36 658.128 661.28L662.688 661.24V658.48C662.688 655.44 661.048 653.72 657.728 653.72C654.648 653.72 652.448 655.2 652.168 657.8H648.488C648.768 653.56 652.648 650.88 657.728 650.88C663.568 650.88 666.448 653.88 666.448 658.68V669.88C666.448 671.36 666.848 672.16 668.128 672.16ZM651.288 668.92C651.288 671.36 653.048 672.84 655.808 672.84C658.648 672.84 660.888 671.6 662.728 670.16L662.688 669.96V663.72H658.688C652.968 663.72 651.288 666.12 651.288 668.92ZM686.19 650.88C692.35 650.88 696.51 655.64 696.51 662.96C696.51 670.76 691.99 675.64 685.67 675.64C682.47 675.64 680.15 674.32 678.35 672.32L677.79 675H675.03V644.48H678.79V654.12C680.75 651.92 683.15 650.88 686.19 650.88ZM685.39 672.64C689.31 672.64 692.71 669.88 692.71 662.96C692.71 656.84 689.79 653.92 685.67 653.92C682.71 653.92 680.51 655.36 678.79 657V669.6C680.43 671.32 682.59 672.64 685.39 672.64ZM703.147 642.76H707.107V647.28H703.147V642.76ZM708.027 651.56V675H704.267V654.48L700.747 654.16V651.56H708.027ZM724.393 671.88H726.593V675C725.553 675.12 724.793 675.2 723.713 675.2C719.633 675.2 716.353 673.4 716.393 668.36V644.48H720.153V667.8C720.153 670.8 721.873 671.88 724.393 671.88ZM731.35 642.76H735.31V647.28H731.35V642.76ZM736.23 651.56V675H732.47V654.48L728.95 654.16V651.56H736.23ZM753.996 671.96H756.796V675C755.876 675.12 754.676 675.2 753.596 675.2C748.556 675.2 745.796 673.04 745.796 668.16V654.48H742.316V651.56H745.956L746.596 646.08H749.556V651.56H755.796V654.48H749.556V667.84C749.556 670.72 751.076 671.96 753.996 671.96ZM762.756 642.76H766.716V647.28H762.756V642.76ZM767.636 651.56V675H763.876V654.48L760.356 654.16V651.56H767.636ZM795.842 662.96V664.04H778.482C778.722 670.04 781.242 672.68 785.442 672.68C788.562 672.68 790.682 671.2 791.882 668.52H795.562C794.122 673 790.522 675.64 785.442 675.64C778.762 675.64 774.642 671.24 774.642 663.24C774.642 655.16 779.362 650.88 785.482 650.88C791.842 650.88 795.842 655.08 795.842 662.96ZM778.482 661.6H792.122C791.882 656.56 789.682 653.76 785.482 653.76C781.202 653.76 778.842 656.8 778.482 661.6ZM810.763 675.64C804.442 675.64 801.202 673 800.723 668.52H804.442C804.843 671.52 807.003 672.76 810.763 672.76C814.403 672.76 816.083 671.12 816.083 668.88C816.083 666.88 814.803 665.84 811.763 665.04L807.523 663.96C804.283 663.12 801.643 661.56 801.643 657.6C801.643 653.72 805.083 650.88 810.443 650.88C815.803 650.88 819.003 653.16 819.443 657.8H815.763C815.483 654.92 813.643 653.76 810.443 653.76C807.163 653.76 805.403 655.32 805.403 657.4C805.403 659.84 807.083 660.44 809.043 661L813.283 662.12C816.923 663.08 819.843 664.76 819.843 668.8C819.843 672.8 816.523 675.64 810.763 675.64ZM363.079 730H359.399V700.68H365.119L374.039 725.52L383.039 700.68H388.719V730H385.039V705L375.799 730H372.319L363.079 705V730ZM411.862 723.92V706.56H415.622V730H412.862L412.182 726.64C410.182 729.16 407.782 730.64 404.502 730.64C399.382 730.64 396.782 727 396.782 721.76V706.56H400.542V721.6C400.542 725.72 402.182 727.56 405.302 727.56C408.142 727.56 410.262 725.84 411.862 723.92ZM431.971 726.88H434.171V730C433.131 730.12 432.371 730.2 431.291 730.2C427.211 730.2 423.931 728.4 423.971 723.36V699.48H427.731V722.8C427.731 725.8 429.451 726.88 431.971 726.88ZM447.902 726.96H450.702V730C449.782 730.12 448.582 730.2 447.502 730.2C442.462 730.2 439.702 728.04 439.702 723.16V709.48H436.222V706.56H439.862L440.502 701.08H443.462V706.56H449.702V709.48H443.462V722.84C443.462 725.72 444.982 726.96 447.902 726.96ZM456.662 697.76H460.622V702.28H456.662V697.76ZM461.542 706.56V730H457.782V709.48L454.262 709.16V706.56H461.542ZM469.508 717.04H479.588V720.08H469.508V717.04ZM512.33 705.88C517.33 705.88 519.77 709.6 519.77 714.76V730H516.01V715C516.01 711.2 514.81 708.96 511.65 708.96C508.89 708.96 506.97 710.72 505.37 712.64C505.49 713.32 505.53 714 505.53 714.76V730H501.77V715C501.77 711.16 500.53 708.96 497.41 708.96C494.77 708.96 492.85 710.6 491.29 712.52V730H487.53V706.56H490.29L490.97 709.84C492.85 707.36 495.05 705.88 498.09 705.88C501.37 705.88 503.57 707.52 504.69 710.12C506.65 707.64 509.01 705.88 512.33 705.88ZM537.717 730.64C531.357 730.64 526.517 726.24 526.517 718.32C526.517 710.28 531.437 705.88 537.717 705.88C544.037 705.88 548.957 710.32 548.957 718.32C548.957 726.24 544.077 730.64 537.717 730.64ZM537.717 727.64C541.997 727.64 545.197 724.44 545.197 718.32C545.197 712.12 541.997 708.92 537.717 708.92C533.477 708.92 530.277 712.12 530.277 718.32C530.277 724.44 533.477 727.64 537.717 727.64ZM567.128 705.88C572.408 705.88 575.008 709.56 575.008 714.76V730H571.248V715C571.248 711.24 569.888 708.96 566.368 708.96C563.447 708.96 561.368 710.64 559.728 712.68V730H555.968V706.56H558.728L559.448 709.88C561.368 707.36 563.808 705.88 567.128 705.88ZM582.951 697.76H586.911V702.28H582.951V697.76ZM587.831 706.56V730H584.071V709.48L580.551 709.16V706.56H587.831ZM605.597 726.96H608.397V730C607.477 730.12 606.277 730.2 605.197 730.2C600.157 730.2 597.397 728.04 597.397 723.16V709.48H593.917V706.56H597.557L598.197 701.08H601.157V706.56H607.397V709.48H601.157V722.84C601.157 725.72 602.677 726.96 605.597 726.96ZM623.928 730.64C617.568 730.64 612.728 726.24 612.728 718.32C612.728 710.28 617.648 705.88 623.928 705.88C630.248 705.88 635.168 710.32 635.168 718.32C635.168 726.24 630.288 730.64 623.928 730.64ZM623.928 727.64C628.208 727.64 631.408 724.44 631.408 718.32C631.408 712.12 628.208 708.92 623.928 708.92C619.688 708.92 616.488 712.12 616.488 718.32C616.488 724.44 619.688 727.64 623.928 727.64ZM653.578 706.48C654.258 706.48 654.738 706.52 655.098 706.56V710.68H653.498C650.698 710.68 648.138 711.48 646.698 714.64V730H642.938V709.48L639.418 709.16V706.56H645.698L646.618 711.24C648.058 708.4 650.658 706.48 653.578 706.48ZM662.569 729.76L659.889 736.4H658.049L659.329 730H657.409V725.16H662.569V729.76ZM693.902 730H689.022L679.142 700.68H683.262L691.462 727.32L699.662 700.68H703.822L693.902 730ZM718.377 730.64C711.257 730.64 707.217 727.16 706.937 720.92H710.817C711.057 725.48 713.697 727.48 718.377 727.48C722.777 727.48 725.177 725.48 725.177 722.16C725.177 719.48 723.777 718.2 720.257 717.28L715.057 715.92C710.217 714.68 707.897 712.36 707.897 708.12C707.897 703.2 712.257 700.04 718.377 700.04C724.337 700.04 728.377 703.08 728.737 708.64H724.897C724.577 705.2 722.377 703.24 718.377 703.24C714.217 703.24 711.777 705.2 711.777 708.12C711.777 710.92 713.697 711.92 716.697 712.72L721.897 714.08C726.737 715.36 729.177 717.84 729.177 722.16C729.177 727.64 724.617 730.64 718.377 730.64ZM737.457 737.6C736.737 737.6 735.897 737.52 735.337 737.4V734.44H737.217C738.857 734.44 740.297 734 741.057 731.92L741.777 729.92L732.817 706.56H736.657L743.657 726.64L749.977 706.56H753.817L744.497 732.48C743.377 735.64 741.657 737.6 737.457 737.6ZM770.76 705.88C776.04 705.88 778.64 709.56 778.64 714.76V730H774.88V715C774.88 711.24 773.52 708.96 770 708.96C767.08 708.96 765 710.64 763.36 712.68V730H759.6V706.56H762.36L763.08 709.88C765 707.36 767.44 705.88 770.76 705.88ZM796.304 730.64C789.624 730.64 785.384 726.2 785.384 718.32C785.384 710.56 789.864 705.88 796.424 705.88C802.024 705.88 805.104 708.68 806.064 712.8H802.304C801.464 710.52 799.904 708.92 796.424 708.92C792.184 708.92 789.144 712.2 789.144 718.32C789.144 724.52 792.104 727.64 796.304 727.64C799.144 727.64 801.544 726.24 802.424 723.52H806.184C805.104 728.08 801.264 730.64 796.304 730.64ZM817.882 729.76L815.202 736.4H813.362L814.642 730H812.722V725.16H817.882V729.76ZM400.622 785.64C392.742 785.64 387.222 780.24 387.222 770.28C387.222 760.52 393.022 755.04 400.822 755.04C407.382 755.04 411.662 758.6 412.582 763.64H408.622C408.022 760.68 405.302 758.36 400.822 758.36C395.182 758.36 391.182 762.4 391.182 770.28C391.182 778.32 395.142 782.32 400.582 782.32C405.342 782.32 408.022 779.72 408.862 775.92H412.822C411.982 781.4 407.582 785.64 400.622 785.64ZM429.123 785.64C422.763 785.64 417.923 781.24 417.923 773.32C417.923 765.28 422.843 760.88 429.123 760.88C435.443 760.88 440.363 765.32 440.363 773.32C440.363 781.24 435.483 785.64 429.123 785.64ZM429.123 782.64C433.403 782.64 436.603 779.44 436.603 773.32C436.603 767.12 433.403 763.92 429.123 763.92C424.883 763.92 421.683 767.12 421.683 773.32C421.683 779.44 424.883 782.64 429.123 782.64ZM455.174 781.88H457.374V785C456.334 785.12 455.574 785.2 454.494 785.2C450.414 785.2 447.134 783.4 447.174 778.36V754.48H450.934V777.8C450.934 780.8 452.654 781.88 455.174 781.88ZM472.131 785.64C465.771 785.64 460.931 781.24 460.931 773.32C460.931 765.28 465.851 760.88 472.131 760.88C478.451 760.88 483.371 765.32 483.371 773.32C483.371 781.24 478.491 785.64 472.131 785.64ZM472.131 782.64C476.411 782.64 479.611 779.44 479.611 773.32C479.611 767.12 476.411 763.92 472.131 763.92C467.891 763.92 464.691 767.12 464.691 773.32C464.691 779.44 467.891 782.64 472.131 782.64ZM501.782 761.48C502.462 761.48 502.942 761.52 503.302 761.56V765.68H501.702C498.902 765.68 496.342 766.48 494.902 769.64V785H491.142V764.48L487.622 764.16V761.56H493.902L494.822 766.24C496.262 763.4 498.862 761.48 501.782 761.48ZM523.67 785H519.79V755.68H530.35C537.11 755.68 540.79 758.76 540.79 764.56C540.79 770.32 537.11 773.72 530.35 773.72H523.67V785ZM523.67 758.8V770.56H529.83C534.19 770.56 536.83 768.6 536.83 764.56C536.83 760.52 534.23 758.8 529.83 758.8H523.67ZM558.305 761.48C558.985 761.48 559.465 761.52 559.825 761.56V765.68H558.225C555.425 765.68 552.865 766.48 551.425 769.64V785H547.665V764.48L544.145 764.16V761.56H550.425L551.345 766.24C552.785 763.4 555.385 761.48 558.305 761.48ZM574.24 785.64C567.88 785.64 563.04 781.24 563.04 773.32C563.04 765.28 567.96 760.88 574.24 760.88C580.56 760.88 585.48 765.32 585.48 773.32C585.48 781.24 580.6 785.64 574.24 785.64ZM574.24 782.64C578.52 782.64 581.72 779.44 581.72 773.32C581.72 767.12 578.52 763.92 574.24 763.92C570 763.92 566.8 767.12 566.8 773.32C566.8 779.44 570 782.64 574.24 782.64ZM608.811 752.76H612.771V757.28H608.811V752.76ZM593.131 761.56V760.48C593.131 755.88 595.771 753.92 600.851 753.92C602.011 753.92 604.131 754 605.491 754.12V756.8H601.011C598.371 756.8 596.731 757.76 596.731 760.64V761.56L604.331 762.08V764.48H596.891V785H593.131V764.48H589.451V761.56H593.131ZM613.691 761.56V785H609.931V764.48L606.411 764.16V761.56H613.691ZM629.978 781.88H632.178V785C631.138 785.12 630.378 785.2 629.298 785.2C625.218 785.2 621.938 783.4 621.978 778.36V754.48H625.738V777.8C625.738 780.8 627.458 781.88 629.978 781.88ZM656.936 772.96V774.04H639.576C639.816 780.04 642.336 782.68 646.536 782.68C649.656 782.68 651.776 781.2 652.976 778.52H656.656C655.216 783 651.616 785.64 646.536 785.64C639.856 785.64 635.736 781.24 635.736 773.24C635.736 765.16 640.456 760.88 646.576 760.88C652.936 760.88 656.936 765.08 656.936 772.96ZM639.576 771.6H653.216C652.976 766.56 650.776 763.76 646.576 763.76C642.296 763.76 639.936 766.8 639.576 771.6ZM671.856 785.64C665.536 785.64 662.296 783 661.816 778.52H665.536C665.936 781.52 668.096 782.76 671.856 782.76C675.496 782.76 677.176 781.12 677.176 778.88C677.176 776.88 675.896 775.84 672.856 775.04L668.616 773.96C665.376 773.12 662.736 771.56 662.736 767.6C662.736 763.72 666.176 760.88 671.536 760.88C676.896 760.88 680.096 763.16 680.536 767.8H676.856C676.576 764.92 674.736 763.76 671.536 763.76C668.256 763.76 666.496 765.32 666.496 767.4C666.496 769.84 668.176 770.44 670.136 771L674.376 772.12C678.016 773.08 680.936 774.76 680.936 778.8C680.936 782.8 677.616 785.64 671.856 785.64ZM692.374 784.76L689.694 791.4H687.854L689.134 785H687.214V780.16H692.374V784.76ZM716.248 785H712.368V755.68H716.248V768.08H731.648V755.68H735.568V785H731.648V771.36H716.248V785ZM743.537 752.76H747.497V757.28H743.537V752.76ZM748.417 761.56V785H744.657V764.48L741.137 764.16V761.56H748.417ZM756.743 755.68H765.823C775.383 755.68 780.383 760.44 780.383 770.24C780.383 780.16 775.383 785 766.023 785H756.743V755.68ZM766.063 758.92H760.623V781.76H766.263C772.903 781.76 776.423 778.2 776.423 770.24C776.423 762.32 772.903 758.92 766.063 758.92ZM791.092 785H787.212V755.68H797.772C804.532 755.68 808.212 758.76 808.212 764.56C808.212 770.32 804.532 773.72 797.772 773.72H791.092V785ZM791.092 758.8V770.56H797.252C801.612 770.56 804.252 768.6 804.252 764.56C804.252 760.52 801.652 758.8 797.252 758.8H791.092ZM817.967 785H814.087V755.68H817.967V785ZM560.858 840H556.978V810.68H560.858V823.08H576.258V810.68H580.178V840H576.258V826.36H560.858V840ZM588.147 807.76H592.107V812.28H588.147V807.76ZM593.027 816.56V840H589.267V819.48L585.747 819.16V816.56H593.027ZM617.753 819.2L618.313 816.56H621.113V838.84C621.113 844.92 616.913 848.12 610.833 848.12C604.793 848.12 601.353 845.28 600.873 841.8H604.633C604.993 843.72 607.153 845.2 610.833 845.2C614.713 845.2 617.353 843.4 617.353 838.84V834.96C615.313 837.2 612.913 838.24 610.073 838.24C603.793 838.24 600.033 833.4 600.033 827.32C600.033 820.76 604.273 815.88 610.393 815.88C613.353 815.88 615.753 817.04 617.753 819.2ZM610.513 835.2C613.433 835.2 615.633 833.84 617.353 832V822.04C615.673 820.12 613.593 818.88 610.873 818.88C606.993 818.88 603.833 821.72 603.833 827.32C603.833 832.28 606.593 835.2 610.513 835.2ZM640.799 815.88C646.079 815.88 648.679 819.56 648.679 824.76V840H644.919V825C644.919 821.24 643.559 818.96 640.039 818.96C637.119 818.96 635.039 820.64 633.399 822.68V840H629.639V809.48H633.399V819.52C635.319 817.24 637.639 815.88 640.799 815.88ZM656.383 827.04H666.463V830.08H656.383V827.04ZM691.005 819.2L691.525 816.56H694.325V847.4H690.565V837.4C688.605 839.6 686.205 840.64 683.165 840.64C677.005 840.64 672.845 835.88 672.845 828.56C672.845 820.76 677.365 815.88 683.685 815.88C686.885 815.88 689.205 817.2 691.005 819.2ZM683.685 837.6C686.645 837.6 688.845 836.16 690.565 834.52V821.92C688.885 820.2 686.765 818.88 683.965 818.88C680.045 818.88 676.645 821.64 676.645 828.56C676.645 834.68 679.565 837.6 683.685 837.6ZM717.683 833.92V816.56H721.443V840H718.683L718.003 836.64C716.003 839.16 713.603 840.64 710.322 840.64C705.203 840.64 702.603 837 702.603 831.76V816.56H706.363V831.6C706.363 835.72 708.003 837.56 711.123 837.56C713.963 837.56 716.083 835.84 717.683 833.92ZM748.831 837.16H749.271V840C748.831 840.16 748.271 840.2 747.711 840.2C745.551 840.2 744.191 839.04 743.751 837.48C742.031 839.28 739.391 840.64 735.951 840.64C731.231 840.64 728.231 838.04 728.231 834C728.231 829.8 730.751 826.36 738.831 826.28L743.391 826.24V823.48C743.391 820.44 741.751 818.72 738.431 818.72C735.351 818.72 733.151 820.2 732.871 822.8H729.191C729.471 818.56 733.351 815.88 738.431 815.88C744.271 815.88 747.151 818.88 747.151 823.68V834.88C747.151 836.36 747.551 837.16 748.831 837.16ZM731.991 833.92C731.991 836.36 733.751 837.84 736.511 837.84C739.351 837.84 741.591 836.6 743.431 835.16L743.391 834.96V828.72H739.391C733.671 828.72 731.991 831.12 731.991 833.92ZM763.533 836.88H765.733V840C764.693 840.12 763.933 840.2 762.853 840.2C758.773 840.2 755.493 838.4 755.533 833.36V809.48H759.293V832.8C759.293 835.8 761.013 836.88 763.533 836.88ZM770.49 807.76H774.45V812.28H770.49V807.76ZM775.37 816.56V840H771.61V819.48L768.09 819.16V816.56H775.37ZM793.136 836.96H795.936V840C795.016 840.12 793.816 840.2 792.736 840.2C787.696 840.2 784.936 838.04 784.936 833.16V819.48H781.456V816.56H785.096L785.736 811.08H788.696V816.56H794.936V819.48H788.696V832.84C788.696 835.72 790.216 836.96 793.136 836.96ZM804.137 847.6C803.417 847.6 802.577 847.52 802.017 847.4V844.44H803.897C805.537 844.44 806.977 844 807.737 841.92L808.457 839.92L799.497 816.56H803.337L810.337 836.64L816.657 816.56H820.497L811.177 842.48C810.057 845.64 808.337 847.6 804.137 847.6ZM190.193 895H186.313V865.68H190.193V895ZM209.667 870.88C214.947 870.88 217.547 874.56 217.547 879.76V895H213.787V880C213.787 876.24 212.427 873.96 208.907 873.96C205.987 873.96 203.907 875.64 202.267 877.68V895H198.507V871.56H201.267L201.987 874.88C203.907 872.36 206.347 870.88 209.667 870.88ZM242.01 873.72V864.48H245.77V895H243.01L242.37 892C240.33 894.44 237.85 895.64 234.61 895.64C228.45 895.64 224.29 890.88 224.29 883.56C224.29 875.76 228.81 870.88 235.13 870.88C238.09 870.88 240.29 872 242.01 873.72ZM235.13 892.6C238.09 892.6 240.29 891.16 242.01 889.52V876.92C240.33 875.2 238.21 873.88 235.41 873.88C231.49 873.88 228.09 876.64 228.09 883.56C228.09 889.68 231.01 892.6 235.13 892.6ZM253.967 862.76H257.927V867.28H253.967V862.76ZM258.847 871.56V895H255.087V874.48L251.567 874.16V871.56H258.847ZM275.333 895.64C269.013 895.64 265.773 893 265.293 888.52H269.013C269.413 891.52 271.573 892.76 275.333 892.76C278.973 892.76 280.653 891.12 280.653 888.88C280.653 886.88 279.373 885.84 276.333 885.04L272.093 883.96C268.853 883.12 266.213 881.56 266.213 877.6C266.213 873.72 269.653 870.88 275.013 870.88C280.373 870.88 283.573 873.16 284.013 877.8H280.333C280.053 874.92 278.213 873.76 275.013 873.76C271.733 873.76 269.973 875.32 269.973 877.4C269.973 879.84 271.653 880.44 273.613 881L277.853 882.12C281.493 883.08 284.413 884.76 284.413 888.8C284.413 892.8 281.093 895.64 275.333 895.64ZM300.05 891.96H302.85V895C301.93 895.12 300.73 895.2 299.65 895.2C294.61 895.2 291.85 893.04 291.85 888.16V874.48H288.37V871.56H292.01L292.65 866.08H295.61V871.56H301.85V874.48H295.61V887.84C295.61 890.72 297.13 891.96 300.05 891.96ZM308.811 862.76H312.771V867.28H308.811V862.76ZM313.691 871.56V895H309.931V874.48L306.411 874.16V871.56H313.691ZM333.417 870.88C338.697 870.88 341.297 874.56 341.297 879.76V895H337.537V880C337.537 876.24 336.177 873.96 332.657 873.96C329.737 873.96 327.657 875.64 326.017 877.68V895H322.257V871.56H325.017L325.737 874.88C327.657 872.36 330.097 870.88 333.417 870.88ZM365.76 874.2L366.32 871.56H369.12V893.84C369.12 899.92 364.92 903.12 358.84 903.12C352.8 903.12 349.36 900.28 348.88 896.8H352.64C353 898.72 355.16 900.2 358.84 900.2C362.72 900.2 365.36 898.4 365.36 893.84V889.96C363.32 892.2 360.92 893.24 358.08 893.24C351.8 893.24 348.04 888.4 348.04 882.32C348.04 875.76 352.28 870.88 358.4 870.88C361.36 870.88 363.76 872.04 365.76 874.2ZM358.52 890.2C361.44 890.2 363.64 888.84 365.36 887V877.04C363.68 875.12 361.6 873.88 358.88 873.88C355 873.88 351.84 876.72 351.84 882.32C351.84 887.28 354.6 890.2 358.52 890.2ZM392.487 888.92V871.56H396.247V895H393.487L392.807 891.64C390.807 894.16 388.407 895.64 385.127 895.64C380.007 895.64 377.407 892 377.407 886.76V871.56H381.167V886.6C381.167 890.72 382.807 892.56 385.927 892.56C388.767 892.56 390.887 890.84 392.487 888.92ZM404.436 862.76H408.396V867.28H404.436V862.76ZM409.316 871.56V895H405.556V874.48L402.036 874.16V871.56H409.316ZM425.802 895.64C419.482 895.64 416.242 893 415.762 888.52H419.482C419.882 891.52 422.042 892.76 425.802 892.76C429.442 892.76 431.122 891.12 431.122 888.88C431.122 886.88 429.842 885.84 426.802 885.04L422.562 883.96C419.322 883.12 416.682 881.56 416.682 877.6C416.682 873.72 420.122 870.88 425.482 870.88C430.842 870.88 434.042 873.16 434.482 877.8H430.802C430.522 874.92 428.682 873.76 425.482 873.76C422.202 873.76 420.442 875.32 420.442 877.4C420.442 879.84 422.122 880.44 424.082 881L428.322 882.12C431.962 883.08 434.882 884.76 434.882 888.8C434.882 892.8 431.562 895.64 425.802 895.64ZM452.479 870.88C457.759 870.88 460.359 874.56 460.359 879.76V895H456.599V880C456.599 876.24 455.239 873.96 451.719 873.96C448.799 873.96 446.719 875.64 445.079 877.68V895H441.319V864.48H445.079V874.52C446.999 872.24 449.319 870.88 452.479 870.88ZM487.503 892.16H487.943V895C487.503 895.16 486.943 895.2 486.383 895.2C484.223 895.2 482.863 894.04 482.423 892.48C480.703 894.28 478.063 895.64 474.623 895.64C469.903 895.64 466.903 893.04 466.903 889C466.903 884.8 469.423 881.36 477.503 881.28L482.063 881.24V878.48C482.063 875.44 480.423 873.72 477.103 873.72C474.023 873.72 471.823 875.2 471.543 877.8H467.863C468.143 873.56 472.023 870.88 477.103 870.88C482.943 870.88 485.823 873.88 485.823 878.68V889.88C485.823 891.36 486.223 892.16 487.503 892.16ZM470.663 888.92C470.663 891.36 472.423 892.84 475.183 892.84C478.023 892.84 480.263 891.6 482.103 890.16L482.063 889.96V883.72H478.063C472.343 883.72 470.663 886.12 470.663 888.92ZM505.565 870.88C511.725 870.88 515.885 875.64 515.885 882.96C515.885 890.76 511.365 895.64 505.045 895.64C501.845 895.64 499.525 894.32 497.725 892.32L497.165 895H494.405V864.48H498.165V874.12C500.125 871.92 502.525 870.88 505.565 870.88ZM504.765 892.64C508.685 892.64 512.085 889.88 512.085 882.96C512.085 876.84 509.165 873.92 505.045 873.92C502.085 873.92 499.885 875.36 498.165 877V889.6C499.805 891.32 501.965 892.64 504.765 892.64ZM530.682 891.88H532.882V895C531.842 895.12 531.082 895.2 530.002 895.2C525.922 895.2 522.642 893.4 522.682 888.36V864.48H526.442V887.8C526.442 890.8 528.162 891.88 530.682 891.88ZM557.639 882.96V884.04H540.279C540.519 890.04 543.039 892.68 547.239 892.68C550.359 892.68 552.479 891.2 553.679 888.52H557.359C555.919 893 552.319 895.64 547.239 895.64C540.559 895.64 536.439 891.24 536.439 883.24C536.439 875.16 541.159 870.88 547.279 870.88C553.639 870.88 557.639 875.08 557.639 882.96ZM540.279 881.6H553.919C553.679 876.56 551.479 873.76 547.279 873.76C542.999 873.76 540.639 876.8 540.279 881.6ZM589.475 866.8H584.995C582.355 866.8 580.715 867.76 580.715 870.64V871.56L588.315 872.08V874.48H580.875V895H577.115V874.48H573.435V871.56H577.115V870.48C577.115 865.88 579.755 863.92 584.835 863.92C585.995 863.92 588.115 864 589.475 864.12V866.8ZM605.414 871.48C606.094 871.48 606.574 871.52 606.934 871.56V875.68H605.334C602.534 875.68 599.974 876.48 598.534 879.64V895H594.774V874.48L591.254 874.16V871.56H597.534L598.454 876.24C599.894 873.4 602.494 871.48 605.414 871.48ZM621.35 895.64C614.99 895.64 610.15 891.24 610.15 883.32C610.15 875.28 615.07 870.88 621.35 870.88C627.67 870.88 632.59 875.32 632.59 883.32C632.59 891.24 627.71 895.64 621.35 895.64ZM621.35 892.64C625.63 892.64 628.83 889.44 628.83 883.32C628.83 877.12 625.63 873.92 621.35 873.92C617.11 873.92 613.91 877.12 613.91 883.32C613.91 889.44 617.11 892.64 621.35 892.64ZM664.4 870.88C669.4 870.88 671.84 874.6 671.84 879.76V895H668.08V880C668.08 876.2 666.88 873.96 663.72 873.96C660.96 873.96 659.04 875.72 657.44 877.64C657.56 878.32 657.6 879 657.6 879.76V895H653.84V880C653.84 876.16 652.6 873.96 649.48 873.96C646.84 873.96 644.92 875.6 643.36 877.52V895H639.6V871.56H642.36L643.04 874.84C644.92 872.36 647.12 870.88 650.16 870.88C653.44 870.88 655.64 872.52 656.76 875.12C658.72 872.64 661.08 870.88 664.4 870.88ZM703.143 870.88C708.423 870.88 711.023 874.56 711.023 879.76V895H707.263V880C707.263 876.24 705.903 873.96 702.383 873.96C699.463 873.96 697.383 875.64 695.743 877.68V895H691.983V871.56H694.743L695.463 874.88C697.383 872.36 699.823 870.88 703.143 870.88ZM738.167 892.16H738.607V895C738.167 895.16 737.607 895.2 737.047 895.2C734.887 895.2 733.527 894.04 733.087 892.48C731.367 894.28 728.727 895.64 725.287 895.64C720.567 895.64 717.567 893.04 717.567 889C717.567 884.8 720.087 881.36 728.167 881.28L732.727 881.24V878.48C732.727 875.44 731.087 873.72 727.767 873.72C724.687 873.72 722.487 875.2 722.207 877.8H718.527C718.807 873.56 722.687 870.88 727.767 870.88C733.607 870.88 736.487 873.88 736.487 878.68V889.88C736.487 891.36 736.887 892.16 738.167 892.16ZM721.327 888.92C721.327 891.36 723.087 892.84 725.847 892.84C728.687 892.84 730.927 891.6 732.767 890.16L732.727 889.96V883.72H728.727C723.007 883.72 721.327 886.12 721.327 888.92ZM753.839 891.96H756.639V895C755.719 895.12 754.519 895.2 753.439 895.2C748.399 895.2 745.639 893.04 745.639 888.16V874.48H742.159V871.56H745.799L746.439 866.08H749.399V871.56H755.639V874.48H749.399V887.84C749.399 890.72 750.919 891.96 753.839 891.96ZM762.6 862.76H766.56V867.28H762.6V862.76ZM767.48 871.56V895H763.72V874.48L760.2 874.16V871.56H767.48ZM785.926 895H781.646L773.286 871.56H777.166L783.766 892.2L790.366 871.56H794.286L785.926 895ZM819.279 882.96V884.04H801.919C802.159 890.04 804.679 892.68 808.879 892.68C811.999 892.68 814.119 891.2 815.319 888.52H818.999C817.559 893 813.959 895.64 808.879 895.64C802.199 895.64 798.079 891.24 798.079 883.24C798.079 875.16 802.799 870.88 808.919 870.88C815.279 870.88 819.279 875.08 819.279 882.96ZM801.919 881.6H815.559C815.319 876.56 813.119 873.76 808.919 873.76C804.639 873.76 802.279 876.8 801.919 881.6Z" fill="black"/>
<path d="M951 710H875M875 710V532M875 710V897.5" stroke="black" stroke-width="4"/>
</svg>
