<svg width="1920" height="1080" viewBox="0 0 1920 1080" fill="none" xmlns="http://www.w3.org/2000/svg">
<rect width="1920" height="1080" fill="white"/>
<rect x="96" y="731" width="830" height="100" fill="#C0C0C0"/>
<rect x="96" y="581" width="830" height="100" fill="#D0D0D0"/>
<path d="M446.383 812.235C442.762 812.235 439.057 811.612 435.267 810.368C431.534 809.067 428.111 807.059 425 804.343L433.315 794.331C435.408 795.915 437.643 797.216 440.019 798.234C442.395 799.196 444.855 799.676 447.401 799.676C449.607 799.676 451.163 799.365 452.068 798.743C453.029 798.121 453.51 797.357 453.51 796.452C453.51 795.66 453.312 795.01 452.916 794.5C452.577 793.935 452.068 793.454 451.389 793.058C450.71 792.605 449.862 792.181 448.843 791.785C447.882 791.389 446.779 790.937 445.534 790.428L438.661 787.543C437.077 786.977 435.578 786.242 434.164 785.337C432.75 784.375 431.505 783.272 430.431 782.027C429.412 780.726 428.592 779.255 427.97 777.615C427.348 775.975 427.036 774.164 427.036 772.184C427.036 769.809 427.546 767.602 428.564 765.566C429.582 763.473 430.996 761.663 432.806 760.136C434.673 758.552 436.879 757.307 439.425 756.402C442.027 755.497 444.912 755.044 448.08 755.044C451.361 755.044 454.642 755.638 457.922 756.826C461.203 758.014 464.202 759.881 466.917 762.427L459.62 771.591C457.64 770.289 455.716 769.3 453.85 768.621C452.039 767.942 449.833 767.602 447.231 767.602C445.591 767.602 444.261 767.914 443.243 768.536C442.281 769.102 441.801 770.035 441.801 771.336C441.801 771.958 441.999 772.524 442.395 773.033C442.791 773.486 443.356 773.91 444.092 774.306C444.827 774.702 445.732 775.098 446.807 775.494C447.882 775.89 449.098 776.342 450.456 776.851L456.819 779.482C460.553 780.839 463.41 782.734 465.389 785.167C467.426 787.599 468.444 790.739 468.444 794.585C468.444 796.905 467.963 799.139 467.002 801.289C466.04 803.438 464.626 805.333 462.759 806.974C460.892 808.558 458.573 809.83 455.801 810.792C453.086 811.754 449.946 812.235 446.383 812.235Z" fill="#292929"/>
<path d="M474.497 811.216V756.063H489.261V776.597H489.6L503.177 756.063H519.299L503.007 778.379L520.656 811.216H504.534L494.437 790.003L489.261 797.131V811.216H474.497Z" fill="#292929"/>
<path d="M564.732 784.403L563.883 788.221H573.726L572.878 784.403C572.255 781.744 571.577 778.888 570.841 775.833C570.162 772.722 569.512 769.752 568.89 766.924H568.55C567.928 769.752 567.278 772.722 566.599 775.833C565.976 778.888 565.354 781.744 564.732 784.403ZM543.604 811.216L560.235 756.063H577.884L594.515 811.216H579.072L576.357 799.507H561.253L558.538 811.216H543.604Z" fill="#292929"/>
<circle cx="530.876" cy="745.145" r="9.14513" fill="#292929"/>
<rect x="466.106" y="824.623" width="64.8644" height="1.50848" rx="0.754238" fill="url(#paint0_linear_412_213)"/>
<rect x="522.674" y="755.61" width="5.65678" height="55.0593" fill="#E94037"/>
<rect x="528.331" y="755.61" width="5.65678" height="55.0593" fill="#70BF4F"/>
<rect x="533.987" y="755.61" width="5.65678" height="55.0593" fill="#465BA6"/>
<path d="M530.688 824.623L522.58 813.309H539.173L530.688 824.623Z" fill="#292929"/>
<path d="M434.315 649.427C434.315 648.072 433.739 646.988 432.586 646.176C431.433 645.363 430.008 644.618 428.313 643.941C426.617 643.264 424.752 642.586 422.717 641.909C420.682 641.164 418.817 640.182 417.122 638.963C415.426 637.676 414.002 636.085 412.849 634.188C411.696 632.224 411.119 629.718 411.119 626.671C411.119 621.659 412.611 617.833 415.596 615.191C418.58 612.55 422.887 611.229 428.516 611.229C432.382 611.229 435.875 611.636 438.995 612.448C442.115 613.261 444.557 614.175 446.32 615.191L443.37 624.741C441.81 624.131 439.843 623.488 437.469 622.81C435.095 622.133 432.687 621.795 430.246 621.795C426.312 621.795 424.345 623.318 424.345 626.366C424.345 627.585 424.921 628.567 426.074 629.312C427.228 630.057 428.652 630.768 430.347 631.445C432.043 632.055 433.908 632.732 435.943 633.477C437.978 634.222 439.843 635.204 441.539 636.423C443.234 637.575 444.659 639.098 445.812 640.995C446.965 642.891 447.541 645.329 447.541 648.309C447.541 653.456 445.879 657.52 442.556 660.5C439.3 663.412 434.383 664.868 427.804 664.868C424.209 664.868 420.818 664.394 417.63 663.446C414.51 662.565 411.967 661.516 410 660.297L413.663 650.442C415.223 651.323 417.291 652.203 419.869 653.084C422.446 653.896 425.091 654.303 427.804 654.303C429.771 654.303 431.331 653.93 432.484 653.185C433.705 652.44 434.315 651.187 434.315 649.427Z" fill="black"/>
<path d="M472.963 642.417H469.402V663.446H456.176V592.334H469.402V634.29H471.551L484.052 612.652H498.6L484.268 635.255L500.534 663.446H485.375L472.963 642.417Z" fill="black"/>
<path d="M507.371 612.652H520.597V663.446H507.371V612.652Z" fill="black"/>
<path d="M560.39 615.598C563.103 614.379 566.325 613.43 570.055 612.753C573.785 612.008 577.685 611.636 581.755 611.636C585.282 611.636 588.232 612.076 590.606 612.956C592.98 613.769 594.845 614.954 596.202 616.512C597.626 618.07 598.609 619.932 599.152 622.099C599.762 624.267 600.068 626.705 600.068 629.414C600.068 632.394 599.966 635.407 599.762 638.455C599.559 641.435 599.423 644.381 599.355 647.293C599.355 650.205 599.457 653.05 599.661 655.827C599.864 658.536 600.373 661.109 601.187 663.547H590.403L588.266 656.538H587.757C586.401 658.637 584.502 660.466 582.06 662.024C579.686 663.513 576.6 664.258 572.802 664.258C570.428 664.258 568.292 663.92 566.393 663.243C564.493 662.498 562.866 661.482 561.509 660.195C560.153 658.84 559.101 657.283 558.355 655.522C557.609 653.693 557.236 651.662 557.236 649.427C557.236 646.311 557.914 643.704 559.271 641.604C560.695 639.437 562.696 637.71 565.273 636.423C567.919 635.069 571.039 634.154 574.633 633.68C578.296 633.139 582.365 632.969 586.842 633.172C587.316 629.38 587.045 626.671 586.028 625.045C585.01 623.352 582.738 622.506 579.211 622.506C576.566 622.506 573.752 622.777 570.767 623.318C567.851 623.86 565.443 624.571 563.544 625.452L560.39 615.598ZM577.177 653.389C579.822 653.389 581.924 652.813 583.484 651.662C585.044 650.442 586.197 649.156 586.943 647.801V641.198C584.841 640.995 582.806 640.961 580.839 641.096C578.94 641.232 577.244 641.537 575.752 642.011C574.26 642.485 573.073 643.162 572.192 644.042C571.31 644.923 570.869 646.04 570.869 647.395C570.869 649.291 571.412 650.781 572.497 651.865C573.65 652.881 575.21 653.389 577.177 653.389Z" fill="black"/>
<path d="M534.444 660.971H547.706V665.529C547.706 671.674 546.547 676.468 544.099 679.709C541.651 682.951 537.74 684.571 532.367 684.571C530.327 684.571 528.15 684.335 525.838 683.862V672.822C526.29 672.822 526.72 672.923 527.164 672.923C530.225 672.923 532.197 671.944 533.081 669.986C534.033 668.027 534.444 665.427 534.444 661.984V660.971Z" fill="url(#paint1_linear_412_213)"/>
<path d="M609.765 572.83L565.164 528.23V528.23C571.918 521.476 582.868 521.476 589.622 528.23L609.765 548.372C616.519 555.126 616.519 566.076 609.765 572.83V572.83Z" fill="#EA6C00"/>
<mask id="mask0_412_213" style="mask-type:alpha" maskUnits="userSpaceOnUse" x="522" y="558" width="58" height="58">
<path d="M573.796 586.857C578.51 591.692 575.055 598.547 579.551 603.043L566.962 615.632L522.362 571.031L534.951 558.443C539.267 562.759 546.335 559.578 551.136 564.198C556.13 569.003 552.35 575.842 557.251 580.743C562.152 585.644 568.958 581.895 573.796 586.857Z" fill="#FEEEB7"/>
</mask>
<g mask="url(#mask0_412_213)">
<path d="M534.951 583.62L534.951 558.443L540.166 553.227L584.767 597.828L579.551 603.043H554.374L534.951 583.62Z" fill="#FEEEB7"/>
</g>
<path d="M550.777 603.043H534.951V587.217L550.777 603.043Z" fill="black"/>
<mask id="mask1_412_213" style="mask-type:alpha" maskUnits="userSpaceOnUse" x="536" y="530" width="72" height="72">
<path d="M575.595 585.059C580.308 589.894 576.854 596.749 581.35 601.245L607.966 574.629L563.366 530.028L536.749 556.645C541.065 560.961 548.134 557.78 552.935 562.399C557.929 567.205 554.149 574.044 559.05 578.945C563.95 583.846 570.757 580.097 575.595 585.059Z" fill="#EEEEEE"/>
</mask>
<g mask="url(#mask1_412_213)">
<rect x="581.35" y="601.245" width="14.2427" height="37.6414" transform="rotate(-135 581.35 601.245)" fill="#FDAD00"/>
<rect x="546.82" y="566.716" width="14.2427" height="37.6414" transform="rotate(-135 546.82 566.716)" fill="#FFBF1F"/>
<rect x="569.48" y="589.375" width="29.5027" height="37.6414" transform="rotate(-135 569.48 589.375)" fill="#FDD231"/>
</g>
<rect x="534.499" y="612.686" width="13.2077" height="48.2838" fill="url(#paint2_linear_412_213)"/>
<ellipse cx="513.929" cy="597.639" rx="7.7947" ry="7.90296" fill="black"/>
<rect x="96" y="881" width="250" height="100" fill="#B0B0B0"/>
<path d="M145.489 917.68H154.569C164.129 917.68 169.129 922.44 169.129 932.24C169.129 942.16 164.129 947 154.769 947H145.489V917.68ZM154.809 920.92H149.369V943.76H155.009C161.649 943.76 165.169 940.2 165.169 932.24C165.169 924.32 161.649 920.92 154.809 920.92ZM175.838 914.76H179.798V919.28H175.838V914.76ZM180.718 923.56V947H176.958V926.48L173.438 926.16V923.56H180.718ZM200.684 923.48C201.364 923.48 201.844 923.52 202.204 923.56V927.68H200.604C197.804 927.68 195.244 928.48 193.804 931.64V947H190.044V926.48L186.524 926.16V923.56H192.804L193.724 928.24C195.164 925.4 197.764 923.48 200.684 923.48ZM226.619 934.96V936.04H209.259C209.499 942.04 212.019 944.68 216.219 944.68C219.339 944.68 221.459 943.2 222.659 940.52H226.339C224.899 945 221.299 947.64 216.219 947.64C209.539 947.64 205.419 943.24 205.419 935.24C205.419 927.16 210.139 922.88 216.259 922.88C222.619 922.88 226.619 927.08 226.619 934.96ZM209.259 933.6H222.899C222.659 928.56 220.459 925.76 216.259 925.76C211.979 925.76 209.619 928.8 209.259 933.6ZM242.98 947.64C236.3 947.64 232.06 943.2 232.06 935.32C232.06 927.56 236.54 922.88 243.1 922.88C248.7 922.88 251.78 925.68 252.74 929.8H248.98C248.14 927.52 246.58 925.92 243.1 925.92C238.86 925.92 235.82 929.2 235.82 935.32C235.82 941.52 238.78 944.64 242.98 944.64C245.82 944.64 248.22 943.24 249.1 940.52H252.86C251.78 945.08 247.94 947.64 242.98 947.64ZM268.757 943.96H271.557V947C270.637 947.12 269.437 947.2 268.357 947.2C263.317 947.2 260.557 945.04 260.557 940.16V926.48H257.077V923.56H260.717L261.357 918.08H264.317V923.56H270.557V926.48H264.317V939.84C264.317 942.72 265.837 943.96 268.757 943.96ZM298.358 917.68L289.398 931.8L299.158 947H294.838L287.078 934.44L279.318 947H274.998L284.798 931.8L275.798 917.68H280.078L287.078 929.48L294.038 917.68H298.358Z" fill="white"/>
<rect x="386" y="881" width="250" height="100" fill="#B0B0B0"/>
<path d="M441.683 947.64C449.563 947.64 455.523 942.32 455.523 932.32C455.523 922.4 449.563 917.04 441.683 917.04C433.803 917.04 427.843 922.4 427.843 932.32C427.843 942.32 433.803 947.64 441.683 947.64ZM441.683 944.32C436.043 944.32 431.803 940.36 431.803 932.32C431.803 924.32 436.043 920.36 441.683 920.36C447.363 920.36 451.563 924.32 451.563 932.32C451.563 940.36 447.363 944.32 441.683 944.32ZM473.763 922.88C470.563 922.88 468.043 924.04 466.003 926.52L465.403 923.56H462.643V954.4H466.403V944.8C468.123 946.52 470.323 947.64 473.243 947.64C479.563 947.64 484.083 942.76 484.083 934.96C484.083 927.64 479.923 922.88 473.763 922.88ZM472.963 944.64C470.203 944.64 468.083 943.32 466.403 941.64V929C468.163 927.32 470.323 925.92 473.243 925.92C477.363 925.92 480.283 928.84 480.283 934.96C480.283 941.88 476.883 944.64 472.963 944.64ZM510.721 934.96C510.721 927.08 506.721 922.88 500.361 922.88C494.241 922.88 489.521 927.16 489.521 935.24C489.521 943.24 493.641 947.64 500.321 947.64C505.401 947.64 509.001 945 510.441 940.52H506.761C505.561 943.2 503.441 944.68 500.321 944.68C496.121 944.68 493.601 942.04 493.361 936.04H510.721V934.96ZM493.361 933.6C493.721 928.8 496.081 925.76 500.361 925.76C504.561 925.76 506.761 928.56 507.001 933.6H493.361ZM528.881 922.88C525.561 922.88 523.121 924.36 521.201 926.88L520.481 923.56H517.721V947H521.481V929.68C523.121 927.64 525.201 925.96 528.121 925.96C531.641 925.96 533.001 928.24 533.001 932V947H536.761V931.76C536.761 926.56 534.161 922.88 528.881 922.88ZM557.545 934.28L565.545 934.68V939.88C563.705 942.24 561.225 944.36 557.065 944.36C551.145 944.36 547.545 940.36 547.545 932.28C547.545 924.76 551.465 920.36 557.305 920.36C561.705 920.36 564.345 922.6 564.945 925.64H568.825C567.945 920.16 563.385 917.04 557.305 917.04C548.945 917.04 543.585 923.04 543.585 932.28C543.585 942.4 549.025 947.64 556.745 947.64C561.225 947.64 564.145 945.72 565.945 943.16L566.665 947H569.385V931.52H557.545V934.28ZM595.422 947V943.6H580.502V917.68H576.622V947H595.422Z" fill="white"/>
<rect x="676" y="881" width="250" height="100" fill="#B0B0B0"/>
<path d="M747.118 947H743.438V917.68H749.158L758.078 942.52L767.078 917.68H772.758V947H769.078V922L759.838 947H756.358L747.118 922V947ZM800.701 934.96V936.04H783.341C783.581 942.04 786.101 944.68 790.301 944.68C793.421 944.68 795.541 943.2 796.741 940.52H800.421C798.981 945 795.381 947.64 790.301 947.64C783.621 947.64 779.501 943.24 779.501 935.24C779.501 927.16 784.221 922.88 790.341 922.88C796.701 922.88 800.701 927.08 800.701 934.96ZM783.341 933.6H796.981C796.741 928.56 794.541 925.76 790.341 925.76C786.061 925.76 783.701 928.8 783.341 933.6ZM816.902 943.96H819.702V947C818.782 947.12 817.582 947.2 816.502 947.2C811.462 947.2 808.702 945.04 808.702 940.16V926.48H805.222V923.56H808.862L809.502 918.08H812.462V923.56H818.702V926.48H812.462V939.84C812.462 942.72 813.982 943.96 816.902 943.96ZM844.862 944.16H845.302V947C844.862 947.16 844.302 947.2 843.742 947.2C841.582 947.2 840.222 946.04 839.782 944.48C838.062 946.28 835.422 947.64 831.982 947.64C827.262 947.64 824.262 945.04 824.262 941C824.262 936.8 826.782 933.36 834.862 933.28L839.422 933.24V930.48C839.422 927.44 837.782 925.72 834.462 925.72C831.382 925.72 829.182 927.2 828.902 929.8H825.222C825.502 925.56 829.382 922.88 834.462 922.88C840.302 922.88 843.182 925.88 843.182 930.68V941.88C843.182 943.36 843.582 944.16 844.862 944.16ZM828.022 940.92C828.022 943.36 829.782 944.84 832.542 944.84C835.382 944.84 837.622 943.6 839.462 942.16L839.422 941.96V935.72H835.422C829.702 935.72 828.022 938.12 828.022 940.92ZM859.564 943.88H861.764V947C860.724 947.12 859.964 947.2 858.884 947.2C854.804 947.2 851.524 945.4 851.564 940.36V916.48H855.324V939.8C855.324 942.8 857.044 943.88 859.564 943.88Z" fill="white"/>
<path d="M955 626H1054.5" stroke="black" stroke-width="4"/>
<path d="M1095.76 643.64C1088.64 643.64 1084.6 640.16 1084.32 633.92H1088.2C1088.44 638.48 1091.08 640.48 1095.76 640.48C1100.16 640.48 1102.56 638.48 1102.56 635.16C1102.56 632.48 1101.16 631.2 1097.64 630.28L1092.44 628.92C1087.6 627.68 1085.28 625.36 1085.28 621.12C1085.28 616.2 1089.64 613.04 1095.76 613.04C1101.72 613.04 1105.76 616.08 1106.12 621.64H1102.28C1101.96 618.2 1099.76 616.24 1095.76 616.24C1091.6 616.24 1089.16 618.2 1089.16 621.12C1089.16 623.92 1091.08 624.92 1094.08 625.72L1099.28 627.08C1104.12 628.36 1106.56 630.84 1106.56 635.16C1106.56 640.64 1102 643.64 1095.76 643.64ZM1132.79 643H1128.63L1120.79 631.16L1117.07 634.88V643H1113.35V612.48H1117.07V630.84L1127.95 619.56H1132.39L1123.11 628.84L1132.79 643ZM1138.07 610.76H1142.03V615.28H1138.07V610.76ZM1142.95 619.56V643H1139.19V622.48L1135.67 622.16V619.56H1142.95ZM1170.35 640.16H1170.79V643C1170.35 643.16 1169.79 643.2 1169.23 643.2C1167.07 643.2 1165.71 642.04 1165.27 640.48C1163.55 642.28 1160.91 643.64 1157.47 643.64C1152.75 643.64 1149.75 641.04 1149.75 637C1149.75 632.8 1152.27 629.36 1160.35 629.28L1164.91 629.24V626.48C1164.91 623.44 1163.27 621.72 1159.95 621.72C1156.87 621.72 1154.67 623.2 1154.39 625.8H1150.71C1150.99 621.56 1154.87 618.88 1159.95 618.88C1165.79 618.88 1168.67 621.88 1168.67 626.68V637.88C1168.67 639.36 1169.07 640.16 1170.35 640.16ZM1153.51 636.92C1153.51 639.36 1155.27 640.84 1158.03 640.84C1160.87 640.84 1163.11 639.6 1164.95 638.16L1164.91 637.96V631.72H1160.91C1155.19 631.72 1153.51 634.12 1153.51 636.92ZM1200.25 618.88C1206.41 618.88 1210.57 623.64 1210.57 630.96C1210.57 638.76 1206.05 643.64 1199.73 643.64C1196.53 643.64 1194.21 642.32 1192.41 640.32L1191.85 643H1189.09V612.48H1192.85V622.12C1194.81 619.92 1197.21 618.88 1200.25 618.88ZM1199.45 640.64C1203.37 640.64 1206.77 637.88 1206.77 630.96C1206.77 624.84 1203.85 621.92 1199.73 621.92C1196.77 621.92 1194.57 623.36 1192.85 625V637.6C1194.49 639.32 1196.65 640.64 1199.45 640.64ZM1217.21 610.76H1221.17V615.28H1217.21V610.76ZM1222.09 619.56V643H1218.33V622.48L1214.81 622.16V619.56H1222.09ZM1241.82 618.88C1247.1 618.88 1249.7 622.56 1249.7 627.76V643H1245.94V628C1245.94 624.24 1244.58 621.96 1241.06 621.96C1238.13 621.96 1236.06 623.64 1234.42 625.68V643H1230.66V619.56H1233.42L1234.14 622.88C1236.06 620.36 1238.5 618.88 1241.82 618.88ZM1274.16 621.72V612.48H1277.92V643H1275.16L1274.52 640C1272.48 642.44 1270 643.64 1266.76 643.64C1260.6 643.64 1256.44 638.88 1256.44 631.56C1256.44 623.76 1260.96 618.88 1267.28 618.88C1270.24 618.88 1272.44 620 1274.16 621.72ZM1267.28 640.6C1270.24 640.6 1272.44 639.16 1274.16 637.52V624.92C1272.48 623.2 1270.36 621.88 1267.56 621.88C1263.64 621.88 1260.24 624.64 1260.24 631.56C1260.24 637.68 1263.16 640.6 1267.28 640.6ZM1286.12 610.76H1290.08V615.28H1286.12V610.76ZM1291 619.56V643H1287.24V622.48L1283.72 622.16V619.56H1291ZM1310.72 618.88C1316 618.88 1318.6 622.56 1318.6 627.76V643H1314.84V628C1314.84 624.24 1313.48 621.96 1309.96 621.96C1307.04 621.96 1304.96 623.64 1303.32 625.68V643H1299.56V619.56H1302.32L1303.04 622.88C1304.96 620.36 1307.4 618.88 1310.72 618.88ZM1343.07 622.2L1343.63 619.56H1346.43V641.84C1346.43 647.92 1342.23 651.12 1336.15 651.12C1330.11 651.12 1326.67 648.28 1326.19 644.8H1329.95C1330.31 646.72 1332.47 648.2 1336.15 648.2C1340.03 648.2 1342.67 646.4 1342.67 641.84V637.96C1340.63 640.2 1338.23 641.24 1335.39 641.24C1329.11 641.24 1325.35 636.4 1325.35 630.32C1325.35 623.76 1329.59 618.88 1335.71 618.88C1338.67 618.88 1341.07 620.04 1343.07 622.2ZM1335.83 638.2C1338.75 638.2 1340.95 636.84 1342.67 635V625.04C1340.99 623.12 1338.91 621.88 1336.19 621.88C1332.31 621.88 1329.15 624.72 1329.15 630.32C1329.15 635.28 1331.91 638.2 1335.83 638.2ZM1362.87 643.64C1356.55 643.64 1353.31 641 1352.83 636.52H1356.55C1356.95 639.52 1359.11 640.76 1362.87 640.76C1366.51 640.76 1368.19 639.12 1368.19 636.88C1368.19 634.88 1366.91 633.84 1363.87 633.04L1359.63 631.96C1356.39 631.12 1353.75 629.56 1353.75 625.6C1353.75 621.72 1357.19 618.88 1362.55 618.88C1367.91 618.88 1371.11 621.16 1371.55 625.8H1367.87C1367.59 622.92 1365.75 621.76 1362.55 621.76C1359.27 621.76 1357.51 623.32 1357.51 625.4C1357.51 627.84 1359.19 628.44 1361.15 629L1365.39 630.12C1369.03 631.08 1371.95 632.76 1371.95 636.8C1371.95 640.8 1368.63 643.64 1362.87 643.64ZM1403.23 614.8H1398.75C1396.11 614.8 1394.47 615.76 1394.47 618.64V619.56L1402.07 620.08V622.48H1394.63V643H1390.87V622.48H1387.19V619.56H1390.87V618.48C1390.87 613.88 1393.51 611.92 1398.59 611.92C1399.75 611.92 1401.87 612 1403.23 612.12V614.8ZM1417.4 643.64C1411.04 643.64 1406.2 639.24 1406.2 631.32C1406.2 623.28 1411.12 618.88 1417.4 618.88C1423.72 618.88 1428.64 623.32 1428.64 631.32C1428.64 639.24 1423.76 643.64 1417.4 643.64ZM1417.4 640.64C1421.68 640.64 1424.88 637.44 1424.88 631.32C1424.88 625.12 1421.68 621.92 1417.4 621.92C1413.16 621.92 1409.96 625.12 1409.96 631.32C1409.96 637.44 1413.16 640.64 1417.4 640.64ZM1447.06 619.48C1447.74 619.48 1448.22 619.52 1448.58 619.56V623.68H1446.98C1444.18 623.68 1441.62 624.48 1440.18 627.64V643H1436.42V622.48L1432.9 622.16V619.56H1439.18L1440.1 624.24C1441.54 621.4 1444.14 619.48 1447.06 619.48ZM1471.45 643.6C1465.57 643.6 1461.81 639.92 1461.77 633.92H1465.57C1465.73 638.28 1467.77 640.36 1471.41 640.36C1475.21 640.36 1477.21 638.08 1477.21 633.32V613.68H1481.13V633.52C1481.13 639.72 1477.41 643.6 1471.45 643.6ZM1507.7 640.16H1508.14V643C1507.7 643.16 1507.14 643.2 1506.58 643.2C1504.42 643.2 1503.06 642.04 1502.62 640.48C1500.9 642.28 1498.26 643.64 1494.82 643.64C1490.1 643.64 1487.1 641.04 1487.1 637C1487.1 632.8 1489.62 629.36 1497.7 629.28L1502.26 629.24V626.48C1502.26 623.44 1500.62 621.72 1497.3 621.72C1494.22 621.72 1492.02 623.2 1491.74 625.8H1488.06C1488.34 621.56 1492.22 618.88 1497.3 618.88C1503.14 618.88 1506.02 621.88 1506.02 626.68V637.88C1506.02 639.36 1506.42 640.16 1507.7 640.16ZM1490.86 636.92C1490.86 639.36 1492.62 640.84 1495.38 640.84C1498.22 640.84 1500.46 639.6 1502.3 638.16L1502.26 637.96V631.72H1498.26C1492.54 631.72 1490.86 634.12 1490.86 636.92ZM1524.05 643H1519.77L1511.41 619.56H1515.29L1521.89 640.2L1528.49 619.56H1532.41L1524.05 643ZM1556.41 640.16H1556.85V643C1556.41 643.16 1555.85 643.2 1555.29 643.2C1553.13 643.2 1551.77 642.04 1551.33 640.48C1549.61 642.28 1546.97 643.64 1543.53 643.64C1538.81 643.64 1535.81 641.04 1535.81 637C1535.81 632.8 1538.33 629.36 1546.41 629.28L1550.97 629.24V626.48C1550.97 623.44 1549.33 621.72 1546.01 621.72C1542.93 621.72 1540.73 623.2 1540.45 625.8H1536.77C1537.05 621.56 1540.93 618.88 1546.01 618.88C1551.85 618.88 1554.73 621.88 1554.73 626.68V637.88C1554.73 639.36 1555.13 640.16 1556.41 640.16ZM1539.57 636.92C1539.57 639.36 1541.33 640.84 1544.09 640.84C1546.93 640.84 1549.17 639.6 1551.01 638.16L1550.97 637.96V631.72H1546.97C1541.25 631.72 1539.57 634.12 1539.57 636.92Z" fill="black"/>
<defs>
<linearGradient id="paint0_linear_412_213" x1="530.97" y1="825.377" x2="466.106" y2="825.377" gradientUnits="userSpaceOnUse">
<stop stop-color="#5A5A5A"/>
<stop offset="1" stop-color="#C9C9C9"/>
</linearGradient>
<linearGradient id="paint1_linear_412_213" x1="534.441" y1="660.971" x2="521.742" y2="669.156" gradientUnits="userSpaceOnUse">
<stop/>
<stop offset="1" stop-opacity="0"/>
</linearGradient>
<linearGradient id="paint2_linear_412_213" x1="541.102" y1="612.686" x2="541.102" y2="660.97" gradientUnits="userSpaceOnUse">
<stop offset="0.211845"/>
<stop offset="1"/>
</linearGradient>
</defs>
</svg>
