<svg width="1920" height="1080" viewBox="0 0 1920 1080" fill="none" xmlns="http://www.w3.org/2000/svg">
<rect width="1920" height="1080" fill="white"/>
<path d="M543.56 531H530.84L522.32 506.4H486.32L477.8 531H465.2L496.64 443.04H512.12L543.56 531ZM519.8 497.04L504.32 451.32L488.84 497.04H519.8ZM593.922 458.64C609.762 458.64 617.562 469.68 617.562 485.28V531H606.282V486C606.282 474.72 602.202 467.88 591.642 467.88C582.882 467.88 576.642 472.92 571.722 479.04V531H560.442V460.68H568.722L570.882 470.64C576.642 463.08 583.962 458.64 593.922 458.64ZM690.953 467.16V439.44H702.233V531H693.953L692.033 522C685.913 529.32 678.473 532.92 668.753 532.92C650.273 532.92 637.793 518.64 637.793 496.68C637.793 473.28 651.353 458.64 670.313 458.64C679.193 458.64 685.793 462 690.953 467.16ZM670.313 523.8C679.193 523.8 685.793 519.48 690.953 514.56V476.76C685.913 471.6 679.553 467.64 671.153 467.64C659.393 467.64 649.193 475.92 649.193 496.68C649.193 515.04 657.953 523.8 670.313 523.8ZM733.543 553.8C731.383 553.8 728.863 553.56 727.183 553.2V544.32H732.823C737.743 544.32 742.063 543 744.343 536.76L746.503 530.76L719.623 460.68H731.143L752.143 520.92L771.103 460.68H782.623L754.663 538.44C751.303 547.92 746.143 553.8 733.543 553.8Z" fill="#212B37"/>
<path d="M1542.56 491H1529.84L1521.32 466.4H1485.32L1476.8 491H1464.2L1495.64 403.04H1511.12L1542.56 491ZM1518.8 457.04L1503.32 411.32L1487.84 457.04H1518.8ZM1592.92 418.64C1608.76 418.64 1616.56 429.68 1616.56 445.28V491H1605.28V446C1605.28 434.72 1601.2 427.88 1590.64 427.88C1581.88 427.88 1575.64 432.92 1570.72 439.04V491H1559.44V420.68H1567.72L1569.88 430.64C1575.64 423.08 1582.96 418.64 1592.92 418.64ZM1689.95 427.16V399.44H1701.23V491H1692.95L1691.03 482C1684.91 489.32 1677.47 492.92 1667.75 492.92C1649.27 492.92 1636.79 478.64 1636.79 456.68C1636.79 433.28 1650.35 418.64 1669.31 418.64C1678.19 418.64 1684.79 422 1689.95 427.16ZM1669.31 483.8C1678.19 483.8 1684.79 479.48 1689.95 474.56V436.76C1684.91 431.6 1678.55 427.64 1670.15 427.64C1658.39 427.64 1648.19 435.92 1648.19 456.68C1648.19 475.04 1656.95 483.8 1669.31 483.8ZM1732.54 513.8C1730.38 513.8 1727.86 513.56 1726.18 513.2V504.32H1731.82C1736.74 504.32 1741.06 503 1743.34 496.76L1745.5 490.76L1718.62 420.68H1730.14L1751.14 480.92L1770.1 420.68H1781.62L1753.66 498.44C1750.3 507.92 1745.14 513.8 1732.54 513.8Z" fill="#212B37"/>
<path d="M377.253 248L384.813 218.66L392.328 248H397.053L405.918 215.015H401.463L394.623 243.635L387.243 215.015H382.293L374.958 243.635L368.073 215.015H363.618L372.483 248H377.253ZM432.752 234.455C432.752 225.59 428.252 220.865 421.097 220.865C414.212 220.865 408.902 225.68 408.902 234.77C408.902 243.77 413.537 248.72 421.052 248.72C426.767 248.72 430.817 245.75 432.437 240.71H428.297C426.947 243.725 424.562 245.39 421.052 245.39C416.327 245.39 413.492 242.42 413.222 235.67H432.752V234.455ZM413.222 232.925C413.627 227.525 416.282 224.105 421.097 224.105C425.822 224.105 428.297 227.255 428.567 232.925H413.222ZM453.183 220.865C449.763 220.865 447.063 222.035 444.858 224.51V213.665H440.628V248H443.733L444.363 244.985C446.388 247.235 448.998 248.72 452.598 248.72C459.708 248.72 464.793 243.23 464.793 234.455C464.793 226.22 460.113 220.865 453.183 220.865ZM452.283 245.345C449.133 245.345 446.703 243.86 444.858 241.925V227.75C446.793 225.905 449.268 224.285 452.598 224.285C457.233 224.285 460.518 227.57 460.518 234.455C460.518 242.24 456.693 245.345 452.283 245.345ZM487.019 214.205H483.149L469.289 248.81H473.114L487.019 214.205ZM497.188 248L496.918 220.685L513.748 248H518.653V215.015H514.513L514.783 242.33L497.998 215.015H493.048V248H497.188ZM549.23 244.805C547.79 244.805 547.34 243.905 547.34 242.24V229.64C547.34 224.24 544.1 220.865 537.53 220.865C531.815 220.865 527.45 223.88 527.135 228.65H531.275C531.59 225.725 534.065 224.06 537.53 224.06C541.265 224.06 543.11 225.995 543.11 229.415V232.52L537.98 232.565C528.89 232.655 526.055 236.525 526.055 241.25C526.055 245.795 529.43 248.72 534.74 248.72C538.61 248.72 541.58 247.19 543.515 245.165C544.01 246.92 545.54 248.225 547.97 248.225C548.6 248.225 549.23 248.18 549.725 248V244.805H549.23ZM530.285 241.16C530.285 238.01 532.175 235.31 538.61 235.31H543.11V242.33L543.155 242.555C541.085 244.175 538.565 245.57 535.37 245.57C532.265 245.57 530.285 243.905 530.285 241.16ZM566.862 244.58C563.577 244.58 561.867 243.185 561.867 239.945V224.915H568.887V221.63H561.867V215.465H558.537L557.817 221.63H553.722V224.915H557.637V240.305C557.637 245.795 560.742 248.225 566.412 248.225C567.627 248.225 568.977 248.135 570.012 248V244.58H566.862ZM576.717 211.73V216.815H581.172V211.73H576.717ZM582.207 221.63H574.017V224.555L577.977 224.915V248H582.207V221.63ZM602.959 248L612.364 221.63H607.954L600.529 244.85L593.104 221.63H588.739L598.144 248H602.959ZM640.482 234.455C640.482 225.59 635.982 220.865 628.827 220.865C621.942 220.865 616.632 225.68 616.632 234.77C616.632 243.77 621.267 248.72 628.782 248.72C634.497 248.72 638.547 245.75 640.167 240.71H636.027C634.677 243.725 632.292 245.39 628.782 245.39C624.057 245.39 621.222 242.42 620.952 235.67H640.482V234.455ZM620.952 232.925C621.357 227.525 624.012 224.105 628.827 224.105C633.552 224.105 636.027 227.255 636.297 232.925H620.952Z" fill="#212B37"/>
<path d="M1242.08 248H1237.71V215.015H1242.08V228.965H1259.4V215.015H1263.81V248H1259.4V232.655H1242.08V248ZM1289.88 241.16V221.63H1294.11V248H1291L1290.24 244.22C1287.99 247.055 1285.29 248.72 1281.6 248.72C1275.84 248.72 1272.91 244.625 1272.91 238.73V221.63H1277.14V238.55C1277.14 243.185 1278.99 245.255 1282.5 245.255C1285.69 245.255 1288.08 243.32 1289.88 241.16ZM1331.63 220.865C1337.25 220.865 1340 225.05 1340 230.855V248H1335.77V231.125C1335.77 226.85 1334.42 224.33 1330.86 224.33C1327.76 224.33 1325.6 226.31 1323.8 228.47C1323.93 229.235 1323.98 230 1323.98 230.855V248H1319.75V231.125C1319.75 226.805 1318.35 224.33 1314.84 224.33C1311.87 224.33 1309.71 226.175 1307.96 228.335V248H1303.73V221.63H1306.83L1307.6 225.32C1309.71 222.53 1312.19 220.865 1315.61 220.865C1319.3 220.865 1321.77 222.71 1323.03 225.635C1325.24 222.845 1327.89 220.865 1331.63 220.865ZM1361.9 220.865C1368.83 220.865 1373.51 226.22 1373.51 234.455C1373.51 243.23 1368.42 248.72 1361.31 248.72C1357.71 248.72 1355.1 247.235 1353.08 244.985L1352.45 248H1349.34V213.665H1353.57V224.51C1355.78 222.035 1358.48 220.865 1361.9 220.865ZM1361 245.345C1365.41 245.345 1369.23 242.24 1369.23 234.455C1369.23 227.57 1365.95 224.285 1361.31 224.285C1357.98 224.285 1355.51 225.905 1353.57 227.75V241.925C1355.42 243.86 1357.85 245.345 1361 245.345ZM1390.15 244.49H1392.63V248C1391.46 248.135 1390.6 248.225 1389.39 248.225C1384.8 248.225 1381.11 246.2 1381.15 240.53V213.665H1385.38V239.9C1385.38 243.275 1387.32 244.49 1390.15 244.49ZM1420.48 234.455V235.67H1400.95C1401.22 242.42 1404.05 245.39 1408.78 245.39C1412.29 245.39 1414.67 243.725 1416.02 240.71H1420.16C1418.54 245.75 1414.49 248.72 1408.78 248.72C1401.26 248.72 1396.63 243.77 1396.63 234.77C1396.63 225.68 1401.94 220.865 1408.82 220.865C1415.98 220.865 1420.48 225.59 1420.48 234.455ZM1400.95 232.925H1416.29C1416.02 227.255 1413.55 224.105 1408.82 224.105C1404.01 224.105 1401.35 227.525 1400.95 232.925ZM1453.59 248.72C1445.54 248.72 1440.95 244.265 1440.95 236.255V215.015H1445.31V235.67C1445.31 242.015 1448.1 244.985 1453.59 244.985C1459.13 244.985 1461.92 242.015 1461.92 235.67V215.015H1466.28V236.255C1466.28 244.265 1461.69 248.72 1453.59 248.72ZM1479.29 248H1474.93V215.015H1479.29V248Z" fill="#212B37"/>
<g clip-path="url(#clip0_412_441)">
<rect width="413" height="676" transform="translate(1 403)" fill="white"/>
<rect x="1" y="403" width="413" height="676" fill="#5F6B47"/>
<path d="M1 419.5C145 419.5 324 435 414 481V1079H1V419.5Z" fill="#7B8853"/>
<path d="M1 446.5C179.5 446.5 328.863 496.573 414 553V1079H1V446.5Z" fill="#8F9B69"/>
<path d="M1 498C179.5 498 328.863 556.573 414 613V1079H1V498Z" fill="#97A069"/>
<path d="M1 607.5C179.5 607.5 328.863 666.073 414 722.5V1079H1V607.5Z" fill="#A5A66A"/>
<circle cx="391" cy="749" r="115" fill="#9F9854"/>
<path d="M120 689.5C120 648.907 152.907 616 193.5 616C234.093 616 267 648.907 267 689.5C266.015 710.731 269.252 720.774 280.5 736C280.5 776.593 234.093 805 193.5 805C152.907 805 120 772.093 120 731.5V689.5Z" fill="#667651"/>
<rect x="1" y="737" width="413" height="342" fill="#77885C"/>
<circle cx="169" cy="776" r="39" fill="#4E5641"/>
<circle cx="239" cy="784" r="39" fill="#4E5641"/>
<circle cx="328" cy="800" r="59" fill="#4E5641"/>
<circle cx="419" cy="800" r="59" fill="#4E5641"/>
<rect x="125" y="775" width="289" height="103" fill="#4E5641"/>
<rect x="1" y="878" width="413" height="201" fill="#6B6C4C"/>
<path d="M248 972C248 916.772 292.772 872 348 872H414V1046H248V972Z" fill="#A9904D"/>
<rect x="313" y="1044" width="101" height="35" fill="#90543C"/>
<circle cx="218" cy="961" r="30" fill="#4B4225"/>
<circle cx="335" cy="1010" r="16" fill="#5B5346"/>
<circle cx="358" cy="1009" r="12" fill="#5B5346"/>
<circle cx="378" cy="1010" r="11" fill="#5B5346"/>
<rect x="328" y="1004" width="50" height="17" fill="#5B5346"/>
<ellipse cx="247.5" cy="1223.5" rx="219.5" ry="234.5" fill="#824332"/>
<path d="M294 921.5H173C173 921.5 178.5 886 213 886C242.5 886 252.5 911 252.5 911C252.5 911 255.5 899.5 273 899.5C290.5 899.5 294 921.5 294 921.5Z" fill="#394328"/>
<path d="M141 635C130 621.5 124.985 612.248 110 604C130.055 710.827 140.115 773.894 110 1014.5L157.5 988.5C171.5 860 179.458 795.262 148.5 716.5C152 680 149 658.5 141 635Z" fill="#362828"/>
<circle cx="367" cy="937" r="47" fill="#665744"/>
<circle cx="422.5" cy="893.5" r="37.5" fill="#665744"/>
<circle cx="307.5" cy="944.5" r="13.5" fill="#665744"/>
<rect x="306" y="931" width="38" height="27" fill="#665744"/>
<rect x="208" y="965" width="149" height="19" fill="#7B6130"/>
<circle cx="271" cy="980" r="7" fill="#A9904D"/>
<circle cx="287.5" cy="980.5" r="8.5" fill="#A9904D"/>
<circle cx="309.5" cy="981.5" r="10.5" fill="#A9904D"/>
<path d="M56 812L137 884V1022H56V812Z" fill="#45201A"/>
<path d="M-17 848L67.5 854C73.5 902.5 85.0393 929.216 92 981.5C88.7127 1031.2 86.1088 1048.2 81.5 1079H-17V848Z" fill="#E0BB60"/>
<path d="M67.5 854C54 865 31.7688 869 12 869C8.2969 869 4.62837 868.847 1 868.545V843.5L67.5 746.5V854Z" fill="#957133"/>
<path d="M150 690.5C88 690.5 117.5 690.5 1 690.5C1 595.783 1 577 1 515.5C86.1058 514.882 138.5 563.5 150 690.5Z" fill="#4D2712"/>
<path d="M110 604C75.7825 557.424 51.2963 542.762 1.5 527V590L126.5 697.5L110 604Z" fill="#3B1B20"/>
<path d="M127.5 691C86.9036 640.336 67.6425 626.231 34.5 606L66.5 712L67.5 825.5C102.404 873.761 102 879 137 885L127.5 691Z" fill="#2F1C22"/>
<path d="M197 943C192.235 910.545 184.557 896.488 163.5 877.5L152 995.5L232 984C218.641 961.618 210.929 953.686 197 943Z" fill="#3B1B20"/>
<ellipse cx="-14.5" cy="709" rx="84.5" ry="137" fill="#C9A449"/>
<path d="M209.5 977.5C138.977 977.722 97.9285 1008.82 24 1079H320.5C294.5 1012 255 977.357 209.5 977.5Z" fill="#4B3528"/>
<path d="M226.634 1034C176.21 1034.1 146.859 1047.88 94 1079H316C297.41 1049.3 259.167 1033.94 226.634 1034Z" fill="#392727"/>
</g>
<g clip-path="url(#clip1_412_441)">
<rect width="413" height="676" transform="translate(982 403)" fill="white"/>
<rect x="982" y="403" width="413" height="676" fill="#5F6B47"/>
<path d="M982 419.5C1126 419.5 1305 435 1395 481V1079H982V419.5Z" fill="#7B8853"/>
<path d="M982 446.5C1160.5 446.5 1309.86 496.573 1395 553V1079H982V446.5Z" fill="#8F9B69"/>
<path d="M982 498C1160.5 498 1309.86 556.573 1395 613V1079H982V498Z" fill="#97A069"/>
<path d="M982 607.5C1160.5 607.5 1309.86 666.073 1395 722.5V1079H982V607.5Z" fill="#A5A66A"/>
<circle cx="1372" cy="749" r="115" fill="#9F9854"/>
<path d="M1101 689.5C1101 648.907 1133.91 616 1174.5 616C1215.09 616 1248 648.907 1248 689.5C1247.02 710.731 1250.25 720.774 1261.5 736C1261.5 776.593 1215.09 805 1174.5 805C1133.91 805 1101 772.093 1101 731.5V689.5Z" fill="#667651"/>
<rect x="982" y="737" width="413" height="342" fill="#77885C"/>
<circle cx="1150" cy="776" r="39" fill="#4E5641"/>
<circle cx="1220" cy="784" r="39" fill="#4E5641"/>
<circle cx="1309" cy="800" r="59" fill="#4E5641"/>
<circle cx="1400" cy="800" r="59" fill="#4E5641"/>
<rect x="1106" y="775" width="289" height="103" fill="#4E5641"/>
<rect x="982" y="878" width="413" height="201" fill="#6B6C4C"/>
<path d="M1229 972C1229 916.772 1273.77 872 1329 872H1395V1046H1229V972Z" fill="#A9904D"/>
<rect x="1294" y="1044" width="101" height="35" fill="#90543C"/>
<circle cx="1199" cy="961" r="30" fill="#4B4225"/>
<circle cx="1316" cy="1010" r="16" fill="#5B5346"/>
<circle cx="1339" cy="1009" r="12" fill="#5B5346"/>
<circle cx="1359" cy="1010" r="11" fill="#5B5346"/>
<rect x="1309" y="1004" width="50" height="17" fill="#5B5346"/>
<ellipse cx="1228.5" cy="1223.5" rx="219.5" ry="234.5" fill="#824332"/>
<path d="M1275 921.5H1154C1154 921.5 1159.5 886 1194 886C1223.5 886 1233.5 911 1233.5 911C1233.5 911 1236.5 899.5 1254 899.5C1271.5 899.5 1275 921.5 1275 921.5Z" fill="#394328"/>
<path d="M1122 635C1111 621.5 1105.98 612.248 1091 604C1111.06 710.827 1121.12 773.894 1091 1014.5L1138.5 988.5C1152.5 860 1160.46 795.262 1129.5 716.5C1133 680 1130 658.5 1122 635Z" fill="#362828"/>
<circle cx="1348" cy="937" r="47" fill="#665744"/>
<circle cx="1403.5" cy="893.5" r="37.5" fill="#665744"/>
<circle cx="1288.5" cy="944.5" r="13.5" fill="#665744"/>
<rect x="1287" y="931" width="38" height="27" fill="#665744"/>
<rect x="1189" y="965" width="149" height="19" fill="#7B6130"/>
<circle cx="1252" cy="980" r="7" fill="#A9904D"/>
<circle cx="1268.5" cy="980.5" r="8.5" fill="#A9904D"/>
<circle cx="1290.5" cy="981.5" r="10.5" fill="#A9904D"/>
<path d="M1037 812L1118 884V1022H1037V812Z" fill="#45201A"/>
<path d="M964 848L1048.5 854C1054.5 902.5 1066.04 929.216 1073 981.5C1069.71 1031.2 1067.11 1048.2 1062.5 1079H964V848Z" fill="#E0BB60"/>
<path d="M1048.5 854C1035 865 1012.77 869 993 869C989.297 869 985.628 868.847 982 868.545V843.5L1048.5 746.5V854Z" fill="#957133"/>
<path d="M1131 690.5C1069 690.5 1098.5 690.5 982 690.5C982 595.783 982 577 982 515.5C1067.11 514.882 1119.5 563.5 1131 690.5Z" fill="#4D2712"/>
<path d="M1091 604C1056.78 557.424 1032.3 542.762 982.5 527V590L1107.5 697.5L1091 604Z" fill="#3B1B20"/>
<path d="M1108.5 691C1067.9 640.336 1048.64 626.231 1015.5 606L1047.5 712L1048.5 825.5C1083.4 873.761 1083 879 1118 885L1108.5 691Z" fill="#2F1C22"/>
<path d="M1178 943C1173.23 910.545 1165.56 896.488 1144.5 877.5L1133 995.5L1213 984C1199.64 961.618 1191.93 953.686 1178 943Z" fill="#3B1B20"/>
<ellipse cx="966.5" cy="709" rx="84.5" ry="137" fill="#C9A449"/>
<path d="M1190.5 977.5C1119.98 977.722 1078.93 1008.82 1005 1079H1301.5C1275.5 1012 1236 977.357 1190.5 977.5Z" fill="#4B3528"/>
<path d="M1207.63 1034C1157.21 1034.1 1127.86 1047.88 1075 1079H1297C1278.41 1049.3 1240.17 1033.94 1207.63 1034Z" fill="#392727"/>
</g>
<defs>
<clipPath id="clip0_412_441">
<rect width="413" height="676" fill="white" transform="translate(1 403)"/>
</clipPath>
<clipPath id="clip1_412_441">
<rect width="413" height="676" fill="white" transform="translate(982 403)"/>
</clipPath>
</defs>
</svg>
