<svg width="1920" height="1080" viewBox="0 0 1920 1080" fill="none" xmlns="http://www.w3.org/2000/svg">
<rect width="1920" height="1080" fill="white"/>
<path d="M368.823 617L316.423 470.4H290.623L238.223 617H259.223L273.423 576H333.423L347.623 617H368.823ZM329.223 560.4H277.623L303.423 484.2L329.223 560.4ZM452.759 496.4C436.159 496.4 423.959 503.8 414.359 516.4L410.759 499.8H396.959V617H415.759V530.4C423.959 520.2 434.359 511.8 448.959 511.8C466.559 511.8 473.359 523.2 473.359 542V617H492.159V540.8C492.159 514.8 479.159 496.4 452.759 496.4ZM614.477 510.6C605.877 502 594.877 496.4 580.077 496.4C548.477 496.4 525.877 520.8 525.877 559.8C525.877 596.4 546.677 620.2 577.477 620.2C593.677 620.2 606.077 614.2 616.277 602L619.477 617H633.277V464.4H614.477V510.6ZM580.077 605C559.477 605 544.877 590.4 544.877 559.8C544.877 525.2 561.877 511.4 581.477 511.4C595.477 511.4 606.077 518 614.477 526.6V589.6C605.877 597.8 594.877 605 580.077 605ZM685.46 655C706.46 655 715.06 645.2 720.66 629.4L767.26 499.8H748.06L716.46 600.2L681.46 499.8H662.26L707.06 616.6L703.46 626.6C699.66 637 692.46 639.2 684.26 639.2H674.86V654C677.66 654.6 681.86 655 685.46 655Z" fill="#212B37"/>
<rect x="231" y="403" width="544" height="274" stroke="#0B99FF" stroke-width="4"/>
<path d="M377.253 858L384.813 828.66L392.328 858H397.053L405.918 825.015H401.463L394.623 853.635L387.243 825.015H382.293L374.958 853.635L368.073 825.015H363.618L372.483 858H377.253ZM432.752 844.455C432.752 835.59 428.252 830.865 421.097 830.865C414.212 830.865 408.902 835.68 408.902 844.77C408.902 853.77 413.537 858.72 421.052 858.72C426.767 858.72 430.817 855.75 432.437 850.71H428.297C426.947 853.725 424.562 855.39 421.052 855.39C416.327 855.39 413.492 852.42 413.222 845.67H432.752V844.455ZM413.222 842.925C413.627 837.525 416.282 834.105 421.097 834.105C425.822 834.105 428.297 837.255 428.567 842.925H413.222ZM453.183 830.865C449.763 830.865 447.063 832.035 444.858 834.51V823.665H440.628V858H443.733L444.363 854.985C446.388 857.235 448.998 858.72 452.598 858.72C459.708 858.72 464.793 853.23 464.793 844.455C464.793 836.22 460.113 830.865 453.183 830.865ZM452.283 855.345C449.133 855.345 446.703 853.86 444.858 851.925V837.75C446.793 835.905 449.268 834.285 452.598 834.285C457.233 834.285 460.518 837.57 460.518 844.455C460.518 852.24 456.693 855.345 452.283 855.345ZM487.019 824.205H483.149L469.289 858.81H473.114L487.019 824.205ZM497.188 858L496.918 830.685L513.748 858H518.653V825.015H514.513L514.783 852.33L497.998 825.015H493.048V858H497.188ZM549.23 854.805C547.79 854.805 547.34 853.905 547.34 852.24V839.64C547.34 834.24 544.1 830.865 537.53 830.865C531.815 830.865 527.45 833.88 527.135 838.65H531.275C531.59 835.725 534.065 834.06 537.53 834.06C541.265 834.06 543.11 835.995 543.11 839.415V842.52L537.98 842.565C528.89 842.655 526.055 846.525 526.055 851.25C526.055 855.795 529.43 858.72 534.74 858.72C538.61 858.72 541.58 857.19 543.515 855.165C544.01 856.92 545.54 858.225 547.97 858.225C548.6 858.225 549.23 858.18 549.725 858V854.805H549.23ZM530.285 851.16C530.285 848.01 532.175 845.31 538.61 845.31H543.11V852.33L543.155 852.555C541.085 854.175 538.565 855.57 535.37 855.57C532.265 855.57 530.285 853.905 530.285 851.16ZM566.862 854.58C563.577 854.58 561.867 853.185 561.867 849.945V834.915H568.887V831.63H561.867V825.465H558.537L557.817 831.63H553.722V834.915H557.637V850.305C557.637 855.795 560.742 858.225 566.412 858.225C567.627 858.225 568.977 858.135 570.012 858V854.58H566.862ZM576.717 821.73V826.815H581.172V821.73H576.717ZM582.207 831.63H574.017V834.555L577.977 834.915V858H582.207V831.63ZM602.959 858L612.364 831.63H607.954L600.529 854.85L593.104 831.63H588.739L598.144 858H602.959ZM640.482 844.455C640.482 835.59 635.982 830.865 628.827 830.865C621.942 830.865 616.632 835.68 616.632 844.77C616.632 853.77 621.267 858.72 628.782 858.72C634.497 858.72 638.547 855.75 640.167 850.71H636.027C634.677 853.725 632.292 855.39 628.782 855.39C624.057 855.39 621.222 852.42 620.952 845.67H640.482V844.455ZM620.952 842.925C621.357 837.525 624.012 834.105 628.827 834.105C633.552 834.105 636.027 837.255 636.297 842.925H620.952Z" fill="#212B37"/>
<rect x="763" y="391" width="23" height="23" fill="white" stroke="#0B99FF" stroke-width="4"/>
<rect x="763" y="665" width="23" height="23" fill="white" stroke="#0B99FF" stroke-width="4"/>
<rect x="219" y="665" width="23" height="23" fill="white" stroke="#0B99FF" stroke-width="4"/>
<rect x="219" y="391" width="23" height="23" fill="white" stroke="#0B99FF" stroke-width="4"/>
</svg>
