<svg width="1920" height="1080" viewBox="0 0 1920 1080" fill="none" xmlns="http://www.w3.org/2000/svg">
<rect width="1920" height="1080" fill="white"/>
<path d="M561.994 531H549.274L540.754 506.4H504.754L496.234 531H483.634L515.074 443.04H530.554L561.994 531ZM538.234 497.04L522.754 451.32L507.274 497.04H538.234ZM612.355 458.64C628.195 458.64 635.995 469.68 635.995 485.28V531H624.715V486C624.715 474.72 620.635 467.88 610.075 467.88C601.315 467.88 595.075 472.92 590.155 479.04V531H578.875V460.68H587.155L589.315 470.64C595.075 463.08 602.395 458.64 612.355 458.64ZM709.386 467.16V439.44H720.666V531H712.386L710.466 522C704.346 529.32 696.906 532.92 687.186 532.92C668.706 532.92 656.226 518.64 656.226 496.68C656.226 473.28 669.786 458.64 688.746 458.64C697.626 458.64 704.226 462 709.386 467.16ZM688.746 523.8C697.626 523.8 704.226 519.48 709.386 514.56V476.76C704.346 471.6 697.986 467.64 689.586 467.64C677.826 467.64 667.626 475.92 667.626 496.68C667.626 515.04 676.386 523.8 688.746 523.8ZM751.976 553.8C749.816 553.8 747.296 553.56 745.616 553.2V544.32H751.256C756.176 544.32 760.496 543 762.776 536.76L764.936 530.76L738.056 460.68H749.576L770.576 520.92L789.536 460.68H801.056L773.096 538.44C769.736 547.92 764.576 553.8 751.976 553.8Z" fill="#212B37"/>
<path d="M377.253 248L384.813 218.66L392.328 248H397.053L405.918 215.015H401.463L394.623 243.635L387.243 215.015H382.293L374.958 243.635L368.073 215.015H363.618L372.483 248H377.253ZM432.752 234.455C432.752 225.59 428.252 220.865 421.097 220.865C414.212 220.865 408.902 225.68 408.902 234.77C408.902 243.77 413.537 248.72 421.052 248.72C426.767 248.72 430.817 245.75 432.437 240.71H428.297C426.947 243.725 424.562 245.39 421.052 245.39C416.327 245.39 413.492 242.42 413.222 235.67H432.752V234.455ZM413.222 232.925C413.627 227.525 416.282 224.105 421.097 224.105C425.822 224.105 428.297 227.255 428.567 232.925H413.222ZM453.183 220.865C449.763 220.865 447.063 222.035 444.858 224.51V213.665H440.628V248H443.733L444.363 244.985C446.388 247.235 448.998 248.72 452.598 248.72C459.708 248.72 464.793 243.23 464.793 234.455C464.793 226.22 460.113 220.865 453.183 220.865ZM452.283 245.345C449.133 245.345 446.703 243.86 444.858 241.925V227.75C446.793 225.905 449.268 224.285 452.598 224.285C457.233 224.285 460.518 227.57 460.518 234.455C460.518 242.24 456.693 245.345 452.283 245.345ZM487.019 214.205H483.149L469.289 248.81H473.114L487.019 214.205ZM497.188 248L496.918 220.685L513.748 248H518.653V215.015H514.513L514.783 242.33L497.998 215.015H493.048V248H497.188ZM549.23 244.805C547.79 244.805 547.34 243.905 547.34 242.24V229.64C547.34 224.24 544.1 220.865 537.53 220.865C531.815 220.865 527.45 223.88 527.135 228.65H531.275C531.59 225.725 534.065 224.06 537.53 224.06C541.265 224.06 543.11 225.995 543.11 229.415V232.52L537.98 232.565C528.89 232.655 526.055 236.525 526.055 241.25C526.055 245.795 529.43 248.72 534.74 248.72C538.61 248.72 541.58 247.19 543.515 245.165C544.01 246.92 545.54 248.225 547.97 248.225C548.6 248.225 549.23 248.18 549.725 248V244.805H549.23ZM530.285 241.16C530.285 238.01 532.175 235.31 538.61 235.31H543.11V242.33L543.155 242.555C541.085 244.175 538.565 245.57 535.37 245.57C532.265 245.57 530.285 243.905 530.285 241.16ZM566.862 244.58C563.577 244.58 561.867 243.185 561.867 239.945V224.915H568.887V221.63H561.867V215.465H558.537L557.817 221.63H553.722V224.915H557.637V240.305C557.637 245.795 560.742 248.225 566.412 248.225C567.627 248.225 568.977 248.135 570.012 248V244.58H566.862ZM576.717 211.73V216.815H581.172V211.73H576.717ZM582.207 221.63H574.017V224.555L577.977 224.915V248H582.207V221.63ZM602.959 248L612.364 221.63H607.954L600.529 244.85L593.104 221.63H588.739L598.144 248H602.959ZM640.482 234.455C640.482 225.59 635.982 220.865 628.827 220.865C621.942 220.865 616.632 225.68 616.632 234.77C616.632 243.77 621.267 248.72 628.782 248.72C634.497 248.72 638.547 245.75 640.167 240.71H636.027C634.677 243.725 632.292 245.39 628.782 245.39C624.057 245.39 621.222 242.42 620.952 235.67H640.482V234.455ZM620.952 232.925C621.357 227.525 624.012 224.105 628.827 224.105C633.552 224.105 636.027 227.255 636.297 232.925H620.952Z" fill="#212B37"/>
<g clip-path="url(#clip0_32_605)">
<rect width="413" height="676" transform="translate(1 403)" fill="white"/>
<rect x="1" y="403" width="413" height="676" fill="#5F6B47"/>
<path d="M1 419.5C145 419.5 324 435 414 481V1079H1V419.5Z" fill="#7B8853"/>
<path d="M1 446.5C179.5 446.5 328.863 496.573 414 553V1079H1V446.5Z" fill="#8F9B69"/>
<path d="M1 498C179.5 498 328.863 556.573 414 613V1079H1V498Z" fill="#97A069"/>
<path d="M1 607.5C179.5 607.5 328.863 666.073 414 722.5V1079H1V607.5Z" fill="#A5A66A"/>
<circle cx="391" cy="749" r="115" fill="#9F9854"/>
<path d="M120 689.5C120 648.907 152.907 616 193.5 616C234.093 616 267 648.907 267 689.5C266.015 710.731 269.252 720.774 280.5 736C280.5 776.593 234.093 805 193.5 805C152.907 805 120 772.093 120 731.5V689.5Z" fill="#667651"/>
<rect x="1" y="737" width="413" height="342" fill="#77885C"/>
<circle cx="169" cy="776" r="39" fill="#4E5641"/>
<circle cx="239" cy="784" r="39" fill="#4E5641"/>
<circle cx="328" cy="800" r="59" fill="#4E5641"/>
<circle cx="419" cy="800" r="59" fill="#4E5641"/>
<rect x="125" y="775" width="289" height="103" fill="#4E5641"/>
<rect x="1" y="878" width="413" height="201" fill="#6B6C4C"/>
<path d="M248 972C248 916.772 292.772 872 348 872H414V1046H248V972Z" fill="#A9904D"/>
<rect x="313" y="1044" width="101" height="35" fill="#90543C"/>
<circle cx="218" cy="961" r="30" fill="#4B4225"/>
<circle cx="335" cy="1010" r="16" fill="#5B5346"/>
<circle cx="358" cy="1009" r="12" fill="#5B5346"/>
<circle cx="378" cy="1010" r="11" fill="#5B5346"/>
<rect x="328" y="1004" width="50" height="17" fill="#5B5346"/>
<ellipse cx="247.5" cy="1223.5" rx="219.5" ry="234.5" fill="#824332"/>
<path d="M294 921.5H173C173 921.5 178.5 886 213 886C242.5 886 252.5 911 252.5 911C252.5 911 255.5 899.5 273 899.5C290.5 899.5 294 921.5 294 921.5Z" fill="#394328"/>
<path d="M141 635C130 621.5 124.985 612.248 110 604C130.055 710.827 140.115 773.894 110 1014.5L157.5 988.5C171.5 860 179.458 795.262 148.5 716.5C152 680 149 658.5 141 635Z" fill="#362828"/>
<circle cx="367" cy="937" r="47" fill="#665744"/>
<circle cx="422.5" cy="893.5" r="37.5" fill="#665744"/>
<circle cx="307.5" cy="944.5" r="13.5" fill="#665744"/>
<rect x="306" y="931" width="38" height="27" fill="#665744"/>
<rect x="208" y="965" width="149" height="19" fill="#7B6130"/>
<circle cx="271" cy="980" r="7" fill="#A9904D"/>
<circle cx="287.5" cy="980.5" r="8.5" fill="#A9904D"/>
<circle cx="309.5" cy="981.5" r="10.5" fill="#A9904D"/>
<path d="M56 812L137 884V1022H56V812Z" fill="#45201A"/>
<path d="M-17 848L67.5 854C73.5 902.5 85.0393 929.216 92 981.5C88.7127 1031.2 86.1088 1048.2 81.5 1079H-17V848Z" fill="#E0BB60"/>
<path d="M67.5 854C54 865 31.7688 869 12 869C8.2969 869 4.62837 868.847 1 868.545V843.5L67.5 746.5V854Z" fill="#957133"/>
<path d="M150 690.5C88 690.5 117.5 690.5 1 690.5C1 595.783 1 577 1 515.5C86.1058 514.882 138.5 563.5 150 690.5Z" fill="#4D2712"/>
<path d="M110 604C75.7825 557.424 51.2963 542.762 1.5 527V590L126.5 697.5L110 604Z" fill="#3B1B20"/>
<path d="M127.5 691C86.9036 640.336 67.6425 626.231 34.5 606L66.5 712L67.5 825.5C102.404 873.761 102 879 137 885L127.5 691Z" fill="#2F1C22"/>
<path d="M197 943C192.235 910.545 184.557 896.488 163.5 877.5L152 995.5L232 984C218.641 961.618 210.929 953.686 197 943Z" fill="#3B1B20"/>
<ellipse cx="-14.5" cy="709" rx="84.5" ry="137" fill="#C9A449"/>
<path d="M209.5 977.5C138.977 977.722 97.9285 1008.82 24 1079H320.5C294.5 1012 255 977.357 209.5 977.5Z" fill="#4B3528"/>
<path d="M226.634 1034C176.21 1034.1 146.859 1047.88 94 1079H316C297.41 1049.3 259.167 1033.94 226.634 1034Z" fill="#392727"/>
</g>
<defs>
<clipPath id="clip0_32_605">
<rect width="413" height="676" fill="white" transform="translate(1 403)"/>
</clipPath>
</defs>
</svg>
