<svg width="1920" height="1080" viewBox="0 0 1920 1080" fill="none" xmlns="http://www.w3.org/2000/svg">
<rect width="1920" height="1080" fill="white"/>
<path d="M1235.29 795.298L1236.28 795.407L1236.39 794.413L1250.15 668.843L1250.26 667.848L1249.27 667.74L1232.56 665.909L1231.57 665.8L1231.46 666.794L1217.7 792.364L1217.59 793.358L1218.58 793.467L1235.29 795.298Z" fill="black" stroke="black" stroke-width="2"/>
<path d="M1425.63 586.025L1426.05 585.117L1425.14 584.698L1409.88 577.656L1408.97 577.237L1408.55 578.145L1374.75 651.399C1370.07 661.537 1364.05 667.925 1356.76 670.782L1356.76 670.783C1349.64 673.578 1341.33 672.871 1331.75 668.448C1321.61 663.774 1315.19 657.678 1312.28 650.228C1309.41 642.682 1310.21 633.894 1314.88 623.772L1348.68 550.519L1349.1 549.611L1348.19 549.192L1332.93 542.15L1332.02 541.731L1331.6 542.639L1297.8 615.893C1290.67 631.36 1289.53 644.777 1294.68 656.011L1294.68 656.011L1294.69 656.023C1299.96 667.115 1310.14 676.072 1325.05 682.955C1339.66 689.694 1352.74 691.269 1364.24 687.491L1364.24 687.489C1375.82 683.59 1384.99 674.106 1391.83 659.278L1425.63 586.025Z" fill="black" stroke="black" stroke-width="2"/>
<path d="M1187.8 479.402L1186.8 479.32L1186.72 480.317L1176.41 606.217L1176.33 607.214L1177.33 607.295L1264.79 614.455L1265.79 614.537L1265.87 613.54L1267.02 599.433L1267.1 598.437L1266.11 598.355L1196.39 592.649L1199.8 551.088L1264.22 556.362L1265.22 556.443L1265.3 555.447L1266.45 541.34L1266.53 540.343L1265.54 540.262L1201.11 534.988L1204.23 496.954L1273.41 502.618L1274.41 502.699L1274.49 501.703L1275.64 487.596L1275.73 486.599L1274.73 486.518L1187.8 479.402Z" fill="black" stroke="black" stroke-width="2"/>
<path d="M1069.6 549.012L1068.62 549.197L1068.8 550.18L1092.14 674.326L1092.33 675.309L1093.31 675.124L1175.55 659.661L1176.53 659.477L1176.35 658.494L1173.73 644.584L1173.55 643.601L1172.57 643.786L1107.83 655.958L1087.28 546.704L1087.1 545.722L1086.12 545.906L1069.6 549.012Z" fill="black" stroke="black" stroke-width="2"/>
<path d="M1470.38 494.58L1445 474.098L1468.96 444.4L1494.35 464.882C1497.16 467.152 1499.63 469.45 1501.78 471.777L1501.79 471.792L1501.81 471.806C1504.07 474.074 1505.68 476.464 1506.66 478.973C1507.63 481.451 1507.87 484.045 1507.38 486.778C1506.89 489.458 1505.33 492.503 1502.57 495.922C1498.49 500.979 1493.92 503.396 1488.84 503.391C1483.9 503.369 1477.76 500.538 1470.38 494.58ZM1465.25 420.646L1464.47 420.018L1463.84 420.797L1384.51 519.103L1383.89 519.881L1384.66 520.509L1432.17 558.84C1437.11 562.832 1442.13 565.57 1447.21 567.016L1447.21 567.016L1447.22 567.019C1452.43 568.433 1457.38 568.857 1462.08 568.268C1466.93 567.664 1471.44 566.147 1475.58 563.718C1479.71 561.298 1483.26 558.25 1486.23 554.575C1491.23 548.372 1493.87 541.73 1494.07 534.666C1494.25 528.304 1492.24 522.24 1488.12 516.493C1493.6 517.825 1498.86 517.704 1503.87 516.1C1509.77 514.252 1514.88 510.619 1519.2 505.255C1523.3 500.179 1525.62 494.896 1526.09 489.415C1526.64 484.108 1526.07 479.113 1524.36 474.444C1523.58 472.213 1522.29 469.985 1520.49 467.758C1518.81 465.631 1516.84 463.502 1514.58 461.37C1512.4 459.15 1510.06 457.032 1507.56 455.017C1505.24 452.996 1503.03 451.132 1500.91 449.423L1465.25 420.646ZM1440.66 544.936L1408.67 519.121L1434.85 486.669L1463.95 510.151C1466.65 512.331 1469.04 514.705 1471.12 517.272L1471.13 517.286L1471.15 517.299C1473.27 519.741 1474.74 522.309 1475.58 525.002L1475.59 525.028L1475.6 525.054C1476.59 527.707 1476.85 530.477 1476.37 533.385C1475.89 536.242 1474.44 539.23 1471.92 542.351C1467.61 547.693 1462.71 550.496 1457.22 550.924L1457.22 550.924L1457.21 550.925C1451.81 551.423 1446.3 549.488 1440.66 544.936Z" fill="black" stroke="black" stroke-width="2"/>
<path d="M1276.54 315.361L1275.58 315.109L1275.32 316.077L1243.52 438.331L1243.27 439.298L1244.24 439.55L1259.65 443.558L1260.62 443.81L1260.87 442.842L1286.18 345.555L1297.43 452.716L1297.51 453.405L1298.18 453.579L1312.05 457.187L1312.72 457.361L1313.11 456.795L1375.16 368.701L1349.85 465.988L1349.6 466.956L1350.57 467.208L1365.98 471.216L1366.95 471.468L1367.2 470.5L1399 348.247L1399.25 347.279L1398.28 347.027L1376.02 341.237L1375.35 341.063L1374.96 341.628L1311.07 432.123L1299.55 322.014L1299.47 321.325L1298.8 321.151L1276.54 315.361Z" fill="black" stroke="black" stroke-width="2"/>
<path d="M1156.43 308.254L1156.05 307.33L1155.13 307.713L1139.6 314.14L1138.67 314.522L1139.05 315.446L1169.91 389.991C1174.18 400.307 1174.78 409.065 1171.93 416.359L1171.93 416.359C1169.15 423.488 1162.99 429.109 1153.23 433.146C1142.93 437.412 1134.09 437.99 1126.64 435.075C1119.15 432.057 1113.24 425.506 1108.98 415.206L1078.13 340.662L1077.75 339.738L1076.82 340.12L1061.29 346.547L1060.37 346.93L1060.75 347.854L1091.6 422.398C1098.12 438.137 1107.2 448.079 1118.94 451.922L1118.94 451.922L1118.96 451.927C1130.68 455.583 1144.17 454.19 1159.34 447.908C1174.21 441.757 1184.25 433.215 1189.27 422.211L1189.28 422.204C1194.27 411.06 1193.53 397.888 1187.28 382.798L1156.43 308.254Z" fill="black" stroke="black" stroke-width="2"/>
<path d="M932.61 501.316L932.005 502.112L932.802 502.717L1033.41 579.098L1034.21 579.703L1034.82 578.907L1044.98 565.52L1045.58 564.723L1044.79 564.118L999.504 529.742L1038.52 478.351L1083.8 512.728L1084.6 513.332L1085.2 512.536L1095.37 499.149L1095.97 498.352L1095.17 497.748L994.56 421.366L993.764 420.761L993.159 421.558L982.996 434.945L982.392 435.741L983.188 436.346L1025.65 468.583L986.638 519.974L944.174 487.737L943.377 487.132L942.773 487.929L932.61 501.316Z" fill="black" stroke="black" stroke-width="2"/>
<ellipse cx="631.158" cy="444.315" rx="136.659" ry="84.1874" transform="rotate(-68.9199 631.158 444.315)" fill="url(#paint0_linear_405_37)"/>
<ellipse cx="540.214" cy="471.046" rx="143.66" ry="86.3405" transform="rotate(-135 540.214 471.046)" fill="url(#paint1_linear_405_37)"/>
<path d="M503.445 658.65L480.187 692.554L484.292 702.43L528.071 710.639L503.445 658.65Z" fill="#020007"/>
<path d="M706.714 714.712C750.298 698.184 774.286 651.339 762.222 606.315C750.158 561.291 705.961 532.716 659.953 540.195L580.269 553.146C522.447 562.545 485.403 619.841 500.565 676.426C515.727 733.011 576.456 764.109 631.23 743.337L706.714 714.712Z" fill="url(#paint2_linear_405_37)"/>
<path d="M708.806 713.889C708.113 714.171 707.416 714.445 706.714 714.712L685.463 722.77C645.301 669.991 617.463 613.064 595.389 550.689L619.4 546.786C641.393 608.015 668.999 663.064 708.806 713.889Z" fill="black"/>
<path d="M553.804 561.341C560.931 557.976 568.58 555.416 576.66 553.8C589.636 616.064 609.376 678.831 635.145 741.852L631.23 743.337C624.884 745.743 618.458 747.454 612.032 748.509C586.619 686 566.949 623.525 553.804 561.341Z" fill="black"/>
<path d="M599.112 749.76C587.754 750.105 576.567 748.465 566.001 745.074C558.09 733.813 550.807 722.523 544.112 711.031C526.882 681.454 513.654 650.734 503.517 615.962C507.512 605.387 513.287 595.568 520.556 586.949C530.839 629.678 545.097 665.208 564.778 698.992C574.72 716.057 586.086 732.749 599.112 749.76Z" fill="black"/>
<path fill-rule="evenodd" clip-rule="evenodd" d="M694.003 621.543C687.999 615.216 681.273 606.637 673.771 596.548L683.367 589.412C690.843 599.466 697.206 607.545 702.678 613.312C708.389 619.332 712.232 621.832 714.567 622.35C715.426 622.541 715.877 622.419 716.284 622.193C716.842 621.884 717.822 621.069 719.03 619.007C721.515 614.762 723.911 607.081 726.032 594.706L737.819 596.726C735.659 609.327 732.991 618.829 729.35 625.048C727.494 628.218 725.147 630.956 722.076 632.655C718.855 634.438 715.378 634.78 711.975 634.024C705.785 632.65 699.767 627.618 694.003 621.543Z" fill="black"/>
<path d="M1347.91 797.455V798.67H1328.38C1328.65 805.42 1331.49 808.39 1336.21 808.39C1339.72 808.39 1342.11 806.725 1343.46 803.71H1347.6C1345.98 808.75 1341.93 811.72 1336.21 811.72C1328.7 811.72 1324.06 806.77 1324.06 797.77C1324.06 788.68 1329.37 783.865 1336.26 783.865C1343.41 783.865 1347.91 788.59 1347.91 797.455ZM1328.38 795.925H1343.72C1343.46 790.255 1340.98 787.105 1336.26 787.105C1331.44 787.105 1328.79 790.525 1328.38 795.925ZM1364.7 811.72C1357.59 811.72 1353.94 808.75 1353.4 803.71H1357.59C1358.04 807.085 1360.47 808.48 1364.7 808.48C1368.79 808.48 1370.68 806.635 1370.68 804.115C1370.68 801.865 1369.24 800.695 1365.82 799.795L1361.05 798.58C1357.41 797.635 1354.44 795.88 1354.44 791.425C1354.44 787.06 1358.31 783.865 1364.34 783.865C1370.37 783.865 1373.97 786.43 1374.46 791.65H1370.32C1370.01 788.41 1367.94 787.105 1364.34 787.105C1360.65 787.105 1358.67 788.86 1358.67 791.2C1358.67 793.945 1360.56 794.62 1362.76 795.25L1367.53 796.51C1371.63 797.59 1374.91 799.48 1374.91 804.025C1374.91 808.525 1371.18 811.72 1364.7 811.72ZM1392.5 807.58H1395.65V811C1394.62 811.135 1393.27 811.225 1392.05 811.225C1386.38 811.225 1383.28 808.795 1383.28 803.305V787.915H1379.36V784.63H1383.46L1384.18 778.465H1387.51V784.63H1394.53V787.915H1387.51V802.945C1387.51 806.185 1389.22 807.58 1392.5 807.58ZM1408.39 811H1402.58V805.555H1408.39V811ZM1445.46 796.825L1435.16 807.31L1451.58 807.265V811H1430.25V807.31L1441.91 794.89C1444.52 792.1 1446.54 789.94 1446.54 786.34C1446.54 782.92 1444.34 780.895 1440.47 780.895C1436.06 780.895 1433.54 783.37 1433.54 787.6H1429.35C1429.35 781.12 1433.76 777.295 1440.51 777.295C1447.04 777.295 1450.91 781.075 1450.91 786.34C1450.91 791.11 1448.25 793.9 1445.46 796.825ZM1470.39 811.72C1462.43 811.72 1458.06 806.185 1458.06 794.44C1458.06 782.29 1462.38 777.295 1470.39 777.295C1478.36 777.295 1482.77 782.335 1482.77 794.44C1482.77 806.275 1478.36 811.72 1470.39 811.72ZM1470.44 808.075C1475.61 808.075 1478.45 803.98 1478.45 794.44C1478.45 784.675 1475.66 780.985 1470.39 780.985C1465.13 780.985 1462.38 784.585 1462.38 794.44C1462.38 803.935 1465.22 808.075 1470.44 808.075ZM1505.1 796.825L1494.79 807.31L1511.22 807.265V811H1489.89V807.31L1501.54 794.89C1504.15 792.1 1506.18 789.94 1506.18 786.34C1506.18 782.92 1503.97 780.895 1500.1 780.895C1495.69 780.895 1493.17 783.37 1493.17 787.6H1488.99C1488.99 781.12 1493.4 777.295 1500.15 777.295C1506.67 777.295 1510.54 781.075 1510.54 786.34C1510.54 791.11 1507.89 793.9 1505.1 796.825ZM1530.03 811.72C1522.06 811.72 1517.7 806.185 1517.7 794.44C1517.7 782.29 1522.02 777.295 1530.03 777.295C1537.99 777.295 1542.4 782.335 1542.4 794.44C1542.4 806.275 1537.99 811.72 1530.03 811.72ZM1530.07 808.075C1535.25 808.075 1538.08 803.98 1538.08 794.44C1538.08 784.675 1535.29 780.985 1530.03 780.985C1524.76 780.985 1522.02 784.585 1522.02 794.44C1522.02 803.935 1524.85 808.075 1530.07 808.075Z" fill="black"/>
<defs>
<linearGradient id="paint0_linear_405_37" x1="767.392" y1="442.33" x2="505.058" y2="447.085" gradientUnits="userSpaceOnUse">
<stop stop-color="#00D1FF" stop-opacity="0.4"/>
<stop offset="1" stop-color="#00D1FF" stop-opacity="0"/>
</linearGradient>
<linearGradient id="paint1_linear_405_37" x1="683.428" y1="469.011" x2="407.659" y2="474.134" gradientUnits="userSpaceOnUse">
<stop stop-color="#00D1FF" stop-opacity="0.4"/>
<stop offset="1" stop-color="#00D1FF" stop-opacity="0"/>
</linearGradient>
<linearGradient id="paint2_linear_405_37" x1="642.996" y1="621.712" x2="666.254" y2="727.057" gradientUnits="userSpaceOnUse">
<stop stop-color="#FFDB2B"/>
<stop offset="1" stop-color="#C9A900"/>
</linearGradient>
</defs>
</svg>
