<svg width="1920" height="1080" viewBox="0 0 1920 1080" fill="none" xmlns="http://www.w3.org/2000/svg">
<rect width="1920" height="1080" fill="white"/>
<path d="M506.725 645.865C502.99 645.865 500.245 647.53 498.085 650.365L497.275 646.63H494.17V673H498.4V653.515C500.245 651.22 502.585 649.33 505.87 649.33C509.83 649.33 511.36 651.895 511.36 656.125V673H515.59V655.855C515.59 650.005 512.665 645.865 506.725 645.865ZM524.527 636.73V641.815H528.982V636.73H524.527ZM530.017 646.63H521.827V649.555L525.787 649.915V673H530.017V646.63ZM561.523 673L550.633 657.07L561.073 646.63H556.078L543.838 659.32V638.665H539.653V673H543.838V663.865L548.023 659.68L556.843 673H561.523ZM567.461 636.73V641.815H571.916V636.73H567.461ZM572.951 646.63H564.761V649.555L568.721 649.915V673H572.951V646.63ZM592.938 669.58C589.653 669.58 587.943 668.185 587.943 664.945V649.915H594.963V646.63H587.943V640.465H584.613L583.893 646.63H579.798V649.915H583.713V665.305C583.713 670.795 586.818 673.225 592.488 673.225C593.703 673.225 595.053 673.135 596.088 673V669.58H592.938ZM613.56 673.72C620.715 673.72 626.205 668.77 626.205 659.86C626.205 650.86 620.67 645.865 613.56 645.865C606.495 645.865 600.96 650.815 600.96 659.86C600.96 668.77 606.405 673.72 613.56 673.72ZM613.56 670.345C608.79 670.345 605.19 666.745 605.19 659.86C605.19 652.885 608.79 649.285 613.56 649.285C618.375 649.285 621.975 652.885 621.975 659.86C621.975 666.745 618.375 670.345 613.56 670.345ZM646.647 645.865C642.912 645.865 640.167 647.53 638.007 650.365L637.197 646.63H634.092V673H638.322V653.515C640.167 651.22 642.507 649.33 645.792 649.33C649.752 649.33 651.282 651.895 651.282 656.125V673H655.512V655.855C655.512 650.005 652.587 645.865 646.647 645.865ZM673.764 673.72C680.244 673.72 683.979 670.525 683.979 666.025C683.979 661.48 680.694 659.59 676.599 658.51L671.829 657.25C669.624 656.62 667.734 655.945 667.734 653.2C667.734 650.86 669.714 649.105 673.404 649.105C677.004 649.105 679.074 650.41 679.389 653.65H683.529C683.034 648.43 679.434 645.865 673.404 645.865C667.374 645.865 663.504 649.06 663.504 653.425C663.504 657.88 666.474 659.635 670.119 660.58L674.889 661.795C678.309 662.695 679.749 663.865 679.749 666.115C679.749 668.635 677.859 670.48 673.764 670.48C669.534 670.48 667.104 669.085 666.654 665.71H662.469C663.009 670.75 666.654 673.72 673.764 673.72ZM713.091 673L702.201 657.07L712.641 646.63H707.646L695.406 659.32V638.665H691.221V673H695.406V663.865L699.591 659.68L708.411 673H713.091ZM721.549 681.55C726.274 681.55 728.209 679.345 729.469 675.79L739.954 646.63H735.634L728.524 669.22L720.649 646.63H716.329L726.409 672.91L725.599 675.16C724.744 677.5 723.124 677.995 721.279 677.995H719.164V681.325C719.794 681.46 720.739 681.55 721.549 681.55Z" fill="#232B36"/>
<path fill-rule="evenodd" clip-rule="evenodd" d="M431 392C412.767 392 398 406.912 398 425.322C398 440.067 407.446 452.521 420.564 456.936C422.214 457.228 422.832 456.228 422.832 455.354C422.832 454.562 422.791 451.938 422.791 449.147C414.5 450.688 412.355 447.106 411.695 445.232C411.324 444.274 409.715 441.317 408.312 440.525C407.157 439.9 405.507 438.359 408.271 438.318C410.87 438.276 412.726 440.733 413.345 441.733C416.315 446.773 421.059 445.357 422.956 444.482C423.245 442.316 424.111 440.858 425.06 440.025C417.717 439.192 410.045 436.318 410.045 423.573C410.045 419.949 411.324 416.95 413.428 414.617C413.098 413.784 411.942 410.369 413.757 405.787C413.757 405.787 416.521 404.912 422.832 409.203C425.472 408.453 428.278 408.078 431.083 408.078C433.888 408.078 436.693 408.453 439.333 409.203C445.644 404.871 448.408 405.787 448.408 405.787C450.223 410.369 449.068 413.784 448.738 414.617C450.841 416.95 452.12 419.907 452.12 423.573C452.12 436.36 444.406 439.192 437.064 440.025C438.26 441.067 439.291 443.066 439.291 446.19C439.291 450.647 439.25 454.229 439.25 455.354C439.25 456.228 439.869 457.27 441.519 456.936C448.07 454.703 453.762 450.452 457.795 444.781C461.828 439.109 463.998 432.304 464 425.322C464 406.912 449.233 392 431 392Z" fill="black"/>
<path d="M506.772 413.865C503.217 413.865 500.607 415.395 498.447 417.96V406.665H494.217V441H498.447V421.515C500.292 419.22 502.632 417.33 505.917 417.33C509.877 417.33 511.407 419.895 511.407 424.125V441H515.637V423.855C515.637 418.005 512.712 413.865 506.772 413.865ZM541.674 434.16C539.874 436.32 537.489 438.255 534.294 438.255C530.784 438.255 528.939 436.185 528.939 431.55V414.63H524.709V431.73C524.709 437.625 527.634 441.72 533.394 441.72C537.084 441.72 539.784 440.055 542.034 437.22L542.799 441H545.904V414.63H541.674V434.16ZM583.421 413.865C579.686 413.865 577.031 415.845 574.826 418.635C573.566 415.71 571.091 413.865 567.401 413.865C563.981 413.865 561.506 415.53 559.391 418.32L558.626 414.63H555.521V441H559.751V421.335C561.506 419.175 563.666 417.33 566.636 417.33C570.146 417.33 571.541 419.805 571.541 424.125V441H575.771V423.855C575.771 423 575.726 422.235 575.591 421.47C577.391 419.31 579.551 417.33 582.656 417.33C586.211 417.33 587.561 419.85 587.561 424.125V441H591.791V423.855C591.791 418.05 589.046 413.865 583.421 413.865ZM613.691 413.865C610.271 413.865 607.571 415.035 605.366 417.51V406.665H601.136V441H604.241L604.871 437.985C606.896 440.235 609.506 441.72 613.106 441.72C620.216 441.72 625.301 436.23 625.301 427.455C625.301 419.22 620.621 413.865 613.691 413.865ZM612.791 438.345C609.641 438.345 607.211 436.86 605.366 434.925V420.75C607.301 418.905 609.776 417.285 613.106 417.285C617.741 417.285 621.026 420.57 621.026 427.455C621.026 435.24 617.201 438.345 612.791 438.345ZM641.947 437.49C639.112 437.49 637.177 436.275 637.177 432.9V406.665H632.947V433.53C632.902 439.2 636.592 441.225 641.182 441.225C642.397 441.225 643.252 441.135 644.422 441V437.49H641.947ZM672.274 427.455C672.274 418.59 667.774 413.865 660.619 413.865C653.734 413.865 648.424 418.68 648.424 427.77C648.424 436.77 653.059 441.72 660.574 441.72C666.289 441.72 670.339 438.75 671.959 433.71H667.819C666.469 436.725 664.084 438.39 660.574 438.39C655.849 438.39 653.014 435.42 652.744 428.67H672.274V427.455ZM652.744 425.925C653.149 420.525 655.804 417.105 660.619 417.105C665.344 417.105 667.819 420.255 668.089 425.925H652.744ZM696.844 434.16C695.044 436.32 692.659 438.255 689.464 438.255C685.954 438.255 684.109 436.185 684.109 431.55V414.63H679.879V431.73C679.879 437.625 682.804 441.72 688.564 441.72C692.254 441.72 694.954 440.055 697.204 437.22L697.969 441H701.074V414.63H696.844V434.16ZM710.286 404.73V409.815H714.741V404.73H710.286ZM715.776 414.63H707.586V417.555L711.546 417.915V441H715.776V414.63Z" fill="#232B36"/>
<path d="M506.772 529.865C503.217 529.865 500.607 531.395 498.447 533.96V522.665H494.217V557H498.447V537.515C500.292 535.22 502.632 533.33 505.917 533.33C509.877 533.33 511.407 535.895 511.407 540.125V557H515.637V539.855C515.637 534.005 512.712 529.865 506.772 529.865ZM541.674 550.16C539.874 552.32 537.489 554.255 534.294 554.255C530.784 554.255 528.939 552.185 528.939 547.55V530.63H524.709V547.73C524.709 553.625 527.634 557.72 533.394 557.72C537.084 557.72 539.784 556.055 542.034 553.22L542.799 557H545.904V530.63H541.674V550.16ZM583.421 529.865C579.686 529.865 577.031 531.845 574.826 534.635C573.566 531.71 571.091 529.865 567.401 529.865C563.981 529.865 561.506 531.53 559.391 534.32L558.626 530.63H555.521V557H559.751V537.335C561.506 535.175 563.666 533.33 566.636 533.33C570.146 533.33 571.541 535.805 571.541 540.125V557H575.771V539.855C575.771 539 575.726 538.235 575.591 537.47C577.391 535.31 579.551 533.33 582.656 533.33C586.211 533.33 587.561 535.85 587.561 540.125V557H591.791V539.855C591.791 534.05 589.046 529.865 583.421 529.865ZM613.691 529.865C610.271 529.865 607.571 531.035 605.366 533.51V522.665H601.136V557H604.241L604.871 553.985C606.896 556.235 609.506 557.72 613.106 557.72C620.216 557.72 625.301 552.23 625.301 543.455C625.301 535.22 620.621 529.865 613.691 529.865ZM612.791 554.345C609.641 554.345 607.211 552.86 605.366 550.925V536.75C607.301 534.905 609.776 533.285 613.106 533.285C617.741 533.285 621.026 536.57 621.026 543.455C621.026 551.24 617.201 554.345 612.791 554.345ZM641.947 553.49C639.112 553.49 637.177 552.275 637.177 548.9V522.665H632.947V549.53C632.902 555.2 636.592 557.225 641.182 557.225C642.397 557.225 643.252 557.135 644.422 557V553.49H641.947ZM672.274 543.455C672.274 534.59 667.774 529.865 660.619 529.865C653.734 529.865 648.424 534.68 648.424 543.77C648.424 552.77 653.059 557.72 660.574 557.72C666.289 557.72 670.339 554.75 671.959 549.71H667.819C666.469 552.725 664.084 554.39 660.574 554.39C655.849 554.39 653.014 551.42 652.744 544.67H672.274V543.455ZM652.744 541.925C653.149 536.525 655.804 533.105 660.619 533.105C665.344 533.105 667.819 536.255 668.089 541.925H652.744ZM696.844 550.16C695.044 552.32 692.659 554.255 689.464 554.255C685.954 554.255 684.109 552.185 684.109 547.55V530.63H679.879V547.73C679.879 553.625 682.804 557.72 688.564 557.72C692.254 557.72 694.954 556.055 697.204 553.22L697.969 557H701.074V530.63H696.844V550.16ZM710.286 520.73V525.815H714.741V520.73H710.286ZM715.776 530.63H707.586V533.555L711.546 533.915V557H715.776V530.63Z" fill="#232B36"/>
<path d="M433.204 515.816C433.204 512.052 436.256 509 440.02 509V509C443.785 509 446.837 512.052 446.837 515.816V532.898C446.837 536.663 443.785 539.714 440.02 539.714V539.714C436.256 539.714 433.204 536.663 433.204 532.898V515.816Z" fill="#2EB67D"/>
<path d="M450.245 532.898C450.245 529.133 453.297 526.082 457.061 526.082V526.082C460.826 526.082 463.878 529.133 463.878 532.898V532.898C463.878 536.663 460.826 539.714 457.061 539.714H450.245V532.898Z" fill="#2EB67D"/>
<path d="M405.816 539.714C402.052 539.714 399 536.663 399 532.898V532.898C399 529.133 402.052 526.082 405.816 526.082L422.898 526.082C426.663 526.082 429.714 529.133 429.714 532.898V532.898C429.714 536.663 426.663 539.714 422.898 539.714L405.816 539.714Z" fill="#36C5F0"/>
<path d="M422.898 522.673C419.133 522.673 416.082 519.622 416.082 515.857V515.857C416.082 512.092 419.133 509.041 422.898 509.041V509.041C426.663 509.041 429.714 512.092 429.714 515.857L429.714 522.673L422.898 522.673Z" fill="#36C5F0"/>
<path d="M457.142 543.163C460.907 543.163 463.959 546.215 463.959 549.979V549.979C463.959 553.744 460.907 556.796 457.142 556.796L440.061 556.796C436.296 556.796 433.244 553.744 433.244 549.979V549.979C433.244 546.215 436.296 543.163 440.061 543.163L457.142 543.163Z" fill="#ECB22E"/>
<path d="M440.061 560.204C443.825 560.204 446.877 563.256 446.877 567.021V567.021C446.877 570.785 443.825 573.837 440.061 573.837V573.837C436.296 573.837 433.244 570.785 433.244 567.021L433.244 560.204L440.061 560.204Z" fill="#ECB22E"/>
<path d="M429.714 567.021C429.714 570.785 426.663 573.837 422.898 573.837V573.837C419.133 573.837 416.082 570.785 416.082 567.021V549.939C416.082 546.174 419.133 543.123 422.898 543.123V543.123C426.663 543.123 429.714 546.174 429.714 549.939V567.021Z" fill="#E01E5A"/>
<path d="M412.673 549.939C412.673 553.704 409.622 556.755 405.857 556.755V556.755C402.092 556.755 399.041 553.704 399.041 549.939V549.939C399.041 546.174 402.092 543.123 405.857 543.123H412.673V549.939Z" fill="#E01E5A"/>
<path fill-rule="evenodd" clip-rule="evenodd" d="M448.699 629.772C455.323 630.756 460.911 635.837 461.774 642.283C462.15 646.118 461.964 651.879 461.873 654.679C461.851 655.376 461.834 655.89 461.834 656.145C461.834 656.521 461.779 659.957 461.758 660.32C461.177 669.532 455.465 673.17 449.461 674.329C449.397 674.348 449.324 674.363 449.249 674.377C449.229 674.381 449.21 674.385 449.19 674.389C445.384 675.136 441.307 675.335 437.439 675.444C436.514 675.469 435.592 675.469 434.667 675.469C430.821 675.47 426.988 675.012 423.25 674.105C423.23 674.1 423.209 674.1 423.189 674.104C423.169 674.109 423.15 674.118 423.134 674.131C423.119 674.144 423.106 674.16 423.098 674.179C423.089 674.198 423.086 674.218 423.087 674.239C423.193 675.463 423.457 676.667 423.873 677.822C424.392 679.158 426.201 682.368 432.928 682.368C436.837 682.375 440.733 681.918 444.535 681.005C444.555 681 444.575 681 444.594 681.004C444.613 681.009 444.632 681.017 444.647 681.03C444.663 681.042 444.675 681.058 444.684 681.075C444.693 681.093 444.698 681.113 444.698 681.133V685.654C444.697 685.676 444.692 685.696 444.682 685.715C444.672 685.734 444.658 685.751 444.641 685.763C443.452 686.63 441.854 687.139 440.454 687.585C440.391 687.605 440.328 687.625 440.266 687.645C439.629 687.847 438.985 688.024 438.332 688.177C432.397 689.536 426.204 689.207 420.445 687.228C415.066 685.33 409.575 680.677 408.219 675.087C407.495 672.06 406.984 668.985 406.692 665.886C406.384 662.497 406.282 659.102 406.179 655.702C406.14 654.421 406.101 653.14 406.052 651.858C405.924 648.591 405.997 645.03 406.684 641.817C408.11 635.294 413.991 630.729 420.431 629.772C420.563 629.752 420.71 629.726 420.881 629.696C422.155 629.471 424.816 629 433.465 629H433.538C443.347 629 447.582 629.605 448.699 629.772ZM421 652C423.761 652 426 649.761 426 647C426 644.239 423.761 642 421 642C418.239 642 416 644.239 416 647C416 649.761 418.239 652 421 652Z" fill="url(#paint0_linear_32_629)"/>
<defs>
<linearGradient id="paint0_linear_32_629" x1="434" y1="629" x2="434" y2="689" gradientUnits="userSpaceOnUse">
<stop stop-color="#6364FF"/>
<stop offset="1" stop-color="#563ACC"/>
</linearGradient>
</defs>
</svg>
