<svg width="1920" height="1080" viewBox="0 0 1920 1080" fill="none" xmlns="http://www.w3.org/2000/svg">
<path fill-rule="evenodd" clip-rule="evenodd" d="M1030 627C1018.95 627 1010 635.95 1010 647C1010 655.85 1015.72 663.325 1023.67 665.975C1024.67 666.15 1025.05 665.55 1025.05 665.025C1025.05 664.55 1025.03 662.975 1025.03 661.3C1020 662.225 1018.7 660.075 1018.3 658.95C1018.07 658.375 1017.1 656.6 1016.25 656.125C1015.55 655.75 1014.55 654.825 1016.22 654.8C1017.8 654.775 1018.93 656.25 1019.3 656.85C1021.1 659.875 1023.98 659.025 1025.12 658.5C1025.3 657.2 1025.82 656.325 1026.4 655.825C1021.95 655.325 1017.3 653.6 1017.3 645.95C1017.3 643.775 1018.07 641.975 1019.35 640.575C1019.15 640.075 1018.45 638.025 1019.55 635.275C1019.55 635.275 1021.23 634.75 1025.05 637.325C1026.65 636.875 1028.35 636.65 1030.05 636.65C1031.75 636.65 1033.45 636.875 1035.05 637.325C1038.88 634.725 1040.55 635.275 1040.55 635.275C1041.65 638.025 1040.95 640.075 1040.75 640.575C1042.03 641.975 1042.8 643.75 1042.8 645.95C1042.8 653.625 1038.12 655.325 1033.68 655.825C1034.4 656.45 1035.03 657.65 1035.03 659.525C1035.03 662.2 1035 664.35 1035 665.025C1035 665.55 1035.38 666.175 1036.38 665.975C1040.35 664.635 1043.8 662.083 1046.24 658.679C1048.68 655.275 1050 651.191 1050 647C1050 635.95 1041.05 627 1030 627Z" fill="black"/>
<path d="M1081.65 640.704C1085.87 640.704 1087.95 643.648 1087.95 647.808V660H1084.94V648C1084.94 644.992 1083.86 643.168 1081.04 643.168C1078.7 643.168 1077.04 644.512 1075.73 646.144V660H1072.72V635.584H1075.73V643.616C1077.26 641.792 1079.12 640.704 1081.65 640.704ZM1106.47 655.136V641.248H1109.48V660H1107.27L1106.72 657.312C1105.12 659.328 1103.2 660.512 1100.58 660.512C1096.48 660.512 1094.4 657.6 1094.4 653.408V641.248H1097.41V653.28C1097.41 656.576 1098.72 658.048 1101.22 658.048C1103.49 658.048 1105.19 656.672 1106.47 655.136ZM1136.15 640.704C1140.15 640.704 1142.11 643.68 1142.11 647.808V660H1139.1V648C1139.1 644.96 1138.14 643.168 1135.61 643.168C1133.4 643.168 1131.87 644.576 1130.59 646.112C1130.68 646.656 1130.71 647.2 1130.71 647.808V660H1127.71V648C1127.71 644.928 1126.71 643.168 1124.22 643.168C1122.11 643.168 1120.57 644.48 1119.32 646.016V660H1116.31V641.248H1118.52L1119.07 643.872C1120.57 641.888 1122.33 640.704 1124.76 640.704C1127.39 640.704 1129.15 642.016 1130.04 644.096C1131.61 642.112 1133.5 640.704 1136.15 640.704ZM1157.68 640.704C1162.61 640.704 1165.94 644.512 1165.94 650.368C1165.94 656.608 1162.32 660.512 1157.26 660.512C1154.7 660.512 1152.85 659.456 1151.41 657.856L1150.96 660H1148.75V635.584H1151.76V643.296C1153.33 641.536 1155.25 640.704 1157.68 640.704ZM1157.04 658.112C1160.18 658.112 1162.9 655.904 1162.9 650.368C1162.9 645.472 1160.56 643.136 1157.26 643.136C1154.9 643.136 1153.14 644.288 1151.76 645.6V655.68C1153.07 657.056 1154.8 658.112 1157.04 658.112ZM1177.77 657.504H1179.53V660C1178.7 660.096 1178.09 660.16 1177.23 660.16C1173.97 660.16 1171.34 658.72 1171.37 654.688V635.584H1174.38V654.24C1174.38 656.64 1175.76 657.504 1177.77 657.504ZM1199.34 650.368V651.232H1185.45C1185.64 656.032 1187.66 658.144 1191.02 658.144C1193.52 658.144 1195.21 656.96 1196.17 654.816H1199.12C1197.96 658.4 1195.08 660.512 1191.02 660.512C1185.68 660.512 1182.38 656.992 1182.38 650.592C1182.38 644.128 1186.16 640.704 1191.05 640.704C1196.14 640.704 1199.34 644.064 1199.34 650.368ZM1185.45 649.28H1196.36C1196.17 645.248 1194.41 643.008 1191.05 643.008C1187.63 643.008 1185.74 645.44 1185.45 649.28ZM1216.81 655.136V641.248H1219.82V660H1217.61L1217.07 657.312C1215.47 659.328 1213.55 660.512 1210.92 660.512C1206.83 660.512 1204.75 657.6 1204.75 653.408V641.248H1207.76V653.28C1207.76 656.576 1209.07 658.048 1211.56 658.048C1213.84 658.048 1215.53 656.672 1216.81 655.136ZM1226.37 634.208H1229.54V637.824H1226.37V634.208ZM1230.27 641.248V660H1227.27V643.584L1224.45 643.328V641.248H1230.27Z" fill="black"/>
<path d="M1017.13 919.906H1043.81C1047.89 919.906 1049.93 917.875 1049.93 913.852V890.004C1049.93 885.98 1047.89 883.949 1043.81 883.949H1017.13C1013.05 883.949 1011 885.961 1011 890.004V913.852C1011 917.895 1013.05 919.906 1017.13 919.906ZM1016.84 916.762C1015.1 916.762 1014.14 915.844 1014.14 914.027V895.609C1014.14 893.812 1015.1 892.875 1016.84 892.875H1044.07C1045.8 892.875 1046.78 893.812 1046.78 895.609V914.027C1046.78 915.844 1045.8 916.762 1044.07 916.762H1016.84Z" fill="#CC3333"/>
<path d="M1027.82 899.887H1026.66C1025.98 899.887 1025.75 899.691 1025.75 899.008V897.855C1025.75 897.172 1025.98 896.957 1026.66 896.957H1027.82C1028.5 896.957 1028.71 897.172 1028.71 897.855V899.008C1028.71 899.691 1028.5 899.887 1027.82 899.887Z" fill="black"/>
<path d="M1034.3 899.887H1033.15C1032.46 899.887 1032.23 899.691 1032.23 899.008V897.855C1032.23 897.172 1032.46 896.957 1033.15 896.957H1034.3C1034.98 896.957 1035.22 897.172 1035.22 897.855V899.008C1035.22 899.691 1034.98 899.887 1034.3 899.887Z" fill="black"/>
<path d="M1040.79 899.887H1039.63C1038.95 899.887 1038.73 899.691 1038.73 899.008V897.855C1038.73 897.172 1038.95 896.957 1039.63 896.957H1040.79C1041.47 896.957 1041.7 897.172 1041.7 897.855V899.008C1041.7 899.691 1041.47 899.887 1040.79 899.887Z" fill="black"/>
<path d="M1021.31 906.273H1020.18C1019.48 906.273 1019.26 906.078 1019.26 905.395V904.242C1019.26 903.559 1019.48 903.363 1020.18 903.363H1021.31C1022.02 903.363 1022.23 903.559 1022.23 904.242V905.395C1022.23 906.078 1022.02 906.273 1021.31 906.273Z" fill="black"/>
<path d="M1027.82 906.273H1026.66C1025.98 906.273 1025.75 906.078 1025.75 905.395V904.242C1025.75 903.559 1025.98 903.363 1026.66 903.363H1027.82C1028.5 903.363 1028.71 903.559 1028.71 904.242V905.395C1028.71 906.078 1028.5 906.273 1027.82 906.273Z" fill="black"/>
<path d="M1034.3 906.273H1033.15C1032.46 906.273 1032.23 906.078 1032.23 905.395V904.242C1032.23 903.559 1032.46 903.363 1033.15 903.363H1034.3C1034.98 903.363 1035.22 903.559 1035.22 904.242V905.395C1035.22 906.078 1034.98 906.273 1034.3 906.273Z" fill="black"/>
<path d="M1040.79 906.273H1039.63C1038.95 906.273 1038.73 906.078 1038.73 905.395V904.242C1038.73 903.559 1038.95 903.363 1039.63 903.363H1040.79C1041.47 903.363 1041.7 903.559 1041.7 904.242V905.395C1041.7 906.078 1041.47 906.273 1040.79 906.273Z" fill="black"/>
<path d="M1021.31 912.68H1020.18C1019.48 912.68 1019.26 912.465 1019.26 911.781V910.629C1019.26 909.945 1019.48 909.75 1020.18 909.75H1021.31C1022.02 909.75 1022.23 909.945 1022.23 910.629V911.781C1022.23 912.465 1022.02 912.68 1021.31 912.68Z" fill="black"/>
<path d="M1027.82 912.68H1026.66C1025.98 912.68 1025.75 912.465 1025.75 911.781V910.629C1025.75 909.945 1025.98 909.75 1026.66 909.75H1027.82C1028.5 909.75 1028.71 909.945 1028.71 910.629V911.781C1028.71 912.465 1028.5 912.68 1027.82 912.68Z" fill="black"/>
<path d="M1034.3 912.68H1033.15C1032.46 912.68 1032.23 912.465 1032.23 911.781V910.629C1032.23 909.945 1032.46 909.75 1033.15 909.75H1034.3C1034.98 909.75 1035.22 909.945 1035.22 910.629V911.781C1035.22 912.465 1034.98 912.68 1034.3 912.68Z" fill="black"/>
<path d="M1076.34 887.208H1079.51V890.824H1076.34V887.208ZM1080.25 894.248V913.992C1080.25 917.032 1079.16 919.08 1075.54 919.08C1074.9 919.08 1074.42 919.016 1074.04 918.92V916.616H1075.03C1076.44 916.616 1077.24 915.976 1077.24 914.056V896.584L1074.42 896.328V894.248H1080.25ZM1102.17 910.728H1102.52V913C1102.17 913.128 1101.72 913.16 1101.28 913.16C1099.55 913.16 1098.46 912.232 1098.11 910.984C1096.73 912.424 1094.62 913.512 1091.87 913.512C1088.09 913.512 1085.69 911.432 1085.69 908.2C1085.69 904.84 1087.71 902.088 1094.17 902.024L1097.82 901.992V899.784C1097.82 897.352 1096.51 895.976 1093.85 895.976C1091.39 895.976 1089.63 897.16 1089.4 899.24H1086.46C1086.68 895.848 1089.79 893.704 1093.85 893.704C1098.52 893.704 1100.83 896.104 1100.83 899.944V908.904C1100.83 910.088 1101.15 910.728 1102.17 910.728ZM1088.7 908.136C1088.7 910.088 1090.11 911.272 1092.32 911.272C1094.59 911.272 1096.38 910.28 1097.85 909.128L1097.82 908.968V903.976H1094.62C1090.04 903.976 1088.7 905.896 1088.7 908.136ZM1116.62 893.704C1120.85 893.704 1122.93 896.648 1122.93 900.808V913H1119.92V901C1119.92 897.992 1118.83 896.168 1116.01 896.168C1113.68 896.168 1112.01 897.512 1110.7 899.144V913H1107.69V894.248H1109.9L1110.48 896.904C1112.01 894.888 1113.97 893.704 1116.62 893.704ZM1141.44 908.136V894.248H1144.45V913H1142.24L1141.7 910.312C1140.1 912.328 1138.18 913.512 1135.55 913.512C1131.46 913.512 1129.38 910.6 1129.38 906.408V894.248H1132.38V906.28C1132.38 909.576 1133.7 911.048 1136.19 911.048C1138.46 911.048 1140.16 909.672 1141.44 908.136ZM1166.36 910.728H1166.71V913C1166.36 913.128 1165.91 913.16 1165.46 913.16C1163.74 913.16 1162.65 912.232 1162.3 910.984C1160.92 912.424 1158.81 913.512 1156.06 913.512C1152.28 913.512 1149.88 911.432 1149.88 908.2C1149.88 904.84 1151.9 902.088 1158.36 902.024L1162.01 901.992V899.784C1162.01 897.352 1160.7 895.976 1158.04 895.976C1155.58 895.976 1153.82 897.16 1153.59 899.24H1150.65C1150.87 895.848 1153.98 893.704 1158.04 893.704C1162.71 893.704 1165.02 896.104 1165.02 899.944V908.904C1165.02 910.088 1165.34 910.728 1166.36 910.728ZM1152.89 908.136C1152.89 910.088 1154.3 911.272 1156.5 911.272C1158.78 911.272 1160.57 910.28 1162.04 909.128L1162.01 908.968V903.976H1158.81C1154.23 903.976 1152.89 905.896 1152.89 908.136ZM1181 894.184C1181.55 894.184 1181.93 894.216 1182.22 894.248V897.544H1180.94C1178.7 897.544 1176.65 898.184 1175.5 900.712V913H1172.49V896.584L1169.67 896.328V894.248H1174.7L1175.43 897.992C1176.59 895.72 1178.67 894.184 1181 894.184ZM1188.39 919.08C1187.81 919.08 1187.14 919.016 1186.69 918.92V916.552H1188.19C1189.51 916.552 1190.66 916.2 1191.27 914.536L1191.84 912.936L1184.67 894.248H1187.75L1193.35 910.312L1198.4 894.248H1201.47L1194.02 914.984C1193.12 917.512 1191.75 919.08 1188.39 919.08ZM1224.13 905.768L1217.92 910.6H1228.74V913H1214.02V910.6L1221.76 904.36C1223.81 902.696 1225.28 901.32 1225.28 899.24C1225.28 897.192 1223.81 896.072 1221.38 896.072C1218.5 896.072 1216.9 897.352 1216.51 899.784H1213.66C1214.02 895.944 1216.9 893.704 1221.38 893.704C1225.66 893.704 1228.32 895.944 1228.32 899.24C1228.32 902.088 1226.56 903.848 1224.13 905.768ZM1242 913.512C1236.95 913.512 1232.85 910.472 1232.85 903.56C1232.85 896.552 1236.92 893.704 1242 893.704C1247.09 893.704 1251.16 896.552 1251.16 903.56C1251.16 910.472 1247.09 913.512 1242 913.512ZM1242.04 911.144C1245.24 911.144 1248.21 908.936 1248.21 903.56C1248.21 898.152 1245.3 896.072 1242 896.072C1238.74 896.072 1235.83 898.088 1235.83 903.56C1235.83 908.904 1238.77 911.144 1242.04 911.144ZM1265.6 905.768L1259.39 910.6H1270.2V913H1255.48V910.6L1263.23 904.36C1265.28 902.696 1266.75 901.32 1266.75 899.24C1266.75 897.192 1265.28 896.072 1262.84 896.072C1259.96 896.072 1258.36 897.352 1257.98 899.784H1255.13C1255.48 895.944 1258.36 893.704 1262.84 893.704C1267.13 893.704 1269.79 895.944 1269.79 899.24C1269.79 902.088 1268.03 903.848 1265.6 905.768ZM1287.82 908.552H1290.83V911.08H1287.82V916.552H1284.75V911.08H1274.32V908.712L1284.49 894.248H1287.82V908.552ZM1284.78 897.704L1277.39 908.552H1284.78V897.704Z" fill="black"/>
<ellipse cx="546.701" cy="452.421" rx="77.4443" ry="47.7089" transform="rotate(-68.9199 546.701 452.421)" fill="url(#paint0_linear_1_3)"/>
<ellipse cx="495.165" cy="467.571" rx="81.4118" ry="48.9291" transform="rotate(-135 495.165 467.571)" fill="url(#paint1_linear_1_3)"/>
<path d="M474.328 573.887L461.147 593.1L463.473 598.697L488.283 603.348L474.328 573.887Z" fill="#020007"/>
<path d="M589.52 605.656C614.219 596.289 627.813 569.742 620.976 544.228C614.14 518.713 589.093 502.519 563.021 506.757L517.864 514.097C485.096 519.423 464.104 551.893 472.696 583.959C481.288 616.026 515.703 633.649 546.744 621.878L589.52 605.656Z" fill="url(#paint2_linear_1_3)"/>
<path d="M590.706 605.189C590.314 605.349 589.919 605.504 589.521 605.655L577.478 610.222C554.718 580.312 538.942 548.051 526.433 512.703L540.04 510.492C552.504 545.191 568.147 576.387 590.706 605.189Z" fill="black"/>
<path d="M502.867 518.74C506.906 516.833 511.24 515.382 515.819 514.467C523.173 549.751 534.359 585.321 548.963 621.036L546.744 621.877C543.148 623.241 539.506 624.21 535.864 624.808C521.463 589.384 510.316 553.98 502.867 518.74Z" fill="black"/>
<path d="M528.543 625.517C522.106 625.712 515.767 624.783 509.779 622.861C505.295 616.48 501.168 610.082 497.375 603.569C487.61 586.808 480.114 569.399 474.369 549.694C476.633 543.701 479.906 538.136 484.025 533.252C489.852 557.466 497.932 577.601 509.086 596.747C514.72 606.418 521.161 615.877 528.543 625.517Z" fill="black"/>
<path fill-rule="evenodd" clip-rule="evenodd" d="M582.317 552.857C578.915 549.271 575.104 544.41 570.852 538.692L576.29 534.648C580.526 540.346 584.132 544.924 587.233 548.192C590.47 551.604 592.648 553.021 593.971 553.314C594.458 553.422 594.713 553.353 594.944 553.225C595.26 553.05 595.816 552.588 596.5 551.42C597.908 549.014 599.266 544.661 600.468 537.649L607.148 538.793C605.924 545.934 604.412 551.319 602.348 554.843C601.297 556.64 599.966 558.191 598.226 559.154C596.401 560.165 594.431 560.358 592.502 559.93C588.994 559.151 585.584 556.3 582.317 552.857Z" fill="black"/>
<path d="M1011.55 517.015H1021.76C1032.52 517.015 1038.14 522.37 1038.14 533.395C1038.14 544.555 1032.52 550 1021.99 550H1011.55V517.015ZM1022.03 520.66H1015.91V546.355H1022.26C1029.72 546.355 1033.69 542.35 1033.69 533.395C1033.69 524.485 1029.72 520.66 1022.03 520.66ZM1068.19 536.455V537.67H1048.66C1048.93 544.42 1051.76 547.39 1056.49 547.39C1060 547.39 1062.38 545.725 1063.73 542.71H1067.87C1066.25 547.75 1062.2 550.72 1056.49 550.72C1048.97 550.72 1044.34 545.77 1044.34 536.77C1044.34 527.68 1049.65 522.865 1056.53 522.865C1063.69 522.865 1068.19 527.59 1068.19 536.455ZM1048.66 534.925H1064C1063.73 529.255 1061.26 526.105 1056.53 526.105C1051.72 526.105 1049.06 529.525 1048.66 534.925ZM1084.97 550.72C1077.86 550.72 1074.22 547.75 1073.68 542.71H1077.86C1078.31 546.085 1080.74 547.48 1084.97 547.48C1089.07 547.48 1090.96 545.635 1090.96 543.115C1090.96 540.865 1089.52 539.695 1086.1 538.795L1081.33 537.58C1077.68 536.635 1074.71 534.88 1074.71 530.425C1074.71 526.06 1078.58 522.865 1084.61 522.865C1090.64 522.865 1094.24 525.43 1094.74 530.65H1090.6C1090.28 527.41 1088.21 526.105 1084.61 526.105C1080.92 526.105 1078.94 527.86 1078.94 530.2C1078.94 532.945 1080.83 533.62 1083.04 534.25L1087.81 535.51C1091.9 536.59 1095.19 538.48 1095.19 543.025C1095.19 547.525 1091.45 550.72 1084.97 550.72ZM1124.3 550H1119.62L1110.8 536.68L1106.62 540.865V550H1102.43V515.665H1106.62V536.32L1118.86 523.63H1123.85L1113.41 534.07L1124.3 550ZM1140.99 546.58H1144.14V550C1143.11 550.135 1141.76 550.225 1140.54 550.225C1134.87 550.225 1131.77 547.795 1131.77 542.305V526.915H1127.85V523.63H1131.95L1132.67 517.465H1136V523.63H1143.02V526.915H1136V541.945C1136 545.185 1137.71 546.58 1140.99 546.58ZM1161.62 550.72C1154.46 550.72 1149.02 545.77 1149.02 536.86C1149.02 527.815 1154.55 522.865 1161.62 522.865C1168.73 522.865 1174.26 527.86 1174.26 536.86C1174.26 545.77 1168.77 550.72 1161.62 550.72ZM1161.62 547.345C1166.43 547.345 1170.03 543.745 1170.03 536.86C1170.03 529.885 1166.43 526.285 1161.62 526.285C1156.85 526.285 1153.25 529.885 1153.25 536.86C1153.25 543.745 1156.85 547.345 1161.62 547.345ZM1194.66 522.865C1201.59 522.865 1206.27 528.22 1206.27 536.455C1206.27 545.23 1201.18 550.72 1194.07 550.72C1190.79 550.72 1188.31 549.46 1186.38 547.525V558.325H1182.15V523.63H1185.25L1185.93 526.96C1188.22 524.17 1191.06 522.865 1194.66 522.865ZM1193.76 547.345C1198.17 547.345 1201.99 544.24 1201.99 536.455C1201.99 529.57 1198.71 526.285 1194.07 526.285C1190.79 526.285 1188.36 527.86 1186.38 529.75V543.97C1188.27 545.86 1190.65 547.345 1193.76 547.345ZM1241.49 535.69V532.585H1254.81V550H1251.75L1250.94 545.68C1248.92 548.56 1245.63 550.72 1240.59 550.72C1231.91 550.72 1225.79 544.825 1225.79 533.44C1225.79 523.045 1231.82 516.295 1241.22 516.295C1248.06 516.295 1253.19 519.805 1254.18 525.97H1249.82C1249.14 522.55 1246.17 520.03 1241.22 520.03C1234.65 520.03 1230.24 524.98 1230.24 533.44C1230.24 542.53 1234.29 547.03 1240.95 547.03C1245.63 547.03 1248.42 544.645 1250.49 541.99V536.14L1241.49 535.69ZM1275.15 550.72C1267.1 550.72 1262.51 546.265 1262.51 538.255V517.015H1266.87V537.67C1266.87 544.015 1269.66 546.985 1275.15 546.985C1280.69 546.985 1283.48 544.015 1283.48 537.67V517.015H1287.84V538.255C1287.84 546.265 1283.25 550.72 1275.15 550.72ZM1300.85 550H1296.49V517.015H1300.85V550ZM1327.39 550H1323.25V517.015H1329.68L1339.72 544.96L1349.84 517.015H1356.23V550H1352.09V521.875L1341.7 550H1337.78L1327.39 521.875V550ZM1386.77 546.805H1387.26V550C1386.77 550.18 1386.14 550.225 1385.51 550.225C1383.08 550.225 1381.55 548.92 1381.05 547.165C1379.12 549.19 1376.15 550.72 1372.28 550.72C1366.97 550.72 1363.59 547.795 1363.59 543.25C1363.59 538.525 1366.43 534.655 1375.52 534.565L1380.65 534.52V531.415C1380.65 527.995 1378.8 526.06 1375.07 526.06C1371.6 526.06 1369.13 527.725 1368.81 530.65H1364.67C1364.99 525.88 1369.35 522.865 1375.07 522.865C1381.64 522.865 1384.88 526.24 1384.88 531.64V544.24C1384.88 545.905 1385.33 546.805 1386.77 546.805ZM1367.82 543.16C1367.82 545.905 1369.8 547.57 1372.91 547.57C1376.1 547.57 1378.62 546.175 1380.69 544.555L1380.65 544.33V537.31H1376.15C1369.71 537.31 1367.82 540.01 1367.82 543.16ZM1412.71 526.06V515.665H1416.94V550H1413.84L1413.12 546.625C1410.82 549.37 1408.03 550.72 1404.39 550.72C1397.46 550.72 1392.78 545.365 1392.78 537.13C1392.78 528.355 1397.86 522.865 1404.97 522.865C1408.3 522.865 1410.78 524.125 1412.71 526.06ZM1404.97 547.3C1408.3 547.3 1410.78 545.68 1412.71 543.835V529.66C1410.82 527.725 1408.44 526.24 1405.29 526.24C1400.88 526.24 1397.05 529.345 1397.05 537.13C1397.05 544.015 1400.34 547.3 1404.97 547.3ZM1448.67 536.455V537.67H1429.14C1429.41 544.42 1432.24 547.39 1436.97 547.39C1440.48 547.39 1442.86 545.725 1444.21 542.71H1448.35C1446.73 547.75 1442.68 550.72 1436.97 550.72C1429.45 550.72 1424.82 545.77 1424.82 536.77C1424.82 527.68 1430.13 522.865 1437.01 522.865C1444.17 522.865 1448.67 527.59 1448.67 536.455ZM1429.14 534.925H1444.48C1444.21 529.255 1441.74 526.105 1437.01 526.105C1432.2 526.105 1429.54 529.525 1429.14 534.925ZM1491.5 550H1469.59V517.015H1491.28V520.615H1473.95V531.01H1490.02V534.61H1473.95V546.4H1491.5V550ZM1520.23 546.805H1520.73V550C1520.23 550.18 1519.6 550.225 1518.97 550.225C1516.54 550.225 1515.01 548.92 1514.52 547.165C1512.58 549.19 1509.61 550.72 1505.74 550.72C1500.43 550.72 1497.06 547.795 1497.06 543.25C1497.06 538.525 1499.89 534.655 1508.98 534.565L1514.11 534.52V531.415C1514.11 527.995 1512.27 526.06 1508.53 526.06C1505.07 526.06 1502.59 527.725 1502.28 530.65H1498.14C1498.45 525.88 1502.82 522.865 1508.53 522.865C1515.1 522.865 1518.34 526.24 1518.34 531.64V544.24C1518.34 545.905 1518.79 546.805 1520.23 546.805ZM1501.29 543.16C1501.29 545.905 1503.27 547.57 1506.37 547.57C1509.57 547.57 1512.09 546.175 1514.16 544.555L1514.11 544.33V537.31H1509.61C1503.18 537.31 1501.29 540.01 1501.29 543.16ZM1536.91 550.72C1529.8 550.72 1526.15 547.75 1525.61 542.71H1529.8C1530.25 546.085 1532.68 547.48 1536.91 547.48C1541 547.48 1542.89 545.635 1542.89 543.115C1542.89 540.865 1541.45 539.695 1538.03 538.795L1533.26 537.58C1529.62 536.635 1526.65 534.88 1526.65 530.425C1526.65 526.06 1530.52 522.865 1536.55 522.865C1542.58 522.865 1546.18 525.43 1546.67 530.65H1542.53C1542.22 527.41 1540.15 526.105 1536.55 526.105C1532.86 526.105 1530.88 527.86 1530.88 530.2C1530.88 532.945 1532.77 533.62 1534.97 534.25L1539.74 535.51C1543.84 536.59 1547.12 538.48 1547.12 543.025C1547.12 547.525 1543.39 550.72 1536.91 550.72ZM1556.26 558.55C1555.45 558.55 1554.5 558.46 1553.87 558.325V554.995H1555.99C1557.83 554.995 1559.45 554.5 1560.31 552.16L1561.12 549.91L1551.04 523.63H1555.36L1563.23 546.22L1570.34 523.63H1574.66L1564.18 552.79C1562.92 556.345 1560.98 558.55 1556.26 558.55Z" fill="black"/>
<path d="M1085.65 724.704C1089.87 724.704 1091.95 727.648 1091.95 731.808V744H1088.94V732C1088.94 728.992 1087.86 727.168 1085.04 727.168C1082.7 727.168 1081.04 728.512 1079.73 730.144V744H1076.72V725.248H1078.93L1079.5 727.904C1081.04 725.888 1082.99 724.704 1085.65 724.704ZM1098.31 718.208H1101.48V721.824H1098.31V718.208ZM1102.21 725.248V744H1099.2V727.584L1096.39 727.328V725.248H1102.21ZM1124.62 744H1121.29L1115.02 734.528L1112.04 737.504V744H1109.06V719.584H1112.04V734.272L1120.74 725.248H1124.3L1116.87 732.672L1124.62 744ZM1128.84 718.208H1132.01V721.824H1128.84V718.208ZM1132.74 725.248V744H1129.74V727.584L1126.92 727.328V725.248H1132.74ZM1146.96 741.568H1149.2V744C1148.46 744.096 1147.5 744.16 1146.64 744.16C1142.6 744.16 1140.4 742.432 1140.4 738.528V727.584H1137.61V725.248H1140.52L1141.04 720.864H1143.4V725.248H1148.4V727.584H1143.4V738.272C1143.4 740.576 1144.62 741.568 1146.96 741.568ZM1161.62 744.512C1156.53 744.512 1152.66 740.992 1152.66 734.656C1152.66 728.224 1156.6 724.704 1161.62 724.704C1166.68 724.704 1170.61 728.256 1170.61 734.656C1170.61 740.992 1166.71 744.512 1161.62 744.512ZM1161.62 742.112C1165.04 742.112 1167.6 739.552 1167.6 734.656C1167.6 729.696 1165.04 727.136 1161.62 727.136C1158.23 727.136 1155.67 729.696 1155.67 734.656C1155.67 739.552 1158.23 742.112 1161.62 742.112ZM1185.15 724.704C1189.37 724.704 1191.45 727.648 1191.45 731.808V744H1188.44V732C1188.44 728.992 1187.36 727.168 1184.54 727.168C1182.2 727.168 1180.54 728.512 1179.23 730.144V744H1176.22V725.248H1178.43L1179 727.904C1180.54 725.888 1182.49 724.704 1185.15 724.704ZM1204.43 744.512C1199.38 744.512 1196.78 742.4 1196.4 738.816H1199.38C1199.7 741.216 1201.42 742.208 1204.43 742.208C1207.34 742.208 1208.69 740.896 1208.69 739.104C1208.69 737.504 1207.66 736.672 1205.23 736.032L1201.84 735.168C1199.25 734.496 1197.14 733.248 1197.14 730.08C1197.14 726.976 1199.89 724.704 1204.18 724.704C1208.46 724.704 1211.02 726.528 1211.38 730.24H1208.43C1208.21 727.936 1206.74 727.008 1204.18 727.008C1201.55 727.008 1200.14 728.256 1200.14 729.92C1200.14 731.872 1201.49 732.352 1203.06 732.8L1206.45 733.696C1209.36 734.464 1211.7 735.808 1211.7 739.04C1211.7 742.24 1209.04 744.512 1204.43 744.512ZM1232.4 744H1229.07L1222.8 734.528L1219.82 737.504V744H1216.85V719.584H1219.82V734.272L1228.53 725.248H1232.08L1224.65 732.672L1232.4 744ZM1238.41 750.08C1237.84 750.08 1237.16 750.016 1236.72 749.92V747.552H1238.22C1239.53 747.552 1240.68 747.2 1241.29 745.536L1241.87 743.936L1234.7 725.248H1237.77L1243.37 741.312L1248.43 725.248H1251.5L1244.04 745.984C1243.15 748.512 1241.77 750.08 1238.41 750.08Z" fill="black"/>
<path fill-rule="evenodd" clip-rule="evenodd" d="M1040.5 710.765C1045.23 711.469 1049.22 715.097 1049.84 719.702C1050.11 722.441 1049.97 726.556 1049.91 728.557C1049.89 729.054 1049.88 729.421 1049.88 729.603C1049.88 729.872 1049.84 732.327 1049.83 732.586C1049.41 739.166 1045.33 741.764 1041.04 742.592C1041 742.606 1040.95 742.616 1040.89 742.627C1040.88 742.629 1040.86 742.632 1040.85 742.635C1038.13 743.169 1035.22 743.311 1032.46 743.389C1031.8 743.406 1031.14 743.406 1030.48 743.406C1027.73 743.407 1024.99 743.08 1022.32 742.432C1022.31 742.429 1022.29 742.428 1022.28 742.431C1022.26 742.435 1022.25 742.441 1022.24 742.45C1022.23 742.46 1022.22 742.471 1022.21 742.485C1022.21 742.498 1022.2 742.513 1022.2 742.528C1022.28 743.402 1022.47 744.262 1022.77 745.087C1023.14 746.042 1024.43 748.334 1029.23 748.334C1032.03 748.34 1034.81 748.013 1037.53 747.36C1037.54 747.357 1037.55 747.357 1037.57 747.36C1037.58 747.363 1037.59 747.369 1037.61 747.378C1037.62 747.387 1037.63 747.398 1037.63 747.411C1037.64 747.424 1037.64 747.438 1037.64 747.452V750.682C1037.64 750.697 1037.64 750.712 1037.63 750.725C1037.62 750.739 1037.61 750.75 1037.6 750.759C1036.75 751.378 1035.61 751.742 1034.61 752.061C1034.56 752.075 1034.52 752.089 1034.48 752.104C1034.02 752.248 1033.56 752.374 1033.09 752.483C1028.86 753.454 1024.43 753.219 1020.32 751.805C1016.48 750.45 1012.55 747.127 1011.58 743.133C1011.07 740.971 1010.7 738.775 1010.49 736.561C1010.27 734.14 1010.2 731.715 1010.13 729.287C1010.1 728.372 1010.07 727.457 1010.04 726.541C1009.95 724.208 1010 721.664 1010.49 719.369C1011.51 714.71 1015.71 711.449 1020.31 710.765C1020.4 710.751 1020.51 710.733 1020.63 710.711C1021.54 710.55 1023.44 710.214 1029.62 710.214H1029.67C1036.68 710.214 1039.7 710.647 1040.5 710.765ZM1020.71 726.643C1022.69 726.643 1024.29 725.044 1024.29 723.071C1024.29 721.099 1022.69 719.5 1020.71 719.5C1018.74 719.5 1017.14 721.099 1017.14 723.071C1017.14 725.044 1018.74 726.643 1020.71 726.643Z" fill="url(#paint3_linear_1_3)"/>
<path d="M1083.66 825.504H1085.42V828C1084.59 828.096 1083.98 828.16 1083.12 828.16C1079.86 828.16 1077.23 826.72 1077.26 822.688V803.584H1080.27V822.24C1080.27 824.64 1081.65 825.504 1083.66 825.504ZM1097.23 828.512C1092.14 828.512 1088.27 824.992 1088.27 818.656C1088.27 812.224 1092.21 808.704 1097.23 808.704C1102.29 808.704 1106.22 812.256 1106.22 818.656C1106.22 824.992 1102.32 828.512 1097.23 828.512ZM1097.23 826.112C1100.65 826.112 1103.21 823.552 1103.21 818.656C1103.21 813.696 1100.65 811.136 1097.23 811.136C1093.84 811.136 1091.28 813.696 1091.28 818.656C1091.28 823.552 1093.84 826.112 1097.23 826.112ZM1120.76 808.704C1124.98 808.704 1127.06 811.648 1127.06 815.808V828H1124.05V816C1124.05 812.992 1122.97 811.168 1120.15 811.168C1117.81 811.168 1116.15 812.512 1114.84 814.144V828H1111.83V809.248H1114.04L1114.61 811.904C1116.15 809.888 1118.1 808.704 1120.76 808.704ZM1146.63 810.976V803.584H1149.64V828H1147.43L1146.92 825.6C1145.29 827.552 1143.31 828.512 1140.71 828.512C1135.79 828.512 1132.46 824.704 1132.46 818.848C1132.46 812.608 1136.07 808.704 1141.13 808.704C1143.5 808.704 1145.26 809.6 1146.63 810.976ZM1141.13 826.08C1143.5 826.08 1145.26 824.928 1146.63 823.616V813.536C1145.29 812.16 1143.59 811.104 1141.35 811.104C1138.22 811.104 1135.5 813.312 1135.5 818.848C1135.5 823.744 1137.83 826.08 1141.13 826.08ZM1164.2 828.512C1159.11 828.512 1155.24 824.992 1155.24 818.656C1155.24 812.224 1159.17 808.704 1164.2 808.704C1169.25 808.704 1173.19 812.256 1173.19 818.656C1173.19 824.992 1169.29 828.512 1164.2 828.512ZM1164.2 826.112C1167.62 826.112 1170.18 823.552 1170.18 818.656C1170.18 813.696 1167.62 811.136 1164.2 811.136C1160.81 811.136 1158.25 813.696 1158.25 818.656C1158.25 823.552 1160.81 826.112 1164.2 826.112ZM1187.73 808.704C1191.95 808.704 1194.03 811.648 1194.03 815.808V828H1191.02V816C1191.02 812.992 1189.94 811.168 1187.12 811.168C1184.78 811.168 1183.12 812.512 1181.81 814.144V828H1178.8V809.248H1181.01L1181.58 811.904C1183.12 809.888 1185.07 808.704 1187.73 808.704ZM1217.63 828.512C1212.29 828.512 1208.89 824.96 1208.89 818.656C1208.89 812.448 1212.48 808.704 1217.73 808.704C1222.21 808.704 1224.67 810.944 1225.44 814.24H1222.43C1221.76 812.416 1220.51 811.136 1217.73 811.136C1214.33 811.136 1211.9 813.76 1211.9 818.656C1211.9 823.616 1214.27 826.112 1217.63 826.112C1219.9 826.112 1221.82 824.992 1222.53 822.816H1225.53C1224.67 826.464 1221.6 828.512 1217.63 828.512ZM1237.13 825.504H1238.89V828C1238.06 828.096 1237.45 828.16 1236.59 828.16C1233.32 828.16 1230.7 826.72 1230.73 822.688V803.584H1233.74V822.24C1233.74 824.64 1235.12 825.504 1237.13 825.504ZM1250.7 828.512C1245.61 828.512 1241.74 824.992 1241.74 818.656C1241.74 812.224 1245.67 808.704 1250.7 808.704C1255.75 808.704 1259.69 812.256 1259.69 818.656C1259.69 824.992 1255.79 828.512 1250.7 828.512ZM1250.7 826.112C1254.12 826.112 1256.68 823.552 1256.68 818.656C1256.68 813.696 1254.12 811.136 1250.7 811.136C1247.31 811.136 1244.75 813.696 1244.75 818.656C1244.75 823.552 1247.31 826.112 1250.7 826.112ZM1265.01 802.208H1268.18V805.824H1265.01V802.208ZM1268.92 809.248V828.992C1268.92 832.032 1267.83 834.08 1264.21 834.08C1263.57 834.08 1263.09 834.016 1262.71 833.92V831.616H1263.7C1265.11 831.616 1265.91 830.976 1265.91 829.056V811.584L1263.09 811.328V809.248H1268.92ZM1287.64 823.136V809.248H1290.65V828H1288.44L1287.9 825.312C1286.3 827.328 1284.38 828.512 1281.75 828.512C1277.66 828.512 1275.58 825.6 1275.58 821.408V809.248H1278.58V821.28C1278.58 824.576 1279.9 826.048 1282.39 826.048C1284.66 826.048 1286.36 824.672 1287.64 823.136ZM1306.61 809.184C1307.15 809.184 1307.53 809.216 1307.82 809.248V812.544H1306.54C1304.3 812.544 1302.25 813.184 1301.1 815.712V828H1298.09V811.584L1295.28 811.328V809.248H1300.3L1301.04 812.992C1302.19 810.72 1304.27 809.184 1306.61 809.184ZM1312.42 802.208H1315.59V805.824H1312.42V802.208ZM1316.32 809.248V828H1313.31V811.584L1310.5 811.328V809.248H1316.32ZM1338.25 825.728H1338.6V828C1338.25 828.128 1337.8 828.16 1337.35 828.16C1335.62 828.16 1334.53 827.232 1334.18 825.984C1332.81 827.424 1330.69 828.512 1327.94 828.512C1324.17 828.512 1321.77 826.432 1321.77 823.2C1321.77 819.84 1323.78 817.088 1330.25 817.024L1333.89 816.992V814.784C1333.89 812.352 1332.58 810.976 1329.93 810.976C1327.46 810.976 1325.7 812.16 1325.48 814.24H1322.53C1322.76 810.848 1325.86 808.704 1329.93 808.704C1334.6 808.704 1336.9 811.104 1336.9 814.944V823.904C1336.9 825.088 1337.22 825.728 1338.25 825.728ZM1324.77 823.136C1324.77 825.088 1326.18 826.272 1328.39 826.272C1330.66 826.272 1332.45 825.28 1333.93 824.128L1333.89 823.968V818.976H1330.69C1326.12 818.976 1324.77 820.896 1324.77 823.136ZM1352.7 808.704C1356.92 808.704 1359 811.648 1359 815.808V828H1355.99V816C1355.99 812.992 1354.9 811.168 1352.09 811.168C1349.75 811.168 1348.09 812.512 1346.78 814.144V828H1343.77V809.248H1345.98L1346.55 811.904C1348.09 809.888 1350.04 808.704 1352.7 808.704ZM1371.98 828.512C1366.92 828.512 1364.33 826.4 1363.95 822.816H1366.92C1367.24 825.216 1368.97 826.208 1371.98 826.208C1374.89 826.208 1376.23 824.896 1376.23 823.104C1376.23 821.504 1375.21 820.672 1372.78 820.032L1369.39 819.168C1366.79 818.496 1364.68 817.248 1364.68 814.08C1364.68 810.976 1367.43 808.704 1371.72 808.704C1376.01 808.704 1378.57 810.528 1378.92 814.24H1375.98C1375.75 811.936 1374.28 811.008 1371.72 811.008C1369.1 811.008 1367.69 812.256 1367.69 813.92C1367.69 815.872 1369.03 816.352 1370.6 816.8L1373.99 817.696C1376.91 818.464 1379.24 819.808 1379.24 823.04C1379.24 826.24 1376.59 828.512 1371.98 828.512Z" fill="black"/>
<path fill-rule="evenodd" clip-rule="evenodd" d="M1028.28 794C1039.36 794 1048.35 802.982 1048.35 814.063C1048.35 825.143 1039.36 834.126 1028.28 834.126C1017.2 834.126 1008.22 825.143 1008.22 814.063C1008.22 802.982 1017.2 794 1028.28 794ZM1028.28 801.666C1035.13 801.666 1040.68 807.217 1040.68 814.063C1040.68 820.91 1035.13 826.46 1028.28 826.46C1021.44 826.46 1015.89 820.91 1015.89 814.063C1015.89 807.217 1021.44 801.666 1028.28 801.666Z" fill="#59B502"/>
<rect width="50.4837" height="10.7774" transform="matrix(1 0 0 -1 1003 819.735)" fill="#2D62D2" stroke="white" stroke-width="2"/>
<defs>
<linearGradient id="paint0_linear_1_3" x1="623.905" y1="451.297" x2="475.24" y2="453.991" gradientUnits="userSpaceOnUse">
<stop stop-color="#00D1FF" stop-opacity="0.4"/>
<stop offset="1" stop-color="#00D1FF" stop-opacity="0"/>
</linearGradient>
<linearGradient id="paint1_linear_1_3" x1="576.324" y1="466.417" x2="420.046" y2="469.321" gradientUnits="userSpaceOnUse">
<stop stop-color="#00D1FF" stop-opacity="0.4"/>
<stop offset="1" stop-color="#00D1FF" stop-opacity="0"/>
</linearGradient>
<linearGradient id="paint2_linear_1_3" x1="553.411" y1="552.953" x2="566.592" y2="612.652" gradientUnits="userSpaceOnUse">
<stop stop-color="#FFDB2B"/>
<stop offset="1" stop-color="#C9A900"/>
</linearGradient>
<linearGradient id="paint3_linear_1_3" x1="1030" y1="710.214" x2="1030" y2="753.071" gradientUnits="userSpaceOnUse">
<stop stop-color="#6364FF"/>
<stop offset="1" stop-color="#563ACC"/>
</linearGradient>
</defs>
</svg>
